<?xml version="1.0" encoding="UTF-8" standalone="no"?>
<!DOCTYPE svg PUBLIC "-//W3C//DTD SVG 1.1//EN"
 "http://www.w3.org/Graphics/SVG/1.1/DTD/svg11.dtd">
<!-- Generated by graphviz version 2.42.4 (0)
 -->
<!-- Title: schema_relations Pages: 1 -->
<svg width="609pt" height="72pt"
 viewBox="0.00 0.00 609.00 72.00" xmlns="http://www.w3.org/2000/svg" xmlns:xlink="http://www.w3.org/1999/xlink">
<g id="graph0" class="graph" transform="scale(1 1) rotate(0) translate(18 54)">
<title>schema_relations</title>
<!-- instrument_class -->
<g id="node1" class="node">
<title>instrument_class</title>
<path fill="#f8fafc" stroke="#334155" d="M96,-36C96,-36 12,-36 12,-36 6,-36 0,-30 0,-24 0,-24 0,-12 0,-12 0,-6 6,0 12,0 12,0 96,0 96,0 102,0 108,-6 108,-12 108,-12 108,-24 108,-24 108,-30 102,-36 96,-36"/>
<text text-anchor="middle" x="54" y="-15.2" font-family="Helvetica,sans-Serif" font-size="11.00">instrument_class</text>
</g>
<!-- instrument_type -->
<g id="node2" class="node">
<title>instrument_type</title>
<path fill="#f8fafc" stroke="#334155" d="M370,-36C370,-36 289,-36 289,-36 283,-36 277,-30 277,-24 277,-24 277,-12 277,-12 277,-6 283,0 289,0 289,0 370,0 370,0 376,0 382,-6 382,-12 382,-12 382,-24 382,-24 382,-30 376,-36 370,-36"/>
<text text-anchor="middle" x="329.5" y="-15.2" font-family="Helvetica,sans-Serif" font-size="11.00">instrument_type</text>
</g>
<!-- instrument_class&#45;&gt;instrument_type -->
<g id="edge1" class="edge">
<title>instrument_class&#45;&gt;instrument_type</title>
<path fill="none" stroke="#64748b" d="M108.06,-18C154.45,-18 221.73,-18 269.74,-18"/>
<polygon fill="#64748b" stroke="#64748b" points="269.98,-20.45 276.98,-18 269.98,-15.55 269.98,-20.45"/>
<text text-anchor="middle" x="192.5" y="-20.6" font-family="Helvetica,sans-Serif" font-size="8.00">fk_instrument_type_class</text>
</g>
<!-- security -->
<g id="node3" class="node">
<title>security</title>
<path fill="#f8fafc" stroke="#334155" d="M561,-36C561,-36 526,-36 526,-36 520,-36 514,-30 514,-24 514,-24 514,-12 514,-12 514,-6 520,0 526,0 526,0 561,0 561,0 567,0 573,-6 573,-12 573,-12 573,-24 573,-24 573,-30 567,-36 561,-36"/>
<text text-anchor="middle" x="543.5" y="-15.2" font-family="Helvetica,sans-Serif" font-size="11.00">security</text>
</g>
<!-- instrument_type&#45;&gt;security -->
<g id="edge2" class="edge">
<title>instrument_type&#45;&gt;security</title>
<path fill="none" stroke="#64748b" d="M382.09,-18C420.77,-18 472.7,-18 506.86,-18"/>
<polygon fill="#64748b" stroke="#64748b" points="506.87,-20.45 513.87,-18 506.87,-15.55 506.87,-20.45"/>
<text text-anchor="middle" x="448" y="-20.6" font-family="Helvetica,sans-Serif" font-size="8.00">fk_security_type</text>
</g>
</g>
</svg>
