<?xml version="1.0" encoding="UTF-8" standalone="no"?>
<!DOCTYPE svg PUBLIC "-//W3C//DTD SVG 1.1//EN"
 "http://www.w3.org/Graphics/SVG/1.1/DTD/svg11.dtd">
<!-- Generated by graphviz version 2.42.4 (0)
 -->
<!-- Title: ERD Pages: 1 -->
<svg width="317pt" height="604pt"
 viewBox="0.00 0.00 316.80 604.00" xmlns="http://www.w3.org/2000/svg" xmlns:xlink="http://www.w3.org/1999/xlink">
<g id="graph0" class="graph" transform="scale(1 1) rotate(0) translate(4 600)">
<title>ERD</title>
<polygon fill="white" stroke="transparent" points="-4,4 -4,-600 312.8,-600 312.8,4 -4,4"/>
<!-- instrument_class -->
<g id="node1" class="node">
<title>instrument_class</title>
<polygon fill="lightblue" stroke="transparent" points="84.8,-104 84.8,-124 269.8,-124 269.8,-104 84.8,-104"/>
<polygon fill="none" stroke="black" points="84.8,-104 84.8,-124 269.8,-124 269.8,-104 84.8,-104"/>
<text text-anchor="start" x="133.3" y="-112.8" font-family="Verdana" font-weight="bold" font-size="9.00">instrument_class</text>
<polygon fill="none" stroke="black" points="84.8,-84 84.8,-104 269.8,-104 269.8,-84 84.8,-84"/>
<text text-anchor="start" x="89.8" y="-92.8" font-family="Verdana" font-weight="bold" font-size="9.00">class_code</text>
<text text-anchor="start" x="143.8" y="-92.8" font-family="Verdana" font-size="9.00">: </text>
<text text-anchor="start" x="150.8" y="-92.8" font-family="Verdana" font-style="italic" font-size="9.00">VARCHAR(32) &#160;NOT NULL</text>
<polygon fill="none" stroke="black" points="84.8,-64 84.8,-84 269.8,-84 269.8,-64 84.8,-64"/>
<text text-anchor="start" x="89.8" y="-72.8" font-family="Verdana" font-weight="bold" font-size="9.00">class_name</text>
<text text-anchor="start" x="147.8" y="-72.8" font-family="Verdana" font-size="9.00">: </text>
<text text-anchor="start" x="154.8" y="-72.8" font-family="Verdana" font-style="italic" font-size="9.00">TEXT &#160;NOT NULL</text>
<polygon fill="none" stroke="black" points="84.8,-44 84.8,-64 269.8,-64 269.8,-44 84.8,-44"/>
<text text-anchor="start" x="89.8" y="-52.8" font-family="Verdana" font-weight="bold" font-size="9.00">description</text>
<text text-anchor="start" x="147.8" y="-52.8" font-family="Verdana" font-size="9.00">: </text>
<text text-anchor="start" x="154.8" y="-52.8" font-family="Verdana" font-style="italic" font-size="9.00">TEXT </text>
<polygon fill="none" stroke="black" points="84.8,-24 84.8,-44 269.8,-44 269.8,-24 84.8,-24"/>
<text text-anchor="start" x="89.8" y="-32.8" font-family="Verdana" font-weight="bold" font-size="9.00">sort_order</text>
<text text-anchor="start" x="142.8" y="-32.8" font-family="Verdana" font-size="9.00">: </text>
<text text-anchor="start" x="149.8" y="-32.8" font-family="Verdana" font-style="italic" font-size="9.00">SMALLINT &#160;NOT NULL</text>
<polygon fill="none" stroke="black" points="84.8,-4 84.8,-24 269.8,-24 269.8,-4 84.8,-4"/>
<text text-anchor="start" x="89.8" y="-12.8" font-family="Verdana" font-weight="bold" font-size="9.00">is_active</text>
<text text-anchor="start" x="133.8" y="-12.8" font-family="Verdana" font-size="9.00">: </text>
<text text-anchor="start" x="140.8" y="-12.8" font-family="Verdana" font-style="italic" font-size="9.00">BOOLEAN &#160;NOT NULL</text>
</g>
<!-- instrument_type -->
<g id="node2" class="node">
<title>instrument_type</title>
<polygon fill="lightblue" stroke="transparent" points="84.8,-268 84.8,-288 269.8,-288 269.8,-268 84.8,-268"/>
<polygon fill="none" stroke="black" points="84.8,-268 84.8,-288 269.8,-288 269.8,-268 84.8,-268"/>
<text text-anchor="start" x="134.3" y="-276.8" font-family="Verdana" font-weight="bold" font-size="9.00">instrument_type</text>
<polygon fill="none" stroke="black" points="84.8,-248 84.8,-268 269.8,-268 269.8,-248 84.8,-248"/>
<text text-anchor="start" x="89.8" y="-256.8" font-family="Verdana" font-weight="bold" font-size="9.00">type_code</text>
<text text-anchor="start" x="141.8" y="-256.8" font-family="Verdana" font-size="9.00">: </text>
<text text-anchor="start" x="148.8" y="-256.8" font-family="Verdana" font-style="italic" font-size="9.00">VARCHAR(32) &#160;NOT NULL</text>
<polygon fill="none" stroke="black" points="84.8,-228 84.8,-248 269.8,-248 269.8,-228 84.8,-228"/>
<text text-anchor="start" x="89.8" y="-236.8" font-family="Verdana" font-weight="bold" font-size="9.00">class_code</text>
<text text-anchor="start" x="143.8" y="-236.8" font-family="Verdana" font-size="9.00">: </text>
<text text-anchor="start" x="150.8" y="-236.8" font-family="Verdana" font-style="italic" font-size="9.00">VARCHAR(32) &#160;NOT NULL</text>
<polygon fill="none" stroke="black" points="84.8,-208 84.8,-228 269.8,-228 269.8,-208 84.8,-208"/>
<text text-anchor="start" x="89.8" y="-216.8" font-family="Verdana" font-weight="bold" font-size="9.00">type_name</text>
<text text-anchor="start" x="146.8" y="-216.8" font-family="Verdana" font-size="9.00">: </text>
<text text-anchor="start" x="153.8" y="-216.8" font-family="Verdana" font-style="italic" font-size="9.00">TEXT &#160;NOT NULL</text>
<polygon fill="none" stroke="black" points="84.8,-188 84.8,-208 269.8,-208 269.8,-188 84.8,-188"/>
<text text-anchor="start" x="89.8" y="-196.8" font-family="Verdana" font-weight="bold" font-size="9.00">description</text>
<text text-anchor="start" x="147.8" y="-196.8" font-family="Verdana" font-size="9.00">: </text>
<text text-anchor="start" x="154.8" y="-196.8" font-family="Verdana" font-style="italic" font-size="9.00">TEXT </text>
<polygon fill="none" stroke="black" points="84.8,-168 84.8,-188 269.8,-188 269.8,-168 84.8,-168"/>
<text text-anchor="start" x="89.8" y="-176.8" font-family="Verdana" font-weight="bold" font-size="9.00">is_active</text>
<text text-anchor="start" x="133.8" y="-176.8" font-family="Verdana" font-size="9.00">: </text>
<text text-anchor="start" x="140.8" y="-176.8" font-family="Verdana" font-style="italic" font-size="9.00">BOOLEAN &#160;NOT NULL</text>
</g>
<!-- instrument_type&#45;&gt;instrument_class -->
<g id="edge1" class="edge">
<title>instrument_type:class_code&#45;&gt;instrument_class:class_code</title>
<path fill="none" stroke="black" d="M83.8,-238C23.3,-238 19.99,-109.32 73.87,-95.24"/>
<polygon fill="black" stroke="black" points="74.31,-98.72 83.8,-94 73.44,-91.77 74.31,-98.72"/>
</g>
<!-- security -->
<g id="node3" class="node">
<title>security</title>
<polygon fill="lightblue" stroke="transparent" points="54.8,-572 54.8,-592 300.8,-592 300.8,-572 54.8,-572"/>
<polygon fill="none" stroke="black" points="54.8,-572 54.8,-592 300.8,-592 300.8,-572 54.8,-572"/>
<text text-anchor="start" x="156.8" y="-580.8" font-family="Verdana" font-weight="bold" font-size="9.00">security</text>
<polygon fill="none" stroke="black" points="54.8,-552 54.8,-572 300.8,-572 300.8,-552 54.8,-552"/>
<text text-anchor="start" x="59.8" y="-560.8" font-family="Verdana" font-weight="bold" font-size="9.00">security_id</text>
<text text-anchor="start" x="115.8" y="-560.8" font-family="Verdana" font-size="9.00">: </text>
<text text-anchor="start" x="122.8" y="-560.8" font-family="Verdana" font-style="italic" font-size="9.00">UUID &#160;NOT NULL</text>
<polygon fill="none" stroke="black" points="54.8,-532 54.8,-552 300.8,-552 300.8,-532 54.8,-532"/>
<text text-anchor="start" x="59.8" y="-540.8" font-family="Verdana" font-weight="bold" font-size="9.00">issuer_id</text>
<text text-anchor="start" x="105.8" y="-540.8" font-family="Verdana" font-size="9.00">: </text>
<text text-anchor="start" x="112.8" y="-540.8" font-family="Verdana" font-style="italic" font-size="9.00">UUID </text>
<polygon fill="none" stroke="black" points="54.8,-512 54.8,-532 300.8,-532 300.8,-512 54.8,-512"/>
<text text-anchor="start" x="59.8" y="-520.8" font-family="Verdana" font-weight="bold" font-size="9.00">instrument_type_code</text>
<text text-anchor="start" x="174.8" y="-520.8" font-family="Verdana" font-size="9.00">: </text>
<text text-anchor="start" x="181.8" y="-520.8" font-family="Verdana" font-style="italic" font-size="9.00">VARCHAR(32) &#160;NOT NULL</text>
<polygon fill="none" stroke="black" points="54.8,-492 54.8,-512 300.8,-512 300.8,-492 54.8,-492"/>
<text text-anchor="start" x="59.8" y="-500.8" font-family="Verdana" font-weight="bold" font-size="9.00">security_title</text>
<text text-anchor="start" x="126.8" y="-500.8" font-family="Verdana" font-size="9.00">: </text>
<text text-anchor="start" x="133.8" y="-500.8" font-family="Verdana" font-style="italic" font-size="9.00">TEXT &#160;NOT NULL</text>
<polygon fill="none" stroke="black" points="54.8,-472 54.8,-492 300.8,-492 300.8,-472 54.8,-472"/>
<text text-anchor="start" x="59.8" y="-480.8" font-family="Verdana" font-weight="bold" font-size="9.00">share_class</text>
<text text-anchor="start" x="117.8" y="-480.8" font-family="Verdana" font-size="9.00">: </text>
<text text-anchor="start" x="124.8" y="-480.8" font-family="Verdana" font-style="italic" font-size="9.00">TEXT </text>
<polygon fill="none" stroke="black" points="54.8,-452 54.8,-472 300.8,-472 300.8,-452 54.8,-452"/>
<text text-anchor="start" x="59.8" y="-460.8" font-family="Verdana" font-weight="bold" font-size="9.00">currency_code</text>
<text text-anchor="start" x="133.8" y="-460.8" font-family="Verdana" font-size="9.00">: </text>
<text text-anchor="start" x="140.8" y="-460.8" font-family="Verdana" font-style="italic" font-size="9.00">VARCHAR(3) </text>
<polygon fill="none" stroke="black" points="54.8,-432 54.8,-452 300.8,-452 300.8,-432 54.8,-432"/>
<text text-anchor="start" x="59.8" y="-440.8" font-family="Verdana" font-weight="bold" font-size="9.00">status</text>
<text text-anchor="start" x="92.8" y="-440.8" font-family="Verdana" font-size="9.00">: </text>
<text text-anchor="start" x="99.8" y="-440.8" font-family="Verdana" font-style="italic" font-size="9.00">VARCHAR(24) &#160;NOT NULL</text>
<polygon fill="none" stroke="black" points="54.8,-412 54.8,-432 300.8,-432 300.8,-412 54.8,-412"/>
<text text-anchor="start" x="59.8" y="-420.8" font-family="Verdana" font-weight="bold" font-size="9.00">first_seen</text>
<text text-anchor="start" x="109.8" y="-420.8" font-family="Verdana" font-size="9.00">: </text>
<text text-anchor="start" x="116.8" y="-420.8" font-family="Verdana" font-style="italic" font-size="9.00">DATE </text>
<polygon fill="none" stroke="black" points="54.8,-392 54.8,-412 300.8,-412 300.8,-392 54.8,-392"/>
<text text-anchor="start" x="59.8" y="-400.8" font-family="Verdana" font-weight="bold" font-size="9.00">last_seen</text>
<text text-anchor="start" x="107.8" y="-400.8" font-family="Verdana" font-size="9.00">: </text>
<text text-anchor="start" x="114.8" y="-400.8" font-family="Verdana" font-style="italic" font-size="9.00">DATE </text>
<polygon fill="none" stroke="black" points="54.8,-372 54.8,-392 300.8,-392 300.8,-372 54.8,-372"/>
<text text-anchor="start" x="59.8" y="-380.8" font-family="Verdana" font-weight="bold" font-size="9.00">created_at</text>
<text text-anchor="start" x="114.8" y="-380.8" font-family="Verdana" font-size="9.00">: </text>
<text text-anchor="start" x="121.8" y="-380.8" font-family="Verdana" font-style="italic" font-size="9.00">TIMESTAMPTZ &#160;NOT NULL</text>
<polygon fill="none" stroke="black" points="54.8,-352 54.8,-372 300.8,-372 300.8,-352 54.8,-352"/>
<text text-anchor="start" x="59.8" y="-360.8" font-family="Verdana" font-weight="bold" font-size="9.00">updated_at</text>
<text text-anchor="start" x="118.8" y="-360.8" font-family="Verdana" font-size="9.00">: </text>
<text text-anchor="start" x="125.8" y="-360.8" font-family="Verdana" font-style="italic" font-size="9.00">TIMESTAMPTZ &#160;NOT NULL</text>
<polygon fill="none" stroke="black" points="54.8,-332 54.8,-352 300.8,-352 300.8,-332 54.8,-332"/>
<text text-anchor="start" x="59.8" y="-340.8" font-family="Verdana" font-weight="bold" font-size="9.00">identity_status</text>
<text text-anchor="start" x="137.8" y="-340.8" font-family="Verdana" font-size="9.00">: </text>
<text text-anchor="start" x="144.8" y="-340.8" font-family="Verdana" font-style="italic" font-size="9.00">VARCHAR(24) &#160;NOT NULL</text>
</g>
<!-- security&#45;&gt;instrument_type -->
<g id="edge2" class="edge">
<title>security:instrument_type_code&#45;&gt;instrument_type:type_code</title>
<path fill="none" stroke="black" d="M53.8,-522C-32.42,-522 -1.08,-393.67 54.8,-328 117.59,-254.21 206.12,-365.02 269.8,-292 276.63,-284.17 281.69,-271.03 279.27,-263.59"/>
<polygon fill="black" stroke="black" points="281.07,-260.59 270.8,-258 277.22,-266.43 281.07,-260.59"/>
</g>
</g>
</svg>
