<?xml version="1.0" encoding="UTF-8" standalone="no"?>
<!DOCTYPE svg PUBLIC "-//W3C//DTD SVG 1.1//EN"
 "http://www.w3.org/Graphics/SVG/1.1/DTD/svg11.dtd">
<!-- Generated by graphviz version 2.42.4 (0)
 -->
<!-- Title: ERD Pages: 1 -->
<svg width="311pt" height="584pt"
 viewBox="0.00 0.00 311.21 584.00" xmlns="http://www.w3.org/2000/svg" xmlns:xlink="http://www.w3.org/1999/xlink">
<g id="graph0" class="graph" transform="scale(1 1) rotate(0) translate(4 580)">
<title>ERD</title>
<polygon fill="white" stroke="transparent" points="-4,4 -4,-580 307.21,-580 307.21,4 -4,4"/>
<!-- instrument_class -->
<g id="node1" class="node">
<title>instrument_class</title>
<polygon fill="lightblue" stroke="transparent" points="79.21,-104 79.21,-124 264.21,-124 264.21,-104 79.21,-104"/>
<polygon fill="none" stroke="black" points="79.21,-104 79.21,-124 264.21,-124 264.21,-104 79.21,-104"/>
<text text-anchor="start" x="127.71" y="-112.8" font-family="Verdana" font-weight="bold" font-size="9.00">instrument_class</text>
<polygon fill="none" stroke="black" points="79.21,-84 79.21,-104 264.21,-104 264.21,-84 79.21,-84"/>
<text text-anchor="start" x="84.21" y="-92.8" font-family="Verdana" font-weight="bold" font-size="9.00">class_code</text>
<text text-anchor="start" x="138.21" y="-92.8" font-family="Verdana" font-size="9.00">: </text>
<text text-anchor="start" x="145.21" y="-92.8" font-family="Verdana" font-style="italic" font-size="9.00">VARCHAR(32) &#160;NOT NULL</text>
<polygon fill="none" stroke="black" points="79.21,-64 79.21,-84 264.21,-84 264.21,-64 79.21,-64"/>
<text text-anchor="start" x="84.21" y="-72.8" font-family="Verdana" font-weight="bold" font-size="9.00">class_name</text>
<text text-anchor="start" x="142.21" y="-72.8" font-family="Verdana" font-size="9.00">: </text>
<text text-anchor="start" x="149.21" y="-72.8" font-family="Verdana" font-style="italic" font-size="9.00">TEXT &#160;NOT NULL</text>
<polygon fill="none" stroke="black" points="79.21,-44 79.21,-64 264.21,-64 264.21,-44 79.21,-44"/>
<text text-anchor="start" x="84.21" y="-52.8" font-family="Verdana" font-weight="bold" font-size="9.00">description</text>
<text text-anchor="start" x="142.21" y="-52.8" font-family="Verdana" font-size="9.00">: </text>
<text text-anchor="start" x="149.21" y="-52.8" font-family="Verdana" font-style="italic" font-size="9.00">TEXT </text>
<polygon fill="none" stroke="black" points="79.21,-24 79.21,-44 264.21,-44 264.21,-24 79.21,-24"/>
<text text-anchor="start" x="84.21" y="-32.8" font-family="Verdana" font-weight="bold" font-size="9.00">sort_order</text>
<text text-anchor="start" x="137.21" y="-32.8" font-family="Verdana" font-size="9.00">: </text>
<text text-anchor="start" x="144.21" y="-32.8" font-family="Verdana" font-style="italic" font-size="9.00">SMALLINT &#160;NOT NULL</text>
<polygon fill="none" stroke="black" points="79.21,-4 79.21,-24 264.21,-24 264.21,-4 79.21,-4"/>
<text text-anchor="start" x="84.21" y="-12.8" font-family="Verdana" font-weight="bold" font-size="9.00">is_active</text>
<text text-anchor="start" x="128.21" y="-12.8" font-family="Verdana" font-size="9.00">: </text>
<text text-anchor="start" x="135.21" y="-12.8" font-family="Verdana" font-style="italic" font-size="9.00">BOOLEAN &#160;NOT NULL</text>
</g>
<!-- instrument_type -->
<g id="node2" class="node">
<title>instrument_type</title>
<polygon fill="lightblue" stroke="transparent" points="79.21,-268 79.21,-288 264.21,-288 264.21,-268 79.21,-268"/>
<polygon fill="none" stroke="black" points="79.21,-268 79.21,-288 264.21,-288 264.21,-268 79.21,-268"/>
<text text-anchor="start" x="128.71" y="-276.8" font-family="Verdana" font-weight="bold" font-size="9.00">instrument_type</text>
<polygon fill="none" stroke="black" points="79.21,-248 79.21,-268 264.21,-268 264.21,-248 79.21,-248"/>
<text text-anchor="start" x="84.21" y="-256.8" font-family="Verdana" font-weight="bold" font-size="9.00">type_code</text>
<text text-anchor="start" x="136.21" y="-256.8" font-family="Verdana" font-size="9.00">: </text>
<text text-anchor="start" x="143.21" y="-256.8" font-family="Verdana" font-style="italic" font-size="9.00">VARCHAR(32) &#160;NOT NULL</text>
<polygon fill="none" stroke="black" points="79.21,-228 79.21,-248 264.21,-248 264.21,-228 79.21,-228"/>
<text text-anchor="start" x="84.21" y="-236.8" font-family="Verdana" font-weight="bold" font-size="9.00">class_code</text>
<text text-anchor="start" x="138.21" y="-236.8" font-family="Verdana" font-size="9.00">: </text>
<text text-anchor="start" x="145.21" y="-236.8" font-family="Verdana" font-style="italic" font-size="9.00">VARCHAR(32) &#160;NOT NULL</text>
<polygon fill="none" stroke="black" points="79.21,-208 79.21,-228 264.21,-228 264.21,-208 79.21,-208"/>
<text text-anchor="start" x="84.21" y="-216.8" font-family="Verdana" font-weight="bold" font-size="9.00">type_name</text>
<text text-anchor="start" x="141.21" y="-216.8" font-family="Verdana" font-size="9.00">: </text>
<text text-anchor="start" x="148.21" y="-216.8" font-family="Verdana" font-style="italic" font-size="9.00">TEXT &#160;NOT NULL</text>
<polygon fill="none" stroke="black" points="79.21,-188 79.21,-208 264.21,-208 264.21,-188 79.21,-188"/>
<text text-anchor="start" x="84.21" y="-196.8" font-family="Verdana" font-weight="bold" font-size="9.00">description</text>
<text text-anchor="start" x="142.21" y="-196.8" font-family="Verdana" font-size="9.00">: </text>
<text text-anchor="start" x="149.21" y="-196.8" font-family="Verdana" font-style="italic" font-size="9.00">TEXT </text>
<polygon fill="none" stroke="black" points="79.21,-168 79.21,-188 264.21,-188 264.21,-168 79.21,-168"/>
<text text-anchor="start" x="84.21" y="-176.8" font-family="Verdana" font-weight="bold" font-size="9.00">is_active</text>
<text text-anchor="start" x="128.21" y="-176.8" font-family="Verdana" font-size="9.00">: </text>
<text text-anchor="start" x="135.21" y="-176.8" font-family="Verdana" font-style="italic" font-size="9.00">BOOLEAN &#160;NOT NULL</text>
</g>
<!-- instrument_type&#45;&gt;instrument_class -->
<g id="edge1" class="edge">
<title>instrument_type:class_code&#45;&gt;instrument_class:class_code</title>
<path fill="none" stroke="black" d="M78.21,-238C17.71,-238 14.4,-109.32 68.29,-95.24"/>
<polygon fill="black" stroke="black" points="68.73,-98.72 78.21,-94 67.86,-91.77 68.73,-98.72"/>
</g>
<!-- security -->
<g id="node3" class="node">
<title>security</title>
<polygon fill="lightblue" stroke="transparent" points="49.21,-552 49.21,-572 295.21,-572 295.21,-552 49.21,-552"/>
<polygon fill="none" stroke="black" points="49.21,-552 49.21,-572 295.21,-572 295.21,-552 49.21,-552"/>
<text text-anchor="start" x="151.21" y="-560.8" font-family="Verdana" font-weight="bold" font-size="9.00">security</text>
<polygon fill="none" stroke="black" points="49.21,-532 49.21,-552 295.21,-552 295.21,-532 49.21,-532"/>
<text text-anchor="start" x="54.21" y="-540.8" font-family="Verdana" font-weight="bold" font-size="9.00">security_id</text>
<text text-anchor="start" x="110.21" y="-540.8" font-family="Verdana" font-size="9.00">: </text>
<text text-anchor="start" x="117.21" y="-540.8" font-family="Verdana" font-style="italic" font-size="9.00">UUID &#160;NOT NULL</text>
<polygon fill="none" stroke="black" points="49.21,-512 49.21,-532 295.21,-532 295.21,-512 49.21,-512"/>
<text text-anchor="start" x="54.21" y="-520.8" font-family="Verdana" font-weight="bold" font-size="9.00">issuer_id</text>
<text text-anchor="start" x="100.21" y="-520.8" font-family="Verdana" font-size="9.00">: </text>
<text text-anchor="start" x="107.21" y="-520.8" font-family="Verdana" font-style="italic" font-size="9.00">UUID </text>
<polygon fill="none" stroke="black" points="49.21,-492 49.21,-512 295.21,-512 295.21,-492 49.21,-492"/>
<text text-anchor="start" x="54.21" y="-500.8" font-family="Verdana" font-weight="bold" font-size="9.00">instrument_type_code</text>
<text text-anchor="start" x="169.21" y="-500.8" font-family="Verdana" font-size="9.00">: </text>
<text text-anchor="start" x="176.21" y="-500.8" font-family="Verdana" font-style="italic" font-size="9.00">VARCHAR(32) &#160;NOT NULL</text>
<polygon fill="none" stroke="black" points="49.21,-472 49.21,-492 295.21,-492 295.21,-472 49.21,-472"/>
<text text-anchor="start" x="54.21" y="-480.8" font-family="Verdana" font-weight="bold" font-size="9.00">security_title</text>
<text text-anchor="start" x="121.21" y="-480.8" font-family="Verdana" font-size="9.00">: </text>
<text text-anchor="start" x="128.21" y="-480.8" font-family="Verdana" font-style="italic" font-size="9.00">TEXT &#160;NOT NULL</text>
<polygon fill="none" stroke="black" points="49.21,-452 49.21,-472 295.21,-472 295.21,-452 49.21,-452"/>
<text text-anchor="start" x="54.21" y="-460.8" font-family="Verdana" font-weight="bold" font-size="9.00">share_class</text>
<text text-anchor="start" x="112.21" y="-460.8" font-family="Verdana" font-size="9.00">: </text>
<text text-anchor="start" x="119.21" y="-460.8" font-family="Verdana" font-style="italic" font-size="9.00">TEXT </text>
<polygon fill="none" stroke="black" points="49.21,-432 49.21,-452 295.21,-452 295.21,-432 49.21,-432"/>
<text text-anchor="start" x="54.21" y="-440.8" font-family="Verdana" font-weight="bold" font-size="9.00">currency_code</text>
<text text-anchor="start" x="128.21" y="-440.8" font-family="Verdana" font-size="9.00">: </text>
<text text-anchor="start" x="135.21" y="-440.8" font-family="Verdana" font-style="italic" font-size="9.00">VARCHAR(3) </text>
<polygon fill="none" stroke="black" points="49.21,-412 49.21,-432 295.21,-432 295.21,-412 49.21,-412"/>
<text text-anchor="start" x="54.21" y="-420.8" font-family="Verdana" font-weight="bold" font-size="9.00">status</text>
<text text-anchor="start" x="87.21" y="-420.8" font-family="Verdana" font-size="9.00">: </text>
<text text-anchor="start" x="94.21" y="-420.8" font-family="Verdana" font-style="italic" font-size="9.00">VARCHAR(24) &#160;NOT NULL</text>
<polygon fill="none" stroke="black" points="49.21,-392 49.21,-412 295.21,-412 295.21,-392 49.21,-392"/>
<text text-anchor="start" x="54.21" y="-400.8" font-family="Verdana" font-weight="bold" font-size="9.00">first_seen</text>
<text text-anchor="start" x="104.21" y="-400.8" font-family="Verdana" font-size="9.00">: </text>
<text text-anchor="start" x="111.21" y="-400.8" font-family="Verdana" font-style="italic" font-size="9.00">DATE </text>
<polygon fill="none" stroke="black" points="49.21,-372 49.21,-392 295.21,-392 295.21,-372 49.21,-372"/>
<text text-anchor="start" x="54.21" y="-380.8" font-family="Verdana" font-weight="bold" font-size="9.00">last_seen</text>
<text text-anchor="start" x="102.21" y="-380.8" font-family="Verdana" font-size="9.00">: </text>
<text text-anchor="start" x="109.21" y="-380.8" font-family="Verdana" font-style="italic" font-size="9.00">DATE </text>
<polygon fill="none" stroke="black" points="49.21,-352 49.21,-372 295.21,-372 295.21,-352 49.21,-352"/>
<text text-anchor="start" x="54.21" y="-360.8" font-family="Verdana" font-weight="bold" font-size="9.00">created_at</text>
<text text-anchor="start" x="109.21" y="-360.8" font-family="Verdana" font-size="9.00">: </text>
<text text-anchor="start" x="116.21" y="-360.8" font-family="Verdana" font-style="italic" font-size="9.00">TIMESTAMPTZ &#160;NOT NULL</text>
<polygon fill="none" stroke="black" points="49.21,-332 49.21,-352 295.21,-352 295.21,-332 49.21,-332"/>
<text text-anchor="start" x="54.21" y="-340.8" font-family="Verdana" font-weight="bold" font-size="9.00">updated_at</text>
<text text-anchor="start" x="113.21" y="-340.8" font-family="Verdana" font-size="9.00">: </text>
<text text-anchor="start" x="120.21" y="-340.8" font-family="Verdana" font-style="italic" font-size="9.00">TIMESTAMPTZ &#160;NOT NULL</text>
</g>
<!-- security&#45;&gt;instrument_type -->
<g id="edge2" class="edge">
<title>security:instrument_type_code&#45;&gt;instrument_type:type_code</title>
<path fill="none" stroke="black" d="M48.21,-502C-29.12,-502 -0.92,-386.88 49.21,-328 112.02,-254.23 200.54,-365.02 264.21,-292 271.04,-284.17 276.1,-271.03 273.68,-263.59"/>
<polygon fill="black" stroke="black" points="275.49,-260.59 265.21,-258 271.63,-266.43 275.49,-260.59"/>
</g>
</g>
</svg>
