<?xml version="1.0" encoding="UTF-8" standalone="no"?>
<!DOCTYPE svg PUBLIC "-//W3C//DTD SVG 1.1//EN"
 "http://www.w3.org/Graphics/SVG/1.1/DTD/svg11.dtd">
<!-- Generated by graphviz version 2.42.4 (0)
 -->
<!-- Title: schema_relations Pages: 1 -->
<svg width="811pt" height="185pt"
 viewBox="0.00 0.00 811.00 185.00" xmlns="http://www.w3.org/2000/svg" xmlns:xlink="http://www.w3.org/1999/xlink">
<g id="graph0" class="graph" transform="scale(1 1) rotate(0) translate(18 167)">
<title>schema_relations</title>
<!-- exchange -->
<g id="node1" class="node">
<title>exchange</title>
<path fill="#f8fafc" stroke="#334155" d="M248,-149C248,-149 205,-149 205,-149 199,-149 193,-143 193,-137 193,-137 193,-125 193,-125 193,-119 199,-113 205,-113 205,-113 248,-113 248,-113 254,-113 260,-119 260,-125 260,-125 260,-137 260,-137 260,-143 254,-149 248,-149"/>
<text text-anchor="middle" x="226.5" y="-128.2" font-family="Helvetica,sans-Serif" font-size="11.00">exchange</text>
</g>
<!-- listing -->
<g id="node3" class="node">
<title>listing</title>
<path fill="#f8fafc" stroke="#334155" d="M451,-115C451,-115 421,-115 421,-115 415,-115 409,-109 409,-103 409,-103 409,-91 409,-91 409,-85 415,-79 421,-79 421,-79 451,-79 451,-79 457,-79 463,-85 463,-91 463,-91 463,-103 463,-103 463,-109 457,-115 451,-115"/>
<text text-anchor="middle" x="436" y="-94.2" font-family="Helvetica,sans-Serif" font-size="11.00">listing</text>
</g>
<!-- exchange&#45;&gt;listing -->
<g id="edge1" class="edge">
<title>exchange&#45;&gt;listing</title>
<path fill="none" stroke="#64748b" d="M260.38,-125.61C299.11,-119.27 363.07,-108.79 401.9,-102.42"/>
<polygon fill="#64748b" stroke="#64748b" points="402.33,-104.84 408.84,-101.29 401.54,-100 402.33,-104.84"/>
<text text-anchor="middle" x="333" y="-122.6" font-family="Helvetica,sans-Serif" font-size="8.00">fk_listing_exchange</text>
</g>
<!-- issuer -->
<g id="node2" class="node">
<title>issuer</title>
<path fill="#f8fafc" stroke="#334155" d="M42,-70C42,-70 12,-70 12,-70 6,-70 0,-64 0,-58 0,-58 0,-46 0,-46 0,-40 6,-34 12,-34 12,-34 42,-34 42,-34 48,-34 54,-40 54,-46 54,-46 54,-58 54,-58 54,-64 48,-70 42,-70"/>
<text text-anchor="middle" x="27" y="-49.2" font-family="Helvetica,sans-Serif" font-size="11.00">issuer</text>
</g>
<!-- security -->
<g id="node6" class="node">
<title>security</title>
<path fill="#f8fafc" stroke="#334155" d="M244,-70C244,-70 209,-70 209,-70 203,-70 197,-64 197,-58 197,-58 197,-46 197,-46 197,-40 203,-34 209,-34 209,-34 244,-34 244,-34 250,-34 256,-40 256,-46 256,-46 256,-58 256,-58 256,-64 250,-70 244,-70"/>
<text text-anchor="middle" x="226.5" y="-49.2" font-family="Helvetica,sans-Serif" font-size="11.00">security</text>
</g>
<!-- issuer&#45;&gt;security -->
<g id="edge2" class="edge">
<title>issuer&#45;&gt;security</title>
<path fill="none" stroke="#64748b" d="M54.23,-52C89.1,-52 150.85,-52 189.91,-52"/>
<polygon fill="#64748b" stroke="#64748b" points="189.92,-54.45 196.92,-52 189.92,-49.55 189.92,-54.45"/>
<text text-anchor="middle" x="123.5" y="-54.6" font-family="Helvetica,sans-Serif" font-size="8.00">fk_security_issuer</text>
</g>
<!-- listing_symbol_history -->
<g id="node4" class="node">
<title>listing_symbol_history</title>
<path fill="#f8fafc" stroke="#334155" d="M763,-64C763,-64 651,-64 651,-64 645,-64 639,-58 639,-52 639,-52 639,-40 639,-40 639,-34 645,-28 651,-28 651,-28 763,-28 763,-28 769,-28 775,-34 775,-40 775,-40 775,-52 775,-52 775,-58 769,-64 763,-64"/>
<text text-anchor="middle" x="707" y="-43.2" font-family="Helvetica,sans-Serif" font-size="11.00">listing_symbol_history</text>
</g>
<!-- listing&#45;&gt;listing_symbol_history -->
<g id="edge3" class="edge">
<title>listing&#45;&gt;listing_symbol_history</title>
<path fill="none" stroke="#64748b" d="M463.28,-92.02C501.95,-84.69 575.65,-70.71 631.74,-60.08"/>
<polygon fill="#64748b" stroke="#64748b" points="632.41,-62.45 638.83,-58.73 631.5,-57.63 632.41,-62.45"/>
<text text-anchor="middle" x="552.5" y="-86.6" font-family="Helvetica,sans-Serif" font-size="8.00">fk_listing_symbol_listing</text>
</g>
<!-- provider -->
<g id="node5" class="node">
<title>provider</title>
<path fill="#f8fafc" stroke="#334155" d="M454,-36C454,-36 418,-36 418,-36 412,-36 406,-30 406,-24 406,-24 406,-12 406,-12 406,-6 412,0 418,0 418,0 454,0 454,0 460,0 466,-6 466,-12 466,-12 466,-24 466,-24 466,-30 460,-36 454,-36"/>
<text text-anchor="middle" x="436" y="-15.2" font-family="Helvetica,sans-Serif" font-size="11.00">provider</text>
</g>
<!-- provider&#45;&gt;listing_symbol_history -->
<g id="edge4" class="edge">
<title>provider&#45;&gt;listing_symbol_history</title>
<path fill="none" stroke="#64748b" d="M466.14,-17.44C499.92,-17.16 557.21,-17.82 606,-24 614.42,-25.07 623.18,-26.5 631.85,-28.13"/>
<polygon fill="#64748b" stroke="#64748b" points="631.44,-30.54 638.78,-29.47 632.38,-25.73 631.44,-30.54"/>
<text text-anchor="middle" x="552.5" y="-26.6" font-family="Helvetica,sans-Serif" font-size="8.00">fk_listing_symbol_provider</text>
</g>
<!-- security&#45;&gt;listing -->
<g id="edge5" class="edge">
<title>security&#45;&gt;listing</title>
<path fill="none" stroke="#64748b" d="M256.35,-58.26C294.41,-66.51 361.25,-81.01 401.49,-89.73"/>
<polygon fill="#64748b" stroke="#64748b" points="401.33,-92.2 408.69,-91.29 402.37,-87.42 401.33,-92.2"/>
<text text-anchor="middle" x="333" y="-84.6" font-family="Helvetica,sans-Serif" font-size="8.00">fk_listing_security</text>
</g>
</g>
</svg>
