<?xml version="1.0" encoding="UTF-8" standalone="no"?>
<!DOCTYPE svg PUBLIC "-//W3C//DTD SVG 1.1//EN"
 "http://www.w3.org/Graphics/SVG/1.1/DTD/svg11.dtd">
<!-- Generated by graphviz version 2.42.4 (0)
 -->
<!-- Title: schema_relations Pages: 1 -->
<svg width="796pt" height="151pt"
 viewBox="0.00 0.00 796.00 151.00" xmlns="http://www.w3.org/2000/svg" xmlns:xlink="http://www.w3.org/1999/xlink">
<g id="graph0" class="graph" transform="scale(1 1) rotate(0) translate(18 133)">
<title>schema_relations</title>
<!-- exchange -->
<g id="node1" class="node">
<title>exchange</title>
<path fill="#f8fafc" stroke="#334155" d="M248,-115C248,-115 205,-115 205,-115 199,-115 193,-109 193,-103 193,-103 193,-91 193,-91 193,-85 199,-79 205,-79 205,-79 248,-79 248,-79 254,-79 260,-85 260,-91 260,-91 260,-103 260,-103 260,-109 254,-115 248,-115"/>
<text text-anchor="middle" x="226.5" y="-94.2" font-family="Helvetica,sans-Serif" font-size="11.00">exchange</text>
</g>
<!-- listing -->
<g id="node3" class="node">
<title>listing</title>
<path fill="#f8fafc" stroke="#334155" d="M448,-75C448,-75 418,-75 418,-75 412,-75 406,-69 406,-63 406,-63 406,-51 406,-51 406,-45 412,-39 418,-39 418,-39 448,-39 448,-39 454,-39 460,-45 460,-51 460,-51 460,-63 460,-63 460,-69 454,-75 448,-75"/>
<text text-anchor="middle" x="433" y="-54.2" font-family="Helvetica,sans-Serif" font-size="11.00">listing</text>
</g>
<!-- exchange&#45;&gt;listing -->
<g id="edge1" class="edge">
<title>exchange&#45;&gt;listing</title>
<path fill="none" stroke="#64748b" d="M260.36,-90.57C298.25,-83.16 360.22,-71.04 398.42,-63.57"/>
<polygon fill="#64748b" stroke="#64748b" points="399.33,-65.89 405.73,-62.14 398.39,-61.08 399.33,-65.89"/>
<text text-anchor="middle" x="333" y="-86.6" font-family="Helvetica,sans-Serif" font-size="8.00">fk_listing_exchange</text>
</g>
<!-- issuer -->
<g id="node2" class="node">
<title>issuer</title>
<path fill="#f8fafc" stroke="#334155" d="M42,-36C42,-36 12,-36 12,-36 6,-36 0,-30 0,-24 0,-24 0,-12 0,-12 0,-6 6,0 12,0 12,0 42,0 42,0 48,0 54,-6 54,-12 54,-12 54,-24 54,-24 54,-30 48,-36 42,-36"/>
<text text-anchor="middle" x="27" y="-15.2" font-family="Helvetica,sans-Serif" font-size="11.00">issuer</text>
</g>
<!-- security -->
<g id="node5" class="node">
<title>security</title>
<path fill="#f8fafc" stroke="#334155" d="M244,-36C244,-36 209,-36 209,-36 203,-36 197,-30 197,-24 197,-24 197,-12 197,-12 197,-6 203,0 209,0 209,0 244,0 244,0 250,0 256,-6 256,-12 256,-12 256,-24 256,-24 256,-30 250,-36 244,-36"/>
<text text-anchor="middle" x="226.5" y="-15.2" font-family="Helvetica,sans-Serif" font-size="11.00">security</text>
</g>
<!-- issuer&#45;&gt;security -->
<g id="edge2" class="edge">
<title>issuer&#45;&gt;security</title>
<path fill="none" stroke="#64748b" d="M54.23,-18C89.1,-18 150.85,-18 189.91,-18"/>
<polygon fill="#64748b" stroke="#64748b" points="189.92,-20.45 196.92,-18 189.92,-15.55 189.92,-20.45"/>
<text text-anchor="middle" x="123.5" y="-20.6" font-family="Helvetica,sans-Serif" font-size="8.00">fk_security_issuer</text>
</g>
<!-- listing_symbol_history -->
<g id="node4" class="node">
<title>listing_symbol_history</title>
<path fill="#f8fafc" stroke="#334155" d="M748,-75C748,-75 636,-75 636,-75 630,-75 624,-69 624,-63 624,-63 624,-51 624,-51 624,-45 630,-39 636,-39 636,-39 748,-39 748,-39 754,-39 760,-45 760,-51 760,-51 760,-63 760,-63 760,-69 754,-75 748,-75"/>
<text text-anchor="middle" x="692" y="-54.2" font-family="Helvetica,sans-Serif" font-size="11.00">listing_symbol_history</text>
</g>
<!-- listing&#45;&gt;listing_symbol_history -->
<g id="edge3" class="edge">
<title>listing&#45;&gt;listing_symbol_history</title>
<path fill="none" stroke="#64748b" d="M460.06,-57C496.51,-57 564.18,-57 616.89,-57"/>
<polygon fill="#64748b" stroke="#64748b" points="616.89,-59.45 623.89,-57 616.89,-54.55 616.89,-59.45"/>
<text text-anchor="middle" x="542" y="-59.6" font-family="Helvetica,sans-Serif" font-size="8.00">fk_listing_symbol_listing</text>
</g>
<!-- security&#45;&gt;listing -->
<g id="edge4" class="edge">
<title>security&#45;&gt;listing</title>
<path fill="none" stroke="#64748b" d="M256.02,-19.3C285.61,-21.13 333.07,-25.37 373,-35 381.72,-37.1 390.91,-40.12 399.38,-43.24"/>
<polygon fill="#64748b" stroke="#64748b" points="398.58,-45.56 405.99,-45.76 400.32,-40.98 398.58,-45.56"/>
<text text-anchor="middle" x="333" y="-37.6" font-family="Helvetica,sans-Serif" font-size="8.00">fk_listing_security</text>
</g>
</g>
</svg>
