<?xml version="1.0" encoding="UTF-8" standalone="no"?>
<!DOCTYPE svg PUBLIC "-//W3C//DTD SVG 1.1//EN"
 "http://www.w3.org/Graphics/SVG/1.1/DTD/svg11.dtd">
<!-- Generated by graphviz version 2.42.4 (0)
 -->
<!-- Title: ERD Pages: 1 -->
<svg width="593pt" height="1148pt"
 viewBox="0.00 0.00 593.00 1148.00" xmlns="http://www.w3.org/2000/svg" xmlns:xlink="http://www.w3.org/1999/xlink">
<g id="graph0" class="graph" transform="scale(1 1) rotate(0) translate(4 1144)">
<title>ERD</title>
<polygon fill="white" stroke="transparent" points="-4,4 -4,-1144 589,-1144 589,4 -4,4"/>
<!-- exchange -->
<g id="node1" class="node">
<title>exchange</title>
<polygon fill="lightblue" stroke="transparent" points="8,-488 8,-508 218,-508 218,-488 8,-488"/>
<polygon fill="none" stroke="black" points="8,-488 8,-508 218,-508 218,-488 8,-488"/>
<text text-anchor="start" x="88" y="-496.8" font-family="Verdana" font-weight="bold" font-size="9.00">exchange</text>
<polygon fill="none" stroke="black" points="8,-468 8,-488 218,-488 218,-468 8,-468"/>
<text text-anchor="start" x="13" y="-476.8" font-family="Verdana" font-weight="bold" font-size="9.00">exchange_id</text>
<text text-anchor="start" x="77" y="-476.8" font-family="Verdana" font-size="9.00">: </text>
<text text-anchor="start" x="84" y="-476.8" font-family="Verdana" font-style="italic" font-size="9.00">UUID &#160;NOT NULL</text>
<polygon fill="none" stroke="black" points="8,-448 8,-468 218,-468 218,-448 8,-448"/>
<text text-anchor="start" x="13" y="-456.8" font-family="Verdana" font-weight="bold" font-size="9.00">exchange_code</text>
<text text-anchor="start" x="92" y="-456.8" font-family="Verdana" font-size="9.00">: </text>
<text text-anchor="start" x="99" y="-456.8" font-family="Verdana" font-style="italic" font-size="9.00">VARCHAR(16) &#160;NOT NULL</text>
<polygon fill="none" stroke="black" points="8,-428 8,-448 218,-448 218,-428 8,-428"/>
<text text-anchor="start" x="13" y="-436.8" font-family="Verdana" font-weight="bold" font-size="9.00">exchange_name</text>
<text text-anchor="start" x="96" y="-436.8" font-family="Verdana" font-size="9.00">: </text>
<text text-anchor="start" x="103" y="-436.8" font-family="Verdana" font-style="italic" font-size="9.00">TEXT &#160;NOT NULL</text>
<polygon fill="none" stroke="black" points="8,-408 8,-428 218,-428 218,-408 8,-408"/>
<text text-anchor="start" x="13" y="-416.8" font-family="Verdana" font-weight="bold" font-size="9.00">mic</text>
<text text-anchor="start" x="32" y="-416.8" font-family="Verdana" font-size="9.00">: </text>
<text text-anchor="start" x="39" y="-416.8" font-family="Verdana" font-style="italic" font-size="9.00">VARCHAR(4) </text>
<polygon fill="none" stroke="black" points="8,-388 8,-408 218,-408 218,-388 8,-388"/>
<text text-anchor="start" x="13" y="-396.8" font-family="Verdana" font-weight="bold" font-size="9.00">country_alpha2</text>
<text text-anchor="start" x="92" y="-396.8" font-family="Verdana" font-size="9.00">: </text>
<text text-anchor="start" x="99" y="-396.8" font-family="Verdana" font-style="italic" font-size="9.00">VARCHAR(2) </text>
<polygon fill="none" stroke="black" points="8,-368 8,-388 218,-388 218,-368 8,-368"/>
<text text-anchor="start" x="13" y="-376.8" font-family="Verdana" font-weight="bold" font-size="9.00">exchange_type</text>
<text text-anchor="start" x="91" y="-376.8" font-family="Verdana" font-size="9.00">: </text>
<text text-anchor="start" x="98" y="-376.8" font-family="Verdana" font-style="italic" font-size="9.00">VARCHAR(24) &#160;NOT NULL</text>
<polygon fill="none" stroke="black" points="8,-348 8,-368 218,-368 218,-348 8,-348"/>
<text text-anchor="start" x="13" y="-356.8" font-family="Verdana" font-weight="bold" font-size="9.00">is_synthetic</text>
<text text-anchor="start" x="74" y="-356.8" font-family="Verdana" font-size="9.00">: </text>
<text text-anchor="start" x="81" y="-356.8" font-family="Verdana" font-style="italic" font-size="9.00">BOOLEAN &#160;NOT NULL</text>
<polygon fill="none" stroke="black" points="8,-328 8,-348 218,-348 218,-328 8,-328"/>
<text text-anchor="start" x="13" y="-336.8" font-family="Verdana" font-weight="bold" font-size="9.00">is_active</text>
<text text-anchor="start" x="57" y="-336.8" font-family="Verdana" font-size="9.00">: </text>
<text text-anchor="start" x="64" y="-336.8" font-family="Verdana" font-style="italic" font-size="9.00">BOOLEAN &#160;NOT NULL</text>
<polygon fill="none" stroke="black" points="8,-308 8,-328 218,-328 218,-308 8,-308"/>
<text text-anchor="start" x="13" y="-316.8" font-family="Verdana" font-weight="bold" font-size="9.00">notes</text>
<text text-anchor="start" x="42" y="-316.8" font-family="Verdana" font-size="9.00">: </text>
<text text-anchor="start" x="49" y="-316.8" font-family="Verdana" font-style="italic" font-size="9.00">TEXT </text>
</g>
<!-- issuer -->
<g id="node2" class="node">
<title>issuer</title>
<polygon fill="lightblue" stroke="transparent" points="279,-224 279,-244 470,-244 470,-224 279,-224"/>
<polygon fill="none" stroke="black" points="279,-224 279,-244 470,-244 470,-224 279,-224"/>
<text text-anchor="start" x="359" y="-232.8" font-family="Verdana" font-weight="bold" font-size="9.00">issuer</text>
<polygon fill="none" stroke="black" points="279,-204 279,-224 470,-224 470,-204 279,-204"/>
<text text-anchor="start" x="284" y="-212.8" font-family="Verdana" font-weight="bold" font-size="9.00">issuer_id</text>
<text text-anchor="start" x="330" y="-212.8" font-family="Verdana" font-size="9.00">: </text>
<text text-anchor="start" x="337" y="-212.8" font-family="Verdana" font-style="italic" font-size="9.00">UUID &#160;NOT NULL</text>
<polygon fill="none" stroke="black" points="279,-184 279,-204 470,-204 470,-184 279,-184"/>
<text text-anchor="start" x="284" y="-192.8" font-family="Verdana" font-weight="bold" font-size="9.00">cik</text>
<text text-anchor="start" x="299" y="-192.8" font-family="Verdana" font-size="9.00">: </text>
<text text-anchor="start" x="306" y="-192.8" font-family="Verdana" font-style="italic" font-size="9.00">VARCHAR(10) </text>
<polygon fill="none" stroke="black" points="279,-164 279,-184 470,-184 470,-164 279,-164"/>
<text text-anchor="start" x="284" y="-172.8" font-family="Verdana" font-weight="bold" font-size="9.00">issuer_type</text>
<text text-anchor="start" x="343" y="-172.8" font-family="Verdana" font-size="9.00">: </text>
<text text-anchor="start" x="350" y="-172.8" font-family="Verdana" font-style="italic" font-size="9.00">VARCHAR(32) &#160;NOT NULL</text>
<polygon fill="none" stroke="black" points="279,-144 279,-164 470,-164 470,-144 279,-144"/>
<text text-anchor="start" x="284" y="-152.8" font-family="Verdana" font-weight="bold" font-size="9.00">current_name</text>
<text text-anchor="start" x="356" y="-152.8" font-family="Verdana" font-size="9.00">: </text>
<text text-anchor="start" x="363" y="-152.8" font-family="Verdana" font-style="italic" font-size="9.00">TEXT &#160;NOT NULL</text>
<polygon fill="none" stroke="black" points="279,-124 279,-144 470,-144 470,-124 279,-124"/>
<text text-anchor="start" x="284" y="-132.8" font-family="Verdana" font-weight="bold" font-size="9.00">country_alpha2</text>
<text text-anchor="start" x="363" y="-132.8" font-family="Verdana" font-size="9.00">: </text>
<text text-anchor="start" x="370" y="-132.8" font-family="Verdana" font-style="italic" font-size="9.00">VARCHAR(2) </text>
<polygon fill="none" stroke="black" points="279,-104 279,-124 470,-124 470,-104 279,-104"/>
<text text-anchor="start" x="284" y="-112.8" font-family="Verdana" font-weight="bold" font-size="9.00">sic_code</text>
<text text-anchor="start" x="327" y="-112.8" font-family="Verdana" font-size="9.00">: </text>
<text text-anchor="start" x="334" y="-112.8" font-family="Verdana" font-style="italic" font-size="9.00">VARCHAR(4) </text>
<polygon fill="none" stroke="black" points="279,-84 279,-104 470,-104 470,-84 279,-84"/>
<text text-anchor="start" x="284" y="-92.8" font-family="Verdana" font-weight="bold" font-size="9.00">status</text>
<text text-anchor="start" x="317" y="-92.8" font-family="Verdana" font-size="9.00">: </text>
<text text-anchor="start" x="324" y="-92.8" font-family="Verdana" font-style="italic" font-size="9.00">VARCHAR(24) &#160;NOT NULL</text>
<polygon fill="none" stroke="black" points="279,-64 279,-84 470,-84 470,-64 279,-64"/>
<text text-anchor="start" x="284" y="-72.8" font-family="Verdana" font-weight="bold" font-size="9.00">first_seen</text>
<text text-anchor="start" x="334" y="-72.8" font-family="Verdana" font-size="9.00">: </text>
<text text-anchor="start" x="341" y="-72.8" font-family="Verdana" font-style="italic" font-size="9.00">DATE </text>
<polygon fill="none" stroke="black" points="279,-44 279,-64 470,-64 470,-44 279,-44"/>
<text text-anchor="start" x="284" y="-52.8" font-family="Verdana" font-weight="bold" font-size="9.00">last_seen</text>
<text text-anchor="start" x="332" y="-52.8" font-family="Verdana" font-size="9.00">: </text>
<text text-anchor="start" x="339" y="-52.8" font-family="Verdana" font-style="italic" font-size="9.00">DATE </text>
<polygon fill="none" stroke="black" points="279,-24 279,-44 470,-44 470,-24 279,-24"/>
<text text-anchor="start" x="284" y="-32.8" font-family="Verdana" font-weight="bold" font-size="9.00">created_at</text>
<text text-anchor="start" x="339" y="-32.8" font-family="Verdana" font-size="9.00">: </text>
<text text-anchor="start" x="346" y="-32.8" font-family="Verdana" font-style="italic" font-size="9.00">TIMESTAMPTZ &#160;NOT NULL</text>
<polygon fill="none" stroke="black" points="279,-4 279,-24 470,-24 470,-4 279,-4"/>
<text text-anchor="start" x="284" y="-12.8" font-family="Verdana" font-weight="bold" font-size="9.00">updated_at</text>
<text text-anchor="start" x="343" y="-12.8" font-family="Verdana" font-size="9.00">: </text>
<text text-anchor="start" x="350" y="-12.8" font-family="Verdana" font-style="italic" font-size="9.00">TIMESTAMPTZ &#160;NOT NULL</text>
</g>
<!-- listing -->
<g id="node3" class="node">
<title>listing</title>
<polygon fill="lightblue" stroke="transparent" points="148,-852 148,-872 339,-872 339,-852 148,-852"/>
<polygon fill="none" stroke="black" points="148,-852 148,-872 339,-872 339,-852 148,-852"/>
<text text-anchor="start" x="227" y="-860.8" font-family="Verdana" font-weight="bold" font-size="9.00">listing</text>
<polygon fill="none" stroke="black" points="148,-832 148,-852 339,-852 339,-832 148,-832"/>
<text text-anchor="start" x="153" y="-840.8" font-family="Verdana" font-weight="bold" font-size="9.00">listing_id</text>
<text text-anchor="start" x="200" y="-840.8" font-family="Verdana" font-size="9.00">: </text>
<text text-anchor="start" x="207" y="-840.8" font-family="Verdana" font-style="italic" font-size="9.00">UUID &#160;NOT NULL</text>
<polygon fill="none" stroke="black" points="148,-812 148,-832 339,-832 339,-812 148,-812"/>
<text text-anchor="start" x="153" y="-820.8" font-family="Verdana" font-weight="bold" font-size="9.00">security_id</text>
<text text-anchor="start" x="209" y="-820.8" font-family="Verdana" font-size="9.00">: </text>
<text text-anchor="start" x="216" y="-820.8" font-family="Verdana" font-style="italic" font-size="9.00">UUID &#160;NOT NULL</text>
<polygon fill="none" stroke="black" points="148,-792 148,-812 339,-812 339,-792 148,-792"/>
<text text-anchor="start" x="153" y="-800.8" font-family="Verdana" font-weight="bold" font-size="9.00">exchange_id</text>
<text text-anchor="start" x="217" y="-800.8" font-family="Verdana" font-size="9.00">: </text>
<text text-anchor="start" x="224" y="-800.8" font-family="Verdana" font-style="italic" font-size="9.00">UUID &#160;NOT NULL</text>
<polygon fill="none" stroke="black" points="148,-772 148,-792 339,-792 339,-772 148,-772"/>
<text text-anchor="start" x="153" y="-780.8" font-family="Verdana" font-weight="bold" font-size="9.00">current_ticker</text>
<text text-anchor="start" x="226" y="-780.8" font-family="Verdana" font-size="9.00">: </text>
<text text-anchor="start" x="233" y="-780.8" font-family="Verdana" font-style="italic" font-size="9.00">TEXT </text>
<polygon fill="none" stroke="black" points="148,-752 148,-772 339,-772 339,-752 148,-752"/>
<text text-anchor="start" x="153" y="-760.8" font-family="Verdana" font-weight="bold" font-size="9.00">ticker_norm</text>
<text text-anchor="start" x="214" y="-760.8" font-family="Verdana" font-size="9.00">: </text>
<text text-anchor="start" x="221" y="-760.8" font-family="Verdana" font-style="italic" font-size="9.00">TEXT </text>
<polygon fill="none" stroke="black" points="148,-732 148,-752 339,-752 339,-732 148,-732"/>
<text text-anchor="start" x="153" y="-740.8" font-family="Verdana" font-weight="bold" font-size="9.00">currency_code</text>
<text text-anchor="start" x="227" y="-740.8" font-family="Verdana" font-size="9.00">: </text>
<text text-anchor="start" x="234" y="-740.8" font-family="Verdana" font-style="italic" font-size="9.00">VARCHAR(3) </text>
<polygon fill="none" stroke="black" points="148,-712 148,-732 339,-732 339,-712 148,-712"/>
<text text-anchor="start" x="153" y="-720.8" font-family="Verdana" font-weight="bold" font-size="9.00">is_primary</text>
<text text-anchor="start" x="207" y="-720.8" font-family="Verdana" font-size="9.00">: </text>
<text text-anchor="start" x="214" y="-720.8" font-family="Verdana" font-style="italic" font-size="9.00">BOOLEAN &#160;NOT NULL</text>
<polygon fill="none" stroke="black" points="148,-692 148,-712 339,-712 339,-692 148,-692"/>
<text text-anchor="start" x="153" y="-700.8" font-family="Verdana" font-weight="bold" font-size="9.00">status</text>
<text text-anchor="start" x="186" y="-700.8" font-family="Verdana" font-size="9.00">: </text>
<text text-anchor="start" x="193" y="-700.8" font-family="Verdana" font-style="italic" font-size="9.00">VARCHAR(32) &#160;NOT NULL</text>
<polygon fill="none" stroke="black" points="148,-672 148,-692 339,-692 339,-672 148,-672"/>
<text text-anchor="start" x="153" y="-680.8" font-family="Verdana" font-weight="bold" font-size="9.00">valid_from</text>
<text text-anchor="start" x="207" y="-680.8" font-family="Verdana" font-size="9.00">: </text>
<text text-anchor="start" x="214" y="-680.8" font-family="Verdana" font-style="italic" font-size="9.00">DATE </text>
<polygon fill="none" stroke="black" points="148,-652 148,-672 339,-672 339,-652 148,-652"/>
<text text-anchor="start" x="153" y="-660.8" font-family="Verdana" font-weight="bold" font-size="9.00">valid_to</text>
<text text-anchor="start" x="193" y="-660.8" font-family="Verdana" font-size="9.00">: </text>
<text text-anchor="start" x="200" y="-660.8" font-family="Verdana" font-style="italic" font-size="9.00">DATE </text>
<polygon fill="none" stroke="black" points="148,-632 148,-652 339,-652 339,-632 148,-632"/>
<text text-anchor="start" x="153" y="-640.8" font-family="Verdana" font-weight="bold" font-size="9.00">first_seen</text>
<text text-anchor="start" x="203" y="-640.8" font-family="Verdana" font-size="9.00">: </text>
<text text-anchor="start" x="210" y="-640.8" font-family="Verdana" font-style="italic" font-size="9.00">DATE </text>
<polygon fill="none" stroke="black" points="148,-612 148,-632 339,-632 339,-612 148,-612"/>
<text text-anchor="start" x="153" y="-620.8" font-family="Verdana" font-weight="bold" font-size="9.00">last_seen</text>
<text text-anchor="start" x="201" y="-620.8" font-family="Verdana" font-size="9.00">: </text>
<text text-anchor="start" x="208" y="-620.8" font-family="Verdana" font-style="italic" font-size="9.00">DATE </text>
<polygon fill="none" stroke="black" points="148,-592 148,-612 339,-612 339,-592 148,-592"/>
<text text-anchor="start" x="153" y="-600.8" font-family="Verdana" font-weight="bold" font-size="9.00">created_at</text>
<text text-anchor="start" x="208" y="-600.8" font-family="Verdana" font-size="9.00">: </text>
<text text-anchor="start" x="215" y="-600.8" font-family="Verdana" font-style="italic" font-size="9.00">TIMESTAMPTZ &#160;NOT NULL</text>
<polygon fill="none" stroke="black" points="148,-572 148,-592 339,-592 339,-572 148,-572"/>
<text text-anchor="start" x="153" y="-580.8" font-family="Verdana" font-weight="bold" font-size="9.00">updated_at</text>
<text text-anchor="start" x="212" y="-580.8" font-family="Verdana" font-size="9.00">: </text>
<text text-anchor="start" x="219" y="-580.8" font-family="Verdana" font-style="italic" font-size="9.00">TIMESTAMPTZ &#160;NOT NULL</text>
</g>
<!-- listing&#45;&gt;exchange -->
<g id="edge1" class="edge">
<title>listing:exchange_id&#45;&gt;exchange:exchange_id</title>
<path fill="none" stroke="black" d="M147,-802C43,-802 102.75,-661.64 148,-568 165.34,-532.13 200.21,-547.65 218,-512 222.43,-503.12 227.99,-491.25 227.01,-484.14"/>
<polygon fill="black" stroke="black" points="229.07,-481.31 219,-478 224.81,-486.86 229.07,-481.31"/>
</g>
<!-- security -->
<g id="node6" class="node">
<title>security</title>
<polygon fill="lightblue" stroke="transparent" points="252,-508 252,-528 498,-528 498,-508 252,-508"/>
<polygon fill="none" stroke="black" points="252,-508 252,-528 498,-528 498,-508 252,-508"/>
<text text-anchor="start" x="354" y="-516.8" font-family="Verdana" font-weight="bold" font-size="9.00">security</text>
<polygon fill="none" stroke="black" points="252,-488 252,-508 498,-508 498,-488 252,-488"/>
<text text-anchor="start" x="257" y="-496.8" font-family="Verdana" font-weight="bold" font-size="9.00">security_id</text>
<text text-anchor="start" x="313" y="-496.8" font-family="Verdana" font-size="9.00">: </text>
<text text-anchor="start" x="320" y="-496.8" font-family="Verdana" font-style="italic" font-size="9.00">UUID &#160;NOT NULL</text>
<polygon fill="none" stroke="black" points="252,-468 252,-488 498,-488 498,-468 252,-468"/>
<text text-anchor="start" x="257" y="-476.8" font-family="Verdana" font-weight="bold" font-size="9.00">issuer_id</text>
<text text-anchor="start" x="303" y="-476.8" font-family="Verdana" font-size="9.00">: </text>
<text text-anchor="start" x="310" y="-476.8" font-family="Verdana" font-style="italic" font-size="9.00">UUID </text>
<polygon fill="none" stroke="black" points="252,-448 252,-468 498,-468 498,-448 252,-448"/>
<text text-anchor="start" x="257" y="-456.8" font-family="Verdana" font-weight="bold" font-size="9.00">instrument_type_code</text>
<text text-anchor="start" x="372" y="-456.8" font-family="Verdana" font-size="9.00">: </text>
<text text-anchor="start" x="379" y="-456.8" font-family="Verdana" font-style="italic" font-size="9.00">VARCHAR(32) &#160;NOT NULL</text>
<polygon fill="none" stroke="black" points="252,-428 252,-448 498,-448 498,-428 252,-428"/>
<text text-anchor="start" x="257" y="-436.8" font-family="Verdana" font-weight="bold" font-size="9.00">security_title</text>
<text text-anchor="start" x="324" y="-436.8" font-family="Verdana" font-size="9.00">: </text>
<text text-anchor="start" x="331" y="-436.8" font-family="Verdana" font-style="italic" font-size="9.00">TEXT &#160;NOT NULL</text>
<polygon fill="none" stroke="black" points="252,-408 252,-428 498,-428 498,-408 252,-408"/>
<text text-anchor="start" x="257" y="-416.8" font-family="Verdana" font-weight="bold" font-size="9.00">share_class</text>
<text text-anchor="start" x="315" y="-416.8" font-family="Verdana" font-size="9.00">: </text>
<text text-anchor="start" x="322" y="-416.8" font-family="Verdana" font-style="italic" font-size="9.00">TEXT </text>
<polygon fill="none" stroke="black" points="252,-388 252,-408 498,-408 498,-388 252,-388"/>
<text text-anchor="start" x="257" y="-396.8" font-family="Verdana" font-weight="bold" font-size="9.00">currency_code</text>
<text text-anchor="start" x="331" y="-396.8" font-family="Verdana" font-size="9.00">: </text>
<text text-anchor="start" x="338" y="-396.8" font-family="Verdana" font-style="italic" font-size="9.00">VARCHAR(3) </text>
<polygon fill="none" stroke="black" points="252,-368 252,-388 498,-388 498,-368 252,-368"/>
<text text-anchor="start" x="257" y="-376.8" font-family="Verdana" font-weight="bold" font-size="9.00">status</text>
<text text-anchor="start" x="290" y="-376.8" font-family="Verdana" font-size="9.00">: </text>
<text text-anchor="start" x="297" y="-376.8" font-family="Verdana" font-style="italic" font-size="9.00">VARCHAR(24) &#160;NOT NULL</text>
<polygon fill="none" stroke="black" points="252,-348 252,-368 498,-368 498,-348 252,-348"/>
<text text-anchor="start" x="257" y="-356.8" font-family="Verdana" font-weight="bold" font-size="9.00">first_seen</text>
<text text-anchor="start" x="307" y="-356.8" font-family="Verdana" font-size="9.00">: </text>
<text text-anchor="start" x="314" y="-356.8" font-family="Verdana" font-style="italic" font-size="9.00">DATE </text>
<polygon fill="none" stroke="black" points="252,-328 252,-348 498,-348 498,-328 252,-328"/>
<text text-anchor="start" x="257" y="-336.8" font-family="Verdana" font-weight="bold" font-size="9.00">last_seen</text>
<text text-anchor="start" x="305" y="-336.8" font-family="Verdana" font-size="9.00">: </text>
<text text-anchor="start" x="312" y="-336.8" font-family="Verdana" font-style="italic" font-size="9.00">DATE </text>
<polygon fill="none" stroke="black" points="252,-308 252,-328 498,-328 498,-308 252,-308"/>
<text text-anchor="start" x="257" y="-316.8" font-family="Verdana" font-weight="bold" font-size="9.00">created_at</text>
<text text-anchor="start" x="312" y="-316.8" font-family="Verdana" font-size="9.00">: </text>
<text text-anchor="start" x="319" y="-316.8" font-family="Verdana" font-style="italic" font-size="9.00">TIMESTAMPTZ &#160;NOT NULL</text>
<polygon fill="none" stroke="black" points="252,-288 252,-308 498,-308 498,-288 252,-288"/>
<text text-anchor="start" x="257" y="-296.8" font-family="Verdana" font-weight="bold" font-size="9.00">updated_at</text>
<text text-anchor="start" x="316" y="-296.8" font-family="Verdana" font-size="9.00">: </text>
<text text-anchor="start" x="323" y="-296.8" font-family="Verdana" font-style="italic" font-size="9.00">TIMESTAMPTZ &#160;NOT NULL</text>
</g>
<!-- listing&#45;&gt;security -->
<g id="edge2" class="edge">
<title>listing:security_id&#45;&gt;security:security_id</title>
<path fill="none" stroke="black" d="M340,-822C354.11,-822 346.86,-579.72 339,-568 315.68,-533.26 275.76,-566.44 252,-532 246.23,-523.64 240.94,-511.17 242.67,-503.88"/>
<polygon fill="black" stroke="black" points="244.85,-506.63 251,-498 240.81,-500.91 244.85,-506.63"/>
</g>
<!-- listing_symbol_history -->
<g id="node4" class="node">
<title>listing_symbol_history</title>
<polygon fill="lightblue" stroke="transparent" points="251,-1116 251,-1136 467,-1136 467,-1116 251,-1116"/>
<polygon fill="none" stroke="black" points="251,-1116 251,-1136 467,-1136 467,-1116 251,-1116"/>
<text text-anchor="start" x="301.5" y="-1124.8" font-family="Verdana" font-weight="bold" font-size="9.00">listing_symbol_history</text>
<polygon fill="none" stroke="black" points="251,-1096 251,-1116 467,-1116 467,-1096 251,-1096"/>
<text text-anchor="start" x="256" y="-1104.8" font-family="Verdana" font-weight="bold" font-size="9.00">listing_symbol_id</text>
<text text-anchor="start" x="344" y="-1104.8" font-family="Verdana" font-size="9.00">: </text>
<text text-anchor="start" x="351" y="-1104.8" font-family="Verdana" font-style="italic" font-size="9.00">UUID &#160;NOT NULL</text>
<polygon fill="none" stroke="black" points="251,-1076 251,-1096 467,-1096 467,-1076 251,-1076"/>
<text text-anchor="start" x="256" y="-1084.8" font-family="Verdana" font-weight="bold" font-size="9.00">listing_id</text>
<text text-anchor="start" x="303" y="-1084.8" font-family="Verdana" font-size="9.00">: </text>
<text text-anchor="start" x="310" y="-1084.8" font-family="Verdana" font-style="italic" font-size="9.00">UUID &#160;NOT NULL</text>
<polygon fill="none" stroke="black" points="251,-1056 251,-1076 467,-1076 467,-1056 251,-1056"/>
<text text-anchor="start" x="256" y="-1064.8" font-family="Verdana" font-weight="bold" font-size="9.00">ticker_raw</text>
<text text-anchor="start" x="309" y="-1064.8" font-family="Verdana" font-size="9.00">: </text>
<text text-anchor="start" x="316" y="-1064.8" font-family="Verdana" font-style="italic" font-size="9.00">TEXT &#160;NOT NULL</text>
<polygon fill="none" stroke="black" points="251,-1036 251,-1056 467,-1056 467,-1036 251,-1036"/>
<text text-anchor="start" x="256" y="-1044.8" font-family="Verdana" font-weight="bold" font-size="9.00">ticker_norm</text>
<text text-anchor="start" x="317" y="-1044.8" font-family="Verdana" font-size="9.00">: </text>
<text text-anchor="start" x="324" y="-1044.8" font-family="Verdana" font-style="italic" font-size="9.00">TEXT &#160;NOT NULL</text>
<polygon fill="none" stroke="black" points="251,-1016 251,-1036 467,-1036 467,-1016 251,-1016"/>
<text text-anchor="start" x="256" y="-1024.8" font-family="Verdana" font-weight="bold" font-size="9.00">ticker_display</text>
<text text-anchor="start" x="327" y="-1024.8" font-family="Verdana" font-size="9.00">: </text>
<text text-anchor="start" x="334" y="-1024.8" font-family="Verdana" font-style="italic" font-size="9.00">TEXT </text>
<polygon fill="none" stroke="black" points="251,-996 251,-1016 467,-1016 467,-996 251,-996"/>
<text text-anchor="start" x="256" y="-1004.8" font-family="Verdana" font-weight="bold" font-size="9.00">valid_from</text>
<text text-anchor="start" x="310" y="-1004.8" font-family="Verdana" font-size="9.00">: </text>
<text text-anchor="start" x="317" y="-1004.8" font-family="Verdana" font-style="italic" font-size="9.00">DATE </text>
<polygon fill="none" stroke="black" points="251,-976 251,-996 467,-996 467,-976 251,-976"/>
<text text-anchor="start" x="256" y="-984.8" font-family="Verdana" font-weight="bold" font-size="9.00">valid_to</text>
<text text-anchor="start" x="296" y="-984.8" font-family="Verdana" font-size="9.00">: </text>
<text text-anchor="start" x="303" y="-984.8" font-family="Verdana" font-style="italic" font-size="9.00">DATE </text>
<polygon fill="none" stroke="black" points="251,-956 251,-976 467,-976 467,-956 251,-956"/>
<text text-anchor="start" x="256" y="-964.8" font-family="Verdana" font-weight="bold" font-size="9.00">provider_code</text>
<text text-anchor="start" x="329" y="-964.8" font-family="Verdana" font-size="9.00">: </text>
<text text-anchor="start" x="336" y="-964.8" font-family="Verdana" font-style="italic" font-size="9.00">VARCHAR(32) </text>
<polygon fill="none" stroke="black" points="251,-936 251,-956 467,-956 467,-936 251,-936"/>
<text text-anchor="start" x="256" y="-944.8" font-family="Verdana" font-weight="bold" font-size="9.00">confidence_code</text>
<text text-anchor="start" x="341" y="-944.8" font-family="Verdana" font-size="9.00">: </text>
<text text-anchor="start" x="348" y="-944.8" font-family="Verdana" font-style="italic" font-size="9.00">VARCHAR(16) &#160;NOT NULL</text>
<polygon fill="none" stroke="black" points="251,-916 251,-936 467,-936 467,-916 251,-916"/>
<text text-anchor="start" x="256" y="-924.8" font-family="Verdana" font-weight="bold" font-size="9.00">created_at</text>
<text text-anchor="start" x="311" y="-924.8" font-family="Verdana" font-size="9.00">: </text>
<text text-anchor="start" x="318" y="-924.8" font-family="Verdana" font-style="italic" font-size="9.00">TIMESTAMPTZ &#160;NOT NULL</text>
</g>
<!-- listing_symbol_history&#45;&gt;listing -->
<g id="edge3" class="edge">
<title>listing_symbol_history:listing_id&#45;&gt;listing:listing_id</title>
<path fill="none" stroke="black" d="M250,-1086C172.67,-1086 207.71,-976.08 251,-912 274.65,-876.98 314.93,-910.73 339,-876 344.85,-867.55 350.19,-854.88 348.27,-847.63"/>
<polygon fill="black" stroke="black" points="350.24,-844.73 340,-842 346.3,-850.52 350.24,-844.73"/>
</g>
<!-- provider -->
<g id="node5" class="node">
<title>provider</title>
<polygon fill="lightblue" stroke="transparent" points="373,-772 373,-792 577,-792 577,-772 373,-772"/>
<polygon fill="none" stroke="black" points="373,-772 373,-792 577,-792 577,-772 373,-772"/>
<text text-anchor="start" x="453" y="-780.8" font-family="Verdana" font-weight="bold" font-size="9.00">provider</text>
<polygon fill="none" stroke="black" points="373,-752 373,-772 577,-772 577,-752 373,-752"/>
<text text-anchor="start" x="378" y="-760.8" font-family="Verdana" font-weight="bold" font-size="9.00">provider_code</text>
<text text-anchor="start" x="451" y="-760.8" font-family="Verdana" font-size="9.00">: </text>
<text text-anchor="start" x="458" y="-760.8" font-family="Verdana" font-style="italic" font-size="9.00">VARCHAR(32) &#160;NOT NULL</text>
<polygon fill="none" stroke="black" points="373,-732 373,-752 577,-752 577,-732 373,-732"/>
<text text-anchor="start" x="378" y="-740.8" font-family="Verdana" font-weight="bold" font-size="9.00">provider_name</text>
<text text-anchor="start" x="455" y="-740.8" font-family="Verdana" font-size="9.00">: </text>
<text text-anchor="start" x="462" y="-740.8" font-family="Verdana" font-style="italic" font-size="9.00">TEXT &#160;NOT NULL</text>
<polygon fill="none" stroke="black" points="373,-712 373,-732 577,-732 577,-712 373,-712"/>
<text text-anchor="start" x="378" y="-720.8" font-family="Verdana" font-weight="bold" font-size="9.00">provider_type</text>
<text text-anchor="start" x="450" y="-720.8" font-family="Verdana" font-size="9.00">: </text>
<text text-anchor="start" x="457" y="-720.8" font-family="Verdana" font-style="italic" font-size="9.00">VARCHAR(32) &#160;NOT NULL</text>
<polygon fill="none" stroke="black" points="373,-692 373,-712 577,-712 577,-692 373,-692"/>
<text text-anchor="start" x="378" y="-700.8" font-family="Verdana" font-weight="bold" font-size="9.00">website</text>
<text text-anchor="start" x="418" y="-700.8" font-family="Verdana" font-size="9.00">: </text>
<text text-anchor="start" x="425" y="-700.8" font-family="Verdana" font-style="italic" font-size="9.00">TEXT </text>
<polygon fill="none" stroke="black" points="373,-672 373,-692 577,-692 577,-672 373,-672"/>
<text text-anchor="start" x="378" y="-680.8" font-family="Verdana" font-weight="bold" font-size="9.00">description</text>
<text text-anchor="start" x="436" y="-680.8" font-family="Verdana" font-size="9.00">: </text>
<text text-anchor="start" x="443" y="-680.8" font-family="Verdana" font-style="italic" font-size="9.00">TEXT </text>
<polygon fill="none" stroke="black" points="373,-652 373,-672 577,-672 577,-652 373,-652"/>
<text text-anchor="start" x="378" y="-660.8" font-family="Verdana" font-weight="bold" font-size="9.00">is_active</text>
<text text-anchor="start" x="422" y="-660.8" font-family="Verdana" font-size="9.00">: </text>
<text text-anchor="start" x="429" y="-660.8" font-family="Verdana" font-style="italic" font-size="9.00">BOOLEAN &#160;NOT NULL</text>
</g>
<!-- listing_symbol_history&#45;&gt;provider -->
<g id="edge4" class="edge">
<title>listing_symbol_history:provider_code&#45;&gt;provider:provider_code</title>
<path fill="none" stroke="black" d="M468,-966C492,-966 475.23,-934.55 467,-912 444.26,-849.66 396.08,-858.22 373,-796 369.63,-786.92 363.96,-775.52 364.3,-768.5"/>
<polygon fill="black" stroke="black" points="366.62,-771.12 372,-762 362.1,-765.78 366.62,-771.12"/>
</g>
<!-- security&#45;&gt;issuer -->
<g id="edge5" class="edge">
<title>security:issuer_id&#45;&gt;issuer:issuer_id</title>
<path fill="none" stroke="black" d="M251,-478C229.44,-478 238.01,-300.4 252,-284 315.72,-209.28 405.38,-321.94 470,-248 476.84,-240.17 481.89,-227.04 479.47,-219.59"/>
<polygon fill="black" stroke="black" points="481.27,-216.59 471,-214 477.42,-222.43 481.27,-216.59"/>
</g>
</g>
</svg>
