<?xml version="1.0" encoding="UTF-8" standalone="no"?>
<!DOCTYPE svg PUBLIC "-//W3C//DTD SVG 1.1//EN"
 "http://www.w3.org/Graphics/SVG/1.1/DTD/svg11.dtd">
<!-- Generated by graphviz version 2.42.4 (0)
 -->
<!-- Title: schema_relations Pages: 1 -->
<svg width="1686pt" height="1132pt"
 viewBox="0.00 0.00 1686.00 1132.00" xmlns="http://www.w3.org/2000/svg" xmlns:xlink="http://www.w3.org/1999/xlink">
<g id="graph0" class="graph" transform="scale(1 1) rotate(0) translate(18 1114)">
<title>schema_relations</title>
<!-- classification_code -->
<g id="node1" class="node">
<title>classification_code</title>
<path fill="#f8fafc" stroke="#334155" d="M412,-1096C412,-1096 319,-1096 319,-1096 313,-1096 307,-1090 307,-1084 307,-1084 307,-1072 307,-1072 307,-1066 313,-1060 319,-1060 319,-1060 412,-1060 412,-1060 418,-1060 424,-1066 424,-1072 424,-1072 424,-1084 424,-1084 424,-1090 418,-1096 412,-1096"/>
<text text-anchor="middle" x="365.5" y="-1075.2" font-family="Helvetica,sans-Serif" font-size="11.00">classification_code</text>
</g>
<!-- issuer_classification -->
<g id="node12" class="node">
<title>issuer_classification</title>
<path fill="#f8fafc" stroke="#334155" d="M734,-1039C734,-1039 634,-1039 634,-1039 628,-1039 622,-1033 622,-1027 622,-1027 622,-1015 622,-1015 622,-1009 628,-1003 634,-1003 634,-1003 734,-1003 734,-1003 740,-1003 746,-1009 746,-1015 746,-1015 746,-1027 746,-1027 746,-1033 740,-1039 734,-1039"/>
<text text-anchor="middle" x="684" y="-1018.2" font-family="Helvetica,sans-Serif" font-size="11.00">issuer_classification</text>
</g>
<!-- classification_code&#45;&gt;issuer_classification -->
<g id="edge1" class="edge">
<title>classification_code&#45;&gt;issuer_classification</title>
<path fill="none" stroke="#64748b" d="M424.18,-1067.61C477.87,-1057.94 557.93,-1043.52 614.77,-1033.29"/>
<polygon fill="#64748b" stroke="#64748b" points="615.48,-1035.65 621.94,-1032 614.61,-1030.83 615.48,-1035.65"/>
<text text-anchor="middle" x="520.5" y="-1063.6" font-family="Helvetica,sans-Serif" font-size="8.00">fk_issuer_class_code</text>
</g>
<!-- confidence_level -->
<g id="node2" class="node">
<title>confidence_level</title>
<path fill="#f8fafc" stroke="#334155" d="M406,-794C406,-794 325,-794 325,-794 319,-794 313,-788 313,-782 313,-782 313,-770 313,-770 313,-764 319,-758 325,-758 325,-758 406,-758 406,-758 412,-758 418,-764 418,-770 418,-770 418,-782 418,-782 418,-788 412,-794 406,-794"/>
<text text-anchor="middle" x="365.5" y="-773.2" font-family="Helvetica,sans-Serif" font-size="11.00">confidence_level</text>
</g>
<!-- confidence_level&#45;&gt;issuer_classification -->
<g id="edge2" class="edge">
<title>confidence_level&#45;&gt;issuer_classification</title>
<path fill="none" stroke="#64748b" d="M369.22,-794.1C376.14,-833.46 398.21,-927.08 457,-974 501.33,-1009.38 565.73,-1020.01 614.45,-1022.43"/>
<polygon fill="#64748b" stroke="#64748b" points="614.42,-1024.89 621.52,-1022.73 614.63,-1019.99 614.42,-1024.89"/>
<text text-anchor="middle" x="520.5" y="-1021.6" font-family="Helvetica,sans-Serif" font-size="8.00">fk_issuer_class_confidence</text>
</g>
<!-- issuer_identifier -->
<g id="node13" class="node">
<title>issuer_identifier</title>
<path fill="#f8fafc" stroke="#334155" d="M723,-647C723,-647 645,-647 645,-647 639,-647 633,-641 633,-635 633,-635 633,-623 633,-623 633,-617 639,-611 645,-611 645,-611 723,-611 723,-611 729,-611 735,-617 735,-623 735,-623 735,-635 735,-635 735,-641 729,-647 723,-647"/>
<text text-anchor="middle" x="684" y="-626.2" font-family="Helvetica,sans-Serif" font-size="11.00">issuer_identifier</text>
</g>
<!-- confidence_level&#45;&gt;issuer_identifier -->
<g id="edge3" class="edge">
<title>confidence_level&#45;&gt;issuer_identifier</title>
<path fill="none" stroke="#64748b" d="M387.24,-757.84C404.84,-743.13 431.28,-722.68 457,-709 472.37,-700.83 564.17,-669.17 625.94,-648.21"/>
<polygon fill="#64748b" stroke="#64748b" points="627.1,-650.41 632.95,-645.84 625.53,-645.77 627.1,-650.41"/>
<text text-anchor="middle" x="520.5" y="-711.6" font-family="Helvetica,sans-Serif" font-size="8.00">fk_issuer_identifier_confidence</text>
</g>
<!-- issuer_name_history -->
<g id="node14" class="node">
<title>issuer_name_history</title>
<path fill="#f8fafc" stroke="#334155" d="M735.5,-568C735.5,-568 632.5,-568 632.5,-568 626.5,-568 620.5,-562 620.5,-556 620.5,-556 620.5,-544 620.5,-544 620.5,-538 626.5,-532 632.5,-532 632.5,-532 735.5,-532 735.5,-532 741.5,-532 747.5,-538 747.5,-544 747.5,-544 747.5,-556 747.5,-556 747.5,-562 741.5,-568 735.5,-568"/>
<text text-anchor="middle" x="684" y="-547.2" font-family="Helvetica,sans-Serif" font-size="11.00">issuer_name_history</text>
</g>
<!-- confidence_level&#45;&gt;issuer_name_history -->
<g id="edge4" class="edge">
<title>confidence_level&#45;&gt;issuer_name_history</title>
<path fill="none" stroke="#64748b" d="M370,-758C378.17,-721.11 402.12,-636.88 457,-595 501.56,-561 565.04,-550.73 613.38,-548.41"/>
<polygon fill="#64748b" stroke="#64748b" points="613.51,-550.86 620.4,-548.12 613.31,-545.96 613.51,-550.86"/>
<text text-anchor="middle" x="520.5" y="-597.6" font-family="Helvetica,sans-Serif" font-size="8.00">fk_issuer_name_confidence</text>
</g>
<!-- listing_symbol_history -->
<g id="node16" class="node">
<title>listing_symbol_history</title>
<path fill="#f8fafc" stroke="#334155" d="M1358,-566C1358,-566 1246,-566 1246,-566 1240,-566 1234,-560 1234,-554 1234,-554 1234,-542 1234,-542 1234,-536 1240,-530 1246,-530 1246,-530 1358,-530 1358,-530 1364,-530 1370,-536 1370,-542 1370,-542 1370,-554 1370,-554 1370,-560 1364,-566 1358,-566"/>
<text text-anchor="middle" x="1302" y="-545.2" font-family="Helvetica,sans-Serif" font-size="11.00">listing_symbol_history</text>
</g>
<!-- confidence_level&#45;&gt;listing_symbol_history -->
<g id="edge5" class="edge">
<title>confidence_level&#45;&gt;listing_symbol_history</title>
<path fill="none" stroke="#64748b" d="M418.16,-776.28C462.38,-775.89 527.65,-773.81 584,-766 796.27,-736.59 847.61,-713.51 1051,-646 1122.14,-622.39 1202.53,-589.78 1252.49,-568.79"/>
<polygon fill="#64748b" stroke="#64748b" points="1253.54,-571.01 1259.04,-566.03 1251.63,-566.49 1253.54,-571.01"/>
<text text-anchor="middle" x="844.5" y="-731.6" font-family="Helvetica,sans-Serif" font-size="8.00">fk_listing_symbol_confidence</text>
</g>
<!-- security_event -->
<g id="node18" class="node">
<title>security_event</title>
<path fill="#f8fafc" stroke="#334155" d="M1338,-645C1338,-645 1266,-645 1266,-645 1260,-645 1254,-639 1254,-633 1254,-633 1254,-621 1254,-621 1254,-615 1260,-609 1266,-609 1266,-609 1338,-609 1338,-609 1344,-609 1350,-615 1350,-621 1350,-621 1350,-633 1350,-633 1350,-639 1344,-645 1338,-645"/>
<text text-anchor="middle" x="1302" y="-624.2" font-family="Helvetica,sans-Serif" font-size="11.00">security_event</text>
</g>
<!-- confidence_level&#45;&gt;security_event -->
<g id="edge6" class="edge">
<title>confidence_level&#45;&gt;security_event</title>
<path fill="none" stroke="#64748b" d="M385.09,-794.13C402.19,-809.44 429.05,-830.23 457,-839 569.5,-874.3 1194.96,-811.85 1201,-808 1257.41,-772.05 1284.68,-692.56 1295.34,-651.94"/>
<polygon fill="#64748b" stroke="#64748b" points="1297.74,-652.45 1297.09,-645.07 1292.99,-651.25 1297.74,-652.45"/>
<text text-anchor="middle" x="844.5" y="-845.6" font-family="Helvetica,sans-Serif" font-size="8.00">fk_security_event_confidence</text>
</g>
<!-- security_identifier -->
<g id="node19" class="node">
<title>security_identifier</title>
<path fill="#f8fafc" stroke="#334155" d="M1039,-624C1039,-624 950,-624 950,-624 944,-624 938,-618 938,-612 938,-612 938,-600 938,-600 938,-594 944,-588 950,-588 950,-588 1039,-588 1039,-588 1045,-588 1051,-594 1051,-600 1051,-600 1051,-612 1051,-612 1051,-618 1045,-624 1039,-624"/>
<text text-anchor="middle" x="994.5" y="-603.2" font-family="Helvetica,sans-Serif" font-size="11.00">security_identifier</text>
</g>
<!-- confidence_level&#45;&gt;security_identifier -->
<g id="edge7" class="edge">
<title>confidence_level&#45;&gt;security_identifier</title>
<path fill="none" stroke="#64748b" d="M418.38,-762.26C462.46,-750.57 527.41,-733.28 584,-718 706.95,-684.79 850.48,-645.39 930.8,-623.28"/>
<polygon fill="#64748b" stroke="#64748b" points="931.79,-625.55 937.89,-621.33 930.49,-620.83 931.79,-625.55"/>
<text text-anchor="middle" x="684" y="-710.6" font-family="Helvetica,sans-Serif" font-size="8.00">fk_security_identifier_confidence</text>
</g>
<!-- exchange -->
<g id="node3" class="node">
<title>exchange</title>
<path fill="#f8fafc" stroke="#334155" d="M705.5,-105C705.5,-105 662.5,-105 662.5,-105 656.5,-105 650.5,-99 650.5,-93 650.5,-93 650.5,-81 650.5,-81 650.5,-75 656.5,-69 662.5,-69 662.5,-69 705.5,-69 705.5,-69 711.5,-69 717.5,-75 717.5,-81 717.5,-81 717.5,-93 717.5,-93 717.5,-99 711.5,-105 705.5,-105"/>
<text text-anchor="middle" x="684" y="-84.2" font-family="Helvetica,sans-Serif" font-size="11.00">exchange</text>
</g>
<!-- exchange_alias -->
<g id="node4" class="node">
<title>exchange_alias</title>
<path fill="#f8fafc" stroke="#334155" d="M1031.5,-92C1031.5,-92 957.5,-92 957.5,-92 951.5,-92 945.5,-86 945.5,-80 945.5,-80 945.5,-68 945.5,-68 945.5,-62 951.5,-56 957.5,-56 957.5,-56 1031.5,-56 1031.5,-56 1037.5,-56 1043.5,-62 1043.5,-68 1043.5,-68 1043.5,-80 1043.5,-80 1043.5,-86 1037.5,-92 1031.5,-92"/>
<text text-anchor="middle" x="994.5" y="-71.2" font-family="Helvetica,sans-Serif" font-size="11.00">exchange_alias</text>
</g>
<!-- exchange&#45;&gt;exchange_alias -->
<g id="edge8" class="edge">
<title>exchange&#45;&gt;exchange_alias</title>
<path fill="none" stroke="#64748b" d="M717.72,-85.62C770.21,-83.41 873.81,-79.04 938.02,-76.34"/>
<polygon fill="#64748b" stroke="#64748b" points="938.37,-78.78 945.26,-76.03 938.16,-73.88 938.37,-78.78"/>
<text text-anchor="middle" x="844.5" y="-85.6" font-family="Helvetica,sans-Serif" font-size="8.00">fk_exchange_alias_exchange</text>
</g>
<!-- listing -->
<g id="node15" class="node">
<title>listing</title>
<path fill="#f8fafc" stroke="#334155" d="M1009.5,-325C1009.5,-325 979.5,-325 979.5,-325 973.5,-325 967.5,-319 967.5,-313 967.5,-313 967.5,-301 967.5,-301 967.5,-295 973.5,-289 979.5,-289 979.5,-289 1009.5,-289 1009.5,-289 1015.5,-289 1021.5,-295 1021.5,-301 1021.5,-301 1021.5,-313 1021.5,-313 1021.5,-319 1015.5,-325 1009.5,-325"/>
<text text-anchor="middle" x="994.5" y="-304.2" font-family="Helvetica,sans-Serif" font-size="11.00">listing</text>
</g>
<!-- exchange&#45;&gt;listing -->
<g id="edge9" class="edge">
<title>exchange&#45;&gt;listing</title>
<path fill="none" stroke="#64748b" d="M710.25,-105C766.17,-144.89 900.41,-240.61 961.84,-284.42"/>
<polygon fill="#64748b" stroke="#64748b" points="960.78,-286.68 967.91,-288.75 963.63,-282.69 960.78,-286.68"/>
<text text-anchor="middle" x="844.5" y="-243.6" font-family="Helvetica,sans-Serif" font-size="8.00">fk_listing_exchange</text>
</g>
<!-- instrument_class -->
<g id="node5" class="node">
<title>instrument_class</title>
<path fill="#f8fafc" stroke="#334155" d="M108.5,-392C108.5,-392 24.5,-392 24.5,-392 18.5,-392 12.5,-386 12.5,-380 12.5,-380 12.5,-368 12.5,-368 12.5,-362 18.5,-356 24.5,-356 24.5,-356 108.5,-356 108.5,-356 114.5,-356 120.5,-362 120.5,-368 120.5,-368 120.5,-380 120.5,-380 120.5,-386 114.5,-392 108.5,-392"/>
<text text-anchor="middle" x="66.5" y="-371.2" font-family="Helvetica,sans-Serif" font-size="11.00">instrument_class</text>
</g>
<!-- instrument_type -->
<g id="node6" class="node">
<title>instrument_type</title>
<path fill="#f8fafc" stroke="#334155" d="M406,-392C406,-392 325,-392 325,-392 319,-392 313,-386 313,-380 313,-380 313,-368 313,-368 313,-362 319,-356 325,-356 325,-356 406,-356 406,-356 412,-356 418,-362 418,-368 418,-368 418,-380 418,-380 418,-386 412,-392 406,-392"/>
<text text-anchor="middle" x="365.5" y="-371.2" font-family="Helvetica,sans-Serif" font-size="11.00">instrument_type</text>
</g>
<!-- instrument_class&#45;&gt;instrument_type -->
<g id="edge10" class="edge">
<title>instrument_class&#45;&gt;instrument_type</title>
<path fill="none" stroke="#64748b" d="M120.6,-374C172.65,-374 251.83,-374 305.75,-374"/>
<polygon fill="#64748b" stroke="#64748b" points="305.86,-376.45 312.86,-374 305.86,-371.55 305.86,-376.45"/>
<text text-anchor="middle" x="220" y="-376.6" font-family="Helvetica,sans-Serif" font-size="8.00">fk_instrument_type_class</text>
</g>
<!-- security -->
<g id="node17" class="node">
<title>security</title>
<path fill="#f8fafc" stroke="#334155" d="M701.5,-402C701.5,-402 666.5,-402 666.5,-402 660.5,-402 654.5,-396 654.5,-390 654.5,-390 654.5,-378 654.5,-378 654.5,-372 660.5,-366 666.5,-366 666.5,-366 701.5,-366 701.5,-366 707.5,-366 713.5,-372 713.5,-378 713.5,-378 713.5,-390 713.5,-390 713.5,-396 707.5,-402 701.5,-402"/>
<text text-anchor="middle" x="684" y="-381.2" font-family="Helvetica,sans-Serif" font-size="11.00">security</text>
</g>
<!-- instrument_type&#45;&gt;security -->
<g id="edge11" class="edge">
<title>instrument_type&#45;&gt;security</title>
<path fill="none" stroke="#64748b" d="M418.39,-372.99C462.47,-372.42 527.42,-372.3 584,-375 605,-376 628.44,-378.09 647.23,-380"/>
<polygon fill="#64748b" stroke="#64748b" points="647.24,-382.46 654.45,-380.75 647.74,-377.59 647.24,-382.46"/>
<text text-anchor="middle" x="520.5" y="-377.6" font-family="Helvetica,sans-Serif" font-size="8.00">fk_security_type</text>
</g>
<!-- iso10383_mic -->
<g id="node7" class="node">
<title>iso10383_mic</title>
<path fill="#f8fafc" stroke="#334155" d="M398,-36C398,-36 333,-36 333,-36 327,-36 321,-30 321,-24 321,-24 321,-12 321,-12 321,-6 327,0 333,0 333,0 398,0 398,0 404,0 410,-6 410,-12 410,-12 410,-24 410,-24 410,-30 404,-36 398,-36"/>
<text text-anchor="middle" x="365.5" y="-15.2" font-family="Helvetica,sans-Serif" font-size="11.00">iso10383_mic</text>
</g>
<!-- iso10383_mic&#45;&gt;exchange -->
<g id="edge12" class="edge">
<title>iso10383_mic&#45;&gt;exchange</title>
<path fill="none" stroke="#64748b" d="M410.18,-27.52C471.94,-40.99 583.88,-65.39 643.36,-78.36"/>
<polygon fill="#64748b" stroke="#64748b" points="642.98,-80.78 650.35,-79.88 644.03,-76 642.98,-80.78"/>
<text text-anchor="middle" x="520.5" y="-67.6" font-family="Helvetica,sans-Serif" font-size="8.00">fk_exchange_mic</text>
</g>
<!-- iso10383_mic&#45;&gt;iso10383_mic -->
<g id="edge13" class="edge">
<title>iso10383_mic&#45;&gt;iso10383_mic</title>
<path fill="none" stroke="#64748b" d="M345.25,-36.11C331.75,-56.12 338.5,-79 365.5,-79 389.76,-79 397.67,-60.54 389.24,-42.27"/>
<polygon fill="#64748b" stroke="#64748b" points="391.33,-40.99 385.75,-36.11 387.07,-43.41 391.33,-40.99"/>
<text text-anchor="middle" x="365.5" y="-81.6" font-family="Helvetica,sans-Serif" font-size="8.00">fk_iso10383_mic_operating</text>
</g>
<!-- iso10383_mic_cat -->
<g id="node8" class="node">
<title>iso10383_mic_cat</title>
<path fill="#f8fafc" stroke="#334155" d="M110,-36C110,-36 23,-36 23,-36 17,-36 11,-30 11,-24 11,-24 11,-12 11,-12 11,-6 17,0 23,0 23,0 110,0 110,0 116,0 122,-6 122,-12 122,-12 122,-24 122,-24 122,-30 116,-36 110,-36"/>
<text text-anchor="middle" x="66.5" y="-15.2" font-family="Helvetica,sans-Serif" font-size="11.00">iso10383_mic_cat</text>
</g>
<!-- iso10383_mic_cat&#45;&gt;iso10383_mic -->
<g id="edge14" class="edge">
<title>iso10383_mic_cat&#45;&gt;iso10383_mic</title>
<path fill="none" stroke="#64748b" d="M122.32,-18C176.91,-18 260.04,-18 313.32,-18"/>
<polygon fill="#64748b" stroke="#64748b" points="313.63,-20.45 320.63,-18 313.63,-15.55 313.63,-20.45"/>
<text text-anchor="middle" x="220" y="-20.6" font-family="Helvetica,sans-Serif" font-size="8.00">fk_iso10383_mic_category</text>
</g>
<!-- iso3166_country -->
<g id="node9" class="node">
<title>iso3166_country</title>
<path fill="#f8fafc" stroke="#334155" d="M107,-167C107,-167 26,-167 26,-167 20,-167 14,-161 14,-155 14,-155 14,-143 14,-143 14,-137 20,-131 26,-131 26,-131 107,-131 107,-131 113,-131 119,-137 119,-143 119,-143 119,-155 119,-155 119,-161 113,-167 107,-167"/>
<text text-anchor="middle" x="66.5" y="-146.2" font-family="Helvetica,sans-Serif" font-size="11.00">iso3166_country</text>
</g>
<!-- iso3166_country&#45;&gt;exchange -->
<g id="edge15" class="edge">
<title>iso3166_country&#45;&gt;exchange</title>
<path fill="none" stroke="#64748b" d="M119.18,-143.79C239.4,-131.68 535.75,-101.83 643.24,-91"/>
<polygon fill="#64748b" stroke="#64748b" points="643.63,-93.43 650.35,-90.29 643.14,-88.55 643.63,-93.43"/>
<text text-anchor="middle" x="365.5" y="-127.6" font-family="Helvetica,sans-Serif" font-size="8.00">fk_exchange_country</text>
</g>
<!-- iso3166_country&#45;&gt;iso10383_mic -->
<g id="edge16" class="edge">
<title>iso3166_country&#45;&gt;iso10383_mic</title>
<path fill="none" stroke="#64748b" d="M108.48,-130.92C163.03,-106.86 259.3,-64.4 316.97,-38.97"/>
<polygon fill="#64748b" stroke="#64748b" points="318.04,-41.17 323.46,-36.1 316.07,-36.69 318.04,-41.17"/>
<text text-anchor="middle" x="220" y="-105.6" font-family="Helvetica,sans-Serif" font-size="8.00">fk_iso10383_mic_country</text>
</g>
<!-- issuer -->
<g id="node11" class="node">
<title>issuer</title>
<path fill="#f8fafc" stroke="#334155" d="M380.5,-485C380.5,-485 350.5,-485 350.5,-485 344.5,-485 338.5,-479 338.5,-473 338.5,-473 338.5,-461 338.5,-461 338.5,-455 344.5,-449 350.5,-449 350.5,-449 380.5,-449 380.5,-449 386.5,-449 392.5,-455 392.5,-461 392.5,-461 392.5,-473 392.5,-473 392.5,-479 386.5,-485 380.5,-485"/>
<text text-anchor="middle" x="365.5" y="-464.2" font-family="Helvetica,sans-Serif" font-size="11.00">issuer</text>
</g>
<!-- iso3166_country&#45;&gt;issuer -->
<g id="edge17" class="edge">
<title>iso3166_country&#45;&gt;issuer</title>
<path fill="none" stroke="#64748b" d="M89.38,-167.19C129.39,-201.18 215.6,-277.9 274,-355 292.14,-378.95 288.39,-390.41 307,-414 315.51,-424.79 326.29,-435.34 336.2,-444.14"/>
<polygon fill="#64748b" stroke="#64748b" points="334.72,-446.1 341.6,-448.85 337.93,-442.4 334.72,-446.1"/>
<text text-anchor="middle" x="220" y="-357.6" font-family="Helvetica,sans-Serif" font-size="8.00">fk_issuer_country</text>
</g>
<!-- iso4217_currency -->
<g id="node10" class="node">
<title>iso4217_currency</title>
<path fill="#f8fafc" stroke="#334155" d="M409,-262C409,-262 322,-262 322,-262 316,-262 310,-256 310,-250 310,-250 310,-238 310,-238 310,-232 316,-226 322,-226 322,-226 409,-226 409,-226 415,-226 421,-232 421,-238 421,-238 421,-250 421,-250 421,-256 415,-262 409,-262"/>
<text text-anchor="middle" x="365.5" y="-241.2" font-family="Helvetica,sans-Serif" font-size="11.00">iso4217_currency</text>
</g>
<!-- iso4217_currency&#45;&gt;listing -->
<g id="edge18" class="edge">
<title>iso4217_currency&#45;&gt;listing</title>
<path fill="none" stroke="#64748b" d="M421.05,-249.48C547.61,-262.2 858.23,-293.41 960.36,-303.67"/>
<polygon fill="#64748b" stroke="#64748b" points="960.14,-306.11 967.35,-304.37 960.63,-301.23 960.14,-306.11"/>
<text text-anchor="middle" x="684" y="-283.6" font-family="Helvetica,sans-Serif" font-size="8.00">fk_listing_currency</text>
</g>
<!-- iso4217_currency&#45;&gt;security -->
<g id="edge19" class="edge">
<title>iso4217_currency&#45;&gt;security</title>
<path fill="none" stroke="#64748b" d="M407.23,-262.02C469.76,-289.68 588.39,-342.15 647.57,-368.33"/>
<polygon fill="#64748b" stroke="#64748b" points="646.75,-370.65 654.15,-371.24 648.73,-366.16 646.75,-370.65"/>
<text text-anchor="middle" x="520.5" y="-340.6" font-family="Helvetica,sans-Serif" font-size="8.00">fk_security_currency</text>
</g>
<!-- issuer&#45;&gt;issuer_classification -->
<g id="edge20" class="edge">
<title>issuer&#45;&gt;issuer_classification</title>
<path fill="none" stroke="#64748b" d="M370.66,-485.24C381.08,-528.98 410.83,-642.56 457,-728 516.55,-838.2 616.49,-950.51 660.75,-997.78"/>
<polygon fill="#64748b" stroke="#64748b" points="659.04,-999.53 665.62,-1002.95 662.61,-996.18 659.04,-999.53"/>
<text text-anchor="middle" x="520.5" y="-910.6" font-family="Helvetica,sans-Serif" font-size="8.00">fk_issuer_class_issuer</text>
</g>
<!-- issuer&#45;&gt;issuer_identifier -->
<g id="edge21" class="edge">
<title>issuer&#45;&gt;issuer_identifier</title>
<path fill="none" stroke="#64748b" d="M372.77,-485.43C384.19,-515.91 411.52,-576.2 457,-604 507.88,-635.1 577.42,-638.2 625.87,-635.52"/>
<polygon fill="#64748b" stroke="#64748b" points="626.02,-637.96 632.86,-635.08 625.72,-633.07 626.02,-637.96"/>
<text text-anchor="middle" x="520.5" y="-637.6" font-family="Helvetica,sans-Serif" font-size="8.00">fk_issuer_identifier_issuer</text>
</g>
<!-- issuer&#45;&gt;issuer_name_history -->
<g id="edge22" class="edge">
<title>issuer&#45;&gt;issuer_name_history</title>
<path fill="none" stroke="#64748b" d="M392.67,-473.86C440.57,-486.42 543.79,-513.49 613.33,-531.73"/>
<polygon fill="#64748b" stroke="#64748b" points="612.98,-534.17 620.37,-533.58 614.23,-529.43 612.98,-534.17"/>
<text text-anchor="middle" x="520.5" y="-525.6" font-family="Helvetica,sans-Serif" font-size="8.00">fk_issuer_name_issuer</text>
</g>
<!-- issuer&#45;&gt;security -->
<g id="edge23" class="edge">
<title>issuer&#45;&gt;security</title>
<path fill="none" stroke="#64748b" d="M392.65,-455.61C410.52,-448.14 434.88,-438.58 457,-432 523.1,-412.34 602.35,-397.43 647.27,-389.77"/>
<polygon fill="#64748b" stroke="#64748b" points="647.96,-392.14 654.45,-388.56 647.14,-387.31 647.96,-392.14"/>
<text text-anchor="middle" x="520.5" y="-434.6" font-family="Helvetica,sans-Serif" font-size="8.00">fk_security_issuer</text>
</g>
<!-- issuer&#45;&gt;security_event -->
<g id="edge24" class="edge">
<title>issuer&#45;&gt;security_event</title>
<path fill="none" stroke="#64748b" d="M392.67,-461.16C460.73,-447.62 645.27,-421.68 751,-511 791.29,-545.04 744.08,-590.53 784,-625 874.09,-702.8 932.05,-650.51 1051,-646 1118.37,-643.44 1195.73,-637.03 1246.33,-632.35"/>
<polygon fill="#64748b" stroke="#64748b" points="1246.86,-634.77 1253.6,-631.68 1246.4,-629.89 1246.86,-634.77"/>
<text text-anchor="middle" x="844.5" y="-669.6" font-family="Helvetica,sans-Serif" font-size="8.00">fk_security_event_issuer</text>
</g>
<!-- source_evidence -->
<g id="node20" class="node">
<title>source_evidence</title>
<path fill="#f8fafc" stroke="#334155" d="M1638,-404C1638,-404 1556,-404 1556,-404 1550,-404 1544,-398 1544,-392 1544,-392 1544,-380 1544,-380 1544,-374 1550,-368 1556,-368 1556,-368 1638,-368 1638,-368 1644,-368 1650,-374 1650,-380 1650,-380 1650,-392 1650,-392 1650,-398 1644,-404 1638,-404"/>
<text text-anchor="middle" x="1597" y="-383.2" font-family="Helvetica,sans-Serif" font-size="11.00">source_evidence</text>
</g>
<!-- issuer&#45;&gt;source_evidence -->
<g id="edge25" class="edge">
<title>issuer&#45;&gt;source_evidence</title>
<path fill="none" stroke="#64748b" d="M388.82,-448.85C400.05,-439.14 413.47,-426.61 424,-414 441.55,-392.99 435.36,-378.76 457,-362 565.57,-277.92 646.01,-355.51 751,-267 775.17,-246.63 756.96,-220.36 784,-204 928.14,-116.79 881.24,-51.46 1511,-325 1532.66,-334.41 1554.25,-350 1570.25,-363.06"/>
<polygon fill="#64748b" stroke="#64748b" points="1568.93,-365.15 1575.88,-367.74 1572.06,-361.38 1568.93,-365.15"/>
<text text-anchor="middle" x="994.5" y="-148.6" font-family="Helvetica,sans-Serif" font-size="8.00">fk_source_evidence_issuer</text>
</g>
<!-- listing&#45;&gt;listing_symbol_history -->
<g id="edge26" class="edge">
<title>listing&#45;&gt;listing_symbol_history</title>
<path fill="none" stroke="#64748b" d="M1009.76,-325.17C1025.98,-344.83 1054.1,-376.03 1084,-396 1130.74,-427.21 1159.69,-405.89 1201,-444 1224.81,-465.97 1211.76,-485.44 1234,-509 1240.06,-515.42 1247.42,-521.11 1255.01,-526.03"/>
<polygon fill="#64748b" stroke="#64748b" points="1254.17,-528.39 1261.42,-529.97 1256.74,-524.22 1254.17,-528.39"/>
<text text-anchor="middle" x="1142.5" y="-446.6" font-family="Helvetica,sans-Serif" font-size="8.00">fk_listing_symbol_listing</text>
</g>
<!-- listing&#45;&gt;security_event -->
<g id="edge27" class="edge">
<title>listing&#45;&gt;security_event</title>
<path fill="none" stroke="#64748b" d="M1002.14,-325.25C1014.07,-355.68 1041.88,-416.97 1084,-453 1126.71,-489.53 1161.79,-460.73 1201,-501 1229.85,-530.63 1207.26,-556.45 1234,-588 1239.51,-594.5 1246.39,-600.17 1253.62,-605.02"/>
<polygon fill="#64748b" stroke="#64748b" points="1252.53,-607.23 1259.76,-608.9 1255.15,-603.09 1252.53,-607.23"/>
<text text-anchor="middle" x="1142.5" y="-503.6" font-family="Helvetica,sans-Serif" font-size="8.00">fk_security_event_listing</text>
</g>
<!-- listing&#45;&gt;source_evidence -->
<g id="edge28" class="edge">
<title>listing&#45;&gt;source_evidence</title>
<path fill="none" stroke="#64748b" d="M1021.63,-306.92C1098.01,-307.21 1327.06,-311.8 1511,-354 1523.21,-356.8 1536.02,-360.94 1547.89,-365.32"/>
<polygon fill="#64748b" stroke="#64748b" points="1547.34,-367.74 1554.75,-367.92 1549.07,-363.15 1547.34,-367.74"/>
<text text-anchor="middle" x="1302" y="-330.6" font-family="Helvetica,sans-Serif" font-size="8.00">fk_source_evidence_listing</text>
</g>
<!-- security&#45;&gt;listing -->
<g id="edge29" class="edge">
<title>security&#45;&gt;listing</title>
<path fill="none" stroke="#64748b" d="M713.9,-375.04C733.57,-369.06 760.26,-361.19 784,-355 845.95,-338.85 918.96,-322.78 960.39,-313.95"/>
<polygon fill="#64748b" stroke="#64748b" points="960.91,-316.34 967.25,-312.49 959.89,-311.55 960.91,-316.34"/>
<text text-anchor="middle" x="844.5" y="-357.6" font-family="Helvetica,sans-Serif" font-size="8.00">fk_listing_security</text>
</g>
<!-- security&#45;&gt;security_event -->
<g id="edge30" class="edge">
<title>security&#45;&gt;security_event</title>
<path fill="none" stroke="#64748b" d="M713.88,-395.39C810.51,-433.51 1123.41,-556.94 1248.56,-606.31"/>
<polygon fill="#64748b" stroke="#64748b" points="1247.68,-608.6 1255.09,-608.89 1249.48,-604.04 1247.68,-608.6"/>
<text text-anchor="middle" x="994.5" y="-527.6" font-family="Helvetica,sans-Serif" font-size="8.00">fk_security_event_security</text>
</g>
<!-- security&#45;&gt;security_identifier -->
<g id="edge31" class="edge">
<title>security&#45;&gt;security_identifier</title>
<path fill="none" stroke="#64748b" d="M713.62,-400.08C726.78,-408.82 741.54,-420.77 751,-435 782.56,-482.5 742.89,-519.48 784,-559 822.72,-596.23 884.23,-606.44 930.61,-608.25"/>
<polygon fill="#64748b" stroke="#64748b" points="930.55,-610.7 937.62,-608.46 930.7,-605.8 930.55,-610.7"/>
<text text-anchor="middle" x="844.5" y="-608.6" font-family="Helvetica,sans-Serif" font-size="8.00">fk_security_identifier_security</text>
</g>
<!-- security&#45;&gt;source_evidence -->
<g id="edge32" class="edge">
<title>security&#45;&gt;source_evidence</title>
<path fill="none" stroke="#64748b" d="M713.52,-384.06C840.97,-384.34 1359.91,-385.48 1536.69,-385.87"/>
<polygon fill="#64748b" stroke="#64748b" points="1536.84,-388.32 1543.84,-385.89 1536.85,-383.42 1536.84,-388.32"/>
<text text-anchor="middle" x="1142.5" y="-387.6" font-family="Helvetica,sans-Serif" font-size="8.00">fk_source_evidence_security</text>
</g>
<!-- security_event&#45;&gt;source_evidence -->
<g id="edge33" class="edge">
<title>security_event&#45;&gt;source_evidence</title>
<path fill="none" stroke="#64748b" d="M1336.84,-608.97C1347.71,-602.74 1359.61,-595.45 1370,-588 1450.21,-530.47 1534.21,-448.79 1573.39,-409.25"/>
<polygon fill="#64748b" stroke="#64748b" points="1575.21,-410.88 1578.39,-404.18 1571.73,-407.44 1575.21,-410.88"/>
<text text-anchor="middle" x="1457" y="-560.6" font-family="Helvetica,sans-Serif" font-size="8.00">fk_source_evidence_event</text>
</g>
<!-- source_observation -->
<g id="node21" class="node">
<title>source_observation</title>
<path fill="#f8fafc" stroke="#334155" d="M1351,-487C1351,-487 1253,-487 1253,-487 1247,-487 1241,-481 1241,-475 1241,-475 1241,-463 1241,-463 1241,-457 1247,-451 1253,-451 1253,-451 1351,-451 1351,-451 1357,-451 1363,-457 1363,-463 1363,-463 1363,-475 1363,-475 1363,-481 1357,-487 1351,-487"/>
<text text-anchor="middle" x="1302" y="-466.2" font-family="Helvetica,sans-Serif" font-size="11.00">source_observation</text>
</g>
<!-- source_observation&#45;&gt;source_evidence -->
<g id="edge34" class="edge">
<title>source_observation&#45;&gt;source_evidence</title>
<path fill="none" stroke="#64748b" d="M1363.14,-456.26C1404.96,-446.91 1461.81,-433.23 1511,-418 1521.85,-414.64 1533.33,-410.64 1544.22,-406.62"/>
<polygon fill="#64748b" stroke="#64748b" points="1545.21,-408.86 1550.91,-404.12 1543.5,-404.27 1545.21,-408.86"/>
<text text-anchor="middle" x="1457" y="-448.6" font-family="Helvetica,sans-Serif" font-size="8.00">fk_source_evidence_obs</text>
</g>
<!-- stg_iso10383_mic -->
<g id="node22" class="node">
<title>stg_iso10383_mic</title>
<path fill="#f8fafc" stroke="#334155" d="M110,-471C110,-471 23,-471 23,-471 17,-471 11,-465 11,-459 11,-459 11,-447 11,-447 11,-441 17,-435 23,-435 23,-435 110,-435 110,-435 116,-435 122,-441 122,-447 122,-447 122,-459 122,-459 122,-465 116,-471 110,-471"/>
<text text-anchor="middle" x="66.5" y="-450.2" font-family="Helvetica,sans-Serif" font-size="11.00">stg_iso10383_mic</text>
</g>
<!-- stg_iso3166_country -->
<g id="node23" class="node">
<title>stg_iso3166_country</title>
<path fill="#f8fafc" stroke="#334155" d="M118,-550C118,-550 15,-550 15,-550 9,-550 3,-544 3,-538 3,-538 3,-526 3,-526 3,-520 9,-514 15,-514 15,-514 118,-514 118,-514 124,-514 130,-520 130,-526 130,-526 130,-538 130,-538 130,-544 124,-550 118,-550"/>
<text text-anchor="middle" x="66.5" y="-529.2" font-family="Helvetica,sans-Serif" font-size="11.00">stg_iso3166_country</text>
</g>
<!-- stg_iso4217_currency -->
<g id="node24" class="node">
<title>stg_iso4217_currency</title>
<path fill="#f8fafc" stroke="#334155" d="M121,-629C121,-629 12,-629 12,-629 6,-629 0,-623 0,-617 0,-617 0,-605 0,-605 0,-599 6,-593 12,-593 12,-593 121,-593 121,-593 127,-593 133,-599 133,-605 133,-605 133,-617 133,-617 133,-623 127,-629 121,-629"/>
<text text-anchor="middle" x="66.5" y="-608.2" font-family="Helvetica,sans-Serif" font-size="11.00">stg_iso4217_currency</text>
</g>
</g>
</svg>
