<?xml version="1.0" encoding="UTF-8" standalone="no"?>
<!DOCTYPE svg PUBLIC "-//W3C//DTD SVG 1.1//EN"
 "http://www.w3.org/Graphics/SVG/1.1/DTD/svg11.dtd">
<!-- Generated by graphviz version 2.42.4 (0)
 -->
<!-- Title: schema_relations Pages: 1 -->
<svg width="1734pt" height="1662pt"
 viewBox="0.00 0.00 1734.00 1662.00" xmlns="http://www.w3.org/2000/svg" xmlns:xlink="http://www.w3.org/1999/xlink">
<g id="graph0" class="graph" transform="scale(1 1) rotate(0) translate(18 1644)">
<title>schema_relations</title>
<!-- classification_code -->
<g id="node1" class="node">
<title>classification_code</title>
<path fill="#f8fafc" stroke="#334155" d="M1371,-1124C1371,-1124 1278,-1124 1278,-1124 1272,-1124 1266,-1118 1266,-1112 1266,-1112 1266,-1100 1266,-1100 1266,-1094 1272,-1088 1278,-1088 1278,-1088 1371,-1088 1371,-1088 1377,-1088 1383,-1094 1383,-1100 1383,-1100 1383,-1112 1383,-1112 1383,-1118 1377,-1124 1371,-1124"/>
<text text-anchor="middle" x="1324.5" y="-1103.2" font-family="Helvetica,sans-Serif" font-size="11.00">classification_code</text>
</g>
<!-- issuer_classification -->
<g id="node14" class="node">
<title>issuer_classification</title>
<path fill="#f8fafc" stroke="#334155" d="M1686,-1397C1686,-1397 1586,-1397 1586,-1397 1580,-1397 1574,-1391 1574,-1385 1574,-1385 1574,-1373 1574,-1373 1574,-1367 1580,-1361 1586,-1361 1586,-1361 1686,-1361 1686,-1361 1692,-1361 1698,-1367 1698,-1373 1698,-1373 1698,-1385 1698,-1385 1698,-1391 1692,-1397 1686,-1397"/>
<text text-anchor="middle" x="1636" y="-1376.2" font-family="Helvetica,sans-Serif" font-size="11.00">issuer_classification</text>
</g>
<!-- classification_code&#45;&gt;issuer_classification -->
<g id="edge1" class="edge">
<title>classification_code&#45;&gt;issuer_classification</title>
<path fill="none" stroke="#64748b" d="M1357.33,-1124.08C1401.45,-1150.05 1482.38,-1200.98 1541,-1257 1572.68,-1287.27 1602.31,-1328.78 1619.54,-1354.73"/>
<polygon fill="#64748b" stroke="#64748b" points="1617.55,-1356.16 1623.44,-1360.66 1621.64,-1353.46 1617.55,-1356.16"/>
<text text-anchor="middle" x="1484" y="-1259.6" font-family="Helvetica,sans-Serif" font-size="8.00">fk_issuer_class_code</text>
</g>
<!-- classification_system -->
<g id="node2" class="node">
<title>classification_system</title>
<path fill="#f8fafc" stroke="#334155" d="M1046,-1088C1046,-1088 938,-1088 938,-1088 932,-1088 926,-1082 926,-1076 926,-1076 926,-1064 926,-1064 926,-1058 932,-1052 938,-1052 938,-1052 1046,-1052 1046,-1052 1052,-1052 1058,-1058 1058,-1064 1058,-1064 1058,-1076 1058,-1076 1058,-1082 1052,-1088 1046,-1088"/>
<text text-anchor="middle" x="992" y="-1067.2" font-family="Helvetica,sans-Serif" font-size="11.00">classification_system</text>
</g>
<!-- classification_system&#45;&gt;classification_code -->
<g id="edge2" class="edge">
<title>classification_system&#45;&gt;classification_code</title>
<path fill="none" stroke="#64748b" d="M1058.3,-1077.11C1116.3,-1083.43 1200.61,-1092.61 1258.52,-1098.92"/>
<polygon fill="#64748b" stroke="#64748b" points="1258.57,-1101.39 1265.8,-1099.71 1259.1,-1096.52 1258.57,-1101.39"/>
<text text-anchor="middle" x="1156.5" y="-1096.6" font-family="Helvetica,sans-Serif" font-size="8.00">fk_classification_code_system</text>
</g>
<!-- confidence_level -->
<g id="node3" class="node">
<title>confidence_level</title>
<path fill="#f8fafc" stroke="#334155" d="M711.5,-1248C711.5,-1248 630.5,-1248 630.5,-1248 624.5,-1248 618.5,-1242 618.5,-1236 618.5,-1236 618.5,-1224 618.5,-1224 618.5,-1218 624.5,-1212 630.5,-1212 630.5,-1212 711.5,-1212 711.5,-1212 717.5,-1212 723.5,-1218 723.5,-1224 723.5,-1224 723.5,-1236 723.5,-1236 723.5,-1242 717.5,-1248 711.5,-1248"/>
<text text-anchor="middle" x="671" y="-1227.2" font-family="Helvetica,sans-Serif" font-size="11.00">confidence_level</text>
</g>
<!-- confidence_level&#45;&gt;issuer_classification -->
<g id="edge3" class="edge">
<title>confidence_level&#45;&gt;issuer_classification</title>
<path fill="none" stroke="#64748b" d="M708.46,-1248.15C713.97,-1251.69 719.35,-1255.66 724,-1260 743.2,-1277.91 734.33,-1295.75 757,-1309 1021.8,-1463.73 1410.61,-1418.98 1566.57,-1392.34"/>
<polygon fill="#64748b" stroke="#64748b" points="1567.34,-1394.69 1573.82,-1391.09 1566.51,-1389.87 1567.34,-1394.69"/>
<text text-anchor="middle" x="1156.5" y="-1421.6" font-family="Helvetica,sans-Serif" font-size="8.00">fk_issuer_class_confidence</text>
</g>
<!-- issuer_identifier -->
<g id="node15" class="node">
<title>issuer_identifier</title>
<path fill="#f8fafc" stroke="#334155" d="M1031,-637C1031,-637 953,-637 953,-637 947,-637 941,-631 941,-625 941,-625 941,-613 941,-613 941,-607 947,-601 953,-601 953,-601 1031,-601 1031,-601 1037,-601 1043,-607 1043,-613 1043,-613 1043,-625 1043,-625 1043,-631 1037,-637 1031,-637"/>
<text text-anchor="middle" x="992" y="-616.2" font-family="Helvetica,sans-Serif" font-size="11.00">issuer_identifier</text>
</g>
<!-- confidence_level&#45;&gt;issuer_identifier -->
<g id="edge4" class="edge">
<title>confidence_level&#45;&gt;issuer_identifier</title>
<path fill="none" stroke="#64748b" d="M684.09,-1211.9C699.41,-1189.81 727.38,-1152.04 757,-1125 810.71,-1075.96 855.87,-1096.54 893,-1034 975.92,-894.32 848.41,-812.71 926,-670 932.19,-658.62 942.09,-648.93 952.33,-641.14"/>
<polygon fill="#64748b" stroke="#64748b" points="953.79,-643.11 958.02,-637.02 950.92,-639.14 953.79,-643.11"/>
<text text-anchor="middle" x="825" y="-1127.6" font-family="Helvetica,sans-Serif" font-size="8.00">fk_issuer_identifier_confidence</text>
</g>
<!-- issuer_name_history -->
<g id="node16" class="node">
<title>issuer_name_history</title>
<path fill="#f8fafc" stroke="#334155" d="M1043.5,-1254C1043.5,-1254 940.5,-1254 940.5,-1254 934.5,-1254 928.5,-1248 928.5,-1242 928.5,-1242 928.5,-1230 928.5,-1230 928.5,-1224 934.5,-1218 940.5,-1218 940.5,-1218 1043.5,-1218 1043.5,-1218 1049.5,-1218 1055.5,-1224 1055.5,-1230 1055.5,-1230 1055.5,-1242 1055.5,-1242 1055.5,-1248 1049.5,-1254 1043.5,-1254"/>
<text text-anchor="middle" x="992" y="-1233.2" font-family="Helvetica,sans-Serif" font-size="11.00">issuer_name_history</text>
</g>
<!-- confidence_level&#45;&gt;issuer_name_history -->
<g id="edge5" class="edge">
<title>confidence_level&#45;&gt;issuer_name_history</title>
<path fill="none" stroke="#64748b" d="M723.93,-1241.36C734.8,-1243.29 746.24,-1245 757,-1246 812.07,-1251.14 874.68,-1247.99 921.27,-1243.92"/>
<polygon fill="#64748b" stroke="#64748b" points="921.56,-1246.35 928.31,-1243.28 921.12,-1241.47 921.56,-1246.35"/>
<text text-anchor="middle" x="825" y="-1250.6" font-family="Helvetica,sans-Serif" font-size="8.00">fk_issuer_name_confidence</text>
</g>
<!-- listing_symbol_history -->
<g id="node18" class="node">
<title>listing_symbol_history</title>
<path fill="#f8fafc" stroke="#334155" d="M1380.5,-923C1380.5,-923 1268.5,-923 1268.5,-923 1262.5,-923 1256.5,-917 1256.5,-911 1256.5,-911 1256.5,-899 1256.5,-899 1256.5,-893 1262.5,-887 1268.5,-887 1268.5,-887 1380.5,-887 1380.5,-887 1386.5,-887 1392.5,-893 1392.5,-899 1392.5,-899 1392.5,-911 1392.5,-911 1392.5,-917 1386.5,-923 1380.5,-923"/>
<text text-anchor="middle" x="1324.5" y="-902.2" font-family="Helvetica,sans-Serif" font-size="11.00">listing_symbol_history</text>
</g>
<!-- confidence_level&#45;&gt;listing_symbol_history -->
<g id="edge6" class="edge">
<title>confidence_level&#45;&gt;listing_symbol_history</title>
<path fill="none" stroke="#64748b" d="M705.77,-1248.02C720.99,-1255.26 739.46,-1262.86 757,-1267 857.63,-1290.76 1147.94,-1323.15 1222,-1251 1281.51,-1193.03 1231.34,-1146.64 1255,-1067 1269.94,-1016.72 1295.67,-960.97 1310.99,-929.74"/>
<polygon fill="#64748b" stroke="#64748b" points="1313.19,-930.82 1314.09,-923.45 1308.79,-928.65 1313.19,-930.82"/>
<text text-anchor="middle" x="992" y="-1297.6" font-family="Helvetica,sans-Serif" font-size="8.00">fk_listing_symbol_confidence</text>
</g>
<!-- security_event -->
<g id="node23" class="node">
<title>security_event</title>
<path fill="#f8fafc" stroke="#334155" d="M1360.5,-374C1360.5,-374 1288.5,-374 1288.5,-374 1282.5,-374 1276.5,-368 1276.5,-362 1276.5,-362 1276.5,-350 1276.5,-350 1276.5,-344 1282.5,-338 1288.5,-338 1288.5,-338 1360.5,-338 1360.5,-338 1366.5,-338 1372.5,-344 1372.5,-350 1372.5,-350 1372.5,-362 1372.5,-362 1372.5,-368 1366.5,-374 1360.5,-374"/>
<text text-anchor="middle" x="1324.5" y="-353.2" font-family="Helvetica,sans-Serif" font-size="11.00">security_event</text>
</g>
<!-- confidence_level&#45;&gt;security_event -->
<g id="edge7" class="edge">
<title>confidence_level&#45;&gt;security_event</title>
<path fill="none" stroke="#64748b" d="M711.16,-1211.95C725.51,-1205.48 741.92,-1198.25 757,-1192 816.78,-1167.23 849.41,-1187.83 893,-1140 929.69,-1099.75 894.15,-1066.17 926,-1022 1018.85,-893.21 1136.83,-955.99 1222,-822 1272.68,-742.27 1235.43,-704.43 1255,-612 1273.14,-526.34 1302.17,-426.55 1315.87,-380.99"/>
<polygon fill="#64748b" stroke="#64748b" points="1318.25,-381.56 1317.93,-374.15 1313.56,-380.15 1318.25,-381.56"/>
<text text-anchor="middle" x="992" y="-1024.6" font-family="Helvetica,sans-Serif" font-size="8.00">fk_security_event_confidence</text>
</g>
<!-- security_identifier -->
<g id="node24" class="node">
<title>security_identifier</title>
<path fill="#f8fafc" stroke="#334155" d="M1036.5,-479C1036.5,-479 947.5,-479 947.5,-479 941.5,-479 935.5,-473 935.5,-467 935.5,-467 935.5,-455 935.5,-455 935.5,-449 941.5,-443 947.5,-443 947.5,-443 1036.5,-443 1036.5,-443 1042.5,-443 1048.5,-449 1048.5,-455 1048.5,-455 1048.5,-467 1048.5,-467 1048.5,-473 1042.5,-479 1036.5,-479"/>
<text text-anchor="middle" x="992" y="-458.2" font-family="Helvetica,sans-Serif" font-size="11.00">security_identifier</text>
</g>
<!-- confidence_level&#45;&gt;security_identifier -->
<g id="edge8" class="edge">
<title>confidence_level&#45;&gt;security_identifier</title>
<path fill="none" stroke="#64748b" d="M673.93,-1211.68C679.52,-1166.28 699.14,-1046.54 757,-968 800.88,-908.43 856.08,-936.12 893,-872 975.6,-728.54 838.92,-641.79 926,-501 930.22,-494.18 936.07,-488.36 942.55,-483.43"/>
<polygon fill="#64748b" stroke="#64748b" points="944.32,-485.18 948.65,-479.16 941.51,-481.17 944.32,-485.18"/>
<text text-anchor="middle" x="825" y="-970.6" font-family="Helvetica,sans-Serif" font-size="8.00">fk_security_identifier_confidence</text>
</g>
<!-- exchange -->
<g id="node4" class="node">
<title>exchange</title>
<path fill="#f8fafc" stroke="#334155" d="M692.5,-283C692.5,-283 649.5,-283 649.5,-283 643.5,-283 637.5,-277 637.5,-271 637.5,-271 637.5,-259 637.5,-259 637.5,-253 643.5,-247 649.5,-247 649.5,-247 692.5,-247 692.5,-247 698.5,-247 704.5,-253 704.5,-259 704.5,-259 704.5,-271 704.5,-271 704.5,-277 698.5,-283 692.5,-283"/>
<text text-anchor="middle" x="671" y="-262.2" font-family="Helvetica,sans-Serif" font-size="11.00">exchange</text>
</g>
<!-- exchange_alias -->
<g id="node5" class="node">
<title>exchange_alias</title>
<path fill="#f8fafc" stroke="#334155" d="M1029,-558C1029,-558 955,-558 955,-558 949,-558 943,-552 943,-546 943,-546 943,-534 943,-534 943,-528 949,-522 955,-522 955,-522 1029,-522 1029,-522 1035,-522 1041,-528 1041,-534 1041,-534 1041,-546 1041,-546 1041,-552 1035,-558 1029,-558"/>
<text text-anchor="middle" x="992" y="-537.2" font-family="Helvetica,sans-Serif" font-size="11.00">exchange_alias</text>
</g>
<!-- exchange&#45;&gt;exchange_alias -->
<g id="edge9" class="edge">
<title>exchange&#45;&gt;exchange_alias</title>
<path fill="none" stroke="#64748b" d="M684,-283.34C699,-305.2 726.47,-341.8 757,-366 810.11,-408.11 845.21,-386.93 893,-435 916.12,-458.26 903.72,-476.94 926,-501 931.87,-507.34 939,-512.99 946.36,-517.89"/>
<polygon fill="#64748b" stroke="#64748b" points="945.35,-520.15 952.57,-521.83 947.97,-516.01 945.35,-520.15"/>
<text text-anchor="middle" x="825" y="-437.6" font-family="Helvetica,sans-Serif" font-size="8.00">fk_exchange_alias_exchange</text>
</g>
<!-- listing -->
<g id="node17" class="node">
<title>listing</title>
<path fill="#f8fafc" stroke="#334155" d="M1007,-248C1007,-248 977,-248 977,-248 971,-248 965,-242 965,-236 965,-236 965,-224 965,-224 965,-218 971,-212 977,-212 977,-212 1007,-212 1007,-212 1013,-212 1019,-218 1019,-224 1019,-224 1019,-236 1019,-236 1019,-242 1013,-248 1007,-248"/>
<text text-anchor="middle" x="992" y="-227.2" font-family="Helvetica,sans-Serif" font-size="11.00">listing</text>
</g>
<!-- exchange&#45;&gt;listing -->
<g id="edge10" class="edge">
<title>exchange&#45;&gt;listing</title>
<path fill="none" stroke="#64748b" d="M704.78,-254.9C720.44,-250.49 739.53,-245.72 757,-243 827.84,-231.98 912.01,-229.97 957.61,-229.79"/>
<polygon fill="#64748b" stroke="#64748b" points="957.86,-232.24 964.85,-229.77 957.85,-227.34 957.86,-232.24"/>
<text text-anchor="middle" x="825" y="-245.6" font-family="Helvetica,sans-Serif" font-size="8.00">fk_listing_exchange</text>
</g>
<!-- identifier_type -->
<g id="node6" class="node">
<title>identifier_type</title>
<path fill="#f8fafc" stroke="#334155" d="M705.5,-540C705.5,-540 636.5,-540 636.5,-540 630.5,-540 624.5,-534 624.5,-528 624.5,-528 624.5,-516 624.5,-516 624.5,-510 630.5,-504 636.5,-504 636.5,-504 705.5,-504 705.5,-504 711.5,-504 717.5,-510 717.5,-516 717.5,-516 717.5,-528 717.5,-528 717.5,-534 711.5,-540 705.5,-540"/>
<text text-anchor="middle" x="671" y="-519.2" font-family="Helvetica,sans-Serif" font-size="11.00">identifier_type</text>
</g>
<!-- identifier_type&#45;&gt;issuer_identifier -->
<g id="edge11" class="edge">
<title>identifier_type&#45;&gt;issuer_identifier</title>
<path fill="none" stroke="#64748b" d="M687.48,-540.29C703.12,-557.36 728.91,-581.97 757,-594 813.74,-618.3 885,-622.62 933.89,-622.09"/>
<polygon fill="#64748b" stroke="#64748b" points="933.97,-624.54 940.93,-621.98 933.89,-619.64 933.97,-624.54"/>
<text text-anchor="middle" x="825" y="-623.6" font-family="Helvetica,sans-Serif" font-size="8.00">fk_issuer_identifier_type</text>
</g>
<!-- identifier_type&#45;&gt;security_identifier -->
<g id="edge12" class="edge">
<title>identifier_type&#45;&gt;security_identifier</title>
<path fill="none" stroke="#64748b" d="M695.03,-503.83C711.33,-492.11 734.25,-477.83 757,-471 813.12,-454.16 880.21,-453.11 928.13,-455.41"/>
<polygon fill="#64748b" stroke="#64748b" points="928.23,-457.87 935.35,-455.79 928.49,-452.97 928.23,-457.87"/>
<text text-anchor="middle" x="825" y="-473.6" font-family="Helvetica,sans-Serif" font-size="8.00">fk_security_identifier_type</text>
</g>
<!-- instrument_class -->
<g id="node7" class="node">
<title>instrument_class</title>
<path fill="#f8fafc" stroke="#334155" d="M134,-36C134,-36 50,-36 50,-36 44,-36 38,-30 38,-24 38,-24 38,-12 38,-12 38,-6 44,0 50,0 50,0 134,0 134,0 140,0 146,-6 146,-12 146,-12 146,-24 146,-24 146,-30 140,-36 134,-36"/>
<text text-anchor="middle" x="92" y="-15.2" font-family="Helvetica,sans-Serif" font-size="11.00">instrument_class</text>
</g>
<!-- instrument_type -->
<g id="node8" class="node">
<title>instrument_type</title>
<path fill="#f8fafc" stroke="#334155" d="M454,-36C454,-36 373,-36 373,-36 367,-36 361,-30 361,-24 361,-24 361,-12 361,-12 361,-6 367,0 373,0 373,0 454,0 454,0 460,0 466,-6 466,-12 466,-12 466,-24 466,-24 466,-30 460,-36 454,-36"/>
<text text-anchor="middle" x="413.5" y="-15.2" font-family="Helvetica,sans-Serif" font-size="11.00">instrument_type</text>
</g>
<!-- instrument_class&#45;&gt;instrument_type -->
<g id="edge13" class="edge">
<title>instrument_class&#45;&gt;instrument_type</title>
<path fill="none" stroke="#64748b" d="M146.12,-18C203.41,-18 294.38,-18 353.76,-18"/>
<polygon fill="#64748b" stroke="#64748b" points="353.85,-20.45 360.85,-18 353.85,-15.55 353.85,-20.45"/>
<text text-anchor="middle" x="271" y="-20.6" font-family="Helvetica,sans-Serif" font-size="8.00">fk_instrument_type_class</text>
</g>
<!-- security -->
<g id="node22" class="node">
<title>security</title>
<path fill="#f8fafc" stroke="#334155" d="M688.5,-86C688.5,-86 653.5,-86 653.5,-86 647.5,-86 641.5,-80 641.5,-74 641.5,-74 641.5,-62 641.5,-62 641.5,-56 647.5,-50 653.5,-50 653.5,-50 688.5,-50 688.5,-50 694.5,-50 700.5,-56 700.5,-62 700.5,-62 700.5,-74 700.5,-74 700.5,-80 694.5,-86 688.5,-86"/>
<text text-anchor="middle" x="671" y="-65.2" font-family="Helvetica,sans-Serif" font-size="11.00">security</text>
</g>
<!-- instrument_type&#45;&gt;security -->
<g id="edge14" class="edge">
<title>instrument_type&#45;&gt;security</title>
<path fill="none" stroke="#64748b" d="M466.2,-28.12C516.21,-37.9 590.65,-52.47 634.36,-61.03"/>
<polygon fill="#64748b" stroke="#64748b" points="634.02,-63.46 641.37,-62.4 634.97,-58.65 634.02,-63.46"/>
<text text-anchor="middle" x="543.5" y="-53.6" font-family="Helvetica,sans-Serif" font-size="8.00">fk_security_type</text>
</g>
<!-- iso10383_mic -->
<g id="node9" class="node">
<title>iso10383_mic</title>
<path fill="#f8fafc" stroke="#334155" d="M446,-194C446,-194 381,-194 381,-194 375,-194 369,-188 369,-182 369,-182 369,-170 369,-170 369,-164 375,-158 381,-158 381,-158 446,-158 446,-158 452,-158 458,-164 458,-170 458,-170 458,-182 458,-182 458,-188 452,-194 446,-194"/>
<text text-anchor="middle" x="413.5" y="-173.2" font-family="Helvetica,sans-Serif" font-size="11.00">iso10383_mic</text>
</g>
<!-- iso10383_mic&#45;&gt;exchange -->
<g id="edge15" class="edge">
<title>iso10383_mic&#45;&gt;exchange</title>
<path fill="none" stroke="#64748b" d="M458.13,-191.2C506.63,-208.09 584.24,-235.13 630.85,-251.36"/>
<polygon fill="#64748b" stroke="#64748b" points="630.08,-253.69 637.49,-253.68 631.69,-249.06 630.08,-253.69"/>
<text text-anchor="middle" x="543.5" y="-235.6" font-family="Helvetica,sans-Serif" font-size="8.00">fk_exchange_mic</text>
</g>
<!-- iso10383_mic&#45;&gt;iso10383_mic -->
<g id="edge16" class="edge">
<title>iso10383_mic&#45;&gt;iso10383_mic</title>
<path fill="none" stroke="#64748b" d="M395.22,-194.11C383.03,-214.12 389.12,-237 413.5,-237 435.21,-237 442.42,-218.86 435.12,-200.75"/>
<polygon fill="#64748b" stroke="#64748b" points="437.12,-199.26 431.78,-194.11 432.74,-201.46 437.12,-199.26"/>
<text text-anchor="middle" x="413.5" y="-239.6" font-family="Helvetica,sans-Serif" font-size="8.00">fk_iso10383_mic_operating</text>
</g>
<!-- iso10383_mic_cat -->
<g id="node10" class="node">
<title>iso10383_mic_cat</title>
<path fill="#f8fafc" stroke="#334155" d="M135.5,-194C135.5,-194 48.5,-194 48.5,-194 42.5,-194 36.5,-188 36.5,-182 36.5,-182 36.5,-170 36.5,-170 36.5,-164 42.5,-158 48.5,-158 48.5,-158 135.5,-158 135.5,-158 141.5,-158 147.5,-164 147.5,-170 147.5,-170 147.5,-182 147.5,-182 147.5,-188 141.5,-194 135.5,-194"/>
<text text-anchor="middle" x="92" y="-173.2" font-family="Helvetica,sans-Serif" font-size="11.00">iso10383_mic_cat</text>
</g>
<!-- iso10383_mic_cat&#45;&gt;iso10383_mic -->
<g id="edge17" class="edge">
<title>iso10383_mic_cat&#45;&gt;iso10383_mic</title>
<path fill="none" stroke="#64748b" d="M147.56,-176C207.55,-176 303.17,-176 361.65,-176"/>
<polygon fill="#64748b" stroke="#64748b" points="361.94,-178.45 368.94,-176 361.94,-173.55 361.94,-178.45"/>
<text text-anchor="middle" x="271" y="-178.6" font-family="Helvetica,sans-Serif" font-size="8.00">fk_iso10383_mic_category</text>
</g>
<!-- iso3166_country -->
<g id="node11" class="node">
<title>iso3166_country</title>
<path fill="#f8fafc" stroke="#334155" d="M132.5,-325C132.5,-325 51.5,-325 51.5,-325 45.5,-325 39.5,-319 39.5,-313 39.5,-313 39.5,-301 39.5,-301 39.5,-295 45.5,-289 51.5,-289 51.5,-289 132.5,-289 132.5,-289 138.5,-289 144.5,-295 144.5,-301 144.5,-301 144.5,-313 144.5,-313 144.5,-319 138.5,-325 132.5,-325"/>
<text text-anchor="middle" x="92" y="-304.2" font-family="Helvetica,sans-Serif" font-size="11.00">iso3166_country</text>
</g>
<!-- iso3166_country&#45;&gt;exchange -->
<g id="edge18" class="edge">
<title>iso3166_country&#45;&gt;exchange</title>
<path fill="none" stroke="#64748b" d="M144.71,-303.24C258.57,-294.95 528.87,-275.27 630.48,-267.88"/>
<polygon fill="#64748b" stroke="#64748b" points="630.69,-270.32 637.49,-267.37 630.34,-265.43 630.69,-270.32"/>
<text text-anchor="middle" x="413.5" y="-289.6" font-family="Helvetica,sans-Serif" font-size="8.00">fk_exchange_country</text>
</g>
<!-- iso3166_country&#45;&gt;iso10383_mic -->
<g id="edge19" class="edge">
<title>iso3166_country&#45;&gt;iso10383_mic</title>
<path fill="none" stroke="#64748b" d="M137.09,-288.92C196.05,-264.75 300.33,-221.99 362.27,-196.6"/>
<polygon fill="#64748b" stroke="#64748b" points="363.32,-198.81 368.86,-193.89 361.46,-194.28 363.32,-198.81"/>
<text text-anchor="middle" x="271" y="-255.6" font-family="Helvetica,sans-Serif" font-size="8.00">fk_iso10383_mic_country</text>
</g>
<!-- issuer -->
<g id="node13" class="node">
<title>issuer</title>
<path fill="#f8fafc" stroke="#334155" d="M428.5,-695C428.5,-695 398.5,-695 398.5,-695 392.5,-695 386.5,-689 386.5,-683 386.5,-683 386.5,-671 386.5,-671 386.5,-665 392.5,-659 398.5,-659 398.5,-659 428.5,-659 428.5,-659 434.5,-659 440.5,-665 440.5,-671 440.5,-671 440.5,-683 440.5,-683 440.5,-689 434.5,-695 428.5,-695"/>
<text text-anchor="middle" x="413.5" y="-674.2" font-family="Helvetica,sans-Serif" font-size="11.00">issuer</text>
</g>
<!-- iso3166_country&#45;&gt;issuer -->
<g id="edge20" class="edge">
<title>iso3166_country&#45;&gt;issuer</title>
<path fill="none" stroke="#64748b" d="M144.94,-324C158.52,-329.94 172.55,-337.56 184,-347 293.22,-437.08 373,-592.03 401.28,-652.15"/>
<polygon fill="#64748b" stroke="#64748b" points="399.14,-653.36 404.32,-658.67 403.58,-651.29 399.14,-653.36"/>
<text text-anchor="middle" x="271" y="-514.6" font-family="Helvetica,sans-Serif" font-size="8.00">fk_issuer_country</text>
</g>
<!-- iso4217_currency -->
<g id="node12" class="node">
<title>iso4217_currency</title>
<path fill="#f8fafc" stroke="#334155" d="M457,-115C457,-115 370,-115 370,-115 364,-115 358,-109 358,-103 358,-103 358,-91 358,-91 358,-85 364,-79 370,-79 370,-79 457,-79 457,-79 463,-79 469,-85 469,-91 469,-91 469,-103 469,-103 469,-109 463,-115 457,-115"/>
<text text-anchor="middle" x="413.5" y="-94.2" font-family="Helvetica,sans-Serif" font-size="11.00">iso4217_currency</text>
</g>
<!-- iso4217_currency&#45;&gt;listing -->
<g id="edge21" class="edge">
<title>iso4217_currency&#45;&gt;listing</title>
<path fill="none" stroke="#64748b" d="M441.33,-115.19C458.09,-125.73 480.5,-138.39 502,-146 587.27,-176.19 861.77,-213.38 957.61,-225.77"/>
<polygon fill="#64748b" stroke="#64748b" points="957.47,-228.22 964.73,-226.68 958.1,-223.36 957.47,-228.22"/>
<text text-anchor="middle" x="671" y="-193.6" font-family="Helvetica,sans-Serif" font-size="8.00">fk_listing_currency</text>
</g>
<!-- iso4217_currency&#45;&gt;security -->
<g id="edge22" class="edge">
<title>iso4217_currency&#45;&gt;security</title>
<path fill="none" stroke="#64748b" d="M469.38,-84.51C480.15,-82.4 491.39,-80.43 502,-79 547.24,-72.89 599.81,-70.14 633.93,-68.93"/>
<polygon fill="#64748b" stroke="#64748b" points="634.43,-71.36 641.34,-68.68 634.27,-66.47 634.43,-71.36"/>
<text text-anchor="middle" x="543.5" y="-81.6" font-family="Helvetica,sans-Serif" font-size="8.00">fk_security_currency</text>
</g>
<!-- issuer&#45;&gt;issuer_classification -->
<g id="edge23" class="edge">
<title>issuer&#45;&gt;issuer_classification</title>
<path fill="none" stroke="#64748b" d="M415.39,-695.36C422.2,-826.58 471.5,-1617 670,-1617 670,-1617 670,-1617 1325.5,-1617 1464.76,-1617 1579.83,-1463.72 1619.85,-1403.18"/>
<polygon fill="#64748b" stroke="#64748b" points="1621.93,-1404.48 1623.7,-1397.28 1617.82,-1401.8 1621.93,-1404.48"/>
<text text-anchor="middle" x="992" y="-1619.6" font-family="Helvetica,sans-Serif" font-size="8.00">fk_issuer_class_issuer</text>
</g>
<!-- issuer&#45;&gt;issuer_identifier -->
<g id="edge24" class="edge">
<title>issuer&#45;&gt;issuer_identifier</title>
<path fill="none" stroke="#64748b" d="M440.57,-676.21C512.8,-673.76 721.49,-664.89 893,-640 906.34,-638.06 920.59,-635.37 933.97,-632.57"/>
<polygon fill="#64748b" stroke="#64748b" points="934.54,-634.95 940.87,-631.09 933.52,-630.16 934.54,-634.95"/>
<text text-anchor="middle" x="671" y="-669.6" font-family="Helvetica,sans-Serif" font-size="8.00">fk_issuer_identifier_issuer</text>
</g>
<!-- issuer&#45;&gt;issuer_name_history -->
<g id="edge25" class="edge">
<title>issuer&#45;&gt;issuer_name_history</title>
<path fill="none" stroke="#64748b" d="M413.95,-695.28C412.56,-779.01 419.14,-1128 618,-1270 717.53,-1341.07 872.14,-1289.36 947.18,-1256.92"/>
<polygon fill="#64748b" stroke="#64748b" points="948.32,-1259.09 953.75,-1254.04 946.35,-1254.61 948.32,-1259.09"/>
<text text-anchor="middle" x="671" y="-1306.6" font-family="Helvetica,sans-Serif" font-size="8.00">fk_issuer_name_issuer</text>
</g>
<!-- provider_evidence -->
<g id="node20" class="node">
<title>provider_evidence</title>
<path fill="#f8fafc" stroke="#334155" d="M1681.5,-374C1681.5,-374 1590.5,-374 1590.5,-374 1584.5,-374 1578.5,-368 1578.5,-362 1578.5,-362 1578.5,-350 1578.5,-350 1578.5,-344 1584.5,-338 1590.5,-338 1590.5,-338 1681.5,-338 1681.5,-338 1687.5,-338 1693.5,-344 1693.5,-350 1693.5,-350 1693.5,-362 1693.5,-362 1693.5,-368 1687.5,-374 1681.5,-374"/>
<text text-anchor="middle" x="1636" y="-353.2" font-family="Helvetica,sans-Serif" font-size="11.00">provider_evidence</text>
</g>
<!-- issuer&#45;&gt;provider_evidence -->
<g id="edge26" class="edge">
<title>issuer&#45;&gt;provider_evidence</title>
<path fill="none" stroke="#64748b" d="M415.77,-695.13C421.87,-778.73 450.04,-1126.9 502,-1221 657.68,-1502.94 925.78,-1429.43 1222,-1303 1598.43,-1142.33 1631.93,-515.69 1634.76,-381.42"/>
<polygon fill="#64748b" stroke="#64748b" points="1637.22,-381.38 1634.89,-374.34 1632.32,-381.29 1637.22,-381.38"/>
<text text-anchor="middle" x="992" y="-1404.6" font-family="Helvetica,sans-Serif" font-size="8.00">fk_provider_evidence_issuer</text>
</g>
<!-- issuer&#45;&gt;security -->
<g id="edge27" class="edge">
<title>issuer&#45;&gt;security</title>
<path fill="none" stroke="#64748b" d="M417.33,-658.99C430.88,-573.12 488.99,-208.57 502,-188 533.96,-137.45 595.62,-101.82 634.69,-83.13"/>
<polygon fill="#64748b" stroke="#64748b" points="635.94,-85.25 641.24,-80.06 633.86,-80.82 635.94,-85.25"/>
<text text-anchor="middle" x="543.5" y="-190.6" font-family="Helvetica,sans-Serif" font-size="8.00">fk_security_issuer</text>
</g>
<!-- issuer&#45;&gt;security_event -->
<g id="edge28" class="edge">
<title>issuer&#45;&gt;security_event</title>
<path fill="none" stroke="#64748b" d="M426.29,-658.65C464.98,-600.38 594.96,-419.68 757,-357 849.18,-321.34 1145.83,-341.06 1269.05,-351.18"/>
<polygon fill="#64748b" stroke="#64748b" points="1269.02,-353.64 1276.2,-351.77 1269.43,-348.75 1269.02,-353.64"/>
<text text-anchor="middle" x="825" y="-359.6" font-family="Helvetica,sans-Serif" font-size="8.00">fk_security_event_issuer</text>
</g>
<!-- listing&#45;&gt;listing_symbol_history -->
<g id="edge29" class="edge">
<title>listing&#45;&gt;listing_symbol_history</title>
<path fill="none" stroke="#64748b" d="M1001.84,-248.05C1047.74,-341.8 1258.79,-772.85 1311.53,-880.56"/>
<polygon fill="#64748b" stroke="#64748b" points="1309.35,-881.68 1314.63,-886.89 1313.75,-879.53 1309.35,-881.68"/>
<text text-anchor="middle" x="1156.5" y="-688.6" font-family="Helvetica,sans-Serif" font-size="8.00">fk_listing_symbol_listing</text>
</g>
<!-- listing&#45;&gt;provider_evidence -->
<g id="edge30" class="edge">
<title>listing&#45;&gt;provider_evidence</title>
<path fill="none" stroke="#64748b" d="M1019.26,-231.74C1061.99,-234.83 1149.13,-242.17 1222,-255 1347.08,-277.02 1490.59,-315.07 1571.25,-337.65"/>
<polygon fill="#64748b" stroke="#64748b" points="1570.98,-340.12 1578.38,-339.65 1572.3,-335.4 1570.98,-340.12"/>
<text text-anchor="middle" x="1324.5" y="-293.6" font-family="Helvetica,sans-Serif" font-size="8.00">fk_provider_evidence_listing</text>
</g>
<!-- listing&#45;&gt;security_event -->
<g id="edge31" class="edge">
<title>listing&#45;&gt;security_event</title>
<path fill="none" stroke="#64748b" d="M1019.19,-239.45C1061.83,-254.89 1148.85,-286.66 1222,-315 1238.59,-321.43 1256.62,-328.64 1272.82,-335.2"/>
<polygon fill="#64748b" stroke="#64748b" points="1272.24,-337.61 1279.64,-337.97 1274.08,-333.06 1272.24,-337.61"/>
<text text-anchor="middle" x="1156.5" y="-317.6" font-family="Helvetica,sans-Serif" font-size="8.00">fk_security_event_listing</text>
</g>
<!-- provider -->
<g id="node19" class="node">
<title>provider</title>
<path fill="#f8fafc" stroke="#334155" d="M689,-871C689,-871 653,-871 653,-871 647,-871 641,-865 641,-859 641,-859 641,-847 641,-847 641,-841 647,-835 653,-835 653,-835 689,-835 689,-835 695,-835 701,-841 701,-847 701,-847 701,-859 701,-859 701,-865 695,-871 689,-871"/>
<text text-anchor="middle" x="671" y="-850.2" font-family="Helvetica,sans-Serif" font-size="11.00">provider</text>
</g>
<!-- provider&#45;&gt;classification_system -->
<g id="edge32" class="edge">
<title>provider&#45;&gt;classification_system</title>
<path fill="none" stroke="#64748b" d="M679.96,-871.29C692.55,-898.16 719.52,-948.24 757,-977 807.85,-1016.03 833.59,-1000.93 893,-1025 910.92,-1032.26 930.34,-1040.99 947.12,-1048.82"/>
<polygon fill="#64748b" stroke="#64748b" points="946.28,-1051.13 953.66,-1051.88 948.36,-1046.69 946.28,-1051.13"/>
<text text-anchor="middle" x="825" y="-1027.6" font-family="Helvetica,sans-Serif" font-size="8.00">fk_classification_system_provider</text>
</g>
<!-- provider&#45;&gt;exchange_alias -->
<g id="edge33" class="edge">
<title>provider&#45;&gt;exchange_alias</title>
<path fill="none" stroke="#64748b" d="M678.27,-834.69C688.23,-805.46 708.16,-746.4 724,-696 739.43,-646.9 718.85,-619.55 757,-585 782.67,-561.75 874.87,-549.66 935.58,-544.08"/>
<polygon fill="#64748b" stroke="#64748b" points="936.07,-546.5 942.83,-543.43 935.64,-541.62 936.07,-546.5"/>
<text text-anchor="middle" x="825" y="-587.6" font-family="Helvetica,sans-Serif" font-size="8.00">fk_exchange_alias_provider</text>
</g>
<!-- provider&#45;&gt;issuer_classification -->
<g id="edge34" class="edge">
<title>provider&#45;&gt;issuer_classification</title>
<path fill="none" stroke="#64748b" d="M673.19,-871.06C677.06,-915.05 693.05,-1028.69 757,-1091 772.31,-1105.92 1371.2,-1295.78 1570.93,-1358.81"/>
<polygon fill="#64748b" stroke="#64748b" points="1570.45,-1361.23 1577.86,-1361 1571.92,-1356.56 1570.45,-1361.23"/>
<text text-anchor="middle" x="1156.5" y="-1246.6" font-family="Helvetica,sans-Serif" font-size="8.00">fk_issuer_class_provider</text>
</g>
<!-- provider&#45;&gt;issuer_identifier -->
<g id="edge35" class="edge">
<title>provider&#45;&gt;issuer_identifier</title>
<path fill="none" stroke="#64748b" d="M682.32,-834.83C696.38,-811.59 723.66,-771.54 757,-748 809.36,-711.03 837.97,-732.88 893,-700 910.02,-689.83 910.86,-682.79 926,-670 937.38,-660.38 950.23,-650.17 961.48,-641.43"/>
<polygon fill="#64748b" stroke="#64748b" points="963.16,-643.23 967.2,-637.01 960.17,-639.35 963.16,-643.23"/>
<text text-anchor="middle" x="825" y="-750.6" font-family="Helvetica,sans-Serif" font-size="8.00">fk_issuer_identifier_provider</text>
</g>
<!-- provider&#45;&gt;issuer_name_history -->
<g id="edge36" class="edge">
<title>provider&#45;&gt;issuer_name_history</title>
<path fill="none" stroke="#64748b" d="M671.87,-871.34C672.5,-922.31 681.24,-1067.22 757,-1149 799.78,-1195.17 869.33,-1216.96 921.51,-1227.17"/>
<polygon fill="#64748b" stroke="#64748b" points="921.09,-1229.58 928.43,-1228.47 922,-1224.77 921.09,-1229.58"/>
<text text-anchor="middle" x="825" y="-1222.6" font-family="Helvetica,sans-Serif" font-size="8.00">fk_issuer_name_provider</text>
</g>
<!-- provider&#45;&gt;listing_symbol_history -->
<g id="edge37" class="edge">
<title>provider&#45;&gt;listing_symbol_history</title>
<path fill="none" stroke="#64748b" d="M701.26,-855.34C797.5,-863.02 1106.23,-887.66 1249.35,-899.08"/>
<polygon fill="#64748b" stroke="#64748b" points="1249.29,-901.53 1256.46,-899.65 1249.68,-896.65 1249.29,-901.53"/>
<text text-anchor="middle" x="992" y="-885.6" font-family="Helvetica,sans-Serif" font-size="8.00">fk_listing_symbol_provider</text>
</g>
<!-- provider_observation -->
<g id="node21" class="node">
<title>provider_observation</title>
<path fill="#f8fafc" stroke="#334155" d="M1210,-800C1210,-800 1103,-800 1103,-800 1097,-800 1091,-794 1091,-788 1091,-788 1091,-776 1091,-776 1091,-770 1097,-764 1103,-764 1103,-764 1210,-764 1210,-764 1216,-764 1222,-770 1222,-776 1222,-776 1222,-788 1222,-788 1222,-794 1216,-800 1210,-800"/>
<text text-anchor="middle" x="1156.5" y="-779.2" font-family="Helvetica,sans-Serif" font-size="11.00">provider_observation</text>
</g>
<!-- provider&#45;&gt;provider_observation -->
<g id="edge38" class="edge">
<title>provider&#45;&gt;provider_observation</title>
<path fill="none" stroke="#64748b" d="M701.16,-848.72C775.87,-837.75 975.9,-808.37 1083.93,-792.51"/>
<polygon fill="#64748b" stroke="#64748b" points="1084.34,-794.93 1090.91,-791.48 1083.63,-790.08 1084.34,-794.93"/>
<text text-anchor="middle" x="825" y="-842.6" font-family="Helvetica,sans-Serif" font-size="8.00">fk_provider_observation_provider</text>
</g>
<!-- provider&#45;&gt;security_event -->
<g id="edge39" class="edge">
<title>provider&#45;&gt;security_event</title>
<path fill="none" stroke="#64748b" d="M701.25,-837.03C717.35,-828.72 737.89,-818.89 757,-812 807.07,-793.95 1183.49,-733.74 1222,-697 1233.88,-685.67 1296.05,-457.89 1316.77,-381.06"/>
<polygon fill="#64748b" stroke="#64748b" points="1319.19,-381.5 1318.65,-374.11 1314.46,-380.23 1319.19,-381.5"/>
<text text-anchor="middle" x="992" y="-776.6" font-family="Helvetica,sans-Serif" font-size="8.00">fk_security_event_provider</text>
</g>
<!-- provider&#45;&gt;security_identifier -->
<g id="edge40" class="edge">
<title>provider&#45;&gt;security_identifier</title>
<path fill="none" stroke="#64748b" d="M678.83,-834.85C689.55,-805.84 710.52,-747.08 724,-696 743.2,-623.27 706.27,-585.54 757,-530 768.82,-517.06 863.12,-492.02 928.34,-475.93"/>
<polygon fill="#64748b" stroke="#64748b" points="929.14,-478.26 935.35,-474.21 927.97,-473.5 929.14,-478.26"/>
<text text-anchor="middle" x="825" y="-532.6" font-family="Helvetica,sans-Serif" font-size="8.00">fk_security_identifier_provider</text>
</g>
<!-- provider_observation&#45;&gt;provider_evidence -->
<g id="edge41" class="edge">
<title>provider_observation&#45;&gt;provider_evidence</title>
<path fill="none" stroke="#64748b" d="M1206.41,-763.84C1211.82,-761.16 1217.13,-758.2 1222,-755 1395.78,-640.57 1560.7,-447.54 1615.71,-380.11"/>
<polygon fill="#64748b" stroke="#64748b" points="1617.88,-381.33 1620.39,-374.35 1614.07,-378.24 1617.88,-381.33"/>
<text text-anchor="middle" x="1324.5" y="-731.6" font-family="Helvetica,sans-Serif" font-size="8.00">fk_provider_evidence_observation</text>
</g>
<!-- security&#45;&gt;listing -->
<g id="edge42" class="edge">
<title>security&#45;&gt;listing</title>
<path fill="none" stroke="#64748b" d="M700.7,-75.22C752.61,-88.57 859.81,-117.51 893,-137 924.19,-155.32 953.37,-185.31 971.64,-206.27"/>
<polygon fill="#64748b" stroke="#64748b" points="969.85,-207.95 976.27,-211.66 973.56,-204.75 969.85,-207.95"/>
<text text-anchor="middle" x="825" y="-139.6" font-family="Helvetica,sans-Serif" font-size="8.00">fk_listing_security</text>
</g>
<!-- security&#45;&gt;provider_evidence -->
<g id="edge43" class="edge">
<title>security&#45;&gt;provider_evidence</title>
<path fill="none" stroke="#64748b" d="M700.68,-64.77C742.9,-60.54 824.22,-54.39 893,-61 1197.05,-90.21 1272.9,-143.63 1541,-290 1564.12,-302.62 1588.4,-319.78 1606.49,-333.45"/>
<polygon fill="#64748b" stroke="#64748b" points="1605.33,-335.64 1612.38,-337.93 1608.3,-331.74 1605.33,-335.64"/>
<text text-anchor="middle" x="1156.5" y="-128.6" font-family="Helvetica,sans-Serif" font-size="8.00">fk_provider_evidence_security</text>
</g>
<!-- security&#45;&gt;security_event -->
<g id="edge44" class="edge">
<title>security&#45;&gt;security_event</title>
<path fill="none" stroke="#64748b" d="M700.53,-67.93C743.23,-68.53 825.95,-72.42 893,-92 1049.64,-137.74 1102.07,-144.34 1222,-255 1242.95,-274.33 1235.36,-289.34 1255,-310 1263.5,-318.94 1274.03,-327.07 1284.26,-333.92"/>
<polygon fill="#64748b" stroke="#64748b" points="1283.03,-336.05 1290.24,-337.81 1285.7,-331.94 1283.03,-336.05"/>
<text text-anchor="middle" x="992" y="-144.6" font-family="Helvetica,sans-Serif" font-size="8.00">fk_security_event_security</text>
</g>
<!-- security&#45;&gt;security_identifier -->
<g id="edge45" class="edge">
<title>security&#45;&gt;security_identifier</title>
<path fill="none" stroke="#64748b" d="M695.65,-86.11C705.75,-95 716.85,-106.48 724,-119 754.22,-171.88 716.05,-206.92 757,-252 800.1,-299.45 843.23,-259.61 893,-300 938.5,-336.92 968.3,-400.96 982.09,-436.12"/>
<polygon fill="#64748b" stroke="#64748b" points="979.84,-437.09 984.64,-442.75 984.42,-435.34 979.84,-437.09"/>
<text text-anchor="middle" x="825" y="-302.6" font-family="Helvetica,sans-Serif" font-size="8.00">fk_security_identifier_security</text>
</g>
<!-- security_event&#45;&gt;provider_evidence -->
<g id="edge46" class="edge">
<title>security_event&#45;&gt;provider_evidence</title>
<path fill="none" stroke="#64748b" d="M1372.51,-356C1425.56,-356 1512.16,-356 1571.27,-356"/>
<polygon fill="#64748b" stroke="#64748b" points="1571.34,-358.45 1578.34,-356 1571.34,-353.55 1571.34,-358.45"/>
<text text-anchor="middle" x="1484" y="-358.6" font-family="Helvetica,sans-Serif" font-size="8.00">fk_provider_evidence_event</text>
</g>
<!-- stg_iso10383_mic -->
<g id="node25" class="node">
<title>stg_iso10383_mic</title>
<path fill="#f8fafc" stroke="#334155" d="M135.5,-404C135.5,-404 48.5,-404 48.5,-404 42.5,-404 36.5,-398 36.5,-392 36.5,-392 36.5,-380 36.5,-380 36.5,-374 42.5,-368 48.5,-368 48.5,-368 135.5,-368 135.5,-368 141.5,-368 147.5,-374 147.5,-380 147.5,-380 147.5,-392 147.5,-392 147.5,-398 141.5,-404 135.5,-404"/>
<text text-anchor="middle" x="92" y="-383.2" font-family="Helvetica,sans-Serif" font-size="11.00">stg_iso10383_mic</text>
</g>
<!-- stg_iso3166_country -->
<g id="node26" class="node">
<title>stg_iso3166_country</title>
<path fill="#f8fafc" stroke="#334155" d="M143.5,-483C143.5,-483 40.5,-483 40.5,-483 34.5,-483 28.5,-477 28.5,-471 28.5,-471 28.5,-459 28.5,-459 28.5,-453 34.5,-447 40.5,-447 40.5,-447 143.5,-447 143.5,-447 149.5,-447 155.5,-453 155.5,-459 155.5,-459 155.5,-471 155.5,-471 155.5,-477 149.5,-483 143.5,-483"/>
<text text-anchor="middle" x="92" y="-462.2" font-family="Helvetica,sans-Serif" font-size="11.00">stg_iso3166_country</text>
</g>
<!-- stg_iso4217_currency -->
<g id="node27" class="node">
<title>stg_iso4217_currency</title>
<path fill="#f8fafc" stroke="#334155" d="M146.5,-562C146.5,-562 37.5,-562 37.5,-562 31.5,-562 25.5,-556 25.5,-550 25.5,-550 25.5,-538 25.5,-538 25.5,-532 31.5,-526 37.5,-526 37.5,-526 146.5,-526 146.5,-526 152.5,-526 158.5,-532 158.5,-538 158.5,-538 158.5,-550 158.5,-550 158.5,-556 152.5,-562 146.5,-562"/>
<text text-anchor="middle" x="92" y="-541.2" font-family="Helvetica,sans-Serif" font-size="11.00">stg_iso4217_currency</text>
</g>
<!-- stg_sec_sic_classification_code -->
<g id="node28" class="node">
<title>stg_sec_sic_classification_code</title>
<path fill="#f8fafc" stroke="#334155" d="M172,-641C172,-641 12,-641 12,-641 6,-641 0,-635 0,-629 0,-629 0,-617 0,-617 0,-611 6,-605 12,-605 12,-605 172,-605 172,-605 178,-605 184,-611 184,-617 184,-617 184,-629 184,-629 184,-635 178,-641 172,-641"/>
<text text-anchor="middle" x="92" y="-620.2" font-family="Helvetica,sans-Serif" font-size="11.00">stg_sec_sic_classification_code</text>
</g>
</g>
</svg>
