<?xml version="1.0" encoding="UTF-8" standalone="no"?>
<!DOCTYPE svg PUBLIC "-//W3C//DTD SVG 1.1//EN"
 "http://www.w3.org/Graphics/SVG/1.1/DTD/svg11.dtd">
<!-- Generated by graphviz version 2.42.4 (0)
 -->
<!-- Title: schema_relations Pages: 1 -->
<svg width="2861pt" height="2960pt"
 viewBox="0.00 0.00 2861.00 2959.74" xmlns="http://www.w3.org/2000/svg" xmlns:xlink="http://www.w3.org/1999/xlink">
<g id="graph0" class="graph" transform="scale(1 1) rotate(0) translate(18 2941.74)">
<title>schema_relations</title>
<!-- classification_code -->
<g id="node1" class="node">
<title>classification_code</title>
<path fill="#f8fafc" stroke="#334155" d="M1654,-2611.74C1654,-2611.74 1561,-2611.74 1561,-2611.74 1555,-2611.74 1549,-2605.74 1549,-2599.74 1549,-2599.74 1549,-2587.74 1549,-2587.74 1549,-2581.74 1555,-2575.74 1561,-2575.74 1561,-2575.74 1654,-2575.74 1654,-2575.74 1660,-2575.74 1666,-2581.74 1666,-2587.74 1666,-2587.74 1666,-2599.74 1666,-2599.74 1666,-2605.74 1660,-2611.74 1654,-2611.74"/>
<text text-anchor="middle" x="1607.5" y="-2590.94" font-family="Helvetica,sans-Serif" font-size="11.00">classification_code</text>
</g>
<!-- issuer_classification -->
<g id="node14" class="node">
<title>issuer_classification</title>
<path fill="#f8fafc" stroke="#334155" d="M2181,-2732.74C2181,-2732.74 2081,-2732.74 2081,-2732.74 2075,-2732.74 2069,-2726.74 2069,-2720.74 2069,-2720.74 2069,-2708.74 2069,-2708.74 2069,-2702.74 2075,-2696.74 2081,-2696.74 2081,-2696.74 2181,-2696.74 2181,-2696.74 2187,-2696.74 2193,-2702.74 2193,-2708.74 2193,-2708.74 2193,-2720.74 2193,-2720.74 2193,-2726.74 2187,-2732.74 2181,-2732.74"/>
<text text-anchor="middle" x="2131" y="-2711.94" font-family="Helvetica,sans-Serif" font-size="11.00">issuer_classification</text>
</g>
<!-- classification_code&#45;&gt;issuer_classification -->
<g id="edge1" class="edge">
<title>classification_code&#45;&gt;issuer_classification</title>
<path fill="none" stroke="#64748b" d="M1666.3,-2607.16C1763.26,-2629.65 1958.18,-2674.88 2061.73,-2698.9"/>
<polygon fill="#64748b" stroke="#64748b" points="2061.34,-2701.33 2068.72,-2700.52 2062.45,-2696.56 2061.34,-2701.33"/>
<text text-anchor="middle" x="1836" y="-2667.34" font-family="Helvetica,sans-Serif" font-size="8.00">fk_issuer_class_code</text>
</g>
<!-- classification_system -->
<g id="node2" class="node">
<title>classification_system</title>
<path fill="#f8fafc" stroke="#334155" d="M1162,-2592.74C1162,-2592.74 1054,-2592.74 1054,-2592.74 1048,-2592.74 1042,-2586.74 1042,-2580.74 1042,-2580.74 1042,-2568.74 1042,-2568.74 1042,-2562.74 1048,-2556.74 1054,-2556.74 1054,-2556.74 1162,-2556.74 1162,-2556.74 1168,-2556.74 1174,-2562.74 1174,-2568.74 1174,-2568.74 1174,-2580.74 1174,-2580.74 1174,-2586.74 1168,-2592.74 1162,-2592.74"/>
<text text-anchor="middle" x="1108" y="-2571.94" font-family="Helvetica,sans-Serif" font-size="11.00">classification_system</text>
</g>
<!-- classification_system&#45;&gt;classification_code -->
<g id="edge2" class="edge">
<title>classification_system&#45;&gt;classification_code</title>
<path fill="none" stroke="#64748b" d="M1174.04,-2577.23C1269.5,-2580.87 1446.51,-2587.63 1541.78,-2591.27"/>
<polygon fill="#64748b" stroke="#64748b" points="1541.69,-2593.72 1548.78,-2591.54 1541.88,-2588.82 1541.69,-2593.72"/>
<text text-anchor="middle" x="1352.5" y="-2590.34" font-family="Helvetica,sans-Serif" font-size="8.00">fk_classification_code_system</text>
</g>
<!-- confidence_level -->
<g id="node3" class="node">
<title>confidence_level</title>
<path fill="#f8fafc" stroke="#334155" d="M730.5,-1786.74C730.5,-1786.74 649.5,-1786.74 649.5,-1786.74 643.5,-1786.74 637.5,-1780.74 637.5,-1774.74 637.5,-1774.74 637.5,-1762.74 637.5,-1762.74 637.5,-1756.74 643.5,-1750.74 649.5,-1750.74 649.5,-1750.74 730.5,-1750.74 730.5,-1750.74 736.5,-1750.74 742.5,-1756.74 742.5,-1762.74 742.5,-1762.74 742.5,-1774.74 742.5,-1774.74 742.5,-1780.74 736.5,-1786.74 730.5,-1786.74"/>
<text text-anchor="middle" x="690" y="-1765.94" font-family="Helvetica,sans-Serif" font-size="11.00">confidence_level</text>
</g>
<!-- confidence_level&#45;&gt;issuer_classification -->
<g id="edge3" class="edge">
<title>confidence_level&#45;&gt;issuer_classification</title>
<path fill="none" stroke="#64748b" d="M742.56,-1782.71C750.04,-1786.78 756.92,-1792.01 762,-1798.74 834.81,-1895.25 715.96,-1977.27 795,-2068.74 852.24,-2134.99 922.42,-2059.52 985,-2120.74 1021.79,-2156.74 977.64,-2199.81 1018,-2231.74 1336.74,-2483.93 1595,-2055.07 1931,-2283.74 2075.26,-2381.92 2117.02,-2612.52 2127.15,-2689.34"/>
<polygon fill="#64748b" stroke="#64748b" points="2124.77,-2690.06 2128.08,-2696.7 2129.63,-2689.45 2124.77,-2690.06"/>
<text text-anchor="middle" x="1352.5" y="-2316.34" font-family="Helvetica,sans-Serif" font-size="8.00">fk_issuer_class_confidence</text>
</g>
<!-- issuer_identifier -->
<g id="node15" class="node">
<title>issuer_identifier</title>
<path fill="#f8fafc" stroke="#334155" d="M1147,-1923.74C1147,-1923.74 1069,-1923.74 1069,-1923.74 1063,-1923.74 1057,-1917.74 1057,-1911.74 1057,-1911.74 1057,-1899.74 1057,-1899.74 1057,-1893.74 1063,-1887.74 1069,-1887.74 1069,-1887.74 1147,-1887.74 1147,-1887.74 1153,-1887.74 1159,-1893.74 1159,-1899.74 1159,-1899.74 1159,-1911.74 1159,-1911.74 1159,-1917.74 1153,-1923.74 1147,-1923.74"/>
<text text-anchor="middle" x="1108" y="-1902.94" font-family="Helvetica,sans-Serif" font-size="11.00">issuer_identifier</text>
</g>
<!-- confidence_level&#45;&gt;issuer_identifier -->
<g id="edge4" class="edge">
<title>confidence_level&#45;&gt;issuer_identifier</title>
<path fill="none" stroke="#64748b" d="M742.65,-1780.45C820.82,-1798.29 962.48,-1831.1 985,-1839.74 1001.74,-1846.17 1040.28,-1867.45 1069.6,-1884.13"/>
<polygon fill="#64748b" stroke="#64748b" points="1068.41,-1886.27 1075.71,-1887.61 1070.84,-1882.02 1068.41,-1886.27"/>
<text text-anchor="middle" x="890" y="-1842.34" font-family="Helvetica,sans-Serif" font-size="8.00">fk_issuer_identifier_confidence</text>
</g>
<!-- issuer_name_history -->
<g id="node16" class="node">
<title>issuer_name_history</title>
<path fill="#f8fafc" stroke="#334155" d="M1159.5,-1749.74C1159.5,-1749.74 1056.5,-1749.74 1056.5,-1749.74 1050.5,-1749.74 1044.5,-1743.74 1044.5,-1737.74 1044.5,-1737.74 1044.5,-1725.74 1044.5,-1725.74 1044.5,-1719.74 1050.5,-1713.74 1056.5,-1713.74 1056.5,-1713.74 1159.5,-1713.74 1159.5,-1713.74 1165.5,-1713.74 1171.5,-1719.74 1171.5,-1725.74 1171.5,-1725.74 1171.5,-1737.74 1171.5,-1737.74 1171.5,-1743.74 1165.5,-1749.74 1159.5,-1749.74"/>
<text text-anchor="middle" x="1108" y="-1728.94" font-family="Helvetica,sans-Serif" font-size="11.00">issuer_name_history</text>
</g>
<!-- confidence_level&#45;&gt;issuer_name_history -->
<g id="edge5" class="edge">
<title>confidence_level&#45;&gt;issuer_name_history</title>
<path fill="none" stroke="#64748b" d="M734.49,-1750.67C752.83,-1743.96 774.61,-1737.15 795,-1733.74 877.31,-1719.99 973.55,-1722.07 1037.14,-1725.9"/>
<polygon fill="#64748b" stroke="#64748b" points="1037.21,-1728.36 1044.34,-1726.35 1037.51,-1723.47 1037.21,-1728.36"/>
<text text-anchor="middle" x="890" y="-1736.34" font-family="Helvetica,sans-Serif" font-size="8.00">fk_issuer_name_confidence</text>
</g>
<!-- listing_symbol_history -->
<g id="node18" class="node">
<title>listing_symbol_history</title>
<path fill="#f8fafc" stroke="#334155" d="M1663.5,-1853.74C1663.5,-1853.74 1551.5,-1853.74 1551.5,-1853.74 1545.5,-1853.74 1539.5,-1847.74 1539.5,-1841.74 1539.5,-1841.74 1539.5,-1829.74 1539.5,-1829.74 1539.5,-1823.74 1545.5,-1817.74 1551.5,-1817.74 1551.5,-1817.74 1663.5,-1817.74 1663.5,-1817.74 1669.5,-1817.74 1675.5,-1823.74 1675.5,-1829.74 1675.5,-1829.74 1675.5,-1841.74 1675.5,-1841.74 1675.5,-1847.74 1669.5,-1853.74 1663.5,-1853.74"/>
<text text-anchor="middle" x="1607.5" y="-1832.94" font-family="Helvetica,sans-Serif" font-size="11.00">listing_symbol_history</text>
</g>
<!-- confidence_level&#45;&gt;listing_symbol_history -->
<g id="edge6" class="edge">
<title>confidence_level&#45;&gt;listing_symbol_history</title>
<path fill="none" stroke="#64748b" d="M742.51,-1772.51C896.24,-1783.76 1352.16,-1817.13 1532.18,-1830.3"/>
<polygon fill="#64748b" stroke="#64748b" points="1532.09,-1832.75 1539.25,-1830.82 1532.45,-1827.87 1532.09,-1832.75"/>
<text text-anchor="middle" x="1108" y="-1807.34" font-family="Helvetica,sans-Serif" font-size="8.00">fk_listing_symbol_confidence</text>
</g>
<!-- security_event -->
<g id="node27" class="node">
<title>security_event</title>
<path fill="#f8fafc" stroke="#334155" d="M1643.5,-1374.74C1643.5,-1374.74 1571.5,-1374.74 1571.5,-1374.74 1565.5,-1374.74 1559.5,-1368.74 1559.5,-1362.74 1559.5,-1362.74 1559.5,-1350.74 1559.5,-1350.74 1559.5,-1344.74 1565.5,-1338.74 1571.5,-1338.74 1571.5,-1338.74 1643.5,-1338.74 1643.5,-1338.74 1649.5,-1338.74 1655.5,-1344.74 1655.5,-1350.74 1655.5,-1350.74 1655.5,-1362.74 1655.5,-1362.74 1655.5,-1368.74 1649.5,-1374.74 1643.5,-1374.74"/>
<text text-anchor="middle" x="1607.5" y="-1353.94" font-family="Helvetica,sans-Serif" font-size="11.00">security_event</text>
</g>
<!-- confidence_level&#45;&gt;security_event -->
<g id="edge7" class="edge">
<title>confidence_level&#45;&gt;security_event</title>
<path fill="none" stroke="#64748b" d="M724.14,-1750.63C744.52,-1739.56 771.19,-1725.18 795,-1712.74 893.48,-1661.29 913.7,-1638.03 1018,-1599.74 1213.61,-1527.94 1292.43,-1592.98 1474,-1490.74 1523.44,-1462.9 1566.71,-1411.28 1589.47,-1380.88"/>
<polygon fill="#64748b" stroke="#64748b" points="1591.56,-1382.18 1593.75,-1375.1 1587.62,-1379.27 1591.56,-1382.18"/>
<text text-anchor="middle" x="1108" y="-1602.34" font-family="Helvetica,sans-Serif" font-size="8.00">fk_security_event_confidence</text>
</g>
<!-- security_identifier -->
<g id="node28" class="node">
<title>security_identifier</title>
<path fill="#f8fafc" stroke="#334155" d="M1152.5,-2002.74C1152.5,-2002.74 1063.5,-2002.74 1063.5,-2002.74 1057.5,-2002.74 1051.5,-1996.74 1051.5,-1990.74 1051.5,-1990.74 1051.5,-1978.74 1051.5,-1978.74 1051.5,-1972.74 1057.5,-1966.74 1063.5,-1966.74 1063.5,-1966.74 1152.5,-1966.74 1152.5,-1966.74 1158.5,-1966.74 1164.5,-1972.74 1164.5,-1978.74 1164.5,-1978.74 1164.5,-1990.74 1164.5,-1990.74 1164.5,-1996.74 1158.5,-2002.74 1152.5,-2002.74"/>
<text text-anchor="middle" x="1108" y="-1981.94" font-family="Helvetica,sans-Serif" font-size="11.00">security_identifier</text>
</g>
<!-- confidence_level&#45;&gt;security_identifier -->
<g id="edge8" class="edge">
<title>confidence_level&#45;&gt;security_identifier</title>
<path fill="none" stroke="#64748b" d="M717.96,-1786.92C731.67,-1796.64 748.28,-1809.17 762,-1821.74 778.24,-1836.63 776.98,-1846.06 795,-1858.74 837.09,-1888.36 969.02,-1936.89 1047.2,-1964.27"/>
<polygon fill="#64748b" stroke="#64748b" points="1046.71,-1966.7 1054.12,-1966.69 1048.32,-1962.07 1046.71,-1966.7"/>
<text text-anchor="middle" x="890" y="-1943.34" font-family="Helvetica,sans-Serif" font-size="8.00">fk_security_identifier_confidence</text>
</g>
<!-- security_reconciliation_evaluation -->
<g id="node30" class="node">
<title>security_reconciliation_evaluation</title>
<path fill="#f8fafc" stroke="#334155" d="M1696,-689.74C1696,-689.74 1519,-689.74 1519,-689.74 1513,-689.74 1507,-683.74 1507,-677.74 1507,-677.74 1507,-665.74 1507,-665.74 1507,-659.74 1513,-653.74 1519,-653.74 1519,-653.74 1696,-653.74 1696,-653.74 1702,-653.74 1708,-659.74 1708,-665.74 1708,-665.74 1708,-677.74 1708,-677.74 1708,-683.74 1702,-689.74 1696,-689.74"/>
<text text-anchor="middle" x="1607.5" y="-668.94" font-family="Helvetica,sans-Serif" font-size="11.00">security_reconciliation_evaluation</text>
</g>
<!-- confidence_level&#45;&gt;security_reconciliation_evaluation -->
<g id="edge9" class="edge">
<title>confidence_level&#45;&gt;security_reconciliation_evaluation</title>
<path fill="none" stroke="#64748b" d="M715.43,-1750.58C731.57,-1737.09 751.61,-1717.21 762,-1694.74 792.37,-1629.05 747.98,-1425.76 795,-1370.74 896.39,-1252.13 1374.01,-1311.54 1474,-1191.74 1534.28,-1119.53 1467.32,-855.03 1507,-769.74 1521.52,-738.53 1550.54,-711.8 1573.51,-694.18"/>
<polygon fill="#64748b" stroke="#64748b" points="1575.08,-696.06 1579.2,-689.9 1572.13,-692.14 1575.08,-696.06"/>
<text text-anchor="middle" x="1108" y="-1296.34" font-family="Helvetica,sans-Serif" font-size="8.00">fk_sec_recon_eval_confidence</text>
</g>
<!-- exchange -->
<g id="node4" class="node">
<title>exchange</title>
<path fill="#f8fafc" stroke="#334155" d="M711.5,-467.74C711.5,-467.74 668.5,-467.74 668.5,-467.74 662.5,-467.74 656.5,-461.74 656.5,-455.74 656.5,-455.74 656.5,-443.74 656.5,-443.74 656.5,-437.74 662.5,-431.74 668.5,-431.74 668.5,-431.74 711.5,-431.74 711.5,-431.74 717.5,-431.74 723.5,-437.74 723.5,-443.74 723.5,-443.74 723.5,-455.74 723.5,-455.74 723.5,-461.74 717.5,-467.74 711.5,-467.74"/>
<text text-anchor="middle" x="690" y="-446.94" font-family="Helvetica,sans-Serif" font-size="11.00">exchange</text>
</g>
<!-- exchange_alias -->
<g id="node5" class="node">
<title>exchange_alias</title>
<path fill="#f8fafc" stroke="#334155" d="M1145,-1211.74C1145,-1211.74 1071,-1211.74 1071,-1211.74 1065,-1211.74 1059,-1205.74 1059,-1199.74 1059,-1199.74 1059,-1187.74 1059,-1187.74 1059,-1181.74 1065,-1175.74 1071,-1175.74 1071,-1175.74 1145,-1175.74 1145,-1175.74 1151,-1175.74 1157,-1181.74 1157,-1187.74 1157,-1187.74 1157,-1199.74 1157,-1199.74 1157,-1205.74 1151,-1211.74 1145,-1211.74"/>
<text text-anchor="middle" x="1108" y="-1190.94" font-family="Helvetica,sans-Serif" font-size="11.00">exchange_alias</text>
</g>
<!-- exchange&#45;&gt;exchange_alias -->
<g id="edge10" class="edge">
<title>exchange&#45;&gt;exchange_alias</title>
<path fill="none" stroke="#64748b" d="M708.94,-467.81C725.47,-485.58 749.29,-514.26 762,-543.74 796.96,-624.87 765.87,-656.35 795,-739.74 862.51,-932.99 874.34,-996.92 1018,-1142.74 1029.49,-1154.41 1044.2,-1164.27 1058.34,-1172.12"/>
<polygon fill="#64748b" stroke="#64748b" points="1057.46,-1174.43 1064.79,-1175.58 1059.78,-1170.11 1057.46,-1174.43"/>
<text text-anchor="middle" x="890" y="-1103.34" font-family="Helvetica,sans-Serif" font-size="8.00">fk_exchange_alias_exchange</text>
</g>
<!-- listing -->
<g id="node17" class="node">
<title>listing</title>
<path fill="#f8fafc" stroke="#334155" d="M1123,-673.74C1123,-673.74 1093,-673.74 1093,-673.74 1087,-673.74 1081,-667.74 1081,-661.74 1081,-661.74 1081,-649.74 1081,-649.74 1081,-643.74 1087,-637.74 1093,-637.74 1093,-637.74 1123,-637.74 1123,-637.74 1129,-637.74 1135,-643.74 1135,-649.74 1135,-649.74 1135,-661.74 1135,-661.74 1135,-667.74 1129,-673.74 1123,-673.74"/>
<text text-anchor="middle" x="1108" y="-652.94" font-family="Helvetica,sans-Serif" font-size="11.00">listing</text>
</g>
<!-- exchange&#45;&gt;listing -->
<g id="edge11" class="edge">
<title>exchange&#45;&gt;listing</title>
<path fill="none" stroke="#64748b" d="M723.86,-456.07C781.41,-468.42 902.2,-500.09 985,-561.74 1004.32,-576.13 999.86,-588.89 1018,-604.74 1034.84,-619.46 1056.57,-632.01 1074.35,-640.98"/>
<polygon fill="#64748b" stroke="#64748b" points="1073.34,-643.21 1080.7,-644.12 1075.51,-638.82 1073.34,-643.21"/>
<text text-anchor="middle" x="890" y="-564.34" font-family="Helvetica,sans-Serif" font-size="8.00">fk_listing_exchange</text>
</g>
<!-- identifier_type -->
<g id="node6" class="node">
<title>identifier_type</title>
<path fill="#f8fafc" stroke="#334155" d="M724.5,-2101.74C724.5,-2101.74 655.5,-2101.74 655.5,-2101.74 649.5,-2101.74 643.5,-2095.74 643.5,-2089.74 643.5,-2089.74 643.5,-2077.74 643.5,-2077.74 643.5,-2071.74 649.5,-2065.74 655.5,-2065.74 655.5,-2065.74 724.5,-2065.74 724.5,-2065.74 730.5,-2065.74 736.5,-2071.74 736.5,-2077.74 736.5,-2077.74 736.5,-2089.74 736.5,-2089.74 736.5,-2095.74 730.5,-2101.74 724.5,-2101.74"/>
<text text-anchor="middle" x="690" y="-2080.94" font-family="Helvetica,sans-Serif" font-size="11.00">identifier_type</text>
</g>
<!-- identifier_type&#45;&gt;issuer_identifier -->
<g id="edge12" class="edge">
<title>identifier_type&#45;&gt;issuer_identifier</title>
<path fill="none" stroke="#64748b" d="M709.3,-2065.59C728.89,-2047.14 761.69,-2019.02 795,-2002.74 873.25,-1964.5 902.18,-1981.7 985,-1954.74 1009.99,-1946.61 1037.18,-1935.88 1059.53,-1926.54"/>
<polygon fill="#64748b" stroke="#64748b" points="1060.5,-1928.79 1066.01,-1923.81 1058.6,-1924.27 1060.5,-1928.79"/>
<text text-anchor="middle" x="890" y="-2005.34" font-family="Helvetica,sans-Serif" font-size="8.00">fk_issuer_identifier_type</text>
</g>
<!-- identifier_type&#45;&gt;security_identifier -->
<g id="edge13" class="edge">
<title>identifier_type&#45;&gt;security_identifier</title>
<path fill="none" stroke="#64748b" d="M736.66,-2094.3C797.02,-2105.78 905.05,-2117.62 985,-2077.74 1006.24,-2067.15 1000.04,-2051.26 1018,-2035.74 1031.09,-2024.44 1047.06,-2014.37 1061.83,-2006.22"/>
<polygon fill="#64748b" stroke="#64748b" points="1063.08,-2008.33 1068.08,-2002.86 1060.76,-2004.02 1063.08,-2008.33"/>
<text text-anchor="middle" x="890" y="-2107.34" font-family="Helvetica,sans-Serif" font-size="8.00">fk_security_identifier_type</text>
</g>
<!-- instrument_class -->
<g id="node7" class="node">
<title>instrument_class</title>
<path fill="#f8fafc" stroke="#334155" d="M134,-2152.74C134,-2152.74 50,-2152.74 50,-2152.74 44,-2152.74 38,-2146.74 38,-2140.74 38,-2140.74 38,-2128.74 38,-2128.74 38,-2122.74 44,-2116.74 50,-2116.74 50,-2116.74 134,-2116.74 134,-2116.74 140,-2116.74 146,-2122.74 146,-2128.74 146,-2128.74 146,-2140.74 146,-2140.74 146,-2146.74 140,-2152.74 134,-2152.74"/>
<text text-anchor="middle" x="92" y="-2131.94" font-family="Helvetica,sans-Serif" font-size="11.00">instrument_class</text>
</g>
<!-- instrument_type -->
<g id="node8" class="node">
<title>instrument_type</title>
<path fill="#f8fafc" stroke="#334155" d="M454,-2152.74C454,-2152.74 373,-2152.74 373,-2152.74 367,-2152.74 361,-2146.74 361,-2140.74 361,-2140.74 361,-2128.74 361,-2128.74 361,-2122.74 367,-2116.74 373,-2116.74 373,-2116.74 454,-2116.74 454,-2116.74 460,-2116.74 466,-2122.74 466,-2128.74 466,-2128.74 466,-2140.74 466,-2140.74 466,-2146.74 460,-2152.74 454,-2152.74"/>
<text text-anchor="middle" x="413.5" y="-2131.94" font-family="Helvetica,sans-Serif" font-size="11.00">instrument_type</text>
</g>
<!-- instrument_class&#45;&gt;instrument_type -->
<g id="edge14" class="edge">
<title>instrument_class&#45;&gt;instrument_type</title>
<path fill="none" stroke="#64748b" d="M146.12,-2134.74C203.41,-2134.74 294.38,-2134.74 353.76,-2134.74"/>
<polygon fill="#64748b" stroke="#64748b" points="353.85,-2137.19 360.85,-2134.74 353.85,-2132.29 353.85,-2137.19"/>
<text text-anchor="middle" x="271" y="-2137.34" font-family="Helvetica,sans-Serif" font-size="8.00">fk_instrument_type_class</text>
</g>
<!-- provider_listing -->
<g id="node22" class="node">
<title>provider_listing</title>
<path fill="#f8fafc" stroke="#334155" d="M1145.5,-2679.74C1145.5,-2679.74 1070.5,-2679.74 1070.5,-2679.74 1064.5,-2679.74 1058.5,-2673.74 1058.5,-2667.74 1058.5,-2667.74 1058.5,-2655.74 1058.5,-2655.74 1058.5,-2649.74 1064.5,-2643.74 1070.5,-2643.74 1070.5,-2643.74 1145.5,-2643.74 1145.5,-2643.74 1151.5,-2643.74 1157.5,-2649.74 1157.5,-2655.74 1157.5,-2655.74 1157.5,-2667.74 1157.5,-2667.74 1157.5,-2673.74 1151.5,-2679.74 1145.5,-2679.74"/>
<text text-anchor="middle" x="1108" y="-2658.94" font-family="Helvetica,sans-Serif" font-size="11.00">provider_listing</text>
</g>
<!-- instrument_type&#45;&gt;provider_listing -->
<g id="edge15" class="edge">
<title>instrument_type&#45;&gt;provider_listing</title>
<path fill="none" stroke="#64748b" d="M420.39,-2152.78C447.5,-2232.31 568.61,-2552.95 795,-2669.74 876.31,-2711.69 986.09,-2694.82 1051.41,-2678.48"/>
<polygon fill="#64748b" stroke="#64748b" points="1052.2,-2680.81 1058.37,-2676.7 1050.98,-2676.06 1052.2,-2680.81"/>
<text text-anchor="middle" x="690" y="-2652.34" font-family="Helvetica,sans-Serif" font-size="8.00">fk_provider_listing_instrument_type</text>
</g>
<!-- security -->
<g id="node26" class="node">
<title>security</title>
<path fill="#f8fafc" stroke="#334155" d="M707.5,-777.74C707.5,-777.74 672.5,-777.74 672.5,-777.74 666.5,-777.74 660.5,-771.74 660.5,-765.74 660.5,-765.74 660.5,-753.74 660.5,-753.74 660.5,-747.74 666.5,-741.74 672.5,-741.74 672.5,-741.74 707.5,-741.74 707.5,-741.74 713.5,-741.74 719.5,-747.74 719.5,-753.74 719.5,-753.74 719.5,-765.74 719.5,-765.74 719.5,-771.74 713.5,-777.74 707.5,-777.74"/>
<text text-anchor="middle" x="690" y="-756.94" font-family="Helvetica,sans-Serif" font-size="11.00">security</text>
</g>
<!-- instrument_type&#45;&gt;security -->
<g id="edge16" class="edge">
<title>instrument_type&#45;&gt;security</title>
<path fill="none" stroke="#64748b" d="M418.12,-2116.6C447.7,-1968.44 649.34,-958.4 683.95,-785.04"/>
<polygon fill="#64748b" stroke="#64748b" points="686.37,-785.44 685.34,-778.1 681.56,-784.48 686.37,-785.44"/>
<text text-anchor="middle" x="543.5" y="-1692.34" font-family="Helvetica,sans-Serif" font-size="8.00">fk_security_type</text>
</g>
<!-- iso10383_mic -->
<g id="node9" class="node">
<title>iso10383_mic</title>
<path fill="#f8fafc" stroke="#334155" d="M446,-408.74C446,-408.74 381,-408.74 381,-408.74 375,-408.74 369,-402.74 369,-396.74 369,-396.74 369,-384.74 369,-384.74 369,-378.74 375,-372.74 381,-372.74 381,-372.74 446,-372.74 446,-372.74 452,-372.74 458,-378.74 458,-384.74 458,-384.74 458,-396.74 458,-396.74 458,-402.74 452,-408.74 446,-408.74"/>
<text text-anchor="middle" x="413.5" y="-387.94" font-family="Helvetica,sans-Serif" font-size="11.00">iso10383_mic</text>
</g>
<!-- iso10383_mic&#45;&gt;exchange -->
<g id="edge17" class="edge">
<title>iso10383_mic&#45;&gt;exchange</title>
<path fill="none" stroke="#64748b" d="M458.3,-400.16C510.92,-411.47 598.44,-430.28 649.21,-441.19"/>
<polygon fill="#64748b" stroke="#64748b" points="648.77,-443.6 656.13,-442.68 649.8,-438.81 648.77,-443.6"/>
<text text-anchor="middle" x="543.5" y="-429.34" font-family="Helvetica,sans-Serif" font-size="8.00">fk_exchange_mic</text>
</g>
<!-- iso10383_mic&#45;&gt;iso10383_mic -->
<g id="edge18" class="edge">
<title>iso10383_mic&#45;&gt;iso10383_mic</title>
<path fill="none" stroke="#64748b" d="M395.22,-408.85C383.03,-428.87 389.12,-451.74 413.5,-451.74 435.21,-451.74 442.42,-433.6 435.12,-415.49"/>
<polygon fill="#64748b" stroke="#64748b" points="437.12,-414 431.78,-408.85 432.74,-416.21 437.12,-414"/>
<text text-anchor="middle" x="413.5" y="-454.34" font-family="Helvetica,sans-Serif" font-size="8.00">fk_iso10383_mic_operating</text>
</g>
<!-- iso10383_mic_cat -->
<g id="node10" class="node">
<title>iso10383_mic_cat</title>
<path fill="#f8fafc" stroke="#334155" d="M135.5,-408.74C135.5,-408.74 48.5,-408.74 48.5,-408.74 42.5,-408.74 36.5,-402.74 36.5,-396.74 36.5,-396.74 36.5,-384.74 36.5,-384.74 36.5,-378.74 42.5,-372.74 48.5,-372.74 48.5,-372.74 135.5,-372.74 135.5,-372.74 141.5,-372.74 147.5,-378.74 147.5,-384.74 147.5,-384.74 147.5,-396.74 147.5,-396.74 147.5,-402.74 141.5,-408.74 135.5,-408.74"/>
<text text-anchor="middle" x="92" y="-387.94" font-family="Helvetica,sans-Serif" font-size="11.00">iso10383_mic_cat</text>
</g>
<!-- iso10383_mic_cat&#45;&gt;iso10383_mic -->
<g id="edge19" class="edge">
<title>iso10383_mic_cat&#45;&gt;iso10383_mic</title>
<path fill="none" stroke="#64748b" d="M147.56,-390.74C207.55,-390.74 303.17,-390.74 361.65,-390.74"/>
<polygon fill="#64748b" stroke="#64748b" points="361.94,-393.19 368.94,-390.74 361.94,-388.29 361.94,-393.19"/>
<text text-anchor="middle" x="271" y="-393.34" font-family="Helvetica,sans-Serif" font-size="8.00">fk_iso10383_mic_category</text>
</g>
<!-- iso3166_country -->
<g id="node11" class="node">
<title>iso3166_country</title>
<path fill="#f8fafc" stroke="#334155" d="M132.5,-487.74C132.5,-487.74 51.5,-487.74 51.5,-487.74 45.5,-487.74 39.5,-481.74 39.5,-475.74 39.5,-475.74 39.5,-463.74 39.5,-463.74 39.5,-457.74 45.5,-451.74 51.5,-451.74 51.5,-451.74 132.5,-451.74 132.5,-451.74 138.5,-451.74 144.5,-457.74 144.5,-463.74 144.5,-463.74 144.5,-475.74 144.5,-475.74 144.5,-481.74 138.5,-487.74 132.5,-487.74"/>
<text text-anchor="middle" x="92" y="-466.94" font-family="Helvetica,sans-Serif" font-size="11.00">iso3166_country</text>
</g>
<!-- iso3166_country&#45;&gt;exchange -->
<g id="edge20" class="edge">
<title>iso3166_country&#45;&gt;exchange</title>
<path fill="none" stroke="#64748b" d="M144.61,-453.73C158.34,-447.91 172.53,-440.33 184,-430.74 204.43,-413.67 195.41,-396.33 217,-380.74 308.83,-314.44 358.62,-317.33 469,-342.74 539.86,-359.06 614.34,-401.41 655.91,-427.68"/>
<polygon fill="#64748b" stroke="#64748b" points="654.82,-429.89 662.04,-431.59 657.46,-425.76 654.82,-429.89"/>
<text text-anchor="middle" x="413.5" y="-345.34" font-family="Helvetica,sans-Serif" font-size="8.00">fk_exchange_country</text>
</g>
<!-- iso3166_country&#45;&gt;iso10383_mic -->
<g id="edge21" class="edge">
<title>iso3166_country&#45;&gt;iso10383_mic</title>
<path fill="none" stroke="#64748b" d="M144.69,-456.96C204.43,-442.19 302.12,-418.04 361.55,-403.34"/>
<polygon fill="#64748b" stroke="#64748b" points="362.39,-405.66 368.6,-401.6 361.22,-400.9 362.39,-405.66"/>
<text text-anchor="middle" x="271" y="-439.34" font-family="Helvetica,sans-Serif" font-size="8.00">fk_iso10383_mic_country</text>
</g>
<!-- issuer -->
<g id="node13" class="node">
<title>issuer</title>
<path fill="#f8fafc" stroke="#334155" d="M428.5,-1294.74C428.5,-1294.74 398.5,-1294.74 398.5,-1294.74 392.5,-1294.74 386.5,-1288.74 386.5,-1282.74 386.5,-1282.74 386.5,-1270.74 386.5,-1270.74 386.5,-1264.74 392.5,-1258.74 398.5,-1258.74 398.5,-1258.74 428.5,-1258.74 428.5,-1258.74 434.5,-1258.74 440.5,-1264.74 440.5,-1270.74 440.5,-1270.74 440.5,-1282.74 440.5,-1282.74 440.5,-1288.74 434.5,-1294.74 428.5,-1294.74"/>
<text text-anchor="middle" x="413.5" y="-1273.94" font-family="Helvetica,sans-Serif" font-size="11.00">issuer</text>
</g>
<!-- iso3166_country&#45;&gt;issuer -->
<g id="edge22" class="edge">
<title>iso3166_country&#45;&gt;issuer</title>
<path fill="none" stroke="#64748b" d="M100.27,-488.12C142.3,-594.27 353.9,-1128.74 402.53,-1251.56"/>
<polygon fill="#64748b" stroke="#64748b" points="400.38,-1252.79 405.24,-1258.4 404.94,-1250.99 400.38,-1252.79"/>
<text text-anchor="middle" x="271" y="-1040.34" font-family="Helvetica,sans-Serif" font-size="8.00">fk_issuer_country</text>
</g>
<!-- iso4217_currency -->
<g id="node12" class="node">
<title>iso4217_currency</title>
<path fill="#f8fafc" stroke="#334155" d="M457,-655.74C457,-655.74 370,-655.74 370,-655.74 364,-655.74 358,-649.74 358,-643.74 358,-643.74 358,-631.74 358,-631.74 358,-625.74 364,-619.74 370,-619.74 370,-619.74 457,-619.74 457,-619.74 463,-619.74 469,-625.74 469,-631.74 469,-631.74 469,-643.74 469,-643.74 469,-649.74 463,-655.74 457,-655.74"/>
<text text-anchor="middle" x="413.5" y="-634.94" font-family="Helvetica,sans-Serif" font-size="11.00">iso4217_currency</text>
</g>
<!-- iso4217_currency&#45;&gt;listing -->
<g id="edge23" class="edge">
<title>iso4217_currency&#45;&gt;listing</title>
<path fill="none" stroke="#64748b" d="M469.13,-639.16C606.34,-642.73 962.42,-651.99 1073.44,-654.87"/>
<polygon fill="#64748b" stroke="#64748b" points="1073.63,-657.33 1080.7,-655.06 1073.76,-652.43 1073.63,-657.33"/>
<text text-anchor="middle" x="690" y="-649.34" font-family="Helvetica,sans-Serif" font-size="8.00">fk_listing_currency</text>
</g>
<!-- iso4217_currency&#45;&gt;security -->
<g id="edge24" class="edge">
<title>iso4217_currency&#45;&gt;security</title>
<path fill="none" stroke="#64748b" d="M455,-655.75C508.67,-679.6 602.48,-721.29 653.5,-743.97"/>
<polygon fill="#64748b" stroke="#64748b" points="652.72,-746.3 660.11,-746.9 654.71,-741.82 652.72,-746.3"/>
<text text-anchor="middle" x="543.5" y="-715.34" font-family="Helvetica,sans-Serif" font-size="8.00">fk_security_currency</text>
</g>
<!-- issuer&#45;&gt;issuer_classification -->
<g id="edge25" class="edge">
<title>issuer&#45;&gt;issuer_classification</title>
<path fill="none" stroke="#64748b" d="M416.09,-1295.22C429.71,-1451.85 528.44,-2554.49 618,-2668.74 979.6,-3130.05 1859.94,-2821.96 2079.67,-2735.41"/>
<polygon fill="#64748b" stroke="#64748b" points="2080.68,-2737.64 2086.29,-2732.79 2078.87,-2733.09 2080.68,-2737.64"/>
<text text-anchor="middle" x="1108" y="-2917.34" font-family="Helvetica,sans-Serif" font-size="8.00">fk_issuer_class_issuer</text>
</g>
<!-- issuer&#45;&gt;issuer_identifier -->
<g id="edge26" class="edge">
<title>issuer&#45;&gt;issuer_identifier</title>
<path fill="none" stroke="#64748b" d="M414.34,-1294.8C414.75,-1374.41 428.41,-1695.16 618,-1808.74 690.47,-1852.16 936.76,-1885.77 1049.64,-1899.28"/>
<polygon fill="#64748b" stroke="#64748b" points="1049.64,-1901.74 1056.88,-1900.14 1050.22,-1896.88 1049.64,-1901.74"/>
<text text-anchor="middle" x="690" y="-1855.34" font-family="Helvetica,sans-Serif" font-size="8.00">fk_issuer_identifier_issuer</text>
</g>
<!-- issuer&#45;&gt;issuer_name_history -->
<g id="edge27" class="edge">
<title>issuer&#45;&gt;issuer_name_history</title>
<path fill="none" stroke="#64748b" d="M416.3,-1295.05C423.24,-1361.59 450.42,-1589.26 502,-1636.74 502.62,-1637.31 878.48,-1696.06 1037.38,-1720.88"/>
<polygon fill="#64748b" stroke="#64748b" points="1037.03,-1723.3 1044.32,-1721.96 1037.79,-1718.46 1037.03,-1723.3"/>
<text text-anchor="middle" x="690" y="-1678.34" font-family="Helvetica,sans-Serif" font-size="8.00">fk_issuer_name_issuer</text>
</g>
<!-- provider_evidence -->
<g id="node21" class="node">
<title>provider_evidence</title>
<path fill="#f8fafc" stroke="#334155" d="M2176.5,-1190.74C2176.5,-1190.74 2085.5,-1190.74 2085.5,-1190.74 2079.5,-1190.74 2073.5,-1184.74 2073.5,-1178.74 2073.5,-1178.74 2073.5,-1166.74 2073.5,-1166.74 2073.5,-1160.74 2079.5,-1154.74 2085.5,-1154.74 2085.5,-1154.74 2176.5,-1154.74 2176.5,-1154.74 2182.5,-1154.74 2188.5,-1160.74 2188.5,-1166.74 2188.5,-1166.74 2188.5,-1178.74 2188.5,-1178.74 2188.5,-1184.74 2182.5,-1190.74 2176.5,-1190.74"/>
<text text-anchor="middle" x="2131" y="-1169.94" font-family="Helvetica,sans-Serif" font-size="11.00">provider_evidence</text>
</g>
<!-- issuer&#45;&gt;provider_evidence -->
<g id="edge28" class="edge">
<title>issuer&#45;&gt;provider_evidence</title>
<path fill="none" stroke="#64748b" d="M432,-1294.75C448.61,-1310.85 474.98,-1333.98 502,-1347.74 699.96,-1448.63 829.96,-1317.58 985,-1476.74 1029,-1521.92 968.49,-1575.68 1018,-1614.74 1080.8,-1664.3 1119.41,-1629.68 1198,-1614.74 1542.03,-1549.37 1626.32,-1498.38 1931,-1325.74 1998.66,-1287.41 2068.69,-1228.17 2104.91,-1195.8"/>
<polygon fill="#64748b" stroke="#64748b" points="2106.86,-1197.35 2110.43,-1190.85 2103.58,-1193.7 2106.86,-1197.35"/>
<text text-anchor="middle" x="1108" y="-1642.34" font-family="Helvetica,sans-Serif" font-size="8.00">fk_provider_evidence_issuer</text>
</g>
<!-- issuer&#45;&gt;security -->
<g id="edge29" class="edge">
<title>issuer&#45;&gt;security</title>
<path fill="none" stroke="#64748b" d="M424.11,-1258.65C465.49,-1180.71 628.54,-873.61 675.99,-784.25"/>
<polygon fill="#64748b" stroke="#64748b" points="678.21,-785.29 679.33,-777.96 673.88,-783 678.21,-785.29"/>
<text text-anchor="middle" x="543.5" y="-1111.34" font-family="Helvetica,sans-Serif" font-size="8.00">fk_security_issuer</text>
</g>
<!-- issuer&#45;&gt;security_event -->
<g id="edge30" class="edge">
<title>issuer&#45;&gt;security_event</title>
<path fill="none" stroke="#64748b" d="M440.69,-1288.73C457.77,-1295.93 480.74,-1304.5 502,-1308.74 898.27,-1387.84 1389.77,-1369.3 1551.86,-1360.22"/>
<polygon fill="#64748b" stroke="#64748b" points="1552.47,-1362.64 1559.32,-1359.8 1552.2,-1357.75 1552.47,-1362.64"/>
<text text-anchor="middle" x="890" y="-1364.34" font-family="Helvetica,sans-Serif" font-size="8.00">fk_security_event_issuer</text>
</g>
<!-- issuer&#45;&gt;security_reconciliation_evaluation -->
<g id="edge31" class="edge">
<title>issuer&#45;&gt;security_reconciliation_evaluation</title>
<path fill="none" stroke="#64748b" d="M440.74,-1273.33C542.64,-1259.52 910.24,-1204.47 985,-1119.74 1052.74,-1042.97 953.1,-970.93 1018,-891.74 1154.34,-725.4 1274.03,-808.92 1474,-729.74 1503.04,-718.25 1535.14,-704.23 1560.47,-692.85"/>
<polygon fill="#64748b" stroke="#64748b" points="1561.72,-694.98 1567.09,-689.87 1559.71,-690.51 1561.72,-694.98"/>
<text text-anchor="middle" x="890" y="-1205.34" font-family="Helvetica,sans-Serif" font-size="8.00">fk_sec_recon_eval_issuer</text>
</g>
<!-- security_reconciliation_evidence -->
<g id="node33" class="node">
<title>security_reconciliation_evidence</title>
<path fill="#f8fafc" stroke="#334155" d="M1691.5,-1040.74C1691.5,-1040.74 1523.5,-1040.74 1523.5,-1040.74 1517.5,-1040.74 1511.5,-1034.74 1511.5,-1028.74 1511.5,-1028.74 1511.5,-1016.74 1511.5,-1016.74 1511.5,-1010.74 1517.5,-1004.74 1523.5,-1004.74 1523.5,-1004.74 1691.5,-1004.74 1691.5,-1004.74 1697.5,-1004.74 1703.5,-1010.74 1703.5,-1016.74 1703.5,-1016.74 1703.5,-1028.74 1703.5,-1028.74 1703.5,-1034.74 1697.5,-1040.74 1691.5,-1040.74"/>
<text text-anchor="middle" x="1607.5" y="-1019.94" font-family="Helvetica,sans-Serif" font-size="11.00">security_reconciliation_evidence</text>
</g>
<!-- issuer&#45;&gt;security_reconciliation_evidence -->
<g id="edge32" class="edge">
<title>issuer&#45;&gt;security_reconciliation_evidence</title>
<path fill="none" stroke="#64748b" d="M440.89,-1277.05C570.63,-1278.31 1137.09,-1281.07 1198,-1233.74 1236.63,-1203.73 1194.83,-1161.68 1231,-1128.74 1312.67,-1054.39 1368.45,-1109.27 1474,-1076.74 1503.53,-1067.65 1535.64,-1054.64 1560.86,-1043.67"/>
<polygon fill="#64748b" stroke="#64748b" points="1562.02,-1045.84 1567.45,-1040.79 1560.05,-1041.35 1562.02,-1045.84"/>
<text text-anchor="middle" x="890" y="-1277.34" font-family="Helvetica,sans-Serif" font-size="8.00">fk_sec_recon_evidence_issuer</text>
</g>
<!-- security_successor_relationship -->
<g id="node36" class="node">
<title>security_successor_relationship</title>
<path fill="#f8fafc" stroke="#334155" d="M1690,-403.74C1690,-403.74 1525,-403.74 1525,-403.74 1519,-403.74 1513,-397.74 1513,-391.74 1513,-391.74 1513,-379.74 1513,-379.74 1513,-373.74 1519,-367.74 1525,-367.74 1525,-367.74 1690,-367.74 1690,-367.74 1696,-367.74 1702,-373.74 1702,-379.74 1702,-379.74 1702,-391.74 1702,-391.74 1702,-397.74 1696,-403.74 1690,-403.74"/>
<text text-anchor="middle" x="1607.5" y="-382.94" font-family="Helvetica,sans-Serif" font-size="11.00">security_successor_relationship</text>
</g>
<!-- issuer&#45;&gt;security_successor_relationship -->
<g id="edge33" class="edge">
<title>issuer&#45;&gt;security_successor_relationship</title>
<path fill="none" stroke="#64748b" d="M416.12,-1258.46C427.13,-1134.3 490.97,-419.19 502,-399.74 717.53,-19.92 1069.74,-90.54 1474,-255.74 1526.3,-277.12 1569.11,-330.18 1590.9,-361.51"/>
<polygon fill="#64748b" stroke="#64748b" points="1589,-363.07 1594.97,-367.47 1593.04,-360.31 1589,-363.07"/>
<text text-anchor="middle" x="890" y="-146.34" font-family="Helvetica,sans-Serif" font-size="8.00">fk_security_successor_predecessor_issuer</text>
</g>
<!-- issuer&#45;&gt;security_successor_relationship -->
<g id="edge34" class="edge">
<title>issuer&#45;&gt;security_successor_relationship</title>
<path fill="none" stroke="#64748b" d="M415.23,-1258.64C418.64,-1184.07 435.68,-893.97 502,-666.74 537,-546.83 521.81,-490.43 618,-410.74 895.41,-180.93 1382.21,-311.07 1548.73,-365.47"/>
<polygon fill="#64748b" stroke="#64748b" points="1548.06,-367.83 1555.47,-367.69 1549.59,-363.18 1548.06,-367.83"/>
<text text-anchor="middle" x="890" y="-315.34" font-family="Helvetica,sans-Serif" font-size="8.00">fk_security_successor_successor_issuer</text>
</g>
<!-- listing&#45;&gt;listing_symbol_history -->
<g id="edge35" class="edge">
<title>listing&#45;&gt;listing_symbol_history</title>
<path fill="none" stroke="#64748b" d="M1135.05,-663.38C1155.74,-670.89 1183.51,-684.52 1198,-706.74 1274.39,-823.92 1145.37,-909.13 1231,-1019.74 1301.59,-1110.94 1402.96,-1019.9 1474,-1110.74 1513.41,-1161.14 1496.25,-1333.68 1507,-1396.74 1534.12,-1555.81 1582.22,-1743.86 1599.81,-1810.67"/>
<polygon fill="#64748b" stroke="#64748b" points="1597.46,-1811.34 1601.61,-1817.48 1602.2,-1810.09 1597.46,-1811.34"/>
<text text-anchor="middle" x="1352.5" y="-1113.34" font-family="Helvetica,sans-Serif" font-size="8.00">fk_listing_symbol_listing</text>
</g>
<!-- listing&#45;&gt;provider_evidence -->
<g id="edge36" class="edge">
<title>listing&#45;&gt;provider_evidence</title>
<path fill="none" stroke="#64748b" d="M1135.09,-662.16C1207.86,-680.22 1411.73,-732.13 1474,-761.74 1713.15,-875.48 1732.53,-972.11 1964,-1100.74 1999.63,-1120.55 2041.8,-1138.77 2074.71,-1151.93"/>
<polygon fill="#64748b" stroke="#64748b" points="2074.18,-1154.36 2081.59,-1154.66 2075.99,-1149.8 2074.18,-1154.36"/>
<text text-anchor="middle" x="1607.5" y="-913.34" font-family="Helvetica,sans-Serif" font-size="8.00">fk_provider_evidence_listing</text>
</g>
<!-- listing&#45;&gt;security_event -->
<g id="edge37" class="edge">
<title>listing&#45;&gt;security_event</title>
<path fill="none" stroke="#64748b" d="M1135.16,-663.74C1155.62,-671.4 1183.03,-685.05 1198,-706.74 1250.93,-783.41 1172.04,-841.61 1231,-913.74 1303.99,-1003.03 1392.38,-923.27 1474,-1004.74 1498.51,-1029.21 1573.4,-1254.88 1598.33,-1331.46"/>
<polygon fill="#64748b" stroke="#64748b" points="1596.09,-1332.49 1600.58,-1338.39 1600.75,-1330.98 1596.09,-1332.49"/>
<text text-anchor="middle" x="1352.5" y="-1007.34" font-family="Helvetica,sans-Serif" font-size="8.00">fk_security_event_listing</text>
</g>
<!-- listing&#45;&gt;security_reconciliation_evaluation -->
<g id="edge38" class="edge">
<title>listing&#45;&gt;security_reconciliation_evaluation</title>
<path fill="none" stroke="#64748b" d="M1135.05,-656.58C1201.87,-658.73 1382.38,-664.54 1499.65,-668.31"/>
<polygon fill="#64748b" stroke="#64748b" points="1499.86,-670.77 1506.93,-668.54 1500.02,-665.87 1499.86,-670.77"/>
<text text-anchor="middle" x="1352.5" y="-669.34" font-family="Helvetica,sans-Serif" font-size="8.00">fk_sec_recon_eval_listing</text>
</g>
<!-- listing&#45;&gt;security_reconciliation_evaluation -->
<g id="edge39" class="edge">
<title>listing&#45;&gt;security_reconciliation_evaluation</title>
<path fill="none" stroke="#64748b" d="M1135.2,-652.43C1195.29,-645.38 1347.57,-630.53 1474,-643.74 1491.55,-645.58 1510.19,-648.74 1527.78,-652.3"/>
<polygon fill="#64748b" stroke="#64748b" points="1527.38,-654.72 1534.73,-653.73 1528.37,-649.92 1527.38,-654.72"/>
<text text-anchor="middle" x="1352.5" y="-646.34" font-family="Helvetica,sans-Serif" font-size="8.00">fk_sec_recon_eval_related_listing</text>
</g>
<!-- listing&#45;&gt;security_reconciliation_evidence -->
<g id="edge40" class="edge">
<title>listing&#45;&gt;security_reconciliation_evidence</title>
<path fill="none" stroke="#64748b" d="M1135.32,-666.13C1154.53,-674.74 1180.21,-688.52 1198,-706.74 1219.53,-728.8 1209.4,-745.76 1231,-767.74 1317.9,-856.17 1373.13,-832.66 1474,-904.74 1515.18,-934.17 1558.08,-974.43 1583.53,-999.5"/>
<polygon fill="#64748b" stroke="#64748b" points="1581.99,-1001.43 1588.69,-1004.61 1585.44,-997.94 1581.99,-1001.43"/>
<text text-anchor="middle" x="1352.5" y="-907.34" font-family="Helvetica,sans-Serif" font-size="8.00">fk_sec_recon_evidence_listing</text>
</g>
<!-- listing&#45;&gt;security_successor_relationship -->
<g id="edge41" class="edge">
<title>listing&#45;&gt;security_successor_relationship</title>
<path fill="none" stroke="#64748b" d="M1135.18,-647.78C1216.35,-623.02 1459.22,-548.51 1474,-538.74 1526.31,-504.2 1570.06,-443.5 1591.78,-409.88"/>
<polygon fill="#64748b" stroke="#64748b" points="1593.87,-411.14 1595.57,-403.92 1589.74,-408.51 1593.87,-411.14"/>
<text text-anchor="middle" x="1352.5" y="-620.34" font-family="Helvetica,sans-Serif" font-size="8.00">fk_security_successor_predecessor_listing</text>
</g>
<!-- listing&#45;&gt;security_successor_relationship -->
<g id="edge42" class="edge">
<title>listing&#45;&gt;security_successor_relationship</title>
<path fill="none" stroke="#64748b" d="M1135.35,-645.95C1154.83,-637.56 1180.85,-623.81 1198,-604.74 1222.35,-577.67 1204.4,-554.62 1231,-529.74 1314.9,-451.29 1367.06,-483.67 1474,-441.74 1502.28,-430.66 1533.6,-417.46 1558.68,-406.67"/>
<polygon fill="#64748b" stroke="#64748b" points="1559.79,-408.86 1565.25,-403.83 1557.85,-404.36 1559.79,-408.86"/>
<text text-anchor="middle" x="1352.5" y="-532.34" font-family="Helvetica,sans-Serif" font-size="8.00">fk_security_successor_successor_listing</text>
</g>
<!-- ohlcv_daily -->
<g id="node19" class="node">
<title>ohlcv_daily</title>
<path fill="#f8fafc" stroke="#334155" d="M1633,-2690.74C1633,-2690.74 1582,-2690.74 1582,-2690.74 1576,-2690.74 1570,-2684.74 1570,-2678.74 1570,-2678.74 1570,-2666.74 1570,-2666.74 1570,-2660.74 1576,-2654.74 1582,-2654.74 1582,-2654.74 1633,-2654.74 1633,-2654.74 1639,-2654.74 1645,-2660.74 1645,-2666.74 1645,-2666.74 1645,-2678.74 1645,-2678.74 1645,-2684.74 1639,-2690.74 1633,-2690.74"/>
<text text-anchor="middle" x="1607.5" y="-2669.94" font-family="Helvetica,sans-Serif" font-size="11.00">ohlcv_daily</text>
</g>
<!-- provider -->
<g id="node20" class="node">
<title>provider</title>
<path fill="#f8fafc" stroke="#334155" d="M708,-2381.74C708,-2381.74 672,-2381.74 672,-2381.74 666,-2381.74 660,-2375.74 660,-2369.74 660,-2369.74 660,-2357.74 660,-2357.74 660,-2351.74 666,-2345.74 672,-2345.74 672,-2345.74 708,-2345.74 708,-2345.74 714,-2345.74 720,-2351.74 720,-2357.74 720,-2357.74 720,-2369.74 720,-2369.74 720,-2375.74 714,-2381.74 708,-2381.74"/>
<text text-anchor="middle" x="690" y="-2360.94" font-family="Helvetica,sans-Serif" font-size="11.00">provider</text>
</g>
<!-- provider&#45;&gt;classification_system -->
<g id="edge43" class="edge">
<title>provider&#45;&gt;classification_system</title>
<path fill="none" stroke="#64748b" d="M700.91,-2381.77C716.99,-2409.3 751.39,-2461.59 795,-2489.74 868.49,-2537.2 968.11,-2558.38 1034.82,-2567.68"/>
<polygon fill="#64748b" stroke="#64748b" points="1034.72,-2570.14 1041.98,-2568.65 1035.37,-2565.28 1034.72,-2570.14"/>
<text text-anchor="middle" x="890" y="-2560.34" font-family="Helvetica,sans-Serif" font-size="8.00">fk_classification_system_provider</text>
</g>
<!-- provider&#45;&gt;exchange_alias -->
<g id="edge44" class="edge">
<title>provider&#45;&gt;exchange_alias</title>
<path fill="none" stroke="#64748b" d="M697.91,-2345.72C712.71,-2306.22 747.31,-2208.73 762,-2123.74 773.41,-2057.73 757.4,-1577.19 795,-1521.74 847.23,-1444.72 923.29,-1503.4 985,-1433.74 1016.6,-1398.08 997.58,-1374.79 1018,-1331.74 1038.1,-1289.36 1069.13,-1244.44 1088.74,-1217.76"/>
<polygon fill="#64748b" stroke="#64748b" points="1090.79,-1219.12 1092.98,-1212.03 1086.85,-1216.2 1090.79,-1219.12"/>
<text text-anchor="middle" x="890" y="-1524.34" font-family="Helvetica,sans-Serif" font-size="8.00">fk_exchange_alias_provider</text>
</g>
<!-- provider&#45;&gt;issuer_classification -->
<g id="edge45" class="edge">
<title>provider&#45;&gt;issuer_classification</title>
<path fill="none" stroke="#64748b" d="M701.15,-2381.9C716.38,-2409.86 745.16,-2465.48 762,-2515.74 784.38,-2582.53 743.44,-2622.76 795,-2670.74 979.79,-2842.75 1815.92,-2754 2061.8,-2723.62"/>
<polygon fill="#64748b" stroke="#64748b" points="2062.25,-2726.03 2068.9,-2722.74 2061.65,-2721.17 2062.25,-2726.03"/>
<text text-anchor="middle" x="1352.5" y="-2775.34" font-family="Helvetica,sans-Serif" font-size="8.00">fk_issuer_class_provider</text>
</g>
<!-- provider&#45;&gt;issuer_identifier -->
<g id="edge46" class="edge">
<title>provider&#45;&gt;issuer_identifier</title>
<path fill="none" stroke="#64748b" d="M700.7,-2345.67C716.97,-2316.67 752.25,-2259.33 795,-2222.74 867.35,-2160.83 928.37,-2200.3 985,-2123.74 1032.85,-2059.06 968.3,-2009.02 1018,-1945.74 1026.29,-1935.19 1037.96,-1927.34 1050.14,-1921.53"/>
<polygon fill="#64748b" stroke="#64748b" points="1051.15,-1923.77 1056.54,-1918.67 1049.15,-1919.29 1051.15,-1923.77"/>
<text text-anchor="middle" x="890" y="-2225.34" font-family="Helvetica,sans-Serif" font-size="8.00">fk_issuer_identifier_provider</text>
</g>
<!-- provider&#45;&gt;issuer_name_history -->
<g id="edge47" class="edge">
<title>provider&#45;&gt;issuer_name_history</title>
<path fill="none" stroke="#64748b" d="M696.08,-2345.73C713.76,-2283.48 772.79,-2080.2 795,-2059.74 859.06,-2000.74 926.71,-2076.46 985,-2011.74 1053.82,-1935.34 960.21,-1867.8 1018,-1782.74 1026.34,-1770.46 1038.69,-1760.77 1051.55,-1753.29"/>
<polygon fill="#64748b" stroke="#64748b" points="1052.94,-1755.32 1057.88,-1749.79 1050.57,-1751.03 1052.94,-1755.32"/>
<text text-anchor="middle" x="890" y="-2062.34" font-family="Helvetica,sans-Serif" font-size="8.00">fk_issuer_name_provider</text>
</g>
<!-- provider&#45;&gt;listing_symbol_history -->
<g id="edge48" class="edge">
<title>provider&#45;&gt;listing_symbol_history</title>
<path fill="none" stroke="#64748b" d="M720.26,-2366.62C774.64,-2370.81 894.01,-2374.49 985,-2337.74 1263.82,-2225.14 1516.12,-1943.23 1586.86,-1859.53"/>
<polygon fill="#64748b" stroke="#64748b" points="1589,-1860.79 1591.63,-1853.85 1585.25,-1857.63 1589,-1860.79"/>
<text text-anchor="middle" x="1108" y="-2320.34" font-family="Helvetica,sans-Serif" font-size="8.00">fk_listing_symbol_provider</text>
</g>
<!-- provider&#45;&gt;provider_listing -->
<g id="edge49" class="edge">
<title>provider&#45;&gt;provider_listing</title>
<path fill="none" stroke="#64748b" d="M694.58,-2382.02C703.64,-2423.28 731.43,-2524.14 795,-2576.74 868.97,-2637.95 983.35,-2655.32 1051.14,-2660.1"/>
<polygon fill="#64748b" stroke="#64748b" points="1051.21,-2662.56 1058.36,-2660.57 1051.53,-2657.67 1051.21,-2662.56"/>
<text text-anchor="middle" x="890" y="-2654.34" font-family="Helvetica,sans-Serif" font-size="8.00">fk_provider_listing_provider</text>
</g>
<!-- provider_observation -->
<g id="node23" class="node">
<title>provider_observation</title>
<path fill="#f8fafc" stroke="#334155" d="M1661,-2358.74C1661,-2358.74 1554,-2358.74 1554,-2358.74 1548,-2358.74 1542,-2352.74 1542,-2346.74 1542,-2346.74 1542,-2334.74 1542,-2334.74 1542,-2328.74 1548,-2322.74 1554,-2322.74 1554,-2322.74 1661,-2322.74 1661,-2322.74 1667,-2322.74 1673,-2328.74 1673,-2334.74 1673,-2334.74 1673,-2346.74 1673,-2346.74 1673,-2352.74 1667,-2358.74 1661,-2358.74"/>
<text text-anchor="middle" x="1607.5" y="-2337.94" font-family="Helvetica,sans-Serif" font-size="11.00">provider_observation</text>
</g>
<!-- provider&#45;&gt;provider_observation -->
<g id="edge50" class="edge">
<title>provider&#45;&gt;provider_observation</title>
<path fill="none" stroke="#64748b" d="M720.3,-2372.02C740.98,-2377.41 769.45,-2383.95 795,-2386.74 878.94,-2395.92 900.64,-2390.51 985,-2386.74 1094.66,-2381.85 1121.55,-2373.13 1231,-2364.74 1336.53,-2356.65 1458.89,-2349.19 1534.51,-2344.8"/>
<polygon fill="#64748b" stroke="#64748b" points="1534.83,-2347.24 1541.68,-2344.39 1534.55,-2342.34 1534.83,-2347.24"/>
<text text-anchor="middle" x="1108" y="-2387.34" font-family="Helvetica,sans-Serif" font-size="8.00">fk_provider_observation_provider</text>
</g>
<!-- provider_source_snapshot -->
<g id="node24" class="node">
<title>provider_source_snapshot</title>
<path fill="#f8fafc" stroke="#334155" d="M1175,-2488.74C1175,-2488.74 1041,-2488.74 1041,-2488.74 1035,-2488.74 1029,-2482.74 1029,-2476.74 1029,-2476.74 1029,-2464.74 1029,-2464.74 1029,-2458.74 1035,-2452.74 1041,-2452.74 1041,-2452.74 1175,-2452.74 1175,-2452.74 1181,-2452.74 1187,-2458.74 1187,-2464.74 1187,-2464.74 1187,-2476.74 1187,-2476.74 1187,-2482.74 1181,-2488.74 1175,-2488.74"/>
<text text-anchor="middle" x="1108" y="-2467.94" font-family="Helvetica,sans-Serif" font-size="11.00">provider_source_snapshot</text>
</g>
<!-- provider&#45;&gt;provider_source_snapshot -->
<g id="edge51" class="edge">
<title>provider&#45;&gt;provider_source_snapshot</title>
<path fill="none" stroke="#64748b" d="M710.77,-2381.97C730.51,-2398.99 762.51,-2423.57 795,-2435.74 868.23,-2463.19 957.37,-2470.87 1021.59,-2472.31"/>
<polygon fill="#64748b" stroke="#64748b" points="1021.86,-2474.77 1028.9,-2472.45 1021.95,-2469.87 1021.86,-2474.77"/>
<text text-anchor="middle" x="890" y="-2473.34" font-family="Helvetica,sans-Serif" font-size="8.00">provider_source_snapshot_provider_code_fkey</text>
</g>
<!-- provider&#45;&gt;security_event -->
<g id="edge52" class="edge">
<title>provider&#45;&gt;security_event</title>
<path fill="none" stroke="#64748b" d="M720.16,-2357.07C792.46,-2340.42 974.93,-2297.74 985,-2288.74 1015.84,-2261.2 995.4,-2236.38 1018,-2201.74 1079.32,-2107.78 1128.21,-2112.59 1198,-2024.74 1245.57,-1964.87 1525.12,-1494.16 1592.09,-1381.1"/>
<polygon fill="#64748b" stroke="#64748b" points="1594.38,-1382.04 1595.83,-1374.77 1590.16,-1379.55 1594.38,-1382.04"/>
<text text-anchor="middle" x="1108" y="-2204.34" font-family="Helvetica,sans-Serif" font-size="8.00">fk_security_event_provider</text>
</g>
<!-- provider&#45;&gt;security_identifier -->
<g id="edge53" class="edge">
<title>provider&#45;&gt;security_identifier</title>
<path fill="none" stroke="#64748b" d="M708.45,-2345.59C727.85,-2326.45 760.95,-2296.76 795,-2279.74 872.91,-2240.81 925.95,-2295.76 985,-2231.74 1044.89,-2166.81 967.49,-2108.22 1018,-2035.74 1026.49,-2023.56 1038.88,-2013.91 1051.74,-2006.43"/>
<polygon fill="#64748b" stroke="#64748b" points="1053.14,-2008.45 1058.08,-2002.92 1050.77,-2004.17 1053.14,-2008.45"/>
<text text-anchor="middle" x="890" y="-2282.34" font-family="Helvetica,sans-Serif" font-size="8.00">fk_security_identifier_provider</text>
</g>
<!-- security_reconciliation_evaluation_evidence -->
<g id="node31" class="node">
<title>security_reconciliation_evaluation_evidence</title>
<path fill="#f8fafc" stroke="#334155" d="M2791.5,-822.74C2791.5,-822.74 2560.5,-822.74 2560.5,-822.74 2554.5,-822.74 2548.5,-816.74 2548.5,-810.74 2548.5,-810.74 2548.5,-798.74 2548.5,-798.74 2548.5,-792.74 2554.5,-786.74 2560.5,-786.74 2560.5,-786.74 2791.5,-786.74 2791.5,-786.74 2797.5,-786.74 2803.5,-792.74 2803.5,-798.74 2803.5,-798.74 2803.5,-810.74 2803.5,-810.74 2803.5,-816.74 2797.5,-822.74 2791.5,-822.74"/>
<text text-anchor="middle" x="2676" y="-801.94" font-family="Helvetica,sans-Serif" font-size="11.00">security_reconciliation_evaluation_evidence</text>
</g>
<!-- provider_evidence&#45;&gt;security_reconciliation_evaluation_evidence -->
<g id="edge54" class="edge">
<title>provider_evidence&#45;&gt;security_reconciliation_evaluation_evidence</title>
<path fill="none" stroke="#64748b" d="M2177.04,-1154.72C2211.22,-1140.31 2258.85,-1118.61 2298,-1094.74 2439.39,-1008.55 2590.6,-879.45 2649.49,-827.55"/>
<polygon fill="#64748b" stroke="#64748b" points="2651.27,-829.24 2654.89,-822.77 2648.02,-825.57 2651.27,-829.24"/>
<text text-anchor="middle" x="2412.5" y="-1069.34" font-family="Helvetica,sans-Serif" font-size="8.00">fk_sec_recon_eval_ev_provider</text>
</g>
<!-- security_reconciliation_evidence_provider_evidence -->
<g id="node34" class="node">
<title>security_reconciliation_evidence_provider_evidence</title>
<path fill="#f8fafc" stroke="#334155" d="M2813,-1134.74C2813,-1134.74 2539,-1134.74 2539,-1134.74 2533,-1134.74 2527,-1128.74 2527,-1122.74 2527,-1122.74 2527,-1110.74 2527,-1110.74 2527,-1104.74 2533,-1098.74 2539,-1098.74 2539,-1098.74 2813,-1098.74 2813,-1098.74 2819,-1098.74 2825,-1104.74 2825,-1110.74 2825,-1110.74 2825,-1122.74 2825,-1122.74 2825,-1128.74 2819,-1134.74 2813,-1134.74"/>
<text text-anchor="middle" x="2676" y="-1113.94" font-family="Helvetica,sans-Serif" font-size="11.00">security_reconciliation_evidence_provider_evidence</text>
</g>
<!-- provider_evidence&#45;&gt;security_reconciliation_evidence_provider_evidence -->
<g id="edge55" class="edge">
<title>provider_evidence&#45;&gt;security_reconciliation_evidence_provider_evidence</title>
<path fill="none" stroke="#64748b" d="M2188.57,-1166.91C2266.25,-1158.9 2408.91,-1144.19 2519.72,-1132.76"/>
<polygon fill="#64748b" stroke="#64748b" points="2520.26,-1135.17 2526.97,-1132.01 2519.76,-1130.29 2520.26,-1135.17"/>
<text text-anchor="middle" x="2412.5" y="-1153.34" font-family="Helvetica,sans-Serif" font-size="8.00">fk_sec_recon_evidence_provider_source</text>
</g>
<!-- provider_listing&#45;&gt;ohlcv_daily -->
<g id="edge56" class="edge">
<title>provider_listing&#45;&gt;ohlcv_daily</title>
<path fill="none" stroke="#64748b" d="M1157.61,-2662.82C1254.38,-2664.96 1469.77,-2669.72 1562.57,-2671.77"/>
<polygon fill="#64748b" stroke="#64748b" points="1562.78,-2674.23 1569.84,-2671.93 1562.89,-2669.33 1562.78,-2674.23"/>
<text text-anchor="middle" x="1352.5" y="-2672.34" font-family="Helvetica,sans-Serif" font-size="8.00">fk_ohlcv_daily_provider_listing</text>
</g>
<!-- provider_observation&#45;&gt;provider_evidence -->
<g id="edge57" class="edge">
<title>provider_observation&#45;&gt;provider_evidence</title>
<path fill="none" stroke="#64748b" d="M1632.75,-2322.46C1693.2,-2275.53 1851.47,-2144.05 1931,-1996.74 2085.84,-1709.96 2121.71,-1302.71 2128.57,-1198.04"/>
<polygon fill="#64748b" stroke="#64748b" points="2131.03,-1197.89 2129.03,-1190.75 2126.14,-1197.58 2131.03,-1197.89"/>
<text text-anchor="middle" x="1836" y="-2224.34" font-family="Helvetica,sans-Serif" font-size="8.00">fk_provider_evidence_observation</text>
</g>
<!-- provider_source_snapshot&#45;&gt;provider_observation -->
<g id="edge58" class="edge">
<title>provider_source_snapshot&#45;&gt;provider_observation</title>
<path fill="none" stroke="#64748b" d="M1139.06,-2452.71C1163.14,-2439.01 1198.21,-2420.71 1231,-2409.74 1259.32,-2400.28 1433.78,-2369.96 1534.64,-2352.83"/>
<polygon fill="#64748b" stroke="#64748b" points="1535.28,-2355.2 1541.77,-2351.62 1534.46,-2350.37 1535.28,-2355.2"/>
<text text-anchor="middle" x="1352.5" y="-2412.34" font-family="Helvetica,sans-Serif" font-size="8.00">provider_observation_source_snapshot_id_fkey</text>
</g>
<!-- provider_source_snapshot_object -->
<g id="node25" class="node">
<title>provider_source_snapshot_object</title>
<path fill="#f8fafc" stroke="#334155" d="M1694,-2532.74C1694,-2532.74 1521,-2532.74 1521,-2532.74 1515,-2532.74 1509,-2526.74 1509,-2520.74 1509,-2520.74 1509,-2508.74 1509,-2508.74 1509,-2502.74 1515,-2496.74 1521,-2496.74 1521,-2496.74 1694,-2496.74 1694,-2496.74 1700,-2496.74 1706,-2502.74 1706,-2508.74 1706,-2508.74 1706,-2520.74 1706,-2520.74 1706,-2526.74 1700,-2532.74 1694,-2532.74"/>
<text text-anchor="middle" x="1607.5" y="-2511.94" font-family="Helvetica,sans-Serif" font-size="11.00">provider_source_snapshot_object</text>
</g>
<!-- provider_source_snapshot&#45;&gt;provider_source_snapshot_object -->
<g id="edge59" class="edge">
<title>provider_source_snapshot&#45;&gt;provider_source_snapshot_object</title>
<path fill="none" stroke="#64748b" d="M1187.01,-2477.64C1271.85,-2485.15 1407.89,-2497.18 1501.94,-2505.5"/>
<polygon fill="#64748b" stroke="#64748b" points="1501.73,-2507.94 1508.92,-2506.11 1502.16,-2503.06 1501.73,-2507.94"/>
<text text-anchor="middle" x="1352.5" y="-2505.34" font-family="Helvetica,sans-Serif" font-size="8.00">provider_source_snapshot_object_source_snapshot_id_fkey</text>
</g>
<!-- security_reconciliation_evidence_source_snapshot -->
<g id="node35" class="node">
<title>security_reconciliation_evidence_source_snapshot</title>
<path fill="#f8fafc" stroke="#334155" d="M2264,-2229.74C2264,-2229.74 1998,-2229.74 1998,-2229.74 1992,-2229.74 1986,-2223.74 1986,-2217.74 1986,-2217.74 1986,-2205.74 1986,-2205.74 1986,-2199.74 1992,-2193.74 1998,-2193.74 1998,-2193.74 2264,-2193.74 2264,-2193.74 2270,-2193.74 2276,-2199.74 2276,-2205.74 2276,-2205.74 2276,-2217.74 2276,-2217.74 2276,-2223.74 2270,-2229.74 2264,-2229.74"/>
<text text-anchor="middle" x="2131" y="-2208.94" font-family="Helvetica,sans-Serif" font-size="11.00">security_reconciliation_evidence_source_snapshot</text>
</g>
<!-- provider_source_snapshot&#45;&gt;security_reconciliation_evidence_source_snapshot -->
<g id="edge60" class="edge">
<title>provider_source_snapshot&#45;&gt;security_reconciliation_evidence_source_snapshot</title>
<path fill="none" stroke="#64748b" d="M1187.03,-2460.08C1260.98,-2449.86 1375.13,-2433.81 1474,-2418.74 1578.16,-2402.87 1606.48,-2408.94 1708,-2380.74 1850.64,-2341.12 2010.83,-2268.82 2086.26,-2233.01"/>
<polygon fill="#64748b" stroke="#64748b" points="2087.59,-2235.09 2092.85,-2229.87 2085.48,-2230.67 2087.59,-2235.09"/>
<text text-anchor="middle" x="1607.5" y="-2416.34" font-family="Helvetica,sans-Serif" font-size="8.00">fk_sec_recon_evidence_snapshot_source</text>
</g>
<!-- security&#45;&gt;listing -->
<g id="edge61" class="edge">
<title>security&#45;&gt;listing</title>
<path fill="none" stroke="#64748b" d="M719.74,-747.61C740.4,-739.22 769.07,-728.26 795,-720.74 894.89,-691.8 1016.29,-670.32 1073.77,-660.94"/>
<polygon fill="#64748b" stroke="#64748b" points="1074.26,-663.34 1080.78,-659.81 1073.48,-658.51 1074.26,-663.34"/>
<text text-anchor="middle" x="890" y="-723.34" font-family="Helvetica,sans-Serif" font-size="8.00">fk_listing_security</text>
</g>
<!-- security&#45;&gt;provider_evidence -->
<g id="edge62" class="edge">
<title>security&#45;&gt;provider_evidence</title>
<path fill="none" stroke="#64748b" d="M703.81,-778.15C721.96,-803.32 757.22,-848.86 795,-879.74 797.69,-881.94 1227.66,-1124.77 1231,-1125.74 1387.81,-1171.34 1887.68,-1173.81 2066.02,-1173.18"/>
<polygon fill="#64748b" stroke="#64748b" points="2066.26,-1175.63 2073.25,-1173.16 2066.24,-1170.73 2066.26,-1175.63"/>
<text text-anchor="middle" x="1352.5" y="-1159.34" font-family="Helvetica,sans-Serif" font-size="8.00">fk_provider_evidence_security</text>
</g>
<!-- security&#45;&gt;security_event -->
<g id="edge63" class="edge">
<title>security&#45;&gt;security_event</title>
<path fill="none" stroke="#64748b" d="M690.43,-777.81C689.73,-834.57 695.95,-1010.54 795,-1093.74 933.29,-1209.9 1038.27,-1061.48 1198,-1145.74 1217.49,-1156.02 1213.3,-1169.62 1231,-1182.74 1334.07,-1259.2 1476.1,-1313.67 1552.56,-1339.61"/>
<polygon fill="#64748b" stroke="#64748b" points="1551.88,-1341.97 1559.3,-1341.89 1553.45,-1337.33 1551.88,-1341.97"/>
<text text-anchor="middle" x="1108" y="-1148.34" font-family="Helvetica,sans-Serif" font-size="8.00">fk_security_event_security</text>
</g>
<!-- security&#45;&gt;security_identifier -->
<g id="edge64" class="edge">
<title>security&#45;&gt;security_identifier</title>
<path fill="none" stroke="#64748b" d="M691.78,-778.07C696.45,-881.58 722.92,-1393.35 795,-1530.74 848.06,-1631.88 931.87,-1602.65 985,-1703.74 1035.5,-1799.83 952.6,-1859.11 1018,-1945.74 1024.9,-1954.89 1034.41,-1961.92 1044.64,-1967.33"/>
<polygon fill="#64748b" stroke="#64748b" points="1043.73,-1969.61 1051.1,-1970.49 1045.89,-1965.21 1043.73,-1969.61"/>
<text text-anchor="middle" x="890" y="-1706.34" font-family="Helvetica,sans-Serif" font-size="8.00">fk_security_identifier_security</text>
</g>
<!-- security_reconciliation_decision -->
<g id="node29" class="node">
<title>security_reconciliation_decision</title>
<path fill="#f8fafc" stroke="#334155" d="M2213,-329.74C2213,-329.74 2049,-329.74 2049,-329.74 2043,-329.74 2037,-323.74 2037,-317.74 2037,-317.74 2037,-305.74 2037,-305.74 2037,-299.74 2043,-293.74 2049,-293.74 2049,-293.74 2213,-293.74 2213,-293.74 2219,-293.74 2225,-299.74 2225,-305.74 2225,-305.74 2225,-317.74 2225,-317.74 2225,-323.74 2219,-329.74 2213,-329.74"/>
<text text-anchor="middle" x="2131" y="-308.94" font-family="Helvetica,sans-Serif" font-size="11.00">security_reconciliation_decision</text>
</g>
<!-- security&#45;&gt;security_reconciliation_decision -->
<g id="edge65" class="edge">
<title>security&#45;&gt;security_reconciliation_decision</title>
<path fill="none" stroke="#64748b" d="M709.96,-741.61C726.97,-724.02 750.9,-695.66 762,-665.74 782.06,-611.67 752.94,-187.21 795,-147.74 1179.15,212.71 1922.92,-189.45 2094.22,-290.09"/>
<polygon fill="#64748b" stroke="#64748b" points="2093.03,-292.23 2100.3,-293.68 2095.52,-288.01 2093.03,-292.23"/>
<text text-anchor="middle" x="1352.5" y="-35.34" font-family="Helvetica,sans-Serif" font-size="8.00">fk_sec_recon_decision_security</text>
</g>
<!-- security&#45;&gt;security_reconciliation_evaluation -->
<g id="edge66" class="edge">
<title>security&#45;&gt;security_reconciliation_evaluation</title>
<path fill="none" stroke="#64748b" d="M719.8,-757.29C772.46,-752.78 887.81,-742.81 985,-733.74 1202.43,-713.46 1256.75,-707.88 1474,-685.74 1482.35,-684.89 1491,-684 1499.69,-683.1"/>
<polygon fill="#64748b" stroke="#64748b" points="1499.96,-685.53 1506.67,-682.37 1499.45,-680.66 1499.96,-685.53"/>
<text text-anchor="middle" x="1108" y="-732.34" font-family="Helvetica,sans-Serif" font-size="8.00">fk_sec_recon_eval_related_security</text>
</g>
<!-- security&#45;&gt;security_reconciliation_evaluation -->
<g id="edge67" class="edge">
<title>security&#45;&gt;security_reconciliation_evaluation</title>
<path fill="none" stroke="#64748b" d="M708.77,-741.57C728.44,-722.25 761.77,-691.76 795,-671.74 960.35,-572.12 1030.02,-604.87 1198,-509.74 1214.01,-500.68 1213.56,-490.6 1231,-484.74 1333.38,-450.34 1378.06,-435.14 1474,-484.74 1540.63,-519.19 1580.97,-604.3 1597.62,-646.79"/>
<polygon fill="#64748b" stroke="#64748b" points="1595.39,-647.81 1600.18,-653.47 1599.96,-646.06 1595.39,-647.81"/>
<text text-anchor="middle" x="1108" y="-584.34" font-family="Helvetica,sans-Serif" font-size="8.00">fk_sec_recon_eval_security</text>
</g>
<!-- security&#45;&gt;security_reconciliation_evidence -->
<g id="edge68" class="edge">
<title>security&#45;&gt;security_reconciliation_evidence</title>
<path fill="none" stroke="#64748b" d="M719.75,-773.78C799.1,-811.9 1028.66,-917.99 1231,-970.74 1321.69,-994.39 1427.68,-1007.82 1503.88,-1015.08"/>
<polygon fill="#64748b" stroke="#64748b" points="1503.96,-1017.55 1511.16,-1015.77 1504.42,-1012.67 1503.96,-1017.55"/>
<text text-anchor="middle" x="1108" y="-963.34" font-family="Helvetica,sans-Serif" font-size="8.00">fk_sec_recon_evidence_security</text>
</g>
<!-- security&#45;&gt;security_successor_relationship -->
<g id="edge69" class="edge">
<title>security&#45;&gt;security_successor_relationship</title>
<path fill="none" stroke="#64748b" d="M708.6,-741.52C724.89,-723.65 748.54,-694.9 762,-665.74 790.42,-604.16 745.86,-563.49 795,-516.74 845.96,-468.26 1299.77,-416.75 1505.68,-395.64"/>
<polygon fill="#64748b" stroke="#64748b" points="1506.18,-398.05 1512.9,-394.9 1505.69,-393.18 1506.18,-398.05"/>
<text text-anchor="middle" x="1108" y="-459.34" font-family="Helvetica,sans-Serif" font-size="8.00">fk_security_successor_predecessor_security</text>
</g>
<!-- security&#45;&gt;security_successor_relationship -->
<g id="edge70" class="edge">
<title>security&#45;&gt;security_successor_relationship</title>
<path fill="none" stroke="#64748b" d="M709.02,-741.71C725.61,-723.97 749.48,-695.31 762,-665.74 799.19,-577.94 728.5,-522.09 795,-453.74 890.99,-355.09 1310.44,-367.17 1505.76,-378.61"/>
<polygon fill="#64748b" stroke="#64748b" points="1505.76,-381.06 1512.9,-379.03 1506.06,-376.17 1505.76,-381.06"/>
<text text-anchor="middle" x="1108" y="-384.34" font-family="Helvetica,sans-Serif" font-size="8.00">fk_security_successor_successor_security</text>
</g>
<!-- security_event&#45;&gt;provider_evidence -->
<g id="edge71" class="edge">
<title>security_event&#45;&gt;provider_evidence</title>
<path fill="none" stroke="#64748b" d="M1655.7,-1340.09C1751.38,-1306.33 1967.93,-1229.93 2072.01,-1193.2"/>
<polygon fill="#64748b" stroke="#64748b" points="2072.91,-1195.48 2078.7,-1190.84 2071.28,-1190.86 2072.91,-1195.48"/>
<text text-anchor="middle" x="1836" y="-1309.34" font-family="Helvetica,sans-Serif" font-size="8.00">fk_provider_evidence_event</text>
</g>
<!-- security_reconciliation_evaluation&#45;&gt;security_reconciliation_decision -->
<g id="edge72" class="edge">
<title>security_reconciliation_evaluation&#45;&gt;security_reconciliation_decision</title>
<path fill="none" stroke="#64748b" d="M1631.66,-653.63C1657.87,-633.28 1702,-599.46 1741,-571.74 1869.87,-480.16 2027.63,-377.55 2095.87,-333.62"/>
<polygon fill="#64748b" stroke="#64748b" points="2097.24,-335.65 2101.8,-329.8 2094.58,-331.53 2097.24,-335.65"/>
<text text-anchor="middle" x="1836" y="-574.34" font-family="Helvetica,sans-Serif" font-size="8.00">fk_sec_recon_decision_eval</text>
</g>
<!-- security_reconciliation_evaluation&#45;&gt;security_reconciliation_evaluation_evidence -->
<g id="edge73" class="edge">
<title>security_reconciliation_evaluation&#45;&gt;security_reconciliation_evaluation_evidence</title>
<path fill="none" stroke="#64748b" d="M1708.25,-658.84C1843.23,-644.04 2090.96,-626.29 2298,-663.74 2425.23,-686.76 2565.49,-750.16 2633.48,-783.55"/>
<polygon fill="#64748b" stroke="#64748b" points="2632.47,-785.78 2639.83,-786.68 2634.64,-781.39 2632.47,-785.78"/>
<text text-anchor="middle" x="2131" y="-666.34" font-family="Helvetica,sans-Serif" font-size="8.00">fk_sec_recon_eval_ev_eval</text>
</g>
<!-- security_reconciliation_evaluation_reconciliation_evidence -->
<g id="node32" class="node">
<title>security_reconciliation_evaluation_reconciliation_evidence</title>
<path fill="#f8fafc" stroke="#334155" d="M2286,-729.74C2286,-729.74 1976,-729.74 1976,-729.74 1970,-729.74 1964,-723.74 1964,-717.74 1964,-717.74 1964,-705.74 1964,-705.74 1964,-699.74 1970,-693.74 1976,-693.74 1976,-693.74 2286,-693.74 2286,-693.74 2292,-693.74 2298,-699.74 2298,-705.74 2298,-705.74 2298,-717.74 2298,-717.74 2298,-723.74 2292,-729.74 2286,-729.74"/>
<text text-anchor="middle" x="2131" y="-708.94" font-family="Helvetica,sans-Serif" font-size="11.00">security_reconciliation_evaluation_reconciliation_evidence</text>
</g>
<!-- security_reconciliation_evaluation&#45;&gt;security_reconciliation_evaluation_reconciliation_evidence -->
<g id="edge74" class="edge">
<title>security_reconciliation_evaluation&#45;&gt;security_reconciliation_evaluation_reconciliation_evidence</title>
<path fill="none" stroke="#64748b" d="M1708.18,-672.82C1771.99,-674.15 1856.49,-677.13 1931,-683.74 1956.41,-686 1983.54,-689.25 2009.34,-692.74"/>
<polygon fill="#64748b" stroke="#64748b" points="2009.31,-695.21 2016.58,-693.74 2009.97,-690.36 2009.31,-695.21"/>
<text text-anchor="middle" x="1836" y="-686.34" font-family="Helvetica,sans-Serif" font-size="8.00">fk_sec_recon_eval_recon_evidence_evaluation</text>
</g>
<!-- security_reconciliation_evidence&#45;&gt;security_reconciliation_evaluation_reconciliation_evidence -->
<g id="edge75" class="edge">
<title>security_reconciliation_evidence&#45;&gt;security_reconciliation_evaluation_reconciliation_evidence</title>
<path fill="none" stroke="#64748b" d="M1638.79,-1004.68C1728.98,-950.89 1995.55,-791.92 2093.43,-733.56"/>
<polygon fill="#64748b" stroke="#64748b" points="2094.87,-735.55 2099.62,-729.86 2092.36,-731.34 2094.87,-735.55"/>
<text text-anchor="middle" x="1836" y="-941.34" font-family="Helvetica,sans-Serif" font-size="8.00">fk_sec_recon_eval_recon_evidence_evidence</text>
</g>
<!-- security_reconciliation_evidence&#45;&gt;security_reconciliation_evidence_provider_evidence -->
<g id="edge76" class="edge">
<title>security_reconciliation_evidence&#45;&gt;security_reconciliation_evidence_provider_evidence</title>
<path fill="none" stroke="#64748b" d="M1703.61,-1031.13C1887.96,-1047.37 2295.41,-1083.29 2519.6,-1103.05"/>
<polygon fill="#64748b" stroke="#64748b" points="2519.65,-1105.51 2526.84,-1103.69 2520.08,-1100.63 2519.65,-1105.51"/>
<text text-anchor="middle" x="2131" y="-1084.34" font-family="Helvetica,sans-Serif" font-size="8.00">fk_sec_recon_evidence_provider_evidence</text>
</g>
<!-- security_reconciliation_evidence&#45;&gt;security_reconciliation_evidence_source_snapshot -->
<g id="edge77" class="edge">
<title>security_reconciliation_evidence&#45;&gt;security_reconciliation_evidence_source_snapshot</title>
<path fill="none" stroke="#64748b" d="M1616.41,-1040.85C1636.94,-1087.86 1693.65,-1217.68 1741,-1325.74 1890.61,-1667.18 2073.13,-2082.39 2119.1,-2186.95"/>
<polygon fill="#64748b" stroke="#64748b" points="2116.99,-2188.24 2122.05,-2193.66 2121.47,-2186.26 2116.99,-2188.24"/>
<text text-anchor="middle" x="1836" y="-1740.34" font-family="Helvetica,sans-Serif" font-size="8.00">fk_sec_recon_evidence_snapshot_evidence</text>
</g>
<!-- stg_iso10383_mic -->
<g id="node37" class="node">
<title>stg_iso10383_mic</title>
<path fill="#f8fafc" stroke="#334155" d="M135.5,-2231.74C135.5,-2231.74 48.5,-2231.74 48.5,-2231.74 42.5,-2231.74 36.5,-2225.74 36.5,-2219.74 36.5,-2219.74 36.5,-2207.74 36.5,-2207.74 36.5,-2201.74 42.5,-2195.74 48.5,-2195.74 48.5,-2195.74 135.5,-2195.74 135.5,-2195.74 141.5,-2195.74 147.5,-2201.74 147.5,-2207.74 147.5,-2207.74 147.5,-2219.74 147.5,-2219.74 147.5,-2225.74 141.5,-2231.74 135.5,-2231.74"/>
<text text-anchor="middle" x="92" y="-2210.94" font-family="Helvetica,sans-Serif" font-size="11.00">stg_iso10383_mic</text>
</g>
<!-- stg_iso3166_country -->
<g id="node38" class="node">
<title>stg_iso3166_country</title>
<path fill="#f8fafc" stroke="#334155" d="M143.5,-2310.74C143.5,-2310.74 40.5,-2310.74 40.5,-2310.74 34.5,-2310.74 28.5,-2304.74 28.5,-2298.74 28.5,-2298.74 28.5,-2286.74 28.5,-2286.74 28.5,-2280.74 34.5,-2274.74 40.5,-2274.74 40.5,-2274.74 143.5,-2274.74 143.5,-2274.74 149.5,-2274.74 155.5,-2280.74 155.5,-2286.74 155.5,-2286.74 155.5,-2298.74 155.5,-2298.74 155.5,-2304.74 149.5,-2310.74 143.5,-2310.74"/>
<text text-anchor="middle" x="92" y="-2289.94" font-family="Helvetica,sans-Serif" font-size="11.00">stg_iso3166_country</text>
</g>
<!-- stg_iso4217_currency -->
<g id="node39" class="node">
<title>stg_iso4217_currency</title>
<path fill="#f8fafc" stroke="#334155" d="M146.5,-2389.74C146.5,-2389.74 37.5,-2389.74 37.5,-2389.74 31.5,-2389.74 25.5,-2383.74 25.5,-2377.74 25.5,-2377.74 25.5,-2365.74 25.5,-2365.74 25.5,-2359.74 31.5,-2353.74 37.5,-2353.74 37.5,-2353.74 146.5,-2353.74 146.5,-2353.74 152.5,-2353.74 158.5,-2359.74 158.5,-2365.74 158.5,-2365.74 158.5,-2377.74 158.5,-2377.74 158.5,-2383.74 152.5,-2389.74 146.5,-2389.74"/>
<text text-anchor="middle" x="92" y="-2368.94" font-family="Helvetica,sans-Serif" font-size="11.00">stg_iso4217_currency</text>
</g>
<!-- stg_sec_sic_classification_code -->
<g id="node40" class="node">
<title>stg_sec_sic_classification_code</title>
<path fill="#f8fafc" stroke="#334155" d="M172,-2468.74C172,-2468.74 12,-2468.74 12,-2468.74 6,-2468.74 0,-2462.74 0,-2456.74 0,-2456.74 0,-2444.74 0,-2444.74 0,-2438.74 6,-2432.74 12,-2432.74 12,-2432.74 172,-2432.74 172,-2432.74 178,-2432.74 184,-2438.74 184,-2444.74 184,-2444.74 184,-2456.74 184,-2456.74 184,-2462.74 178,-2468.74 172,-2468.74"/>
<text text-anchor="middle" x="92" y="-2447.94" font-family="Helvetica,sans-Serif" font-size="11.00">stg_sec_sic_classification_code</text>
</g>
</g>
</svg>
