<?xml version="1.0" encoding="UTF-8" standalone="no"?>
<!DOCTYPE svg PUBLIC "-//W3C//DTD SVG 1.1//EN"
 "http://www.w3.org/Graphics/SVG/1.1/DTD/svg11.dtd">
<!-- Generated by graphviz version 2.42.4 (0)
 -->
<!-- Title: schema_relations Pages: 1 -->
<svg width="2523pt" height="2249pt"
 viewBox="0.00 0.00 2523.00 2249.39" xmlns="http://www.w3.org/2000/svg" xmlns:xlink="http://www.w3.org/1999/xlink">
<g id="graph0" class="graph" transform="scale(1 1) rotate(0) translate(18 2231.39)">
<title>schema_relations</title>
<!-- classification_code -->
<g id="node1" class="node">
<title>classification_code</title>
<path fill="#f8fafc" stroke="#334155" d="M1594,-162.39C1594,-162.39 1501,-162.39 1501,-162.39 1495,-162.39 1489,-156.39 1489,-150.39 1489,-150.39 1489,-138.39 1489,-138.39 1489,-132.39 1495,-126.39 1501,-126.39 1501,-126.39 1594,-126.39 1594,-126.39 1600,-126.39 1606,-132.39 1606,-138.39 1606,-138.39 1606,-150.39 1606,-150.39 1606,-156.39 1600,-162.39 1594,-162.39"/>
<text text-anchor="middle" x="1547.5" y="-141.59" font-family="Helvetica,sans-Serif" font-size="11.00">classification_code</text>
</g>
<!-- issuer_classification -->
<g id="node14" class="node">
<title>issuer_classification</title>
<path fill="#f8fafc" stroke="#334155" d="M1997,-227.39C1997,-227.39 1897,-227.39 1897,-227.39 1891,-227.39 1885,-221.39 1885,-215.39 1885,-215.39 1885,-203.39 1885,-203.39 1885,-197.39 1891,-191.39 1897,-191.39 1897,-191.39 1997,-191.39 1997,-191.39 2003,-191.39 2009,-197.39 2009,-203.39 2009,-203.39 2009,-215.39 2009,-215.39 2009,-221.39 2003,-227.39 1997,-227.39"/>
<text text-anchor="middle" x="1947" y="-206.59" font-family="Helvetica,sans-Serif" font-size="11.00">issuer_classification</text>
</g>
<!-- classification_code&#45;&gt;issuer_classification -->
<g id="edge1" class="edge">
<title>classification_code&#45;&gt;issuer_classification</title>
<path fill="none" stroke="#64748b" d="M1606.04,-152.83C1661.05,-161.01 1746.28,-173.96 1820,-186.39 1838.68,-189.54 1858.88,-193.14 1877.52,-196.55"/>
<polygon fill="#64748b" stroke="#64748b" points="1877.53,-199.04 1884.86,-197.89 1878.41,-194.22 1877.53,-199.04"/>
<text text-anchor="middle" x="1750.5" y="-188.99" font-family="Helvetica,sans-Serif" font-size="8.00">fk_issuer_class_code</text>
</g>
<!-- classification_system -->
<g id="node2" class="node">
<title>classification_system</title>
<path fill="#f8fafc" stroke="#334155" d="M1113,-162.39C1113,-162.39 1005,-162.39 1005,-162.39 999,-162.39 993,-156.39 993,-150.39 993,-150.39 993,-138.39 993,-138.39 993,-132.39 999,-126.39 1005,-126.39 1005,-126.39 1113,-126.39 1113,-126.39 1119,-126.39 1125,-132.39 1125,-138.39 1125,-138.39 1125,-150.39 1125,-150.39 1125,-156.39 1119,-162.39 1113,-162.39"/>
<text text-anchor="middle" x="1059" y="-141.59" font-family="Helvetica,sans-Serif" font-size="11.00">classification_system</text>
</g>
<!-- classification_system&#45;&gt;classification_code -->
<g id="edge2" class="edge">
<title>classification_system&#45;&gt;classification_code</title>
<path fill="none" stroke="#64748b" d="M1125.11,-144.39C1218.35,-144.39 1388.89,-144.39 1481.87,-144.39"/>
<polygon fill="#64748b" stroke="#64748b" points="1481.98,-146.84 1488.98,-144.39 1481.98,-141.94 1481.98,-146.84"/>
<text text-anchor="middle" x="1292.5" y="-146.99" font-family="Helvetica,sans-Serif" font-size="8.00">fk_classification_code_system</text>
</g>
<!-- confidence_level -->
<g id="node3" class="node">
<title>confidence_level</title>
<path fill="#f8fafc" stroke="#334155" d="M711.5,-1125.39C711.5,-1125.39 630.5,-1125.39 630.5,-1125.39 624.5,-1125.39 618.5,-1119.39 618.5,-1113.39 618.5,-1113.39 618.5,-1101.39 618.5,-1101.39 618.5,-1095.39 624.5,-1089.39 630.5,-1089.39 630.5,-1089.39 711.5,-1089.39 711.5,-1089.39 717.5,-1089.39 723.5,-1095.39 723.5,-1101.39 723.5,-1101.39 723.5,-1113.39 723.5,-1113.39 723.5,-1119.39 717.5,-1125.39 711.5,-1125.39"/>
<text text-anchor="middle" x="671" y="-1104.59" font-family="Helvetica,sans-Serif" font-size="11.00">confidence_level</text>
</g>
<!-- confidence_level&#45;&gt;issuer_classification -->
<g id="edge3" class="edge">
<title>confidence_level&#45;&gt;issuer_classification</title>
<path fill="none" stroke="#64748b" d="M714.84,-1089.2C769.31,-1065.81 866.01,-1023.43 947,-983.39 1033.46,-940.66 1058.06,-934.36 1138,-880.39 1470.25,-656.1 1827.73,-322.19 1922.08,-232.34"/>
<polygon fill="#64748b" stroke="#64748b" points="1923.77,-234.12 1927.15,-227.51 1920.39,-230.57 1923.77,-234.12"/>
<text text-anchor="middle" x="1292.5" y="-857.99" font-family="Helvetica,sans-Serif" font-size="8.00">fk_issuer_class_confidence</text>
</g>
<!-- issuer_identifier -->
<g id="node15" class="node">
<title>issuer_identifier</title>
<path fill="#f8fafc" stroke="#334155" d="M1098,-1398.39C1098,-1398.39 1020,-1398.39 1020,-1398.39 1014,-1398.39 1008,-1392.39 1008,-1386.39 1008,-1386.39 1008,-1374.39 1008,-1374.39 1008,-1368.39 1014,-1362.39 1020,-1362.39 1020,-1362.39 1098,-1362.39 1098,-1362.39 1104,-1362.39 1110,-1368.39 1110,-1374.39 1110,-1374.39 1110,-1386.39 1110,-1386.39 1110,-1392.39 1104,-1398.39 1098,-1398.39"/>
<text text-anchor="middle" x="1059" y="-1377.59" font-family="Helvetica,sans-Serif" font-size="11.00">issuer_identifier</text>
</g>
<!-- confidence_level&#45;&gt;issuer_identifier -->
<g id="edge4" class="edge">
<title>confidence_level&#45;&gt;issuer_identifier</title>
<path fill="none" stroke="#64748b" d="M676.5,-1125.54C692.36,-1189.14 745.29,-1398.54 757,-1407.39 832.11,-1464.18 949.83,-1428.08 1013.51,-1401.42"/>
<polygon fill="#64748b" stroke="#64748b" points="1014.77,-1403.54 1020.25,-1398.55 1012.85,-1399.04 1014.77,-1403.54"/>
<text text-anchor="middle" x="852" y="-1439.99" font-family="Helvetica,sans-Serif" font-size="8.00">fk_issuer_identifier_confidence</text>
</g>
<!-- issuer_name_history -->
<g id="node16" class="node">
<title>issuer_name_history</title>
<path fill="#f8fafc" stroke="#334155" d="M1110.5,-858.39C1110.5,-858.39 1007.5,-858.39 1007.5,-858.39 1001.5,-858.39 995.5,-852.39 995.5,-846.39 995.5,-846.39 995.5,-834.39 995.5,-834.39 995.5,-828.39 1001.5,-822.39 1007.5,-822.39 1007.5,-822.39 1110.5,-822.39 1110.5,-822.39 1116.5,-822.39 1122.5,-828.39 1122.5,-834.39 1122.5,-834.39 1122.5,-846.39 1122.5,-846.39 1122.5,-852.39 1116.5,-858.39 1110.5,-858.39"/>
<text text-anchor="middle" x="1059" y="-837.59" font-family="Helvetica,sans-Serif" font-size="11.00">issuer_name_history</text>
</g>
<!-- confidence_level&#45;&gt;issuer_name_history -->
<g id="edge5" class="edge">
<title>confidence_level&#45;&gt;issuer_name_history</title>
<path fill="none" stroke="#64748b" d="M678.5,-1089.22C689.8,-1060.3 715.88,-1004.05 757,-974.39 827.64,-923.45 871.9,-970.51 947,-926.39 965.43,-915.56 963.61,-905.12 980,-891.39 992.59,-880.86 1007.45,-870.66 1020.81,-862.19"/>
<polygon fill="#64748b" stroke="#64748b" points="1022.19,-864.22 1026.82,-858.43 1019.59,-860.06 1022.19,-864.22"/>
<text text-anchor="middle" x="852" y="-976.99" font-family="Helvetica,sans-Serif" font-size="8.00">fk_issuer_name_confidence</text>
</g>
<!-- listing_symbol_history -->
<g id="node18" class="node">
<title>listing_symbol_history</title>
<path fill="#f8fafc" stroke="#334155" d="M1603.5,-1144.39C1603.5,-1144.39 1491.5,-1144.39 1491.5,-1144.39 1485.5,-1144.39 1479.5,-1138.39 1479.5,-1132.39 1479.5,-1132.39 1479.5,-1120.39 1479.5,-1120.39 1479.5,-1114.39 1485.5,-1108.39 1491.5,-1108.39 1491.5,-1108.39 1603.5,-1108.39 1603.5,-1108.39 1609.5,-1108.39 1615.5,-1114.39 1615.5,-1120.39 1615.5,-1120.39 1615.5,-1132.39 1615.5,-1132.39 1615.5,-1138.39 1609.5,-1144.39 1603.5,-1144.39"/>
<text text-anchor="middle" x="1547.5" y="-1123.59" font-family="Helvetica,sans-Serif" font-size="11.00">listing_symbol_history</text>
</g>
<!-- confidence_level&#45;&gt;listing_symbol_history -->
<g id="edge6" class="edge">
<title>confidence_level&#45;&gt;listing_symbol_history</title>
<path fill="none" stroke="#64748b" d="M723.76,-1108.52C872.14,-1111.74 1299.38,-1121.02 1472.42,-1124.78"/>
<polygon fill="#64748b" stroke="#64748b" points="1472.41,-1127.23 1479.46,-1124.94 1472.52,-1122.34 1472.41,-1127.23"/>
<text text-anchor="middle" x="1059" y="-1118.99" font-family="Helvetica,sans-Serif" font-size="8.00">fk_listing_symbol_confidence</text>
</g>
<!-- security_event -->
<g id="node25" class="node">
<title>security_event</title>
<path fill="#f8fafc" stroke="#334155" d="M1583.5,-1056.39C1583.5,-1056.39 1511.5,-1056.39 1511.5,-1056.39 1505.5,-1056.39 1499.5,-1050.39 1499.5,-1044.39 1499.5,-1044.39 1499.5,-1032.39 1499.5,-1032.39 1499.5,-1026.39 1505.5,-1020.39 1511.5,-1020.39 1511.5,-1020.39 1583.5,-1020.39 1583.5,-1020.39 1589.5,-1020.39 1595.5,-1026.39 1595.5,-1032.39 1595.5,-1032.39 1595.5,-1044.39 1595.5,-1044.39 1595.5,-1050.39 1589.5,-1056.39 1583.5,-1056.39"/>
<text text-anchor="middle" x="1547.5" y="-1035.59" font-family="Helvetica,sans-Serif" font-size="11.00">security_event</text>
</g>
<!-- confidence_level&#45;&gt;security_event -->
<g id="edge7" class="edge">
<title>confidence_level&#45;&gt;security_event</title>
<path fill="none" stroke="#64748b" d="M723.67,-1101.67C734.66,-1100.53 746.21,-1099.37 757,-1098.39 1033.1,-1073.29 1364.19,-1050.5 1492.25,-1041.96"/>
<polygon fill="#64748b" stroke="#64748b" points="1492.47,-1044.4 1499.3,-1041.49 1492.15,-1039.51 1492.47,-1044.4"/>
<text text-anchor="middle" x="1059" y="-1080.99" font-family="Helvetica,sans-Serif" font-size="8.00">fk_security_event_confidence</text>
</g>
<!-- security_identifier -->
<g id="node26" class="node">
<title>security_identifier</title>
<path fill="#f8fafc" stroke="#334155" d="M1103.5,-1309.39C1103.5,-1309.39 1014.5,-1309.39 1014.5,-1309.39 1008.5,-1309.39 1002.5,-1303.39 1002.5,-1297.39 1002.5,-1297.39 1002.5,-1285.39 1002.5,-1285.39 1002.5,-1279.39 1008.5,-1273.39 1014.5,-1273.39 1014.5,-1273.39 1103.5,-1273.39 1103.5,-1273.39 1109.5,-1273.39 1115.5,-1279.39 1115.5,-1285.39 1115.5,-1285.39 1115.5,-1297.39 1115.5,-1297.39 1115.5,-1303.39 1109.5,-1309.39 1103.5,-1309.39"/>
<text text-anchor="middle" x="1059" y="-1288.59" font-family="Helvetica,sans-Serif" font-size="11.00">security_identifier</text>
</g>
<!-- confidence_level&#45;&gt;security_identifier -->
<g id="edge8" class="edge">
<title>confidence_level&#45;&gt;security_identifier</title>
<path fill="none" stroke="#64748b" d="M689.39,-1125.57C705.6,-1141.62 731.1,-1164.69 757,-1179.39 834.62,-1223.45 863.63,-1212.53 947,-1244.39 968.08,-1252.45 991.09,-1262.05 1010.66,-1270.48"/>
<polygon fill="#64748b" stroke="#64748b" points="1009.77,-1272.76 1017.16,-1273.28 1011.71,-1268.26 1009.77,-1272.76"/>
<text text-anchor="middle" x="852" y="-1246.99" font-family="Helvetica,sans-Serif" font-size="8.00">fk_security_identifier_confidence</text>
</g>
<!-- security_reconciliation_evaluation -->
<g id="node28" class="node">
<title>security_reconciliation_evaluation</title>
<path fill="#f8fafc" stroke="#334155" d="M1636,-1791.39C1636,-1791.39 1459,-1791.39 1459,-1791.39 1453,-1791.39 1447,-1785.39 1447,-1779.39 1447,-1779.39 1447,-1767.39 1447,-1767.39 1447,-1761.39 1453,-1755.39 1459,-1755.39 1459,-1755.39 1636,-1755.39 1636,-1755.39 1642,-1755.39 1648,-1761.39 1648,-1767.39 1648,-1767.39 1648,-1779.39 1648,-1779.39 1648,-1785.39 1642,-1791.39 1636,-1791.39"/>
<text text-anchor="middle" x="1547.5" y="-1770.59" font-family="Helvetica,sans-Serif" font-size="11.00">security_reconciliation_evaluation</text>
</g>
<!-- confidence_level&#45;&gt;security_reconciliation_evaluation -->
<g id="edge9" class="edge">
<title>confidence_level&#45;&gt;security_reconciliation_evaluation</title>
<path fill="none" stroke="#64748b" d="M723.68,-1121.43C800.28,-1142.24 936.15,-1179.18 947,-1182.39 1173.97,-1249.55 1286.95,-1238.68 1414,-1438.39 1458.59,-1508.49 1416.18,-1545.24 1447,-1622.39 1466.57,-1671.39 1503.32,-1721.13 1526.27,-1749.52"/>
<polygon fill="#64748b" stroke="#64748b" points="1524.62,-1751.37 1530.94,-1755.25 1528.41,-1748.27 1524.62,-1751.37"/>
<text text-anchor="middle" x="1059" y="-1234.99" font-family="Helvetica,sans-Serif" font-size="8.00">fk_sec_recon_eval_confidence</text>
</g>
<!-- exchange -->
<g id="node4" class="node">
<title>exchange</title>
<path fill="#f8fafc" stroke="#334155" d="M692.5,-648.39C692.5,-648.39 649.5,-648.39 649.5,-648.39 643.5,-648.39 637.5,-642.39 637.5,-636.39 637.5,-636.39 637.5,-624.39 637.5,-624.39 637.5,-618.39 643.5,-612.39 649.5,-612.39 649.5,-612.39 692.5,-612.39 692.5,-612.39 698.5,-612.39 704.5,-618.39 704.5,-624.39 704.5,-624.39 704.5,-636.39 704.5,-636.39 704.5,-642.39 698.5,-648.39 692.5,-648.39"/>
<text text-anchor="middle" x="671" y="-627.59" font-family="Helvetica,sans-Serif" font-size="11.00">exchange</text>
</g>
<!-- exchange_alias -->
<g id="node5" class="node">
<title>exchange_alias</title>
<path fill="#f8fafc" stroke="#334155" d="M1096,-692.39C1096,-692.39 1022,-692.39 1022,-692.39 1016,-692.39 1010,-686.39 1010,-680.39 1010,-680.39 1010,-668.39 1010,-668.39 1010,-662.39 1016,-656.39 1022,-656.39 1022,-656.39 1096,-656.39 1096,-656.39 1102,-656.39 1108,-662.39 1108,-668.39 1108,-668.39 1108,-680.39 1108,-680.39 1108,-686.39 1102,-692.39 1096,-692.39"/>
<text text-anchor="middle" x="1059" y="-671.59" font-family="Helvetica,sans-Serif" font-size="11.00">exchange_alias</text>
</g>
<!-- exchange&#45;&gt;exchange_alias -->
<g id="edge10" class="edge">
<title>exchange&#45;&gt;exchange_alias</title>
<path fill="none" stroke="#64748b" d="M704.9,-638.85C720.58,-642.6 739.66,-646.75 757,-649.39 842.18,-662.39 942.02,-669 1002.61,-672.07"/>
<polygon fill="#64748b" stroke="#64748b" points="1002.69,-674.53 1009.8,-672.43 1002.93,-669.63 1002.69,-674.53"/>
<text text-anchor="middle" x="852" y="-670.99" font-family="Helvetica,sans-Serif" font-size="8.00">fk_exchange_alias_exchange</text>
</g>
<!-- listing -->
<g id="node17" class="node">
<title>listing</title>
<path fill="#f8fafc" stroke="#334155" d="M1074,-1667.39C1074,-1667.39 1044,-1667.39 1044,-1667.39 1038,-1667.39 1032,-1661.39 1032,-1655.39 1032,-1655.39 1032,-1643.39 1032,-1643.39 1032,-1637.39 1038,-1631.39 1044,-1631.39 1044,-1631.39 1074,-1631.39 1074,-1631.39 1080,-1631.39 1086,-1637.39 1086,-1643.39 1086,-1643.39 1086,-1655.39 1086,-1655.39 1086,-1661.39 1080,-1667.39 1074,-1667.39"/>
<text text-anchor="middle" x="1059" y="-1646.59" font-family="Helvetica,sans-Serif" font-size="11.00">listing</text>
</g>
<!-- exchange&#45;&gt;listing -->
<g id="edge11" class="edge">
<title>exchange&#45;&gt;listing</title>
<path fill="none" stroke="#64748b" d="M678.77,-648.52C690.31,-680.36 713.58,-748.61 724,-808.39 734.36,-867.83 718.5,-1303.94 757,-1350.39 812.58,-1417.45 888.05,-1334.28 947,-1398.39 1007.98,-1464.71 930.81,-1522.92 980,-1598.39 990.84,-1615.03 1009.21,-1627.43 1025.4,-1635.84"/>
<polygon fill="#64748b" stroke="#64748b" points="1024.35,-1638.05 1031.71,-1638.98 1026.53,-1633.67 1024.35,-1638.05"/>
<text text-anchor="middle" x="852" y="-1400.99" font-family="Helvetica,sans-Serif" font-size="8.00">fk_listing_exchange</text>
</g>
<!-- identifier_type -->
<g id="node6" class="node">
<title>identifier_type</title>
<path fill="#f8fafc" stroke="#334155" d="M705.5,-1381.39C705.5,-1381.39 636.5,-1381.39 636.5,-1381.39 630.5,-1381.39 624.5,-1375.39 624.5,-1369.39 624.5,-1369.39 624.5,-1357.39 624.5,-1357.39 624.5,-1351.39 630.5,-1345.39 636.5,-1345.39 636.5,-1345.39 705.5,-1345.39 705.5,-1345.39 711.5,-1345.39 717.5,-1351.39 717.5,-1357.39 717.5,-1357.39 717.5,-1369.39 717.5,-1369.39 717.5,-1375.39 711.5,-1381.39 705.5,-1381.39"/>
<text text-anchor="middle" x="671" y="-1360.59" font-family="Helvetica,sans-Serif" font-size="11.00">identifier_type</text>
</g>
<!-- identifier_type&#45;&gt;issuer_identifier -->
<g id="edge12" class="edge">
<title>identifier_type&#45;&gt;issuer_identifier</title>
<path fill="none" stroke="#64748b" d="M680.78,-1381.42C693.67,-1405.55 720.22,-1447.28 757,-1464.39 833.56,-1500.03 868.98,-1496.71 947,-1464.39 966.16,-1456.46 963.9,-1444.47 980,-1431.39 992.74,-1421.04 1007.64,-1410.89 1020.97,-1402.39"/>
<polygon fill="#64748b" stroke="#64748b" points="1022.36,-1404.42 1026.98,-1398.62 1019.75,-1400.27 1022.36,-1404.42"/>
<text text-anchor="middle" x="852" y="-1491.99" font-family="Helvetica,sans-Serif" font-size="8.00">fk_issuer_identifier_type</text>
</g>
<!-- identifier_type&#45;&gt;security_identifier -->
<g id="edge13" class="edge">
<title>identifier_type&#45;&gt;security_identifier</title>
<path fill="none" stroke="#64748b" d="M684.86,-1345.15C699.69,-1325.85 726.06,-1296.55 757,-1284.39 834.76,-1253.84 932.76,-1264.17 995.41,-1276.24"/>
<polygon fill="#64748b" stroke="#64748b" points="995.15,-1278.68 1002.5,-1277.64 996.1,-1273.88 995.15,-1278.68"/>
<text text-anchor="middle" x="852" y="-1286.99" font-family="Helvetica,sans-Serif" font-size="8.00">fk_security_identifier_type</text>
</g>
<!-- instrument_class -->
<g id="node7" class="node">
<title>instrument_class</title>
<path fill="#f8fafc" stroke="#334155" d="M134,-1877.39C134,-1877.39 50,-1877.39 50,-1877.39 44,-1877.39 38,-1871.39 38,-1865.39 38,-1865.39 38,-1853.39 38,-1853.39 38,-1847.39 44,-1841.39 50,-1841.39 50,-1841.39 134,-1841.39 134,-1841.39 140,-1841.39 146,-1847.39 146,-1853.39 146,-1853.39 146,-1865.39 146,-1865.39 146,-1871.39 140,-1877.39 134,-1877.39"/>
<text text-anchor="middle" x="92" y="-1856.59" font-family="Helvetica,sans-Serif" font-size="11.00">instrument_class</text>
</g>
<!-- instrument_type -->
<g id="node8" class="node">
<title>instrument_type</title>
<path fill="#f8fafc" stroke="#334155" d="M454,-1877.39C454,-1877.39 373,-1877.39 373,-1877.39 367,-1877.39 361,-1871.39 361,-1865.39 361,-1865.39 361,-1853.39 361,-1853.39 361,-1847.39 367,-1841.39 373,-1841.39 373,-1841.39 454,-1841.39 454,-1841.39 460,-1841.39 466,-1847.39 466,-1853.39 466,-1853.39 466,-1865.39 466,-1865.39 466,-1871.39 460,-1877.39 454,-1877.39"/>
<text text-anchor="middle" x="413.5" y="-1856.59" font-family="Helvetica,sans-Serif" font-size="11.00">instrument_type</text>
</g>
<!-- instrument_class&#45;&gt;instrument_type -->
<g id="edge14" class="edge">
<title>instrument_class&#45;&gt;instrument_type</title>
<path fill="none" stroke="#64748b" d="M146.12,-1859.39C203.41,-1859.39 294.38,-1859.39 353.76,-1859.39"/>
<polygon fill="#64748b" stroke="#64748b" points="353.85,-1861.84 360.85,-1859.39 353.85,-1856.94 353.85,-1861.84"/>
<text text-anchor="middle" x="271" y="-1861.99" font-family="Helvetica,sans-Serif" font-size="8.00">fk_instrument_type_class</text>
</g>
<!-- security -->
<g id="node24" class="node">
<title>security</title>
<path fill="#f8fafc" stroke="#334155" d="M688.5,-1867.39C688.5,-1867.39 653.5,-1867.39 653.5,-1867.39 647.5,-1867.39 641.5,-1861.39 641.5,-1855.39 641.5,-1855.39 641.5,-1843.39 641.5,-1843.39 641.5,-1837.39 647.5,-1831.39 653.5,-1831.39 653.5,-1831.39 688.5,-1831.39 688.5,-1831.39 694.5,-1831.39 700.5,-1837.39 700.5,-1843.39 700.5,-1843.39 700.5,-1855.39 700.5,-1855.39 700.5,-1861.39 694.5,-1867.39 688.5,-1867.39"/>
<text text-anchor="middle" x="671" y="-1846.59" font-family="Helvetica,sans-Serif" font-size="11.00">security</text>
</g>
<!-- instrument_type&#45;&gt;security -->
<g id="edge15" class="edge">
<title>instrument_type&#45;&gt;security</title>
<path fill="none" stroke="#64748b" d="M466.2,-1857.37C516.21,-1855.41 590.65,-1852.5 634.36,-1850.79"/>
<polygon fill="#64748b" stroke="#64748b" points="634.47,-1853.24 641.37,-1850.51 634.27,-1848.34 634.47,-1853.24"/>
<text text-anchor="middle" x="543.5" y="-1857.99" font-family="Helvetica,sans-Serif" font-size="8.00">fk_security_type</text>
</g>
<!-- iso10383_mic -->
<g id="node9" class="node">
<title>iso10383_mic</title>
<path fill="#f8fafc" stroke="#334155" d="M446,-647.39C446,-647.39 381,-647.39 381,-647.39 375,-647.39 369,-641.39 369,-635.39 369,-635.39 369,-623.39 369,-623.39 369,-617.39 375,-611.39 381,-611.39 381,-611.39 446,-611.39 446,-611.39 452,-611.39 458,-617.39 458,-623.39 458,-623.39 458,-635.39 458,-635.39 458,-641.39 452,-647.39 446,-647.39"/>
<text text-anchor="middle" x="413.5" y="-626.59" font-family="Helvetica,sans-Serif" font-size="11.00">iso10383_mic</text>
</g>
<!-- iso10383_mic&#45;&gt;exchange -->
<g id="edge16" class="edge">
<title>iso10383_mic&#45;&gt;exchange</title>
<path fill="none" stroke="#64748b" d="M458.13,-629.56C506.43,-629.75 583.61,-630.06 630.28,-630.24"/>
<polygon fill="#64748b" stroke="#64748b" points="630.48,-632.69 637.49,-630.27 630.5,-627.79 630.48,-632.69"/>
<text text-anchor="middle" x="543.5" y="-631.99" font-family="Helvetica,sans-Serif" font-size="8.00">fk_exchange_mic</text>
</g>
<!-- iso10383_mic&#45;&gt;iso10383_mic -->
<g id="edge17" class="edge">
<title>iso10383_mic&#45;&gt;iso10383_mic</title>
<path fill="none" stroke="#64748b" d="M395.22,-647.5C383.03,-667.52 389.12,-690.39 413.5,-690.39 435.21,-690.39 442.42,-672.25 435.12,-654.14"/>
<polygon fill="#64748b" stroke="#64748b" points="437.12,-652.65 431.78,-647.5 432.74,-654.86 437.12,-652.65"/>
<text text-anchor="middle" x="413.5" y="-692.99" font-family="Helvetica,sans-Serif" font-size="8.00">fk_iso10383_mic_operating</text>
</g>
<!-- iso10383_mic_cat -->
<g id="node10" class="node">
<title>iso10383_mic_cat</title>
<path fill="#f8fafc" stroke="#334155" d="M135.5,-715.39C135.5,-715.39 48.5,-715.39 48.5,-715.39 42.5,-715.39 36.5,-709.39 36.5,-703.39 36.5,-703.39 36.5,-691.39 36.5,-691.39 36.5,-685.39 42.5,-679.39 48.5,-679.39 48.5,-679.39 135.5,-679.39 135.5,-679.39 141.5,-679.39 147.5,-685.39 147.5,-691.39 147.5,-691.39 147.5,-703.39 147.5,-703.39 147.5,-709.39 141.5,-715.39 135.5,-715.39"/>
<text text-anchor="middle" x="92" y="-694.59" font-family="Helvetica,sans-Serif" font-size="11.00">iso10383_mic_cat</text>
</g>
<!-- iso10383_mic_cat&#45;&gt;iso10383_mic -->
<g id="edge18" class="edge">
<title>iso10383_mic_cat&#45;&gt;iso10383_mic</title>
<path fill="none" stroke="#64748b" d="M147.56,-685.78C207.68,-672.99 303.56,-652.58 362,-640.14"/>
<polygon fill="#64748b" stroke="#64748b" points="362.6,-642.52 368.94,-638.66 361.58,-637.72 362.6,-642.52"/>
<text text-anchor="middle" x="271" y="-671.99" font-family="Helvetica,sans-Serif" font-size="8.00">fk_iso10383_mic_category</text>
</g>
<!-- iso3166_country -->
<g id="node11" class="node">
<title>iso3166_country</title>
<path fill="#f8fafc" stroke="#334155" d="M132.5,-636.39C132.5,-636.39 51.5,-636.39 51.5,-636.39 45.5,-636.39 39.5,-630.39 39.5,-624.39 39.5,-624.39 39.5,-612.39 39.5,-612.39 39.5,-606.39 45.5,-600.39 51.5,-600.39 51.5,-600.39 132.5,-600.39 132.5,-600.39 138.5,-600.39 144.5,-606.39 144.5,-612.39 144.5,-612.39 144.5,-624.39 144.5,-624.39 144.5,-630.39 138.5,-636.39 132.5,-636.39"/>
<text text-anchor="middle" x="92" y="-615.59" font-family="Helvetica,sans-Serif" font-size="11.00">iso3166_country</text>
</g>
<!-- iso3166_country&#45;&gt;exchange -->
<g id="edge19" class="edge">
<title>iso3166_country&#45;&gt;exchange</title>
<path fill="none" stroke="#64748b" d="M144.77,-606.17C217.35,-590.66 353.4,-567.51 469,-581.39 526.14,-588.26 590.49,-605.72 630.65,-617.83"/>
<polygon fill="#64748b" stroke="#64748b" points="629.96,-620.18 637.37,-619.88 631.38,-615.5 629.96,-620.18"/>
<text text-anchor="middle" x="413.5" y="-583.99" font-family="Helvetica,sans-Serif" font-size="8.00">fk_exchange_country</text>
</g>
<!-- iso3166_country&#45;&gt;iso10383_mic -->
<g id="edge20" class="edge">
<title>iso3166_country&#45;&gt;iso10383_mic</title>
<path fill="none" stroke="#64748b" d="M144.69,-620.17C204.43,-622.23 302.12,-625.59 361.55,-627.64"/>
<polygon fill="#64748b" stroke="#64748b" points="361.52,-630.09 368.6,-627.88 361.69,-625.19 361.52,-630.09"/>
<text text-anchor="middle" x="271" y="-627.99" font-family="Helvetica,sans-Serif" font-size="8.00">fk_iso10383_mic_country</text>
</g>
<!-- issuer -->
<g id="node13" class="node">
<title>issuer</title>
<path fill="#f8fafc" stroke="#334155" d="M428.5,-1222.39C428.5,-1222.39 398.5,-1222.39 398.5,-1222.39 392.5,-1222.39 386.5,-1216.39 386.5,-1210.39 386.5,-1210.39 386.5,-1198.39 386.5,-1198.39 386.5,-1192.39 392.5,-1186.39 398.5,-1186.39 398.5,-1186.39 428.5,-1186.39 428.5,-1186.39 434.5,-1186.39 440.5,-1192.39 440.5,-1198.39 440.5,-1198.39 440.5,-1210.39 440.5,-1210.39 440.5,-1216.39 434.5,-1222.39 428.5,-1222.39"/>
<text text-anchor="middle" x="413.5" y="-1201.59" font-family="Helvetica,sans-Serif" font-size="11.00">issuer</text>
</g>
<!-- iso3166_country&#45;&gt;issuer -->
<g id="edge21" class="edge">
<title>iso3166_country&#45;&gt;issuer</title>
<path fill="none" stroke="#64748b" d="M144.91,-633.26C158.96,-639.26 173.24,-647.44 184,-658.39 338.83,-816 394.77,-1094.02 408.71,-1179"/>
<polygon fill="#64748b" stroke="#64748b" points="406.33,-1179.64 409.86,-1186.16 411.17,-1178.86 406.33,-1179.64"/>
<text text-anchor="middle" x="271" y="-875.99" font-family="Helvetica,sans-Serif" font-size="8.00">fk_issuer_country</text>
</g>
<!-- iso4217_currency -->
<g id="node12" class="node">
<title>iso4217_currency</title>
<path fill="#f8fafc" stroke="#334155" d="M457,-1998.39C457,-1998.39 370,-1998.39 370,-1998.39 364,-1998.39 358,-1992.39 358,-1986.39 358,-1986.39 358,-1974.39 358,-1974.39 358,-1968.39 364,-1962.39 370,-1962.39 370,-1962.39 457,-1962.39 457,-1962.39 463,-1962.39 469,-1968.39 469,-1974.39 469,-1974.39 469,-1986.39 469,-1986.39 469,-1992.39 463,-1998.39 457,-1998.39"/>
<text text-anchor="middle" x="413.5" y="-1977.59" font-family="Helvetica,sans-Serif" font-size="11.00">iso4217_currency</text>
</g>
<!-- iso4217_currency&#45;&gt;listing -->
<g id="edge22" class="edge">
<title>iso4217_currency&#45;&gt;listing</title>
<path fill="none" stroke="#64748b" d="M469.26,-1976.85C573.1,-1967.54 801.25,-1934.36 947,-1818.39 996.7,-1778.85 1031.6,-1710.78 1047.79,-1674.26"/>
<polygon fill="#64748b" stroke="#64748b" points="1050.23,-1674.79 1050.77,-1667.4 1045.73,-1672.84 1050.23,-1674.79"/>
<text text-anchor="middle" x="671" y="-1955.99" font-family="Helvetica,sans-Serif" font-size="8.00">fk_listing_currency</text>
</g>
<!-- iso4217_currency&#45;&gt;security -->
<g id="edge23" class="edge">
<title>iso4217_currency&#45;&gt;security</title>
<path fill="none" stroke="#64748b" d="M449.76,-1962.32C498.63,-1937.26 586.41,-1892.25 635.09,-1867.29"/>
<polygon fill="#64748b" stroke="#64748b" points="636.3,-1869.43 641.41,-1864.05 634.06,-1865.07 636.3,-1869.43"/>
<text text-anchor="middle" x="543.5" y="-1935.99" font-family="Helvetica,sans-Serif" font-size="8.00">fk_security_currency</text>
</g>
<!-- issuer&#45;&gt;issuer_classification -->
<g id="edge24" class="edge">
<title>issuer&#45;&gt;issuer_classification</title>
<path fill="none" stroke="#64748b" d="M419.55,-1186.18C432.71,-1138.9 469.29,-1008.41 502,-900.39 537.28,-783.89 556.07,-757.63 585,-639.39 642.55,-404.17 563.44,-267.92 757,-122.39 1120.47,150.87 1735.81,-108.99 1902.99,-188.16"/>
<polygon fill="#64748b" stroke="#64748b" points="1902.31,-190.55 1909.69,-191.35 1904.42,-186.13 1902.31,-190.55"/>
<text text-anchor="middle" x="1059" y="-23.99" font-family="Helvetica,sans-Serif" font-size="8.00">fk_issuer_class_issuer</text>
</g>
<!-- issuer&#45;&gt;issuer_identifier -->
<g id="edge25" class="edge">
<title>issuer&#45;&gt;issuer_identifier</title>
<path fill="none" stroke="#64748b" d="M426.65,-1222.69C465.96,-1279.86 596.44,-1454.56 757,-1508.39 837.06,-1535.23 876.5,-1554.88 947,-1508.39 978.08,-1487.9 956.06,-1459.91 980,-1431.39 989.65,-1419.89 1002.56,-1410.03 1015.09,-1402.12"/>
<polygon fill="#64748b" stroke="#64748b" points="1016.5,-1404.14 1021.2,-1398.4 1013.95,-1399.95 1016.5,-1404.14"/>
<text text-anchor="middle" x="671" y="-1494.99" font-family="Helvetica,sans-Serif" font-size="8.00">fk_issuer_identifier_issuer</text>
</g>
<!-- issuer&#45;&gt;issuer_name_history -->
<g id="edge26" class="edge">
<title>issuer&#45;&gt;issuer_name_history</title>
<path fill="none" stroke="#64748b" d="M426.45,-1186.18C465.61,-1128.2 596.88,-947.36 757,-872.39 830.55,-837.96 925,-833.44 988.3,-835.26"/>
<polygon fill="#64748b" stroke="#64748b" points="988.4,-837.72 995.48,-835.5 988.56,-832.82 988.4,-837.72"/>
<text text-anchor="middle" x="671" y="-966.99" font-family="Helvetica,sans-Serif" font-size="8.00">fk_issuer_name_issuer</text>
</g>
<!-- provider_evidence -->
<g id="node20" class="node">
<title>provider_evidence</title>
<path fill="#f8fafc" stroke="#334155" d="M1992.5,-1565.39C1992.5,-1565.39 1901.5,-1565.39 1901.5,-1565.39 1895.5,-1565.39 1889.5,-1559.39 1889.5,-1553.39 1889.5,-1553.39 1889.5,-1541.39 1889.5,-1541.39 1889.5,-1535.39 1895.5,-1529.39 1901.5,-1529.39 1901.5,-1529.39 1992.5,-1529.39 1992.5,-1529.39 1998.5,-1529.39 2004.5,-1535.39 2004.5,-1541.39 2004.5,-1541.39 2004.5,-1553.39 2004.5,-1553.39 2004.5,-1559.39 1998.5,-1565.39 1992.5,-1565.39"/>
<text text-anchor="middle" x="1947" y="-1544.59" font-family="Helvetica,sans-Serif" font-size="11.00">provider_evidence</text>
</g>
<!-- issuer&#45;&gt;provider_evidence -->
<g id="edge27" class="edge">
<title>issuer&#45;&gt;provider_evidence</title>
<path fill="none" stroke="#64748b" d="M420.48,-1222.4C432.57,-1257.32 462.19,-1335.85 502,-1393.39 578.12,-1503.42 624.64,-1533.83 757,-1553.39 840.54,-1565.74 862.68,-1558.01 947,-1553.39 1032.27,-1548.72 1063.11,-1573.43 1138,-1532.39 1158.51,-1521.15 1149.9,-1501.49 1171,-1491.39 1268.41,-1444.75 1306.15,-1485.73 1414,-1491.39 1583.82,-1500.31 1782.88,-1525.12 1882.47,-1538.53"/>
<polygon fill="#64748b" stroke="#64748b" points="1882.2,-1540.96 1889.47,-1539.47 1882.86,-1536.11 1882.2,-1540.96"/>
<text text-anchor="middle" x="1059" y="-1558.99" font-family="Helvetica,sans-Serif" font-size="8.00">fk_provider_evidence_issuer</text>
</g>
<!-- issuer&#45;&gt;security -->
<g id="edge28" class="edge">
<title>issuer&#45;&gt;security</title>
<path fill="none" stroke="#64748b" d="M415.28,-1222.46C419.27,-1307.32 439.59,-1665.92 502,-1755.39 533.77,-1800.94 595.07,-1826.96 634.19,-1839.62"/>
<polygon fill="#64748b" stroke="#64748b" points="633.81,-1842.07 641.22,-1841.83 635.28,-1837.39 633.81,-1842.07"/>
<text text-anchor="middle" x="543.5" y="-1820.99" font-family="Helvetica,sans-Serif" font-size="8.00">fk_security_issuer</text>
</g>
<!-- issuer&#45;&gt;security_event -->
<g id="edge29" class="edge">
<title>issuer&#45;&gt;security_event</title>
<path fill="none" stroke="#64748b" d="M418.92,-1186.3C429,-1147.46 456.42,-1054.27 502,-988.39 512.46,-973.28 748.68,-757.62 757,-754.39 1054.88,-638.8 1421.93,-929.81 1520.91,-1015.49"/>
<polygon fill="#64748b" stroke="#64748b" points="1519.34,-1017.38 1526.23,-1020.13 1522.56,-1013.68 1519.34,-1017.38"/>
<text text-anchor="middle" x="852" y="-756.99" font-family="Helvetica,sans-Serif" font-size="8.00">fk_security_event_issuer</text>
</g>
<!-- issuer&#45;&gt;security_reconciliation_evaluation -->
<g id="edge30" class="edge">
<title>issuer&#45;&gt;security_reconciliation_evaluation</title>
<path fill="none" stroke="#64748b" d="M415.1,-1222.49C418.11,-1301.3 434.21,-1613.41 502,-1677.39 574.48,-1745.81 848.22,-1720.12 947,-1733.39 1046.67,-1746.78 1070.77,-1757.2 1171,-1765.39 1261.34,-1772.78 1364.3,-1774.5 1439.52,-1774.54"/>
<polygon fill="#64748b" stroke="#64748b" points="1439.72,-1776.99 1446.72,-1774.53 1439.72,-1772.09 1439.72,-1776.99"/>
<text text-anchor="middle" x="852" y="-1735.99" font-family="Helvetica,sans-Serif" font-size="8.00">fk_sec_recon_eval_issuer</text>
</g>
<!-- listing&#45;&gt;listing_symbol_history -->
<g id="edge31" class="edge">
<title>listing&#45;&gt;listing_symbol_history</title>
<path fill="none" stroke="#64748b" d="M1086.02,-1633.7C1107.97,-1621.1 1140.59,-1603.85 1171,-1593.39 1275.11,-1557.6 1331.95,-1618.79 1414,-1545.39 1533.57,-1438.44 1546.11,-1224.49 1546.77,-1151.48"/>
<polygon fill="#64748b" stroke="#64748b" points="1549.22,-1151.48 1546.8,-1144.47 1544.32,-1151.46 1549.22,-1151.48"/>
<text text-anchor="middle" x="1292.5" y="-1595.99" font-family="Helvetica,sans-Serif" font-size="8.00">fk_listing_symbol_listing</text>
</g>
<!-- listing&#45;&gt;provider_evidence -->
<g id="edge32" class="edge">
<title>listing&#45;&gt;provider_evidence</title>
<path fill="none" stroke="#64748b" d="M1086.04,-1646.4C1205.63,-1632.63 1704.07,-1575.25 1882.29,-1554.73"/>
<polygon fill="#64748b" stroke="#64748b" points="1882.59,-1557.16 1889.26,-1553.93 1882.03,-1552.29 1882.59,-1557.16"/>
<text text-anchor="middle" x="1547.5" y="-1605.99" font-family="Helvetica,sans-Serif" font-size="8.00">fk_provider_evidence_listing</text>
</g>
<!-- listing&#45;&gt;security_event -->
<g id="edge33" class="edge">
<title>listing&#45;&gt;security_event</title>
<path fill="none" stroke="#64748b" d="M1086.29,-1636.59C1102.69,-1627.62 1123.37,-1614.4 1138,-1598.39 1159.06,-1575.35 1147.42,-1556.85 1171,-1536.39 1257.77,-1461.12 1343.82,-1539.33 1414,-1448.39 1463.22,-1384.62 1401.37,-1153.78 1447,-1087.39 1457.83,-1071.63 1475.24,-1060.73 1492.48,-1053.28"/>
<polygon fill="#64748b" stroke="#64748b" points="1493.76,-1055.4 1499.32,-1050.49 1491.92,-1050.86 1493.76,-1055.4"/>
<text text-anchor="middle" x="1292.5" y="-1538.99" font-family="Helvetica,sans-Serif" font-size="8.00">fk_security_event_listing</text>
</g>
<!-- listing&#45;&gt;security_reconciliation_evaluation -->
<g id="edge34" class="edge">
<title>listing&#45;&gt;security_reconciliation_evaluation</title>
<path fill="none" stroke="#64748b" d="M1086.07,-1649.82C1145.72,-1651.5 1296.06,-1659.68 1414,-1699.39 1450.76,-1711.77 1489.05,-1734.38 1514.96,-1751.36"/>
<polygon fill="#64748b" stroke="#64748b" points="1513.76,-1753.51 1520.95,-1755.33 1516.47,-1749.42 1513.76,-1753.51"/>
<text text-anchor="middle" x="1292.5" y="-1701.99" font-family="Helvetica,sans-Serif" font-size="8.00">fk_sec_recon_eval_listing</text>
</g>
<!-- listing&#45;&gt;security_reconciliation_evaluation -->
<g id="edge35" class="edge">
<title>listing&#45;&gt;security_reconciliation_evaluation</title>
<path fill="none" stroke="#64748b" d="M1086.28,-1666.45C1108.12,-1679.84 1140.44,-1697.93 1171,-1708.39 1219.42,-1724.98 1346.47,-1745.26 1439.42,-1758.71"/>
<polygon fill="#64748b" stroke="#64748b" points="1439.34,-1761.17 1446.61,-1759.75 1440.03,-1756.32 1439.34,-1761.17"/>
<text text-anchor="middle" x="1292.5" y="-1755.99" font-family="Helvetica,sans-Serif" font-size="8.00">fk_sec_recon_eval_related_listing</text>
</g>
<!-- provider -->
<g id="node19" class="node">
<title>provider</title>
<path fill="#f8fafc" stroke="#334155" d="M689,-506.39C689,-506.39 653,-506.39 653,-506.39 647,-506.39 641,-500.39 641,-494.39 641,-494.39 641,-482.39 641,-482.39 641,-476.39 647,-470.39 653,-470.39 653,-470.39 689,-470.39 689,-470.39 695,-470.39 701,-476.39 701,-482.39 701,-482.39 701,-494.39 701,-494.39 701,-500.39 695,-506.39 689,-506.39"/>
<text text-anchor="middle" x="671" y="-485.59" font-family="Helvetica,sans-Serif" font-size="11.00">provider</text>
</g>
<!-- provider&#45;&gt;classification_system -->
<g id="edge36" class="edge">
<title>provider&#45;&gt;classification_system</title>
<path fill="none" stroke="#64748b" d="M675.95,-469.99C689.56,-407.43 734.84,-205.73 757,-186.39 819.33,-132 918.21,-128.48 985.5,-133.92"/>
<polygon fill="#64748b" stroke="#64748b" points="985.54,-136.38 992.72,-134.55 985.96,-131.5 985.54,-136.38"/>
<text text-anchor="middle" x="852" y="-188.99" font-family="Helvetica,sans-Serif" font-size="8.00">fk_classification_system_provider</text>
</g>
<!-- provider&#45;&gt;exchange_alias -->
<g id="edge37" class="edge">
<title>provider&#45;&gt;exchange_alias</title>
<path fill="none" stroke="#64748b" d="M700.21,-506.4C716.34,-516.08 737.24,-527.59 757,-535.39 838,-567.4 873.4,-536.82 947,-583.39 966.47,-595.72 962.83,-608.02 980,-623.39 992.02,-634.15 1006.52,-644.27 1019.73,-652.61"/>
<polygon fill="#64748b" stroke="#64748b" points="1018.46,-654.71 1025.7,-656.31 1021.04,-650.54 1018.46,-654.71"/>
<text text-anchor="middle" x="852" y="-585.99" font-family="Helvetica,sans-Serif" font-size="8.00">fk_exchange_alias_provider</text>
</g>
<!-- provider&#45;&gt;issuer_classification -->
<g id="edge38" class="edge">
<title>provider&#45;&gt;issuer_classification</title>
<path fill="none" stroke="#64748b" d="M674.63,-470.22C681.13,-432.56 701.59,-346.05 757,-304.39 846.74,-236.92 1637.79,-215.59 1877.47,-210.64"/>
<polygon fill="#64748b" stroke="#64748b" points="1877.79,-213.09 1884.74,-210.5 1877.69,-208.19 1877.79,-213.09"/>
<text text-anchor="middle" x="1292.5" y="-241.99" font-family="Helvetica,sans-Serif" font-size="8.00">fk_issuer_class_provider</text>
</g>
<!-- provider&#45;&gt;issuer_identifier -->
<g id="edge39" class="edge">
<title>provider&#45;&gt;issuer_identifier</title>
<path fill="none" stroke="#64748b" d="M683.65,-506.55C695.84,-526.51 714.52,-559.94 724,-591.39 741.96,-650.96 715.94,-822.65 757,-869.39 814.48,-934.83 890.79,-850.86 947,-917.39 1006.56,-987.9 932.18,-1252.46 980,-1331.39 986.71,-1342.47 996.99,-1351.45 1007.89,-1358.54"/>
<polygon fill="#64748b" stroke="#64748b" points="1006.75,-1360.71 1014,-1362.28 1009.32,-1356.54 1006.75,-1360.71"/>
<text text-anchor="middle" x="852" y="-919.99" font-family="Helvetica,sans-Serif" font-size="8.00">fk_issuer_identifier_provider</text>
</g>
<!-- provider&#45;&gt;issuer_name_history -->
<g id="edge40" class="edge">
<title>provider&#45;&gt;issuer_name_history</title>
<path fill="none" stroke="#64748b" d="M681.8,-506.46C695.49,-529.93 722.57,-570.49 757,-592.39 830.49,-639.14 880.35,-584.32 947,-640.39 974.56,-663.58 963.15,-682.57 980,-714.39 999.31,-750.87 1025.04,-791.1 1041.57,-816.06"/>
<polygon fill="#64748b" stroke="#64748b" points="1039.65,-817.6 1045.57,-822.07 1043.73,-814.88 1039.65,-817.6"/>
<text text-anchor="middle" x="852" y="-642.99" font-family="Helvetica,sans-Serif" font-size="8.00">fk_issuer_name_provider</text>
</g>
<!-- provider&#45;&gt;listing_symbol_history -->
<g id="edge41" class="edge">
<title>provider&#45;&gt;listing_symbol_history</title>
<path fill="none" stroke="#64748b" d="M701.36,-490.43C752.61,-494.69 861.11,-506.93 947,-538.39 962.89,-544.21 964.89,-549.77 980,-557.39 1048.42,-591.9 1082.27,-573.81 1138,-626.39 1161.56,-648.63 1154.21,-663.68 1171,-691.39 1280.46,-872.09 1285.47,-942.23 1447,-1078.39 1459.77,-1089.16 1475.36,-1098.15 1490.38,-1105.33"/>
<polygon fill="#64748b" stroke="#64748b" points="1489.39,-1107.57 1496.77,-1108.3 1491.45,-1103.13 1489.39,-1107.57"/>
<text text-anchor="middle" x="1059" y="-628.99" font-family="Helvetica,sans-Serif" font-size="8.00">fk_listing_symbol_provider</text>
</g>
<!-- provider_observation -->
<g id="node21" class="node">
<title>provider_observation</title>
<path fill="#f8fafc" stroke="#334155" d="M1601,-432.39C1601,-432.39 1494,-432.39 1494,-432.39 1488,-432.39 1482,-426.39 1482,-420.39 1482,-420.39 1482,-408.39 1482,-408.39 1482,-402.39 1488,-396.39 1494,-396.39 1494,-396.39 1601,-396.39 1601,-396.39 1607,-396.39 1613,-402.39 1613,-408.39 1613,-408.39 1613,-420.39 1613,-420.39 1613,-426.39 1607,-432.39 1601,-432.39"/>
<text text-anchor="middle" x="1547.5" y="-411.59" font-family="Helvetica,sans-Serif" font-size="11.00">provider_observation</text>
</g>
<!-- provider&#45;&gt;provider_observation -->
<g id="edge42" class="edge">
<title>provider&#45;&gt;provider_observation</title>
<path fill="none" stroke="#64748b" d="M696.62,-470.26C712.87,-459.39 735.13,-446.53 757,-440.39 1013.13,-368.54 1334.39,-390.65 1475.03,-405.58"/>
<polygon fill="#64748b" stroke="#64748b" points="1474.77,-408.02 1482,-406.33 1475.3,-403.14 1474.77,-408.02"/>
<text text-anchor="middle" x="1059" y="-401.99" font-family="Helvetica,sans-Serif" font-size="8.00">fk_provider_observation_provider</text>
</g>
<!-- provider_source_snapshot -->
<g id="node22" class="node">
<title>provider_source_snapshot</title>
<path fill="#f8fafc" stroke="#334155" d="M1126,-328.39C1126,-328.39 992,-328.39 992,-328.39 986,-328.39 980,-322.39 980,-316.39 980,-316.39 980,-304.39 980,-304.39 980,-298.39 986,-292.39 992,-292.39 992,-292.39 1126,-292.39 1126,-292.39 1132,-292.39 1138,-298.39 1138,-304.39 1138,-304.39 1138,-316.39 1138,-316.39 1138,-322.39 1132,-328.39 1126,-328.39"/>
<text text-anchor="middle" x="1059" y="-307.59" font-family="Helvetica,sans-Serif" font-size="11.00">provider_source_snapshot</text>
</g>
<!-- provider&#45;&gt;provider_source_snapshot -->
<g id="edge43" class="edge">
<title>provider&#45;&gt;provider_source_snapshot</title>
<path fill="none" stroke="#64748b" d="M680.08,-470.38C692.64,-444.57 719.38,-397.52 757,-373.39 821.69,-331.9 908.8,-317.15 972.67,-312.19"/>
<polygon fill="#64748b" stroke="#64748b" points="973.14,-314.61 979.95,-311.66 972.79,-309.72 973.14,-314.61"/>
<text text-anchor="middle" x="852" y="-375.99" font-family="Helvetica,sans-Serif" font-size="8.00">provider_source_snapshot_provider_code_fkey</text>
</g>
<!-- provider&#45;&gt;security_event -->
<g id="edge44" class="edge">
<title>provider&#45;&gt;security_event</title>
<path fill="none" stroke="#64748b" d="M701.22,-482.64C780.41,-468.78 1002.25,-441.74 1138,-542.39 1159.99,-558.7 1150.97,-575.74 1171,-594.39 1260.78,-678.01 1331.41,-634.66 1414,-725.39 1493.8,-813.07 1529.95,-955.91 1541.82,-1013.33"/>
<polygon fill="#64748b" stroke="#64748b" points="1539.42,-1013.84 1543.21,-1020.21 1544.23,-1012.87 1539.42,-1013.84"/>
<text text-anchor="middle" x="1059" y="-544.99" font-family="Helvetica,sans-Serif" font-size="8.00">fk_security_event_provider</text>
</g>
<!-- provider&#45;&gt;security_identifier -->
<g id="edge45" class="edge">
<title>provider&#45;&gt;security_identifier</title>
<path fill="none" stroke="#64748b" d="M683.21,-506.69C695.04,-526.77 713.4,-560.3 724,-591.39 749.12,-665.07 709.47,-701.75 757,-763.39 814.17,-837.54 893.77,-777.37 947,-854.39 995.94,-925.22 935.85,-1166.49 980,-1240.39 987.14,-1252.34 998.28,-1262.02 1009.94,-1269.6"/>
<polygon fill="#64748b" stroke="#64748b" points="1008.82,-1271.78 1016.06,-1273.37 1011.39,-1267.61 1008.82,-1271.78"/>
<text text-anchor="middle" x="852" y="-856.99" font-family="Helvetica,sans-Serif" font-size="8.00">fk_security_identifier_provider</text>
</g>
<!-- security_reconciliation_evaluation_evidence -->
<g id="node29" class="node">
<title>security_reconciliation_evaluation_evidence</title>
<path fill="#f8fafc" stroke="#334155" d="M2475,-1703.39C2475,-1703.39 2244,-1703.39 2244,-1703.39 2238,-1703.39 2232,-1697.39 2232,-1691.39 2232,-1691.39 2232,-1679.39 2232,-1679.39 2232,-1673.39 2238,-1667.39 2244,-1667.39 2244,-1667.39 2475,-1667.39 2475,-1667.39 2481,-1667.39 2487,-1673.39 2487,-1679.39 2487,-1679.39 2487,-1691.39 2487,-1691.39 2487,-1697.39 2481,-1703.39 2475,-1703.39"/>
<text text-anchor="middle" x="2359.5" y="-1682.59" font-family="Helvetica,sans-Serif" font-size="11.00">security_reconciliation_evaluation_evidence</text>
</g>
<!-- provider_evidence&#45;&gt;security_reconciliation_evaluation_evidence -->
<g id="edge46" class="edge">
<title>provider_evidence&#45;&gt;security_reconciliation_evaluation_evidence</title>
<path fill="none" stroke="#64748b" d="M2001.67,-1565.43C2078.03,-1591.11 2217.66,-1638.04 2297.74,-1664.97"/>
<polygon fill="#64748b" stroke="#64748b" points="2297.41,-1667.44 2304.82,-1667.35 2298.97,-1662.79 2297.41,-1667.44"/>
<text text-anchor="middle" x="2136.5" y="-1630.99" font-family="Helvetica,sans-Serif" font-size="8.00">fk_sec_recon_eval_ev_provider</text>
</g>
<!-- provider_observation&#45;&gt;provider_evidence -->
<g id="edge47" class="edge">
<title>provider_observation&#45;&gt;provider_evidence</title>
<path fill="none" stroke="#64748b" d="M1556.26,-432.42C1590.11,-511.48 1727.41,-835.76 1820,-1109.39 1872.49,-1264.51 1922.46,-1455.09 1939.68,-1522.41"/>
<polygon fill="#64748b" stroke="#64748b" points="1937.32,-1523.09 1941.43,-1529.27 1942.07,-1521.88 1937.32,-1523.09"/>
<text text-anchor="middle" x="1750.5" y="-1111.99" font-family="Helvetica,sans-Serif" font-size="8.00">fk_provider_evidence_observation</text>
</g>
<!-- provider_source_snapshot&#45;&gt;provider_observation -->
<g id="edge48" class="edge">
<title>provider_source_snapshot&#45;&gt;provider_observation</title>
<path fill="none" stroke="#64748b" d="M1138.27,-321.47C1210.39,-332.35 1320.12,-350.61 1414,-373.39 1437.96,-379.21 1463.96,-386.93 1486.52,-394.11"/>
<polygon fill="#64748b" stroke="#64748b" points="1486,-396.51 1493.41,-396.31 1487.49,-391.84 1486,-396.51"/>
<text text-anchor="middle" x="1292.5" y="-375.99" font-family="Helvetica,sans-Serif" font-size="8.00">provider_observation_source_snapshot_id_fkey</text>
</g>
<!-- provider_source_snapshot_object -->
<g id="node23" class="node">
<title>provider_source_snapshot_object</title>
<path fill="#f8fafc" stroke="#334155" d="M1634,-328.39C1634,-328.39 1461,-328.39 1461,-328.39 1455,-328.39 1449,-322.39 1449,-316.39 1449,-316.39 1449,-304.39 1449,-304.39 1449,-298.39 1455,-292.39 1461,-292.39 1461,-292.39 1634,-292.39 1634,-292.39 1640,-292.39 1646,-298.39 1646,-304.39 1646,-304.39 1646,-316.39 1646,-316.39 1646,-322.39 1640,-328.39 1634,-328.39"/>
<text text-anchor="middle" x="1547.5" y="-307.59" font-family="Helvetica,sans-Serif" font-size="11.00">provider_source_snapshot_object</text>
</g>
<!-- provider_source_snapshot&#45;&gt;provider_source_snapshot_object -->
<g id="edge49" class="edge">
<title>provider_source_snapshot&#45;&gt;provider_source_snapshot_object</title>
<path fill="none" stroke="#64748b" d="M1138.16,-310.39C1220.49,-310.39 1350.59,-310.39 1441.76,-310.39"/>
<polygon fill="#64748b" stroke="#64748b" points="1441.81,-312.84 1448.81,-310.39 1441.81,-307.94 1441.81,-312.84"/>
<text text-anchor="middle" x="1292.5" y="-312.99" font-family="Helvetica,sans-Serif" font-size="8.00">provider_source_snapshot_object_source_snapshot_id_fkey</text>
</g>
<!-- security&#45;&gt;listing -->
<g id="edge50" class="edge">
<title>security&#45;&gt;listing</title>
<path fill="none" stroke="#64748b" d="M698.56,-1831.16C714.83,-1820.66 736.43,-1807.9 757,-1799.39 837.59,-1766.07 870.27,-1791.84 947,-1750.39 983.71,-1730.56 1017.94,-1696.01 1038.41,-1672.92"/>
<polygon fill="#64748b" stroke="#64748b" points="1040.3,-1674.48 1043.07,-1667.6 1036.61,-1671.26 1040.3,-1674.48"/>
<text text-anchor="middle" x="852" y="-1801.99" font-family="Helvetica,sans-Serif" font-size="8.00">fk_listing_security</text>
</g>
<!-- security&#45;&gt;provider_evidence -->
<g id="edge51" class="edge">
<title>security&#45;&gt;provider_evidence</title>
<path fill="none" stroke="#64748b" d="M688.24,-1867.56C704.03,-1883.91 729.6,-1907.06 757,-1918.39 1026.85,-2030.05 1131.17,-2002.16 1414,-1929.39 1648.5,-1869.06 1860.99,-1644.77 1925.82,-1571.05"/>
<polygon fill="#64748b" stroke="#64748b" points="1927.82,-1572.48 1930.59,-1565.6 1924.13,-1569.25 1927.82,-1572.48"/>
<text text-anchor="middle" x="1292.5" y="-1985.99" font-family="Helvetica,sans-Serif" font-size="8.00">fk_provider_evidence_security</text>
</g>
<!-- security&#45;&gt;security_event -->
<g id="edge52" class="edge">
<title>security&#45;&gt;security_event</title>
<path fill="none" stroke="#64748b" d="M677.58,-1831.21C688.47,-1797.99 715.23,-1726.59 757,-1679.39 824.15,-1603.51 869.97,-1619.23 947,-1553.39 963.5,-1539.29 963.26,-1531.2 980,-1517.39 1043.57,-1464.96 1074.28,-1472.63 1138,-1420.39 1294.14,-1292.39 1285.08,-1208 1447,-1087.39 1461.32,-1076.73 1478.33,-1067.36 1494.19,-1059.74"/>
<polygon fill="#64748b" stroke="#64748b" points="1495.61,-1061.78 1500.91,-1056.59 1493.53,-1057.35 1495.61,-1061.78"/>
<text text-anchor="middle" x="1059" y="-1519.99" font-family="Helvetica,sans-Serif" font-size="8.00">fk_security_event_security</text>
</g>
<!-- security&#45;&gt;security_identifier -->
<g id="edge53" class="edge">
<title>security&#45;&gt;security_identifier</title>
<path fill="none" stroke="#64748b" d="M675.57,-1831.22C684.35,-1786.36 707.44,-1666.69 724,-1566.39 732.23,-1516.53 721.61,-1377.46 757,-1341.39 789.26,-1308.52 916.57,-1297.23 994.92,-1293.38"/>
<polygon fill="#64748b" stroke="#64748b" points="995.47,-1295.81 1002.35,-1293.03 995.24,-1290.91 995.47,-1295.81"/>
<text text-anchor="middle" x="852" y="-1343.99" font-family="Helvetica,sans-Serif" font-size="8.00">fk_security_identifier_security</text>
</g>
<!-- security_reconciliation_decision -->
<g id="node27" class="node">
<title>security_reconciliation_decision</title>
<path fill="#f8fafc" stroke="#334155" d="M2029,-2115.39C2029,-2115.39 1865,-2115.39 1865,-2115.39 1859,-2115.39 1853,-2109.39 1853,-2103.39 1853,-2103.39 1853,-2091.39 1853,-2091.39 1853,-2085.39 1859,-2079.39 1865,-2079.39 1865,-2079.39 2029,-2079.39 2029,-2079.39 2035,-2079.39 2041,-2085.39 2041,-2091.39 2041,-2091.39 2041,-2103.39 2041,-2103.39 2041,-2109.39 2035,-2115.39 2029,-2115.39"/>
<text text-anchor="middle" x="1947" y="-2094.59" font-family="Helvetica,sans-Serif" font-size="11.00">security_reconciliation_decision</text>
</g>
<!-- security&#45;&gt;security_reconciliation_decision -->
<g id="edge54" class="edge">
<title>security&#45;&gt;security_reconciliation_decision</title>
<path fill="none" stroke="#64748b" d="M688.68,-1867.43C700.1,-1880.65 714.79,-1899.52 724,-1918.39 748.82,-1969.26 712.91,-2005.9 757,-2041.39 1098.02,-2315.97 1688.94,-2174.43 1882.57,-2117.46"/>
<polygon fill="#64748b" stroke="#64748b" points="1883.27,-2119.81 1889.29,-2115.47 1881.88,-2115.11 1883.27,-2119.81"/>
<text text-anchor="middle" x="1292.5" y="-2206.99" font-family="Helvetica,sans-Serif" font-size="8.00">fk_sec_recon_decision_security</text>
</g>
<!-- security&#45;&gt;security_reconciliation_evaluation -->
<g id="edge55" class="edge">
<title>security&#45;&gt;security_reconciliation_evaluation</title>
<path fill="none" stroke="#64748b" d="M700.72,-1859.2C717.02,-1864.24 737.91,-1869.86 757,-1872.39 1046.45,-1910.86 1136.9,-1964.48 1414,-1872.39 1458.59,-1857.58 1500.31,-1821.26 1524.61,-1796.97"/>
<polygon fill="#64748b" stroke="#64748b" points="1526.65,-1798.39 1529.82,-1791.69 1523.16,-1794.95 1526.65,-1798.39"/>
<text text-anchor="middle" x="1059" y="-1924.99" font-family="Helvetica,sans-Serif" font-size="8.00">fk_sec_recon_eval_related_security</text>
</g>
<!-- security&#45;&gt;security_reconciliation_evaluation -->
<g id="edge56" class="edge">
<title>security&#45;&gt;security_reconciliation_evaluation</title>
<path fill="none" stroke="#64748b" d="M700.59,-1850.62C800.02,-1854.35 1139.63,-1862.51 1414,-1814.39 1440.01,-1809.83 1468.06,-1801.65 1491.61,-1793.79"/>
<polygon fill="#64748b" stroke="#64748b" points="1492.61,-1796.04 1498.45,-1791.48 1491.04,-1791.4 1492.61,-1796.04"/>
<text text-anchor="middle" x="1059" y="-1853.99" font-family="Helvetica,sans-Serif" font-size="8.00">fk_sec_recon_eval_security</text>
</g>
<!-- security_event&#45;&gt;provider_evidence -->
<g id="edge57" class="edge">
<title>security_event&#45;&gt;provider_evidence</title>
<path fill="none" stroke="#64748b" d="M1595.74,-1055.4C1613.44,-1063.3 1632.89,-1073.96 1648,-1087.39 1798.18,-1220.92 1903.38,-1447.19 1935.61,-1522.32"/>
<polygon fill="#64748b" stroke="#64748b" points="1933.5,-1523.63 1938.5,-1529.11 1938.01,-1521.71 1933.5,-1523.63"/>
<text text-anchor="middle" x="1750.5" y="-1296.99" font-family="Helvetica,sans-Serif" font-size="8.00">fk_provider_evidence_event</text>
</g>
<!-- security_reconciliation_evaluation&#45;&gt;security_reconciliation_decision -->
<g id="edge58" class="edge">
<title>security_reconciliation_evaluation&#45;&gt;security_reconciliation_decision</title>
<path fill="none" stroke="#64748b" d="M1570.72,-1791.51C1638.6,-1846.84 1843.17,-2013.57 1918.1,-2074.65"/>
<polygon fill="#64748b" stroke="#64748b" points="1916.71,-2076.68 1923.69,-2079.21 1919.81,-2072.89 1916.71,-2076.68"/>
<text text-anchor="middle" x="1750.5" y="-1994.99" font-family="Helvetica,sans-Serif" font-size="8.00">fk_sec_recon_decision_eval</text>
</g>
<!-- security_reconciliation_evaluation&#45;&gt;security_reconciliation_evaluation_evidence -->
<g id="edge59" class="edge">
<title>security_reconciliation_evaluation&#45;&gt;security_reconciliation_evaluation_evidence</title>
<path fill="none" stroke="#64748b" d="M1648.23,-1762.56C1793.23,-1746.81 2062.59,-1717.54 2224.7,-1699.93"/>
<polygon fill="#64748b" stroke="#64748b" points="2225.16,-1702.34 2231.86,-1699.15 2224.63,-1697.47 2225.16,-1702.34"/>
<text text-anchor="middle" x="1947" y="-1741.99" font-family="Helvetica,sans-Serif" font-size="8.00">fk_sec_recon_eval_ev_eval</text>
</g>
<!-- stg_iso10383_mic -->
<g id="node30" class="node">
<title>stg_iso10383_mic</title>
<path fill="#f8fafc" stroke="#334155" d="M135.5,-1956.39C135.5,-1956.39 48.5,-1956.39 48.5,-1956.39 42.5,-1956.39 36.5,-1950.39 36.5,-1944.39 36.5,-1944.39 36.5,-1932.39 36.5,-1932.39 36.5,-1926.39 42.5,-1920.39 48.5,-1920.39 48.5,-1920.39 135.5,-1920.39 135.5,-1920.39 141.5,-1920.39 147.5,-1926.39 147.5,-1932.39 147.5,-1932.39 147.5,-1944.39 147.5,-1944.39 147.5,-1950.39 141.5,-1956.39 135.5,-1956.39"/>
<text text-anchor="middle" x="92" y="-1935.59" font-family="Helvetica,sans-Serif" font-size="11.00">stg_iso10383_mic</text>
</g>
<!-- stg_iso3166_country -->
<g id="node31" class="node">
<title>stg_iso3166_country</title>
<path fill="#f8fafc" stroke="#334155" d="M143.5,-2035.39C143.5,-2035.39 40.5,-2035.39 40.5,-2035.39 34.5,-2035.39 28.5,-2029.39 28.5,-2023.39 28.5,-2023.39 28.5,-2011.39 28.5,-2011.39 28.5,-2005.39 34.5,-1999.39 40.5,-1999.39 40.5,-1999.39 143.5,-1999.39 143.5,-1999.39 149.5,-1999.39 155.5,-2005.39 155.5,-2011.39 155.5,-2011.39 155.5,-2023.39 155.5,-2023.39 155.5,-2029.39 149.5,-2035.39 143.5,-2035.39"/>
<text text-anchor="middle" x="92" y="-2014.59" font-family="Helvetica,sans-Serif" font-size="11.00">stg_iso3166_country</text>
</g>
<!-- stg_iso4217_currency -->
<g id="node32" class="node">
<title>stg_iso4217_currency</title>
<path fill="#f8fafc" stroke="#334155" d="M146.5,-2114.39C146.5,-2114.39 37.5,-2114.39 37.5,-2114.39 31.5,-2114.39 25.5,-2108.39 25.5,-2102.39 25.5,-2102.39 25.5,-2090.39 25.5,-2090.39 25.5,-2084.39 31.5,-2078.39 37.5,-2078.39 37.5,-2078.39 146.5,-2078.39 146.5,-2078.39 152.5,-2078.39 158.5,-2084.39 158.5,-2090.39 158.5,-2090.39 158.5,-2102.39 158.5,-2102.39 158.5,-2108.39 152.5,-2114.39 146.5,-2114.39"/>
<text text-anchor="middle" x="92" y="-2093.59" font-family="Helvetica,sans-Serif" font-size="11.00">stg_iso4217_currency</text>
</g>
<!-- stg_sec_sic_classification_code -->
<g id="node33" class="node">
<title>stg_sec_sic_classification_code</title>
<path fill="#f8fafc" stroke="#334155" d="M172,-2193.39C172,-2193.39 12,-2193.39 12,-2193.39 6,-2193.39 0,-2187.39 0,-2181.39 0,-2181.39 0,-2169.39 0,-2169.39 0,-2163.39 6,-2157.39 12,-2157.39 12,-2157.39 172,-2157.39 172,-2157.39 178,-2157.39 184,-2163.39 184,-2169.39 184,-2169.39 184,-2181.39 184,-2181.39 184,-2187.39 178,-2193.39 172,-2193.39"/>
<text text-anchor="middle" x="92" y="-2172.59" font-family="Helvetica,sans-Serif" font-size="11.00">stg_sec_sic_classification_code</text>
</g>
</g>
</svg>
