<?xml version="1.0" encoding="UTF-8" standalone="no"?>
<!DOCTYPE svg PUBLIC "-//W3C//DTD SVG 1.1//EN"
 "http://www.w3.org/Graphics/SVG/1.1/DTD/svg11.dtd">
<!-- Generated by graphviz version 2.42.4 (0)
 -->
<!-- Title: schema_relations Pages: 1 -->
<svg width="2801pt" height="2647pt"
 viewBox="0.00 0.00 2801.00 2647.00" xmlns="http://www.w3.org/2000/svg" xmlns:xlink="http://www.w3.org/1999/xlink">
<g id="graph0" class="graph" transform="scale(1 1) rotate(0) translate(18 2629)">
<title>schema_relations</title>
<!-- classification_code -->
<g id="node1" class="node">
<title>classification_code</title>
<path fill="#f8fafc" stroke="#334155" d="M1594,-101C1594,-101 1501,-101 1501,-101 1495,-101 1489,-95 1489,-89 1489,-89 1489,-77 1489,-77 1489,-71 1495,-65 1501,-65 1501,-65 1594,-65 1594,-65 1600,-65 1606,-71 1606,-77 1606,-77 1606,-89 1606,-89 1606,-95 1600,-101 1594,-101"/>
<text text-anchor="middle" x="1547.5" y="-80.2" font-family="Helvetica,sans-Serif" font-size="11.00">classification_code</text>
</g>
<!-- issuer_classification -->
<g id="node14" class="node">
<title>issuer_classification</title>
<path fill="#f8fafc" stroke="#334155" d="M2121,-166C2121,-166 2021,-166 2021,-166 2015,-166 2009,-160 2009,-154 2009,-154 2009,-142 2009,-142 2009,-136 2015,-130 2021,-130 2021,-130 2121,-130 2121,-130 2127,-130 2133,-136 2133,-142 2133,-142 2133,-154 2133,-154 2133,-160 2127,-166 2121,-166"/>
<text text-anchor="middle" x="2071" y="-145.2" font-family="Helvetica,sans-Serif" font-size="11.00">issuer_classification</text>
</g>
<!-- classification_code&#45;&gt;issuer_classification -->
<g id="edge1" class="edge">
<title>classification_code&#45;&gt;issuer_classification</title>
<path fill="none" stroke="#64748b" d="M1606.3,-90.2C1703.26,-102.29 1898.18,-126.58 2001.73,-139.49"/>
<polygon fill="#64748b" stroke="#64748b" points="2001.47,-141.93 2008.72,-140.36 2002.07,-137.06 2001.47,-141.93"/>
<text text-anchor="middle" x="1776" y="-123.6" font-family="Helvetica,sans-Serif" font-size="8.00">fk_issuer_class_code</text>
</g>
<!-- classification_system -->
<g id="node2" class="node">
<title>classification_system</title>
<path fill="#f8fafc" stroke="#334155" d="M1113,-101C1113,-101 1005,-101 1005,-101 999,-101 993,-95 993,-89 993,-89 993,-77 993,-77 993,-71 999,-65 1005,-65 1005,-65 1113,-65 1113,-65 1119,-65 1125,-71 1125,-77 1125,-77 1125,-89 1125,-89 1125,-95 1119,-101 1113,-101"/>
<text text-anchor="middle" x="1059" y="-80.2" font-family="Helvetica,sans-Serif" font-size="11.00">classification_system</text>
</g>
<!-- classification_system&#45;&gt;classification_code -->
<g id="edge2" class="edge">
<title>classification_system&#45;&gt;classification_code</title>
<path fill="none" stroke="#64748b" d="M1125.11,-83C1218.35,-83 1388.89,-83 1481.87,-83"/>
<polygon fill="#64748b" stroke="#64748b" points="1481.98,-85.45 1488.98,-83 1481.98,-80.55 1481.98,-85.45"/>
<text text-anchor="middle" x="1292.5" y="-85.6" font-family="Helvetica,sans-Serif" font-size="8.00">fk_classification_code_system</text>
</g>
<!-- confidence_level -->
<g id="node3" class="node">
<title>confidence_level</title>
<path fill="#f8fafc" stroke="#334155" d="M711.5,-839C711.5,-839 630.5,-839 630.5,-839 624.5,-839 618.5,-833 618.5,-827 618.5,-827 618.5,-815 618.5,-815 618.5,-809 624.5,-803 630.5,-803 630.5,-803 711.5,-803 711.5,-803 717.5,-803 723.5,-809 723.5,-815 723.5,-815 723.5,-827 723.5,-827 723.5,-833 717.5,-839 711.5,-839"/>
<text text-anchor="middle" x="671" y="-818.2" font-family="Helvetica,sans-Serif" font-size="11.00">confidence_level</text>
</g>
<!-- confidence_level&#45;&gt;issuer_classification -->
<g id="edge3" class="edge">
<title>confidence_level&#45;&gt;issuer_classification</title>
<path fill="none" stroke="#64748b" d="M677.44,-802.99C688.84,-766.85 717.47,-683.67 757,-622 836.64,-497.76 851.96,-449.36 980,-376 1025.29,-350.05 1770.22,-205.56 2001.84,-161.05"/>
<polygon fill="#64748b" stroke="#64748b" points="2002.46,-163.43 2008.87,-159.7 2001.53,-158.62 2002.46,-163.43"/>
<text text-anchor="middle" x="1292.5" y="-328.6" font-family="Helvetica,sans-Serif" font-size="8.00">fk_issuer_class_confidence</text>
</g>
<!-- issuer_identifier -->
<g id="node15" class="node">
<title>issuer_identifier</title>
<path fill="#f8fafc" stroke="#334155" d="M1098,-987C1098,-987 1020,-987 1020,-987 1014,-987 1008,-981 1008,-975 1008,-975 1008,-963 1008,-963 1008,-957 1014,-951 1020,-951 1020,-951 1098,-951 1098,-951 1104,-951 1110,-957 1110,-963 1110,-963 1110,-975 1110,-975 1110,-981 1104,-987 1098,-987"/>
<text text-anchor="middle" x="1059" y="-966.2" font-family="Helvetica,sans-Serif" font-size="11.00">issuer_identifier</text>
</g>
<!-- confidence_level&#45;&gt;issuer_identifier -->
<g id="edge4" class="edge">
<title>confidence_level&#45;&gt;issuer_identifier</title>
<path fill="none" stroke="#64748b" d="M723.66,-835.13C734.65,-838.09 746.2,-841.18 757,-844 841.26,-866.04 868.86,-853.54 947,-892 963.75,-900.25 964.84,-907.1 980,-918 993.79,-927.91 1009.37,-938.26 1022.97,-947.03"/>
<polygon fill="#64748b" stroke="#64748b" points="1021.85,-949.22 1029.07,-950.94 1024.5,-945.1 1021.85,-949.22"/>
<text text-anchor="middle" x="852" y="-894.6" font-family="Helvetica,sans-Serif" font-size="8.00">fk_issuer_identifier_confidence</text>
</g>
<!-- issuer_name_history -->
<g id="node16" class="node">
<title>issuer_name_history</title>
<path fill="#f8fafc" stroke="#334155" d="M1110.5,-267C1110.5,-267 1007.5,-267 1007.5,-267 1001.5,-267 995.5,-261 995.5,-255 995.5,-255 995.5,-243 995.5,-243 995.5,-237 1001.5,-231 1007.5,-231 1007.5,-231 1110.5,-231 1110.5,-231 1116.5,-231 1122.5,-237 1122.5,-243 1122.5,-243 1122.5,-255 1122.5,-255 1122.5,-261 1116.5,-267 1110.5,-267"/>
<text text-anchor="middle" x="1059" y="-246.2" font-family="Helvetica,sans-Serif" font-size="11.00">issuer_name_history</text>
</g>
<!-- confidence_level&#45;&gt;issuer_name_history -->
<g id="edge5" class="edge">
<title>confidence_level&#45;&gt;issuer_name_history</title>
<path fill="none" stroke="#64748b" d="M675.98,-802.89C684.86,-762.33 706.87,-661.04 724,-576 739.46,-499.27 710.05,-465.63 757,-403 813.84,-327.16 918.71,-285.73 988.42,-265.47"/>
<polygon fill="#64748b" stroke="#64748b" points="989.41,-267.73 995.47,-263.46 988.07,-263.02 989.41,-267.73"/>
<text text-anchor="middle" x="852" y="-405.6" font-family="Helvetica,sans-Serif" font-size="8.00">fk_issuer_name_confidence</text>
</g>
<!-- listing_symbol_history -->
<g id="node18" class="node">
<title>listing_symbol_history</title>
<path fill="#f8fafc" stroke="#334155" d="M1603.5,-727C1603.5,-727 1491.5,-727 1491.5,-727 1485.5,-727 1479.5,-721 1479.5,-715 1479.5,-715 1479.5,-703 1479.5,-703 1479.5,-697 1485.5,-691 1491.5,-691 1491.5,-691 1603.5,-691 1603.5,-691 1609.5,-691 1615.5,-697 1615.5,-703 1615.5,-703 1615.5,-715 1615.5,-715 1615.5,-721 1609.5,-727 1603.5,-727"/>
<text text-anchor="middle" x="1547.5" y="-706.2" font-family="Helvetica,sans-Serif" font-size="11.00">listing_symbol_history</text>
</g>
<!-- confidence_level&#45;&gt;listing_symbol_history -->
<g id="edge6" class="edge">
<title>confidence_level&#45;&gt;listing_symbol_history</title>
<path fill="none" stroke="#64748b" d="M723.67,-804.39C784.33,-785.68 888.33,-756.05 980,-742 1155.09,-715.16 1363.68,-709.74 1472.35,-708.9"/>
<polygon fill="#64748b" stroke="#64748b" points="1472.38,-711.35 1479.36,-708.85 1472.34,-706.45 1472.38,-711.35"/>
<text text-anchor="middle" x="1059" y="-744.6" font-family="Helvetica,sans-Serif" font-size="8.00">fk_listing_symbol_confidence</text>
</g>
<!-- security_event -->
<g id="node25" class="node">
<title>security_event</title>
<path fill="#f8fafc" stroke="#334155" d="M1583.5,-1072C1583.5,-1072 1511.5,-1072 1511.5,-1072 1505.5,-1072 1499.5,-1066 1499.5,-1060 1499.5,-1060 1499.5,-1048 1499.5,-1048 1499.5,-1042 1505.5,-1036 1511.5,-1036 1511.5,-1036 1583.5,-1036 1583.5,-1036 1589.5,-1036 1595.5,-1042 1595.5,-1048 1595.5,-1048 1595.5,-1060 1595.5,-1060 1595.5,-1066 1589.5,-1072 1583.5,-1072"/>
<text text-anchor="middle" x="1547.5" y="-1051.2" font-family="Helvetica,sans-Serif" font-size="11.00">security_event</text>
</g>
<!-- confidence_level&#45;&gt;security_event -->
<g id="edge7" class="edge">
<title>confidence_level&#45;&gt;security_event</title>
<path fill="none" stroke="#64748b" d="M723.75,-822.23C779.45,-824.4 870.37,-830.4 947,-847 1158.44,-892.81 1398.47,-990.24 1498.65,-1033.07"/>
<polygon fill="#64748b" stroke="#64748b" points="1497.93,-1035.42 1505.33,-1035.93 1499.86,-1030.92 1497.93,-1035.42"/>
<text text-anchor="middle" x="1059" y="-899.6" font-family="Helvetica,sans-Serif" font-size="8.00">fk_security_event_confidence</text>
</g>
<!-- security_identifier -->
<g id="node26" class="node">
<title>security_identifier</title>
<path fill="#f8fafc" stroke="#334155" d="M1103.5,-1145C1103.5,-1145 1014.5,-1145 1014.5,-1145 1008.5,-1145 1002.5,-1139 1002.5,-1133 1002.5,-1133 1002.5,-1121 1002.5,-1121 1002.5,-1115 1008.5,-1109 1014.5,-1109 1014.5,-1109 1103.5,-1109 1103.5,-1109 1109.5,-1109 1115.5,-1115 1115.5,-1121 1115.5,-1121 1115.5,-1133 1115.5,-1133 1115.5,-1139 1109.5,-1145 1103.5,-1145"/>
<text text-anchor="middle" x="1059" y="-1124.2" font-family="Helvetica,sans-Serif" font-size="11.00">security_identifier</text>
</g>
<!-- confidence_level&#45;&gt;security_identifier -->
<g id="edge8" class="edge">
<title>confidence_level&#45;&gt;security_identifier</title>
<path fill="none" stroke="#64748b" d="M694.57,-839.02C704.95,-848.42 716.58,-860.72 724,-874 753.71,-927.17 714.03,-963.84 757,-1007 818.46,-1068.72 871.26,-1011.99 947,-1055 965.04,-1065.24 963.17,-1075.87 980,-1088 988.97,-1094.46 999.16,-1100.41 1009.16,-1105.61"/>
<polygon fill="#64748b" stroke="#64748b" points="1008.33,-1107.94 1015.68,-1108.92 1010.55,-1103.57 1008.33,-1107.94"/>
<text text-anchor="middle" x="852" y="-1057.6" font-family="Helvetica,sans-Serif" font-size="8.00">fk_security_identifier_confidence</text>
</g>
<!-- security_reconciliation_evaluation -->
<g id="node28" class="node">
<title>security_reconciliation_evaluation</title>
<path fill="#f8fafc" stroke="#334155" d="M1636,-1878C1636,-1878 1459,-1878 1459,-1878 1453,-1878 1447,-1872 1447,-1866 1447,-1866 1447,-1854 1447,-1854 1447,-1848 1453,-1842 1459,-1842 1459,-1842 1636,-1842 1636,-1842 1642,-1842 1648,-1848 1648,-1854 1648,-1854 1648,-1866 1648,-1866 1648,-1872 1642,-1878 1636,-1878"/>
<text text-anchor="middle" x="1547.5" y="-1857.2" font-family="Helvetica,sans-Serif" font-size="11.00">security_reconciliation_evaluation</text>
</g>
<!-- confidence_level&#45;&gt;security_reconciliation_evaluation -->
<g id="edge9" class="edge">
<title>confidence_level&#45;&gt;security_reconciliation_evaluation</title>
<path fill="none" stroke="#64748b" d="M680.87,-839.08C693.02,-864.8 714.42,-913.74 724,-958 748.44,-1070.95 697.09,-1378.18 757,-1477 808.17,-1561.41 867.58,-1533.39 947,-1592 1038.44,-1659.48 1070.44,-1670.62 1138,-1762 1158.93,-1790.31 1142.05,-1813.98 1171,-1834 1251.73,-1889.84 1367.01,-1889.1 1448.49,-1878.95"/>
<polygon fill="#64748b" stroke="#64748b" points="1449.15,-1881.34 1455.78,-1878.01 1448.52,-1876.48 1449.15,-1881.34"/>
<text text-anchor="middle" x="1059" y="-1764.6" font-family="Helvetica,sans-Serif" font-size="8.00">fk_sec_recon_eval_confidence</text>
</g>
<!-- exchange -->
<g id="node4" class="node">
<title>exchange</title>
<path fill="#f8fafc" stroke="#334155" d="M692.5,-1419C692.5,-1419 649.5,-1419 649.5,-1419 643.5,-1419 637.5,-1413 637.5,-1407 637.5,-1407 637.5,-1395 637.5,-1395 637.5,-1389 643.5,-1383 649.5,-1383 649.5,-1383 692.5,-1383 692.5,-1383 698.5,-1383 704.5,-1389 704.5,-1395 704.5,-1395 704.5,-1407 704.5,-1407 704.5,-1413 698.5,-1419 692.5,-1419"/>
<text text-anchor="middle" x="671" y="-1398.2" font-family="Helvetica,sans-Serif" font-size="11.00">exchange</text>
</g>
<!-- exchange_alias -->
<g id="node5" class="node">
<title>exchange_alias</title>
<path fill="#f8fafc" stroke="#334155" d="M1096,-1066C1096,-1066 1022,-1066 1022,-1066 1016,-1066 1010,-1060 1010,-1054 1010,-1054 1010,-1042 1010,-1042 1010,-1036 1016,-1030 1022,-1030 1022,-1030 1096,-1030 1096,-1030 1102,-1030 1108,-1036 1108,-1042 1108,-1042 1108,-1054 1108,-1054 1108,-1060 1102,-1066 1096,-1066"/>
<text text-anchor="middle" x="1059" y="-1045.2" font-family="Helvetica,sans-Serif" font-size="11.00">exchange_alias</text>
</g>
<!-- exchange&#45;&gt;exchange_alias -->
<g id="edge10" class="edge">
<title>exchange&#45;&gt;exchange_alias</title>
<path fill="none" stroke="#64748b" d="M689.69,-1382.74C706.1,-1366.47 731.73,-1342.73 757,-1326 835.07,-1274.31 888.68,-1308.24 947,-1235 988.71,-1182.62 939,-1140.94 980,-1088 986.28,-1079.89 994.67,-1073.27 1003.61,-1067.93"/>
<polygon fill="#64748b" stroke="#64748b" points="1004.96,-1069.98 1009.88,-1064.43 1002.57,-1065.7 1004.96,-1069.98"/>
<text text-anchor="middle" x="852" y="-1328.6" font-family="Helvetica,sans-Serif" font-size="8.00">fk_exchange_alias_exchange</text>
</g>
<!-- listing -->
<g id="node17" class="node">
<title>listing</title>
<path fill="#f8fafc" stroke="#334155" d="M1074,-1501C1074,-1501 1044,-1501 1044,-1501 1038,-1501 1032,-1495 1032,-1489 1032,-1489 1032,-1477 1032,-1477 1032,-1471 1038,-1465 1044,-1465 1044,-1465 1074,-1465 1074,-1465 1080,-1465 1086,-1471 1086,-1477 1086,-1477 1086,-1489 1086,-1489 1086,-1495 1080,-1501 1074,-1501"/>
<text text-anchor="middle" x="1059" y="-1480.2" font-family="Helvetica,sans-Serif" font-size="11.00">listing</text>
</g>
<!-- exchange&#45;&gt;listing -->
<g id="edge11" class="edge">
<title>exchange&#45;&gt;listing</title>
<path fill="none" stroke="#64748b" d="M704.58,-1407.92C777.15,-1423.34 951.47,-1460.37 1024.71,-1475.93"/>
<polygon fill="#64748b" stroke="#64748b" points="1024.53,-1478.39 1031.89,-1477.45 1025.55,-1473.6 1024.53,-1478.39"/>
<text text-anchor="middle" x="852" y="-1460.6" font-family="Helvetica,sans-Serif" font-size="8.00">fk_listing_exchange</text>
</g>
<!-- identifier_type -->
<g id="node6" class="node">
<title>identifier_type</title>
<path fill="#f8fafc" stroke="#334155" d="M705.5,-1145C705.5,-1145 636.5,-1145 636.5,-1145 630.5,-1145 624.5,-1139 624.5,-1133 624.5,-1133 624.5,-1121 624.5,-1121 624.5,-1115 630.5,-1109 636.5,-1109 636.5,-1109 705.5,-1109 705.5,-1109 711.5,-1109 717.5,-1115 717.5,-1121 717.5,-1121 717.5,-1133 717.5,-1133 717.5,-1139 711.5,-1145 705.5,-1145"/>
<text text-anchor="middle" x="671" y="-1124.2" font-family="Helvetica,sans-Serif" font-size="11.00">identifier_type</text>
</g>
<!-- identifier_type&#45;&gt;issuer_identifier -->
<g id="edge12" class="edge">
<title>identifier_type&#45;&gt;issuer_identifier</title>
<path fill="none" stroke="#64748b" d="M717.71,-1118.56C791.01,-1104.72 928.52,-1077.41 947,-1064 970.07,-1047.26 959.18,-1028.48 980,-1009 987.58,-1001.9 996.67,-995.75 1005.91,-990.54"/>
<polygon fill="#64748b" stroke="#64748b" points="1007.33,-992.56 1012.32,-987.08 1005,-988.25 1007.33,-992.56"/>
<text text-anchor="middle" x="852" y="-1112.6" font-family="Helvetica,sans-Serif" font-size="8.00">fk_issuer_identifier_type</text>
</g>
<!-- identifier_type&#45;&gt;security_identifier -->
<g id="edge13" class="edge">
<title>identifier_type&#45;&gt;security_identifier</title>
<path fill="none" stroke="#64748b" d="M717.8,-1127C786.67,-1127 917.11,-1127 994.93,-1127"/>
<polygon fill="#64748b" stroke="#64748b" points="995.3,-1129.45 1002.3,-1127 995.3,-1124.55 995.3,-1129.45"/>
<text text-anchor="middle" x="852" y="-1129.6" font-family="Helvetica,sans-Serif" font-size="8.00">fk_security_identifier_type</text>
</g>
<!-- instrument_class -->
<g id="node7" class="node">
<title>instrument_class</title>
<path fill="#f8fafc" stroke="#334155" d="M134,-2295C134,-2295 50,-2295 50,-2295 44,-2295 38,-2289 38,-2283 38,-2283 38,-2271 38,-2271 38,-2265 44,-2259 50,-2259 50,-2259 134,-2259 134,-2259 140,-2259 146,-2265 146,-2271 146,-2271 146,-2283 146,-2283 146,-2289 140,-2295 134,-2295"/>
<text text-anchor="middle" x="92" y="-2274.2" font-family="Helvetica,sans-Serif" font-size="11.00">instrument_class</text>
</g>
<!-- instrument_type -->
<g id="node8" class="node">
<title>instrument_type</title>
<path fill="#f8fafc" stroke="#334155" d="M454,-2295C454,-2295 373,-2295 373,-2295 367,-2295 361,-2289 361,-2283 361,-2283 361,-2271 361,-2271 361,-2265 367,-2259 373,-2259 373,-2259 454,-2259 454,-2259 460,-2259 466,-2265 466,-2271 466,-2271 466,-2283 466,-2283 466,-2289 460,-2295 454,-2295"/>
<text text-anchor="middle" x="413.5" y="-2274.2" font-family="Helvetica,sans-Serif" font-size="11.00">instrument_type</text>
</g>
<!-- instrument_class&#45;&gt;instrument_type -->
<g id="edge14" class="edge">
<title>instrument_class&#45;&gt;instrument_type</title>
<path fill="none" stroke="#64748b" d="M146.12,-2277C203.41,-2277 294.38,-2277 353.76,-2277"/>
<polygon fill="#64748b" stroke="#64748b" points="353.85,-2279.45 360.85,-2277 353.85,-2274.55 353.85,-2279.45"/>
<text text-anchor="middle" x="271" y="-2279.6" font-family="Helvetica,sans-Serif" font-size="8.00">fk_instrument_type_class</text>
</g>
<!-- security -->
<g id="node24" class="node">
<title>security</title>
<path fill="#f8fafc" stroke="#334155" d="M688.5,-1760C688.5,-1760 653.5,-1760 653.5,-1760 647.5,-1760 641.5,-1754 641.5,-1748 641.5,-1748 641.5,-1736 641.5,-1736 641.5,-1730 647.5,-1724 653.5,-1724 653.5,-1724 688.5,-1724 688.5,-1724 694.5,-1724 700.5,-1730 700.5,-1736 700.5,-1736 700.5,-1748 700.5,-1748 700.5,-1754 694.5,-1760 688.5,-1760"/>
<text text-anchor="middle" x="671" y="-1739.2" font-family="Helvetica,sans-Serif" font-size="11.00">security</text>
</g>
<!-- instrument_type&#45;&gt;security -->
<g id="edge15" class="edge">
<title>instrument_type&#45;&gt;security</title>
<path fill="none" stroke="#64748b" d="M423.15,-2258.89C461.29,-2179.03 614.52,-1858.17 658.28,-1766.54"/>
<polygon fill="#64748b" stroke="#64748b" points="660.55,-1767.47 661.35,-1760.1 656.13,-1765.36 660.55,-1767.47"/>
<text text-anchor="middle" x="543.5" y="-2090.6" font-family="Helvetica,sans-Serif" font-size="8.00">fk_security_type</text>
</g>
<!-- iso10383_mic -->
<g id="node9" class="node">
<title>iso10383_mic</title>
<path fill="#f8fafc" stroke="#334155" d="M446,-1570C446,-1570 381,-1570 381,-1570 375,-1570 369,-1564 369,-1558 369,-1558 369,-1546 369,-1546 369,-1540 375,-1534 381,-1534 381,-1534 446,-1534 446,-1534 452,-1534 458,-1540 458,-1546 458,-1546 458,-1558 458,-1558 458,-1564 452,-1570 446,-1570"/>
<text text-anchor="middle" x="413.5" y="-1549.2" font-family="Helvetica,sans-Serif" font-size="11.00">iso10383_mic</text>
</g>
<!-- iso10383_mic&#45;&gt;exchange -->
<g id="edge16" class="edge">
<title>iso10383_mic&#45;&gt;exchange</title>
<path fill="none" stroke="#64748b" d="M458.14,-1547.43C494.5,-1541.95 546.41,-1530.14 585,-1505 616.21,-1484.67 641.56,-1449.22 656.22,-1425.44"/>
<polygon fill="#64748b" stroke="#64748b" points="658.37,-1426.62 659.89,-1419.36 654.17,-1424.09 658.37,-1426.62"/>
<text text-anchor="middle" x="543.5" y="-1539.6" font-family="Helvetica,sans-Serif" font-size="8.00">fk_exchange_mic</text>
</g>
<!-- iso10383_mic&#45;&gt;iso10383_mic -->
<g id="edge17" class="edge">
<title>iso10383_mic&#45;&gt;iso10383_mic</title>
<path fill="none" stroke="#64748b" d="M395.22,-1570.11C383.03,-1590.12 389.12,-1613 413.5,-1613 435.21,-1613 442.42,-1594.86 435.12,-1576.75"/>
<polygon fill="#64748b" stroke="#64748b" points="437.12,-1575.26 431.78,-1570.11 432.74,-1577.46 437.12,-1575.26"/>
<text text-anchor="middle" x="413.5" y="-1615.6" font-family="Helvetica,sans-Serif" font-size="8.00">fk_iso10383_mic_operating</text>
</g>
<!-- iso10383_mic_cat -->
<g id="node10" class="node">
<title>iso10383_mic_cat</title>
<path fill="#f8fafc" stroke="#334155" d="M135.5,-1570C135.5,-1570 48.5,-1570 48.5,-1570 42.5,-1570 36.5,-1564 36.5,-1558 36.5,-1558 36.5,-1546 36.5,-1546 36.5,-1540 42.5,-1534 48.5,-1534 48.5,-1534 135.5,-1534 135.5,-1534 141.5,-1534 147.5,-1540 147.5,-1546 147.5,-1546 147.5,-1558 147.5,-1558 147.5,-1564 141.5,-1570 135.5,-1570"/>
<text text-anchor="middle" x="92" y="-1549.2" font-family="Helvetica,sans-Serif" font-size="11.00">iso10383_mic_cat</text>
</g>
<!-- iso10383_mic_cat&#45;&gt;iso10383_mic -->
<g id="edge18" class="edge">
<title>iso10383_mic_cat&#45;&gt;iso10383_mic</title>
<path fill="none" stroke="#64748b" d="M147.56,-1552C207.55,-1552 303.17,-1552 361.65,-1552"/>
<polygon fill="#64748b" stroke="#64748b" points="361.94,-1554.45 368.94,-1552 361.94,-1549.55 361.94,-1554.45"/>
<text text-anchor="middle" x="271" y="-1554.6" font-family="Helvetica,sans-Serif" font-size="8.00">fk_iso10383_mic_category</text>
</g>
<!-- iso3166_country -->
<g id="node11" class="node">
<title>iso3166_country</title>
<path fill="#f8fafc" stroke="#334155" d="M132.5,-1443C132.5,-1443 51.5,-1443 51.5,-1443 45.5,-1443 39.5,-1437 39.5,-1431 39.5,-1431 39.5,-1419 39.5,-1419 39.5,-1413 45.5,-1407 51.5,-1407 51.5,-1407 132.5,-1407 132.5,-1407 138.5,-1407 144.5,-1413 144.5,-1419 144.5,-1419 144.5,-1431 144.5,-1431 144.5,-1437 138.5,-1443 132.5,-1443"/>
<text text-anchor="middle" x="92" y="-1422.2" font-family="Helvetica,sans-Serif" font-size="11.00">iso3166_country</text>
</g>
<!-- iso3166_country&#45;&gt;exchange -->
<g id="edge19" class="edge">
<title>iso3166_country&#45;&gt;exchange</title>
<path fill="none" stroke="#64748b" d="M144.71,-1422.85C258.57,-1418.11 528.87,-1406.87 630.48,-1402.64"/>
<polygon fill="#64748b" stroke="#64748b" points="630.6,-1405.09 637.49,-1402.35 630.4,-1400.2 630.6,-1405.09"/>
<text text-anchor="middle" x="413.5" y="-1415.6" font-family="Helvetica,sans-Serif" font-size="8.00">fk_exchange_country</text>
</g>
<!-- iso3166_country&#45;&gt;iso10383_mic -->
<g id="edge20" class="edge">
<title>iso3166_country&#45;&gt;iso10383_mic</title>
<path fill="none" stroke="#64748b" d="M138.44,-1443.06C197.61,-1466.58 300.74,-1507.57 362.21,-1532.01"/>
<polygon fill="#64748b" stroke="#64748b" points="361.35,-1534.3 368.76,-1534.61 363.16,-1529.75 361.35,-1534.3"/>
<text text-anchor="middle" x="271" y="-1516.6" font-family="Helvetica,sans-Serif" font-size="8.00">fk_iso10383_mic_country</text>
</g>
<!-- issuer -->
<g id="node13" class="node">
<title>issuer</title>
<path fill="#f8fafc" stroke="#334155" d="M428.5,-1336C428.5,-1336 398.5,-1336 398.5,-1336 392.5,-1336 386.5,-1330 386.5,-1324 386.5,-1324 386.5,-1312 386.5,-1312 386.5,-1306 392.5,-1300 398.5,-1300 398.5,-1300 428.5,-1300 428.5,-1300 434.5,-1300 440.5,-1306 440.5,-1312 440.5,-1312 440.5,-1324 440.5,-1324 440.5,-1330 434.5,-1336 428.5,-1336"/>
<text text-anchor="middle" x="413.5" y="-1315.2" font-family="Helvetica,sans-Serif" font-size="11.00">issuer</text>
</g>
<!-- iso3166_country&#45;&gt;issuer -->
<g id="edge21" class="edge">
<title>iso3166_country&#45;&gt;issuer</title>
<path fill="none" stroke="#64748b" d="M144.69,-1407.69C210.91,-1385.51 323.77,-1347.71 379.45,-1329.07"/>
<polygon fill="#64748b" stroke="#64748b" points="380.41,-1331.33 386.27,-1326.79 378.85,-1326.69 380.41,-1331.33"/>
<text text-anchor="middle" x="271" y="-1383.6" font-family="Helvetica,sans-Serif" font-size="8.00">fk_issuer_country</text>
</g>
<!-- iso4217_currency -->
<g id="node12" class="node">
<title>iso4217_currency</title>
<path fill="#f8fafc" stroke="#334155" d="M457,-1697C457,-1697 370,-1697 370,-1697 364,-1697 358,-1691 358,-1685 358,-1685 358,-1673 358,-1673 358,-1667 364,-1661 370,-1661 370,-1661 457,-1661 457,-1661 463,-1661 469,-1667 469,-1673 469,-1673 469,-1685 469,-1685 469,-1691 463,-1697 457,-1697"/>
<text text-anchor="middle" x="413.5" y="-1676.2" font-family="Helvetica,sans-Serif" font-size="11.00">iso4217_currency</text>
</g>
<!-- iso4217_currency&#45;&gt;listing -->
<g id="edge22" class="edge">
<title>iso4217_currency&#45;&gt;listing</title>
<path fill="none" stroke="#64748b" d="M469.09,-1662.37C598.43,-1622.98 920.52,-1524.87 1024.83,-1493.1"/>
<polygon fill="#64748b" stroke="#64748b" points="1025.69,-1495.4 1031.67,-1491.02 1024.26,-1490.72 1025.69,-1495.4"/>
<text text-anchor="middle" x="671" y="-1618.6" font-family="Helvetica,sans-Serif" font-size="8.00">fk_listing_currency</text>
</g>
<!-- iso4217_currency&#45;&gt;security -->
<g id="edge23" class="edge">
<title>iso4217_currency&#45;&gt;security</title>
<path fill="none" stroke="#64748b" d="M469.31,-1692.52C519.31,-1704.84 591.74,-1722.7 634.53,-1733.25"/>
<polygon fill="#64748b" stroke="#64748b" points="634.01,-1735.65 641.4,-1734.95 635.19,-1730.89 634.01,-1735.65"/>
<text text-anchor="middle" x="543.5" y="-1721.6" font-family="Helvetica,sans-Serif" font-size="8.00">fk_security_currency</text>
</g>
<!-- issuer&#45;&gt;issuer_classification -->
<g id="edge24" class="edge">
<title>issuer&#45;&gt;issuer_classification</title>
<path fill="none" stroke="#64748b" d="M415.06,-1299.88C418.08,-1212.04 434.8,-821.96 502,-511 552.5,-277.32 430.93,0 670,0 670,0 670,0 1548.5,0 1732.13,0 1938.79,-85.98 2026.7,-126.87"/>
<polygon fill="#64748b" stroke="#64748b" points="2025.7,-129.1 2033.07,-129.85 2027.77,-124.67 2025.7,-129.1"/>
<text text-anchor="middle" x="1059" y="-2.6" font-family="Helvetica,sans-Serif" font-size="8.00">fk_issuer_class_issuer</text>
</g>
<!-- issuer&#45;&gt;issuer_identifier -->
<g id="edge25" class="edge">
<title>issuer&#45;&gt;issuer_identifier</title>
<path fill="none" stroke="#64748b" d="M423.68,-1299.89C457.3,-1235.94 581.07,-1020.87 757,-953 837.27,-922.03 938.59,-937.44 1000.81,-952.43"/>
<polygon fill="#64748b" stroke="#64748b" points="1000.45,-954.86 1007.83,-954.16 1001.62,-950.11 1000.45,-954.86"/>
<text text-anchor="middle" x="671" y="-1043.6" font-family="Helvetica,sans-Serif" font-size="8.00">fk_issuer_identifier_issuer</text>
</g>
<!-- issuer&#45;&gt;issuer_name_history -->
<g id="edge26" class="edge">
<title>issuer&#45;&gt;issuer_name_history</title>
<path fill="none" stroke="#64748b" d="M416.91,-1299.71C435.04,-1165.15 555.08,-329.98 757,-204 839.18,-152.73 958.01,-197.96 1018.86,-227.78"/>
<polygon fill="#64748b" stroke="#64748b" points="1017.92,-230.05 1025.28,-230.97 1020.1,-225.66 1017.92,-230.05"/>
<text text-anchor="middle" x="671" y="-416.6" font-family="Helvetica,sans-Serif" font-size="8.00">fk_issuer_name_issuer</text>
</g>
<!-- provider_evidence -->
<g id="node20" class="node">
<title>provider_evidence</title>
<path fill="#f8fafc" stroke="#334155" d="M2116.5,-1499C2116.5,-1499 2025.5,-1499 2025.5,-1499 2019.5,-1499 2013.5,-1493 2013.5,-1487 2013.5,-1487 2013.5,-1475 2013.5,-1475 2013.5,-1469 2019.5,-1463 2025.5,-1463 2025.5,-1463 2116.5,-1463 2116.5,-1463 2122.5,-1463 2128.5,-1469 2128.5,-1475 2128.5,-1475 2128.5,-1487 2128.5,-1487 2128.5,-1493 2122.5,-1499 2116.5,-1499"/>
<text text-anchor="middle" x="2071" y="-1478.2" font-family="Helvetica,sans-Serif" font-size="11.00">provider_evidence</text>
</g>
<!-- issuer&#45;&gt;provider_evidence -->
<g id="edge27" class="edge">
<title>issuer&#45;&gt;provider_evidence</title>
<path fill="none" stroke="#64748b" d="M440.61,-1318C486.85,-1318 586.16,-1318 670,-1318 670,-1318 670,-1318 1548.5,-1318 1736.17,-1318 1945.24,-1415.36 2030.55,-1459.59"/>
<polygon fill="#64748b" stroke="#64748b" points="2029.62,-1461.87 2036.96,-1462.93 2031.89,-1457.52 2029.62,-1461.87"/>
<text text-anchor="middle" x="1059" y="-1320.6" font-family="Helvetica,sans-Serif" font-size="8.00">fk_provider_evidence_issuer</text>
</g>
<!-- issuer&#45;&gt;security -->
<g id="edge28" class="edge">
<title>issuer&#45;&gt;security</title>
<path fill="none" stroke="#64748b" d="M433.14,-1336.03C443.77,-1346.42 457.27,-1359.81 469,-1372 484.05,-1387.64 487.22,-1392.1 502,-1408 538.61,-1447.37 558.39,-1449.28 585,-1496 611.32,-1542.2 600.84,-1560.67 618,-1611 630.83,-1648.63 648.32,-1691.26 659.39,-1717.39"/>
<polygon fill="#64748b" stroke="#64748b" points="657.2,-1718.5 662.19,-1723.99 661.71,-1716.58 657.2,-1718.5"/>
<text text-anchor="middle" x="543.5" y="-1498.6" font-family="Helvetica,sans-Serif" font-size="8.00">fk_security_issuer</text>
</g>
<!-- issuer&#45;&gt;security_event -->
<g id="edge29" class="edge">
<title>issuer&#45;&gt;security_event</title>
<path fill="none" stroke="#64748b" d="M440.64,-1307.51C457.89,-1300.82 481.08,-1292.26 502,-1286 613.54,-1252.61 642.72,-1248.26 757,-1226 925.19,-1193.24 970.48,-1203.01 1138,-1167 1266.67,-1139.34 1414.94,-1095.17 1492.62,-1071.07"/>
<polygon fill="#64748b" stroke="#64748b" points="1493.5,-1073.36 1499.46,-1068.94 1492.05,-1068.68 1493.5,-1073.36"/>
<text text-anchor="middle" x="852" y="-1228.6" font-family="Helvetica,sans-Serif" font-size="8.00">fk_security_event_issuer</text>
</g>
<!-- issuer&#45;&gt;security_reconciliation_evaluation -->
<g id="edge30" class="edge">
<title>issuer&#45;&gt;security_reconciliation_evaluation</title>
<path fill="none" stroke="#64748b" d="M430.63,-1336.17C443.4,-1351.69 460.47,-1375.23 469,-1399 520.15,-1541.48 451.29,-1595.37 502,-1738 570.63,-1931.03 583.76,-2012.64 757,-2122 1004.91,-2278.49 1170.33,-2344.03 1414,-2181 1516.56,-2112.38 1539.82,-1948.29 1545.03,-1885.26"/>
<polygon fill="#64748b" stroke="#64748b" points="1547.48,-1885.25 1545.57,-1878.08 1542.6,-1884.88 1547.48,-1885.25"/>
<text text-anchor="middle" x="852" y="-2227.6" font-family="Helvetica,sans-Serif" font-size="8.00">fk_sec_recon_eval_issuer</text>
</g>
<!-- security_reconciliation_evidence -->
<g id="node31" class="node">
<title>security_reconciliation_evidence</title>
<path fill="#f8fafc" stroke="#334155" d="M1631.5,-1705C1631.5,-1705 1463.5,-1705 1463.5,-1705 1457.5,-1705 1451.5,-1699 1451.5,-1693 1451.5,-1693 1451.5,-1681 1451.5,-1681 1451.5,-1675 1457.5,-1669 1463.5,-1669 1463.5,-1669 1631.5,-1669 1631.5,-1669 1637.5,-1669 1643.5,-1675 1643.5,-1681 1643.5,-1681 1643.5,-1693 1643.5,-1693 1643.5,-1699 1637.5,-1705 1631.5,-1705"/>
<text text-anchor="middle" x="1547.5" y="-1684.2" font-family="Helvetica,sans-Serif" font-size="11.00">security_reconciliation_evidence</text>
</g>
<!-- issuer&#45;&gt;security_reconciliation_evidence -->
<g id="edge31" class="edge">
<title>issuer&#45;&gt;security_reconciliation_evidence</title>
<path fill="none" stroke="#64748b" d="M440.8,-1326.8C476.16,-1339.51 539.79,-1365.54 585,-1402 594.66,-1409.79 717.76,-1566.27 724,-1577 743.76,-1610.96 724.99,-1636.23 757,-1659 775.76,-1672.35 1147.99,-1678.2 1171,-1679 1263.33,-1682.21 1368.47,-1684.32 1443.97,-1685.56"/>
<polygon fill="#64748b" stroke="#64748b" points="1444.14,-1688.01 1451.18,-1685.68 1444.22,-1683.11 1444.14,-1688.01"/>
<text text-anchor="middle" x="852" y="-1675.6" font-family="Helvetica,sans-Serif" font-size="8.00">fk_sec_recon_evidence_issuer</text>
</g>
<!-- listing&#45;&gt;listing_symbol_history -->
<g id="edge32" class="edge">
<title>listing&#45;&gt;listing_symbol_history</title>
<path fill="none" stroke="#64748b" d="M1086.16,-1470.07C1102.5,-1461.05 1123.17,-1447.82 1138,-1432 1193.76,-1372.51 1469.97,-853.57 1533.47,-733.65"/>
<polygon fill="#64748b" stroke="#64748b" points="1535.73,-734.62 1536.84,-727.29 1531.4,-732.33 1535.73,-734.62"/>
<text text-anchor="middle" x="1292.5" y="-1386.6" font-family="Helvetica,sans-Serif" font-size="8.00">fk_listing_symbol_listing</text>
</g>
<!-- listing&#45;&gt;provider_evidence -->
<g id="edge33" class="edge">
<title>listing&#45;&gt;provider_evidence</title>
<path fill="none" stroke="#64748b" d="M1086.24,-1482.95C1218.07,-1482.69 1809.54,-1481.52 2006.19,-1481.13"/>
<polygon fill="#64748b" stroke="#64748b" points="2006.31,-1483.58 2013.3,-1481.11 2006.3,-1478.68 2006.31,-1483.58"/>
<text text-anchor="middle" x="1547.5" y="-1484.6" font-family="Helvetica,sans-Serif" font-size="8.00">fk_provider_evidence_listing</text>
</g>
<!-- listing&#45;&gt;security_event -->
<g id="edge34" class="edge">
<title>listing&#45;&gt;security_event</title>
<path fill="none" stroke="#64748b" d="M1086.18,-1473.23C1108.5,-1465.15 1141.54,-1453.79 1171,-1446 1277.43,-1417.87 1329.74,-1468.84 1414,-1398 1514.5,-1313.51 1539.02,-1143.51 1544.79,-1079.32"/>
<polygon fill="#64748b" stroke="#64748b" points="1547.26,-1079.21 1545.4,-1072.02 1542.37,-1078.79 1547.26,-1079.21"/>
<text text-anchor="middle" x="1292.5" y="-1448.6" font-family="Helvetica,sans-Serif" font-size="8.00">fk_security_event_listing</text>
</g>
<!-- listing&#45;&gt;security_reconciliation_evaluation -->
<g id="edge35" class="edge">
<title>listing&#45;&gt;security_reconciliation_evaluation</title>
<path fill="none" stroke="#64748b" d="M1065.4,-1501.07C1077.91,-1540.09 1112.33,-1633.12 1171,-1688 1256.31,-1767.8 1385.12,-1815.69 1467.51,-1839.97"/>
<polygon fill="#64748b" stroke="#64748b" points="1466.94,-1842.36 1474.35,-1841.96 1468.31,-1837.65 1466.94,-1842.36"/>
<text text-anchor="middle" x="1292.5" y="-1823.6" font-family="Helvetica,sans-Serif" font-size="8.00">fk_sec_recon_eval_listing</text>
</g>
<!-- listing&#45;&gt;security_reconciliation_evaluation -->
<g id="edge36" class="edge">
<title>listing&#45;&gt;security_reconciliation_evaluation</title>
<path fill="none" stroke="#64748b" d="M1069.09,-1501.32C1085.17,-1531.67 1121.65,-1592.01 1171,-1622 1265.08,-1679.16 1324.44,-1605.99 1414,-1670 1437.82,-1687.02 1430.87,-1702.57 1447,-1727 1473.15,-1766.6 1506.79,-1810.24 1527.49,-1836.37"/>
<polygon fill="#64748b" stroke="#64748b" points="1525.68,-1838.03 1531.96,-1841.99 1529.52,-1834.98 1525.68,-1838.03"/>
<text text-anchor="middle" x="1292.5" y="-1672.6" font-family="Helvetica,sans-Serif" font-size="8.00">fk_sec_recon_eval_related_listing</text>
</g>
<!-- listing&#45;&gt;security_reconciliation_evidence -->
<g id="edge37" class="edge">
<title>listing&#45;&gt;security_reconciliation_evidence</title>
<path fill="none" stroke="#64748b" d="M1078.78,-1501.01C1099.61,-1519.94 1135.05,-1549.13 1171,-1565 1271.71,-1609.45 1310.67,-1575.03 1414,-1613 1449.95,-1626.21 1487.79,-1648.27 1513.78,-1664.88"/>
<polygon fill="#64748b" stroke="#64748b" points="1512.59,-1667.03 1519.8,-1668.76 1515.25,-1662.91 1512.59,-1667.03"/>
<text text-anchor="middle" x="1292.5" y="-1615.6" font-family="Helvetica,sans-Serif" font-size="8.00">fk_sec_recon_evidence_listing</text>
</g>
<!-- provider -->
<g id="node19" class="node">
<title>provider</title>
<path fill="#f8fafc" stroke="#334155" d="M689,-554C689,-554 653,-554 653,-554 647,-554 641,-548 641,-542 641,-542 641,-530 641,-530 641,-524 647,-518 653,-518 653,-518 689,-518 689,-518 695,-518 701,-524 701,-530 701,-530 701,-542 701,-542 701,-548 695,-554 689,-554"/>
<text text-anchor="middle" x="671" y="-533.2" font-family="Helvetica,sans-Serif" font-size="11.00">provider</text>
</g>
<!-- provider&#45;&gt;classification_system -->
<g id="edge38" class="edge">
<title>provider&#45;&gt;classification_system</title>
<path fill="none" stroke="#64748b" d="M673.09,-517.75C677.8,-445.64 698.8,-181.82 757,-127 817.55,-69.96 917.54,-66.46 985.51,-72.2"/>
<polygon fill="#64748b" stroke="#64748b" points="985.62,-74.67 992.81,-72.86 986.06,-69.79 985.62,-74.67"/>
<text text-anchor="middle" x="852" y="-129.6" font-family="Helvetica,sans-Serif" font-size="8.00">fk_classification_system_provider</text>
</g>
<!-- provider&#45;&gt;exchange_alias -->
<g id="edge39" class="edge">
<title>provider&#45;&gt;exchange_alias</title>
<path fill="none" stroke="#64748b" d="M678.95,-554.11C691.26,-584.5 719.18,-646.59 757,-689 826.12,-766.5 891.53,-737.21 947,-825 991.38,-895.24 930.23,-942.47 980,-1009 986.19,-1017.27 994.62,-1023.91 1003.66,-1029.19"/>
<polygon fill="#64748b" stroke="#64748b" points="1002.68,-1031.44 1010,-1032.63 1005.02,-1027.14 1002.68,-1031.44"/>
<text text-anchor="middle" x="852" y="-827.6" font-family="Helvetica,sans-Serif" font-size="8.00">fk_exchange_alias_provider</text>
</g>
<!-- provider&#45;&gt;issuer_classification -->
<g id="edge40" class="edge">
<title>provider&#45;&gt;issuer_classification</title>
<path fill="none" stroke="#64748b" d="M683.49,-517.79C695.56,-497.79 714.12,-464.33 724,-433 739.46,-383.96 718.86,-238.48 757,-204 803.5,-161.95 1738.21,-150.83 2001.51,-148.52"/>
<polygon fill="#64748b" stroke="#64748b" points="2001.75,-150.97 2008.73,-148.46 2001.71,-146.07 2001.75,-150.97"/>
<text text-anchor="middle" x="1292.5" y="-167.6" font-family="Helvetica,sans-Serif" font-size="8.00">fk_issuer_class_provider</text>
</g>
<!-- provider&#45;&gt;issuer_identifier -->
<g id="edge41" class="edge">
<title>provider&#45;&gt;issuer_identifier</title>
<path fill="none" stroke="#64748b" d="M683.14,-554.18C697.48,-576.02 724.48,-612.21 757,-632 831.4,-677.29 888.88,-615.13 947,-680 1018.26,-759.54 922.85,-827.79 980,-918 987.52,-929.87 998.92,-939.56 1010.69,-947.18"/>
<polygon fill="#64748b" stroke="#64748b" points="1009.62,-949.39 1016.87,-950.97 1012.19,-945.22 1009.62,-949.39"/>
<text text-anchor="middle" x="852" y="-682.6" font-family="Helvetica,sans-Serif" font-size="8.00">fk_issuer_identifier_provider</text>
</g>
<!-- provider&#45;&gt;issuer_name_history -->
<g id="edge42" class="edge">
<title>provider&#45;&gt;issuer_name_history</title>
<path fill="none" stroke="#64748b" d="M674.59,-517.71C683.18,-459.92 712.73,-283.14 757,-250 825.21,-198.93 928.65,-212.52 994.76,-229.11"/>
<polygon fill="#64748b" stroke="#64748b" points="994.44,-231.56 1001.83,-230.93 995.67,-226.81 994.44,-231.56"/>
<text text-anchor="middle" x="852" y="-252.6" font-family="Helvetica,sans-Serif" font-size="8.00">fk_issuer_name_provider</text>
</g>
<!-- provider&#45;&gt;listing_symbol_history -->
<g id="edge43" class="edge">
<title>provider&#45;&gt;listing_symbol_history</title>
<path fill="none" stroke="#64748b" d="M701.34,-541.11C751.67,-549.93 857.67,-568.72 947,-586 1136.53,-622.67 1359.02,-669.25 1472.2,-693.2"/>
<polygon fill="#64748b" stroke="#64748b" points="1471.81,-695.62 1479.17,-694.67 1472.83,-690.82 1471.81,-695.62"/>
<text text-anchor="middle" x="1059" y="-624.6" font-family="Helvetica,sans-Serif" font-size="8.00">fk_listing_symbol_provider</text>
</g>
<!-- provider_observation -->
<g id="node21" class="node">
<title>provider_observation</title>
<path fill="#f8fafc" stroke="#334155" d="M1601,-607C1601,-607 1494,-607 1494,-607 1488,-607 1482,-601 1482,-595 1482,-595 1482,-583 1482,-583 1482,-577 1488,-571 1494,-571 1494,-571 1601,-571 1601,-571 1607,-571 1613,-577 1613,-583 1613,-583 1613,-595 1613,-595 1613,-601 1607,-607 1601,-607"/>
<text text-anchor="middle" x="1547.5" y="-586.2" font-family="Helvetica,sans-Serif" font-size="11.00">provider_observation</text>
</g>
<!-- provider&#45;&gt;provider_observation -->
<g id="edge44" class="edge">
<title>provider&#45;&gt;provider_observation</title>
<path fill="none" stroke="#64748b" d="M701.32,-535.39C751.61,-534.5 857.56,-533.33 947,-537 1138,-544.84 1362.24,-568.04 1474.62,-580.63"/>
<polygon fill="#64748b" stroke="#64748b" points="1474.63,-583.1 1481.86,-581.45 1475.18,-578.23 1474.63,-583.1"/>
<text text-anchor="middle" x="1059" y="-549.6" font-family="Helvetica,sans-Serif" font-size="8.00">fk_provider_observation_provider</text>
</g>
<!-- provider_source_snapshot -->
<g id="node22" class="node">
<title>provider_source_snapshot</title>
<path fill="#f8fafc" stroke="#334155" d="M1126,-433C1126,-433 992,-433 992,-433 986,-433 980,-427 980,-421 980,-421 980,-409 980,-409 980,-403 986,-397 992,-397 992,-397 1126,-397 1126,-397 1132,-397 1138,-403 1138,-409 1138,-409 1138,-421 1138,-421 1138,-427 1132,-433 1126,-433"/>
<text text-anchor="middle" x="1059" y="-412.2" font-family="Helvetica,sans-Serif" font-size="11.00">provider_source_snapshot</text>
</g>
<!-- provider&#45;&gt;provider_source_snapshot -->
<g id="edge45" class="edge">
<title>provider&#45;&gt;provider_source_snapshot</title>
<path fill="none" stroke="#64748b" d="M689.85,-517.91C705.97,-502.69 731.08,-481.59 757,-470 825.76,-439.25 910.69,-425.69 972.78,-419.72"/>
<polygon fill="#64748b" stroke="#64748b" points="973.11,-422.14 979.85,-419.06 972.66,-417.27 973.11,-422.14"/>
<text text-anchor="middle" x="852" y="-472.6" font-family="Helvetica,sans-Serif" font-size="8.00">provider_source_snapshot_provider_code_fkey</text>
</g>
<!-- provider&#45;&gt;security_event -->
<g id="edge46" class="edge">
<title>provider&#45;&gt;security_event</title>
<path fill="none" stroke="#64748b" d="M700.65,-554.09C716.75,-563.67 737.47,-575.06 757,-583 838.1,-615.97 885.18,-573 947,-635 986.66,-674.78 941.41,-716.18 980,-757 1049.81,-830.84 1329.49,-844.57 1414,-901 1466.13,-935.81 1509.95,-996.4 1531.73,-1029.94"/>
<polygon fill="#64748b" stroke="#64748b" points="1529.69,-1031.31 1535.53,-1035.88 1533.82,-1028.66 1529.69,-1031.31"/>
<text text-anchor="middle" x="1059" y="-823.6" font-family="Helvetica,sans-Serif" font-size="8.00">fk_security_event_provider</text>
</g>
<!-- provider&#45;&gt;security_identifier -->
<g id="edge47" class="edge">
<title>provider&#45;&gt;security_identifier</title>
<path fill="none" stroke="#64748b" d="M675.9,-554.21C691.8,-628.33 751.17,-903.83 757,-911 815.55,-983.09 883.94,-929.82 947,-998 975.93,-1029.28 951.61,-1056.23 980,-1088 986.11,-1094.84 993.69,-1100.62 1001.71,-1105.47"/>
<polygon fill="#64748b" stroke="#64748b" points="1000.62,-1107.66 1007.91,-1109 1003.04,-1103.41 1000.62,-1107.66"/>
<text text-anchor="middle" x="852" y="-1000.6" font-family="Helvetica,sans-Serif" font-size="8.00">fk_security_identifier_provider</text>
</g>
<!-- security_reconciliation_evaluation_evidence -->
<g id="node29" class="node">
<title>security_reconciliation_evaluation_evidence</title>
<path fill="#f8fafc" stroke="#334155" d="M2731.5,-1730C2731.5,-1730 2500.5,-1730 2500.5,-1730 2494.5,-1730 2488.5,-1724 2488.5,-1718 2488.5,-1718 2488.5,-1706 2488.5,-1706 2488.5,-1700 2494.5,-1694 2500.5,-1694 2500.5,-1694 2731.5,-1694 2731.5,-1694 2737.5,-1694 2743.5,-1700 2743.5,-1706 2743.5,-1706 2743.5,-1718 2743.5,-1718 2743.5,-1724 2737.5,-1730 2731.5,-1730"/>
<text text-anchor="middle" x="2616" y="-1709.2" font-family="Helvetica,sans-Serif" font-size="11.00">security_reconciliation_evaluation_evidence</text>
</g>
<!-- provider_evidence&#45;&gt;security_reconciliation_evaluation_evidence -->
<g id="edge48" class="edge">
<title>provider_evidence&#45;&gt;security_reconciliation_evaluation_evidence</title>
<path fill="none" stroke="#64748b" d="M2128.55,-1486.65C2162.2,-1491.96 2204.68,-1502.23 2238,-1522 2256.67,-1533.08 2253.4,-1545.3 2271,-1558 2358.91,-1621.41 2477.09,-1667.24 2549.56,-1691.69"/>
<polygon fill="#64748b" stroke="#64748b" points="2549.01,-1694.09 2556.42,-1693.99 2550.56,-1689.44 2549.01,-1694.09"/>
<text text-anchor="middle" x="2352.5" y="-1648.6" font-family="Helvetica,sans-Serif" font-size="8.00">fk_sec_recon_eval_ev_provider</text>
</g>
<!-- security_reconciliation_evidence_provider_evidence -->
<g id="node32" class="node">
<title>security_reconciliation_evidence_provider_evidence</title>
<path fill="#f8fafc" stroke="#334155" d="M2753,-1593C2753,-1593 2479,-1593 2479,-1593 2473,-1593 2467,-1587 2467,-1581 2467,-1581 2467,-1569 2467,-1569 2467,-1563 2473,-1557 2479,-1557 2479,-1557 2753,-1557 2753,-1557 2759,-1557 2765,-1563 2765,-1569 2765,-1569 2765,-1581 2765,-1581 2765,-1587 2759,-1593 2753,-1593"/>
<text text-anchor="middle" x="2616" y="-1572.2" font-family="Helvetica,sans-Serif" font-size="11.00">security_reconciliation_evidence_provider_evidence</text>
</g>
<!-- provider_evidence&#45;&gt;security_reconciliation_evidence_provider_evidence -->
<g id="edge49" class="edge">
<title>provider_evidence&#45;&gt;security_reconciliation_evidence_provider_evidence</title>
<path fill="none" stroke="#64748b" d="M2128.76,-1490.62C2200.05,-1502.73 2326.11,-1524.22 2434,-1543 2457.46,-1547.08 2482.63,-1551.51 2506.51,-1555.72"/>
<polygon fill="#64748b" stroke="#64748b" points="2506.22,-1558.16 2513.54,-1556.96 2507.08,-1553.33 2506.22,-1558.16"/>
<text text-anchor="middle" x="2352.5" y="-1545.6" font-family="Helvetica,sans-Serif" font-size="8.00">fk_sec_recon_evidence_provider_source</text>
</g>
<!-- provider_observation&#45;&gt;provider_evidence -->
<g id="edge50" class="edge">
<title>provider_observation&#45;&gt;provider_evidence</title>
<path fill="none" stroke="#64748b" d="M1576.45,-607.05C1597.98,-621.99 1627.46,-644.79 1648,-670 1870.46,-943.05 2024.33,-1352.08 2061.37,-1456.2"/>
<polygon fill="#64748b" stroke="#64748b" points="2059.1,-1457.11 2063.74,-1462.89 2063.72,-1455.47 2059.1,-1457.11"/>
<text text-anchor="middle" x="1776" y="-1007.6" font-family="Helvetica,sans-Serif" font-size="8.00">fk_provider_evidence_observation</text>
</g>
<!-- provider_source_snapshot&#45;&gt;provider_observation -->
<g id="edge51" class="edge">
<title>provider_source_snapshot&#45;&gt;provider_observation</title>
<path fill="none" stroke="#64748b" d="M1086.18,-433.08C1107.96,-447.31 1140.26,-466.58 1171,-478 1274.2,-516.33 1309.48,-491.43 1414,-526 1446.77,-536.84 1481.98,-553.86 1507.86,-567.47"/>
<polygon fill="#64748b" stroke="#64748b" points="1506.9,-569.74 1514.23,-570.86 1509.19,-565.41 1506.9,-569.74"/>
<text text-anchor="middle" x="1292.5" y="-528.6" font-family="Helvetica,sans-Serif" font-size="8.00">provider_observation_source_snapshot_id_fkey</text>
</g>
<!-- provider_source_snapshot_object -->
<g id="node23" class="node">
<title>provider_source_snapshot_object</title>
<path fill="#f8fafc" stroke="#334155" d="M1634,-433C1634,-433 1461,-433 1461,-433 1455,-433 1449,-427 1449,-421 1449,-421 1449,-409 1449,-409 1449,-403 1455,-397 1461,-397 1461,-397 1634,-397 1634,-397 1640,-397 1646,-403 1646,-409 1646,-409 1646,-421 1646,-421 1646,-427 1640,-433 1634,-433"/>
<text text-anchor="middle" x="1547.5" y="-412.2" font-family="Helvetica,sans-Serif" font-size="11.00">provider_source_snapshot_object</text>
</g>
<!-- provider_source_snapshot&#45;&gt;provider_source_snapshot_object -->
<g id="edge52" class="edge">
<title>provider_source_snapshot&#45;&gt;provider_source_snapshot_object</title>
<path fill="none" stroke="#64748b" d="M1138.16,-415C1220.49,-415 1350.59,-415 1441.76,-415"/>
<polygon fill="#64748b" stroke="#64748b" points="1441.81,-417.45 1448.81,-415 1441.81,-412.55 1441.81,-417.45"/>
<text text-anchor="middle" x="1292.5" y="-417.6" font-family="Helvetica,sans-Serif" font-size="8.00">provider_source_snapshot_object_source_snapshot_id_fkey</text>
</g>
<!-- security_reconciliation_evidence_source_snapshot -->
<g id="node33" class="node">
<title>security_reconciliation_evidence_source_snapshot</title>
<path fill="#f8fafc" stroke="#334155" d="M2204,-1579C2204,-1579 1938,-1579 1938,-1579 1932,-1579 1926,-1573 1926,-1567 1926,-1567 1926,-1555 1926,-1555 1926,-1549 1932,-1543 1938,-1543 1938,-1543 2204,-1543 2204,-1543 2210,-1543 2216,-1549 2216,-1555 2216,-1555 2216,-1567 2216,-1567 2216,-1573 2210,-1579 2204,-1579"/>
<text text-anchor="middle" x="2071" y="-1558.2" font-family="Helvetica,sans-Serif" font-size="11.00">security_reconciliation_evidence_source_snapshot</text>
</g>
<!-- provider_source_snapshot&#45;&gt;security_reconciliation_evidence_source_snapshot -->
<g id="edge53" class="edge">
<title>provider_source_snapshot&#45;&gt;security_reconciliation_evidence_source_snapshot</title>
<path fill="none" stroke="#64748b" d="M1138.1,-426.94C1289.64,-450.78 1611.93,-505.09 1648,-541 1657.97,-550.93 1893.96,-1511.15 1904,-1521 1911.64,-1528.49 1920.42,-1534.67 1929.88,-1539.75"/>
<polygon fill="#64748b" stroke="#64748b" points="1928.83,-1541.96 1936.18,-1542.93 1931.04,-1537.59 1928.83,-1541.96"/>
<text text-anchor="middle" x="1547.5" y="-543.6" font-family="Helvetica,sans-Serif" font-size="8.00">fk_sec_recon_evidence_snapshot_source</text>
</g>
<!-- security&#45;&gt;listing -->
<g id="edge54" class="edge">
<title>security&#45;&gt;listing</title>
<path fill="none" stroke="#64748b" d="M683.83,-1723.85C698.48,-1702.85 725.41,-1668.77 757,-1650 831.87,-1605.51 879.45,-1656.98 947,-1602 973.05,-1580.79 957.8,-1559.22 980,-1534 992.63,-1519.65 1010.21,-1507.69 1025.48,-1498.96"/>
<polygon fill="#64748b" stroke="#64748b" points="1026.93,-1500.96 1031.87,-1495.42 1024.56,-1496.67 1026.93,-1500.96"/>
<text text-anchor="middle" x="852" y="-1652.6" font-family="Helvetica,sans-Serif" font-size="8.00">fk_listing_security</text>
</g>
<!-- security&#45;&gt;provider_evidence -->
<g id="edge55" class="edge">
<title>security&#45;&gt;provider_evidence</title>
<path fill="none" stroke="#64748b" d="M700.76,-1748.71C755.47,-1759.66 875.43,-1774.69 947,-1716 986.47,-1683.64 943.27,-1641.45 980,-1606 1094.89,-1495.11 1324.3,-1573.6 1871,-1513 1916.35,-1507.97 1967.12,-1499.77 2006.04,-1492.92"/>
<polygon fill="#64748b" stroke="#64748b" points="2006.69,-1495.29 2013.16,-1491.66 2005.84,-1490.47 2006.69,-1495.29"/>
<text text-anchor="middle" x="1292.5" y="-1545.6" font-family="Helvetica,sans-Serif" font-size="8.00">fk_provider_evidence_security</text>
</g>
<!-- security&#45;&gt;security_event -->
<g id="edge56" class="edge">
<title>security&#45;&gt;security_event</title>
<path fill="none" stroke="#64748b" d="M679.2,-1723.74C691.68,-1693.74 719.61,-1633.25 757,-1592 838.41,-1502.2 878.9,-1501.86 980,-1435 1048.92,-1389.42 1076.42,-1392.11 1138,-1337 1155.69,-1321.17 1150.88,-1307.61 1171,-1295 1264.67,-1236.3 1321.89,-1303.11 1414,-1242 1476.25,-1200.7 1518.28,-1119.36 1536.4,-1078.56"/>
<polygon fill="#64748b" stroke="#64748b" points="1538.65,-1079.53 1539.2,-1072.13 1534.15,-1077.57 1538.65,-1079.53"/>
<text text-anchor="middle" x="1059" y="-1437.6" font-family="Helvetica,sans-Serif" font-size="8.00">fk_security_event_security</text>
</g>
<!-- security&#45;&gt;security_identifier -->
<g id="edge57" class="edge">
<title>security&#45;&gt;security_identifier</title>
<path fill="none" stroke="#64748b" d="M680.73,-1723.79C692.32,-1698.88 712.64,-1652.54 724,-1611 748.92,-1519.87 695.39,-1472.62 757,-1401 814.75,-1333.87 881.22,-1400.29 947,-1341 974.35,-1316.35 963.58,-1297.96 980,-1265 1000.22,-1224.4 1026.73,-1178.89 1043.05,-1151.61"/>
<polygon fill="#64748b" stroke="#64748b" points="1045.27,-1152.68 1046.77,-1145.41 1041.07,-1150.15 1045.27,-1152.68"/>
<text text-anchor="middle" x="852" y="-1403.6" font-family="Helvetica,sans-Serif" font-size="8.00">fk_security_identifier_security</text>
</g>
<!-- security_reconciliation_decision -->
<g id="node27" class="node">
<title>security_reconciliation_decision</title>
<path fill="#f8fafc" stroke="#334155" d="M2153,-2038C2153,-2038 1989,-2038 1989,-2038 1983,-2038 1977,-2032 1977,-2026 1977,-2026 1977,-2014 1977,-2014 1977,-2008 1983,-2002 1989,-2002 1989,-2002 2153,-2002 2153,-2002 2159,-2002 2165,-2008 2165,-2014 2165,-2014 2165,-2026 2165,-2026 2165,-2032 2159,-2038 2153,-2038"/>
<text text-anchor="middle" x="2071" y="-2017.2" font-family="Helvetica,sans-Serif" font-size="11.00">security_reconciliation_decision</text>
</g>
<!-- security&#45;&gt;security_reconciliation_decision -->
<g id="edge58" class="edge">
<title>security&#45;&gt;security_reconciliation_decision</title>
<path fill="none" stroke="#64748b" d="M674.45,-1760.03C682.82,-1818.77 712.26,-2002.85 757,-2039 1145.39,-2352.82 1830.32,-2115.74 2020.05,-2040.71"/>
<polygon fill="#64748b" stroke="#64748b" points="2020.99,-2042.97 2026.59,-2038.11 2019.18,-2038.42 2020.99,-2042.97"/>
<text text-anchor="middle" x="1292.5" y="-2199.6" font-family="Helvetica,sans-Serif" font-size="8.00">fk_sec_recon_decision_security</text>
</g>
<!-- security&#45;&gt;security_reconciliation_evaluation -->
<g id="edge59" class="edge">
<title>security&#45;&gt;security_reconciliation_evaluation</title>
<path fill="none" stroke="#64748b" d="M671.93,-1760.29C672.87,-1806.93 682.58,-1930.33 757,-1983 876.18,-2067.34 1278.1,-2036.36 1414,-1983 1464.67,-1963.11 1507.5,-1913.71 1529.86,-1883.92"/>
<polygon fill="#64748b" stroke="#64748b" points="1531.86,-1885.33 1534.05,-1878.24 1527.92,-1882.42 1531.86,-1885.33"/>
<text text-anchor="middle" x="1059" y="-2037.6" font-family="Helvetica,sans-Serif" font-size="8.00">fk_sec_recon_eval_related_security</text>
</g>
<!-- security&#45;&gt;security_reconciliation_evaluation -->
<g id="edge60" class="edge">
<title>security&#45;&gt;security_reconciliation_evaluation</title>
<path fill="none" stroke="#64748b" d="M689.47,-1760.25C705.54,-1775.9 730.78,-1797.81 757,-1810 927.09,-1889.07 984.32,-1873.69 1171,-1892 1278.48,-1902.54 1306.76,-1904.77 1414,-1892 1435.11,-1889.49 1457.73,-1884.8 1478.19,-1879.77"/>
<polygon fill="#64748b" stroke="#64748b" points="1478.84,-1882.13 1485.04,-1878.05 1477.65,-1877.37 1478.84,-1882.13"/>
<text text-anchor="middle" x="1059" y="-1890.6" font-family="Helvetica,sans-Serif" font-size="8.00">fk_sec_recon_eval_security</text>
</g>
<!-- security&#45;&gt;security_reconciliation_evidence -->
<g id="edge61" class="edge">
<title>security&#45;&gt;security_reconciliation_evidence</title>
<path fill="none" stroke="#64748b" d="M700.8,-1755.59C716.94,-1762.49 737.66,-1770.21 757,-1774 854.3,-1793.06 880.86,-1778.67 980,-1780 1050.22,-1780.94 1068.08,-1786.53 1138,-1780 1262.28,-1768.39 1292.85,-1758.05 1414,-1728 1437.83,-1722.09 1463.69,-1714.38 1486.19,-1707.25"/>
<polygon fill="#64748b" stroke="#64748b" points="1487.14,-1709.52 1493.06,-1705.06 1485.65,-1704.85 1487.14,-1709.52"/>
<text text-anchor="middle" x="1059" y="-1785.6" font-family="Helvetica,sans-Serif" font-size="8.00">fk_sec_recon_evidence_security</text>
</g>
<!-- security_event&#45;&gt;provider_evidence -->
<g id="edge62" class="edge">
<title>security_event&#45;&gt;provider_evidence</title>
<path fill="none" stroke="#64748b" d="M1578.79,-1072.19C1637.61,-1108.09 1770.37,-1192 1871,-1277 1941.61,-1336.64 2015.14,-1417.87 2049.72,-1457.42"/>
<polygon fill="#64748b" stroke="#64748b" points="2048.09,-1459.28 2054.54,-1462.95 2051.79,-1456.06 2048.09,-1459.28"/>
<text text-anchor="middle" x="1776" y="-1279.6" font-family="Helvetica,sans-Serif" font-size="8.00">fk_provider_evidence_event</text>
</g>
<!-- security_reconciliation_evaluation&#45;&gt;security_reconciliation_decision -->
<g id="edge63" class="edge">
<title>security_reconciliation_evaluation&#45;&gt;security_reconciliation_decision</title>
<path fill="none" stroke="#64748b" d="M1607.31,-1878.04C1705.35,-1908.12 1901.52,-1968.31 2004.09,-1999.78"/>
<polygon fill="#64748b" stroke="#64748b" points="2003.6,-2002.19 2011.01,-2001.9 2005.03,-1997.5 2003.6,-2002.19"/>
<text text-anchor="middle" x="1776" y="-1956.6" font-family="Helvetica,sans-Serif" font-size="8.00">fk_sec_recon_decision_eval</text>
</g>
<!-- security_reconciliation_evaluation&#45;&gt;security_reconciliation_evaluation_evidence -->
<g id="edge64" class="edge">
<title>security_reconciliation_evaluation&#45;&gt;security_reconciliation_evaluation_evidence</title>
<path fill="none" stroke="#64748b" d="M1648.16,-1851.5C1782.51,-1839.48 2029,-1815.43 2238,-1784 2335.99,-1769.27 2447.34,-1747.36 2523.47,-1731.58"/>
<polygon fill="#64748b" stroke="#64748b" points="2524.37,-1733.89 2530.73,-1730.07 2523.38,-1729.1 2524.37,-1733.89"/>
<text text-anchor="middle" x="2071" y="-1827.6" font-family="Helvetica,sans-Serif" font-size="8.00">fk_sec_recon_eval_ev_eval</text>
</g>
<!-- security_reconciliation_evaluation_reconciliation_evidence -->
<g id="node30" class="node">
<title>security_reconciliation_evaluation_reconciliation_evidence</title>
<path fill="#f8fafc" stroke="#334155" d="M2226,-1762C2226,-1762 1916,-1762 1916,-1762 1910,-1762 1904,-1756 1904,-1750 1904,-1750 1904,-1738 1904,-1738 1904,-1732 1910,-1726 1916,-1726 1916,-1726 2226,-1726 2226,-1726 2232,-1726 2238,-1732 2238,-1738 2238,-1738 2238,-1750 2238,-1750 2238,-1756 2232,-1762 2226,-1762"/>
<text text-anchor="middle" x="2071" y="-1741.2" font-family="Helvetica,sans-Serif" font-size="11.00">security_reconciliation_evaluation_reconciliation_evidence</text>
</g>
<!-- security_reconciliation_evaluation&#45;&gt;security_reconciliation_evaluation_reconciliation_evidence -->
<g id="edge65" class="edge">
<title>security_reconciliation_evaluation&#45;&gt;security_reconciliation_evaluation_reconciliation_evidence</title>
<path fill="none" stroke="#64748b" d="M1588.05,-1841.94C1614.01,-1830.72 1648.95,-1816.82 1681,-1808 1753.89,-1787.94 1836.3,-1773.28 1906.44,-1763.09"/>
<polygon fill="#64748b" stroke="#64748b" points="1907.05,-1765.48 1913.63,-1762.05 1906.35,-1760.63 1907.05,-1765.48"/>
<text text-anchor="middle" x="1776" y="-1810.6" font-family="Helvetica,sans-Serif" font-size="8.00">fk_sec_recon_eval_recon_evidence_evaluation</text>
</g>
<!-- security_reconciliation_evidence&#45;&gt;security_reconciliation_evaluation_reconciliation_evidence -->
<g id="edge66" class="edge">
<title>security_reconciliation_evidence&#45;&gt;security_reconciliation_evaluation_reconciliation_evidence</title>
<path fill="none" stroke="#64748b" d="M1643.54,-1697.39C1714.48,-1705.14 1813.36,-1715.95 1898.05,-1725.21"/>
<polygon fill="#64748b" stroke="#64748b" points="1897.93,-1727.66 1905.15,-1725.98 1898.46,-1722.79 1897.93,-1727.66"/>
<text text-anchor="middle" x="1776" y="-1722.6" font-family="Helvetica,sans-Serif" font-size="8.00">fk_sec_recon_eval_recon_evidence_evidence</text>
</g>
<!-- security_reconciliation_evidence&#45;&gt;security_reconciliation_evidence_provider_evidence -->
<g id="edge67" class="edge">
<title>security_reconciliation_evidence&#45;&gt;security_reconciliation_evidence_provider_evidence</title>
<path fill="none" stroke="#64748b" d="M1643.77,-1692.1C1807.36,-1698.71 2151.35,-1703.17 2434,-1644 2482.65,-1633.82 2535.46,-1612.39 2571.4,-1596.1"/>
<polygon fill="#64748b" stroke="#64748b" points="2572.57,-1598.26 2577.92,-1593.12 2570.53,-1593.81 2572.57,-1598.26"/>
<text text-anchor="middle" x="2071" y="-1697.6" font-family="Helvetica,sans-Serif" font-size="8.00">fk_sec_recon_evidence_provider_evidence</text>
</g>
<!-- security_reconciliation_evidence&#45;&gt;security_reconciliation_evidence_source_snapshot -->
<g id="edge68" class="edge">
<title>security_reconciliation_evidence&#45;&gt;security_reconciliation_evidence_source_snapshot</title>
<path fill="none" stroke="#64748b" d="M1584.21,-1668.96C1610.41,-1656.39 1647.17,-1640.13 1681,-1630 1758.02,-1606.94 1846.07,-1590.53 1918.89,-1579.52"/>
<polygon fill="#64748b" stroke="#64748b" points="1919.33,-1581.93 1925.89,-1578.47 1918.6,-1577.08 1919.33,-1581.93"/>
<text text-anchor="middle" x="1776" y="-1632.6" font-family="Helvetica,sans-Serif" font-size="8.00">fk_sec_recon_evidence_snapshot_evidence</text>
</g>
<!-- stg_iso10383_mic -->
<g id="node34" class="node">
<title>stg_iso10383_mic</title>
<path fill="#f8fafc" stroke="#334155" d="M135.5,-2374C135.5,-2374 48.5,-2374 48.5,-2374 42.5,-2374 36.5,-2368 36.5,-2362 36.5,-2362 36.5,-2350 36.5,-2350 36.5,-2344 42.5,-2338 48.5,-2338 48.5,-2338 135.5,-2338 135.5,-2338 141.5,-2338 147.5,-2344 147.5,-2350 147.5,-2350 147.5,-2362 147.5,-2362 147.5,-2368 141.5,-2374 135.5,-2374"/>
<text text-anchor="middle" x="92" y="-2353.2" font-family="Helvetica,sans-Serif" font-size="11.00">stg_iso10383_mic</text>
</g>
<!-- stg_iso3166_country -->
<g id="node35" class="node">
<title>stg_iso3166_country</title>
<path fill="#f8fafc" stroke="#334155" d="M143.5,-2453C143.5,-2453 40.5,-2453 40.5,-2453 34.5,-2453 28.5,-2447 28.5,-2441 28.5,-2441 28.5,-2429 28.5,-2429 28.5,-2423 34.5,-2417 40.5,-2417 40.5,-2417 143.5,-2417 143.5,-2417 149.5,-2417 155.5,-2423 155.5,-2429 155.5,-2429 155.5,-2441 155.5,-2441 155.5,-2447 149.5,-2453 143.5,-2453"/>
<text text-anchor="middle" x="92" y="-2432.2" font-family="Helvetica,sans-Serif" font-size="11.00">stg_iso3166_country</text>
</g>
<!-- stg_iso4217_currency -->
<g id="node36" class="node">
<title>stg_iso4217_currency</title>
<path fill="#f8fafc" stroke="#334155" d="M146.5,-2532C146.5,-2532 37.5,-2532 37.5,-2532 31.5,-2532 25.5,-2526 25.5,-2520 25.5,-2520 25.5,-2508 25.5,-2508 25.5,-2502 31.5,-2496 37.5,-2496 37.5,-2496 146.5,-2496 146.5,-2496 152.5,-2496 158.5,-2502 158.5,-2508 158.5,-2508 158.5,-2520 158.5,-2520 158.5,-2526 152.5,-2532 146.5,-2532"/>
<text text-anchor="middle" x="92" y="-2511.2" font-family="Helvetica,sans-Serif" font-size="11.00">stg_iso4217_currency</text>
</g>
<!-- stg_sec_sic_classification_code -->
<g id="node37" class="node">
<title>stg_sec_sic_classification_code</title>
<path fill="#f8fafc" stroke="#334155" d="M172,-2611C172,-2611 12,-2611 12,-2611 6,-2611 0,-2605 0,-2599 0,-2599 0,-2587 0,-2587 0,-2581 6,-2575 12,-2575 12,-2575 172,-2575 172,-2575 178,-2575 184,-2581 184,-2587 184,-2587 184,-2599 184,-2599 184,-2605 178,-2611 172,-2611"/>
<text text-anchor="middle" x="92" y="-2590.2" font-family="Helvetica,sans-Serif" font-size="11.00">stg_sec_sic_classification_code</text>
</g>
</g>
</svg>
