<?xml version="1.0" encoding="UTF-8" standalone="no"?>
<!DOCTYPE svg PUBLIC "-//W3C//DTD SVG 1.1//EN"
 "http://www.w3.org/Graphics/SVG/1.1/DTD/svg11.dtd">
<!-- Generated by graphviz version 2.42.4 (0)
 -->
<!-- Title: schema_relations Pages: 1 -->
<svg width="2009pt" height="1969pt"
 viewBox="0.00 0.00 2009.00 1968.84" xmlns="http://www.w3.org/2000/svg" xmlns:xlink="http://www.w3.org/1999/xlink">
<g id="graph0" class="graph" transform="scale(1 1) rotate(0) translate(18 1950.84)">
<title>schema_relations</title>
<!-- classification_code -->
<g id="node1" class="node">
<title>classification_code</title>
<path fill="#f8fafc" stroke="#334155" d="M1592,-129.84C1592,-129.84 1499,-129.84 1499,-129.84 1493,-129.84 1487,-123.84 1487,-117.84 1487,-117.84 1487,-105.84 1487,-105.84 1487,-99.84 1493,-93.84 1499,-93.84 1499,-93.84 1592,-93.84 1592,-93.84 1598,-93.84 1604,-99.84 1604,-105.84 1604,-105.84 1604,-117.84 1604,-117.84 1604,-123.84 1598,-129.84 1592,-129.84"/>
<text text-anchor="middle" x="1545.5" y="-109.04" font-family="Helvetica,sans-Serif" font-size="11.00">classification_code</text>
</g>
<!-- issuer_classification -->
<g id="node14" class="node">
<title>issuer_classification</title>
<path fill="#f8fafc" stroke="#334155" d="M1961,-658.84C1961,-658.84 1861,-658.84 1861,-658.84 1855,-658.84 1849,-652.84 1849,-646.84 1849,-646.84 1849,-634.84 1849,-634.84 1849,-628.84 1855,-622.84 1861,-622.84 1861,-622.84 1961,-622.84 1961,-622.84 1967,-622.84 1973,-628.84 1973,-634.84 1973,-634.84 1973,-646.84 1973,-646.84 1973,-652.84 1967,-658.84 1961,-658.84"/>
<text text-anchor="middle" x="1911" y="-638.04" font-family="Helvetica,sans-Serif" font-size="11.00">issuer_classification</text>
</g>
<!-- classification_code&#45;&gt;issuer_classification -->
<g id="edge1" class="edge">
<title>classification_code&#45;&gt;issuer_classification</title>
<path fill="none" stroke="#64748b" d="M1604.15,-127.32C1618.3,-133.06 1632.63,-140.72 1644,-150.84 1797.79,-287.64 1879.62,-535.25 1902.93,-615.2"/>
<polygon fill="#64748b" stroke="#64748b" points="1900.71,-616.36 1905,-622.41 1905.42,-615 1900.71,-616.36"/>
<text text-anchor="middle" x="1746.5" y="-383.44" font-family="Helvetica,sans-Serif" font-size="8.00">fk_issuer_class_code</text>
</g>
<!-- classification_system -->
<g id="node2" class="node">
<title>classification_system</title>
<path fill="#f8fafc" stroke="#334155" d="M1113,-129.84C1113,-129.84 1005,-129.84 1005,-129.84 999,-129.84 993,-123.84 993,-117.84 993,-117.84 993,-105.84 993,-105.84 993,-99.84 999,-93.84 1005,-93.84 1005,-93.84 1113,-93.84 1113,-93.84 1119,-93.84 1125,-99.84 1125,-105.84 1125,-105.84 1125,-117.84 1125,-117.84 1125,-123.84 1119,-129.84 1113,-129.84"/>
<text text-anchor="middle" x="1059" y="-109.04" font-family="Helvetica,sans-Serif" font-size="11.00">classification_system</text>
</g>
<!-- classification_system&#45;&gt;classification_code -->
<g id="edge2" class="edge">
<title>classification_system&#45;&gt;classification_code</title>
<path fill="none" stroke="#64748b" d="M1125.09,-111.84C1217.9,-111.84 1387.26,-111.84 1479.83,-111.84"/>
<polygon fill="#64748b" stroke="#64748b" points="1479.91,-114.29 1486.91,-111.84 1479.91,-109.39 1479.91,-114.29"/>
<text text-anchor="middle" x="1292.5" y="-114.44" font-family="Helvetica,sans-Serif" font-size="8.00">fk_classification_code_system</text>
</g>
<!-- confidence_level -->
<g id="node3" class="node">
<title>confidence_level</title>
<path fill="#f8fafc" stroke="#334155" d="M711.5,-1018.84C711.5,-1018.84 630.5,-1018.84 630.5,-1018.84 624.5,-1018.84 618.5,-1012.84 618.5,-1006.84 618.5,-1006.84 618.5,-994.84 618.5,-994.84 618.5,-988.84 624.5,-982.84 630.5,-982.84 630.5,-982.84 711.5,-982.84 711.5,-982.84 717.5,-982.84 723.5,-988.84 723.5,-994.84 723.5,-994.84 723.5,-1006.84 723.5,-1006.84 723.5,-1012.84 717.5,-1018.84 711.5,-1018.84"/>
<text text-anchor="middle" x="671" y="-998.04" font-family="Helvetica,sans-Serif" font-size="11.00">confidence_level</text>
</g>
<!-- confidence_level&#45;&gt;issuer_classification -->
<g id="edge3" class="edge">
<title>confidence_level&#45;&gt;issuer_classification</title>
<path fill="none" stroke="#64748b" d="M723.65,-988.48C918.23,-941.67 1606.48,-773.73 1816,-690.84 1835.75,-683.03 1856.7,-672.16 1873.8,-662.55"/>
<polygon fill="#64748b" stroke="#64748b" points="1875.05,-664.66 1879.92,-659.07 1872.62,-660.4 1875.05,-664.66"/>
<text text-anchor="middle" x="1292.5" y="-878.44" font-family="Helvetica,sans-Serif" font-size="8.00">fk_issuer_class_confidence</text>
</g>
<!-- issuer_identifier -->
<g id="node15" class="node">
<title>issuer_identifier</title>
<path fill="#f8fafc" stroke="#334155" d="M1098,-1314.84C1098,-1314.84 1020,-1314.84 1020,-1314.84 1014,-1314.84 1008,-1308.84 1008,-1302.84 1008,-1302.84 1008,-1290.84 1008,-1290.84 1008,-1284.84 1014,-1278.84 1020,-1278.84 1020,-1278.84 1098,-1278.84 1098,-1278.84 1104,-1278.84 1110,-1284.84 1110,-1290.84 1110,-1290.84 1110,-1302.84 1110,-1302.84 1110,-1308.84 1104,-1314.84 1098,-1314.84"/>
<text text-anchor="middle" x="1059" y="-1294.04" font-family="Helvetica,sans-Serif" font-size="11.00">issuer_identifier</text>
</g>
<!-- confidence_level&#45;&gt;issuer_identifier -->
<g id="edge4" class="edge">
<title>confidence_level&#45;&gt;issuer_identifier</title>
<path fill="none" stroke="#64748b" d="M682.25,-1019.11C696.23,-1042.46 723.44,-1082.62 757,-1105.84 830.16,-1156.46 875.61,-1115.75 947,-1168.84 967.48,-1184.07 963.77,-1196.14 980,-1215.84 996.85,-1236.28 1017.74,-1257.8 1033.66,-1273.52"/>
<polygon fill="#64748b" stroke="#64748b" points="1032.15,-1275.47 1038.86,-1278.62 1035.58,-1271.97 1032.15,-1275.47"/>
<text text-anchor="middle" x="852" y="-1171.44" font-family="Helvetica,sans-Serif" font-size="8.00">fk_issuer_identifier_confidence</text>
</g>
<!-- issuer_name_history -->
<g id="node16" class="node">
<title>issuer_name_history</title>
<path fill="#f8fafc" stroke="#334155" d="M1110.5,-746.84C1110.5,-746.84 1007.5,-746.84 1007.5,-746.84 1001.5,-746.84 995.5,-740.84 995.5,-734.84 995.5,-734.84 995.5,-722.84 995.5,-722.84 995.5,-716.84 1001.5,-710.84 1007.5,-710.84 1007.5,-710.84 1110.5,-710.84 1110.5,-710.84 1116.5,-710.84 1122.5,-716.84 1122.5,-722.84 1122.5,-722.84 1122.5,-734.84 1122.5,-734.84 1122.5,-740.84 1116.5,-746.84 1110.5,-746.84"/>
<text text-anchor="middle" x="1059" y="-726.04" font-family="Helvetica,sans-Serif" font-size="11.00">issuer_name_history</text>
</g>
<!-- confidence_level&#45;&gt;issuer_name_history -->
<g id="edge5" class="edge">
<title>confidence_level&#45;&gt;issuer_name_history</title>
<path fill="none" stroke="#64748b" d="M676.06,-982.81C684.72,-948.66 708.3,-874.52 757,-835.84 825.2,-781.67 865.73,-819.17 947,-787.84 973.32,-777.69 1001.35,-762.75 1022.66,-750.45"/>
<polygon fill="#64748b" stroke="#64748b" points="1023.96,-752.53 1028.77,-746.89 1021.49,-748.3 1023.96,-752.53"/>
<text text-anchor="middle" x="852" y="-838.44" font-family="Helvetica,sans-Serif" font-size="8.00">fk_issuer_name_confidence</text>
</g>
<!-- listing_symbol_history -->
<g id="node18" class="node">
<title>listing_symbol_history</title>
<path fill="#f8fafc" stroke="#334155" d="M1601.5,-994.84C1601.5,-994.84 1489.5,-994.84 1489.5,-994.84 1483.5,-994.84 1477.5,-988.84 1477.5,-982.84 1477.5,-982.84 1477.5,-970.84 1477.5,-970.84 1477.5,-964.84 1483.5,-958.84 1489.5,-958.84 1489.5,-958.84 1601.5,-958.84 1601.5,-958.84 1607.5,-958.84 1613.5,-964.84 1613.5,-970.84 1613.5,-970.84 1613.5,-982.84 1613.5,-982.84 1613.5,-988.84 1607.5,-994.84 1601.5,-994.84"/>
<text text-anchor="middle" x="1545.5" y="-974.04" font-family="Helvetica,sans-Serif" font-size="11.00">listing_symbol_history</text>
</g>
<!-- confidence_level&#45;&gt;listing_symbol_history -->
<g id="edge6" class="edge">
<title>confidence_level&#45;&gt;listing_symbol_history</title>
<path fill="none" stroke="#64748b" d="M723.64,-999.42C871.59,-995.35 1297.43,-983.64 1470.27,-978.88"/>
<polygon fill="#64748b" stroke="#64748b" points="1470.38,-981.33 1477.31,-978.69 1470.24,-976.43 1470.38,-981.33"/>
<text text-anchor="middle" x="1059" y="-994.44" font-family="Helvetica,sans-Serif" font-size="8.00">fk_listing_symbol_confidence</text>
</g>
<!-- security_event -->
<g id="node25" class="node">
<title>security_event</title>
<path fill="#f8fafc" stroke="#334155" d="M1581.5,-1509.84C1581.5,-1509.84 1509.5,-1509.84 1509.5,-1509.84 1503.5,-1509.84 1497.5,-1503.84 1497.5,-1497.84 1497.5,-1497.84 1497.5,-1485.84 1497.5,-1485.84 1497.5,-1479.84 1503.5,-1473.84 1509.5,-1473.84 1509.5,-1473.84 1581.5,-1473.84 1581.5,-1473.84 1587.5,-1473.84 1593.5,-1479.84 1593.5,-1485.84 1593.5,-1485.84 1593.5,-1497.84 1593.5,-1497.84 1593.5,-1503.84 1587.5,-1509.84 1581.5,-1509.84"/>
<text text-anchor="middle" x="1545.5" y="-1489.04" font-family="Helvetica,sans-Serif" font-size="11.00">security_event</text>
</g>
<!-- confidence_level&#45;&gt;security_event -->
<g id="edge7" class="edge">
<title>confidence_level&#45;&gt;security_event</title>
<path fill="none" stroke="#64748b" d="M723.74,-1004.3C874.37,-1015.37 1308.62,-1054.49 1414,-1143.84 1514.97,-1229.45 1537.92,-1401.35 1543.05,-1466.25"/>
<polygon fill="#64748b" stroke="#64748b" points="1540.64,-1466.82 1543.59,-1473.62 1545.52,-1466.46 1540.64,-1466.82"/>
<text text-anchor="middle" x="1059" y="-1054.44" font-family="Helvetica,sans-Serif" font-size="8.00">fk_security_event_confidence</text>
</g>
<!-- security_identifier -->
<g id="node26" class="node">
<title>security_identifier</title>
<path fill="#f8fafc" stroke="#334155" d="M1103.5,-1193.84C1103.5,-1193.84 1014.5,-1193.84 1014.5,-1193.84 1008.5,-1193.84 1002.5,-1187.84 1002.5,-1181.84 1002.5,-1181.84 1002.5,-1169.84 1002.5,-1169.84 1002.5,-1163.84 1008.5,-1157.84 1014.5,-1157.84 1014.5,-1157.84 1103.5,-1157.84 1103.5,-1157.84 1109.5,-1157.84 1115.5,-1163.84 1115.5,-1169.84 1115.5,-1169.84 1115.5,-1181.84 1115.5,-1181.84 1115.5,-1187.84 1109.5,-1193.84 1103.5,-1193.84"/>
<text text-anchor="middle" x="1059" y="-1173.04" font-family="Helvetica,sans-Serif" font-size="11.00">security_identifier</text>
</g>
<!-- confidence_level&#45;&gt;security_identifier -->
<g id="edge8" class="edge">
<title>confidence_level&#45;&gt;security_identifier</title>
<path fill="none" stroke="#64748b" d="M699.78,-1019.03C715.94,-1028.97 737.02,-1040.84 757,-1048.84 837.86,-1081.21 867.94,-1060.29 947,-1096.84 978.53,-1111.42 1010.42,-1135.27 1031.88,-1152.96"/>
<polygon fill="#64748b" stroke="#64748b" points="1030.43,-1154.94 1037.37,-1157.54 1033.57,-1151.18 1030.43,-1154.94"/>
<text text-anchor="middle" x="852" y="-1099.44" font-family="Helvetica,sans-Serif" font-size="8.00">fk_security_identifier_confidence</text>
</g>
<!-- exchange -->
<g id="node4" class="node">
<title>exchange</title>
<path fill="#f8fafc" stroke="#334155" d="M692.5,-593.84C692.5,-593.84 649.5,-593.84 649.5,-593.84 643.5,-593.84 637.5,-587.84 637.5,-581.84 637.5,-581.84 637.5,-569.84 637.5,-569.84 637.5,-563.84 643.5,-557.84 649.5,-557.84 649.5,-557.84 692.5,-557.84 692.5,-557.84 698.5,-557.84 704.5,-563.84 704.5,-569.84 704.5,-569.84 704.5,-581.84 704.5,-581.84 704.5,-587.84 698.5,-593.84 692.5,-593.84"/>
<text text-anchor="middle" x="671" y="-573.04" font-family="Helvetica,sans-Serif" font-size="11.00">exchange</text>
</g>
<!-- exchange_alias -->
<g id="node5" class="node">
<title>exchange_alias</title>
<path fill="#f8fafc" stroke="#334155" d="M1096,-572.84C1096,-572.84 1022,-572.84 1022,-572.84 1016,-572.84 1010,-566.84 1010,-560.84 1010,-560.84 1010,-548.84 1010,-548.84 1010,-542.84 1016,-536.84 1022,-536.84 1022,-536.84 1096,-536.84 1096,-536.84 1102,-536.84 1108,-542.84 1108,-548.84 1108,-548.84 1108,-560.84 1108,-560.84 1108,-566.84 1102,-572.84 1096,-572.84"/>
<text text-anchor="middle" x="1059" y="-552.04" font-family="Helvetica,sans-Serif" font-size="11.00">exchange_alias</text>
</g>
<!-- exchange&#45;&gt;exchange_alias -->
<g id="edge9" class="edge">
<title>exchange&#45;&gt;exchange_alias</title>
<path fill="none" stroke="#64748b" d="M704.69,-577.81C756.3,-580.47 859.77,-584.02 947,-575.84 965.36,-574.12 985.21,-570.83 1002.97,-567.36"/>
<polygon fill="#64748b" stroke="#64748b" points="1003.54,-569.74 1009.93,-565.97 1002.58,-564.93 1003.54,-569.74"/>
<text text-anchor="middle" x="852" y="-583.44" font-family="Helvetica,sans-Serif" font-size="8.00">fk_exchange_alias_exchange</text>
</g>
<!-- listing -->
<g id="node17" class="node">
<title>listing</title>
<path fill="#f8fafc" stroke="#334155" d="M1074,-1596.84C1074,-1596.84 1044,-1596.84 1044,-1596.84 1038,-1596.84 1032,-1590.84 1032,-1584.84 1032,-1584.84 1032,-1572.84 1032,-1572.84 1032,-1566.84 1038,-1560.84 1044,-1560.84 1044,-1560.84 1074,-1560.84 1074,-1560.84 1080,-1560.84 1086,-1566.84 1086,-1572.84 1086,-1572.84 1086,-1584.84 1086,-1584.84 1086,-1590.84 1080,-1596.84 1074,-1596.84"/>
<text text-anchor="middle" x="1059" y="-1576.04" font-family="Helvetica,sans-Serif" font-size="11.00">listing</text>
</g>
<!-- exchange&#45;&gt;listing -->
<g id="edge10" class="edge">
<title>exchange&#45;&gt;listing</title>
<path fill="none" stroke="#64748b" d="M680.86,-594.06C693,-619.98 714.38,-669.29 724,-713.84 735.9,-768.91 720.95,-1176.54 757,-1219.84 812.72,-1286.78 886.78,-1204.91 947,-1267.84 997.2,-1320.3 955.78,-1359.39 980,-1427.84 996.56,-1474.65 1025.05,-1525.16 1042.63,-1554.29"/>
<polygon fill="#64748b" stroke="#64748b" points="1040.69,-1555.81 1046.43,-1560.52 1044.88,-1553.26 1040.69,-1555.81"/>
<text text-anchor="middle" x="852" y="-1270.44" font-family="Helvetica,sans-Serif" font-size="8.00">fk_listing_exchange</text>
</g>
<!-- identifier_type -->
<g id="node6" class="node">
<title>identifier_type</title>
<path fill="#f8fafc" stroke="#334155" d="M705.5,-1235.84C705.5,-1235.84 636.5,-1235.84 636.5,-1235.84 630.5,-1235.84 624.5,-1229.84 624.5,-1223.84 624.5,-1223.84 624.5,-1211.84 624.5,-1211.84 624.5,-1205.84 630.5,-1199.84 636.5,-1199.84 636.5,-1199.84 705.5,-1199.84 705.5,-1199.84 711.5,-1199.84 717.5,-1205.84 717.5,-1211.84 717.5,-1211.84 717.5,-1223.84 717.5,-1223.84 717.5,-1229.84 711.5,-1235.84 705.5,-1235.84"/>
<text text-anchor="middle" x="671" y="-1215.04" font-family="Helvetica,sans-Serif" font-size="11.00">identifier_type</text>
</g>
<!-- identifier_type&#45;&gt;issuer_identifier -->
<g id="edge11" class="edge">
<title>identifier_type&#45;&gt;issuer_identifier</title>
<path fill="none" stroke="#64748b" d="M691.55,-1236.08C707.75,-1249.96 732.08,-1268.12 757,-1276.84 837.99,-1305.18 938.6,-1305.43 1000.55,-1301.95"/>
<polygon fill="#64748b" stroke="#64748b" points="1001.07,-1304.37 1007.91,-1301.5 1000.77,-1299.48 1001.07,-1304.37"/>
<text text-anchor="middle" x="852" y="-1305.44" font-family="Helvetica,sans-Serif" font-size="8.00">fk_issuer_identifier_type</text>
</g>
<!-- identifier_type&#45;&gt;security_identifier -->
<g id="edge12" class="edge">
<title>identifier_type&#45;&gt;security_identifier</title>
<path fill="none" stroke="#64748b" d="M717.8,-1212.86C786.67,-1205.36 917.11,-1191.17 994.93,-1182.7"/>
<polygon fill="#64748b" stroke="#64748b" points="995.6,-1185.09 1002.3,-1181.9 995.07,-1180.22 995.6,-1185.09"/>
<text text-anchor="middle" x="852" y="-1209.44" font-family="Helvetica,sans-Serif" font-size="8.00">fk_security_identifier_type</text>
</g>
<!-- instrument_class -->
<g id="node7" class="node">
<title>instrument_class</title>
<path fill="#f8fafc" stroke="#334155" d="M134,-1616.84C134,-1616.84 50,-1616.84 50,-1616.84 44,-1616.84 38,-1610.84 38,-1604.84 38,-1604.84 38,-1592.84 38,-1592.84 38,-1586.84 44,-1580.84 50,-1580.84 50,-1580.84 134,-1580.84 134,-1580.84 140,-1580.84 146,-1586.84 146,-1592.84 146,-1592.84 146,-1604.84 146,-1604.84 146,-1610.84 140,-1616.84 134,-1616.84"/>
<text text-anchor="middle" x="92" y="-1596.04" font-family="Helvetica,sans-Serif" font-size="11.00">instrument_class</text>
</g>
<!-- instrument_type -->
<g id="node8" class="node">
<title>instrument_type</title>
<path fill="#f8fafc" stroke="#334155" d="M454,-1616.84C454,-1616.84 373,-1616.84 373,-1616.84 367,-1616.84 361,-1610.84 361,-1604.84 361,-1604.84 361,-1592.84 361,-1592.84 361,-1586.84 367,-1580.84 373,-1580.84 373,-1580.84 454,-1580.84 454,-1580.84 460,-1580.84 466,-1586.84 466,-1592.84 466,-1592.84 466,-1604.84 466,-1604.84 466,-1610.84 460,-1616.84 454,-1616.84"/>
<text text-anchor="middle" x="413.5" y="-1596.04" font-family="Helvetica,sans-Serif" font-size="11.00">instrument_type</text>
</g>
<!-- instrument_class&#45;&gt;instrument_type -->
<g id="edge13" class="edge">
<title>instrument_class&#45;&gt;instrument_type</title>
<path fill="none" stroke="#64748b" d="M146.12,-1598.84C203.41,-1598.84 294.38,-1598.84 353.76,-1598.84"/>
<polygon fill="#64748b" stroke="#64748b" points="353.85,-1601.29 360.85,-1598.84 353.85,-1596.39 353.85,-1601.29"/>
<text text-anchor="middle" x="271" y="-1601.44" font-family="Helvetica,sans-Serif" font-size="8.00">fk_instrument_type_class</text>
</g>
<!-- security -->
<g id="node24" class="node">
<title>security</title>
<path fill="#f8fafc" stroke="#334155" d="M688.5,-1605.84C688.5,-1605.84 653.5,-1605.84 653.5,-1605.84 647.5,-1605.84 641.5,-1599.84 641.5,-1593.84 641.5,-1593.84 641.5,-1581.84 641.5,-1581.84 641.5,-1575.84 647.5,-1569.84 653.5,-1569.84 653.5,-1569.84 688.5,-1569.84 688.5,-1569.84 694.5,-1569.84 700.5,-1575.84 700.5,-1581.84 700.5,-1581.84 700.5,-1593.84 700.5,-1593.84 700.5,-1599.84 694.5,-1605.84 688.5,-1605.84"/>
<text text-anchor="middle" x="671" y="-1585.04" font-family="Helvetica,sans-Serif" font-size="11.00">security</text>
</g>
<!-- instrument_type&#45;&gt;security -->
<g id="edge14" class="edge">
<title>instrument_type&#45;&gt;security</title>
<path fill="none" stroke="#64748b" d="M466.2,-1596.61C516.21,-1594.46 590.65,-1591.26 634.36,-1589.37"/>
<polygon fill="#64748b" stroke="#64748b" points="634.48,-1591.82 641.37,-1589.07 634.27,-1586.93 634.48,-1591.82"/>
<text text-anchor="middle" x="543.5" y="-1597.44" font-family="Helvetica,sans-Serif" font-size="8.00">fk_security_type</text>
</g>
<!-- iso10383_mic -->
<g id="node9" class="node">
<title>iso10383_mic</title>
<path fill="#f8fafc" stroke="#334155" d="M446,-496.84C446,-496.84 381,-496.84 381,-496.84 375,-496.84 369,-490.84 369,-484.84 369,-484.84 369,-472.84 369,-472.84 369,-466.84 375,-460.84 381,-460.84 381,-460.84 446,-460.84 446,-460.84 452,-460.84 458,-466.84 458,-472.84 458,-472.84 458,-484.84 458,-484.84 458,-490.84 452,-496.84 446,-496.84"/>
<text text-anchor="middle" x="413.5" y="-476.04" font-family="Helvetica,sans-Serif" font-size="11.00">iso10383_mic</text>
</g>
<!-- iso10383_mic&#45;&gt;exchange -->
<g id="edge15" class="edge">
<title>iso10383_mic&#45;&gt;exchange</title>
<path fill="none" stroke="#64748b" d="M458.13,-495.4C506.63,-513.82 584.24,-543.28 630.85,-560.98"/>
<polygon fill="#64748b" stroke="#64748b" points="630.08,-563.3 637.49,-563.5 631.82,-558.72 630.08,-563.3"/>
<text text-anchor="middle" x="543.5" y="-543.44" font-family="Helvetica,sans-Serif" font-size="8.00">fk_exchange_mic</text>
</g>
<!-- iso10383_mic&#45;&gt;iso10383_mic -->
<g id="edge16" class="edge">
<title>iso10383_mic&#45;&gt;iso10383_mic</title>
<path fill="none" stroke="#64748b" d="M395.22,-496.95C383.03,-516.96 389.12,-539.84 413.5,-539.84 435.21,-539.84 442.42,-521.69 435.12,-503.59"/>
<polygon fill="#64748b" stroke="#64748b" points="437.12,-502.1 431.78,-496.95 432.74,-504.3 437.12,-502.1"/>
<text text-anchor="middle" x="413.5" y="-542.44" font-family="Helvetica,sans-Serif" font-size="8.00">fk_iso10383_mic_operating</text>
</g>
<!-- iso10383_mic_cat -->
<g id="node10" class="node">
<title>iso10383_mic_cat</title>
<path fill="#f8fafc" stroke="#334155" d="M135.5,-496.84C135.5,-496.84 48.5,-496.84 48.5,-496.84 42.5,-496.84 36.5,-490.84 36.5,-484.84 36.5,-484.84 36.5,-472.84 36.5,-472.84 36.5,-466.84 42.5,-460.84 48.5,-460.84 48.5,-460.84 135.5,-460.84 135.5,-460.84 141.5,-460.84 147.5,-466.84 147.5,-472.84 147.5,-472.84 147.5,-484.84 147.5,-484.84 147.5,-490.84 141.5,-496.84 135.5,-496.84"/>
<text text-anchor="middle" x="92" y="-476.04" font-family="Helvetica,sans-Serif" font-size="11.00">iso10383_mic_cat</text>
</g>
<!-- iso10383_mic_cat&#45;&gt;iso10383_mic -->
<g id="edge17" class="edge">
<title>iso10383_mic_cat&#45;&gt;iso10383_mic</title>
<path fill="none" stroke="#64748b" d="M147.56,-478.84C207.55,-478.84 303.17,-478.84 361.65,-478.84"/>
<polygon fill="#64748b" stroke="#64748b" points="361.94,-481.29 368.94,-478.84 361.94,-476.39 361.94,-481.29"/>
<text text-anchor="middle" x="271" y="-481.44" font-family="Helvetica,sans-Serif" font-size="8.00">fk_iso10383_mic_category</text>
</g>
<!-- iso3166_country -->
<g id="node11" class="node">
<title>iso3166_country</title>
<path fill="#f8fafc" stroke="#334155" d="M132.5,-627.84C132.5,-627.84 51.5,-627.84 51.5,-627.84 45.5,-627.84 39.5,-621.84 39.5,-615.84 39.5,-615.84 39.5,-603.84 39.5,-603.84 39.5,-597.84 45.5,-591.84 51.5,-591.84 51.5,-591.84 132.5,-591.84 132.5,-591.84 138.5,-591.84 144.5,-597.84 144.5,-603.84 144.5,-603.84 144.5,-615.84 144.5,-615.84 144.5,-621.84 138.5,-627.84 132.5,-627.84"/>
<text text-anchor="middle" x="92" y="-607.04" font-family="Helvetica,sans-Serif" font-size="11.00">iso3166_country</text>
</g>
<!-- iso3166_country&#45;&gt;exchange -->
<g id="edge18" class="edge">
<title>iso3166_country&#45;&gt;exchange</title>
<path fill="none" stroke="#64748b" d="M144.71,-606.79C258.57,-600.08 528.87,-584.16 630.48,-578.17"/>
<polygon fill="#64748b" stroke="#64748b" points="630.65,-580.61 637.49,-577.75 630.36,-575.72 630.65,-580.61"/>
<text text-anchor="middle" x="413.5" y="-596.44" font-family="Helvetica,sans-Serif" font-size="8.00">fk_exchange_country</text>
</g>
<!-- iso3166_country&#45;&gt;iso10383_mic -->
<g id="edge19" class="edge">
<title>iso3166_country&#45;&gt;iso10383_mic</title>
<path fill="none" stroke="#64748b" d="M137.09,-591.76C196.05,-567.59 300.33,-524.83 362.27,-499.44"/>
<polygon fill="#64748b" stroke="#64748b" points="363.32,-501.65 368.86,-496.73 361.46,-497.12 363.32,-501.65"/>
<text text-anchor="middle" x="271" y="-558.44" font-family="Helvetica,sans-Serif" font-size="8.00">fk_iso10383_mic_country</text>
</g>
<!-- issuer -->
<g id="node13" class="node">
<title>issuer</title>
<path fill="#f8fafc" stroke="#334155" d="M428.5,-1346.84C428.5,-1346.84 398.5,-1346.84 398.5,-1346.84 392.5,-1346.84 386.5,-1340.84 386.5,-1334.84 386.5,-1334.84 386.5,-1322.84 386.5,-1322.84 386.5,-1316.84 392.5,-1310.84 398.5,-1310.84 398.5,-1310.84 428.5,-1310.84 428.5,-1310.84 434.5,-1310.84 440.5,-1316.84 440.5,-1322.84 440.5,-1322.84 440.5,-1334.84 440.5,-1334.84 440.5,-1340.84 434.5,-1346.84 428.5,-1346.84"/>
<text text-anchor="middle" x="413.5" y="-1326.04" font-family="Helvetica,sans-Serif" font-size="11.00">issuer</text>
</g>
<!-- iso3166_country&#45;&gt;issuer -->
<g id="edge20" class="edge">
<title>iso3166_country&#45;&gt;issuer</title>
<path fill="none" stroke="#64748b" d="M101.06,-627.97C144.57,-725.89 351.37,-1191.27 401.52,-1304.14"/>
<polygon fill="#64748b" stroke="#64748b" points="399.38,-1305.35 404.46,-1310.76 403.86,-1303.36 399.38,-1305.35"/>
<text text-anchor="middle" x="271" y="-1118.44" font-family="Helvetica,sans-Serif" font-size="8.00">fk_issuer_country</text>
</g>
<!-- iso4217_currency -->
<g id="node12" class="node">
<title>iso4217_currency</title>
<path fill="#f8fafc" stroke="#334155" d="M457,-1702.84C457,-1702.84 370,-1702.84 370,-1702.84 364,-1702.84 358,-1696.84 358,-1690.84 358,-1690.84 358,-1678.84 358,-1678.84 358,-1672.84 364,-1666.84 370,-1666.84 370,-1666.84 457,-1666.84 457,-1666.84 463,-1666.84 469,-1672.84 469,-1678.84 469,-1678.84 469,-1690.84 469,-1690.84 469,-1696.84 463,-1702.84 457,-1702.84"/>
<text text-anchor="middle" x="413.5" y="-1682.04" font-family="Helvetica,sans-Serif" font-size="11.00">iso4217_currency</text>
</g>
<!-- iso4217_currency&#45;&gt;listing -->
<g id="edge21" class="edge">
<title>iso4217_currency&#45;&gt;listing</title>
<path fill="none" stroke="#64748b" d="M469.12,-1679.58C502.63,-1676.14 546.37,-1671.3 585,-1665.84 746.63,-1643.01 786.88,-1635.56 947,-1603.84 973.23,-1598.64 1002.75,-1591.95 1024.75,-1586.8"/>
<polygon fill="#64748b" stroke="#64748b" points="1025.36,-1589.17 1031.62,-1585.19 1024.24,-1584.4 1025.36,-1589.17"/>
<text text-anchor="middle" x="671" y="-1662.44" font-family="Helvetica,sans-Serif" font-size="8.00">fk_listing_currency</text>
</g>
<!-- iso4217_currency&#45;&gt;security -->
<g id="edge22" class="edge">
<title>iso4217_currency&#45;&gt;security</title>
<path fill="none" stroke="#64748b" d="M461.96,-1666.82C512.06,-1647.8 589.87,-1618.26 634.78,-1601.21"/>
<polygon fill="#64748b" stroke="#64748b" points="635.75,-1603.46 641.43,-1598.69 634.01,-1598.88 635.75,-1603.46"/>
<text text-anchor="middle" x="543.5" y="-1652.44" font-family="Helvetica,sans-Serif" font-size="8.00">fk_security_currency</text>
</g>
<!-- issuer&#45;&gt;issuer_classification -->
<g id="edge23" class="edge">
<title>issuer&#45;&gt;issuer_classification</title>
<path fill="none" stroke="#64748b" d="M415.4,-1310.54C418.99,-1248.92 435.51,-1044.33 502,-891.84 553.02,-774.81 542.33,-658.84 670,-658.84 670,-658.84 670,-658.84 1546.5,-658.84 1649.43,-658.84 1768.56,-651.55 1841.59,-646.25"/>
<polygon fill="#64748b" stroke="#64748b" points="1842.14,-648.67 1848.95,-645.71 1841.79,-643.78 1842.14,-648.67"/>
<text text-anchor="middle" x="1059" y="-661.44" font-family="Helvetica,sans-Serif" font-size="8.00">fk_issuer_class_issuer</text>
</g>
<!-- issuer&#45;&gt;issuer_identifier -->
<g id="edge24" class="edge">
<title>issuer&#45;&gt;issuer_identifier</title>
<path fill="none" stroke="#64748b" d="M440.67,-1330.41C518.26,-1334.67 753.72,-1344.62 947,-1321.84 964.59,-1319.77 983.49,-1316.08 1000.6,-1312.16"/>
<polygon fill="#64748b" stroke="#64748b" points="1001.57,-1314.45 1007.82,-1310.47 1000.45,-1309.68 1001.57,-1314.45"/>
<text text-anchor="middle" x="671" y="-1338.44" font-family="Helvetica,sans-Serif" font-size="8.00">fk_issuer_identifier_issuer</text>
</g>
<!-- issuer&#45;&gt;issuer_name_history -->
<g id="edge25" class="edge">
<title>issuer&#45;&gt;issuer_name_history</title>
<path fill="none" stroke="#64748b" d="M418,-1310.83C435.58,-1226.02 522.81,-865.12 757,-733.84 828.04,-694.02 924.12,-700.82 988.43,-712.24"/>
<polygon fill="#64748b" stroke="#64748b" points="988.01,-714.66 995.33,-713.51 988.89,-709.84 988.01,-714.66"/>
<text text-anchor="middle" x="671" y="-855.44" font-family="Helvetica,sans-Serif" font-size="8.00">fk_issuer_name_issuer</text>
</g>
<!-- provider_evidence -->
<g id="node20" class="node">
<title>provider_evidence</title>
<path fill="#f8fafc" stroke="#334155" d="M1956.5,-1509.84C1956.5,-1509.84 1865.5,-1509.84 1865.5,-1509.84 1859.5,-1509.84 1853.5,-1503.84 1853.5,-1497.84 1853.5,-1497.84 1853.5,-1485.84 1853.5,-1485.84 1853.5,-1479.84 1859.5,-1473.84 1865.5,-1473.84 1865.5,-1473.84 1956.5,-1473.84 1956.5,-1473.84 1962.5,-1473.84 1968.5,-1479.84 1968.5,-1485.84 1968.5,-1485.84 1968.5,-1497.84 1968.5,-1497.84 1968.5,-1503.84 1962.5,-1509.84 1956.5,-1509.84"/>
<text text-anchor="middle" x="1911" y="-1489.04" font-family="Helvetica,sans-Serif" font-size="11.00">provider_evidence</text>
</g>
<!-- issuer&#45;&gt;provider_evidence -->
<g id="edge26" class="edge">
<title>issuer&#45;&gt;provider_evidence</title>
<path fill="none" stroke="#64748b" d="M440.54,-1342.49C457.56,-1350.73 480.52,-1360.63 502,-1365.84 996.67,-1485.87 1138.1,-1396.55 1644,-1452.84 1713.37,-1460.56 1792.46,-1472.57 1846.24,-1481.22"/>
<polygon fill="#64748b" stroke="#64748b" points="1846.03,-1483.67 1853.33,-1482.36 1846.81,-1478.83 1846.03,-1483.67"/>
<text text-anchor="middle" x="1059" y="-1435.44" font-family="Helvetica,sans-Serif" font-size="8.00">fk_provider_evidence_issuer</text>
</g>
<!-- issuer&#45;&gt;security -->
<g id="edge27" class="edge">
<title>issuer&#45;&gt;security</title>
<path fill="none" stroke="#64748b" d="M420.14,-1346.91C431.18,-1379.86 458.45,-1450.39 502,-1494.84 540,-1533.62 597.64,-1560.7 634.56,-1575.27"/>
<polygon fill="#64748b" stroke="#64748b" points="633.79,-1577.6 641.2,-1577.84 635.56,-1573.03 633.79,-1577.6"/>
<text text-anchor="middle" x="543.5" y="-1553.44" font-family="Helvetica,sans-Serif" font-size="8.00">fk_security_issuer</text>
</g>
<!-- issuer&#45;&gt;security_event -->
<g id="edge28" class="edge">
<title>issuer&#45;&gt;security_event</title>
<path fill="none" stroke="#64748b" d="M423.36,-1347.03C436.59,-1371.92 464.09,-1415.69 502,-1434.84 590.45,-1479.51 1288.44,-1489.46 1490.11,-1491.41"/>
<polygon fill="#64748b" stroke="#64748b" points="1490.34,-1493.86 1497.36,-1491.48 1490.38,-1488.96 1490.34,-1493.86"/>
<text text-anchor="middle" x="852" y="-1480.44" font-family="Helvetica,sans-Serif" font-size="8.00">fk_security_event_issuer</text>
</g>
<!-- listing&#45;&gt;listing_symbol_history -->
<g id="edge29" class="edge">
<title>listing&#45;&gt;listing_symbol_history</title>
<path fill="none" stroke="#64748b" d="M1074.5,-1560.82C1144.36,-1474.03 1446.06,-1099.16 1525.35,-1000.63"/>
<polygon fill="#64748b" stroke="#64748b" points="1527.34,-1002.07 1529.82,-995.08 1523.52,-999 1527.34,-1002.07"/>
<text text-anchor="middle" x="1292.5" y="-1435.44" font-family="Helvetica,sans-Serif" font-size="8.00">fk_listing_symbol_listing</text>
</g>
<!-- listing&#45;&gt;provider_evidence -->
<g id="edge30" class="edge">
<title>listing&#45;&gt;provider_evidence</title>
<path fill="none" stroke="#64748b" d="M1086.26,-1579.25C1145.07,-1579.93 1291.8,-1580.32 1414,-1569.84 1593.92,-1554.41 1638.1,-1541.85 1816,-1510.84 1825.86,-1509.12 1836.28,-1507.16 1846.44,-1505.17"/>
<polygon fill="#64748b" stroke="#64748b" points="1847.03,-1507.55 1853.43,-1503.79 1846.08,-1502.74 1847.03,-1507.55"/>
<text text-anchor="middle" x="1545.5" y="-1568.44" font-family="Helvetica,sans-Serif" font-size="8.00">fk_provider_evidence_listing</text>
</g>
<!-- listing&#45;&gt;security_event -->
<g id="edge31" class="edge">
<title>listing&#45;&gt;security_event</title>
<path fill="none" stroke="#64748b" d="M1086.05,-1574.16C1162.33,-1560.46 1386.36,-1520.24 1490.34,-1501.56"/>
<polygon fill="#64748b" stroke="#64748b" points="1490.86,-1503.96 1497.31,-1500.31 1489.99,-1499.14 1490.86,-1503.96"/>
<text text-anchor="middle" x="1292.5" y="-1559.44" font-family="Helvetica,sans-Serif" font-size="8.00">fk_security_event_listing</text>
</g>
<!-- provider -->
<g id="node19" class="node">
<title>provider</title>
<path fill="#f8fafc" stroke="#334155" d="M689,-432.84C689,-432.84 653,-432.84 653,-432.84 647,-432.84 641,-426.84 641,-420.84 641,-420.84 641,-408.84 641,-408.84 641,-402.84 647,-396.84 653,-396.84 653,-396.84 689,-396.84 689,-396.84 695,-396.84 701,-402.84 701,-408.84 701,-408.84 701,-420.84 701,-420.84 701,-426.84 695,-432.84 689,-432.84"/>
<text text-anchor="middle" x="671" y="-412.04" font-family="Helvetica,sans-Serif" font-size="11.00">provider</text>
</g>
<!-- provider&#45;&gt;classification_system -->
<g id="edge32" class="edge">
<title>provider&#45;&gt;classification_system</title>
<path fill="none" stroke="#64748b" d="M672.64,-396.75C675.25,-351.63 688.64,-233.49 757,-173.84 819.93,-118.93 918.46,-107.99 985.51,-107.78"/>
<polygon fill="#64748b" stroke="#64748b" points="985.7,-110.23 992.71,-107.8 985.71,-105.33 985.7,-110.23"/>
<text text-anchor="middle" x="852" y="-176.44" font-family="Helvetica,sans-Serif" font-size="8.00">fk_classification_system_provider</text>
</g>
<!-- provider&#45;&gt;exchange_alias -->
<g id="edge33" class="edge">
<title>provider&#45;&gt;exchange_alias</title>
<path fill="none" stroke="#64748b" d="M700.21,-432.85C716.34,-442.52 737.24,-454.03 757,-461.84 838,-493.84 864.22,-482.75 947,-509.84 968.31,-516.81 991.35,-525.89 1010.9,-534.07"/>
<polygon fill="#64748b" stroke="#64748b" points="1009.98,-536.34 1017.38,-536.8 1011.88,-531.83 1009.98,-536.34"/>
<text text-anchor="middle" x="852" y="-512.44" font-family="Helvetica,sans-Serif" font-size="8.00">fk_exchange_alias_provider</text>
</g>
<!-- provider&#45;&gt;issuer_classification -->
<g id="edge34" class="edge">
<title>provider&#45;&gt;issuer_classification</title>
<path fill="none" stroke="#64748b" d="M674.25,-396.69C682.2,-335.73 710.96,-139.9 757,-99.84 885.79,12.22 1266.2,40.32 1644,-71.84 1731.45,-97.8 1764.62,-108.46 1816,-183.84 1865.15,-255.96 1898.16,-530.49 1907.38,-615.56"/>
<polygon fill="#64748b" stroke="#64748b" points="1904.96,-616.03 1908.15,-622.73 1909.84,-615.51 1904.96,-616.03"/>
<text text-anchor="middle" x="1292.5" y="-22.44" font-family="Helvetica,sans-Serif" font-size="8.00">fk_issuer_class_provider</text>
</g>
<!-- provider&#45;&gt;issuer_identifier -->
<g id="edge35" class="edge">
<title>provider&#45;&gt;issuer_identifier</title>
<path fill="none" stroke="#64748b" d="M681.69,-432.84C693.74,-456.13 713.96,-498.29 724,-536.84 758.7,-670.07 696.78,-721.04 757,-844.84 808.56,-950.83 891.83,-925.69 947,-1029.84 986.3,-1104.03 941.9,-1141.03 980,-1215.84 991.54,-1238.5 1011.54,-1259.08 1028.39,-1273.82"/>
<polygon fill="#64748b" stroke="#64748b" points="1027.06,-1275.9 1033.97,-1278.59 1030.24,-1272.18 1027.06,-1275.9"/>
<text text-anchor="middle" x="852" y="-1032.44" font-family="Helvetica,sans-Serif" font-size="8.00">fk_issuer_identifier_provider</text>
</g>
<!-- provider&#45;&gt;issuer_name_history -->
<g id="edge36" class="edge">
<title>provider&#45;&gt;issuer_name_history</title>
<path fill="none" stroke="#64748b" d="M681.8,-432.91C695.49,-456.38 722.57,-496.94 757,-518.84 830.49,-565.58 884.15,-506.54 947,-566.84 984.14,-602.47 949.25,-636.57 980,-677.84 988.72,-689.55 1000.99,-699.34 1013.21,-707.11"/>
<polygon fill="#64748b" stroke="#64748b" points="1011.94,-709.2 1019.2,-710.76 1014.5,-705.02 1011.94,-709.2"/>
<text text-anchor="middle" x="852" y="-569.44" font-family="Helvetica,sans-Serif" font-size="8.00">fk_issuer_name_provider</text>
</g>
<!-- provider&#45;&gt;listing_symbol_history -->
<g id="edge37" class="edge">
<title>provider&#45;&gt;listing_symbol_history</title>
<path fill="none" stroke="#64748b" d="M701.09,-407.59C777.21,-390.21 986.85,-352.58 1138,-422.84 1374.43,-532.74 1503.45,-858.78 1536.13,-951.8"/>
<polygon fill="#64748b" stroke="#64748b" points="1533.88,-952.78 1538.49,-958.59 1538.5,-951.18 1533.88,-952.78"/>
<text text-anchor="middle" x="1059" y="-425.44" font-family="Helvetica,sans-Serif" font-size="8.00">fk_listing_symbol_provider</text>
</g>
<!-- provider_observation -->
<g id="node21" class="node">
<title>provider_observation</title>
<path fill="#f8fafc" stroke="#334155" d="M1599,-312.84C1599,-312.84 1492,-312.84 1492,-312.84 1486,-312.84 1480,-306.84 1480,-300.84 1480,-300.84 1480,-288.84 1480,-288.84 1480,-282.84 1486,-276.84 1492,-276.84 1492,-276.84 1599,-276.84 1599,-276.84 1605,-276.84 1611,-282.84 1611,-288.84 1611,-288.84 1611,-300.84 1611,-300.84 1611,-306.84 1605,-312.84 1599,-312.84"/>
<text text-anchor="middle" x="1545.5" y="-292.04" font-family="Helvetica,sans-Serif" font-size="11.00">provider_observation</text>
</g>
<!-- provider&#45;&gt;provider_observation -->
<g id="edge38" class="edge">
<title>provider&#45;&gt;provider_observation</title>
<path fill="none" stroke="#64748b" d="M693.18,-396.59C709.5,-383.57 733.24,-366.84 757,-357.84 1006.26,-263.39 1330.92,-276.03 1472.84,-287.61"/>
<polygon fill="#64748b" stroke="#64748b" points="1472.69,-290.05 1479.87,-288.19 1473.1,-285.17 1472.69,-290.05"/>
<text text-anchor="middle" x="1059" y="-301.44" font-family="Helvetica,sans-Serif" font-size="8.00">fk_provider_observation_provider</text>
</g>
<!-- provider_source_snapshot -->
<g id="node22" class="node">
<title>provider_source_snapshot</title>
<path fill="#f8fafc" stroke="#334155" d="M1126,-208.84C1126,-208.84 992,-208.84 992,-208.84 986,-208.84 980,-202.84 980,-196.84 980,-196.84 980,-184.84 980,-184.84 980,-178.84 986,-172.84 992,-172.84 992,-172.84 1126,-172.84 1126,-172.84 1132,-172.84 1138,-178.84 1138,-184.84 1138,-184.84 1138,-196.84 1138,-196.84 1138,-202.84 1132,-208.84 1126,-208.84"/>
<text text-anchor="middle" x="1059" y="-188.04" font-family="Helvetica,sans-Serif" font-size="11.00">provider_source_snapshot</text>
</g>
<!-- provider&#45;&gt;provider_source_snapshot -->
<g id="edge39" class="edge">
<title>provider&#45;&gt;provider_source_snapshot</title>
<path fill="none" stroke="#64748b" d="M676.13,-396.79C684.83,-363.04 708.4,-290.45 757,-253.84 819.02,-207.11 907.73,-193.14 972.78,-189.8"/>
<polygon fill="#64748b" stroke="#64748b" points="972.92,-192.24 979.8,-189.47 972.69,-187.35 972.92,-192.24"/>
<text text-anchor="middle" x="852" y="-256.44" font-family="Helvetica,sans-Serif" font-size="8.00">provider_source_snapshot_provider_code_fkey</text>
</g>
<!-- provider&#45;&gt;security_event -->
<g id="edge40" class="edge">
<title>provider&#45;&gt;security_event</title>
<path fill="none" stroke="#64748b" d="M701.06,-416.19C793.61,-421.12 1078.88,-441.47 1138,-506.84 1180.47,-553.8 1144.38,-732.39 1171,-789.84 1237.49,-933.35 1335.5,-912.53 1414,-1049.84 1496.76,-1194.6 1531.26,-1396.6 1541.23,-1466.7"/>
<polygon fill="#64748b" stroke="#64748b" points="1538.83,-1467.23 1542.22,-1473.83 1543.68,-1466.56 1538.83,-1467.23"/>
<text text-anchor="middle" x="1059" y="-509.44" font-family="Helvetica,sans-Serif" font-size="8.00">fk_security_event_provider</text>
</g>
<!-- provider&#45;&gt;security_identifier -->
<g id="edge41" class="edge">
<title>provider&#45;&gt;security_identifier</title>
<path fill="none" stroke="#64748b" d="M679.93,-433.15C698.99,-476.95 746.51,-585.24 757,-599.84 824.69,-694.06 895.46,-674.9 947,-778.84 1008.94,-903.77 922.64,-963.74 980,-1090.84 990.95,-1115.11 1011.57,-1137.1 1028.86,-1152.63"/>
<polygon fill="#64748b" stroke="#64748b" points="1027.7,-1154.87 1034.58,-1157.65 1030.93,-1151.19 1027.7,-1154.87"/>
<text text-anchor="middle" x="852" y="-781.44" font-family="Helvetica,sans-Serif" font-size="8.00">fk_security_identifier_provider</text>
</g>
<!-- provider_observation&#45;&gt;provider_evidence -->
<g id="edge42" class="edge">
<title>provider_observation&#45;&gt;provider_evidence</title>
<path fill="none" stroke="#64748b" d="M1552.06,-313.16C1593.52,-449.68 1853.95,-1307.28 1902.29,-1466.44"/>
<polygon fill="#64748b" stroke="#64748b" points="1900.05,-1467.5 1904.43,-1473.48 1904.74,-1466.07 1900.05,-1467.5"/>
<text text-anchor="middle" x="1746.5" y="-1172.44" font-family="Helvetica,sans-Serif" font-size="8.00">fk_provider_evidence_observation</text>
</g>
<!-- provider_source_snapshot&#45;&gt;provider_observation -->
<g id="edge43" class="edge">
<title>provider_source_snapshot&#45;&gt;provider_observation</title>
<path fill="none" stroke="#64748b" d="M1138.25,-202.26C1210.35,-213.42 1320.08,-232.04 1414,-254.84 1437.06,-260.44 1462.05,-267.78 1483.93,-274.64"/>
<polygon fill="#64748b" stroke="#64748b" points="1483.2,-276.98 1490.61,-276.75 1484.67,-272.3 1483.2,-276.98"/>
<text text-anchor="middle" x="1292.5" y="-257.44" font-family="Helvetica,sans-Serif" font-size="8.00">provider_observation_source_snapshot_id_fkey</text>
</g>
<!-- provider_source_snapshot_object -->
<g id="node23" class="node">
<title>provider_source_snapshot_object</title>
<path fill="#f8fafc" stroke="#334155" d="M1632,-208.84C1632,-208.84 1459,-208.84 1459,-208.84 1453,-208.84 1447,-202.84 1447,-196.84 1447,-196.84 1447,-184.84 1447,-184.84 1447,-178.84 1453,-172.84 1459,-172.84 1459,-172.84 1632,-172.84 1632,-172.84 1638,-172.84 1644,-178.84 1644,-184.84 1644,-184.84 1644,-196.84 1644,-196.84 1644,-202.84 1638,-208.84 1632,-208.84"/>
<text text-anchor="middle" x="1545.5" y="-188.04" font-family="Helvetica,sans-Serif" font-size="11.00">provider_source_snapshot_object</text>
</g>
<!-- provider_source_snapshot&#45;&gt;provider_source_snapshot_object -->
<g id="edge44" class="edge">
<title>provider_source_snapshot&#45;&gt;provider_source_snapshot_object</title>
<path fill="none" stroke="#64748b" d="M1138.11,-190.84C1220.02,-190.84 1349.2,-190.84 1439.88,-190.84"/>
<polygon fill="#64748b" stroke="#64748b" points="1439.89,-193.29 1446.89,-190.84 1439.89,-188.39 1439.89,-193.29"/>
<text text-anchor="middle" x="1292.5" y="-193.44" font-family="Helvetica,sans-Serif" font-size="8.00">provider_source_snapshot_object_source_snapshot_id_fkey</text>
</g>
<!-- security&#45;&gt;listing -->
<g id="edge45" class="edge">
<title>security&#45;&gt;listing</title>
<path fill="none" stroke="#64748b" d="M700.7,-1587.17C770.71,-1585.54 950.01,-1581.36 1024.63,-1579.62"/>
<polygon fill="#64748b" stroke="#64748b" points="1025,-1582.06 1031.94,-1579.45 1024.89,-1577.16 1025,-1582.06"/>
<text text-anchor="middle" x="852" y="-1587.44" font-family="Helvetica,sans-Serif" font-size="8.00">fk_listing_security</text>
</g>
<!-- security&#45;&gt;provider_evidence -->
<g id="edge46" class="edge">
<title>security&#45;&gt;provider_evidence</title>
<path fill="none" stroke="#64748b" d="M691.74,-1605.98C714.36,-1626.58 749.33,-1657.76 757,-1660.84 849.11,-1697.81 880.78,-1670.17 980,-1672.84 1355.1,-1682.92 1471.17,-1702.81 1816,-1554.84 1840.01,-1544.54 1864.43,-1527.94 1882.37,-1514.37"/>
<polygon fill="#64748b" stroke="#64748b" points="1884.13,-1516.1 1888.19,-1509.89 1881.15,-1512.22 1884.13,-1516.1"/>
<text text-anchor="middle" x="1292.5" y="-1681.44" font-family="Helvetica,sans-Serif" font-size="8.00">fk_provider_evidence_security</text>
</g>
<!-- security&#45;&gt;security_event -->
<g id="edge47" class="edge">
<title>security&#45;&gt;security_event</title>
<path fill="none" stroke="#64748b" d="M700.64,-1596.79C805.3,-1627.69 1173.51,-1720.3 1414,-1575.84 1434.95,-1563.25 1427.66,-1546.79 1447,-1531.84 1459.8,-1521.94 1475.4,-1514.1 1490.33,-1508.09"/>
<polygon fill="#64748b" stroke="#64748b" points="1491.49,-1510.27 1497.13,-1505.45 1489.71,-1505.7 1491.49,-1510.27"/>
<text text-anchor="middle" x="1059" y="-1656.44" font-family="Helvetica,sans-Serif" font-size="8.00">fk_security_event_security</text>
</g>
<!-- security&#45;&gt;security_identifier -->
<g id="edge48" class="edge">
<title>security&#45;&gt;security_identifier</title>
<path fill="none" stroke="#64748b" d="M700.67,-1579.11C770.28,-1557.84 942.89,-1504.74 947,-1499.84 1016.79,-1416.7 932.98,-1355.68 980,-1257.84 991.16,-1234.61 1011.36,-1213.66 1028.41,-1198.75"/>
<polygon fill="#64748b" stroke="#64748b" points="1030.32,-1200.34 1034.05,-1193.93 1027.14,-1196.61 1030.32,-1200.34"/>
<text text-anchor="middle" x="852" y="-1563.44" font-family="Helvetica,sans-Serif" font-size="8.00">fk_security_identifier_security</text>
</g>
<!-- security_event&#45;&gt;provider_evidence -->
<g id="edge49" class="edge">
<title>security_event&#45;&gt;provider_evidence</title>
<path fill="none" stroke="#64748b" d="M1593.65,-1491.84C1658.09,-1491.84 1773.9,-1491.84 1846.1,-1491.84"/>
<polygon fill="#64748b" stroke="#64748b" points="1846.38,-1494.29 1853.38,-1491.84 1846.38,-1489.39 1846.38,-1494.29"/>
<text text-anchor="middle" x="1746.5" y="-1494.44" font-family="Helvetica,sans-Serif" font-size="8.00">fk_provider_evidence_event</text>
</g>
<!-- stg_iso10383_mic -->
<g id="node27" class="node">
<title>stg_iso10383_mic</title>
<path fill="#f8fafc" stroke="#334155" d="M135.5,-1695.84C135.5,-1695.84 48.5,-1695.84 48.5,-1695.84 42.5,-1695.84 36.5,-1689.84 36.5,-1683.84 36.5,-1683.84 36.5,-1671.84 36.5,-1671.84 36.5,-1665.84 42.5,-1659.84 48.5,-1659.84 48.5,-1659.84 135.5,-1659.84 135.5,-1659.84 141.5,-1659.84 147.5,-1665.84 147.5,-1671.84 147.5,-1671.84 147.5,-1683.84 147.5,-1683.84 147.5,-1689.84 141.5,-1695.84 135.5,-1695.84"/>
<text text-anchor="middle" x="92" y="-1675.04" font-family="Helvetica,sans-Serif" font-size="11.00">stg_iso10383_mic</text>
</g>
<!-- stg_iso3166_country -->
<g id="node28" class="node">
<title>stg_iso3166_country</title>
<path fill="#f8fafc" stroke="#334155" d="M143.5,-1774.84C143.5,-1774.84 40.5,-1774.84 40.5,-1774.84 34.5,-1774.84 28.5,-1768.84 28.5,-1762.84 28.5,-1762.84 28.5,-1750.84 28.5,-1750.84 28.5,-1744.84 34.5,-1738.84 40.5,-1738.84 40.5,-1738.84 143.5,-1738.84 143.5,-1738.84 149.5,-1738.84 155.5,-1744.84 155.5,-1750.84 155.5,-1750.84 155.5,-1762.84 155.5,-1762.84 155.5,-1768.84 149.5,-1774.84 143.5,-1774.84"/>
<text text-anchor="middle" x="92" y="-1754.04" font-family="Helvetica,sans-Serif" font-size="11.00">stg_iso3166_country</text>
</g>
<!-- stg_iso4217_currency -->
<g id="node29" class="node">
<title>stg_iso4217_currency</title>
<path fill="#f8fafc" stroke="#334155" d="M146.5,-1853.84C146.5,-1853.84 37.5,-1853.84 37.5,-1853.84 31.5,-1853.84 25.5,-1847.84 25.5,-1841.84 25.5,-1841.84 25.5,-1829.84 25.5,-1829.84 25.5,-1823.84 31.5,-1817.84 37.5,-1817.84 37.5,-1817.84 146.5,-1817.84 146.5,-1817.84 152.5,-1817.84 158.5,-1823.84 158.5,-1829.84 158.5,-1829.84 158.5,-1841.84 158.5,-1841.84 158.5,-1847.84 152.5,-1853.84 146.5,-1853.84"/>
<text text-anchor="middle" x="92" y="-1833.04" font-family="Helvetica,sans-Serif" font-size="11.00">stg_iso4217_currency</text>
</g>
<!-- stg_sec_sic_classification_code -->
<g id="node30" class="node">
<title>stg_sec_sic_classification_code</title>
<path fill="#f8fafc" stroke="#334155" d="M172,-1932.84C172,-1932.84 12,-1932.84 12,-1932.84 6,-1932.84 0,-1926.84 0,-1920.84 0,-1920.84 0,-1908.84 0,-1908.84 0,-1902.84 6,-1896.84 12,-1896.84 12,-1896.84 172,-1896.84 172,-1896.84 178,-1896.84 184,-1902.84 184,-1908.84 184,-1908.84 184,-1920.84 184,-1920.84 184,-1926.84 178,-1932.84 172,-1932.84"/>
<text text-anchor="middle" x="92" y="-1912.04" font-family="Helvetica,sans-Serif" font-size="11.00">stg_sec_sic_classification_code</text>
</g>
</g>
</svg>
