<?xml version="1.0" encoding="UTF-8" standalone="no"?>
<!DOCTYPE svg PUBLIC "-//W3C//DTD SVG 1.1//EN"
 "http://www.w3.org/Graphics/SVG/1.1/DTD/svg11.dtd">
<!-- Generated by graphviz version 2.42.4 (0)
 -->
<!-- Title: schema_relations Pages: 1 -->
<svg width="823pt" height="215pt"
 viewBox="0.00 0.00 823.00 215.00" xmlns="http://www.w3.org/2000/svg" xmlns:xlink="http://www.w3.org/1999/xlink">
<g id="graph0" class="graph" transform="scale(1 1) rotate(0) translate(18 197)">
<title>schema_relations</title>
<!-- issuer -->
<g id="node1" class="node">
<title>issuer</title>
<path fill="#f8fafc" stroke="#334155" d="M42,-36C42,-36 12,-36 12,-36 6,-36 0,-30 0,-24 0,-24 0,-12 0,-12 0,-6 6,0 12,0 12,0 42,0 42,0 48,0 54,-6 54,-12 54,-12 54,-24 54,-24 54,-30 48,-36 42,-36"/>
<text text-anchor="middle" x="27" y="-15.2" font-family="Helvetica,sans-Serif" font-size="11.00">issuer</text>
</g>
<!-- security -->
<g id="node3" class="node">
<title>security</title>
<path fill="#f8fafc" stroke="#334155" d="M240,-109C240,-109 205,-109 205,-109 199,-109 193,-103 193,-97 193,-97 193,-85 193,-85 193,-79 199,-73 205,-73 205,-73 240,-73 240,-73 246,-73 252,-79 252,-85 252,-85 252,-97 252,-97 252,-103 246,-109 240,-109"/>
<text text-anchor="middle" x="222.5" y="-88.2" font-family="Helvetica,sans-Serif" font-size="11.00">security</text>
</g>
<!-- issuer&#45;&gt;security -->
<g id="edge1" class="edge">
<title>issuer&#45;&gt;security</title>
<path fill="none" stroke="#64748b" d="M54.1,-27.85C88.18,-40.7 148,-63.27 186.13,-77.66"/>
<polygon fill="#64748b" stroke="#64748b" points="185.58,-80.07 192.99,-80.25 187.31,-75.48 185.58,-80.07"/>
<text text-anchor="middle" x="123.5" y="-69.6" font-family="Helvetica,sans-Serif" font-size="8.00">fk_security_issuer</text>
</g>
<!-- security_event -->
<g id="node4" class="node">
<title>security_event</title>
<path fill="#f8fafc" stroke="#334155" d="M775,-109C775,-109 703,-109 703,-109 697,-109 691,-103 691,-97 691,-97 691,-85 691,-85 691,-79 697,-73 703,-73 703,-73 775,-73 775,-73 781,-73 787,-79 787,-85 787,-85 787,-97 787,-97 787,-103 781,-109 775,-109"/>
<text text-anchor="middle" x="739" y="-88.2" font-family="Helvetica,sans-Serif" font-size="11.00">security_event</text>
</g>
<!-- issuer&#45;&gt;security_event -->
<g id="edge2" class="edge">
<title>issuer&#45;&gt;security_event</title>
<path fill="none" stroke="#64748b" d="M54.13,-20.38C140.4,-28.29 423.97,-54.68 658,-81 666.26,-81.93 674.99,-82.96 683.53,-84.01"/>
<polygon fill="#64748b" stroke="#64748b" points="683.4,-86.46 690.64,-84.88 684,-81.6 683.4,-86.46"/>
<text text-anchor="middle" x="335" y="-54.6" font-family="Helvetica,sans-Serif" font-size="8.00">fk_security_event_issuer</text>
</g>
<!-- listing -->
<g id="node2" class="node">
<title>listing</title>
<path fill="#f8fafc" stroke="#334155" d="M486.5,-179C486.5,-179 456.5,-179 456.5,-179 450.5,-179 444.5,-173 444.5,-167 444.5,-167 444.5,-155 444.5,-155 444.5,-149 450.5,-143 456.5,-143 456.5,-143 486.5,-143 486.5,-143 492.5,-143 498.5,-149 498.5,-155 498.5,-155 498.5,-167 498.5,-167 498.5,-173 492.5,-179 486.5,-179"/>
<text text-anchor="middle" x="471.5" y="-158.2" font-family="Helvetica,sans-Serif" font-size="11.00">listing</text>
</g>
<!-- listing&#45;&gt;security_event -->
<g id="edge3" class="edge">
<title>listing&#45;&gt;security_event</title>
<path fill="none" stroke="#64748b" d="M498.68,-154.64C534.67,-145.85 601.39,-129.3 658,-114 666.37,-111.74 675.2,-109.27 683.83,-106.83"/>
<polygon fill="#64748b" stroke="#64748b" points="684.63,-109.15 690.69,-104.87 683.29,-104.43 684.63,-109.15"/>
<text text-anchor="middle" x="608" y="-140.6" font-family="Helvetica,sans-Serif" font-size="8.00">fk_security_event_listing</text>
</g>
<!-- security&#45;&gt;listing -->
<g id="edge4" class="edge">
<title>security&#45;&gt;listing</title>
<path fill="none" stroke="#64748b" d="M252.06,-102.42C262.36,-106.34 274.12,-110.6 285,-114 337.62,-130.45 399.96,-145.32 437.31,-153.75"/>
<polygon fill="#64748b" stroke="#64748b" points="437.08,-156.21 444.44,-155.35 438.15,-151.43 437.08,-156.21"/>
<text text-anchor="middle" x="335" y="-142.6" font-family="Helvetica,sans-Serif" font-size="8.00">fk_listing_security</text>
</g>
<!-- security&#45;&gt;security_event -->
<g id="edge5" class="edge">
<title>security&#45;&gt;security_event</title>
<path fill="none" stroke="#64748b" d="M252.26,-91C335.12,-91 575.27,-91 683.72,-91"/>
<polygon fill="#64748b" stroke="#64748b" points="683.98,-93.45 690.98,-91 683.98,-88.55 683.98,-93.45"/>
<text text-anchor="middle" x="471.5" y="-93.6" font-family="Helvetica,sans-Serif" font-size="8.00">fk_security_event_security</text>
</g>
</g>
</svg>
