<?xml version="1.0" encoding="UTF-8" standalone="no"?>
<!DOCTYPE svg PUBLIC "-//W3C//DTD SVG 1.1//EN"
 "http://www.w3.org/Graphics/SVG/1.1/DTD/svg11.dtd">
<!-- Generated by graphviz version 2.42.4 (0)
 -->
<!-- Title: schema_relations Pages: 1 -->
<svg width="832pt" height="333pt"
 viewBox="0.00 0.00 832.00 333.00" xmlns="http://www.w3.org/2000/svg" xmlns:xlink="http://www.w3.org/1999/xlink">
<g id="graph0" class="graph" transform="scale(1 1) rotate(0) translate(18 315)">
<title>schema_relations</title>
<!-- issuer -->
<g id="node1" class="node">
<title>issuer</title>
<path fill="#f8fafc" stroke="#334155" d="M42,-154C42,-154 12,-154 12,-154 6,-154 0,-148 0,-142 0,-142 0,-130 0,-130 0,-124 6,-118 12,-118 12,-118 42,-118 42,-118 48,-118 54,-124 54,-130 54,-130 54,-142 54,-142 54,-148 48,-154 42,-154"/>
<text text-anchor="middle" x="27" y="-133.2" font-family="Helvetica,sans-Serif" font-size="11.00">issuer</text>
</g>
<!-- security -->
<g id="node4" class="node">
<title>security</title>
<path fill="#f8fafc" stroke="#334155" d="M240,-227C240,-227 205,-227 205,-227 199,-227 193,-221 193,-215 193,-215 193,-203 193,-203 193,-197 199,-191 205,-191 205,-191 240,-191 240,-191 246,-191 252,-197 252,-203 252,-203 252,-215 252,-215 252,-221 246,-227 240,-227"/>
<text text-anchor="middle" x="222.5" y="-206.2" font-family="Helvetica,sans-Serif" font-size="11.00">security</text>
</g>
<!-- issuer&#45;&gt;security -->
<g id="edge1" class="edge">
<title>issuer&#45;&gt;security</title>
<path fill="none" stroke="#64748b" d="M54.1,-145.85C88.18,-158.7 148,-181.27 186.13,-195.66"/>
<polygon fill="#64748b" stroke="#64748b" points="185.58,-198.07 192.99,-198.25 187.31,-193.48 185.58,-198.07"/>
<text text-anchor="middle" x="123.5" y="-187.6" font-family="Helvetica,sans-Serif" font-size="8.00">fk_security_issuer</text>
</g>
<!-- security_event -->
<g id="node5" class="node">
<title>security_event</title>
<path fill="#f8fafc" stroke="#334155" d="M784,-173C784,-173 712,-173 712,-173 706,-173 700,-167 700,-161 700,-161 700,-149 700,-149 700,-143 706,-137 712,-137 712,-137 784,-137 784,-137 790,-137 796,-143 796,-149 796,-149 796,-161 796,-161 796,-167 790,-173 784,-173"/>
<text text-anchor="middle" x="748" y="-152.2" font-family="Helvetica,sans-Serif" font-size="11.00">security_event</text>
</g>
<!-- issuer&#45;&gt;security_event -->
<g id="edge2" class="edge">
<title>issuer&#45;&gt;security_event</title>
<path fill="none" stroke="#64748b" d="M54.01,-136.69C158.37,-139.45 547.95,-149.74 692.54,-153.56"/>
<polygon fill="#64748b" stroke="#64748b" points="692.58,-156.01 699.65,-153.75 692.71,-151.11 692.58,-156.01"/>
<text text-anchor="middle" x="335" y="-147.6" font-family="Helvetica,sans-Serif" font-size="8.00">fk_security_event_issuer</text>
</g>
<!-- listing -->
<g id="node2" class="node">
<title>listing</title>
<path fill="#f8fafc" stroke="#334155" d="M486.5,-297C486.5,-297 456.5,-297 456.5,-297 450.5,-297 444.5,-291 444.5,-285 444.5,-285 444.5,-273 444.5,-273 444.5,-267 450.5,-261 456.5,-261 456.5,-261 486.5,-261 486.5,-261 492.5,-261 498.5,-267 498.5,-273 498.5,-273 498.5,-285 498.5,-285 498.5,-291 492.5,-297 486.5,-297"/>
<text text-anchor="middle" x="471.5" y="-276.2" font-family="Helvetica,sans-Serif" font-size="11.00">listing</text>
</g>
<!-- listing&#45;&gt;security_event -->
<g id="edge3" class="edge">
<title>listing&#45;&gt;security_event</title>
<path fill="none" stroke="#64748b" d="M498.61,-277.05C537.47,-273.21 611.87,-262.24 667,-232 691.3,-218.67 713.53,-196.03 728.36,-178.74"/>
<polygon fill="#64748b" stroke="#64748b" points="730.47,-180.04 733.1,-173.11 726.72,-176.89 730.47,-180.04"/>
<text text-anchor="middle" x="612.5" y="-270.6" font-family="Helvetica,sans-Serif" font-size="8.00">fk_security_event_listing</text>
</g>
<!-- provider -->
<g id="node3" class="node">
<title>provider</title>
<path fill="#f8fafc" stroke="#334155" d="M489.5,-36C489.5,-36 453.5,-36 453.5,-36 447.5,-36 441.5,-30 441.5,-24 441.5,-24 441.5,-12 441.5,-12 441.5,-6 447.5,0 453.5,0 453.5,0 489.5,0 489.5,0 495.5,0 501.5,-6 501.5,-12 501.5,-12 501.5,-24 501.5,-24 501.5,-30 495.5,-36 489.5,-36"/>
<text text-anchor="middle" x="471.5" y="-15.2" font-family="Helvetica,sans-Serif" font-size="11.00">provider</text>
</g>
<!-- provider&#45;&gt;security_event -->
<g id="edge4" class="edge">
<title>provider&#45;&gt;security_event</title>
<path fill="none" stroke="#64748b" d="M501.67,-18.52C541.69,-20.46 614.61,-28.47 667,-60 695.75,-77.31 719.11,-108.68 733.01,-130.62"/>
<polygon fill="#64748b" stroke="#64748b" points="731.08,-132.16 736.85,-136.82 735.25,-129.58 731.08,-132.16"/>
<text text-anchor="middle" x="612.5" y="-62.6" font-family="Helvetica,sans-Serif" font-size="8.00">fk_security_event_provider</text>
</g>
<!-- security&#45;&gt;listing -->
<g id="edge5" class="edge">
<title>security&#45;&gt;listing</title>
<path fill="none" stroke="#64748b" d="M252.06,-220.42C262.36,-224.34 274.12,-228.6 285,-232 337.62,-248.45 399.96,-263.32 437.31,-271.75"/>
<polygon fill="#64748b" stroke="#64748b" points="437.08,-274.21 444.44,-273.35 438.15,-269.43 437.08,-274.21"/>
<text text-anchor="middle" x="335" y="-260.6" font-family="Helvetica,sans-Serif" font-size="8.00">fk_listing_security</text>
</g>
<!-- security&#45;&gt;security_event -->
<g id="edge6" class="edge">
<title>security&#45;&gt;security_event</title>
<path fill="none" stroke="#64748b" d="M252.02,-206.06C335.84,-197.41 582.47,-171.97 692.7,-160.6"/>
<polygon fill="#64748b" stroke="#64748b" points="693.04,-163.03 699.76,-159.87 692.54,-158.15 693.04,-163.03"/>
<text text-anchor="middle" x="471.5" y="-190.6" font-family="Helvetica,sans-Serif" font-size="8.00">fk_security_event_security</text>
</g>
</g>
</svg>
