<?xml version="1.0" encoding="UTF-8" standalone="no"?>
<!DOCTYPE svg PUBLIC "-//W3C//DTD SVG 1.1//EN"
 "http://www.w3.org/Graphics/SVG/1.1/DTD/svg11.dtd">
<!-- Generated by graphviz version 2.42.4 (0)
 -->
<!-- Title: ERD Pages: 1 -->
<svg width="568pt" height="1168pt"
 viewBox="0.00 0.00 568.12 1168.00" xmlns="http://www.w3.org/2000/svg" xmlns:xlink="http://www.w3.org/1999/xlink">
<g id="graph0" class="graph" transform="scale(1 1) rotate(0) translate(4 1164)">
<title>ERD</title>
<polygon fill="white" stroke="transparent" points="-4,4 -4,-1164 564.12,-1164 564.12,4 -4,4"/>
<!-- issuer -->
<g id="node1" class="node">
<title>issuer</title>
<polygon fill="lightblue" stroke="transparent" points="33.9,-224 33.9,-244 224.9,-244 224.9,-224 33.9,-224"/>
<polygon fill="none" stroke="black" points="33.9,-224 33.9,-244 224.9,-244 224.9,-224 33.9,-224"/>
<text text-anchor="start" x="113.9" y="-232.8" font-family="Verdana" font-weight="bold" font-size="9.00">issuer</text>
<polygon fill="none" stroke="black" points="33.9,-204 33.9,-224 224.9,-224 224.9,-204 33.9,-204"/>
<text text-anchor="start" x="38.9" y="-212.8" font-family="Verdana" font-weight="bold" font-size="9.00">issuer_id</text>
<text text-anchor="start" x="84.9" y="-212.8" font-family="Verdana" font-size="9.00">: </text>
<text text-anchor="start" x="91.9" y="-212.8" font-family="Verdana" font-style="italic" font-size="9.00">UUID &#160;NOT NULL</text>
<polygon fill="none" stroke="black" points="33.9,-184 33.9,-204 224.9,-204 224.9,-184 33.9,-184"/>
<text text-anchor="start" x="38.9" y="-192.8" font-family="Verdana" font-weight="bold" font-size="9.00">cik</text>
<text text-anchor="start" x="53.9" y="-192.8" font-family="Verdana" font-size="9.00">: </text>
<text text-anchor="start" x="60.9" y="-192.8" font-family="Verdana" font-style="italic" font-size="9.00">VARCHAR(10) </text>
<polygon fill="none" stroke="black" points="33.9,-164 33.9,-184 224.9,-184 224.9,-164 33.9,-164"/>
<text text-anchor="start" x="38.9" y="-172.8" font-family="Verdana" font-weight="bold" font-size="9.00">issuer_type</text>
<text text-anchor="start" x="97.9" y="-172.8" font-family="Verdana" font-size="9.00">: </text>
<text text-anchor="start" x="104.9" y="-172.8" font-family="Verdana" font-style="italic" font-size="9.00">VARCHAR(32) &#160;NOT NULL</text>
<polygon fill="none" stroke="black" points="33.9,-144 33.9,-164 224.9,-164 224.9,-144 33.9,-144"/>
<text text-anchor="start" x="38.9" y="-152.8" font-family="Verdana" font-weight="bold" font-size="9.00">current_name</text>
<text text-anchor="start" x="110.9" y="-152.8" font-family="Verdana" font-size="9.00">: </text>
<text text-anchor="start" x="117.9" y="-152.8" font-family="Verdana" font-style="italic" font-size="9.00">TEXT &#160;NOT NULL</text>
<polygon fill="none" stroke="black" points="33.9,-124 33.9,-144 224.9,-144 224.9,-124 33.9,-124"/>
<text text-anchor="start" x="38.9" y="-132.8" font-family="Verdana" font-weight="bold" font-size="9.00">country_alpha2</text>
<text text-anchor="start" x="117.9" y="-132.8" font-family="Verdana" font-size="9.00">: </text>
<text text-anchor="start" x="124.9" y="-132.8" font-family="Verdana" font-style="italic" font-size="9.00">VARCHAR(2) </text>
<polygon fill="none" stroke="black" points="33.9,-104 33.9,-124 224.9,-124 224.9,-104 33.9,-104"/>
<text text-anchor="start" x="38.9" y="-112.8" font-family="Verdana" font-weight="bold" font-size="9.00">sic_code</text>
<text text-anchor="start" x="81.9" y="-112.8" font-family="Verdana" font-size="9.00">: </text>
<text text-anchor="start" x="88.9" y="-112.8" font-family="Verdana" font-style="italic" font-size="9.00">VARCHAR(4) </text>
<polygon fill="none" stroke="black" points="33.9,-84 33.9,-104 224.9,-104 224.9,-84 33.9,-84"/>
<text text-anchor="start" x="38.9" y="-92.8" font-family="Verdana" font-weight="bold" font-size="9.00">status</text>
<text text-anchor="start" x="71.9" y="-92.8" font-family="Verdana" font-size="9.00">: </text>
<text text-anchor="start" x="78.9" y="-92.8" font-family="Verdana" font-style="italic" font-size="9.00">VARCHAR(24) &#160;NOT NULL</text>
<polygon fill="none" stroke="black" points="33.9,-64 33.9,-84 224.9,-84 224.9,-64 33.9,-64"/>
<text text-anchor="start" x="38.9" y="-72.8" font-family="Verdana" font-weight="bold" font-size="9.00">first_seen</text>
<text text-anchor="start" x="88.9" y="-72.8" font-family="Verdana" font-size="9.00">: </text>
<text text-anchor="start" x="95.9" y="-72.8" font-family="Verdana" font-style="italic" font-size="9.00">DATE </text>
<polygon fill="none" stroke="black" points="33.9,-44 33.9,-64 224.9,-64 224.9,-44 33.9,-44"/>
<text text-anchor="start" x="38.9" y="-52.8" font-family="Verdana" font-weight="bold" font-size="9.00">last_seen</text>
<text text-anchor="start" x="86.9" y="-52.8" font-family="Verdana" font-size="9.00">: </text>
<text text-anchor="start" x="93.9" y="-52.8" font-family="Verdana" font-style="italic" font-size="9.00">DATE </text>
<polygon fill="none" stroke="black" points="33.9,-24 33.9,-44 224.9,-44 224.9,-24 33.9,-24"/>
<text text-anchor="start" x="38.9" y="-32.8" font-family="Verdana" font-weight="bold" font-size="9.00">created_at</text>
<text text-anchor="start" x="93.9" y="-32.8" font-family="Verdana" font-size="9.00">: </text>
<text text-anchor="start" x="100.9" y="-32.8" font-family="Verdana" font-style="italic" font-size="9.00">TIMESTAMPTZ &#160;NOT NULL</text>
<polygon fill="none" stroke="black" points="33.9,-4 33.9,-24 224.9,-24 224.9,-4 33.9,-4"/>
<text text-anchor="start" x="38.9" y="-12.8" font-family="Verdana" font-weight="bold" font-size="9.00">updated_at</text>
<text text-anchor="start" x="97.9" y="-12.8" font-family="Verdana" font-size="9.00">: </text>
<text text-anchor="start" x="104.9" y="-12.8" font-family="Verdana" font-style="italic" font-size="9.00">TIMESTAMPTZ &#160;NOT NULL</text>
</g>
<!-- listing -->
<g id="node2" class="node">
<title>listing</title>
<polygon fill="lightblue" stroke="transparent" points="87.9,-852 87.9,-872 278.9,-872 278.9,-852 87.9,-852"/>
<polygon fill="none" stroke="black" points="87.9,-852 87.9,-872 278.9,-872 278.9,-852 87.9,-852"/>
<text text-anchor="start" x="166.9" y="-860.8" font-family="Verdana" font-weight="bold" font-size="9.00">listing</text>
<polygon fill="none" stroke="black" points="87.9,-832 87.9,-852 278.9,-852 278.9,-832 87.9,-832"/>
<text text-anchor="start" x="92.9" y="-840.8" font-family="Verdana" font-weight="bold" font-size="9.00">listing_id</text>
<text text-anchor="start" x="139.9" y="-840.8" font-family="Verdana" font-size="9.00">: </text>
<text text-anchor="start" x="146.9" y="-840.8" font-family="Verdana" font-style="italic" font-size="9.00">UUID &#160;NOT NULL</text>
<polygon fill="none" stroke="black" points="87.9,-812 87.9,-832 278.9,-832 278.9,-812 87.9,-812"/>
<text text-anchor="start" x="92.9" y="-820.8" font-family="Verdana" font-weight="bold" font-size="9.00">security_id</text>
<text text-anchor="start" x="148.9" y="-820.8" font-family="Verdana" font-size="9.00">: </text>
<text text-anchor="start" x="155.9" y="-820.8" font-family="Verdana" font-style="italic" font-size="9.00">UUID &#160;NOT NULL</text>
<polygon fill="none" stroke="black" points="87.9,-792 87.9,-812 278.9,-812 278.9,-792 87.9,-792"/>
<text text-anchor="start" x="92.9" y="-800.8" font-family="Verdana" font-weight="bold" font-size="9.00">exchange_id</text>
<text text-anchor="start" x="156.9" y="-800.8" font-family="Verdana" font-size="9.00">: </text>
<text text-anchor="start" x="163.9" y="-800.8" font-family="Verdana" font-style="italic" font-size="9.00">UUID &#160;NOT NULL</text>
<polygon fill="none" stroke="black" points="87.9,-772 87.9,-792 278.9,-792 278.9,-772 87.9,-772"/>
<text text-anchor="start" x="92.9" y="-780.8" font-family="Verdana" font-weight="bold" font-size="9.00">current_ticker</text>
<text text-anchor="start" x="165.9" y="-780.8" font-family="Verdana" font-size="9.00">: </text>
<text text-anchor="start" x="172.9" y="-780.8" font-family="Verdana" font-style="italic" font-size="9.00">TEXT </text>
<polygon fill="none" stroke="black" points="87.9,-752 87.9,-772 278.9,-772 278.9,-752 87.9,-752"/>
<text text-anchor="start" x="92.9" y="-760.8" font-family="Verdana" font-weight="bold" font-size="9.00">ticker_norm</text>
<text text-anchor="start" x="153.9" y="-760.8" font-family="Verdana" font-size="9.00">: </text>
<text text-anchor="start" x="160.9" y="-760.8" font-family="Verdana" font-style="italic" font-size="9.00">TEXT </text>
<polygon fill="none" stroke="black" points="87.9,-732 87.9,-752 278.9,-752 278.9,-732 87.9,-732"/>
<text text-anchor="start" x="92.9" y="-740.8" font-family="Verdana" font-weight="bold" font-size="9.00">currency_code</text>
<text text-anchor="start" x="166.9" y="-740.8" font-family="Verdana" font-size="9.00">: </text>
<text text-anchor="start" x="173.9" y="-740.8" font-family="Verdana" font-style="italic" font-size="9.00">VARCHAR(3) </text>
<polygon fill="none" stroke="black" points="87.9,-712 87.9,-732 278.9,-732 278.9,-712 87.9,-712"/>
<text text-anchor="start" x="92.9" y="-720.8" font-family="Verdana" font-weight="bold" font-size="9.00">is_primary</text>
<text text-anchor="start" x="146.9" y="-720.8" font-family="Verdana" font-size="9.00">: </text>
<text text-anchor="start" x="153.9" y="-720.8" font-family="Verdana" font-style="italic" font-size="9.00">BOOLEAN &#160;NOT NULL</text>
<polygon fill="none" stroke="black" points="87.9,-692 87.9,-712 278.9,-712 278.9,-692 87.9,-692"/>
<text text-anchor="start" x="92.9" y="-700.8" font-family="Verdana" font-weight="bold" font-size="9.00">status</text>
<text text-anchor="start" x="125.9" y="-700.8" font-family="Verdana" font-size="9.00">: </text>
<text text-anchor="start" x="132.9" y="-700.8" font-family="Verdana" font-style="italic" font-size="9.00">VARCHAR(32) &#160;NOT NULL</text>
<polygon fill="none" stroke="black" points="87.9,-672 87.9,-692 278.9,-692 278.9,-672 87.9,-672"/>
<text text-anchor="start" x="92.9" y="-680.8" font-family="Verdana" font-weight="bold" font-size="9.00">valid_from</text>
<text text-anchor="start" x="146.9" y="-680.8" font-family="Verdana" font-size="9.00">: </text>
<text text-anchor="start" x="153.9" y="-680.8" font-family="Verdana" font-style="italic" font-size="9.00">DATE </text>
<polygon fill="none" stroke="black" points="87.9,-652 87.9,-672 278.9,-672 278.9,-652 87.9,-652"/>
<text text-anchor="start" x="92.9" y="-660.8" font-family="Verdana" font-weight="bold" font-size="9.00">valid_to</text>
<text text-anchor="start" x="132.9" y="-660.8" font-family="Verdana" font-size="9.00">: </text>
<text text-anchor="start" x="139.9" y="-660.8" font-family="Verdana" font-style="italic" font-size="9.00">DATE </text>
<polygon fill="none" stroke="black" points="87.9,-632 87.9,-652 278.9,-652 278.9,-632 87.9,-632"/>
<text text-anchor="start" x="92.9" y="-640.8" font-family="Verdana" font-weight="bold" font-size="9.00">first_seen</text>
<text text-anchor="start" x="142.9" y="-640.8" font-family="Verdana" font-size="9.00">: </text>
<text text-anchor="start" x="149.9" y="-640.8" font-family="Verdana" font-style="italic" font-size="9.00">DATE </text>
<polygon fill="none" stroke="black" points="87.9,-612 87.9,-632 278.9,-632 278.9,-612 87.9,-612"/>
<text text-anchor="start" x="92.9" y="-620.8" font-family="Verdana" font-weight="bold" font-size="9.00">last_seen</text>
<text text-anchor="start" x="140.9" y="-620.8" font-family="Verdana" font-size="9.00">: </text>
<text text-anchor="start" x="147.9" y="-620.8" font-family="Verdana" font-style="italic" font-size="9.00">DATE </text>
<polygon fill="none" stroke="black" points="87.9,-592 87.9,-612 278.9,-612 278.9,-592 87.9,-592"/>
<text text-anchor="start" x="92.9" y="-600.8" font-family="Verdana" font-weight="bold" font-size="9.00">created_at</text>
<text text-anchor="start" x="147.9" y="-600.8" font-family="Verdana" font-size="9.00">: </text>
<text text-anchor="start" x="154.9" y="-600.8" font-family="Verdana" font-style="italic" font-size="9.00">TIMESTAMPTZ &#160;NOT NULL</text>
<polygon fill="none" stroke="black" points="87.9,-572 87.9,-592 278.9,-592 278.9,-572 87.9,-572"/>
<text text-anchor="start" x="92.9" y="-580.8" font-family="Verdana" font-weight="bold" font-size="9.00">updated_at</text>
<text text-anchor="start" x="151.9" y="-580.8" font-family="Verdana" font-size="9.00">: </text>
<text text-anchor="start" x="158.9" y="-580.8" font-family="Verdana" font-style="italic" font-size="9.00">TIMESTAMPTZ &#160;NOT NULL</text>
</g>
<!-- security -->
<g id="node4" class="node">
<title>security</title>
<polygon fill="lightblue" stroke="transparent" points="86.9,-508 86.9,-528 332.9,-528 332.9,-508 86.9,-508"/>
<polygon fill="none" stroke="black" points="86.9,-508 86.9,-528 332.9,-528 332.9,-508 86.9,-508"/>
<text text-anchor="start" x="188.9" y="-516.8" font-family="Verdana" font-weight="bold" font-size="9.00">security</text>
<polygon fill="none" stroke="black" points="86.9,-488 86.9,-508 332.9,-508 332.9,-488 86.9,-488"/>
<text text-anchor="start" x="91.9" y="-496.8" font-family="Verdana" font-weight="bold" font-size="9.00">security_id</text>
<text text-anchor="start" x="147.9" y="-496.8" font-family="Verdana" font-size="9.00">: </text>
<text text-anchor="start" x="154.9" y="-496.8" font-family="Verdana" font-style="italic" font-size="9.00">UUID &#160;NOT NULL</text>
<polygon fill="none" stroke="black" points="86.9,-468 86.9,-488 332.9,-488 332.9,-468 86.9,-468"/>
<text text-anchor="start" x="91.9" y="-476.8" font-family="Verdana" font-weight="bold" font-size="9.00">issuer_id</text>
<text text-anchor="start" x="137.9" y="-476.8" font-family="Verdana" font-size="9.00">: </text>
<text text-anchor="start" x="144.9" y="-476.8" font-family="Verdana" font-style="italic" font-size="9.00">UUID </text>
<polygon fill="none" stroke="black" points="86.9,-448 86.9,-468 332.9,-468 332.9,-448 86.9,-448"/>
<text text-anchor="start" x="91.9" y="-456.8" font-family="Verdana" font-weight="bold" font-size="9.00">instrument_type_code</text>
<text text-anchor="start" x="206.9" y="-456.8" font-family="Verdana" font-size="9.00">: </text>
<text text-anchor="start" x="213.9" y="-456.8" font-family="Verdana" font-style="italic" font-size="9.00">VARCHAR(32) &#160;NOT NULL</text>
<polygon fill="none" stroke="black" points="86.9,-428 86.9,-448 332.9,-448 332.9,-428 86.9,-428"/>
<text text-anchor="start" x="91.9" y="-436.8" font-family="Verdana" font-weight="bold" font-size="9.00">security_title</text>
<text text-anchor="start" x="158.9" y="-436.8" font-family="Verdana" font-size="9.00">: </text>
<text text-anchor="start" x="165.9" y="-436.8" font-family="Verdana" font-style="italic" font-size="9.00">TEXT &#160;NOT NULL</text>
<polygon fill="none" stroke="black" points="86.9,-408 86.9,-428 332.9,-428 332.9,-408 86.9,-408"/>
<text text-anchor="start" x="91.9" y="-416.8" font-family="Verdana" font-weight="bold" font-size="9.00">share_class</text>
<text text-anchor="start" x="149.9" y="-416.8" font-family="Verdana" font-size="9.00">: </text>
<text text-anchor="start" x="156.9" y="-416.8" font-family="Verdana" font-style="italic" font-size="9.00">TEXT </text>
<polygon fill="none" stroke="black" points="86.9,-388 86.9,-408 332.9,-408 332.9,-388 86.9,-388"/>
<text text-anchor="start" x="91.9" y="-396.8" font-family="Verdana" font-weight="bold" font-size="9.00">currency_code</text>
<text text-anchor="start" x="165.9" y="-396.8" font-family="Verdana" font-size="9.00">: </text>
<text text-anchor="start" x="172.9" y="-396.8" font-family="Verdana" font-style="italic" font-size="9.00">VARCHAR(3) </text>
<polygon fill="none" stroke="black" points="86.9,-368 86.9,-388 332.9,-388 332.9,-368 86.9,-368"/>
<text text-anchor="start" x="91.9" y="-376.8" font-family="Verdana" font-weight="bold" font-size="9.00">status</text>
<text text-anchor="start" x="124.9" y="-376.8" font-family="Verdana" font-size="9.00">: </text>
<text text-anchor="start" x="131.9" y="-376.8" font-family="Verdana" font-style="italic" font-size="9.00">VARCHAR(24) &#160;NOT NULL</text>
<polygon fill="none" stroke="black" points="86.9,-348 86.9,-368 332.9,-368 332.9,-348 86.9,-348"/>
<text text-anchor="start" x="91.9" y="-356.8" font-family="Verdana" font-weight="bold" font-size="9.00">first_seen</text>
<text text-anchor="start" x="141.9" y="-356.8" font-family="Verdana" font-size="9.00">: </text>
<text text-anchor="start" x="148.9" y="-356.8" font-family="Verdana" font-style="italic" font-size="9.00">DATE </text>
<polygon fill="none" stroke="black" points="86.9,-328 86.9,-348 332.9,-348 332.9,-328 86.9,-328"/>
<text text-anchor="start" x="91.9" y="-336.8" font-family="Verdana" font-weight="bold" font-size="9.00">last_seen</text>
<text text-anchor="start" x="139.9" y="-336.8" font-family="Verdana" font-size="9.00">: </text>
<text text-anchor="start" x="146.9" y="-336.8" font-family="Verdana" font-style="italic" font-size="9.00">DATE </text>
<polygon fill="none" stroke="black" points="86.9,-308 86.9,-328 332.9,-328 332.9,-308 86.9,-308"/>
<text text-anchor="start" x="91.9" y="-316.8" font-family="Verdana" font-weight="bold" font-size="9.00">created_at</text>
<text text-anchor="start" x="146.9" y="-316.8" font-family="Verdana" font-size="9.00">: </text>
<text text-anchor="start" x="153.9" y="-316.8" font-family="Verdana" font-style="italic" font-size="9.00">TIMESTAMPTZ &#160;NOT NULL</text>
<polygon fill="none" stroke="black" points="86.9,-288 86.9,-308 332.9,-308 332.9,-288 86.9,-288"/>
<text text-anchor="start" x="91.9" y="-296.8" font-family="Verdana" font-weight="bold" font-size="9.00">updated_at</text>
<text text-anchor="start" x="150.9" y="-296.8" font-family="Verdana" font-size="9.00">: </text>
<text text-anchor="start" x="157.9" y="-296.8" font-family="Verdana" font-style="italic" font-size="9.00">TIMESTAMPTZ &#160;NOT NULL</text>
</g>
<!-- listing&#45;&gt;security -->
<g id="edge1" class="edge">
<title>listing:security_id&#45;&gt;security:security_id</title>
<path fill="none" stroke="black" d="M279.9,-822C294.01,-822 287.93,-578.84 278.9,-568 223.32,-501.3 143.32,-597.99 86.9,-532 80.15,-524.1 75.06,-510.99 77.45,-503.57"/>
<polygon fill="black" stroke="black" points="79.48,-506.43 85.9,-498 75.63,-500.59 79.48,-506.43"/>
</g>
<!-- provider -->
<g id="node3" class="node">
<title>provider</title>
<polygon fill="lightblue" stroke="transparent" points="312.9,-772 312.9,-792 516.9,-792 516.9,-772 312.9,-772"/>
<polygon fill="none" stroke="black" points="312.9,-772 312.9,-792 516.9,-792 516.9,-772 312.9,-772"/>
<text text-anchor="start" x="392.9" y="-780.8" font-family="Verdana" font-weight="bold" font-size="9.00">provider</text>
<polygon fill="none" stroke="black" points="312.9,-752 312.9,-772 516.9,-772 516.9,-752 312.9,-752"/>
<text text-anchor="start" x="317.9" y="-760.8" font-family="Verdana" font-weight="bold" font-size="9.00">provider_code</text>
<text text-anchor="start" x="390.9" y="-760.8" font-family="Verdana" font-size="9.00">: </text>
<text text-anchor="start" x="397.9" y="-760.8" font-family="Verdana" font-style="italic" font-size="9.00">VARCHAR(32) &#160;NOT NULL</text>
<polygon fill="none" stroke="black" points="312.9,-732 312.9,-752 516.9,-752 516.9,-732 312.9,-732"/>
<text text-anchor="start" x="317.9" y="-740.8" font-family="Verdana" font-weight="bold" font-size="9.00">provider_name</text>
<text text-anchor="start" x="394.9" y="-740.8" font-family="Verdana" font-size="9.00">: </text>
<text text-anchor="start" x="401.9" y="-740.8" font-family="Verdana" font-style="italic" font-size="9.00">TEXT &#160;NOT NULL</text>
<polygon fill="none" stroke="black" points="312.9,-712 312.9,-732 516.9,-732 516.9,-712 312.9,-712"/>
<text text-anchor="start" x="317.9" y="-720.8" font-family="Verdana" font-weight="bold" font-size="9.00">provider_type</text>
<text text-anchor="start" x="389.9" y="-720.8" font-family="Verdana" font-size="9.00">: </text>
<text text-anchor="start" x="396.9" y="-720.8" font-family="Verdana" font-style="italic" font-size="9.00">VARCHAR(32) &#160;NOT NULL</text>
<polygon fill="none" stroke="black" points="312.9,-692 312.9,-712 516.9,-712 516.9,-692 312.9,-692"/>
<text text-anchor="start" x="317.9" y="-700.8" font-family="Verdana" font-weight="bold" font-size="9.00">website</text>
<text text-anchor="start" x="357.9" y="-700.8" font-family="Verdana" font-size="9.00">: </text>
<text text-anchor="start" x="364.9" y="-700.8" font-family="Verdana" font-style="italic" font-size="9.00">TEXT </text>
<polygon fill="none" stroke="black" points="312.9,-672 312.9,-692 516.9,-692 516.9,-672 312.9,-672"/>
<text text-anchor="start" x="317.9" y="-680.8" font-family="Verdana" font-weight="bold" font-size="9.00">description</text>
<text text-anchor="start" x="375.9" y="-680.8" font-family="Verdana" font-size="9.00">: </text>
<text text-anchor="start" x="382.9" y="-680.8" font-family="Verdana" font-style="italic" font-size="9.00">TEXT </text>
<polygon fill="none" stroke="black" points="312.9,-652 312.9,-672 516.9,-672 516.9,-652 312.9,-652"/>
<text text-anchor="start" x="317.9" y="-660.8" font-family="Verdana" font-weight="bold" font-size="9.00">is_active</text>
<text text-anchor="start" x="361.9" y="-660.8" font-family="Verdana" font-size="9.00">: </text>
<text text-anchor="start" x="368.9" y="-660.8" font-family="Verdana" font-style="italic" font-size="9.00">BOOLEAN &#160;NOT NULL</text>
</g>
<!-- security&#45;&gt;issuer -->
<g id="edge6" class="edge">
<title>security:issuer_id&#45;&gt;issuer:issuer_id</title>
<path fill="none" stroke="black" d="M85.9,-478C64.34,-478 73.68,-301.02 86.9,-284 125.78,-233.94 185.41,-297.58 224.9,-248 231.37,-239.87 236.56,-226.85 234.26,-219.5"/>
<polygon fill="black" stroke="black" points="236.18,-216.57 225.9,-214 232.33,-222.42 236.18,-216.57"/>
</g>
<!-- security_event -->
<g id="node5" class="node">
<title>security_event</title>
<polygon fill="lightblue" stroke="transparent" points="190.9,-1136 190.9,-1156 406.9,-1156 406.9,-1136 190.9,-1136"/>
<polygon fill="none" stroke="black" points="190.9,-1136 190.9,-1156 406.9,-1156 406.9,-1136 190.9,-1136"/>
<text text-anchor="start" x="260.9" y="-1144.8" font-family="Verdana" font-weight="bold" font-size="9.00">security_event</text>
<polygon fill="none" stroke="black" points="190.9,-1116 190.9,-1136 406.9,-1136 406.9,-1116 190.9,-1116"/>
<text text-anchor="start" x="195.9" y="-1124.8" font-family="Verdana" font-weight="bold" font-size="9.00">event_id</text>
<text text-anchor="start" x="239.9" y="-1124.8" font-family="Verdana" font-size="9.00">: </text>
<text text-anchor="start" x="246.9" y="-1124.8" font-family="Verdana" font-style="italic" font-size="9.00">UUID &#160;NOT NULL</text>
<polygon fill="none" stroke="black" points="190.9,-1096 190.9,-1116 406.9,-1116 406.9,-1096 190.9,-1096"/>
<text text-anchor="start" x="195.9" y="-1104.8" font-family="Verdana" font-weight="bold" font-size="9.00">issuer_id</text>
<text text-anchor="start" x="241.9" y="-1104.8" font-family="Verdana" font-size="9.00">: </text>
<text text-anchor="start" x="248.9" y="-1104.8" font-family="Verdana" font-style="italic" font-size="9.00">UUID </text>
<polygon fill="none" stroke="black" points="190.9,-1076 190.9,-1096 406.9,-1096 406.9,-1076 190.9,-1076"/>
<text text-anchor="start" x="195.9" y="-1084.8" font-family="Verdana" font-weight="bold" font-size="9.00">security_id</text>
<text text-anchor="start" x="251.9" y="-1084.8" font-family="Verdana" font-size="9.00">: </text>
<text text-anchor="start" x="258.9" y="-1084.8" font-family="Verdana" font-style="italic" font-size="9.00">UUID </text>
<polygon fill="none" stroke="black" points="190.9,-1056 190.9,-1076 406.9,-1076 406.9,-1056 190.9,-1056"/>
<text text-anchor="start" x="195.9" y="-1064.8" font-family="Verdana" font-weight="bold" font-size="9.00">listing_id</text>
<text text-anchor="start" x="242.9" y="-1064.8" font-family="Verdana" font-size="9.00">: </text>
<text text-anchor="start" x="249.9" y="-1064.8" font-family="Verdana" font-style="italic" font-size="9.00">UUID </text>
<polygon fill="none" stroke="black" points="190.9,-1036 190.9,-1056 406.9,-1056 406.9,-1036 190.9,-1036"/>
<text text-anchor="start" x="195.9" y="-1044.8" font-family="Verdana" font-weight="bold" font-size="9.00">event_type</text>
<text text-anchor="start" x="253.9" y="-1044.8" font-family="Verdana" font-size="9.00">: </text>
<text text-anchor="start" x="260.9" y="-1044.8" font-family="Verdana" font-style="italic" font-size="9.00">VARCHAR(32) &#160;NOT NULL</text>
<polygon fill="none" stroke="black" points="190.9,-1016 190.9,-1036 406.9,-1036 406.9,-1016 190.9,-1016"/>
<text text-anchor="start" x="195.9" y="-1024.8" font-family="Verdana" font-weight="bold" font-size="9.00">event_date</text>
<text text-anchor="start" x="253.9" y="-1024.8" font-family="Verdana" font-size="9.00">: </text>
<text text-anchor="start" x="260.9" y="-1024.8" font-family="Verdana" font-style="italic" font-size="9.00">DATE </text>
<polygon fill="none" stroke="black" points="190.9,-996 190.9,-1016 406.9,-1016 406.9,-996 190.9,-996"/>
<text text-anchor="start" x="195.9" y="-1004.8" font-family="Verdana" font-weight="bold" font-size="9.00">provider_code</text>
<text text-anchor="start" x="268.9" y="-1004.8" font-family="Verdana" font-size="9.00">: </text>
<text text-anchor="start" x="275.9" y="-1004.8" font-family="Verdana" font-style="italic" font-size="9.00">VARCHAR(32) </text>
<polygon fill="none" stroke="black" points="190.9,-976 190.9,-996 406.9,-996 406.9,-976 190.9,-976"/>
<text text-anchor="start" x="195.9" y="-984.8" font-family="Verdana" font-weight="bold" font-size="9.00">confidence_code</text>
<text text-anchor="start" x="280.9" y="-984.8" font-family="Verdana" font-size="9.00">: </text>
<text text-anchor="start" x="287.9" y="-984.8" font-family="Verdana" font-style="italic" font-size="9.00">VARCHAR(16) &#160;NOT NULL</text>
<polygon fill="none" stroke="black" points="190.9,-956 190.9,-976 406.9,-976 406.9,-956 190.9,-956"/>
<text text-anchor="start" x="195.9" y="-964.8" font-family="Verdana" font-weight="bold" font-size="9.00">description</text>
<text text-anchor="start" x="253.9" y="-964.8" font-family="Verdana" font-size="9.00">: </text>
<text text-anchor="start" x="260.9" y="-964.8" font-family="Verdana" font-style="italic" font-size="9.00">TEXT </text>
<polygon fill="none" stroke="black" points="190.9,-936 190.9,-956 406.9,-956 406.9,-936 190.9,-936"/>
<text text-anchor="start" x="195.9" y="-944.8" font-family="Verdana" font-weight="bold" font-size="9.00">details_json</text>
<text text-anchor="start" x="256.9" y="-944.8" font-family="Verdana" font-size="9.00">: </text>
<text text-anchor="start" x="263.9" y="-944.8" font-family="Verdana" font-style="italic" font-size="9.00">JSONB </text>
<polygon fill="none" stroke="black" points="190.9,-916 190.9,-936 406.9,-936 406.9,-916 190.9,-916"/>
<text text-anchor="start" x="195.9" y="-924.8" font-family="Verdana" font-weight="bold" font-size="9.00">created_at</text>
<text text-anchor="start" x="250.9" y="-924.8" font-family="Verdana" font-size="9.00">: </text>
<text text-anchor="start" x="257.9" y="-924.8" font-family="Verdana" font-style="italic" font-size="9.00">TIMESTAMPTZ &#160;NOT NULL</text>
</g>
<!-- security_event&#45;&gt;issuer -->
<g id="edge2" class="edge">
<title>security_event:issuer_id&#45;&gt;issuer:issuer_id</title>
<path fill="none" stroke="black" d="M189.9,-1106C-71.07,-1106 6.05,-318.75 29.2,-223.41"/>
<polygon fill="black" stroke="black" points="32.5,-224.59 32.9,-214 25.99,-222.03 32.5,-224.59"/>
</g>
<!-- security_event&#45;&gt;listing -->
<g id="edge3" class="edge">
<title>security_event:listing_id&#45;&gt;listing:listing_id</title>
<path fill="none" stroke="black" d="M189.9,-1066C121.45,-1066 152.56,-968.7 190.9,-912 214.57,-876.99 254.83,-910.73 278.9,-876 284.75,-867.55 290.1,-854.88 288.17,-847.63"/>
<polygon fill="black" stroke="black" points="290.14,-844.73 279.9,-842 286.2,-850.52 290.14,-844.73"/>
</g>
<!-- security_event&#45;&gt;provider -->
<g id="edge4" class="edge">
<title>security_event:provider_code&#45;&gt;provider:provider_code</title>
<path fill="none" stroke="black" d="M407.9,-1006C449.68,-1006 421.06,-951.31 406.9,-912 384.41,-849.57 335.98,-858.22 312.9,-796 309.53,-786.92 303.86,-775.52 304.2,-768.5"/>
<polygon fill="black" stroke="black" points="306.52,-771.12 311.9,-762 302,-765.78 306.52,-771.12"/>
</g>
<!-- security_event&#45;&gt;security -->
<g id="edge5" class="edge">
<title>security_event:security_id&#45;&gt;security:security_id</title>
<path fill="none" stroke="black" d="M407.9,-1086C526.37,-1086 602.45,-664.62 533.9,-568 508.41,-532.07 396.78,-502.1 343.94,-498.39"/>
<polygon fill="black" stroke="black" points="344.03,-494.89 333.9,-498 343.76,-501.88 344.03,-494.89"/>
</g>
</g>
</svg>
