<?xml version="1.0" encoding="UTF-8" standalone="no"?>
<!DOCTYPE svg PUBLIC "-//W3C//DTD SVG 1.1//EN"
 "http://www.w3.org/Graphics/SVG/1.1/DTD/svg11.dtd">
<!-- Generated by graphviz version 2.42.4 (0)
 -->
<!-- Title: ERD Pages: 1 -->
<svg width="365pt" height="1168pt"
 viewBox="0.00 0.00 365.00 1168.00" xmlns="http://www.w3.org/2000/svg" xmlns:xlink="http://www.w3.org/1999/xlink">
<g id="graph0" class="graph" transform="scale(1 1) rotate(0) translate(4 1164)">
<title>ERD</title>
<polygon fill="white" stroke="transparent" points="-4,4 -4,-1164 361,-1164 361,4 -4,4"/>
<!-- issuer -->
<g id="node1" class="node">
<title>issuer</title>
<polygon fill="lightblue" stroke="transparent" points="23.52,-224 23.52,-244 214.52,-244 214.52,-224 23.52,-224"/>
<polygon fill="none" stroke="black" points="23.52,-224 23.52,-244 214.52,-244 214.52,-224 23.52,-224"/>
<text text-anchor="start" x="103.52" y="-232.8" font-family="Verdana" font-weight="bold" font-size="9.00">issuer</text>
<polygon fill="none" stroke="black" points="23.52,-204 23.52,-224 214.52,-224 214.52,-204 23.52,-204"/>
<text text-anchor="start" x="28.52" y="-212.8" font-family="Verdana" font-weight="bold" font-size="9.00">issuer_id</text>
<text text-anchor="start" x="74.52" y="-212.8" font-family="Verdana" font-size="9.00">: </text>
<text text-anchor="start" x="81.52" y="-212.8" font-family="Verdana" font-style="italic" font-size="9.00">UUID &#160;NOT NULL</text>
<polygon fill="none" stroke="black" points="23.52,-184 23.52,-204 214.52,-204 214.52,-184 23.52,-184"/>
<text text-anchor="start" x="28.52" y="-192.8" font-family="Verdana" font-weight="bold" font-size="9.00">cik</text>
<text text-anchor="start" x="43.52" y="-192.8" font-family="Verdana" font-size="9.00">: </text>
<text text-anchor="start" x="50.52" y="-192.8" font-family="Verdana" font-style="italic" font-size="9.00">VARCHAR(10) </text>
<polygon fill="none" stroke="black" points="23.52,-164 23.52,-184 214.52,-184 214.52,-164 23.52,-164"/>
<text text-anchor="start" x="28.52" y="-172.8" font-family="Verdana" font-weight="bold" font-size="9.00">issuer_type</text>
<text text-anchor="start" x="87.52" y="-172.8" font-family="Verdana" font-size="9.00">: </text>
<text text-anchor="start" x="94.52" y="-172.8" font-family="Verdana" font-style="italic" font-size="9.00">VARCHAR(32) &#160;NOT NULL</text>
<polygon fill="none" stroke="black" points="23.52,-144 23.52,-164 214.52,-164 214.52,-144 23.52,-144"/>
<text text-anchor="start" x="28.52" y="-152.8" font-family="Verdana" font-weight="bold" font-size="9.00">current_name</text>
<text text-anchor="start" x="100.52" y="-152.8" font-family="Verdana" font-size="9.00">: </text>
<text text-anchor="start" x="107.52" y="-152.8" font-family="Verdana" font-style="italic" font-size="9.00">TEXT &#160;NOT NULL</text>
<polygon fill="none" stroke="black" points="23.52,-124 23.52,-144 214.52,-144 214.52,-124 23.52,-124"/>
<text text-anchor="start" x="28.52" y="-132.8" font-family="Verdana" font-weight="bold" font-size="9.00">country_alpha2</text>
<text text-anchor="start" x="107.52" y="-132.8" font-family="Verdana" font-size="9.00">: </text>
<text text-anchor="start" x="114.52" y="-132.8" font-family="Verdana" font-style="italic" font-size="9.00">VARCHAR(2) </text>
<polygon fill="none" stroke="black" points="23.52,-104 23.52,-124 214.52,-124 214.52,-104 23.52,-104"/>
<text text-anchor="start" x="28.52" y="-112.8" font-family="Verdana" font-weight="bold" font-size="9.00">sic_code</text>
<text text-anchor="start" x="71.52" y="-112.8" font-family="Verdana" font-size="9.00">: </text>
<text text-anchor="start" x="78.52" y="-112.8" font-family="Verdana" font-style="italic" font-size="9.00">VARCHAR(4) </text>
<polygon fill="none" stroke="black" points="23.52,-84 23.52,-104 214.52,-104 214.52,-84 23.52,-84"/>
<text text-anchor="start" x="28.52" y="-92.8" font-family="Verdana" font-weight="bold" font-size="9.00">status</text>
<text text-anchor="start" x="61.52" y="-92.8" font-family="Verdana" font-size="9.00">: </text>
<text text-anchor="start" x="68.52" y="-92.8" font-family="Verdana" font-style="italic" font-size="9.00">VARCHAR(24) &#160;NOT NULL</text>
<polygon fill="none" stroke="black" points="23.52,-64 23.52,-84 214.52,-84 214.52,-64 23.52,-64"/>
<text text-anchor="start" x="28.52" y="-72.8" font-family="Verdana" font-weight="bold" font-size="9.00">first_seen</text>
<text text-anchor="start" x="78.52" y="-72.8" font-family="Verdana" font-size="9.00">: </text>
<text text-anchor="start" x="85.52" y="-72.8" font-family="Verdana" font-style="italic" font-size="9.00">DATE </text>
<polygon fill="none" stroke="black" points="23.52,-44 23.52,-64 214.52,-64 214.52,-44 23.52,-44"/>
<text text-anchor="start" x="28.52" y="-52.8" font-family="Verdana" font-weight="bold" font-size="9.00">last_seen</text>
<text text-anchor="start" x="76.52" y="-52.8" font-family="Verdana" font-size="9.00">: </text>
<text text-anchor="start" x="83.52" y="-52.8" font-family="Verdana" font-style="italic" font-size="9.00">DATE </text>
<polygon fill="none" stroke="black" points="23.52,-24 23.52,-44 214.52,-44 214.52,-24 23.52,-24"/>
<text text-anchor="start" x="28.52" y="-32.8" font-family="Verdana" font-weight="bold" font-size="9.00">created_at</text>
<text text-anchor="start" x="83.52" y="-32.8" font-family="Verdana" font-size="9.00">: </text>
<text text-anchor="start" x="90.52" y="-32.8" font-family="Verdana" font-style="italic" font-size="9.00">TIMESTAMPTZ &#160;NOT NULL</text>
<polygon fill="none" stroke="black" points="23.52,-4 23.52,-24 214.52,-24 214.52,-4 23.52,-4"/>
<text text-anchor="start" x="28.52" y="-12.8" font-family="Verdana" font-weight="bold" font-size="9.00">updated_at</text>
<text text-anchor="start" x="87.52" y="-12.8" font-family="Verdana" font-size="9.00">: </text>
<text text-anchor="start" x="94.52" y="-12.8" font-family="Verdana" font-style="italic" font-size="9.00">TIMESTAMPTZ &#160;NOT NULL</text>
</g>
<!-- listing -->
<g id="node2" class="node">
<title>listing</title>
<polygon fill="lightblue" stroke="transparent" points="77.52,-852 77.52,-872 268.52,-872 268.52,-852 77.52,-852"/>
<polygon fill="none" stroke="black" points="77.52,-852 77.52,-872 268.52,-872 268.52,-852 77.52,-852"/>
<text text-anchor="start" x="156.52" y="-860.8" font-family="Verdana" font-weight="bold" font-size="9.00">listing</text>
<polygon fill="none" stroke="black" points="77.52,-832 77.52,-852 268.52,-852 268.52,-832 77.52,-832"/>
<text text-anchor="start" x="82.52" y="-840.8" font-family="Verdana" font-weight="bold" font-size="9.00">listing_id</text>
<text text-anchor="start" x="129.52" y="-840.8" font-family="Verdana" font-size="9.00">: </text>
<text text-anchor="start" x="136.52" y="-840.8" font-family="Verdana" font-style="italic" font-size="9.00">UUID &#160;NOT NULL</text>
<polygon fill="none" stroke="black" points="77.52,-812 77.52,-832 268.52,-832 268.52,-812 77.52,-812"/>
<text text-anchor="start" x="82.52" y="-820.8" font-family="Verdana" font-weight="bold" font-size="9.00">security_id</text>
<text text-anchor="start" x="138.52" y="-820.8" font-family="Verdana" font-size="9.00">: </text>
<text text-anchor="start" x="145.52" y="-820.8" font-family="Verdana" font-style="italic" font-size="9.00">UUID &#160;NOT NULL</text>
<polygon fill="none" stroke="black" points="77.52,-792 77.52,-812 268.52,-812 268.52,-792 77.52,-792"/>
<text text-anchor="start" x="82.52" y="-800.8" font-family="Verdana" font-weight="bold" font-size="9.00">exchange_id</text>
<text text-anchor="start" x="146.52" y="-800.8" font-family="Verdana" font-size="9.00">: </text>
<text text-anchor="start" x="153.52" y="-800.8" font-family="Verdana" font-style="italic" font-size="9.00">UUID &#160;NOT NULL</text>
<polygon fill="none" stroke="black" points="77.52,-772 77.52,-792 268.52,-792 268.52,-772 77.52,-772"/>
<text text-anchor="start" x="82.52" y="-780.8" font-family="Verdana" font-weight="bold" font-size="9.00">current_ticker</text>
<text text-anchor="start" x="155.52" y="-780.8" font-family="Verdana" font-size="9.00">: </text>
<text text-anchor="start" x="162.52" y="-780.8" font-family="Verdana" font-style="italic" font-size="9.00">TEXT </text>
<polygon fill="none" stroke="black" points="77.52,-752 77.52,-772 268.52,-772 268.52,-752 77.52,-752"/>
<text text-anchor="start" x="82.52" y="-760.8" font-family="Verdana" font-weight="bold" font-size="9.00">ticker_norm</text>
<text text-anchor="start" x="143.52" y="-760.8" font-family="Verdana" font-size="9.00">: </text>
<text text-anchor="start" x="150.52" y="-760.8" font-family="Verdana" font-style="italic" font-size="9.00">TEXT </text>
<polygon fill="none" stroke="black" points="77.52,-732 77.52,-752 268.52,-752 268.52,-732 77.52,-732"/>
<text text-anchor="start" x="82.52" y="-740.8" font-family="Verdana" font-weight="bold" font-size="9.00">currency_code</text>
<text text-anchor="start" x="156.52" y="-740.8" font-family="Verdana" font-size="9.00">: </text>
<text text-anchor="start" x="163.52" y="-740.8" font-family="Verdana" font-style="italic" font-size="9.00">VARCHAR(3) </text>
<polygon fill="none" stroke="black" points="77.52,-712 77.52,-732 268.52,-732 268.52,-712 77.52,-712"/>
<text text-anchor="start" x="82.52" y="-720.8" font-family="Verdana" font-weight="bold" font-size="9.00">is_primary</text>
<text text-anchor="start" x="136.52" y="-720.8" font-family="Verdana" font-size="9.00">: </text>
<text text-anchor="start" x="143.52" y="-720.8" font-family="Verdana" font-style="italic" font-size="9.00">BOOLEAN &#160;NOT NULL</text>
<polygon fill="none" stroke="black" points="77.52,-692 77.52,-712 268.52,-712 268.52,-692 77.52,-692"/>
<text text-anchor="start" x="82.52" y="-700.8" font-family="Verdana" font-weight="bold" font-size="9.00">status</text>
<text text-anchor="start" x="115.52" y="-700.8" font-family="Verdana" font-size="9.00">: </text>
<text text-anchor="start" x="122.52" y="-700.8" font-family="Verdana" font-style="italic" font-size="9.00">VARCHAR(32) &#160;NOT NULL</text>
<polygon fill="none" stroke="black" points="77.52,-672 77.52,-692 268.52,-692 268.52,-672 77.52,-672"/>
<text text-anchor="start" x="82.52" y="-680.8" font-family="Verdana" font-weight="bold" font-size="9.00">valid_from</text>
<text text-anchor="start" x="136.52" y="-680.8" font-family="Verdana" font-size="9.00">: </text>
<text text-anchor="start" x="143.52" y="-680.8" font-family="Verdana" font-style="italic" font-size="9.00">DATE </text>
<polygon fill="none" stroke="black" points="77.52,-652 77.52,-672 268.52,-672 268.52,-652 77.52,-652"/>
<text text-anchor="start" x="82.52" y="-660.8" font-family="Verdana" font-weight="bold" font-size="9.00">valid_to</text>
<text text-anchor="start" x="122.52" y="-660.8" font-family="Verdana" font-size="9.00">: </text>
<text text-anchor="start" x="129.52" y="-660.8" font-family="Verdana" font-style="italic" font-size="9.00">DATE </text>
<polygon fill="none" stroke="black" points="77.52,-632 77.52,-652 268.52,-652 268.52,-632 77.52,-632"/>
<text text-anchor="start" x="82.52" y="-640.8" font-family="Verdana" font-weight="bold" font-size="9.00">first_seen</text>
<text text-anchor="start" x="132.52" y="-640.8" font-family="Verdana" font-size="9.00">: </text>
<text text-anchor="start" x="139.52" y="-640.8" font-family="Verdana" font-style="italic" font-size="9.00">DATE </text>
<polygon fill="none" stroke="black" points="77.52,-612 77.52,-632 268.52,-632 268.52,-612 77.52,-612"/>
<text text-anchor="start" x="82.52" y="-620.8" font-family="Verdana" font-weight="bold" font-size="9.00">last_seen</text>
<text text-anchor="start" x="130.52" y="-620.8" font-family="Verdana" font-size="9.00">: </text>
<text text-anchor="start" x="137.52" y="-620.8" font-family="Verdana" font-style="italic" font-size="9.00">DATE </text>
<polygon fill="none" stroke="black" points="77.52,-592 77.52,-612 268.52,-612 268.52,-592 77.52,-592"/>
<text text-anchor="start" x="82.52" y="-600.8" font-family="Verdana" font-weight="bold" font-size="9.00">created_at</text>
<text text-anchor="start" x="137.52" y="-600.8" font-family="Verdana" font-size="9.00">: </text>
<text text-anchor="start" x="144.52" y="-600.8" font-family="Verdana" font-style="italic" font-size="9.00">TIMESTAMPTZ &#160;NOT NULL</text>
<polygon fill="none" stroke="black" points="77.52,-572 77.52,-592 268.52,-592 268.52,-572 77.52,-572"/>
<text text-anchor="start" x="82.52" y="-580.8" font-family="Verdana" font-weight="bold" font-size="9.00">updated_at</text>
<text text-anchor="start" x="141.52" y="-580.8" font-family="Verdana" font-size="9.00">: </text>
<text text-anchor="start" x="148.52" y="-580.8" font-family="Verdana" font-style="italic" font-size="9.00">TIMESTAMPTZ &#160;NOT NULL</text>
</g>
<!-- security -->
<g id="node3" class="node">
<title>security</title>
<polygon fill="lightblue" stroke="transparent" points="76.52,-508 76.52,-528 322.52,-528 322.52,-508 76.52,-508"/>
<polygon fill="none" stroke="black" points="76.52,-508 76.52,-528 322.52,-528 322.52,-508 76.52,-508"/>
<text text-anchor="start" x="178.52" y="-516.8" font-family="Verdana" font-weight="bold" font-size="9.00">security</text>
<polygon fill="none" stroke="black" points="76.52,-488 76.52,-508 322.52,-508 322.52,-488 76.52,-488"/>
<text text-anchor="start" x="81.52" y="-496.8" font-family="Verdana" font-weight="bold" font-size="9.00">security_id</text>
<text text-anchor="start" x="137.52" y="-496.8" font-family="Verdana" font-size="9.00">: </text>
<text text-anchor="start" x="144.52" y="-496.8" font-family="Verdana" font-style="italic" font-size="9.00">UUID &#160;NOT NULL</text>
<polygon fill="none" stroke="black" points="76.52,-468 76.52,-488 322.52,-488 322.52,-468 76.52,-468"/>
<text text-anchor="start" x="81.52" y="-476.8" font-family="Verdana" font-weight="bold" font-size="9.00">issuer_id</text>
<text text-anchor="start" x="127.52" y="-476.8" font-family="Verdana" font-size="9.00">: </text>
<text text-anchor="start" x="134.52" y="-476.8" font-family="Verdana" font-style="italic" font-size="9.00">UUID </text>
<polygon fill="none" stroke="black" points="76.52,-448 76.52,-468 322.52,-468 322.52,-448 76.52,-448"/>
<text text-anchor="start" x="81.52" y="-456.8" font-family="Verdana" font-weight="bold" font-size="9.00">instrument_type_code</text>
<text text-anchor="start" x="196.52" y="-456.8" font-family="Verdana" font-size="9.00">: </text>
<text text-anchor="start" x="203.52" y="-456.8" font-family="Verdana" font-style="italic" font-size="9.00">VARCHAR(32) &#160;NOT NULL</text>
<polygon fill="none" stroke="black" points="76.52,-428 76.52,-448 322.52,-448 322.52,-428 76.52,-428"/>
<text text-anchor="start" x="81.52" y="-436.8" font-family="Verdana" font-weight="bold" font-size="9.00">security_title</text>
<text text-anchor="start" x="148.52" y="-436.8" font-family="Verdana" font-size="9.00">: </text>
<text text-anchor="start" x="155.52" y="-436.8" font-family="Verdana" font-style="italic" font-size="9.00">TEXT &#160;NOT NULL</text>
<polygon fill="none" stroke="black" points="76.52,-408 76.52,-428 322.52,-428 322.52,-408 76.52,-408"/>
<text text-anchor="start" x="81.52" y="-416.8" font-family="Verdana" font-weight="bold" font-size="9.00">share_class</text>
<text text-anchor="start" x="139.52" y="-416.8" font-family="Verdana" font-size="9.00">: </text>
<text text-anchor="start" x="146.52" y="-416.8" font-family="Verdana" font-style="italic" font-size="9.00">TEXT </text>
<polygon fill="none" stroke="black" points="76.52,-388 76.52,-408 322.52,-408 322.52,-388 76.52,-388"/>
<text text-anchor="start" x="81.52" y="-396.8" font-family="Verdana" font-weight="bold" font-size="9.00">currency_code</text>
<text text-anchor="start" x="155.52" y="-396.8" font-family="Verdana" font-size="9.00">: </text>
<text text-anchor="start" x="162.52" y="-396.8" font-family="Verdana" font-style="italic" font-size="9.00">VARCHAR(3) </text>
<polygon fill="none" stroke="black" points="76.52,-368 76.52,-388 322.52,-388 322.52,-368 76.52,-368"/>
<text text-anchor="start" x="81.52" y="-376.8" font-family="Verdana" font-weight="bold" font-size="9.00">status</text>
<text text-anchor="start" x="114.52" y="-376.8" font-family="Verdana" font-size="9.00">: </text>
<text text-anchor="start" x="121.52" y="-376.8" font-family="Verdana" font-style="italic" font-size="9.00">VARCHAR(24) &#160;NOT NULL</text>
<polygon fill="none" stroke="black" points="76.52,-348 76.52,-368 322.52,-368 322.52,-348 76.52,-348"/>
<text text-anchor="start" x="81.52" y="-356.8" font-family="Verdana" font-weight="bold" font-size="9.00">first_seen</text>
<text text-anchor="start" x="131.52" y="-356.8" font-family="Verdana" font-size="9.00">: </text>
<text text-anchor="start" x="138.52" y="-356.8" font-family="Verdana" font-style="italic" font-size="9.00">DATE </text>
<polygon fill="none" stroke="black" points="76.52,-328 76.52,-348 322.52,-348 322.52,-328 76.52,-328"/>
<text text-anchor="start" x="81.52" y="-336.8" font-family="Verdana" font-weight="bold" font-size="9.00">last_seen</text>
<text text-anchor="start" x="129.52" y="-336.8" font-family="Verdana" font-size="9.00">: </text>
<text text-anchor="start" x="136.52" y="-336.8" font-family="Verdana" font-style="italic" font-size="9.00">DATE </text>
<polygon fill="none" stroke="black" points="76.52,-308 76.52,-328 322.52,-328 322.52,-308 76.52,-308"/>
<text text-anchor="start" x="81.52" y="-316.8" font-family="Verdana" font-weight="bold" font-size="9.00">created_at</text>
<text text-anchor="start" x="136.52" y="-316.8" font-family="Verdana" font-size="9.00">: </text>
<text text-anchor="start" x="143.52" y="-316.8" font-family="Verdana" font-style="italic" font-size="9.00">TIMESTAMPTZ &#160;NOT NULL</text>
<polygon fill="none" stroke="black" points="76.52,-288 76.52,-308 322.52,-308 322.52,-288 76.52,-288"/>
<text text-anchor="start" x="81.52" y="-296.8" font-family="Verdana" font-weight="bold" font-size="9.00">updated_at</text>
<text text-anchor="start" x="140.52" y="-296.8" font-family="Verdana" font-size="9.00">: </text>
<text text-anchor="start" x="147.52" y="-296.8" font-family="Verdana" font-style="italic" font-size="9.00">TIMESTAMPTZ &#160;NOT NULL</text>
</g>
<!-- listing&#45;&gt;security -->
<g id="edge1" class="edge">
<title>listing:security_id&#45;&gt;security:security_id</title>
<path fill="none" stroke="black" d="M269.52,-822C297.74,-822 286.58,-589.68 268.52,-568 212.94,-501.3 132.94,-597.99 76.52,-532 69.76,-524.1 64.68,-510.99 67.07,-503.57"/>
<polygon fill="black" stroke="black" points="69.1,-506.43 75.52,-498 65.24,-500.59 69.1,-506.43"/>
</g>
<!-- security&#45;&gt;issuer -->
<g id="edge5" class="edge">
<title>security:issuer_id&#45;&gt;issuer:issuer_id</title>
<path fill="none" stroke="black" d="M75.52,-478C53.96,-478 63.3,-301.02 76.52,-284 115.4,-233.94 175.03,-297.58 214.52,-248 220.99,-239.87 226.18,-226.85 223.88,-219.5"/>
<polygon fill="black" stroke="black" points="225.8,-216.57 215.52,-214 221.95,-222.42 225.8,-216.57"/>
</g>
<!-- security_event -->
<g id="node4" class="node">
<title>security_event</title>
<polygon fill="lightblue" stroke="transparent" points="65.52,-1136 65.52,-1156 281.52,-1156 281.52,-1136 65.52,-1136"/>
<polygon fill="none" stroke="black" points="65.52,-1136 65.52,-1156 281.52,-1156 281.52,-1136 65.52,-1136"/>
<text text-anchor="start" x="135.52" y="-1144.8" font-family="Verdana" font-weight="bold" font-size="9.00">security_event</text>
<polygon fill="none" stroke="black" points="65.52,-1116 65.52,-1136 281.52,-1136 281.52,-1116 65.52,-1116"/>
<text text-anchor="start" x="70.52" y="-1124.8" font-family="Verdana" font-weight="bold" font-size="9.00">event_id</text>
<text text-anchor="start" x="114.52" y="-1124.8" font-family="Verdana" font-size="9.00">: </text>
<text text-anchor="start" x="121.52" y="-1124.8" font-family="Verdana" font-style="italic" font-size="9.00">UUID &#160;NOT NULL</text>
<polygon fill="none" stroke="black" points="65.52,-1096 65.52,-1116 281.52,-1116 281.52,-1096 65.52,-1096"/>
<text text-anchor="start" x="70.52" y="-1104.8" font-family="Verdana" font-weight="bold" font-size="9.00">issuer_id</text>
<text text-anchor="start" x="116.52" y="-1104.8" font-family="Verdana" font-size="9.00">: </text>
<text text-anchor="start" x="123.52" y="-1104.8" font-family="Verdana" font-style="italic" font-size="9.00">UUID </text>
<polygon fill="none" stroke="black" points="65.52,-1076 65.52,-1096 281.52,-1096 281.52,-1076 65.52,-1076"/>
<text text-anchor="start" x="70.52" y="-1084.8" font-family="Verdana" font-weight="bold" font-size="9.00">security_id</text>
<text text-anchor="start" x="126.52" y="-1084.8" font-family="Verdana" font-size="9.00">: </text>
<text text-anchor="start" x="133.52" y="-1084.8" font-family="Verdana" font-style="italic" font-size="9.00">UUID </text>
<polygon fill="none" stroke="black" points="65.52,-1056 65.52,-1076 281.52,-1076 281.52,-1056 65.52,-1056"/>
<text text-anchor="start" x="70.52" y="-1064.8" font-family="Verdana" font-weight="bold" font-size="9.00">listing_id</text>
<text text-anchor="start" x="117.52" y="-1064.8" font-family="Verdana" font-size="9.00">: </text>
<text text-anchor="start" x="124.52" y="-1064.8" font-family="Verdana" font-style="italic" font-size="9.00">UUID </text>
<polygon fill="none" stroke="black" points="65.52,-1036 65.52,-1056 281.52,-1056 281.52,-1036 65.52,-1036"/>
<text text-anchor="start" x="70.52" y="-1044.8" font-family="Verdana" font-weight="bold" font-size="9.00">event_type</text>
<text text-anchor="start" x="128.52" y="-1044.8" font-family="Verdana" font-size="9.00">: </text>
<text text-anchor="start" x="135.52" y="-1044.8" font-family="Verdana" font-style="italic" font-size="9.00">VARCHAR(32) &#160;NOT NULL</text>
<polygon fill="none" stroke="black" points="65.52,-1016 65.52,-1036 281.52,-1036 281.52,-1016 65.52,-1016"/>
<text text-anchor="start" x="70.52" y="-1024.8" font-family="Verdana" font-weight="bold" font-size="9.00">event_date</text>
<text text-anchor="start" x="128.52" y="-1024.8" font-family="Verdana" font-size="9.00">: </text>
<text text-anchor="start" x="135.52" y="-1024.8" font-family="Verdana" font-style="italic" font-size="9.00">DATE </text>
<polygon fill="none" stroke="black" points="65.52,-996 65.52,-1016 281.52,-1016 281.52,-996 65.52,-996"/>
<text text-anchor="start" x="70.52" y="-1004.8" font-family="Verdana" font-weight="bold" font-size="9.00">source_code</text>
<text text-anchor="start" x="133.52" y="-1004.8" font-family="Verdana" font-size="9.00">: </text>
<text text-anchor="start" x="140.52" y="-1004.8" font-family="Verdana" font-style="italic" font-size="9.00">VARCHAR(32) </text>
<polygon fill="none" stroke="black" points="65.52,-976 65.52,-996 281.52,-996 281.52,-976 65.52,-976"/>
<text text-anchor="start" x="70.52" y="-984.8" font-family="Verdana" font-weight="bold" font-size="9.00">confidence_code</text>
<text text-anchor="start" x="155.52" y="-984.8" font-family="Verdana" font-size="9.00">: </text>
<text text-anchor="start" x="162.52" y="-984.8" font-family="Verdana" font-style="italic" font-size="9.00">VARCHAR(16) &#160;NOT NULL</text>
<polygon fill="none" stroke="black" points="65.52,-956 65.52,-976 281.52,-976 281.52,-956 65.52,-956"/>
<text text-anchor="start" x="70.52" y="-964.8" font-family="Verdana" font-weight="bold" font-size="9.00">description</text>
<text text-anchor="start" x="128.52" y="-964.8" font-family="Verdana" font-size="9.00">: </text>
<text text-anchor="start" x="135.52" y="-964.8" font-family="Verdana" font-style="italic" font-size="9.00">TEXT </text>
<polygon fill="none" stroke="black" points="65.52,-936 65.52,-956 281.52,-956 281.52,-936 65.52,-936"/>
<text text-anchor="start" x="70.52" y="-944.8" font-family="Verdana" font-weight="bold" font-size="9.00">details_json</text>
<text text-anchor="start" x="131.52" y="-944.8" font-family="Verdana" font-size="9.00">: </text>
<text text-anchor="start" x="138.52" y="-944.8" font-family="Verdana" font-style="italic" font-size="9.00">JSONB </text>
<polygon fill="none" stroke="black" points="65.52,-916 65.52,-936 281.52,-936 281.52,-916 65.52,-916"/>
<text text-anchor="start" x="70.52" y="-924.8" font-family="Verdana" font-weight="bold" font-size="9.00">created_at</text>
<text text-anchor="start" x="125.52" y="-924.8" font-family="Verdana" font-size="9.00">: </text>
<text text-anchor="start" x="132.52" y="-924.8" font-family="Verdana" font-style="italic" font-size="9.00">TIMESTAMPTZ &#160;NOT NULL</text>
</g>
<!-- security_event&#45;&gt;issuer -->
<g id="edge2" class="edge">
<title>security_event:issuer_id&#45;&gt;issuer:issuer_id</title>
<path fill="none" stroke="black" d="M64.52,-1106C17.52,-1106 -22.64,-305.6 15.42,-221.18"/>
<polygon fill="black" stroke="black" points="17.98,-223.57 22.52,-214 13,-218.65 17.98,-223.57"/>
</g>
<!-- security_event&#45;&gt;listing -->
<g id="edge3" class="edge">
<title>security_event:listing_id&#45;&gt;listing:listing_id</title>
<path fill="none" stroke="black" d="M64.52,-1066C-3.93,-1066 21.38,-964.31 65.52,-912 124.61,-841.97 208.63,-945.35 268.52,-876 275.31,-868.13 280.38,-855.01 277.98,-847.58"/>
<polygon fill="black" stroke="black" points="279.79,-844.59 269.52,-842 275.94,-850.43 279.79,-844.59"/>
</g>
<!-- security_event&#45;&gt;security -->
<g id="edge4" class="edge">
<title>security_event:security_id&#45;&gt;security:security_id</title>
<path fill="none" stroke="black" d="M282.52,-1086C344.68,-1086 384.78,-556.2 332.68,-502.39"/>
<polygon fill="black" stroke="black" points="334.05,-499.17 323.52,-498 331.02,-505.48 334.05,-499.17"/>
</g>
</g>
</svg>
