<?xml version="1.0" encoding="UTF-8" standalone="no"?>
<!DOCTYPE svg PUBLIC "-//W3C//DTD SVG 1.1//EN"
 "http://www.w3.org/Graphics/SVG/1.1/DTD/svg11.dtd">
<!-- Generated by graphviz version 2.42.4 (0)
 -->
<!-- Title: ERD Pages: 1 -->
<svg width="570pt" height="1188pt"
 viewBox="0.00 0.00 569.88 1188.00" xmlns="http://www.w3.org/2000/svg" xmlns:xlink="http://www.w3.org/1999/xlink">
<g id="graph0" class="graph" transform="scale(1 1) rotate(0) translate(4 1184)">
<title>ERD</title>
<polygon fill="white" stroke="transparent" points="-4,4 -4,-1184 565.88,-1184 565.88,4 -4,4"/>
<!-- issuer -->
<g id="node1" class="node">
<title>issuer</title>
<polygon fill="lightblue" stroke="transparent" points="35.66,-224 35.66,-244 226.66,-244 226.66,-224 35.66,-224"/>
<polygon fill="none" stroke="black" points="35.66,-224 35.66,-244 226.66,-244 226.66,-224 35.66,-224"/>
<text text-anchor="start" x="115.66" y="-232.8" font-family="Verdana" font-weight="bold" font-size="9.00">issuer</text>
<polygon fill="none" stroke="black" points="35.66,-204 35.66,-224 226.66,-224 226.66,-204 35.66,-204"/>
<text text-anchor="start" x="40.66" y="-212.8" font-family="Verdana" font-weight="bold" font-size="9.00">issuer_id</text>
<text text-anchor="start" x="86.66" y="-212.8" font-family="Verdana" font-size="9.00">: </text>
<text text-anchor="start" x="93.66" y="-212.8" font-family="Verdana" font-style="italic" font-size="9.00">UUID &#160;NOT NULL</text>
<polygon fill="none" stroke="black" points="35.66,-184 35.66,-204 226.66,-204 226.66,-184 35.66,-184"/>
<text text-anchor="start" x="40.66" y="-192.8" font-family="Verdana" font-weight="bold" font-size="9.00">cik</text>
<text text-anchor="start" x="55.66" y="-192.8" font-family="Verdana" font-size="9.00">: </text>
<text text-anchor="start" x="62.66" y="-192.8" font-family="Verdana" font-style="italic" font-size="9.00">VARCHAR(10) </text>
<polygon fill="none" stroke="black" points="35.66,-164 35.66,-184 226.66,-184 226.66,-164 35.66,-164"/>
<text text-anchor="start" x="40.66" y="-172.8" font-family="Verdana" font-weight="bold" font-size="9.00">issuer_type</text>
<text text-anchor="start" x="99.66" y="-172.8" font-family="Verdana" font-size="9.00">: </text>
<text text-anchor="start" x="106.66" y="-172.8" font-family="Verdana" font-style="italic" font-size="9.00">VARCHAR(32) &#160;NOT NULL</text>
<polygon fill="none" stroke="black" points="35.66,-144 35.66,-164 226.66,-164 226.66,-144 35.66,-144"/>
<text text-anchor="start" x="40.66" y="-152.8" font-family="Verdana" font-weight="bold" font-size="9.00">current_name</text>
<text text-anchor="start" x="112.66" y="-152.8" font-family="Verdana" font-size="9.00">: </text>
<text text-anchor="start" x="119.66" y="-152.8" font-family="Verdana" font-style="italic" font-size="9.00">TEXT &#160;NOT NULL</text>
<polygon fill="none" stroke="black" points="35.66,-124 35.66,-144 226.66,-144 226.66,-124 35.66,-124"/>
<text text-anchor="start" x="40.66" y="-132.8" font-family="Verdana" font-weight="bold" font-size="9.00">country_alpha2</text>
<text text-anchor="start" x="119.66" y="-132.8" font-family="Verdana" font-size="9.00">: </text>
<text text-anchor="start" x="126.66" y="-132.8" font-family="Verdana" font-style="italic" font-size="9.00">VARCHAR(2) </text>
<polygon fill="none" stroke="black" points="35.66,-104 35.66,-124 226.66,-124 226.66,-104 35.66,-104"/>
<text text-anchor="start" x="40.66" y="-112.8" font-family="Verdana" font-weight="bold" font-size="9.00">sic_code</text>
<text text-anchor="start" x="83.66" y="-112.8" font-family="Verdana" font-size="9.00">: </text>
<text text-anchor="start" x="90.66" y="-112.8" font-family="Verdana" font-style="italic" font-size="9.00">VARCHAR(4) </text>
<polygon fill="none" stroke="black" points="35.66,-84 35.66,-104 226.66,-104 226.66,-84 35.66,-84"/>
<text text-anchor="start" x="40.66" y="-92.8" font-family="Verdana" font-weight="bold" font-size="9.00">status</text>
<text text-anchor="start" x="73.66" y="-92.8" font-family="Verdana" font-size="9.00">: </text>
<text text-anchor="start" x="80.66" y="-92.8" font-family="Verdana" font-style="italic" font-size="9.00">VARCHAR(24) &#160;NOT NULL</text>
<polygon fill="none" stroke="black" points="35.66,-64 35.66,-84 226.66,-84 226.66,-64 35.66,-64"/>
<text text-anchor="start" x="40.66" y="-72.8" font-family="Verdana" font-weight="bold" font-size="9.00">first_seen</text>
<text text-anchor="start" x="90.66" y="-72.8" font-family="Verdana" font-size="9.00">: </text>
<text text-anchor="start" x="97.66" y="-72.8" font-family="Verdana" font-style="italic" font-size="9.00">DATE </text>
<polygon fill="none" stroke="black" points="35.66,-44 35.66,-64 226.66,-64 226.66,-44 35.66,-44"/>
<text text-anchor="start" x="40.66" y="-52.8" font-family="Verdana" font-weight="bold" font-size="9.00">last_seen</text>
<text text-anchor="start" x="88.66" y="-52.8" font-family="Verdana" font-size="9.00">: </text>
<text text-anchor="start" x="95.66" y="-52.8" font-family="Verdana" font-style="italic" font-size="9.00">DATE </text>
<polygon fill="none" stroke="black" points="35.66,-24 35.66,-44 226.66,-44 226.66,-24 35.66,-24"/>
<text text-anchor="start" x="40.66" y="-32.8" font-family="Verdana" font-weight="bold" font-size="9.00">created_at</text>
<text text-anchor="start" x="95.66" y="-32.8" font-family="Verdana" font-size="9.00">: </text>
<text text-anchor="start" x="102.66" y="-32.8" font-family="Verdana" font-style="italic" font-size="9.00">TIMESTAMPTZ &#160;NOT NULL</text>
<polygon fill="none" stroke="black" points="35.66,-4 35.66,-24 226.66,-24 226.66,-4 35.66,-4"/>
<text text-anchor="start" x="40.66" y="-12.8" font-family="Verdana" font-weight="bold" font-size="9.00">updated_at</text>
<text text-anchor="start" x="99.66" y="-12.8" font-family="Verdana" font-size="9.00">: </text>
<text text-anchor="start" x="106.66" y="-12.8" font-family="Verdana" font-style="italic" font-size="9.00">TIMESTAMPTZ &#160;NOT NULL</text>
</g>
<!-- listing -->
<g id="node2" class="node">
<title>listing</title>
<polygon fill="lightblue" stroke="transparent" points="89.66,-872 89.66,-892 280.66,-892 280.66,-872 89.66,-872"/>
<polygon fill="none" stroke="black" points="89.66,-872 89.66,-892 280.66,-892 280.66,-872 89.66,-872"/>
<text text-anchor="start" x="168.66" y="-880.8" font-family="Verdana" font-weight="bold" font-size="9.00">listing</text>
<polygon fill="none" stroke="black" points="89.66,-852 89.66,-872 280.66,-872 280.66,-852 89.66,-852"/>
<text text-anchor="start" x="94.66" y="-860.8" font-family="Verdana" font-weight="bold" font-size="9.00">listing_id</text>
<text text-anchor="start" x="141.66" y="-860.8" font-family="Verdana" font-size="9.00">: </text>
<text text-anchor="start" x="148.66" y="-860.8" font-family="Verdana" font-style="italic" font-size="9.00">UUID &#160;NOT NULL</text>
<polygon fill="none" stroke="black" points="89.66,-832 89.66,-852 280.66,-852 280.66,-832 89.66,-832"/>
<text text-anchor="start" x="94.66" y="-840.8" font-family="Verdana" font-weight="bold" font-size="9.00">security_id</text>
<text text-anchor="start" x="150.66" y="-840.8" font-family="Verdana" font-size="9.00">: </text>
<text text-anchor="start" x="157.66" y="-840.8" font-family="Verdana" font-style="italic" font-size="9.00">UUID &#160;NOT NULL</text>
<polygon fill="none" stroke="black" points="89.66,-812 89.66,-832 280.66,-832 280.66,-812 89.66,-812"/>
<text text-anchor="start" x="94.66" y="-820.8" font-family="Verdana" font-weight="bold" font-size="9.00">exchange_id</text>
<text text-anchor="start" x="158.66" y="-820.8" font-family="Verdana" font-size="9.00">: </text>
<text text-anchor="start" x="165.66" y="-820.8" font-family="Verdana" font-style="italic" font-size="9.00">UUID &#160;NOT NULL</text>
<polygon fill="none" stroke="black" points="89.66,-792 89.66,-812 280.66,-812 280.66,-792 89.66,-792"/>
<text text-anchor="start" x="94.66" y="-800.8" font-family="Verdana" font-weight="bold" font-size="9.00">current_ticker</text>
<text text-anchor="start" x="167.66" y="-800.8" font-family="Verdana" font-size="9.00">: </text>
<text text-anchor="start" x="174.66" y="-800.8" font-family="Verdana" font-style="italic" font-size="9.00">TEXT </text>
<polygon fill="none" stroke="black" points="89.66,-772 89.66,-792 280.66,-792 280.66,-772 89.66,-772"/>
<text text-anchor="start" x="94.66" y="-780.8" font-family="Verdana" font-weight="bold" font-size="9.00">ticker_norm</text>
<text text-anchor="start" x="155.66" y="-780.8" font-family="Verdana" font-size="9.00">: </text>
<text text-anchor="start" x="162.66" y="-780.8" font-family="Verdana" font-style="italic" font-size="9.00">TEXT </text>
<polygon fill="none" stroke="black" points="89.66,-752 89.66,-772 280.66,-772 280.66,-752 89.66,-752"/>
<text text-anchor="start" x="94.66" y="-760.8" font-family="Verdana" font-weight="bold" font-size="9.00">currency_code</text>
<text text-anchor="start" x="168.66" y="-760.8" font-family="Verdana" font-size="9.00">: </text>
<text text-anchor="start" x="175.66" y="-760.8" font-family="Verdana" font-style="italic" font-size="9.00">VARCHAR(3) </text>
<polygon fill="none" stroke="black" points="89.66,-732 89.66,-752 280.66,-752 280.66,-732 89.66,-732"/>
<text text-anchor="start" x="94.66" y="-740.8" font-family="Verdana" font-weight="bold" font-size="9.00">is_primary</text>
<text text-anchor="start" x="148.66" y="-740.8" font-family="Verdana" font-size="9.00">: </text>
<text text-anchor="start" x="155.66" y="-740.8" font-family="Verdana" font-style="italic" font-size="9.00">BOOLEAN &#160;NOT NULL</text>
<polygon fill="none" stroke="black" points="89.66,-712 89.66,-732 280.66,-732 280.66,-712 89.66,-712"/>
<text text-anchor="start" x="94.66" y="-720.8" font-family="Verdana" font-weight="bold" font-size="9.00">status</text>
<text text-anchor="start" x="127.66" y="-720.8" font-family="Verdana" font-size="9.00">: </text>
<text text-anchor="start" x="134.66" y="-720.8" font-family="Verdana" font-style="italic" font-size="9.00">VARCHAR(32) &#160;NOT NULL</text>
<polygon fill="none" stroke="black" points="89.66,-692 89.66,-712 280.66,-712 280.66,-692 89.66,-692"/>
<text text-anchor="start" x="94.66" y="-700.8" font-family="Verdana" font-weight="bold" font-size="9.00">valid_from</text>
<text text-anchor="start" x="148.66" y="-700.8" font-family="Verdana" font-size="9.00">: </text>
<text text-anchor="start" x="155.66" y="-700.8" font-family="Verdana" font-style="italic" font-size="9.00">DATE </text>
<polygon fill="none" stroke="black" points="89.66,-672 89.66,-692 280.66,-692 280.66,-672 89.66,-672"/>
<text text-anchor="start" x="94.66" y="-680.8" font-family="Verdana" font-weight="bold" font-size="9.00">valid_to</text>
<text text-anchor="start" x="134.66" y="-680.8" font-family="Verdana" font-size="9.00">: </text>
<text text-anchor="start" x="141.66" y="-680.8" font-family="Verdana" font-style="italic" font-size="9.00">DATE </text>
<polygon fill="none" stroke="black" points="89.66,-652 89.66,-672 280.66,-672 280.66,-652 89.66,-652"/>
<text text-anchor="start" x="94.66" y="-660.8" font-family="Verdana" font-weight="bold" font-size="9.00">first_seen</text>
<text text-anchor="start" x="144.66" y="-660.8" font-family="Verdana" font-size="9.00">: </text>
<text text-anchor="start" x="151.66" y="-660.8" font-family="Verdana" font-style="italic" font-size="9.00">DATE </text>
<polygon fill="none" stroke="black" points="89.66,-632 89.66,-652 280.66,-652 280.66,-632 89.66,-632"/>
<text text-anchor="start" x="94.66" y="-640.8" font-family="Verdana" font-weight="bold" font-size="9.00">last_seen</text>
<text text-anchor="start" x="142.66" y="-640.8" font-family="Verdana" font-size="9.00">: </text>
<text text-anchor="start" x="149.66" y="-640.8" font-family="Verdana" font-style="italic" font-size="9.00">DATE </text>
<polygon fill="none" stroke="black" points="89.66,-612 89.66,-632 280.66,-632 280.66,-612 89.66,-612"/>
<text text-anchor="start" x="94.66" y="-620.8" font-family="Verdana" font-weight="bold" font-size="9.00">created_at</text>
<text text-anchor="start" x="149.66" y="-620.8" font-family="Verdana" font-size="9.00">: </text>
<text text-anchor="start" x="156.66" y="-620.8" font-family="Verdana" font-style="italic" font-size="9.00">TIMESTAMPTZ &#160;NOT NULL</text>
<polygon fill="none" stroke="black" points="89.66,-592 89.66,-612 280.66,-612 280.66,-592 89.66,-592"/>
<text text-anchor="start" x="94.66" y="-600.8" font-family="Verdana" font-weight="bold" font-size="9.00">updated_at</text>
<text text-anchor="start" x="153.66" y="-600.8" font-family="Verdana" font-size="9.00">: </text>
<text text-anchor="start" x="160.66" y="-600.8" font-family="Verdana" font-style="italic" font-size="9.00">TIMESTAMPTZ &#160;NOT NULL</text>
</g>
<!-- security -->
<g id="node4" class="node">
<title>security</title>
<polygon fill="lightblue" stroke="transparent" points="88.66,-528 88.66,-548 334.66,-548 334.66,-528 88.66,-528"/>
<polygon fill="none" stroke="black" points="88.66,-528 88.66,-548 334.66,-548 334.66,-528 88.66,-528"/>
<text text-anchor="start" x="190.66" y="-536.8" font-family="Verdana" font-weight="bold" font-size="9.00">security</text>
<polygon fill="none" stroke="black" points="88.66,-508 88.66,-528 334.66,-528 334.66,-508 88.66,-508"/>
<text text-anchor="start" x="93.66" y="-516.8" font-family="Verdana" font-weight="bold" font-size="9.00">security_id</text>
<text text-anchor="start" x="149.66" y="-516.8" font-family="Verdana" font-size="9.00">: </text>
<text text-anchor="start" x="156.66" y="-516.8" font-family="Verdana" font-style="italic" font-size="9.00">UUID &#160;NOT NULL</text>
<polygon fill="none" stroke="black" points="88.66,-488 88.66,-508 334.66,-508 334.66,-488 88.66,-488"/>
<text text-anchor="start" x="93.66" y="-496.8" font-family="Verdana" font-weight="bold" font-size="9.00">issuer_id</text>
<text text-anchor="start" x="139.66" y="-496.8" font-family="Verdana" font-size="9.00">: </text>
<text text-anchor="start" x="146.66" y="-496.8" font-family="Verdana" font-style="italic" font-size="9.00">UUID </text>
<polygon fill="none" stroke="black" points="88.66,-468 88.66,-488 334.66,-488 334.66,-468 88.66,-468"/>
<text text-anchor="start" x="93.66" y="-476.8" font-family="Verdana" font-weight="bold" font-size="9.00">instrument_type_code</text>
<text text-anchor="start" x="208.66" y="-476.8" font-family="Verdana" font-size="9.00">: </text>
<text text-anchor="start" x="215.66" y="-476.8" font-family="Verdana" font-style="italic" font-size="9.00">VARCHAR(32) &#160;NOT NULL</text>
<polygon fill="none" stroke="black" points="88.66,-448 88.66,-468 334.66,-468 334.66,-448 88.66,-448"/>
<text text-anchor="start" x="93.66" y="-456.8" font-family="Verdana" font-weight="bold" font-size="9.00">security_title</text>
<text text-anchor="start" x="160.66" y="-456.8" font-family="Verdana" font-size="9.00">: </text>
<text text-anchor="start" x="167.66" y="-456.8" font-family="Verdana" font-style="italic" font-size="9.00">TEXT &#160;NOT NULL</text>
<polygon fill="none" stroke="black" points="88.66,-428 88.66,-448 334.66,-448 334.66,-428 88.66,-428"/>
<text text-anchor="start" x="93.66" y="-436.8" font-family="Verdana" font-weight="bold" font-size="9.00">share_class</text>
<text text-anchor="start" x="151.66" y="-436.8" font-family="Verdana" font-size="9.00">: </text>
<text text-anchor="start" x="158.66" y="-436.8" font-family="Verdana" font-style="italic" font-size="9.00">TEXT </text>
<polygon fill="none" stroke="black" points="88.66,-408 88.66,-428 334.66,-428 334.66,-408 88.66,-408"/>
<text text-anchor="start" x="93.66" y="-416.8" font-family="Verdana" font-weight="bold" font-size="9.00">currency_code</text>
<text text-anchor="start" x="167.66" y="-416.8" font-family="Verdana" font-size="9.00">: </text>
<text text-anchor="start" x="174.66" y="-416.8" font-family="Verdana" font-style="italic" font-size="9.00">VARCHAR(3) </text>
<polygon fill="none" stroke="black" points="88.66,-388 88.66,-408 334.66,-408 334.66,-388 88.66,-388"/>
<text text-anchor="start" x="93.66" y="-396.8" font-family="Verdana" font-weight="bold" font-size="9.00">status</text>
<text text-anchor="start" x="126.66" y="-396.8" font-family="Verdana" font-size="9.00">: </text>
<text text-anchor="start" x="133.66" y="-396.8" font-family="Verdana" font-style="italic" font-size="9.00">VARCHAR(24) &#160;NOT NULL</text>
<polygon fill="none" stroke="black" points="88.66,-368 88.66,-388 334.66,-388 334.66,-368 88.66,-368"/>
<text text-anchor="start" x="93.66" y="-376.8" font-family="Verdana" font-weight="bold" font-size="9.00">first_seen</text>
<text text-anchor="start" x="143.66" y="-376.8" font-family="Verdana" font-size="9.00">: </text>
<text text-anchor="start" x="150.66" y="-376.8" font-family="Verdana" font-style="italic" font-size="9.00">DATE </text>
<polygon fill="none" stroke="black" points="88.66,-348 88.66,-368 334.66,-368 334.66,-348 88.66,-348"/>
<text text-anchor="start" x="93.66" y="-356.8" font-family="Verdana" font-weight="bold" font-size="9.00">last_seen</text>
<text text-anchor="start" x="141.66" y="-356.8" font-family="Verdana" font-size="9.00">: </text>
<text text-anchor="start" x="148.66" y="-356.8" font-family="Verdana" font-style="italic" font-size="9.00">DATE </text>
<polygon fill="none" stroke="black" points="88.66,-328 88.66,-348 334.66,-348 334.66,-328 88.66,-328"/>
<text text-anchor="start" x="93.66" y="-336.8" font-family="Verdana" font-weight="bold" font-size="9.00">created_at</text>
<text text-anchor="start" x="148.66" y="-336.8" font-family="Verdana" font-size="9.00">: </text>
<text text-anchor="start" x="155.66" y="-336.8" font-family="Verdana" font-style="italic" font-size="9.00">TIMESTAMPTZ &#160;NOT NULL</text>
<polygon fill="none" stroke="black" points="88.66,-308 88.66,-328 334.66,-328 334.66,-308 88.66,-308"/>
<text text-anchor="start" x="93.66" y="-316.8" font-family="Verdana" font-weight="bold" font-size="9.00">updated_at</text>
<text text-anchor="start" x="152.66" y="-316.8" font-family="Verdana" font-size="9.00">: </text>
<text text-anchor="start" x="159.66" y="-316.8" font-family="Verdana" font-style="italic" font-size="9.00">TIMESTAMPTZ &#160;NOT NULL</text>
<polygon fill="none" stroke="black" points="88.66,-288 88.66,-308 334.66,-308 334.66,-288 88.66,-288"/>
<text text-anchor="start" x="93.66" y="-296.8" font-family="Verdana" font-weight="bold" font-size="9.00">identity_status</text>
<text text-anchor="start" x="171.66" y="-296.8" font-family="Verdana" font-size="9.00">: </text>
<text text-anchor="start" x="178.66" y="-296.8" font-family="Verdana" font-style="italic" font-size="9.00">VARCHAR(24) &#160;NOT NULL</text>
</g>
<!-- listing&#45;&gt;security -->
<g id="edge1" class="edge">
<title>listing:security_id&#45;&gt;security:security_id</title>
<path fill="none" stroke="black" d="M281.66,-842C295.78,-842 289.7,-598.84 280.66,-588 225.09,-521.3 145.09,-617.99 88.66,-552 81.91,-544.1 76.83,-530.99 79.22,-523.57"/>
<polygon fill="black" stroke="black" points="81.24,-526.43 87.66,-518 77.39,-520.59 81.24,-526.43"/>
</g>
<!-- provider -->
<g id="node3" class="node">
<title>provider</title>
<polygon fill="lightblue" stroke="transparent" points="314.66,-792 314.66,-812 518.66,-812 518.66,-792 314.66,-792"/>
<polygon fill="none" stroke="black" points="314.66,-792 314.66,-812 518.66,-812 518.66,-792 314.66,-792"/>
<text text-anchor="start" x="394.66" y="-800.8" font-family="Verdana" font-weight="bold" font-size="9.00">provider</text>
<polygon fill="none" stroke="black" points="314.66,-772 314.66,-792 518.66,-792 518.66,-772 314.66,-772"/>
<text text-anchor="start" x="319.66" y="-780.8" font-family="Verdana" font-weight="bold" font-size="9.00">provider_code</text>
<text text-anchor="start" x="392.66" y="-780.8" font-family="Verdana" font-size="9.00">: </text>
<text text-anchor="start" x="399.66" y="-780.8" font-family="Verdana" font-style="italic" font-size="9.00">VARCHAR(32) &#160;NOT NULL</text>
<polygon fill="none" stroke="black" points="314.66,-752 314.66,-772 518.66,-772 518.66,-752 314.66,-752"/>
<text text-anchor="start" x="319.66" y="-760.8" font-family="Verdana" font-weight="bold" font-size="9.00">provider_name</text>
<text text-anchor="start" x="396.66" y="-760.8" font-family="Verdana" font-size="9.00">: </text>
<text text-anchor="start" x="403.66" y="-760.8" font-family="Verdana" font-style="italic" font-size="9.00">TEXT &#160;NOT NULL</text>
<polygon fill="none" stroke="black" points="314.66,-732 314.66,-752 518.66,-752 518.66,-732 314.66,-732"/>
<text text-anchor="start" x="319.66" y="-740.8" font-family="Verdana" font-weight="bold" font-size="9.00">provider_type</text>
<text text-anchor="start" x="391.66" y="-740.8" font-family="Verdana" font-size="9.00">: </text>
<text text-anchor="start" x="398.66" y="-740.8" font-family="Verdana" font-style="italic" font-size="9.00">VARCHAR(32) &#160;NOT NULL</text>
<polygon fill="none" stroke="black" points="314.66,-712 314.66,-732 518.66,-732 518.66,-712 314.66,-712"/>
<text text-anchor="start" x="319.66" y="-720.8" font-family="Verdana" font-weight="bold" font-size="9.00">website</text>
<text text-anchor="start" x="359.66" y="-720.8" font-family="Verdana" font-size="9.00">: </text>
<text text-anchor="start" x="366.66" y="-720.8" font-family="Verdana" font-style="italic" font-size="9.00">TEXT </text>
<polygon fill="none" stroke="black" points="314.66,-692 314.66,-712 518.66,-712 518.66,-692 314.66,-692"/>
<text text-anchor="start" x="319.66" y="-700.8" font-family="Verdana" font-weight="bold" font-size="9.00">description</text>
<text text-anchor="start" x="377.66" y="-700.8" font-family="Verdana" font-size="9.00">: </text>
<text text-anchor="start" x="384.66" y="-700.8" font-family="Verdana" font-style="italic" font-size="9.00">TEXT </text>
<polygon fill="none" stroke="black" points="314.66,-672 314.66,-692 518.66,-692 518.66,-672 314.66,-672"/>
<text text-anchor="start" x="319.66" y="-680.8" font-family="Verdana" font-weight="bold" font-size="9.00">is_active</text>
<text text-anchor="start" x="363.66" y="-680.8" font-family="Verdana" font-size="9.00">: </text>
<text text-anchor="start" x="370.66" y="-680.8" font-family="Verdana" font-style="italic" font-size="9.00">BOOLEAN &#160;NOT NULL</text>
</g>
<!-- security&#45;&gt;issuer -->
<g id="edge6" class="edge">
<title>security:issuer_id&#45;&gt;issuer:issuer_id</title>
<path fill="none" stroke="black" d="M87.66,-498C63.89,-498 74.08,-302.78 88.66,-284 127.54,-233.93 187.18,-297.58 226.66,-248 233.14,-239.87 238.33,-226.85 236.03,-219.5"/>
<polygon fill="black" stroke="black" points="237.94,-216.57 227.66,-214 234.09,-222.42 237.94,-216.57"/>
</g>
<!-- security_event -->
<g id="node5" class="node">
<title>security_event</title>
<polygon fill="lightblue" stroke="transparent" points="192.66,-1156 192.66,-1176 408.66,-1176 408.66,-1156 192.66,-1156"/>
<polygon fill="none" stroke="black" points="192.66,-1156 192.66,-1176 408.66,-1176 408.66,-1156 192.66,-1156"/>
<text text-anchor="start" x="262.66" y="-1164.8" font-family="Verdana" font-weight="bold" font-size="9.00">security_event</text>
<polygon fill="none" stroke="black" points="192.66,-1136 192.66,-1156 408.66,-1156 408.66,-1136 192.66,-1136"/>
<text text-anchor="start" x="197.66" y="-1144.8" font-family="Verdana" font-weight="bold" font-size="9.00">event_id</text>
<text text-anchor="start" x="241.66" y="-1144.8" font-family="Verdana" font-size="9.00">: </text>
<text text-anchor="start" x="248.66" y="-1144.8" font-family="Verdana" font-style="italic" font-size="9.00">UUID &#160;NOT NULL</text>
<polygon fill="none" stroke="black" points="192.66,-1116 192.66,-1136 408.66,-1136 408.66,-1116 192.66,-1116"/>
<text text-anchor="start" x="197.66" y="-1124.8" font-family="Verdana" font-weight="bold" font-size="9.00">issuer_id</text>
<text text-anchor="start" x="243.66" y="-1124.8" font-family="Verdana" font-size="9.00">: </text>
<text text-anchor="start" x="250.66" y="-1124.8" font-family="Verdana" font-style="italic" font-size="9.00">UUID </text>
<polygon fill="none" stroke="black" points="192.66,-1096 192.66,-1116 408.66,-1116 408.66,-1096 192.66,-1096"/>
<text text-anchor="start" x="197.66" y="-1104.8" font-family="Verdana" font-weight="bold" font-size="9.00">security_id</text>
<text text-anchor="start" x="253.66" y="-1104.8" font-family="Verdana" font-size="9.00">: </text>
<text text-anchor="start" x="260.66" y="-1104.8" font-family="Verdana" font-style="italic" font-size="9.00">UUID </text>
<polygon fill="none" stroke="black" points="192.66,-1076 192.66,-1096 408.66,-1096 408.66,-1076 192.66,-1076"/>
<text text-anchor="start" x="197.66" y="-1084.8" font-family="Verdana" font-weight="bold" font-size="9.00">listing_id</text>
<text text-anchor="start" x="244.66" y="-1084.8" font-family="Verdana" font-size="9.00">: </text>
<text text-anchor="start" x="251.66" y="-1084.8" font-family="Verdana" font-style="italic" font-size="9.00">UUID </text>
<polygon fill="none" stroke="black" points="192.66,-1056 192.66,-1076 408.66,-1076 408.66,-1056 192.66,-1056"/>
<text text-anchor="start" x="197.66" y="-1064.8" font-family="Verdana" font-weight="bold" font-size="9.00">event_type</text>
<text text-anchor="start" x="255.66" y="-1064.8" font-family="Verdana" font-size="9.00">: </text>
<text text-anchor="start" x="262.66" y="-1064.8" font-family="Verdana" font-style="italic" font-size="9.00">VARCHAR(32) &#160;NOT NULL</text>
<polygon fill="none" stroke="black" points="192.66,-1036 192.66,-1056 408.66,-1056 408.66,-1036 192.66,-1036"/>
<text text-anchor="start" x="197.66" y="-1044.8" font-family="Verdana" font-weight="bold" font-size="9.00">event_date</text>
<text text-anchor="start" x="255.66" y="-1044.8" font-family="Verdana" font-size="9.00">: </text>
<text text-anchor="start" x="262.66" y="-1044.8" font-family="Verdana" font-style="italic" font-size="9.00">DATE </text>
<polygon fill="none" stroke="black" points="192.66,-1016 192.66,-1036 408.66,-1036 408.66,-1016 192.66,-1016"/>
<text text-anchor="start" x="197.66" y="-1024.8" font-family="Verdana" font-weight="bold" font-size="9.00">provider_code</text>
<text text-anchor="start" x="270.66" y="-1024.8" font-family="Verdana" font-size="9.00">: </text>
<text text-anchor="start" x="277.66" y="-1024.8" font-family="Verdana" font-style="italic" font-size="9.00">VARCHAR(32) </text>
<polygon fill="none" stroke="black" points="192.66,-996 192.66,-1016 408.66,-1016 408.66,-996 192.66,-996"/>
<text text-anchor="start" x="197.66" y="-1004.8" font-family="Verdana" font-weight="bold" font-size="9.00">confidence_code</text>
<text text-anchor="start" x="282.66" y="-1004.8" font-family="Verdana" font-size="9.00">: </text>
<text text-anchor="start" x="289.66" y="-1004.8" font-family="Verdana" font-style="italic" font-size="9.00">VARCHAR(16) &#160;NOT NULL</text>
<polygon fill="none" stroke="black" points="192.66,-976 192.66,-996 408.66,-996 408.66,-976 192.66,-976"/>
<text text-anchor="start" x="197.66" y="-984.8" font-family="Verdana" font-weight="bold" font-size="9.00">description</text>
<text text-anchor="start" x="255.66" y="-984.8" font-family="Verdana" font-size="9.00">: </text>
<text text-anchor="start" x="262.66" y="-984.8" font-family="Verdana" font-style="italic" font-size="9.00">TEXT </text>
<polygon fill="none" stroke="black" points="192.66,-956 192.66,-976 408.66,-976 408.66,-956 192.66,-956"/>
<text text-anchor="start" x="197.66" y="-964.8" font-family="Verdana" font-weight="bold" font-size="9.00">details_json</text>
<text text-anchor="start" x="258.66" y="-964.8" font-family="Verdana" font-size="9.00">: </text>
<text text-anchor="start" x="265.66" y="-964.8" font-family="Verdana" font-style="italic" font-size="9.00">JSONB </text>
<polygon fill="none" stroke="black" points="192.66,-936 192.66,-956 408.66,-956 408.66,-936 192.66,-936"/>
<text text-anchor="start" x="197.66" y="-944.8" font-family="Verdana" font-weight="bold" font-size="9.00">created_at</text>
<text text-anchor="start" x="252.66" y="-944.8" font-family="Verdana" font-size="9.00">: </text>
<text text-anchor="start" x="259.66" y="-944.8" font-family="Verdana" font-style="italic" font-size="9.00">TIMESTAMPTZ &#160;NOT NULL</text>
</g>
<!-- security_event&#45;&gt;issuer -->
<g id="edge2" class="edge">
<title>security_event:issuer_id&#45;&gt;issuer:issuer_id</title>
<path fill="none" stroke="black" d="M191.66,-1126C-74.07,-1126 7.1,-319.42 30.93,-223.32"/>
<polygon fill="black" stroke="black" points="34.19,-224.58 34.66,-214 27.7,-221.98 34.19,-224.58"/>
</g>
<!-- security_event&#45;&gt;listing -->
<g id="edge3" class="edge">
<title>security_event:listing_id&#45;&gt;listing:listing_id</title>
<path fill="none" stroke="black" d="M191.66,-1086C123.22,-1086 154.33,-988.7 192.66,-932 216.33,-896.99 256.6,-930.73 280.66,-896 286.52,-887.55 291.86,-874.88 289.94,-867.63"/>
<polygon fill="black" stroke="black" points="291.9,-864.73 281.66,-862 287.96,-870.52 291.9,-864.73"/>
</g>
<!-- security_event&#45;&gt;provider -->
<g id="edge4" class="edge">
<title>security_event:provider_code&#45;&gt;provider:provider_code</title>
<path fill="none" stroke="black" d="M409.66,-1026C451.45,-1026 422.83,-971.31 408.66,-932 386.17,-869.57 337.74,-878.22 314.66,-816 311.3,-806.92 305.63,-795.52 305.97,-788.5"/>
<polygon fill="black" stroke="black" points="308.28,-791.12 313.66,-782 303.77,-785.78 308.28,-791.12"/>
</g>
<!-- security_event&#45;&gt;security -->
<g id="edge5" class="edge">
<title>security_event:security_id&#45;&gt;security:security_id</title>
<path fill="none" stroke="black" d="M409.66,-1106C528.13,-1106 604.22,-684.62 535.66,-588 510.17,-552.07 398.54,-522.1 345.7,-518.39"/>
<polygon fill="black" stroke="black" points="345.79,-514.89 335.66,-518 345.52,-521.88 345.79,-514.89"/>
</g>
</g>
</svg>
