<?xml version="1.0" encoding="UTF-8" standalone="no"?>
<!DOCTYPE svg PUBLIC "-//W3C//DTD SVG 1.1//EN"
 "http://www.w3.org/Graphics/SVG/1.1/DTD/svg11.dtd">
<!-- Generated by graphviz version 2.42.4 (0)
 -->
<!-- Title: schema_relations Pages: 1 -->
<svg width="1529pt" height="667pt"
 viewBox="0.00 0.00 1529.00 666.77" xmlns="http://www.w3.org/2000/svg" xmlns:xlink="http://www.w3.org/1999/xlink">
<g id="graph0" class="graph" transform="scale(1 1) rotate(0) translate(18 648.77)">
<title>schema_relations</title>
<!-- issuer -->
<g id="node1" class="node">
<title>issuer</title>
<path fill="#f8fafc" stroke="#334155" d="M42,-170.77C42,-170.77 12,-170.77 12,-170.77 6,-170.77 0,-164.77 0,-158.77 0,-158.77 0,-146.77 0,-146.77 0,-140.77 6,-134.77 12,-134.77 12,-134.77 42,-134.77 42,-134.77 48,-134.77 54,-140.77 54,-146.77 54,-146.77 54,-158.77 54,-158.77 54,-164.77 48,-170.77 42,-170.77"/>
<text text-anchor="middle" x="27" y="-149.97" font-family="Helvetica,sans-Serif" font-size="11.00">issuer</text>
</g>
<!-- provider_evidence -->
<g id="node4" class="node">
<title>provider_evidence</title>
<path fill="#f8fafc" stroke="#334155" d="M1481,-244.77C1481,-244.77 1390,-244.77 1390,-244.77 1384,-244.77 1378,-238.77 1378,-232.77 1378,-232.77 1378,-220.77 1378,-220.77 1378,-214.77 1384,-208.77 1390,-208.77 1390,-208.77 1481,-208.77 1481,-208.77 1487,-208.77 1493,-214.77 1493,-220.77 1493,-220.77 1493,-232.77 1493,-232.77 1493,-238.77 1487,-244.77 1481,-244.77"/>
<text text-anchor="middle" x="1435.5" y="-223.97" font-family="Helvetica,sans-Serif" font-size="11.00">provider_evidence</text>
</g>
<!-- issuer&#45;&gt;provider_evidence -->
<g id="edge1" class="edge">
<title>issuer&#45;&gt;provider_evidence</title>
<path fill="none" stroke="#64748b" d="M31.32,-170.87C47.63,-257.06 122.54,-621.77 222,-621.77 222,-621.77 222,-621.77 1075.5,-621.77 1276.47,-621.77 1394.58,-338.28 1425.99,-251.63"/>
<polygon fill="#64748b" stroke="#64748b" points="1428.3,-252.45 1428.35,-245.03 1423.69,-250.8 1428.3,-252.45"/>
<text text-anchor="middle" x="588" y="-624.37" font-family="Helvetica,sans-Serif" font-size="8.00">fk_provider_evidence_issuer</text>
</g>
<!-- security -->
<g id="node8" class="node">
<title>security</title>
<path fill="#f8fafc" stroke="#334155" d="M240.5,-170.77C240.5,-170.77 205.5,-170.77 205.5,-170.77 199.5,-170.77 193.5,-164.77 193.5,-158.77 193.5,-158.77 193.5,-146.77 193.5,-146.77 193.5,-140.77 199.5,-134.77 205.5,-134.77 205.5,-134.77 240.5,-134.77 240.5,-134.77 246.5,-134.77 252.5,-140.77 252.5,-146.77 252.5,-146.77 252.5,-158.77 252.5,-158.77 252.5,-164.77 246.5,-170.77 240.5,-170.77"/>
<text text-anchor="middle" x="223" y="-149.97" font-family="Helvetica,sans-Serif" font-size="11.00">security</text>
</g>
<!-- issuer&#45;&gt;security -->
<g id="edge2" class="edge">
<title>issuer&#45;&gt;security</title>
<path fill="none" stroke="#64748b" d="M54.16,-152.77C88.2,-152.77 147.81,-152.77 186.07,-152.77"/>
<polygon fill="#64748b" stroke="#64748b" points="186.42,-155.22 193.42,-152.77 186.42,-150.32 186.42,-155.22"/>
<text text-anchor="middle" x="123.5" y="-155.37" font-family="Helvetica,sans-Serif" font-size="8.00">fk_security_issuer</text>
</g>
<!-- security_event -->
<g id="node9" class="node">
<title>security_event</title>
<path fill="#f8fafc" stroke="#334155" d="M1110.5,-161.77C1110.5,-161.77 1038.5,-161.77 1038.5,-161.77 1032.5,-161.77 1026.5,-155.77 1026.5,-149.77 1026.5,-149.77 1026.5,-137.77 1026.5,-137.77 1026.5,-131.77 1032.5,-125.77 1038.5,-125.77 1038.5,-125.77 1110.5,-125.77 1110.5,-125.77 1116.5,-125.77 1122.5,-131.77 1122.5,-137.77 1122.5,-137.77 1122.5,-149.77 1122.5,-149.77 1122.5,-155.77 1116.5,-161.77 1110.5,-161.77"/>
<text text-anchor="middle" x="1074.5" y="-140.97" font-family="Helvetica,sans-Serif" font-size="11.00">security_event</text>
</g>
<!-- issuer&#45;&gt;security_event -->
<g id="edge3" class="edge">
<title>issuer&#45;&gt;security_event</title>
<path fill="none" stroke="#64748b" d="M54.36,-139.27C100.23,-116.34 198.22,-69.85 286,-44.77 449.55,1.95 497.68,7.34 667,-8.77 791.35,-20.6 839.73,8.5 943,-61.77 965.63,-77.17 954.24,-97.16 976,-113.77 988.57,-123.37 1004.24,-129.92 1019.32,-134.38"/>
<polygon fill="#64748b" stroke="#64748b" points="1018.79,-136.78 1026.19,-136.29 1020.1,-132.06 1018.79,-136.78"/>
<text text-anchor="middle" x="381" y="-47.37" font-family="Helvetica,sans-Serif" font-size="8.00">fk_security_event_issuer</text>
</g>
<!-- listing -->
<g id="node2" class="node">
<title>listing</title>
<path fill="#f8fafc" stroke="#334155" d="M603,-66.77C603,-66.77 573,-66.77 573,-66.77 567,-66.77 561,-60.77 561,-54.77 561,-54.77 561,-42.77 561,-42.77 561,-36.77 567,-30.77 573,-30.77 573,-30.77 603,-30.77 603,-30.77 609,-30.77 615,-36.77 615,-42.77 615,-42.77 615,-54.77 615,-54.77 615,-60.77 609,-66.77 603,-66.77"/>
<text text-anchor="middle" x="588" y="-45.97" font-family="Helvetica,sans-Serif" font-size="11.00">listing</text>
</g>
<!-- listing&#45;&gt;provider_evidence -->
<g id="edge4" class="edge">
<title>listing&#45;&gt;provider_evidence</title>
<path fill="none" stroke="#64748b" d="M615.2,-48.69C697.93,-48.87 960.71,-52.96 1173,-94.77 1251.36,-110.2 1275.36,-107.68 1345,-146.77 1371.52,-161.66 1396.88,-185.56 1413.79,-203.37"/>
<polygon fill="#64748b" stroke="#64748b" points="1412.19,-205.24 1418.76,-208.68 1415.77,-201.9 1412.19,-205.24"/>
<text text-anchor="middle" x="1074.5" y="-97.37" font-family="Helvetica,sans-Serif" font-size="8.00">fk_provider_evidence_listing</text>
</g>
<!-- listing&#45;&gt;security_event -->
<g id="edge5" class="edge">
<title>listing&#45;&gt;security_event</title>
<path fill="none" stroke="#64748b" d="M615.21,-53.84C673.92,-65.21 820.44,-93.62 943,-117.77 968.06,-122.71 995.81,-128.23 1019.26,-132.91"/>
<polygon fill="#64748b" stroke="#64748b" points="1019.05,-135.37 1026.39,-134.34 1020.01,-130.56 1019.05,-135.37"/>
<text text-anchor="middle" x="821.5" y="-120.37" font-family="Helvetica,sans-Serif" font-size="8.00">fk_security_event_listing</text>
</g>
<!-- provider -->
<g id="node3" class="node">
<title>provider</title>
<path fill="#f8fafc" stroke="#334155" d="M241,-447.77C241,-447.77 205,-447.77 205,-447.77 199,-447.77 193,-441.77 193,-435.77 193,-435.77 193,-423.77 193,-423.77 193,-417.77 199,-411.77 205,-411.77 205,-411.77 241,-411.77 241,-411.77 247,-411.77 253,-417.77 253,-423.77 253,-423.77 253,-435.77 253,-435.77 253,-441.77 247,-447.77 241,-447.77"/>
<text text-anchor="middle" x="223" y="-426.97" font-family="Helvetica,sans-Serif" font-size="11.00">provider</text>
</g>
<!-- provider_observation -->
<g id="node5" class="node">
<title>provider_observation</title>
<path fill="#f8fafc" stroke="#334155" d="M1128,-447.77C1128,-447.77 1021,-447.77 1021,-447.77 1015,-447.77 1009,-441.77 1009,-435.77 1009,-435.77 1009,-423.77 1009,-423.77 1009,-417.77 1015,-411.77 1021,-411.77 1021,-411.77 1128,-411.77 1128,-411.77 1134,-411.77 1140,-417.77 1140,-423.77 1140,-423.77 1140,-435.77 1140,-435.77 1140,-441.77 1134,-447.77 1128,-447.77"/>
<text text-anchor="middle" x="1074.5" y="-426.97" font-family="Helvetica,sans-Serif" font-size="11.00">provider_observation</text>
</g>
<!-- provider&#45;&gt;provider_observation -->
<g id="edge6" class="edge">
<title>provider&#45;&gt;provider_observation</title>
<path fill="none" stroke="#64748b" d="M253.24,-429.77C372.52,-429.77 824.31,-429.77 1001.54,-429.77"/>
<polygon fill="#64748b" stroke="#64748b" points="1001.75,-432.22 1008.75,-429.77 1001.75,-427.32 1001.75,-432.22"/>
<text text-anchor="middle" x="588" y="-432.37" font-family="Helvetica,sans-Serif" font-size="8.00">fk_provider_observation_provider</text>
</g>
<!-- provider_source_snapshot -->
<g id="node6" class="node">
<title>provider_source_snapshot</title>
<path fill="#f8fafc" stroke="#334155" d="M655,-517.77C655,-517.77 521,-517.77 521,-517.77 515,-517.77 509,-511.77 509,-505.77 509,-505.77 509,-493.77 509,-493.77 509,-487.77 515,-481.77 521,-481.77 521,-481.77 655,-481.77 655,-481.77 661,-481.77 667,-487.77 667,-493.77 667,-493.77 667,-505.77 667,-505.77 667,-511.77 661,-517.77 655,-517.77"/>
<text text-anchor="middle" x="588" y="-496.97" font-family="Helvetica,sans-Serif" font-size="11.00">provider_source_snapshot</text>
</g>
<!-- provider&#45;&gt;provider_source_snapshot -->
<g id="edge7" class="edge">
<title>provider&#45;&gt;provider_source_snapshot</title>
<path fill="none" stroke="#64748b" d="M253.26,-442C263.48,-445.9 275.11,-449.93 286,-452.77 357.56,-471.43 440.74,-483.73 501.5,-491.05"/>
<polygon fill="#64748b" stroke="#64748b" points="501.55,-493.52 508.79,-491.91 502.13,-488.65 501.55,-493.52"/>
<text text-anchor="middle" x="381" y="-489.37" font-family="Helvetica,sans-Serif" font-size="8.00">provider_source_snapshot_provider_code_fkey</text>
</g>
<!-- provider&#45;&gt;security_event -->
<g id="edge8" class="edge">
<title>provider&#45;&gt;security_event</title>
<path fill="none" stroke="#64748b" d="M253.08,-424C371.22,-400.28 815.09,-308.67 943,-245.77 984.5,-225.36 1025.37,-190.34 1050.01,-167.12"/>
<polygon fill="#64748b" stroke="#64748b" points="1051.94,-168.66 1055.32,-162.06 1048.56,-165.12 1051.94,-168.66"/>
<text text-anchor="middle" x="588" y="-369.37" font-family="Helvetica,sans-Serif" font-size="8.00">fk_security_event_provider</text>
</g>
<!-- provider_observation&#45;&gt;provider_evidence -->
<g id="edge9" class="edge">
<title>provider_observation&#45;&gt;provider_evidence</title>
<path fill="none" stroke="#64748b" d="M1107.36,-411.76C1173.41,-374.41 1325.02,-288.68 1396.23,-248.41"/>
<polygon fill="#64748b" stroke="#64748b" points="1397.57,-250.47 1402.45,-244.89 1395.16,-246.2 1397.57,-250.47"/>
<text text-anchor="middle" x="1275.5" y="-354.37" font-family="Helvetica,sans-Serif" font-size="8.00">fk_provider_evidence_observation</text>
</g>
<!-- provider_source_snapshot&#45;&gt;provider_observation -->
<g id="edge10" class="edge">
<title>provider_source_snapshot&#45;&gt;provider_observation</title>
<path fill="none" stroke="#64748b" d="M667.17,-490.36C739,-481.48 848.34,-467.39 943,-452.77 962.14,-449.82 982.79,-446.32 1001.91,-442.95"/>
<polygon fill="#64748b" stroke="#64748b" points="1002.41,-445.35 1008.87,-441.72 1001.55,-440.53 1002.41,-445.35"/>
<text text-anchor="middle" x="821.5" y="-487.37" font-family="Helvetica,sans-Serif" font-size="8.00">provider_observation_source_snapshot_id_fkey</text>
</g>
<!-- provider_source_snapshot_object -->
<g id="node7" class="node">
<title>provider_source_snapshot_object</title>
<path fill="#f8fafc" stroke="#334155" d="M1161,-556.77C1161,-556.77 988,-556.77 988,-556.77 982,-556.77 976,-550.77 976,-544.77 976,-544.77 976,-532.77 976,-532.77 976,-526.77 982,-520.77 988,-520.77 988,-520.77 1161,-520.77 1161,-520.77 1167,-520.77 1173,-526.77 1173,-532.77 1173,-532.77 1173,-544.77 1173,-544.77 1173,-550.77 1167,-556.77 1161,-556.77"/>
<text text-anchor="middle" x="1074.5" y="-535.97" font-family="Helvetica,sans-Serif" font-size="11.00">provider_source_snapshot_object</text>
</g>
<!-- provider_source_snapshot&#45;&gt;provider_source_snapshot_object -->
<g id="edge11" class="edge">
<title>provider_source_snapshot&#45;&gt;provider_source_snapshot_object</title>
<path fill="none" stroke="#64748b" d="M667.22,-506.94C678.22,-507.91 689.4,-508.88 700,-509.77 790.73,-517.38 893.91,-525.34 968.8,-530.99"/>
<polygon fill="#64748b" stroke="#64748b" points="968.79,-533.45 975.96,-531.53 969.16,-528.56 968.79,-533.45"/>
<text text-anchor="middle" x="821.5" y="-531.37" font-family="Helvetica,sans-Serif" font-size="8.00">provider_source_snapshot_object_source_snapshot_id_fkey</text>
</g>
<!-- security&#45;&gt;listing -->
<g id="edge12" class="edge">
<title>security&#45;&gt;listing</title>
<path fill="none" stroke="#64748b" d="M246.95,-134.57C258.16,-126.49 272.19,-117.54 286,-111.77 378.19,-73.3 496.4,-57.41 553.36,-51.65"/>
<polygon fill="#64748b" stroke="#64748b" points="553.93,-54.05 560.65,-50.93 553.45,-49.18 553.93,-54.05"/>
<text text-anchor="middle" x="381" y="-114.37" font-family="Helvetica,sans-Serif" font-size="8.00">fk_listing_security</text>
</g>
<!-- security&#45;&gt;provider_evidence -->
<g id="edge13" class="edge">
<title>security&#45;&gt;provider_evidence</title>
<path fill="none" stroke="#64748b" d="M252.71,-169.71C262.88,-174.87 274.63,-179.93 286,-182.77 688.44,-283.17 1194.56,-249.53 1370.65,-233.34"/>
<polygon fill="#64748b" stroke="#64748b" points="1371.04,-235.76 1377.78,-232.67 1370.58,-230.88 1371.04,-235.76"/>
<text text-anchor="middle" x="821.5" y="-254.37" font-family="Helvetica,sans-Serif" font-size="8.00">fk_provider_evidence_security</text>
</g>
<!-- security&#45;&gt;security_event -->
<g id="edge14" class="edge">
<title>security&#45;&gt;security_event</title>
<path fill="none" stroke="#64748b" d="M252.75,-152.47C375.48,-151.17 856.62,-146.07 1019.36,-144.34"/>
<polygon fill="#64748b" stroke="#64748b" points="1019.43,-146.79 1026.41,-144.27 1019.38,-141.89 1019.43,-146.79"/>
<text text-anchor="middle" x="588" y="-151.37" font-family="Helvetica,sans-Serif" font-size="8.00">fk_security_event_security</text>
</g>
<!-- security_event&#45;&gt;provider_evidence -->
<g id="edge15" class="edge">
<title>security_event&#45;&gt;provider_evidence</title>
<path fill="none" stroke="#64748b" d="M1122.62,-147.17C1177.11,-152 1269.04,-162.93 1345,-185.77 1361.76,-190.81 1379.42,-198.37 1394.59,-205.64"/>
<polygon fill="#64748b" stroke="#64748b" points="1393.57,-207.87 1400.93,-208.73 1395.71,-203.46 1393.57,-207.87"/>
<text text-anchor="middle" x="1275.5" y="-188.37" font-family="Helvetica,sans-Serif" font-size="8.00">fk_provider_evidence_event</text>
</g>
</g>
</svg>
