<?xml version="1.0" encoding="UTF-8" standalone="no"?>
<!DOCTYPE svg PUBLIC "-//W3C//DTD SVG 1.1//EN"
 "http://www.w3.org/Graphics/SVG/1.1/DTD/svg11.dtd">
<!-- Generated by graphviz version 2.42.4 (0)
 -->
<!-- Title: schema_relations Pages: 1 -->
<svg width="1222pt" height="520pt"
 viewBox="0.00 0.00 1222.00 520.00" xmlns="http://www.w3.org/2000/svg" xmlns:xlink="http://www.w3.org/1999/xlink">
<g id="graph0" class="graph" transform="scale(1 1) rotate(0) translate(18 502)">
<title>schema_relations</title>
<!-- issuer -->
<g id="node1" class="node">
<title>issuer</title>
<path fill="#f8fafc" stroke="#334155" d="M42,-302C42,-302 12,-302 12,-302 6,-302 0,-296 0,-290 0,-290 0,-278 0,-278 0,-272 6,-266 12,-266 12,-266 42,-266 42,-266 48,-266 54,-272 54,-278 54,-278 54,-290 54,-290 54,-296 48,-302 42,-302"/>
<text text-anchor="middle" x="27" y="-281.2" font-family="Helvetica,sans-Serif" font-size="11.00">issuer</text>
</g>
<!-- provider_evidence -->
<g id="node4" class="node">
<title>provider_evidence</title>
<path fill="#f8fafc" stroke="#334155" d="M1174,-311C1174,-311 1083,-311 1083,-311 1077,-311 1071,-305 1071,-299 1071,-299 1071,-287 1071,-287 1071,-281 1077,-275 1083,-275 1083,-275 1174,-275 1174,-275 1180,-275 1186,-281 1186,-287 1186,-287 1186,-299 1186,-299 1186,-305 1180,-311 1174,-311"/>
<text text-anchor="middle" x="1128.5" y="-290.2" font-family="Helvetica,sans-Serif" font-size="11.00">provider_evidence</text>
</g>
<!-- issuer&#45;&gt;provider_evidence -->
<g id="edge1" class="edge">
<title>issuer&#45;&gt;provider_evidence</title>
<path fill="none" stroke="#64748b" d="M35.81,-302.31C57.58,-350.12 123.79,-475 221.5,-475 221.5,-475 221.5,-475 801.5,-475 930.33,-475 1055.63,-365.29 1105.22,-316.23"/>
<polygon fill="#64748b" stroke="#64748b" points="1107.11,-317.8 1110.33,-311.12 1103.65,-314.33 1107.11,-317.8"/>
<text text-anchor="middle" x="475.5" y="-477.6" font-family="Helvetica,sans-Serif" font-size="8.00">fk_provider_evidence_issuer</text>
</g>
<!-- security -->
<g id="node6" class="node">
<title>security</title>
<path fill="#f8fafc" stroke="#334155" d="M240,-302C240,-302 205,-302 205,-302 199,-302 193,-296 193,-290 193,-290 193,-278 193,-278 193,-272 199,-266 205,-266 205,-266 240,-266 240,-266 246,-266 252,-272 252,-278 252,-278 252,-290 252,-290 252,-296 246,-302 240,-302"/>
<text text-anchor="middle" x="222.5" y="-281.2" font-family="Helvetica,sans-Serif" font-size="11.00">security</text>
</g>
<!-- issuer&#45;&gt;security -->
<g id="edge2" class="edge">
<title>issuer&#45;&gt;security</title>
<path fill="none" stroke="#64748b" d="M54.1,-284C88.04,-284 147.5,-284 185.66,-284"/>
<polygon fill="#64748b" stroke="#64748b" points="185.99,-286.45 192.99,-284 185.99,-281.55 185.99,-286.45"/>
<text text-anchor="middle" x="123.5" y="-286.6" font-family="Helvetica,sans-Serif" font-size="8.00">fk_security_issuer</text>
</g>
<!-- security_event -->
<g id="node7" class="node">
<title>security_event</title>
<path fill="#f8fafc" stroke="#334155" d="M836.5,-205C836.5,-205 764.5,-205 764.5,-205 758.5,-205 752.5,-199 752.5,-193 752.5,-193 752.5,-181 752.5,-181 752.5,-175 758.5,-169 764.5,-169 764.5,-169 836.5,-169 836.5,-169 842.5,-169 848.5,-175 848.5,-181 848.5,-181 848.5,-193 848.5,-193 848.5,-199 842.5,-205 836.5,-205"/>
<text text-anchor="middle" x="800.5" y="-184.2" font-family="Helvetica,sans-Serif" font-size="11.00">security_event</text>
</g>
<!-- issuer&#45;&gt;security_event -->
<g id="edge3" class="edge">
<title>issuer&#45;&gt;security_event</title>
<path fill="none" stroke="#64748b" d="M54.28,-277.72C86.82,-269.96 143.97,-256.39 193,-245 356.55,-207.01 398.49,-196.57 566,-185 626.3,-180.84 641.56,-184.38 702,-185 715.98,-185.14 731.09,-185.4 745.15,-185.69"/>
<polygon fill="#64748b" stroke="#64748b" points="745.34,-188.14 752.39,-185.84 745.44,-183.24 745.34,-188.14"/>
<text text-anchor="middle" x="335" y="-225.6" font-family="Helvetica,sans-Serif" font-size="8.00">fk_security_event_issuer</text>
</g>
<!-- listing -->
<g id="node2" class="node">
<title>listing</title>
<path fill="#f8fafc" stroke="#334155" d="M490.5,-302C490.5,-302 460.5,-302 460.5,-302 454.5,-302 448.5,-296 448.5,-290 448.5,-290 448.5,-278 448.5,-278 448.5,-272 454.5,-266 460.5,-266 460.5,-266 490.5,-266 490.5,-266 496.5,-266 502.5,-272 502.5,-278 502.5,-278 502.5,-290 502.5,-290 502.5,-296 496.5,-302 490.5,-302"/>
<text text-anchor="middle" x="475.5" y="-281.2" font-family="Helvetica,sans-Serif" font-size="11.00">listing</text>
</g>
<!-- listing&#45;&gt;provider_evidence -->
<g id="edge4" class="edge">
<title>listing&#45;&gt;provider_evidence</title>
<path fill="none" stroke="#64748b" d="M502.83,-284.36C597.71,-285.68 923.86,-290.18 1063.37,-292.11"/>
<polygon fill="#64748b" stroke="#64748b" points="1063.65,-294.57 1070.68,-292.21 1063.72,-289.67 1063.65,-294.57"/>
<text text-anchor="middle" x="800.5" y="-291.6" font-family="Helvetica,sans-Serif" font-size="8.00">fk_provider_evidence_listing</text>
</g>
<!-- listing&#45;&gt;security_event -->
<g id="edge5" class="edge">
<title>listing&#45;&gt;security_event</title>
<path fill="none" stroke="#64748b" d="M502.66,-276.14C555.29,-260.34 674.95,-224.4 745.22,-203.3"/>
<polygon fill="#64748b" stroke="#64748b" points="746.28,-205.54 752.28,-201.18 744.87,-200.85 746.28,-205.54"/>
<text text-anchor="middle" x="634" y="-257.6" font-family="Helvetica,sans-Serif" font-size="8.00">fk_security_event_listing</text>
</g>
<!-- provider -->
<g id="node3" class="node">
<title>provider</title>
<path fill="#f8fafc" stroke="#334155" d="M493.5,-36C493.5,-36 457.5,-36 457.5,-36 451.5,-36 445.5,-30 445.5,-24 445.5,-24 445.5,-12 445.5,-12 445.5,-6 451.5,0 457.5,0 457.5,0 493.5,0 493.5,0 499.5,0 505.5,-6 505.5,-12 505.5,-12 505.5,-24 505.5,-24 505.5,-30 499.5,-36 493.5,-36"/>
<text text-anchor="middle" x="475.5" y="-15.2" font-family="Helvetica,sans-Serif" font-size="11.00">provider</text>
</g>
<!-- provider_observation -->
<g id="node5" class="node">
<title>provider_observation</title>
<path fill="#f8fafc" stroke="#334155" d="M854,-79C854,-79 747,-79 747,-79 741,-79 735,-73 735,-67 735,-67 735,-55 735,-55 735,-49 741,-43 747,-43 747,-43 854,-43 854,-43 860,-43 866,-49 866,-55 866,-55 866,-67 866,-67 866,-73 860,-79 854,-79"/>
<text text-anchor="middle" x="800.5" y="-58.2" font-family="Helvetica,sans-Serif" font-size="11.00">provider_observation</text>
</g>
<!-- provider&#45;&gt;provider_observation -->
<g id="edge6" class="edge">
<title>provider&#45;&gt;provider_observation</title>
<path fill="none" stroke="#64748b" d="M505.79,-13.05C549.26,-6.7 633.1,1.74 702,-14 723.86,-18.99 746.53,-29.55 764.5,-39.39"/>
<polygon fill="#64748b" stroke="#64748b" points="763.6,-41.69 770.9,-42.97 765.99,-37.41 763.6,-41.69"/>
<text text-anchor="middle" x="634" y="-16.6" font-family="Helvetica,sans-Serif" font-size="8.00">fk_provider_observation_provider</text>
</g>
<!-- provider&#45;&gt;security_event -->
<g id="edge7" class="edge">
<title>provider&#45;&gt;security_event</title>
<path fill="none" stroke="#64748b" d="M505.76,-19.07C551.02,-21.93 639.31,-32.45 702,-71 721.54,-83.02 759.7,-132.48 782.04,-162.81"/>
<polygon fill="#64748b" stroke="#64748b" points="780.18,-164.4 786.29,-168.6 784.13,-161.5 780.18,-164.4"/>
<text text-anchor="middle" x="634" y="-73.6" font-family="Helvetica,sans-Serif" font-size="8.00">fk_security_event_provider</text>
</g>
<!-- provider_observation&#45;&gt;provider_evidence -->
<g id="edge8" class="edge">
<title>provider_observation&#45;&gt;provider_evidence</title>
<path fill="none" stroke="#64748b" d="M843.87,-79.11C893.36,-101.43 976.29,-142.53 1038,-192 1066.53,-214.87 1093.53,-247.39 1110.27,-269.29"/>
<polygon fill="#64748b" stroke="#64748b" points="1108.33,-270.79 1114.51,-274.9 1112.24,-267.84 1108.33,-270.79"/>
<text text-anchor="middle" x="968.5" y="-194.6" font-family="Helvetica,sans-Serif" font-size="8.00">fk_provider_evidence_observation</text>
</g>
<!-- security&#45;&gt;listing -->
<g id="edge9" class="edge">
<title>security&#45;&gt;listing</title>
<path fill="none" stroke="#64748b" d="M252.29,-284C299.08,-284 391.37,-284 441.02,-284"/>
<polygon fill="#64748b" stroke="#64748b" points="441.31,-286.45 448.31,-284 441.31,-281.55 441.31,-286.45"/>
<text text-anchor="middle" x="335" y="-286.6" font-family="Helvetica,sans-Serif" font-size="8.00">fk_listing_security</text>
</g>
<!-- security&#45;&gt;provider_evidence -->
<g id="edge10" class="edge">
<title>security&#45;&gt;provider_evidence</title>
<path fill="none" stroke="#64748b" d="M252.05,-293.75C262.35,-297.02 274.11,-300.47 285,-303 343.29,-316.53 358.34,-319.32 418,-324 563.53,-335.42 742.55,-369.27 1038,-322 1049.86,-320.1 1062.3,-316.9 1074,-313.3"/>
<polygon fill="#64748b" stroke="#64748b" points="1074.86,-315.6 1080.79,-311.14 1073.38,-310.93 1074.86,-315.6"/>
<text text-anchor="middle" x="634" y="-347.6" font-family="Helvetica,sans-Serif" font-size="8.00">fk_provider_evidence_security</text>
</g>
<!-- security&#45;&gt;security_event -->
<g id="edge11" class="edge">
<title>security&#45;&gt;security_event</title>
<path fill="none" stroke="#64748b" d="M252.32,-276.05C290.13,-265.8 358.67,-247.91 418,-236 533.59,-212.8 671.2,-198.3 745.48,-191.53"/>
<polygon fill="#64748b" stroke="#64748b" points="745.71,-193.96 752.47,-190.89 745.27,-189.08 745.71,-193.96"/>
<text text-anchor="middle" x="475.5" y="-238.6" font-family="Helvetica,sans-Serif" font-size="8.00">fk_security_event_security</text>
</g>
<!-- security_event&#45;&gt;provider_evidence -->
<g id="edge12" class="edge">
<title>security_event&#45;&gt;provider_evidence</title>
<path fill="none" stroke="#64748b" d="M848.87,-197.63C897.12,-209.02 973.77,-228.64 1038,-252 1053.6,-257.67 1070.24,-264.95 1084.9,-271.78"/>
<polygon fill="#64748b" stroke="#64748b" points="1084.1,-274.12 1091.48,-274.89 1086.19,-269.69 1084.1,-274.12"/>
<text text-anchor="middle" x="968.5" y="-254.6" font-family="Helvetica,sans-Serif" font-size="8.00">fk_provider_evidence_event</text>
</g>
</g>
</svg>
