<?xml version="1.0" encoding="UTF-8" standalone="no"?>
<!DOCTYPE svg PUBLIC "-//W3C//DTD SVG 1.1//EN"
 "http://www.w3.org/Graphics/SVG/1.1/DTD/svg11.dtd">
<!-- Generated by graphviz version 2.42.4 (0)
 -->
<!-- Title: schema_relations Pages: 1 -->
<svg width="2270pt" height="921pt"
 viewBox="0.00 0.00 2270.00 920.69" xmlns="http://www.w3.org/2000/svg" xmlns:xlink="http://www.w3.org/1999/xlink">
<g id="graph0" class="graph" transform="scale(1 1) rotate(0) translate(18 902.69)">
<title>schema_relations</title>
<!-- issuer -->
<g id="node1" class="node">
<title>issuer</title>
<path fill="#f8fafc" stroke="#334155" d="M42,-739.69C42,-739.69 12,-739.69 12,-739.69 6,-739.69 0,-733.69 0,-727.69 0,-727.69 0,-715.69 0,-715.69 0,-709.69 6,-703.69 12,-703.69 12,-703.69 42,-703.69 42,-703.69 48,-703.69 54,-709.69 54,-715.69 54,-715.69 54,-727.69 54,-727.69 54,-733.69 48,-739.69 42,-739.69"/>
<text text-anchor="middle" x="27" y="-718.89" font-family="Helvetica,sans-Serif" font-size="11.00">issuer</text>
</g>
<!-- provider_evidence -->
<g id="node4" class="node">
<title>provider_evidence</title>
<path fill="#f8fafc" stroke="#334155" d="M1607.5,-532.69C1607.5,-532.69 1516.5,-532.69 1516.5,-532.69 1510.5,-532.69 1504.5,-526.69 1504.5,-520.69 1504.5,-520.69 1504.5,-508.69 1504.5,-508.69 1504.5,-502.69 1510.5,-496.69 1516.5,-496.69 1516.5,-496.69 1607.5,-496.69 1607.5,-496.69 1613.5,-496.69 1619.5,-502.69 1619.5,-508.69 1619.5,-508.69 1619.5,-520.69 1619.5,-520.69 1619.5,-526.69 1613.5,-532.69 1607.5,-532.69"/>
<text text-anchor="middle" x="1562" y="-511.89" font-family="Helvetica,sans-Serif" font-size="11.00">provider_evidence</text>
</g>
<!-- issuer&#45;&gt;provider_evidence -->
<g id="edge1" class="edge">
<title>issuer&#45;&gt;provider_evidence</title>
<path fill="none" stroke="#64748b" d="M39.05,-739.96C65.26,-780.76 135.57,-875.69 222,-875.69 222,-875.69 222,-875.69 1075.5,-875.69 1301.73,-875.69 1490.96,-620.14 1545.3,-539.07"/>
<polygon fill="#64748b" stroke="#64748b" points="1547.44,-540.28 1549.27,-533.09 1543.36,-537.56 1547.44,-540.28"/>
<text text-anchor="middle" x="588" y="-878.29" font-family="Helvetica,sans-Serif" font-size="8.00">fk_provider_evidence_issuer</text>
</g>
<!-- security -->
<g id="node8" class="node">
<title>security</title>
<path fill="#f8fafc" stroke="#334155" d="M240.5,-603.69C240.5,-603.69 205.5,-603.69 205.5,-603.69 199.5,-603.69 193.5,-597.69 193.5,-591.69 193.5,-591.69 193.5,-579.69 193.5,-579.69 193.5,-573.69 199.5,-567.69 205.5,-567.69 205.5,-567.69 240.5,-567.69 240.5,-567.69 246.5,-567.69 252.5,-573.69 252.5,-579.69 252.5,-579.69 252.5,-591.69 252.5,-591.69 252.5,-597.69 246.5,-603.69 240.5,-603.69"/>
<text text-anchor="middle" x="223" y="-582.89" font-family="Helvetica,sans-Serif" font-size="11.00">security</text>
</g>
<!-- issuer&#45;&gt;security -->
<g id="edge2" class="edge">
<title>issuer&#45;&gt;security</title>
<path fill="none" stroke="#64748b" d="M53.76,-703.63C88.98,-678.94 152.13,-634.67 190.24,-607.96"/>
<polygon fill="#64748b" stroke="#64748b" points="191.81,-609.85 196.13,-603.83 188.99,-605.84 191.81,-609.85"/>
<text text-anchor="middle" x="123.5" y="-680.29" font-family="Helvetica,sans-Serif" font-size="8.00">fk_security_issuer</text>
</g>
<!-- security_event -->
<g id="node9" class="node">
<title>security_event</title>
<path fill="#f8fafc" stroke="#334155" d="M1110.5,-675.69C1110.5,-675.69 1038.5,-675.69 1038.5,-675.69 1032.5,-675.69 1026.5,-669.69 1026.5,-663.69 1026.5,-663.69 1026.5,-651.69 1026.5,-651.69 1026.5,-645.69 1032.5,-639.69 1038.5,-639.69 1038.5,-639.69 1110.5,-639.69 1110.5,-639.69 1116.5,-639.69 1122.5,-645.69 1122.5,-651.69 1122.5,-651.69 1122.5,-663.69 1122.5,-663.69 1122.5,-669.69 1116.5,-675.69 1110.5,-675.69"/>
<text text-anchor="middle" x="1074.5" y="-654.89" font-family="Helvetica,sans-Serif" font-size="11.00">security_event</text>
</g>
<!-- issuer&#45;&gt;security_event -->
<g id="edge3" class="edge">
<title>issuer&#45;&gt;security_event</title>
<path fill="none" stroke="#64748b" d="M54.15,-724.29C163.74,-734.52 596.51,-768.51 943,-704.69 971.79,-699.39 1002.67,-688.52 1027.15,-678.58"/>
<polygon fill="#64748b" stroke="#64748b" points="1028.35,-680.73 1033.89,-675.8 1026.48,-676.2 1028.35,-680.73"/>
<text text-anchor="middle" x="381" y="-744.29" font-family="Helvetica,sans-Serif" font-size="8.00">fk_security_event_issuer</text>
</g>
<!-- security_reconciliation_evidence -->
<g id="node10" class="node">
<title>security_reconciliation_evidence</title>
<path fill="#f8fafc" stroke="#334155" d="M1158.5,-279.69C1158.5,-279.69 990.5,-279.69 990.5,-279.69 984.5,-279.69 978.5,-273.69 978.5,-267.69 978.5,-267.69 978.5,-255.69 978.5,-255.69 978.5,-249.69 984.5,-243.69 990.5,-243.69 990.5,-243.69 1158.5,-243.69 1158.5,-243.69 1164.5,-243.69 1170.5,-249.69 1170.5,-255.69 1170.5,-255.69 1170.5,-267.69 1170.5,-267.69 1170.5,-273.69 1164.5,-279.69 1158.5,-279.69"/>
<text text-anchor="middle" x="1074.5" y="-258.89" font-family="Helvetica,sans-Serif" font-size="11.00">security_reconciliation_evidence</text>
</g>
<!-- issuer&#45;&gt;security_reconciliation_evidence -->
<g id="edge4" class="edge">
<title>issuer&#45;&gt;security_reconciliation_evidence</title>
<path fill="none" stroke="#64748b" d="M29.08,-703.62C35.23,-619.22 73.49,-262.15 286,-119.69 528.65,42.96 713.74,42.35 943,-138.69 974.48,-163.55 947.72,-194.24 976,-222.69 983.05,-229.78 991.55,-235.63 1000.56,-240.43"/>
<polygon fill="#64748b" stroke="#64748b" points="999.51,-242.65 1006.87,-243.59 1001.71,-238.27 999.51,-242.65"/>
<text text-anchor="middle" x="381" y="-122.29" font-family="Helvetica,sans-Serif" font-size="8.00">fk_sec_recon_evidence_issuer</text>
</g>
<!-- listing -->
<g id="node2" class="node">
<title>listing</title>
<path fill="#f8fafc" stroke="#334155" d="M603,-520.69C603,-520.69 573,-520.69 573,-520.69 567,-520.69 561,-514.69 561,-508.69 561,-508.69 561,-496.69 561,-496.69 561,-490.69 567,-484.69 573,-484.69 573,-484.69 603,-484.69 603,-484.69 609,-484.69 615,-490.69 615,-496.69 615,-496.69 615,-508.69 615,-508.69 615,-514.69 609,-520.69 603,-520.69"/>
<text text-anchor="middle" x="588" y="-499.89" font-family="Helvetica,sans-Serif" font-size="11.00">listing</text>
</g>
<!-- listing&#45;&gt;provider_evidence -->
<g id="edge5" class="edge">
<title>listing&#45;&gt;provider_evidence</title>
<path fill="none" stroke="#64748b" d="M615.2,-502.63C673.9,-502.53 820.4,-502.43 943,-503.69 1145.38,-505.78 1385.01,-510.76 1497.14,-513.24"/>
<polygon fill="#64748b" stroke="#64748b" points="1497.29,-515.7 1504.34,-513.4 1497.4,-510.8 1497.29,-515.7"/>
<text text-anchor="middle" x="1074.5" y="-509.29" font-family="Helvetica,sans-Serif" font-size="8.00">fk_provider_evidence_listing</text>
</g>
<!-- listing&#45;&gt;security_event -->
<g id="edge6" class="edge">
<title>listing&#45;&gt;security_event</title>
<path fill="none" stroke="#64748b" d="M601.62,-520.88C620.06,-545.83 656.87,-589.94 700,-610.69 755.19,-637.25 929.77,-650.11 1019.34,-655.1"/>
<polygon fill="#64748b" stroke="#64748b" points="1019.3,-657.55 1026.42,-655.49 1019.57,-652.66 1019.3,-657.55"/>
<text text-anchor="middle" x="821.5" y="-651.29" font-family="Helvetica,sans-Serif" font-size="8.00">fk_security_event_listing</text>
</g>
<!-- listing&#45;&gt;security_reconciliation_evidence -->
<g id="edge7" class="edge">
<title>listing&#45;&gt;security_reconciliation_evidence</title>
<path fill="none" stroke="#64748b" d="M615.01,-492.09C632.37,-483.68 654.28,-470.24 667,-451.69 706.61,-393.98 647.74,-344.26 700,-297.69 738.85,-263.07 874.66,-257.64 971.29,-258.45"/>
<polygon fill="#64748b" stroke="#64748b" points="971.44,-260.9 978.47,-258.52 971.49,-256 971.44,-260.9"/>
<text text-anchor="middle" x="821.5" y="-300.29" font-family="Helvetica,sans-Serif" font-size="8.00">fk_sec_recon_evidence_listing</text>
</g>
<!-- provider -->
<g id="node3" class="node">
<title>provider</title>
<path fill="#f8fafc" stroke="#334155" d="M241,-355.69C241,-355.69 205,-355.69 205,-355.69 199,-355.69 193,-349.69 193,-343.69 193,-343.69 193,-331.69 193,-331.69 193,-325.69 199,-319.69 205,-319.69 205,-319.69 241,-319.69 241,-319.69 247,-319.69 253,-325.69 253,-331.69 253,-331.69 253,-343.69 253,-343.69 253,-349.69 247,-355.69 241,-355.69"/>
<text text-anchor="middle" x="223" y="-334.89" font-family="Helvetica,sans-Serif" font-size="11.00">provider</text>
</g>
<!-- provider_observation -->
<g id="node5" class="node">
<title>provider_observation</title>
<path fill="#f8fafc" stroke="#334155" d="M1128,-391.69C1128,-391.69 1021,-391.69 1021,-391.69 1015,-391.69 1009,-385.69 1009,-379.69 1009,-379.69 1009,-367.69 1009,-367.69 1009,-361.69 1015,-355.69 1021,-355.69 1021,-355.69 1128,-355.69 1128,-355.69 1134,-355.69 1140,-361.69 1140,-367.69 1140,-367.69 1140,-379.69 1140,-379.69 1140,-385.69 1134,-391.69 1128,-391.69"/>
<text text-anchor="middle" x="1074.5" y="-370.89" font-family="Helvetica,sans-Serif" font-size="11.00">provider_observation</text>
</g>
<!-- provider&#45;&gt;provider_observation -->
<g id="edge8" class="edge">
<title>provider&#45;&gt;provider_observation</title>
<path fill="none" stroke="#64748b" d="M253.24,-339.57C327.72,-344.3 530.68,-356.8 700,-363.69 804.86,-367.96 926.35,-370.83 1001.57,-372.36"/>
<polygon fill="#64748b" stroke="#64748b" points="1001.66,-374.81 1008.71,-372.5 1001.76,-369.91 1001.66,-374.81"/>
<text text-anchor="middle" x="588" y="-364.29" font-family="Helvetica,sans-Serif" font-size="8.00">fk_provider_observation_provider</text>
</g>
<!-- provider_source_snapshot -->
<g id="node6" class="node">
<title>provider_source_snapshot</title>
<path fill="#f8fafc" stroke="#334155" d="M655,-156.69C655,-156.69 521,-156.69 521,-156.69 515,-156.69 509,-150.69 509,-144.69 509,-144.69 509,-132.69 509,-132.69 509,-126.69 515,-120.69 521,-120.69 521,-120.69 655,-120.69 655,-120.69 661,-120.69 667,-126.69 667,-132.69 667,-132.69 667,-144.69 667,-144.69 667,-150.69 661,-156.69 655,-156.69"/>
<text text-anchor="middle" x="588" y="-135.89" font-family="Helvetica,sans-Serif" font-size="11.00">provider_source_snapshot</text>
</g>
<!-- provider&#45;&gt;provider_source_snapshot -->
<g id="edge9" class="edge">
<title>provider&#45;&gt;provider_source_snapshot</title>
<path fill="none" stroke="#64748b" d="M226.92,-319.51C232.66,-289.97 248.31,-231.84 286,-201.69 346.84,-153.02 436.13,-139.37 501.66,-136.63"/>
<polygon fill="#64748b" stroke="#64748b" points="501.82,-139.07 508.73,-136.37 501.64,-134.18 501.82,-139.07"/>
<text text-anchor="middle" x="381" y="-204.29" font-family="Helvetica,sans-Serif" font-size="8.00">provider_source_snapshot_provider_code_fkey</text>
</g>
<!-- provider&#45;&gt;security_event -->
<g id="edge10" class="edge">
<title>provider&#45;&gt;security_event</title>
<path fill="none" stroke="#64748b" d="M246.64,-355.74C257.89,-363.89 272.04,-372.94 286,-378.69 445.67,-444.43 538.82,-339 667,-454.69 703.94,-488.04 663.29,-528.09 700,-561.69 781.47,-636.26 836.5,-584.45 943,-613.69 968.5,-620.69 996.32,-629.86 1019.69,-638.01"/>
<polygon fill="#64748b" stroke="#64748b" points="1019.07,-640.38 1026.48,-640.39 1020.69,-635.76 1019.07,-640.38"/>
<text text-anchor="middle" x="588" y="-457.29" font-family="Helvetica,sans-Serif" font-size="8.00">fk_security_event_provider</text>
</g>
<!-- security_reconciliation_evidence_provider_evidence -->
<g id="node11" class="node">
<title>security_reconciliation_evidence_provider_evidence</title>
<path fill="#f8fafc" stroke="#334155" d="M2222,-332.69C2222,-332.69 1948,-332.69 1948,-332.69 1942,-332.69 1936,-326.69 1936,-320.69 1936,-320.69 1936,-308.69 1936,-308.69 1936,-302.69 1942,-296.69 1948,-296.69 1948,-296.69 2222,-296.69 2222,-296.69 2228,-296.69 2234,-302.69 2234,-308.69 2234,-308.69 2234,-320.69 2234,-320.69 2234,-326.69 2228,-332.69 2222,-332.69"/>
<text text-anchor="middle" x="2085" y="-311.89" font-family="Helvetica,sans-Serif" font-size="11.00">security_reconciliation_evidence_provider_evidence</text>
</g>
<!-- provider_evidence&#45;&gt;security_reconciliation_evidence_provider_evidence -->
<g id="edge11" class="edge">
<title>provider_evidence&#45;&gt;security_reconciliation_evidence_provider_evidence</title>
<path fill="none" stroke="#64748b" d="M1610.15,-496.59C1707.09,-459.38 1928.21,-374.5 2030.4,-335.27"/>
<polygon fill="#64748b" stroke="#64748b" points="2031.3,-337.55 2036.95,-332.75 2029.54,-332.97 2031.3,-337.55"/>
<text text-anchor="middle" x="1821.5" y="-446.29" font-family="Helvetica,sans-Serif" font-size="8.00">fk_sec_recon_evidence_provider_source</text>
</g>
<!-- provider_observation&#45;&gt;provider_evidence -->
<g id="edge12" class="edge">
<title>provider_observation&#45;&gt;provider_evidence</title>
<path fill="none" stroke="#64748b" d="M1140.03,-382.75C1203.17,-392.58 1301.57,-410.45 1384,-436.69 1431.9,-451.94 1484.29,-476.03 1519.56,-493.4"/>
<polygon fill="#64748b" stroke="#64748b" points="1518.57,-495.65 1525.93,-496.56 1520.75,-491.26 1518.57,-495.65"/>
<text text-anchor="middle" x="1295" y="-439.29" font-family="Helvetica,sans-Serif" font-size="8.00">fk_provider_evidence_observation</text>
</g>
<!-- provider_source_snapshot&#45;&gt;provider_observation -->
<g id="edge13" class="edge">
<title>provider_source_snapshot&#45;&gt;provider_observation</title>
<path fill="none" stroke="#64748b" d="M627.9,-156.7C642.02,-164.96 656.95,-176 667,-189.69 698.98,-233.24 659.98,-270.39 700,-306.69 711.13,-316.79 896.32,-346.56 1001.66,-362.81"/>
<polygon fill="#64748b" stroke="#64748b" points="1001.5,-365.26 1008.79,-363.91 1002.25,-360.42 1001.5,-365.26"/>
<text text-anchor="middle" x="821.5" y="-354.29" font-family="Helvetica,sans-Serif" font-size="8.00">provider_observation_source_snapshot_id_fkey</text>
</g>
<!-- provider_source_snapshot_object -->
<g id="node7" class="node">
<title>provider_source_snapshot_object</title>
<path fill="#f8fafc" stroke="#334155" d="M1161,-200.69C1161,-200.69 988,-200.69 988,-200.69 982,-200.69 976,-194.69 976,-188.69 976,-188.69 976,-176.69 976,-176.69 976,-170.69 982,-164.69 988,-164.69 988,-164.69 1161,-164.69 1161,-164.69 1167,-164.69 1173,-170.69 1173,-176.69 1173,-176.69 1173,-188.69 1173,-188.69 1173,-194.69 1167,-200.69 1161,-200.69"/>
<text text-anchor="middle" x="1074.5" y="-179.89" font-family="Helvetica,sans-Serif" font-size="11.00">provider_source_snapshot_object</text>
</g>
<!-- provider_source_snapshot&#45;&gt;provider_source_snapshot_object -->
<g id="edge14" class="edge">
<title>provider_source_snapshot&#45;&gt;provider_source_snapshot_object</title>
<path fill="none" stroke="#64748b" d="M667.11,-145.79C749.02,-153.23 878.2,-164.96 968.88,-173.19"/>
<polygon fill="#64748b" stroke="#64748b" points="968.69,-175.63 975.89,-173.83 969.14,-170.75 968.69,-175.63"/>
<text text-anchor="middle" x="821.5" y="-171.29" font-family="Helvetica,sans-Serif" font-size="8.00">provider_source_snapshot_object_source_snapshot_id_fkey</text>
</g>
<!-- security_reconciliation_evidence_source_snapshot -->
<g id="node12" class="node">
<title>security_reconciliation_evidence_source_snapshot</title>
<path fill="#f8fafc" stroke="#334155" d="M1695,-171.69C1695,-171.69 1429,-171.69 1429,-171.69 1423,-171.69 1417,-165.69 1417,-159.69 1417,-159.69 1417,-147.69 1417,-147.69 1417,-141.69 1423,-135.69 1429,-135.69 1429,-135.69 1695,-135.69 1695,-135.69 1701,-135.69 1707,-141.69 1707,-147.69 1707,-147.69 1707,-159.69 1707,-159.69 1707,-165.69 1701,-171.69 1695,-171.69"/>
<text text-anchor="middle" x="1562" y="-150.89" font-family="Helvetica,sans-Serif" font-size="11.00">security_reconciliation_evidence_source_snapshot</text>
</g>
<!-- provider_source_snapshot&#45;&gt;security_reconciliation_evidence_source_snapshot -->
<g id="edge15" class="edge">
<title>provider_source_snapshot&#45;&gt;security_reconciliation_evidence_source_snapshot</title>
<path fill="none" stroke="#64748b" d="M667.42,-136.6C779.52,-133.96 992.07,-130.27 1173,-134.69 1251.06,-136.6 1337.87,-140.67 1409.55,-144.56"/>
<polygon fill="#64748b" stroke="#64748b" points="1409.76,-147.02 1416.88,-144.95 1410.02,-142.13 1409.76,-147.02"/>
<text text-anchor="middle" x="1074.5" y="-137.29" font-family="Helvetica,sans-Serif" font-size="8.00">fk_sec_recon_evidence_snapshot_source</text>
</g>
<!-- security&#45;&gt;listing -->
<g id="edge16" class="edge">
<title>security&#45;&gt;listing</title>
<path fill="none" stroke="#64748b" d="M246.21,-567.49C257.47,-559.21 271.76,-550.08 286,-544.69 378.34,-509.78 496.49,-503.47 553.39,-502.6"/>
<polygon fill="#64748b" stroke="#64748b" points="553.71,-505.04 560.68,-502.51 553.65,-500.14 553.71,-505.04"/>
<text text-anchor="middle" x="381" y="-547.29" font-family="Helvetica,sans-Serif" font-size="8.00">fk_listing_security</text>
</g>
<!-- security&#45;&gt;provider_evidence -->
<g id="edge17" class="edge">
<title>security&#45;&gt;provider_evidence</title>
<path fill="none" stroke="#64748b" d="M252.7,-584.32C383.13,-578.05 933.02,-551.37 1384,-525.69 1421.59,-523.55 1463.66,-520.95 1497.36,-518.81"/>
<polygon fill="#64748b" stroke="#64748b" points="1497.58,-521.25 1504.41,-518.36 1497.27,-516.36 1497.58,-521.25"/>
<text text-anchor="middle" x="821.5" y="-564.29" font-family="Helvetica,sans-Serif" font-size="8.00">fk_provider_evidence_security</text>
</g>
<!-- security&#45;&gt;security_event -->
<g id="edge18" class="edge">
<title>security&#45;&gt;security_event</title>
<path fill="none" stroke="#64748b" d="M252.73,-603.23C262.91,-608.7 274.65,-614.2 286,-617.69 565.91,-703.77 650.37,-678.89 943,-667.69 968.1,-666.73 995.87,-664.74 1019.31,-662.78"/>
<polygon fill="#64748b" stroke="#64748b" points="1019.67,-665.21 1026.43,-662.17 1019.25,-660.32 1019.67,-665.21"/>
<text text-anchor="middle" x="588" y="-682.29" font-family="Helvetica,sans-Serif" font-size="8.00">fk_security_event_security</text>
</g>
<!-- security&#45;&gt;security_reconciliation_evidence -->
<g id="edge19" class="edge">
<title>security&#45;&gt;security_reconciliation_evidence</title>
<path fill="none" stroke="#64748b" d="M234.09,-567.67C245.25,-548.7 264.51,-518.61 286,-496.69 435.52,-344.18 490.8,-295.7 700,-252.69 790.32,-234.12 895.51,-238.95 971.2,-246.92"/>
<polygon fill="#64748b" stroke="#64748b" points="971.21,-249.39 978.43,-247.7 971.73,-244.52 971.21,-249.39"/>
<text text-anchor="middle" x="588" y="-313.29" font-family="Helvetica,sans-Serif" font-size="8.00">fk_sec_recon_evidence_security</text>
</g>
<!-- security_event&#45;&gt;provider_evidence -->
<g id="edge20" class="edge">
<title>security_event&#45;&gt;provider_evidence</title>
<path fill="none" stroke="#64748b" d="M1122.56,-648.49C1183.52,-636.09 1292.81,-612.26 1384,-583.69 1428.26,-569.83 1477.3,-550.38 1512.52,-535.66"/>
<polygon fill="#64748b" stroke="#64748b" points="1513.87,-537.75 1519.37,-532.78 1511.97,-533.23 1513.87,-537.75"/>
<text text-anchor="middle" x="1295" y="-632.29" font-family="Helvetica,sans-Serif" font-size="8.00">fk_provider_evidence_event</text>
</g>
<!-- security_reconciliation_evidence&#45;&gt;security_reconciliation_evidence_provider_evidence -->
<g id="edge21" class="edge">
<title>security_reconciliation_evidence&#45;&gt;security_reconciliation_evidence_provider_evidence</title>
<path fill="none" stroke="#64748b" d="M1170.83,-266.7C1345.24,-275.87 1717.19,-295.42 1928.62,-306.53"/>
<polygon fill="#64748b" stroke="#64748b" points="1928.64,-308.98 1935.76,-306.9 1928.9,-304.09 1928.64,-308.98"/>
<text text-anchor="middle" x="1562" y="-296.29" font-family="Helvetica,sans-Serif" font-size="8.00">fk_sec_recon_evidence_provider_evidence</text>
</g>
<!-- security_reconciliation_evidence&#45;&gt;security_reconciliation_evidence_source_snapshot -->
<g id="edge22" class="edge">
<title>security_reconciliation_evidence&#45;&gt;security_reconciliation_evidence_source_snapshot</title>
<path fill="none" stroke="#64748b" d="M1156.49,-243.68C1243.92,-224.23 1382.72,-193.35 1472.84,-173.3"/>
<polygon fill="#64748b" stroke="#64748b" points="1473.48,-175.67 1479.78,-171.76 1472.42,-170.89 1473.48,-175.67"/>
<text text-anchor="middle" x="1295" y="-232.29" font-family="Helvetica,sans-Serif" font-size="8.00">fk_sec_recon_evidence_snapshot_evidence</text>
</g>
</g>
</svg>
