<?xml version="1.0" encoding="UTF-8" standalone="no"?>
<!DOCTYPE svg PUBLIC "-//W3C//DTD SVG 1.1//EN"
 "http://www.w3.org/Graphics/SVG/1.1/DTD/svg11.dtd">
<!-- Generated by graphviz version 2.42.4 (0)
 -->
<!-- Title: ERD Pages: 1 -->
<svg width="674pt" height="1452pt"
 viewBox="0.00 0.00 673.62 1452.00" xmlns="http://www.w3.org/2000/svg" xmlns:xlink="http://www.w3.org/1999/xlink">
<g id="graph0" class="graph" transform="scale(1 1) rotate(0) translate(4 1448)">
<title>ERD</title>
<polygon fill="white" stroke="transparent" points="-4,4 -4,-1448 669.62,-1448 669.62,4 -4,4"/>
<!-- issuer -->
<g id="node1" class="node">
<title>issuer</title>
<polygon fill="lightblue" stroke="transparent" points="125.96,-224 125.96,-244 316.96,-244 316.96,-224 125.96,-224"/>
<polygon fill="none" stroke="black" points="125.96,-224 125.96,-244 316.96,-244 316.96,-224 125.96,-224"/>
<text text-anchor="start" x="205.96" y="-232.8" font-family="Verdana" font-weight="bold" font-size="9.00">issuer</text>
<polygon fill="none" stroke="black" points="125.96,-204 125.96,-224 316.96,-224 316.96,-204 125.96,-204"/>
<text text-anchor="start" x="130.96" y="-212.8" font-family="Verdana" font-weight="bold" font-size="9.00">issuer_id</text>
<text text-anchor="start" x="176.96" y="-212.8" font-family="Verdana" font-size="9.00">: </text>
<text text-anchor="start" x="183.96" y="-212.8" font-family="Verdana" font-style="italic" font-size="9.00">UUID &#160;NOT NULL</text>
<polygon fill="none" stroke="black" points="125.96,-184 125.96,-204 316.96,-204 316.96,-184 125.96,-184"/>
<text text-anchor="start" x="130.96" y="-192.8" font-family="Verdana" font-weight="bold" font-size="9.00">cik</text>
<text text-anchor="start" x="145.96" y="-192.8" font-family="Verdana" font-size="9.00">: </text>
<text text-anchor="start" x="152.96" y="-192.8" font-family="Verdana" font-style="italic" font-size="9.00">VARCHAR(10) </text>
<polygon fill="none" stroke="black" points="125.96,-164 125.96,-184 316.96,-184 316.96,-164 125.96,-164"/>
<text text-anchor="start" x="130.96" y="-172.8" font-family="Verdana" font-weight="bold" font-size="9.00">issuer_type</text>
<text text-anchor="start" x="189.96" y="-172.8" font-family="Verdana" font-size="9.00">: </text>
<text text-anchor="start" x="196.96" y="-172.8" font-family="Verdana" font-style="italic" font-size="9.00">VARCHAR(32) &#160;NOT NULL</text>
<polygon fill="none" stroke="black" points="125.96,-144 125.96,-164 316.96,-164 316.96,-144 125.96,-144"/>
<text text-anchor="start" x="130.96" y="-152.8" font-family="Verdana" font-weight="bold" font-size="9.00">current_name</text>
<text text-anchor="start" x="202.96" y="-152.8" font-family="Verdana" font-size="9.00">: </text>
<text text-anchor="start" x="209.96" y="-152.8" font-family="Verdana" font-style="italic" font-size="9.00">TEXT &#160;NOT NULL</text>
<polygon fill="none" stroke="black" points="125.96,-124 125.96,-144 316.96,-144 316.96,-124 125.96,-124"/>
<text text-anchor="start" x="130.96" y="-132.8" font-family="Verdana" font-weight="bold" font-size="9.00">country_alpha2</text>
<text text-anchor="start" x="209.96" y="-132.8" font-family="Verdana" font-size="9.00">: </text>
<text text-anchor="start" x="216.96" y="-132.8" font-family="Verdana" font-style="italic" font-size="9.00">VARCHAR(2) </text>
<polygon fill="none" stroke="black" points="125.96,-104 125.96,-124 316.96,-124 316.96,-104 125.96,-104"/>
<text text-anchor="start" x="130.96" y="-112.8" font-family="Verdana" font-weight="bold" font-size="9.00">sic_code</text>
<text text-anchor="start" x="173.96" y="-112.8" font-family="Verdana" font-size="9.00">: </text>
<text text-anchor="start" x="180.96" y="-112.8" font-family="Verdana" font-style="italic" font-size="9.00">VARCHAR(4) </text>
<polygon fill="none" stroke="black" points="125.96,-84 125.96,-104 316.96,-104 316.96,-84 125.96,-84"/>
<text text-anchor="start" x="130.96" y="-92.8" font-family="Verdana" font-weight="bold" font-size="9.00">status</text>
<text text-anchor="start" x="163.96" y="-92.8" font-family="Verdana" font-size="9.00">: </text>
<text text-anchor="start" x="170.96" y="-92.8" font-family="Verdana" font-style="italic" font-size="9.00">VARCHAR(24) &#160;NOT NULL</text>
<polygon fill="none" stroke="black" points="125.96,-64 125.96,-84 316.96,-84 316.96,-64 125.96,-64"/>
<text text-anchor="start" x="130.96" y="-72.8" font-family="Verdana" font-weight="bold" font-size="9.00">first_seen</text>
<text text-anchor="start" x="180.96" y="-72.8" font-family="Verdana" font-size="9.00">: </text>
<text text-anchor="start" x="187.96" y="-72.8" font-family="Verdana" font-style="italic" font-size="9.00">DATE </text>
<polygon fill="none" stroke="black" points="125.96,-44 125.96,-64 316.96,-64 316.96,-44 125.96,-44"/>
<text text-anchor="start" x="130.96" y="-52.8" font-family="Verdana" font-weight="bold" font-size="9.00">last_seen</text>
<text text-anchor="start" x="178.96" y="-52.8" font-family="Verdana" font-size="9.00">: </text>
<text text-anchor="start" x="185.96" y="-52.8" font-family="Verdana" font-style="italic" font-size="9.00">DATE </text>
<polygon fill="none" stroke="black" points="125.96,-24 125.96,-44 316.96,-44 316.96,-24 125.96,-24"/>
<text text-anchor="start" x="130.96" y="-32.8" font-family="Verdana" font-weight="bold" font-size="9.00">created_at</text>
<text text-anchor="start" x="185.96" y="-32.8" font-family="Verdana" font-size="9.00">: </text>
<text text-anchor="start" x="192.96" y="-32.8" font-family="Verdana" font-style="italic" font-size="9.00">TIMESTAMPTZ &#160;NOT NULL</text>
<polygon fill="none" stroke="black" points="125.96,-4 125.96,-24 316.96,-24 316.96,-4 125.96,-4"/>
<text text-anchor="start" x="130.96" y="-12.8" font-family="Verdana" font-weight="bold" font-size="9.00">updated_at</text>
<text text-anchor="start" x="189.96" y="-12.8" font-family="Verdana" font-size="9.00">: </text>
<text text-anchor="start" x="196.96" y="-12.8" font-family="Verdana" font-style="italic" font-size="9.00">TIMESTAMPTZ &#160;NOT NULL</text>
</g>
<!-- listing -->
<g id="node2" class="node">
<title>listing</title>
<polygon fill="lightblue" stroke="transparent" points="125.96,-852 125.96,-872 316.96,-872 316.96,-852 125.96,-852"/>
<polygon fill="none" stroke="black" points="125.96,-852 125.96,-872 316.96,-872 316.96,-852 125.96,-852"/>
<text text-anchor="start" x="204.96" y="-860.8" font-family="Verdana" font-weight="bold" font-size="9.00">listing</text>
<polygon fill="none" stroke="black" points="125.96,-832 125.96,-852 316.96,-852 316.96,-832 125.96,-832"/>
<text text-anchor="start" x="130.96" y="-840.8" font-family="Verdana" font-weight="bold" font-size="9.00">listing_id</text>
<text text-anchor="start" x="177.96" y="-840.8" font-family="Verdana" font-size="9.00">: </text>
<text text-anchor="start" x="184.96" y="-840.8" font-family="Verdana" font-style="italic" font-size="9.00">UUID &#160;NOT NULL</text>
<polygon fill="none" stroke="black" points="125.96,-812 125.96,-832 316.96,-832 316.96,-812 125.96,-812"/>
<text text-anchor="start" x="130.96" y="-820.8" font-family="Verdana" font-weight="bold" font-size="9.00">security_id</text>
<text text-anchor="start" x="186.96" y="-820.8" font-family="Verdana" font-size="9.00">: </text>
<text text-anchor="start" x="193.96" y="-820.8" font-family="Verdana" font-style="italic" font-size="9.00">UUID &#160;NOT NULL</text>
<polygon fill="none" stroke="black" points="125.96,-792 125.96,-812 316.96,-812 316.96,-792 125.96,-792"/>
<text text-anchor="start" x="130.96" y="-800.8" font-family="Verdana" font-weight="bold" font-size="9.00">exchange_id</text>
<text text-anchor="start" x="194.96" y="-800.8" font-family="Verdana" font-size="9.00">: </text>
<text text-anchor="start" x="201.96" y="-800.8" font-family="Verdana" font-style="italic" font-size="9.00">UUID &#160;NOT NULL</text>
<polygon fill="none" stroke="black" points="125.96,-772 125.96,-792 316.96,-792 316.96,-772 125.96,-772"/>
<text text-anchor="start" x="130.96" y="-780.8" font-family="Verdana" font-weight="bold" font-size="9.00">current_ticker</text>
<text text-anchor="start" x="203.96" y="-780.8" font-family="Verdana" font-size="9.00">: </text>
<text text-anchor="start" x="210.96" y="-780.8" font-family="Verdana" font-style="italic" font-size="9.00">TEXT </text>
<polygon fill="none" stroke="black" points="125.96,-752 125.96,-772 316.96,-772 316.96,-752 125.96,-752"/>
<text text-anchor="start" x="130.96" y="-760.8" font-family="Verdana" font-weight="bold" font-size="9.00">ticker_norm</text>
<text text-anchor="start" x="191.96" y="-760.8" font-family="Verdana" font-size="9.00">: </text>
<text text-anchor="start" x="198.96" y="-760.8" font-family="Verdana" font-style="italic" font-size="9.00">TEXT </text>
<polygon fill="none" stroke="black" points="125.96,-732 125.96,-752 316.96,-752 316.96,-732 125.96,-732"/>
<text text-anchor="start" x="130.96" y="-740.8" font-family="Verdana" font-weight="bold" font-size="9.00">currency_code</text>
<text text-anchor="start" x="204.96" y="-740.8" font-family="Verdana" font-size="9.00">: </text>
<text text-anchor="start" x="211.96" y="-740.8" font-family="Verdana" font-style="italic" font-size="9.00">VARCHAR(3) </text>
<polygon fill="none" stroke="black" points="125.96,-712 125.96,-732 316.96,-732 316.96,-712 125.96,-712"/>
<text text-anchor="start" x="130.96" y="-720.8" font-family="Verdana" font-weight="bold" font-size="9.00">is_primary</text>
<text text-anchor="start" x="184.96" y="-720.8" font-family="Verdana" font-size="9.00">: </text>
<text text-anchor="start" x="191.96" y="-720.8" font-family="Verdana" font-style="italic" font-size="9.00">BOOLEAN &#160;NOT NULL</text>
<polygon fill="none" stroke="black" points="125.96,-692 125.96,-712 316.96,-712 316.96,-692 125.96,-692"/>
<text text-anchor="start" x="130.96" y="-700.8" font-family="Verdana" font-weight="bold" font-size="9.00">status</text>
<text text-anchor="start" x="163.96" y="-700.8" font-family="Verdana" font-size="9.00">: </text>
<text text-anchor="start" x="170.96" y="-700.8" font-family="Verdana" font-style="italic" font-size="9.00">VARCHAR(32) &#160;NOT NULL</text>
<polygon fill="none" stroke="black" points="125.96,-672 125.96,-692 316.96,-692 316.96,-672 125.96,-672"/>
<text text-anchor="start" x="130.96" y="-680.8" font-family="Verdana" font-weight="bold" font-size="9.00">valid_from</text>
<text text-anchor="start" x="184.96" y="-680.8" font-family="Verdana" font-size="9.00">: </text>
<text text-anchor="start" x="191.96" y="-680.8" font-family="Verdana" font-style="italic" font-size="9.00">DATE </text>
<polygon fill="none" stroke="black" points="125.96,-652 125.96,-672 316.96,-672 316.96,-652 125.96,-652"/>
<text text-anchor="start" x="130.96" y="-660.8" font-family="Verdana" font-weight="bold" font-size="9.00">valid_to</text>
<text text-anchor="start" x="170.96" y="-660.8" font-family="Verdana" font-size="9.00">: </text>
<text text-anchor="start" x="177.96" y="-660.8" font-family="Verdana" font-style="italic" font-size="9.00">DATE </text>
<polygon fill="none" stroke="black" points="125.96,-632 125.96,-652 316.96,-652 316.96,-632 125.96,-632"/>
<text text-anchor="start" x="130.96" y="-640.8" font-family="Verdana" font-weight="bold" font-size="9.00">first_seen</text>
<text text-anchor="start" x="180.96" y="-640.8" font-family="Verdana" font-size="9.00">: </text>
<text text-anchor="start" x="187.96" y="-640.8" font-family="Verdana" font-style="italic" font-size="9.00">DATE </text>
<polygon fill="none" stroke="black" points="125.96,-612 125.96,-632 316.96,-632 316.96,-612 125.96,-612"/>
<text text-anchor="start" x="130.96" y="-620.8" font-family="Verdana" font-weight="bold" font-size="9.00">last_seen</text>
<text text-anchor="start" x="178.96" y="-620.8" font-family="Verdana" font-size="9.00">: </text>
<text text-anchor="start" x="185.96" y="-620.8" font-family="Verdana" font-style="italic" font-size="9.00">DATE </text>
<polygon fill="none" stroke="black" points="125.96,-592 125.96,-612 316.96,-612 316.96,-592 125.96,-592"/>
<text text-anchor="start" x="130.96" y="-600.8" font-family="Verdana" font-weight="bold" font-size="9.00">created_at</text>
<text text-anchor="start" x="185.96" y="-600.8" font-family="Verdana" font-size="9.00">: </text>
<text text-anchor="start" x="192.96" y="-600.8" font-family="Verdana" font-style="italic" font-size="9.00">TIMESTAMPTZ &#160;NOT NULL</text>
<polygon fill="none" stroke="black" points="125.96,-572 125.96,-592 316.96,-592 316.96,-572 125.96,-572"/>
<text text-anchor="start" x="130.96" y="-580.8" font-family="Verdana" font-weight="bold" font-size="9.00">updated_at</text>
<text text-anchor="start" x="189.96" y="-580.8" font-family="Verdana" font-size="9.00">: </text>
<text text-anchor="start" x="196.96" y="-580.8" font-family="Verdana" font-style="italic" font-size="9.00">TIMESTAMPTZ &#160;NOT NULL</text>
</g>
<!-- security -->
<g id="node6" class="node">
<title>security</title>
<polygon fill="lightblue" stroke="transparent" points="98.96,-508 98.96,-528 344.96,-528 344.96,-508 98.96,-508"/>
<polygon fill="none" stroke="black" points="98.96,-508 98.96,-528 344.96,-528 344.96,-508 98.96,-508"/>
<text text-anchor="start" x="200.96" y="-516.8" font-family="Verdana" font-weight="bold" font-size="9.00">security</text>
<polygon fill="none" stroke="black" points="98.96,-488 98.96,-508 344.96,-508 344.96,-488 98.96,-488"/>
<text text-anchor="start" x="103.96" y="-496.8" font-family="Verdana" font-weight="bold" font-size="9.00">security_id</text>
<text text-anchor="start" x="159.96" y="-496.8" font-family="Verdana" font-size="9.00">: </text>
<text text-anchor="start" x="166.96" y="-496.8" font-family="Verdana" font-style="italic" font-size="9.00">UUID &#160;NOT NULL</text>
<polygon fill="none" stroke="black" points="98.96,-468 98.96,-488 344.96,-488 344.96,-468 98.96,-468"/>
<text text-anchor="start" x="103.96" y="-476.8" font-family="Verdana" font-weight="bold" font-size="9.00">issuer_id</text>
<text text-anchor="start" x="149.96" y="-476.8" font-family="Verdana" font-size="9.00">: </text>
<text text-anchor="start" x="156.96" y="-476.8" font-family="Verdana" font-style="italic" font-size="9.00">UUID </text>
<polygon fill="none" stroke="black" points="98.96,-448 98.96,-468 344.96,-468 344.96,-448 98.96,-448"/>
<text text-anchor="start" x="103.96" y="-456.8" font-family="Verdana" font-weight="bold" font-size="9.00">instrument_type_code</text>
<text text-anchor="start" x="218.96" y="-456.8" font-family="Verdana" font-size="9.00">: </text>
<text text-anchor="start" x="225.96" y="-456.8" font-family="Verdana" font-style="italic" font-size="9.00">VARCHAR(32) &#160;NOT NULL</text>
<polygon fill="none" stroke="black" points="98.96,-428 98.96,-448 344.96,-448 344.96,-428 98.96,-428"/>
<text text-anchor="start" x="103.96" y="-436.8" font-family="Verdana" font-weight="bold" font-size="9.00">security_title</text>
<text text-anchor="start" x="170.96" y="-436.8" font-family="Verdana" font-size="9.00">: </text>
<text text-anchor="start" x="177.96" y="-436.8" font-family="Verdana" font-style="italic" font-size="9.00">TEXT &#160;NOT NULL</text>
<polygon fill="none" stroke="black" points="98.96,-408 98.96,-428 344.96,-428 344.96,-408 98.96,-408"/>
<text text-anchor="start" x="103.96" y="-416.8" font-family="Verdana" font-weight="bold" font-size="9.00">share_class</text>
<text text-anchor="start" x="161.96" y="-416.8" font-family="Verdana" font-size="9.00">: </text>
<text text-anchor="start" x="168.96" y="-416.8" font-family="Verdana" font-style="italic" font-size="9.00">TEXT </text>
<polygon fill="none" stroke="black" points="98.96,-388 98.96,-408 344.96,-408 344.96,-388 98.96,-388"/>
<text text-anchor="start" x="103.96" y="-396.8" font-family="Verdana" font-weight="bold" font-size="9.00">currency_code</text>
<text text-anchor="start" x="177.96" y="-396.8" font-family="Verdana" font-size="9.00">: </text>
<text text-anchor="start" x="184.96" y="-396.8" font-family="Verdana" font-style="italic" font-size="9.00">VARCHAR(3) </text>
<polygon fill="none" stroke="black" points="98.96,-368 98.96,-388 344.96,-388 344.96,-368 98.96,-368"/>
<text text-anchor="start" x="103.96" y="-376.8" font-family="Verdana" font-weight="bold" font-size="9.00">status</text>
<text text-anchor="start" x="136.96" y="-376.8" font-family="Verdana" font-size="9.00">: </text>
<text text-anchor="start" x="143.96" y="-376.8" font-family="Verdana" font-style="italic" font-size="9.00">VARCHAR(24) &#160;NOT NULL</text>
<polygon fill="none" stroke="black" points="98.96,-348 98.96,-368 344.96,-368 344.96,-348 98.96,-348"/>
<text text-anchor="start" x="103.96" y="-356.8" font-family="Verdana" font-weight="bold" font-size="9.00">first_seen</text>
<text text-anchor="start" x="153.96" y="-356.8" font-family="Verdana" font-size="9.00">: </text>
<text text-anchor="start" x="160.96" y="-356.8" font-family="Verdana" font-style="italic" font-size="9.00">DATE </text>
<polygon fill="none" stroke="black" points="98.96,-328 98.96,-348 344.96,-348 344.96,-328 98.96,-328"/>
<text text-anchor="start" x="103.96" y="-336.8" font-family="Verdana" font-weight="bold" font-size="9.00">last_seen</text>
<text text-anchor="start" x="151.96" y="-336.8" font-family="Verdana" font-size="9.00">: </text>
<text text-anchor="start" x="158.96" y="-336.8" font-family="Verdana" font-style="italic" font-size="9.00">DATE </text>
<polygon fill="none" stroke="black" points="98.96,-308 98.96,-328 344.96,-328 344.96,-308 98.96,-308"/>
<text text-anchor="start" x="103.96" y="-316.8" font-family="Verdana" font-weight="bold" font-size="9.00">created_at</text>
<text text-anchor="start" x="158.96" y="-316.8" font-family="Verdana" font-size="9.00">: </text>
<text text-anchor="start" x="165.96" y="-316.8" font-family="Verdana" font-style="italic" font-size="9.00">TIMESTAMPTZ &#160;NOT NULL</text>
<polygon fill="none" stroke="black" points="98.96,-288 98.96,-308 344.96,-308 344.96,-288 98.96,-288"/>
<text text-anchor="start" x="103.96" y="-296.8" font-family="Verdana" font-weight="bold" font-size="9.00">updated_at</text>
<text text-anchor="start" x="162.96" y="-296.8" font-family="Verdana" font-size="9.00">: </text>
<text text-anchor="start" x="169.96" y="-296.8" font-family="Verdana" font-style="italic" font-size="9.00">TIMESTAMPTZ &#160;NOT NULL</text>
</g>
<!-- listing&#45;&gt;security -->
<g id="edge1" class="edge">
<title>listing:security_id&#45;&gt;security:security_id</title>
<path fill="none" stroke="black" d="M317.96,-822C332.07,-822 326.11,-578.74 316.96,-568 253.28,-493.24 163.58,-605.94 98.96,-532 92.12,-524.17 87.07,-511.04 89.49,-503.59"/>
<polygon fill="black" stroke="black" points="91.54,-506.43 97.96,-498 87.69,-500.59 91.54,-506.43"/>
</g>
<!-- provider -->
<g id="node3" class="node">
<title>provider</title>
<polygon fill="lightblue" stroke="transparent" points="350.96,-772 350.96,-792 554.96,-792 554.96,-772 350.96,-772"/>
<polygon fill="none" stroke="black" points="350.96,-772 350.96,-792 554.96,-792 554.96,-772 350.96,-772"/>
<text text-anchor="start" x="430.96" y="-780.8" font-family="Verdana" font-weight="bold" font-size="9.00">provider</text>
<polygon fill="none" stroke="black" points="350.96,-752 350.96,-772 554.96,-772 554.96,-752 350.96,-752"/>
<text text-anchor="start" x="355.96" y="-760.8" font-family="Verdana" font-weight="bold" font-size="9.00">provider_code</text>
<text text-anchor="start" x="428.96" y="-760.8" font-family="Verdana" font-size="9.00">: </text>
<text text-anchor="start" x="435.96" y="-760.8" font-family="Verdana" font-style="italic" font-size="9.00">VARCHAR(32) &#160;NOT NULL</text>
<polygon fill="none" stroke="black" points="350.96,-732 350.96,-752 554.96,-752 554.96,-732 350.96,-732"/>
<text text-anchor="start" x="355.96" y="-740.8" font-family="Verdana" font-weight="bold" font-size="9.00">provider_name</text>
<text text-anchor="start" x="432.96" y="-740.8" font-family="Verdana" font-size="9.00">: </text>
<text text-anchor="start" x="439.96" y="-740.8" font-family="Verdana" font-style="italic" font-size="9.00">TEXT &#160;NOT NULL</text>
<polygon fill="none" stroke="black" points="350.96,-712 350.96,-732 554.96,-732 554.96,-712 350.96,-712"/>
<text text-anchor="start" x="355.96" y="-720.8" font-family="Verdana" font-weight="bold" font-size="9.00">provider_type</text>
<text text-anchor="start" x="427.96" y="-720.8" font-family="Verdana" font-size="9.00">: </text>
<text text-anchor="start" x="434.96" y="-720.8" font-family="Verdana" font-style="italic" font-size="9.00">VARCHAR(32) &#160;NOT NULL</text>
<polygon fill="none" stroke="black" points="350.96,-692 350.96,-712 554.96,-712 554.96,-692 350.96,-692"/>
<text text-anchor="start" x="355.96" y="-700.8" font-family="Verdana" font-weight="bold" font-size="9.00">website</text>
<text text-anchor="start" x="395.96" y="-700.8" font-family="Verdana" font-size="9.00">: </text>
<text text-anchor="start" x="402.96" y="-700.8" font-family="Verdana" font-style="italic" font-size="9.00">TEXT </text>
<polygon fill="none" stroke="black" points="350.96,-672 350.96,-692 554.96,-692 554.96,-672 350.96,-672"/>
<text text-anchor="start" x="355.96" y="-680.8" font-family="Verdana" font-weight="bold" font-size="9.00">description</text>
<text text-anchor="start" x="413.96" y="-680.8" font-family="Verdana" font-size="9.00">: </text>
<text text-anchor="start" x="420.96" y="-680.8" font-family="Verdana" font-style="italic" font-size="9.00">TEXT </text>
<polygon fill="none" stroke="black" points="350.96,-652 350.96,-672 554.96,-672 554.96,-652 350.96,-652"/>
<text text-anchor="start" x="355.96" y="-660.8" font-family="Verdana" font-weight="bold" font-size="9.00">is_active</text>
<text text-anchor="start" x="399.96" y="-660.8" font-family="Verdana" font-size="9.00">: </text>
<text text-anchor="start" x="406.96" y="-660.8" font-family="Verdana" font-style="italic" font-size="9.00">BOOLEAN &#160;NOT NULL</text>
</g>
<!-- provider_evidence -->
<g id="node4" class="node">
<title>provider_evidence</title>
<polygon fill="lightblue" stroke="transparent" points="337.96,-1420 337.96,-1440 554.96,-1440 554.96,-1420 337.96,-1420"/>
<polygon fill="none" stroke="black" points="337.96,-1420 337.96,-1440 554.96,-1440 554.96,-1420 337.96,-1420"/>
<text text-anchor="start" x="399.46" y="-1428.8" font-family="Verdana" font-weight="bold" font-size="9.00">provider_evidence</text>
<polygon fill="none" stroke="black" points="337.96,-1400 337.96,-1420 554.96,-1420 554.96,-1400 337.96,-1400"/>
<text text-anchor="start" x="342.96" y="-1408.8" font-family="Verdana" font-weight="bold" font-size="9.00">provider_evidence_id</text>
<text text-anchor="start" x="451.96" y="-1408.8" font-family="Verdana" font-size="9.00">: </text>
<text text-anchor="start" x="458.96" y="-1408.8" font-family="Verdana" font-style="italic" font-size="9.00">UUID &#160;NOT NULL</text>
<polygon fill="none" stroke="black" points="337.96,-1380 337.96,-1400 554.96,-1400 554.96,-1380 337.96,-1380"/>
<text text-anchor="start" x="342.96" y="-1388.8" font-family="Verdana" font-weight="bold" font-size="9.00">provider_observation_id</text>
<text text-anchor="start" x="466.96" y="-1388.8" font-family="Verdana" font-size="9.00">: </text>
<text text-anchor="start" x="473.96" y="-1388.8" font-family="Verdana" font-style="italic" font-size="9.00">UUID &#160;NOT NULL</text>
<polygon fill="none" stroke="black" points="337.96,-1360 337.96,-1380 554.96,-1380 554.96,-1360 337.96,-1360"/>
<text text-anchor="start" x="342.96" y="-1368.8" font-family="Verdana" font-weight="bold" font-size="9.00">issuer_id</text>
<text text-anchor="start" x="388.96" y="-1368.8" font-family="Verdana" font-size="9.00">: </text>
<text text-anchor="start" x="395.96" y="-1368.8" font-family="Verdana" font-style="italic" font-size="9.00">UUID </text>
<polygon fill="none" stroke="black" points="337.96,-1340 337.96,-1360 554.96,-1360 554.96,-1340 337.96,-1340"/>
<text text-anchor="start" x="342.96" y="-1348.8" font-family="Verdana" font-weight="bold" font-size="9.00">security_id</text>
<text text-anchor="start" x="398.96" y="-1348.8" font-family="Verdana" font-size="9.00">: </text>
<text text-anchor="start" x="405.96" y="-1348.8" font-family="Verdana" font-style="italic" font-size="9.00">UUID </text>
<polygon fill="none" stroke="black" points="337.96,-1320 337.96,-1340 554.96,-1340 554.96,-1320 337.96,-1320"/>
<text text-anchor="start" x="342.96" y="-1328.8" font-family="Verdana" font-weight="bold" font-size="9.00">listing_id</text>
<text text-anchor="start" x="389.96" y="-1328.8" font-family="Verdana" font-size="9.00">: </text>
<text text-anchor="start" x="396.96" y="-1328.8" font-family="Verdana" font-style="italic" font-size="9.00">UUID </text>
<polygon fill="none" stroke="black" points="337.96,-1300 337.96,-1320 554.96,-1320 554.96,-1300 337.96,-1300"/>
<text text-anchor="start" x="342.96" y="-1308.8" font-family="Verdana" font-weight="bold" font-size="9.00">event_id</text>
<text text-anchor="start" x="386.96" y="-1308.8" font-family="Verdana" font-size="9.00">: </text>
<text text-anchor="start" x="393.96" y="-1308.8" font-family="Verdana" font-style="italic" font-size="9.00">UUID </text>
<polygon fill="none" stroke="black" points="337.96,-1280 337.96,-1300 554.96,-1300 554.96,-1280 337.96,-1280"/>
<text text-anchor="start" x="342.96" y="-1288.8" font-family="Verdana" font-weight="bold" font-size="9.00">evidence_role</text>
<text text-anchor="start" x="412.96" y="-1288.8" font-family="Verdana" font-size="9.00">: </text>
<text text-anchor="start" x="419.96" y="-1288.8" font-family="Verdana" font-style="italic" font-size="9.00">VARCHAR(24) &#160;NOT NULL</text>
<polygon fill="none" stroke="black" points="337.96,-1260 337.96,-1280 554.96,-1280 554.96,-1260 337.96,-1260"/>
<text text-anchor="start" x="342.96" y="-1268.8" font-family="Verdana" font-weight="bold" font-size="9.00">notes</text>
<text text-anchor="start" x="371.96" y="-1268.8" font-family="Verdana" font-size="9.00">: </text>
<text text-anchor="start" x="378.96" y="-1268.8" font-family="Verdana" font-style="italic" font-size="9.00">TEXT </text>
<polygon fill="none" stroke="black" points="337.96,-1240 337.96,-1260 554.96,-1260 554.96,-1240 337.96,-1240"/>
<text text-anchor="start" x="342.96" y="-1248.8" font-family="Verdana" font-weight="bold" font-size="9.00">created_at</text>
<text text-anchor="start" x="397.96" y="-1248.8" font-family="Verdana" font-size="9.00">: </text>
<text text-anchor="start" x="404.96" y="-1248.8" font-family="Verdana" font-style="italic" font-size="9.00">TIMESTAMPTZ &#160;NOT NULL</text>
</g>
<!-- provider_evidence&#45;&gt;issuer -->
<g id="edge3" class="edge">
<title>provider_evidence:issuer_id&#45;&gt;issuer:issuer_id</title>
<path fill="none" stroke="black" d="M555.96,-1370C734.4,-1370 654.51,-736.56 595.96,-568 531.44,-382.26 518.44,-219.65 328.05,-214.14"/>
<polygon fill="black" stroke="black" points="328.01,-210.64 317.96,-214 327.91,-217.64 328.01,-210.64"/>
</g>
<!-- provider_evidence&#45;&gt;listing -->
<g id="edge4" class="edge">
<title>provider_evidence:listing_id&#45;&gt;listing:listing_id</title>
<path fill="none" stroke="black" d="M336.96,-1330C278.75,-1330 324.76,-1258.09 320.96,-1200 320.81,-1197.77 320.51,-910.57 318.65,-852.26"/>
<polygon fill="black" stroke="black" points="322.13,-851.74 317.96,-842 315.14,-852.21 322.13,-851.74"/>
</g>
<!-- provider_observation -->
<g id="node5" class="node">
<title>provider_observation</title>
<polygon fill="lightblue" stroke="transparent" points="337.96,-1176 337.96,-1196 554.96,-1196 554.96,-1176 337.96,-1176"/>
<polygon fill="none" stroke="black" points="337.96,-1176 337.96,-1196 554.96,-1196 554.96,-1176 337.96,-1176"/>
<text text-anchor="start" x="391.96" y="-1184.8" font-family="Verdana" font-weight="bold" font-size="9.00">provider_observation</text>
<polygon fill="none" stroke="black" points="337.96,-1156 337.96,-1176 554.96,-1176 554.96,-1156 337.96,-1156"/>
<text text-anchor="start" x="342.96" y="-1164.8" font-family="Verdana" font-weight="bold" font-size="9.00">provider_observation_id</text>
<text text-anchor="start" x="466.96" y="-1164.8" font-family="Verdana" font-size="9.00">: </text>
<text text-anchor="start" x="473.96" y="-1164.8" font-family="Verdana" font-style="italic" font-size="9.00">UUID &#160;NOT NULL</text>
<polygon fill="none" stroke="black" points="337.96,-1136 337.96,-1156 554.96,-1156 554.96,-1136 337.96,-1136"/>
<text text-anchor="start" x="342.96" y="-1144.8" font-family="Verdana" font-weight="bold" font-size="9.00">provider_code</text>
<text text-anchor="start" x="415.96" y="-1144.8" font-family="Verdana" font-size="9.00">: </text>
<text text-anchor="start" x="422.96" y="-1144.8" font-family="Verdana" font-style="italic" font-size="9.00">VARCHAR(32) &#160;NOT NULL</text>
<polygon fill="none" stroke="black" points="337.96,-1116 337.96,-1136 554.96,-1136 554.96,-1116 337.96,-1116"/>
<text text-anchor="start" x="342.96" y="-1124.8" font-family="Verdana" font-weight="bold" font-size="9.00">provider_date</text>
<text text-anchor="start" x="414.96" y="-1124.8" font-family="Verdana" font-size="9.00">: </text>
<text text-anchor="start" x="421.96" y="-1124.8" font-family="Verdana" font-style="italic" font-size="9.00">DATE </text>
<polygon fill="none" stroke="black" points="337.96,-1096 337.96,-1116 554.96,-1116 554.96,-1096 337.96,-1096"/>
<text text-anchor="start" x="342.96" y="-1104.8" font-family="Verdana" font-weight="bold" font-size="9.00">observed_at</text>
<text text-anchor="start" x="405.96" y="-1104.8" font-family="Verdana" font-size="9.00">: </text>
<text text-anchor="start" x="412.96" y="-1104.8" font-family="Verdana" font-style="italic" font-size="9.00">TIMESTAMPTZ &#160;NOT NULL</text>
<polygon fill="none" stroke="black" points="337.96,-1076 337.96,-1096 554.96,-1096 554.96,-1076 337.96,-1076"/>
<text text-anchor="start" x="342.96" y="-1084.8" font-family="Verdana" font-weight="bold" font-size="9.00">accession_no</text>
<text text-anchor="start" x="409.96" y="-1084.8" font-family="Verdana" font-size="9.00">: </text>
<text text-anchor="start" x="416.96" y="-1084.8" font-family="Verdana" font-style="italic" font-size="9.00">TEXT </text>
<polygon fill="none" stroke="black" points="337.96,-1056 337.96,-1076 554.96,-1076 554.96,-1056 337.96,-1056"/>
<text text-anchor="start" x="342.96" y="-1064.8" font-family="Verdana" font-weight="bold" font-size="9.00">form_type</text>
<text text-anchor="start" x="394.96" y="-1064.8" font-family="Verdana" font-size="9.00">: </text>
<text text-anchor="start" x="401.96" y="-1064.8" font-family="Verdana" font-style="italic" font-size="9.00">VARCHAR(16) </text>
<polygon fill="none" stroke="black" points="337.96,-1036 337.96,-1056 554.96,-1056 554.96,-1036 337.96,-1036"/>
<text text-anchor="start" x="342.96" y="-1044.8" font-family="Verdana" font-weight="bold" font-size="9.00">filing_date</text>
<text text-anchor="start" x="397.96" y="-1044.8" font-family="Verdana" font-size="9.00">: </text>
<text text-anchor="start" x="404.96" y="-1044.8" font-family="Verdana" font-style="italic" font-size="9.00">DATE </text>
<polygon fill="none" stroke="black" points="337.96,-1016 337.96,-1036 554.96,-1036 554.96,-1016 337.96,-1016"/>
<text text-anchor="start" x="342.96" y="-1024.8" font-family="Verdana" font-weight="bold" font-size="9.00">object_id</text>
<text text-anchor="start" x="388.96" y="-1024.8" font-family="Verdana" font-size="9.00">: </text>
<text text-anchor="start" x="395.96" y="-1024.8" font-family="Verdana" font-style="italic" font-size="9.00">UUID </text>
<polygon fill="none" stroke="black" points="337.96,-996 337.96,-1016 554.96,-1016 554.96,-996 337.96,-996"/>
<text text-anchor="start" x="342.96" y="-1004.8" font-family="Verdana" font-weight="bold" font-size="9.00">object_key</text>
<text text-anchor="start" x="397.96" y="-1004.8" font-family="Verdana" font-size="9.00">: </text>
<text text-anchor="start" x="404.96" y="-1004.8" font-family="Verdana" font-style="italic" font-size="9.00">TEXT </text>
<polygon fill="none" stroke="black" points="337.96,-976 337.96,-996 554.96,-996 554.96,-976 337.96,-976"/>
<text text-anchor="start" x="342.96" y="-984.8" font-family="Verdana" font-weight="bold" font-size="9.00">source_url</text>
<text text-anchor="start" x="395.96" y="-984.8" font-family="Verdana" font-size="9.00">: </text>
<text text-anchor="start" x="402.96" y="-984.8" font-family="Verdana" font-style="italic" font-size="9.00">TEXT </text>
<polygon fill="none" stroke="black" points="337.96,-956 337.96,-976 554.96,-976 554.96,-956 337.96,-956"/>
<text text-anchor="start" x="342.96" y="-964.8" font-family="Verdana" font-weight="bold" font-size="9.00">raw_key</text>
<text text-anchor="start" x="384.96" y="-964.8" font-family="Verdana" font-size="9.00">: </text>
<text text-anchor="start" x="391.96" y="-964.8" font-family="Verdana" font-style="italic" font-size="9.00">TEXT </text>
<polygon fill="none" stroke="black" points="337.96,-936 337.96,-956 554.96,-956 554.96,-936 337.96,-936"/>
<text text-anchor="start" x="342.96" y="-944.8" font-family="Verdana" font-weight="bold" font-size="9.00">summary_json</text>
<text text-anchor="start" x="416.96" y="-944.8" font-family="Verdana" font-size="9.00">: </text>
<text text-anchor="start" x="423.96" y="-944.8" font-family="Verdana" font-style="italic" font-size="9.00">JSONB </text>
<polygon fill="none" stroke="black" points="337.96,-916 337.96,-936 554.96,-936 554.96,-916 337.96,-916"/>
<text text-anchor="start" x="342.96" y="-924.8" font-family="Verdana" font-weight="bold" font-size="9.00">created_at</text>
<text text-anchor="start" x="397.96" y="-924.8" font-family="Verdana" font-size="9.00">: </text>
<text text-anchor="start" x="404.96" y="-924.8" font-family="Verdana" font-style="italic" font-size="9.00">TIMESTAMPTZ &#160;NOT NULL</text>
</g>
<!-- provider_evidence&#45;&gt;provider_observation -->
<g id="edge5" class="edge">
<title>provider_evidence:provider_observation_id&#45;&gt;provider_observation:provider_observation_id</title>
<path fill="none" stroke="black" d="M336.96,-1390C314.79,-1390 312.37,-1212.32 329.69,-1173.45"/>
<polygon fill="black" stroke="black" points="332.48,-1175.6 336.96,-1166 327.47,-1170.71 332.48,-1175.6"/>
</g>
<!-- provider_evidence&#45;&gt;security -->
<g id="edge6" class="edge">
<title>provider_evidence:security_id&#45;&gt;security:security_id</title>
<path fill="none" stroke="black" d="M555.96,-1350C571.23,-1350 622.56,-636.65 571.96,-568 542.59,-528.16 414.82,-501.29 356.08,-498.28"/>
<polygon fill="black" stroke="black" points="356.05,-494.78 345.96,-498 355.86,-501.78 356.05,-494.78"/>
</g>
<!-- security_event -->
<g id="node7" class="node">
<title>security_event</title>
<polygon fill="lightblue" stroke="transparent" points="48.96,-1156 48.96,-1176 264.96,-1176 264.96,-1156 48.96,-1156"/>
<polygon fill="none" stroke="black" points="48.96,-1156 48.96,-1176 264.96,-1176 264.96,-1156 48.96,-1156"/>
<text text-anchor="start" x="118.96" y="-1164.8" font-family="Verdana" font-weight="bold" font-size="9.00">security_event</text>
<polygon fill="none" stroke="black" points="48.96,-1136 48.96,-1156 264.96,-1156 264.96,-1136 48.96,-1136"/>
<text text-anchor="start" x="53.96" y="-1144.8" font-family="Verdana" font-weight="bold" font-size="9.00">event_id</text>
<text text-anchor="start" x="97.96" y="-1144.8" font-family="Verdana" font-size="9.00">: </text>
<text text-anchor="start" x="104.96" y="-1144.8" font-family="Verdana" font-style="italic" font-size="9.00">UUID &#160;NOT NULL</text>
<polygon fill="none" stroke="black" points="48.96,-1116 48.96,-1136 264.96,-1136 264.96,-1116 48.96,-1116"/>
<text text-anchor="start" x="53.96" y="-1124.8" font-family="Verdana" font-weight="bold" font-size="9.00">issuer_id</text>
<text text-anchor="start" x="99.96" y="-1124.8" font-family="Verdana" font-size="9.00">: </text>
<text text-anchor="start" x="106.96" y="-1124.8" font-family="Verdana" font-style="italic" font-size="9.00">UUID </text>
<polygon fill="none" stroke="black" points="48.96,-1096 48.96,-1116 264.96,-1116 264.96,-1096 48.96,-1096"/>
<text text-anchor="start" x="53.96" y="-1104.8" font-family="Verdana" font-weight="bold" font-size="9.00">security_id</text>
<text text-anchor="start" x="109.96" y="-1104.8" font-family="Verdana" font-size="9.00">: </text>
<text text-anchor="start" x="116.96" y="-1104.8" font-family="Verdana" font-style="italic" font-size="9.00">UUID </text>
<polygon fill="none" stroke="black" points="48.96,-1076 48.96,-1096 264.96,-1096 264.96,-1076 48.96,-1076"/>
<text text-anchor="start" x="53.96" y="-1084.8" font-family="Verdana" font-weight="bold" font-size="9.00">listing_id</text>
<text text-anchor="start" x="100.96" y="-1084.8" font-family="Verdana" font-size="9.00">: </text>
<text text-anchor="start" x="107.96" y="-1084.8" font-family="Verdana" font-style="italic" font-size="9.00">UUID </text>
<polygon fill="none" stroke="black" points="48.96,-1056 48.96,-1076 264.96,-1076 264.96,-1056 48.96,-1056"/>
<text text-anchor="start" x="53.96" y="-1064.8" font-family="Verdana" font-weight="bold" font-size="9.00">event_type</text>
<text text-anchor="start" x="111.96" y="-1064.8" font-family="Verdana" font-size="9.00">: </text>
<text text-anchor="start" x="118.96" y="-1064.8" font-family="Verdana" font-style="italic" font-size="9.00">VARCHAR(32) &#160;NOT NULL</text>
<polygon fill="none" stroke="black" points="48.96,-1036 48.96,-1056 264.96,-1056 264.96,-1036 48.96,-1036"/>
<text text-anchor="start" x="53.96" y="-1044.8" font-family="Verdana" font-weight="bold" font-size="9.00">event_date</text>
<text text-anchor="start" x="111.96" y="-1044.8" font-family="Verdana" font-size="9.00">: </text>
<text text-anchor="start" x="118.96" y="-1044.8" font-family="Verdana" font-style="italic" font-size="9.00">DATE </text>
<polygon fill="none" stroke="black" points="48.96,-1016 48.96,-1036 264.96,-1036 264.96,-1016 48.96,-1016"/>
<text text-anchor="start" x="53.96" y="-1024.8" font-family="Verdana" font-weight="bold" font-size="9.00">provider_code</text>
<text text-anchor="start" x="126.96" y="-1024.8" font-family="Verdana" font-size="9.00">: </text>
<text text-anchor="start" x="133.96" y="-1024.8" font-family="Verdana" font-style="italic" font-size="9.00">VARCHAR(32) </text>
<polygon fill="none" stroke="black" points="48.96,-996 48.96,-1016 264.96,-1016 264.96,-996 48.96,-996"/>
<text text-anchor="start" x="53.96" y="-1004.8" font-family="Verdana" font-weight="bold" font-size="9.00">confidence_code</text>
<text text-anchor="start" x="138.96" y="-1004.8" font-family="Verdana" font-size="9.00">: </text>
<text text-anchor="start" x="145.96" y="-1004.8" font-family="Verdana" font-style="italic" font-size="9.00">VARCHAR(16) &#160;NOT NULL</text>
<polygon fill="none" stroke="black" points="48.96,-976 48.96,-996 264.96,-996 264.96,-976 48.96,-976"/>
<text text-anchor="start" x="53.96" y="-984.8" font-family="Verdana" font-weight="bold" font-size="9.00">description</text>
<text text-anchor="start" x="111.96" y="-984.8" font-family="Verdana" font-size="9.00">: </text>
<text text-anchor="start" x="118.96" y="-984.8" font-family="Verdana" font-style="italic" font-size="9.00">TEXT </text>
<polygon fill="none" stroke="black" points="48.96,-956 48.96,-976 264.96,-976 264.96,-956 48.96,-956"/>
<text text-anchor="start" x="53.96" y="-964.8" font-family="Verdana" font-weight="bold" font-size="9.00">details_json</text>
<text text-anchor="start" x="114.96" y="-964.8" font-family="Verdana" font-size="9.00">: </text>
<text text-anchor="start" x="121.96" y="-964.8" font-family="Verdana" font-style="italic" font-size="9.00">JSONB </text>
<polygon fill="none" stroke="black" points="48.96,-936 48.96,-956 264.96,-956 264.96,-936 48.96,-936"/>
<text text-anchor="start" x="53.96" y="-944.8" font-family="Verdana" font-weight="bold" font-size="9.00">created_at</text>
<text text-anchor="start" x="108.96" y="-944.8" font-family="Verdana" font-size="9.00">: </text>
<text text-anchor="start" x="115.96" y="-944.8" font-family="Verdana" font-style="italic" font-size="9.00">TIMESTAMPTZ &#160;NOT NULL</text>
</g>
<!-- provider_evidence&#45;&gt;security_event -->
<g id="edge2" class="edge">
<title>provider_evidence:event_id&#45;&gt;security_event:event_id</title>
<path fill="none" stroke="black" d="M336.96,-1310C283.26,-1310 307.81,-1249.49 286.96,-1200 278.68,-1180.35 287.37,-1156.21 275.98,-1148.5"/>
<polygon fill="black" stroke="black" points="276.51,-1145.02 265.96,-1146 274.82,-1151.81 276.51,-1145.02"/>
</g>
<!-- provider_observation&#45;&gt;provider -->
<g id="edge7" class="edge">
<title>provider_observation:provider_code&#45;&gt;provider:provider_code</title>
<path fill="none" stroke="black" d="M555.96,-1146C581.96,-1146 568.08,-934.45 554.96,-912 502.32,-821.96 404.72,-885.37 350.96,-796 345.78,-787.4 340.37,-775.23 341.75,-768.02"/>
<polygon fill="black" stroke="black" points="343.97,-770.74 349.96,-762 339.83,-765.09 343.97,-770.74"/>
</g>
<!-- security&#45;&gt;issuer -->
<g id="edge12" class="edge">
<title>security:issuer_id&#45;&gt;issuer:issuer_id</title>
<path fill="none" stroke="black" d="M97.96,-478C54.85,-478 70.98,-316.8 98.96,-284 162.68,-209.28 252.33,-321.94 316.96,-248 323.8,-240.17 328.85,-227.04 326.43,-219.59"/>
<polygon fill="black" stroke="black" points="328.23,-216.59 317.96,-214 324.38,-222.43 328.23,-216.59"/>
</g>
<!-- security_event&#45;&gt;issuer -->
<g id="edge8" class="edge">
<title>security_event:issuer_id&#45;&gt;issuer:issuer_id</title>
<path fill="none" stroke="black" d="M47.96,-1126C-50.46,-1126 18.49,-271.83 115.21,-216.78"/>
<polygon fill="black" stroke="black" points="116.3,-220.11 124.96,-214 114.38,-213.38 116.3,-220.11"/>
</g>
<!-- security_event&#45;&gt;listing -->
<g id="edge9" class="edge">
<title>security_event:listing_id&#45;&gt;listing:listing_id</title>
<path fill="none" stroke="black" d="M265.96,-1086C300.18,-1086 284.2,-960.3 264.96,-932 227.51,-876.92 164.04,-930.64 125.96,-876 120.08,-867.57 114.75,-854.89 116.68,-847.64"/>
<polygon fill="black" stroke="black" points="118.66,-850.52 124.96,-842 114.72,-844.73 118.66,-850.52"/>
</g>
<!-- security_event&#45;&gt;provider -->
<g id="edge10" class="edge">
<title>security_event:provider_code&#45;&gt;provider:provider_code</title>
<path fill="none" stroke="black" d="M265.96,-1026C275.11,-1026 331.41,-884.79 333.96,-876 340.06,-854.98 328.71,-786.5 341.32,-767.14"/>
<polygon fill="black" stroke="black" points="343.15,-770.12 349.96,-762 339.57,-764.1 343.15,-770.12"/>
</g>
<!-- security_event&#45;&gt;security -->
<g id="edge11" class="edge">
<title>security_event:security_id&#45;&gt;security:security_id</title>
<path fill="none" stroke="black" d="M47.96,-1106C-29.38,-1106 38.01,-1008.56 48.96,-932 52.62,-906.38 60.26,-901.45 64.96,-876 72.03,-837.7 58.22,-547.56 89.31,-503.58"/>
<polygon fill="black" stroke="black" points="91.45,-506.36 97.96,-498 87.66,-500.48 91.45,-506.36"/>
</g>
</g>
</svg>
