<?xml version="1.0" encoding="UTF-8" standalone="no"?>
<!DOCTYPE svg PUBLIC "-//W3C//DTD SVG 1.1//EN"
 "http://www.w3.org/Graphics/SVG/1.1/DTD/svg11.dtd">
<!-- Generated by graphviz version 2.42.4 (0)
 -->
<!-- Title: schema_relations Pages: 1 -->
<svg width="1016pt" height="199pt"
 viewBox="0.00 0.00 1016.00 199.00" xmlns="http://www.w3.org/2000/svg" xmlns:xlink="http://www.w3.org/1999/xlink">
<g id="graph0" class="graph" transform="scale(1 1) rotate(0) translate(18 181)">
<title>schema_relations</title>
<!-- classification_code -->
<g id="node1" class="node">
<title>classification_code</title>
<path fill="#f8fafc" stroke="#334155" d="M688,-84C688,-84 595,-84 595,-84 589,-84 583,-78 583,-72 583,-72 583,-60 583,-60 583,-54 589,-48 595,-48 595,-48 688,-48 688,-48 694,-48 700,-54 700,-60 700,-60 700,-72 700,-72 700,-78 694,-84 688,-84"/>
<text text-anchor="middle" x="641.5" y="-63.2" font-family="Helvetica,sans-Serif" font-size="11.00">classification_code</text>
</g>
<!-- issuer_classification -->
<g id="node4" class="node">
<title>issuer_classification</title>
<path fill="#f8fafc" stroke="#334155" d="M968,-84C968,-84 868,-84 868,-84 862,-84 856,-78 856,-72 856,-72 856,-60 856,-60 856,-54 862,-48 868,-48 868,-48 968,-48 968,-48 974,-48 980,-54 980,-60 980,-60 980,-72 980,-72 980,-78 974,-84 968,-84"/>
<text text-anchor="middle" x="918" y="-63.2" font-family="Helvetica,sans-Serif" font-size="11.00">issuer_classification</text>
</g>
<!-- classification_code&#45;&gt;issuer_classification -->
<g id="edge1" class="edge">
<title>classification_code&#45;&gt;issuer_classification</title>
<path fill="none" stroke="#64748b" d="M700.04,-66C743.32,-66 802.78,-66 848.5,-66"/>
<polygon fill="#64748b" stroke="#64748b" points="848.72,-68.45 855.72,-66 848.72,-63.55 848.72,-68.45"/>
<text text-anchor="middle" x="778" y="-68.6" font-family="Helvetica,sans-Serif" font-size="8.00">fk_issuer_class_code</text>
</g>
<!-- classification_system -->
<g id="node2" class="node">
<title>classification_system</title>
<path fill="#f8fafc" stroke="#334155" d="M382,-84C382,-84 274,-84 274,-84 268,-84 262,-78 262,-72 262,-72 262,-60 262,-60 262,-54 268,-48 274,-48 274,-48 382,-48 382,-48 388,-48 394,-54 394,-60 394,-60 394,-72 394,-72 394,-78 388,-84 382,-84"/>
<text text-anchor="middle" x="328" y="-63.2" font-family="Helvetica,sans-Serif" font-size="11.00">classification_system</text>
</g>
<!-- classification_system&#45;&gt;classification_code -->
<g id="edge2" class="edge">
<title>classification_system&#45;&gt;classification_code</title>
<path fill="none" stroke="#64748b" d="M394.3,-66C447.66,-66 522.68,-66 575.86,-66"/>
<polygon fill="#64748b" stroke="#64748b" points="575.88,-68.45 582.88,-66 575.88,-63.55 575.88,-68.45"/>
<text text-anchor="middle" x="488.5" y="-68.6" font-family="Helvetica,sans-Serif" font-size="8.00">fk_classification_code_system</text>
</g>
<!-- issuer -->
<g id="node3" class="node">
<title>issuer</title>
<path fill="#f8fafc" stroke="#334155" d="M656.5,-163C656.5,-163 626.5,-163 626.5,-163 620.5,-163 614.5,-157 614.5,-151 614.5,-151 614.5,-139 614.5,-139 614.5,-133 620.5,-127 626.5,-127 626.5,-127 656.5,-127 656.5,-127 662.5,-127 668.5,-133 668.5,-139 668.5,-139 668.5,-151 668.5,-151 668.5,-157 662.5,-163 656.5,-163"/>
<text text-anchor="middle" x="641.5" y="-142.2" font-family="Helvetica,sans-Serif" font-size="11.00">issuer</text>
</g>
<!-- issuer&#45;&gt;issuer_classification -->
<g id="edge3" class="edge">
<title>issuer&#45;&gt;issuer_classification</title>
<path fill="none" stroke="#64748b" d="M668.82,-137.43C709.89,-125.61 790.54,-102.39 848.78,-85.63"/>
<polygon fill="#64748b" stroke="#64748b" points="849.71,-87.91 855.76,-83.62 848.36,-83.21 849.71,-87.91"/>
<text text-anchor="middle" x="778" y="-119.6" font-family="Helvetica,sans-Serif" font-size="8.00">fk_issuer_class_issuer</text>
</g>
<!-- provider -->
<g id="node5" class="node">
<title>provider</title>
<path fill="#f8fafc" stroke="#334155" d="M48,-36C48,-36 12,-36 12,-36 6,-36 0,-30 0,-24 0,-24 0,-12 0,-12 0,-6 6,0 12,0 12,0 48,0 48,0 54,0 60,-6 60,-12 60,-12 60,-24 60,-24 60,-30 54,-36 48,-36"/>
<text text-anchor="middle" x="30" y="-15.2" font-family="Helvetica,sans-Serif" font-size="11.00">provider</text>
</g>
<!-- provider&#45;&gt;classification_system -->
<g id="edge4" class="edge">
<title>provider&#45;&gt;classification_system</title>
<path fill="none" stroke="#64748b" d="M60.19,-22.73C105.06,-30.01 192.34,-44.16 254.86,-54.3"/>
<polygon fill="#64748b" stroke="#64748b" points="254.67,-56.75 261.98,-55.46 255.46,-51.92 254.67,-56.75"/>
<text text-anchor="middle" x="161" y="-51.6" font-family="Helvetica,sans-Serif" font-size="8.00">fk_classification_system_provider</text>
</g>
<!-- provider&#45;&gt;issuer_classification -->
<g id="edge5" class="edge">
<title>provider&#45;&gt;issuer_classification</title>
<path fill="none" stroke="#64748b" d="M60.11,-16.63C153.45,-12.62 453.5,-2.65 700,-27 750.16,-31.95 806.12,-42.13 848.66,-50.84"/>
<polygon fill="#64748b" stroke="#64748b" points="848.28,-53.27 855.63,-52.29 849.27,-48.47 848.28,-53.27"/>
<text text-anchor="middle" x="488.5" y="-18.6" font-family="Helvetica,sans-Serif" font-size="8.00">fk_issuer_class_provider</text>
</g>
</g>
</svg>
