<?xml version="1.0" encoding="UTF-8" standalone="no"?>
<!DOCTYPE svg PUBLIC "-//W3C//DTD SVG 1.1//EN"
 "http://www.w3.org/Graphics/SVG/1.1/DTD/svg11.dtd">
<!-- Generated by graphviz version 2.42.4 (0)
 -->
<!-- Title: schema_relations Pages: 1 -->
<svg width="433pt" height="151pt"
 viewBox="0.00 0.00 433.00 151.00" xmlns="http://www.w3.org/2000/svg" xmlns:xlink="http://www.w3.org/1999/xlink">
<g id="graph0" class="graph" transform="scale(1 1) rotate(0) translate(18 133)">
<title>schema_relations</title>
<!-- classification_code -->
<g id="node1" class="node">
<title>classification_code</title>
<path fill="#f8fafc" stroke="#334155" d="M105,-115C105,-115 12,-115 12,-115 6,-115 0,-109 0,-103 0,-103 0,-91 0,-91 0,-85 6,-79 12,-79 12,-79 105,-79 105,-79 111,-79 117,-85 117,-91 117,-91 117,-103 117,-103 117,-109 111,-115 105,-115"/>
<text text-anchor="middle" x="58.5" y="-94.2" font-family="Helvetica,sans-Serif" font-size="11.00">classification_code</text>
</g>
<!-- issuer_classification -->
<g id="node3" class="node">
<title>issuer_classification</title>
<path fill="#f8fafc" stroke="#334155" d="M385,-75C385,-75 285,-75 285,-75 279,-75 273,-69 273,-63 273,-63 273,-51 273,-51 273,-45 279,-39 285,-39 285,-39 385,-39 385,-39 391,-39 397,-45 397,-51 397,-51 397,-63 397,-63 397,-69 391,-75 385,-75"/>
<text text-anchor="middle" x="335" y="-54.2" font-family="Helvetica,sans-Serif" font-size="11.00">issuer_classification</text>
</g>
<!-- classification_code&#45;&gt;issuer_classification -->
<g id="edge1" class="edge">
<title>classification_code&#45;&gt;issuer_classification</title>
<path fill="none" stroke="#64748b" d="M117.04,-88.61C160.41,-82.3 220.02,-73.61 265.79,-66.94"/>
<polygon fill="#64748b" stroke="#64748b" points="266.15,-69.36 272.72,-65.93 265.44,-64.51 266.15,-69.36"/>
<text text-anchor="middle" x="195" y="-84.6" font-family="Helvetica,sans-Serif" font-size="8.00">fk_issuer_class_code</text>
</g>
<!-- issuer -->
<g id="node2" class="node">
<title>issuer</title>
<path fill="#f8fafc" stroke="#334155" d="M73.5,-36C73.5,-36 43.5,-36 43.5,-36 37.5,-36 31.5,-30 31.5,-24 31.5,-24 31.5,-12 31.5,-12 31.5,-6 37.5,0 43.5,0 43.5,0 73.5,0 73.5,0 79.5,0 85.5,-6 85.5,-12 85.5,-12 85.5,-24 85.5,-24 85.5,-30 79.5,-36 73.5,-36"/>
<text text-anchor="middle" x="58.5" y="-15.2" font-family="Helvetica,sans-Serif" font-size="11.00">issuer</text>
</g>
<!-- issuer&#45;&gt;issuer_classification -->
<g id="edge2" class="edge">
<title>issuer&#45;&gt;issuer_classification</title>
<path fill="none" stroke="#64748b" d="M85.65,-19.34C120.88,-21.41 185.48,-26.1 240,-35 248.42,-36.38 257.21,-38.07 265.88,-39.91"/>
<polygon fill="#64748b" stroke="#64748b" points="265.44,-42.32 272.81,-41.41 266.48,-37.53 265.44,-42.32"/>
<text text-anchor="middle" x="195" y="-37.6" font-family="Helvetica,sans-Serif" font-size="8.00">fk_issuer_class_issuer</text>
</g>
</g>
</svg>
