<?xml version="1.0" encoding="UTF-8" standalone="no"?>
<!DOCTYPE svg PUBLIC "-//W3C//DTD SVG 1.1//EN"
 "http://www.w3.org/Graphics/SVG/1.1/DTD/svg11.dtd">
<!-- Generated by graphviz version 2.42.4 (0)
 -->
<!-- Title: ERD Pages: 1 -->
<svg width="448pt" height="480pt"
 viewBox="0.00 0.00 447.50 480.00" xmlns="http://www.w3.org/2000/svg" xmlns:xlink="http://www.w3.org/1999/xlink">
<g id="graph0" class="graph" transform="scale(1 1) rotate(0) translate(4 476)">
<title>ERD</title>
<polygon fill="white" stroke="transparent" points="-4,4 -4,-476 443.5,-476 443.5,4 -4,4"/>
<!-- classification_code -->
<g id="node1" class="node">
<title>classification_code</title>
<polygon fill="lightblue" stroke="transparent" points="8,-174 8,-194 206,-194 206,-174 8,-174"/>
<polygon fill="none" stroke="black" points="8,-174 8,-194 206,-194 206,-174 8,-174"/>
<text text-anchor="start" x="59.5" y="-182.8" font-family="Verdana" font-weight="bold" font-size="9.00">classification_code</text>
<polygon fill="none" stroke="black" points="8,-154 8,-174 206,-174 206,-154 8,-154"/>
<text text-anchor="start" x="13" y="-162.8" font-family="Verdana" font-weight="bold" font-size="9.00">class_code_id</text>
<text text-anchor="start" x="81" y="-162.8" font-family="Verdana" font-size="9.00">: </text>
<text text-anchor="start" x="88" y="-162.8" font-family="Verdana" font-style="italic" font-size="9.00">UUID &#160;NOT NULL</text>
<polygon fill="none" stroke="black" points="8,-134 8,-154 206,-154 206,-134 8,-134"/>
<text text-anchor="start" x="13" y="-142.8" font-family="Verdana" font-weight="bold" font-size="9.00">class_system</text>
<text text-anchor="start" x="80" y="-142.8" font-family="Verdana" font-size="9.00">: </text>
<text text-anchor="start" x="87" y="-142.8" font-family="Verdana" font-style="italic" font-size="9.00">VARCHAR(32) &#160;NOT NULL</text>
<polygon fill="none" stroke="black" points="8,-114 8,-134 206,-134 206,-114 8,-114"/>
<text text-anchor="start" x="13" y="-122.8" font-family="Verdana" font-weight="bold" font-size="9.00">code</text>
<text text-anchor="start" x="38" y="-122.8" font-family="Verdana" font-size="9.00">: </text>
<text text-anchor="start" x="45" y="-122.8" font-family="Verdana" font-style="italic" font-size="9.00">VARCHAR(32) &#160;NOT NULL</text>
<polygon fill="none" stroke="black" points="8,-94 8,-114 206,-114 206,-94 8,-94"/>
<text text-anchor="start" x="13" y="-102.8" font-family="Verdana" font-weight="bold" font-size="9.00">label</text>
<text text-anchor="start" x="38" y="-102.8" font-family="Verdana" font-size="9.00">: </text>
<text text-anchor="start" x="45" y="-102.8" font-family="Verdana" font-style="italic" font-size="9.00">TEXT &#160;NOT NULL</text>
<polygon fill="none" stroke="black" points="8,-74 8,-94 206,-94 206,-74 8,-74"/>
<text text-anchor="start" x="13" y="-82.8" font-family="Verdana" font-weight="bold" font-size="9.00">description</text>
<text text-anchor="start" x="71" y="-82.8" font-family="Verdana" font-size="9.00">: </text>
<text text-anchor="start" x="78" y="-82.8" font-family="Verdana" font-style="italic" font-size="9.00">TEXT </text>
<polygon fill="none" stroke="black" points="8,-54 8,-74 206,-74 206,-54 8,-54"/>
<text text-anchor="start" x="13" y="-62.8" font-family="Verdana" font-weight="bold" font-size="9.00">is_active</text>
<text text-anchor="start" x="57" y="-62.8" font-family="Verdana" font-size="9.00">: </text>
<text text-anchor="start" x="64" y="-62.8" font-family="Verdana" font-style="italic" font-size="9.00">BOOLEAN &#160;NOT NULL</text>
</g>
<!-- issuer -->
<g id="node2" class="node">
<title>issuer</title>
<polygon fill="lightblue" stroke="transparent" points="241,-224 241,-244 432,-244 432,-224 241,-224"/>
<polygon fill="none" stroke="black" points="241,-224 241,-244 432,-244 432,-224 241,-224"/>
<text text-anchor="start" x="321" y="-232.8" font-family="Verdana" font-weight="bold" font-size="9.00">issuer</text>
<polygon fill="none" stroke="black" points="241,-204 241,-224 432,-224 432,-204 241,-204"/>
<text text-anchor="start" x="246" y="-212.8" font-family="Verdana" font-weight="bold" font-size="9.00">issuer_id</text>
<text text-anchor="start" x="292" y="-212.8" font-family="Verdana" font-size="9.00">: </text>
<text text-anchor="start" x="299" y="-212.8" font-family="Verdana" font-style="italic" font-size="9.00">UUID &#160;NOT NULL</text>
<polygon fill="none" stroke="black" points="241,-184 241,-204 432,-204 432,-184 241,-184"/>
<text text-anchor="start" x="246" y="-192.8" font-family="Verdana" font-weight="bold" font-size="9.00">cik</text>
<text text-anchor="start" x="261" y="-192.8" font-family="Verdana" font-size="9.00">: </text>
<text text-anchor="start" x="268" y="-192.8" font-family="Verdana" font-style="italic" font-size="9.00">VARCHAR(10) </text>
<polygon fill="none" stroke="black" points="241,-164 241,-184 432,-184 432,-164 241,-164"/>
<text text-anchor="start" x="246" y="-172.8" font-family="Verdana" font-weight="bold" font-size="9.00">issuer_type</text>
<text text-anchor="start" x="305" y="-172.8" font-family="Verdana" font-size="9.00">: </text>
<text text-anchor="start" x="312" y="-172.8" font-family="Verdana" font-style="italic" font-size="9.00">VARCHAR(32) &#160;NOT NULL</text>
<polygon fill="none" stroke="black" points="241,-144 241,-164 432,-164 432,-144 241,-144"/>
<text text-anchor="start" x="246" y="-152.8" font-family="Verdana" font-weight="bold" font-size="9.00">current_name</text>
<text text-anchor="start" x="318" y="-152.8" font-family="Verdana" font-size="9.00">: </text>
<text text-anchor="start" x="325" y="-152.8" font-family="Verdana" font-style="italic" font-size="9.00">TEXT &#160;NOT NULL</text>
<polygon fill="none" stroke="black" points="241,-124 241,-144 432,-144 432,-124 241,-124"/>
<text text-anchor="start" x="246" y="-132.8" font-family="Verdana" font-weight="bold" font-size="9.00">country_alpha2</text>
<text text-anchor="start" x="325" y="-132.8" font-family="Verdana" font-size="9.00">: </text>
<text text-anchor="start" x="332" y="-132.8" font-family="Verdana" font-style="italic" font-size="9.00">VARCHAR(2) </text>
<polygon fill="none" stroke="black" points="241,-104 241,-124 432,-124 432,-104 241,-104"/>
<text text-anchor="start" x="246" y="-112.8" font-family="Verdana" font-weight="bold" font-size="9.00">sic_code</text>
<text text-anchor="start" x="289" y="-112.8" font-family="Verdana" font-size="9.00">: </text>
<text text-anchor="start" x="296" y="-112.8" font-family="Verdana" font-style="italic" font-size="9.00">VARCHAR(4) </text>
<polygon fill="none" stroke="black" points="241,-84 241,-104 432,-104 432,-84 241,-84"/>
<text text-anchor="start" x="246" y="-92.8" font-family="Verdana" font-weight="bold" font-size="9.00">status</text>
<text text-anchor="start" x="279" y="-92.8" font-family="Verdana" font-size="9.00">: </text>
<text text-anchor="start" x="286" y="-92.8" font-family="Verdana" font-style="italic" font-size="9.00">VARCHAR(24) &#160;NOT NULL</text>
<polygon fill="none" stroke="black" points="241,-64 241,-84 432,-84 432,-64 241,-64"/>
<text text-anchor="start" x="246" y="-72.8" font-family="Verdana" font-weight="bold" font-size="9.00">first_seen</text>
<text text-anchor="start" x="296" y="-72.8" font-family="Verdana" font-size="9.00">: </text>
<text text-anchor="start" x="303" y="-72.8" font-family="Verdana" font-style="italic" font-size="9.00">DATE </text>
<polygon fill="none" stroke="black" points="241,-44 241,-64 432,-64 432,-44 241,-44"/>
<text text-anchor="start" x="246" y="-52.8" font-family="Verdana" font-weight="bold" font-size="9.00">last_seen</text>
<text text-anchor="start" x="294" y="-52.8" font-family="Verdana" font-size="9.00">: </text>
<text text-anchor="start" x="301" y="-52.8" font-family="Verdana" font-style="italic" font-size="9.00">DATE </text>
<polygon fill="none" stroke="black" points="241,-24 241,-44 432,-44 432,-24 241,-24"/>
<text text-anchor="start" x="246" y="-32.8" font-family="Verdana" font-weight="bold" font-size="9.00">created_at</text>
<text text-anchor="start" x="301" y="-32.8" font-family="Verdana" font-size="9.00">: </text>
<text text-anchor="start" x="308" y="-32.8" font-family="Verdana" font-style="italic" font-size="9.00">TIMESTAMPTZ &#160;NOT NULL</text>
<polygon fill="none" stroke="black" points="241,-4 241,-24 432,-24 432,-4 241,-4"/>
<text text-anchor="start" x="246" y="-12.8" font-family="Verdana" font-weight="bold" font-size="9.00">updated_at</text>
<text text-anchor="start" x="305" y="-12.8" font-family="Verdana" font-size="9.00">: </text>
<text text-anchor="start" x="312" y="-12.8" font-family="Verdana" font-style="italic" font-size="9.00">TIMESTAMPTZ &#160;NOT NULL</text>
</g>
<!-- issuer_classification -->
<g id="node3" class="node">
<title>issuer_classification</title>
<polygon fill="lightblue" stroke="transparent" points="114,-448 114,-468 330,-468 330,-448 114,-448"/>
<polygon fill="none" stroke="black" points="114,-448 114,-468 330,-468 330,-448 114,-448"/>
<text text-anchor="start" x="171" y="-456.8" font-family="Verdana" font-weight="bold" font-size="9.00">issuer_classification</text>
<polygon fill="none" stroke="black" points="114,-428 114,-448 330,-448 330,-428 114,-428"/>
<text text-anchor="start" x="119" y="-436.8" font-family="Verdana" font-weight="bold" font-size="9.00">issuer_class_id</text>
<text text-anchor="start" x="194" y="-436.8" font-family="Verdana" font-size="9.00">: </text>
<text text-anchor="start" x="201" y="-436.8" font-family="Verdana" font-style="italic" font-size="9.00">UUID &#160;NOT NULL</text>
<polygon fill="none" stroke="black" points="114,-408 114,-428 330,-428 330,-408 114,-408"/>
<text text-anchor="start" x="119" y="-416.8" font-family="Verdana" font-weight="bold" font-size="9.00">issuer_id</text>
<text text-anchor="start" x="165" y="-416.8" font-family="Verdana" font-size="9.00">: </text>
<text text-anchor="start" x="172" y="-416.8" font-family="Verdana" font-style="italic" font-size="9.00">UUID &#160;NOT NULL</text>
<polygon fill="none" stroke="black" points="114,-388 114,-408 330,-408 330,-388 114,-388"/>
<text text-anchor="start" x="119" y="-396.8" font-family="Verdana" font-weight="bold" font-size="9.00">class_code_id</text>
<text text-anchor="start" x="187" y="-396.8" font-family="Verdana" font-size="9.00">: </text>
<text text-anchor="start" x="194" y="-396.8" font-family="Verdana" font-style="italic" font-size="9.00">UUID &#160;NOT NULL</text>
<polygon fill="none" stroke="black" points="114,-368 114,-388 330,-388 330,-368 114,-368"/>
<text text-anchor="start" x="119" y="-376.8" font-family="Verdana" font-weight="bold" font-size="9.00">valid_from</text>
<text text-anchor="start" x="173" y="-376.8" font-family="Verdana" font-size="9.00">: </text>
<text text-anchor="start" x="180" y="-376.8" font-family="Verdana" font-style="italic" font-size="9.00">DATE </text>
<polygon fill="none" stroke="black" points="114,-348 114,-368 330,-368 330,-348 114,-348"/>
<text text-anchor="start" x="119" y="-356.8" font-family="Verdana" font-weight="bold" font-size="9.00">valid_to</text>
<text text-anchor="start" x="159" y="-356.8" font-family="Verdana" font-size="9.00">: </text>
<text text-anchor="start" x="166" y="-356.8" font-family="Verdana" font-style="italic" font-size="9.00">DATE </text>
<polygon fill="none" stroke="black" points="114,-328 114,-348 330,-348 330,-328 114,-328"/>
<text text-anchor="start" x="119" y="-336.8" font-family="Verdana" font-weight="bold" font-size="9.00">source_code</text>
<text text-anchor="start" x="182" y="-336.8" font-family="Verdana" font-size="9.00">: </text>
<text text-anchor="start" x="189" y="-336.8" font-family="Verdana" font-style="italic" font-size="9.00">VARCHAR(32) </text>
<polygon fill="none" stroke="black" points="114,-308 114,-328 330,-328 330,-308 114,-308"/>
<text text-anchor="start" x="119" y="-316.8" font-family="Verdana" font-weight="bold" font-size="9.00">confidence_code</text>
<text text-anchor="start" x="204" y="-316.8" font-family="Verdana" font-size="9.00">: </text>
<text text-anchor="start" x="211" y="-316.8" font-family="Verdana" font-style="italic" font-size="9.00">VARCHAR(16) &#160;NOT NULL</text>
<polygon fill="none" stroke="black" points="114,-288 114,-308 330,-308 330,-288 114,-288"/>
<text text-anchor="start" x="119" y="-296.8" font-family="Verdana" font-weight="bold" font-size="9.00">created_at</text>
<text text-anchor="start" x="174" y="-296.8" font-family="Verdana" font-size="9.00">: </text>
<text text-anchor="start" x="181" y="-296.8" font-family="Verdana" font-style="italic" font-size="9.00">TIMESTAMPTZ &#160;NOT NULL</text>
</g>
<!-- issuer_classification&#45;&gt;classification_code -->
<g id="edge1" class="edge">
<title>issuer_classification:class_code_id&#45;&gt;classification_code:class_code_id</title>
<path fill="none" stroke="black" d="M113,-398C62.33,-398 93.62,-330.39 114,-284 136.51,-232.76 182.96,-249.01 206,-198 210.04,-189.07 215.61,-177.42 214.92,-170.34"/>
<polygon fill="black" stroke="black" points="216.99,-167.52 207,-164 212.62,-172.98 216.99,-167.52"/>
</g>
<!-- issuer_classification&#45;&gt;issuer -->
<g id="edge2" class="edge">
<title>issuer_classification:issuer_id&#45;&gt;issuer:issuer_id</title>
<path fill="none" stroke="black" d="M331,-418C390.56,-418 363.48,-333.26 330,-284 306.02,-248.71 265.37,-283.02 241,-248 235.13,-239.57 229.79,-226.89 231.72,-219.63"/>
<polygon fill="black" stroke="black" points="233.7,-222.52 240,-214 229.76,-216.73 233.7,-222.52"/>
</g>
</g>
</svg>
