<?xml version="1.0" encoding="UTF-8" standalone="no"?>
<!DOCTYPE svg PUBLIC "-//W3C//DTD SVG 1.1//EN"
 "http://www.w3.org/Graphics/SVG/1.1/DTD/svg11.dtd">
<!-- Generated by graphviz version 2.42.4 (0)
 -->
<!-- Title: ERD Pages: 1 -->
<svg width="527pt" height="828pt"
 viewBox="0.00 0.00 526.91 828.00" xmlns="http://www.w3.org/2000/svg" xmlns:xlink="http://www.w3.org/1999/xlink">
<g id="graph0" class="graph" transform="scale(1 1) rotate(0) translate(4 824)">
<title>ERD</title>
<polygon fill="white" stroke="transparent" points="-4,4 -4,-824 522.91,-824 522.91,4 -4,4"/>
<!-- classification_code -->
<g id="node1" class="node">
<title>classification_code</title>
<polygon fill="lightblue" stroke="transparent" points="8,-522 8,-542 206,-542 206,-522 8,-522"/>
<polygon fill="none" stroke="black" points="8,-522 8,-542 206,-542 206,-522 8,-522"/>
<text text-anchor="start" x="59.5" y="-530.8" font-family="Verdana" font-weight="bold" font-size="9.00">classification_code</text>
<polygon fill="none" stroke="black" points="8,-502 8,-522 206,-522 206,-502 8,-502"/>
<text text-anchor="start" x="13" y="-510.8" font-family="Verdana" font-weight="bold" font-size="9.00">class_code_id</text>
<text text-anchor="start" x="81" y="-510.8" font-family="Verdana" font-size="9.00">: </text>
<text text-anchor="start" x="88" y="-510.8" font-family="Verdana" font-style="italic" font-size="9.00">UUID &#160;NOT NULL</text>
<polygon fill="none" stroke="black" points="8,-482 8,-502 206,-502 206,-482 8,-482"/>
<text text-anchor="start" x="13" y="-490.8" font-family="Verdana" font-weight="bold" font-size="9.00">class_system</text>
<text text-anchor="start" x="80" y="-490.8" font-family="Verdana" font-size="9.00">: </text>
<text text-anchor="start" x="87" y="-490.8" font-family="Verdana" font-style="italic" font-size="9.00">VARCHAR(32) &#160;NOT NULL</text>
<polygon fill="none" stroke="black" points="8,-462 8,-482 206,-482 206,-462 8,-462"/>
<text text-anchor="start" x="13" y="-470.8" font-family="Verdana" font-weight="bold" font-size="9.00">code</text>
<text text-anchor="start" x="38" y="-470.8" font-family="Verdana" font-size="9.00">: </text>
<text text-anchor="start" x="45" y="-470.8" font-family="Verdana" font-style="italic" font-size="9.00">VARCHAR(32) &#160;NOT NULL</text>
<polygon fill="none" stroke="black" points="8,-442 8,-462 206,-462 206,-442 8,-442"/>
<text text-anchor="start" x="13" y="-450.8" font-family="Verdana" font-weight="bold" font-size="9.00">label</text>
<text text-anchor="start" x="38" y="-450.8" font-family="Verdana" font-size="9.00">: </text>
<text text-anchor="start" x="45" y="-450.8" font-family="Verdana" font-style="italic" font-size="9.00">TEXT &#160;NOT NULL</text>
<polygon fill="none" stroke="black" points="8,-422 8,-442 206,-442 206,-422 8,-422"/>
<text text-anchor="start" x="13" y="-430.8" font-family="Verdana" font-weight="bold" font-size="9.00">description</text>
<text text-anchor="start" x="71" y="-430.8" font-family="Verdana" font-size="9.00">: </text>
<text text-anchor="start" x="78" y="-430.8" font-family="Verdana" font-style="italic" font-size="9.00">TEXT </text>
<polygon fill="none" stroke="black" points="8,-402 8,-422 206,-422 206,-402 8,-402"/>
<text text-anchor="start" x="13" y="-410.8" font-family="Verdana" font-weight="bold" font-size="9.00">is_active</text>
<text text-anchor="start" x="57" y="-410.8" font-family="Verdana" font-size="9.00">: </text>
<text text-anchor="start" x="64" y="-410.8" font-family="Verdana" font-style="italic" font-size="9.00">BOOLEAN &#160;NOT NULL</text>
</g>
<!-- classification_system -->
<g id="node2" class="node">
<title>classification_system</title>
<polygon fill="lightblue" stroke="transparent" points="121,-288 121,-308 319,-308 319,-288 121,-288"/>
<polygon fill="none" stroke="black" points="121,-288 121,-308 319,-308 319,-288 121,-288"/>
<text text-anchor="start" x="166" y="-296.8" font-family="Verdana" font-weight="bold" font-size="9.00">classification_system</text>
<polygon fill="none" stroke="black" points="121,-268 121,-288 319,-288 319,-268 121,-268"/>
<text text-anchor="start" x="126" y="-276.8" font-family="Verdana" font-weight="bold" font-size="9.00">class_system</text>
<text text-anchor="start" x="193" y="-276.8" font-family="Verdana" font-size="9.00">: </text>
<text text-anchor="start" x="200" y="-276.8" font-family="Verdana" font-style="italic" font-size="9.00">VARCHAR(32) &#160;NOT NULL</text>
<polygon fill="none" stroke="black" points="121,-248 121,-268 319,-268 319,-248 121,-248"/>
<text text-anchor="start" x="126" y="-256.8" font-family="Verdana" font-weight="bold" font-size="9.00">system_name</text>
<text text-anchor="start" x="196" y="-256.8" font-family="Verdana" font-size="9.00">: </text>
<text text-anchor="start" x="203" y="-256.8" font-family="Verdana" font-style="italic" font-size="9.00">TEXT &#160;NOT NULL</text>
<polygon fill="none" stroke="black" points="121,-228 121,-248 319,-248 319,-228 121,-228"/>
<text text-anchor="start" x="126" y="-236.8" font-family="Verdana" font-weight="bold" font-size="9.00">provider_code</text>
<text text-anchor="start" x="199" y="-236.8" font-family="Verdana" font-size="9.00">: </text>
<text text-anchor="start" x="206" y="-236.8" font-family="Verdana" font-style="italic" font-size="9.00">VARCHAR(32) </text>
<polygon fill="none" stroke="black" points="121,-208 121,-228 319,-228 319,-208 121,-208"/>
<text text-anchor="start" x="126" y="-216.8" font-family="Verdana" font-weight="bold" font-size="9.00">description</text>
<text text-anchor="start" x="184" y="-216.8" font-family="Verdana" font-size="9.00">: </text>
<text text-anchor="start" x="191" y="-216.8" font-family="Verdana" font-style="italic" font-size="9.00">TEXT </text>
<polygon fill="none" stroke="black" points="121,-188 121,-208 319,-208 319,-188 121,-188"/>
<text text-anchor="start" x="126" y="-196.8" font-family="Verdana" font-weight="bold" font-size="9.00">is_active</text>
<text text-anchor="start" x="170" y="-196.8" font-family="Verdana" font-size="9.00">: </text>
<text text-anchor="start" x="177" y="-196.8" font-family="Verdana" font-style="italic" font-size="9.00">BOOLEAN &#160;NOT NULL</text>
</g>
<!-- classification_code&#45;&gt;classification_system -->
<g id="edge1" class="edge">
<title>classification_code:class_system&#45;&gt;classification_system:class_system</title>
<path fill="none" stroke="black" d="M207,-492C227.89,-492 214.04,-417.28 206,-398 185.32,-348.4 142.15,-361.4 121,-312 117.14,-302.99 111.51,-291.37 112.15,-284.31"/>
<polygon fill="black" stroke="black" points="114.4,-286.99 120,-278 110.01,-281.54 114.4,-286.99"/>
</g>
<!-- provider -->
<g id="node5" class="node">
<title>provider</title>
<polygon fill="lightblue" stroke="transparent" points="185,-124 185,-144 389,-144 389,-124 185,-124"/>
<polygon fill="none" stroke="black" points="185,-124 185,-144 389,-144 389,-124 185,-124"/>
<text text-anchor="start" x="265" y="-132.8" font-family="Verdana" font-weight="bold" font-size="9.00">provider</text>
<polygon fill="none" stroke="black" points="185,-104 185,-124 389,-124 389,-104 185,-104"/>
<text text-anchor="start" x="190" y="-112.8" font-family="Verdana" font-weight="bold" font-size="9.00">provider_code</text>
<text text-anchor="start" x="263" y="-112.8" font-family="Verdana" font-size="9.00">: </text>
<text text-anchor="start" x="270" y="-112.8" font-family="Verdana" font-style="italic" font-size="9.00">VARCHAR(32) &#160;NOT NULL</text>
<polygon fill="none" stroke="black" points="185,-84 185,-104 389,-104 389,-84 185,-84"/>
<text text-anchor="start" x="190" y="-92.8" font-family="Verdana" font-weight="bold" font-size="9.00">provider_name</text>
<text text-anchor="start" x="267" y="-92.8" font-family="Verdana" font-size="9.00">: </text>
<text text-anchor="start" x="274" y="-92.8" font-family="Verdana" font-style="italic" font-size="9.00">TEXT &#160;NOT NULL</text>
<polygon fill="none" stroke="black" points="185,-64 185,-84 389,-84 389,-64 185,-64"/>
<text text-anchor="start" x="190" y="-72.8" font-family="Verdana" font-weight="bold" font-size="9.00">provider_type</text>
<text text-anchor="start" x="262" y="-72.8" font-family="Verdana" font-size="9.00">: </text>
<text text-anchor="start" x="269" y="-72.8" font-family="Verdana" font-style="italic" font-size="9.00">VARCHAR(32) &#160;NOT NULL</text>
<polygon fill="none" stroke="black" points="185,-44 185,-64 389,-64 389,-44 185,-44"/>
<text text-anchor="start" x="190" y="-52.8" font-family="Verdana" font-weight="bold" font-size="9.00">website</text>
<text text-anchor="start" x="230" y="-52.8" font-family="Verdana" font-size="9.00">: </text>
<text text-anchor="start" x="237" y="-52.8" font-family="Verdana" font-style="italic" font-size="9.00">TEXT </text>
<polygon fill="none" stroke="black" points="185,-24 185,-44 389,-44 389,-24 185,-24"/>
<text text-anchor="start" x="190" y="-32.8" font-family="Verdana" font-weight="bold" font-size="9.00">description</text>
<text text-anchor="start" x="248" y="-32.8" font-family="Verdana" font-size="9.00">: </text>
<text text-anchor="start" x="255" y="-32.8" font-family="Verdana" font-style="italic" font-size="9.00">TEXT </text>
<polygon fill="none" stroke="black" points="185,-4 185,-24 389,-24 389,-4 185,-4"/>
<text text-anchor="start" x="190" y="-12.8" font-family="Verdana" font-weight="bold" font-size="9.00">is_active</text>
<text text-anchor="start" x="234" y="-12.8" font-family="Verdana" font-size="9.00">: </text>
<text text-anchor="start" x="241" y="-12.8" font-family="Verdana" font-style="italic" font-size="9.00">BOOLEAN &#160;NOT NULL</text>
</g>
<!-- classification_system&#45;&gt;provider -->
<g id="edge2" class="edge">
<title>classification_system:provider_code&#45;&gt;provider:provider_code</title>
<path fill="none" stroke="black" d="M320,-238C344,-238 333.78,-202.91 319,-184 281.02,-135.41 223.24,-196.38 185,-148 178.56,-139.85 173.35,-126.83 175.64,-119.5"/>
<polygon fill="black" stroke="black" points="177.57,-122.42 184,-114 173.72,-116.57 177.57,-122.42"/>
</g>
<!-- issuer -->
<g id="node3" class="node">
<title>issuer</title>
<polygon fill="lightblue" stroke="transparent" points="241,-572 241,-592 432,-592 432,-572 241,-572"/>
<polygon fill="none" stroke="black" points="241,-572 241,-592 432,-592 432,-572 241,-572"/>
<text text-anchor="start" x="321" y="-580.8" font-family="Verdana" font-weight="bold" font-size="9.00">issuer</text>
<polygon fill="none" stroke="black" points="241,-552 241,-572 432,-572 432,-552 241,-552"/>
<text text-anchor="start" x="246" y="-560.8" font-family="Verdana" font-weight="bold" font-size="9.00">issuer_id</text>
<text text-anchor="start" x="292" y="-560.8" font-family="Verdana" font-size="9.00">: </text>
<text text-anchor="start" x="299" y="-560.8" font-family="Verdana" font-style="italic" font-size="9.00">UUID &#160;NOT NULL</text>
<polygon fill="none" stroke="black" points="241,-532 241,-552 432,-552 432,-532 241,-532"/>
<text text-anchor="start" x="246" y="-540.8" font-family="Verdana" font-weight="bold" font-size="9.00">cik</text>
<text text-anchor="start" x="261" y="-540.8" font-family="Verdana" font-size="9.00">: </text>
<text text-anchor="start" x="268" y="-540.8" font-family="Verdana" font-style="italic" font-size="9.00">VARCHAR(10) </text>
<polygon fill="none" stroke="black" points="241,-512 241,-532 432,-532 432,-512 241,-512"/>
<text text-anchor="start" x="246" y="-520.8" font-family="Verdana" font-weight="bold" font-size="9.00">issuer_type</text>
<text text-anchor="start" x="305" y="-520.8" font-family="Verdana" font-size="9.00">: </text>
<text text-anchor="start" x="312" y="-520.8" font-family="Verdana" font-style="italic" font-size="9.00">VARCHAR(32) &#160;NOT NULL</text>
<polygon fill="none" stroke="black" points="241,-492 241,-512 432,-512 432,-492 241,-492"/>
<text text-anchor="start" x="246" y="-500.8" font-family="Verdana" font-weight="bold" font-size="9.00">current_name</text>
<text text-anchor="start" x="318" y="-500.8" font-family="Verdana" font-size="9.00">: </text>
<text text-anchor="start" x="325" y="-500.8" font-family="Verdana" font-style="italic" font-size="9.00">TEXT &#160;NOT NULL</text>
<polygon fill="none" stroke="black" points="241,-472 241,-492 432,-492 432,-472 241,-472"/>
<text text-anchor="start" x="246" y="-480.8" font-family="Verdana" font-weight="bold" font-size="9.00">country_alpha2</text>
<text text-anchor="start" x="325" y="-480.8" font-family="Verdana" font-size="9.00">: </text>
<text text-anchor="start" x="332" y="-480.8" font-family="Verdana" font-style="italic" font-size="9.00">VARCHAR(2) </text>
<polygon fill="none" stroke="black" points="241,-452 241,-472 432,-472 432,-452 241,-452"/>
<text text-anchor="start" x="246" y="-460.8" font-family="Verdana" font-weight="bold" font-size="9.00">sic_code</text>
<text text-anchor="start" x="289" y="-460.8" font-family="Verdana" font-size="9.00">: </text>
<text text-anchor="start" x="296" y="-460.8" font-family="Verdana" font-style="italic" font-size="9.00">VARCHAR(4) </text>
<polygon fill="none" stroke="black" points="241,-432 241,-452 432,-452 432,-432 241,-432"/>
<text text-anchor="start" x="246" y="-440.8" font-family="Verdana" font-weight="bold" font-size="9.00">status</text>
<text text-anchor="start" x="279" y="-440.8" font-family="Verdana" font-size="9.00">: </text>
<text text-anchor="start" x="286" y="-440.8" font-family="Verdana" font-style="italic" font-size="9.00">VARCHAR(24) &#160;NOT NULL</text>
<polygon fill="none" stroke="black" points="241,-412 241,-432 432,-432 432,-412 241,-412"/>
<text text-anchor="start" x="246" y="-420.8" font-family="Verdana" font-weight="bold" font-size="9.00">first_seen</text>
<text text-anchor="start" x="296" y="-420.8" font-family="Verdana" font-size="9.00">: </text>
<text text-anchor="start" x="303" y="-420.8" font-family="Verdana" font-style="italic" font-size="9.00">DATE </text>
<polygon fill="none" stroke="black" points="241,-392 241,-412 432,-412 432,-392 241,-392"/>
<text text-anchor="start" x="246" y="-400.8" font-family="Verdana" font-weight="bold" font-size="9.00">last_seen</text>
<text text-anchor="start" x="294" y="-400.8" font-family="Verdana" font-size="9.00">: </text>
<text text-anchor="start" x="301" y="-400.8" font-family="Verdana" font-style="italic" font-size="9.00">DATE </text>
<polygon fill="none" stroke="black" points="241,-372 241,-392 432,-392 432,-372 241,-372"/>
<text text-anchor="start" x="246" y="-380.8" font-family="Verdana" font-weight="bold" font-size="9.00">created_at</text>
<text text-anchor="start" x="301" y="-380.8" font-family="Verdana" font-size="9.00">: </text>
<text text-anchor="start" x="308" y="-380.8" font-family="Verdana" font-style="italic" font-size="9.00">TIMESTAMPTZ &#160;NOT NULL</text>
<polygon fill="none" stroke="black" points="241,-352 241,-372 432,-372 432,-352 241,-352"/>
<text text-anchor="start" x="246" y="-360.8" font-family="Verdana" font-weight="bold" font-size="9.00">updated_at</text>
<text text-anchor="start" x="305" y="-360.8" font-family="Verdana" font-size="9.00">: </text>
<text text-anchor="start" x="312" y="-360.8" font-family="Verdana" font-style="italic" font-size="9.00">TIMESTAMPTZ &#160;NOT NULL</text>
</g>
<!-- issuer_classification -->
<g id="node4" class="node">
<title>issuer_classification</title>
<polygon fill="lightblue" stroke="transparent" points="229,-796 229,-816 445,-816 445,-796 229,-796"/>
<polygon fill="none" stroke="black" points="229,-796 229,-816 445,-816 445,-796 229,-796"/>
<text text-anchor="start" x="286" y="-804.8" font-family="Verdana" font-weight="bold" font-size="9.00">issuer_classification</text>
<polygon fill="none" stroke="black" points="229,-776 229,-796 445,-796 445,-776 229,-776"/>
<text text-anchor="start" x="234" y="-784.8" font-family="Verdana" font-weight="bold" font-size="9.00">issuer_class_id</text>
<text text-anchor="start" x="309" y="-784.8" font-family="Verdana" font-size="9.00">: </text>
<text text-anchor="start" x="316" y="-784.8" font-family="Verdana" font-style="italic" font-size="9.00">UUID &#160;NOT NULL</text>
<polygon fill="none" stroke="black" points="229,-756 229,-776 445,-776 445,-756 229,-756"/>
<text text-anchor="start" x="234" y="-764.8" font-family="Verdana" font-weight="bold" font-size="9.00">issuer_id</text>
<text text-anchor="start" x="280" y="-764.8" font-family="Verdana" font-size="9.00">: </text>
<text text-anchor="start" x="287" y="-764.8" font-family="Verdana" font-style="italic" font-size="9.00">UUID &#160;NOT NULL</text>
<polygon fill="none" stroke="black" points="229,-736 229,-756 445,-756 445,-736 229,-736"/>
<text text-anchor="start" x="234" y="-744.8" font-family="Verdana" font-weight="bold" font-size="9.00">class_code_id</text>
<text text-anchor="start" x="302" y="-744.8" font-family="Verdana" font-size="9.00">: </text>
<text text-anchor="start" x="309" y="-744.8" font-family="Verdana" font-style="italic" font-size="9.00">UUID &#160;NOT NULL</text>
<polygon fill="none" stroke="black" points="229,-716 229,-736 445,-736 445,-716 229,-716"/>
<text text-anchor="start" x="234" y="-724.8" font-family="Verdana" font-weight="bold" font-size="9.00">valid_from</text>
<text text-anchor="start" x="288" y="-724.8" font-family="Verdana" font-size="9.00">: </text>
<text text-anchor="start" x="295" y="-724.8" font-family="Verdana" font-style="italic" font-size="9.00">DATE </text>
<polygon fill="none" stroke="black" points="229,-696 229,-716 445,-716 445,-696 229,-696"/>
<text text-anchor="start" x="234" y="-704.8" font-family="Verdana" font-weight="bold" font-size="9.00">valid_to</text>
<text text-anchor="start" x="274" y="-704.8" font-family="Verdana" font-size="9.00">: </text>
<text text-anchor="start" x="281" y="-704.8" font-family="Verdana" font-style="italic" font-size="9.00">DATE </text>
<polygon fill="none" stroke="black" points="229,-676 229,-696 445,-696 445,-676 229,-676"/>
<text text-anchor="start" x="234" y="-684.8" font-family="Verdana" font-weight="bold" font-size="9.00">provider_code</text>
<text text-anchor="start" x="307" y="-684.8" font-family="Verdana" font-size="9.00">: </text>
<text text-anchor="start" x="314" y="-684.8" font-family="Verdana" font-style="italic" font-size="9.00">VARCHAR(32) </text>
<polygon fill="none" stroke="black" points="229,-656 229,-676 445,-676 445,-656 229,-656"/>
<text text-anchor="start" x="234" y="-664.8" font-family="Verdana" font-weight="bold" font-size="9.00">confidence_code</text>
<text text-anchor="start" x="319" y="-664.8" font-family="Verdana" font-size="9.00">: </text>
<text text-anchor="start" x="326" y="-664.8" font-family="Verdana" font-style="italic" font-size="9.00">VARCHAR(16) &#160;NOT NULL</text>
<polygon fill="none" stroke="black" points="229,-636 229,-656 445,-656 445,-636 229,-636"/>
<text text-anchor="start" x="234" y="-644.8" font-family="Verdana" font-weight="bold" font-size="9.00">created_at</text>
<text text-anchor="start" x="289" y="-644.8" font-family="Verdana" font-size="9.00">: </text>
<text text-anchor="start" x="296" y="-644.8" font-family="Verdana" font-style="italic" font-size="9.00">TIMESTAMPTZ &#160;NOT NULL</text>
</g>
<!-- issuer_classification&#45;&gt;classification_code -->
<g id="edge3" class="edge">
<title>issuer_classification:class_code_id&#45;&gt;classification_code:class_code_id</title>
<path fill="none" stroke="black" d="M228,-746C204.75,-746 226.96,-560.39 213.66,-519.79"/>
<polygon fill="black" stroke="black" points="216.16,-517.32 207,-512 210.84,-521.87 216.16,-517.32"/>
</g>
<!-- issuer_classification&#45;&gt;issuer -->
<g id="edge4" class="edge">
<title>issuer_classification:issuer_id&#45;&gt;issuer:issuer_id</title>
<path fill="none" stroke="black" d="M228,-766C168.44,-766 190.57,-677.5 229,-632 288.13,-562 372.11,-665.35 432,-596 438.79,-588.13 443.86,-575.01 441.46,-567.58"/>
<polygon fill="black" stroke="black" points="443.27,-564.59 433,-562 439.42,-570.43 443.27,-564.59"/>
</g>
<!-- issuer_classification&#45;&gt;provider -->
<g id="edge5" class="edge">
<title>issuer_classification:provider_code&#45;&gt;provider:provider_code</title>
<path fill="none" stroke="black" d="M446,-686C570.35,-686 520.54,-143.77 399.95,-115.17"/>
<polygon fill="black" stroke="black" points="400.34,-111.69 390,-114 399.52,-118.65 400.34,-111.69"/>
</g>
</g>
</svg>
