<?xml version="1.0" encoding="UTF-8"?>
<svg id="a" data-name="01 main" xmlns="http://www.w3.org/2000/svg" viewBox="0 0 500 500">
  <defs>
    <style>
      .l {
        fill: #2b2b2b;
      }
    </style>
  </defs>
  <g id="b" data-name="g1">
    <g id="c" data-name="g2">
      <path id="d" data-name="p1" class="l" d="M133.8,57.83C172.6,38.52,211.42,19.25,250.26,0c38.8,19.41,77.61,38.79,116.4,58.21-4.25,6.18-8.51,12.37-12.84,18.51-34.53-17.22-69.06-34.44-103.62-51.63-34.51,17.23-69.04,34.45-103.59,51.62-4.28-6.29-8.52-12.6-12.81-18.88h0Z"/>
      <path id="e" data-name="p2" class="l" d="M178.28,91.42c23.79-12.89,47.66-25.69,71.45-38.57,23.87,12.82,47.67,25.72,71.54,38.55-2.38,3.31-4.75,6.62-7.16,9.91-11.99-5.99-23.94-12.03-35.94-18-3.85,31.25-7.97,62.48-11.72,93.73,16,8.11,32.09,16.1,48.13,24.15,29.28-18.56,58.58-37.1,87.87-55.66-11.96-6.01-23.93-12.02-35.91-18.01,2.1-3.43,4.09-6.92,6.24-10.33,24.74,11.52,49.55,22.93,74.28,34.47-.92,24.33-1.87,48.66-2.83,72.99-4.45-.18-8.9-.26-13.35-.44,0-12,0-24,0-36-33.23,12.69-66.48,25.35-99.69,38.08,0,15.95,0,31.9,0,47.85,33.22,12.69,66.45,25.38,99.69,38.07v-36.01c4.44-.15,8.89-.29,13.34-.41.97,24.34,1.95,48.68,2.82,73.02-24.77,11.47-49.53,22.95-74.29,34.43-2.04-3.46-4.17-6.88-6.18-10.36,11.99-5.96,23.93-11.99,35.9-17.98-29.44-18.69-58.89-37.38-88.34-56.07-16.07,8.04-32.15,16.08-48.2,24.15,4.07,31.38,8.2,62.75,12.26,94.13,12-5.97,23.95-12.02,35.95-18,2.4,3.29,4.77,6.59,7.15,9.89-23.67,12.86-47.34,25.7-71,38.55-24.01-12.83-48-25.69-71.98-38.56,2.39-3.3,4.74-6.62,7.17-9.9,12.12,6.01,24.24,12.04,36.39,18.02,3.9-31.39,7.85-62.78,11.75-94.17.21-.49-.46-.6-.79-.81-15.64-7.75-31.25-15.56-46.9-23.31-29.45,18.69-58.9,37.37-88.34,56.08,11.97,6.15,23.93,12.29,35.91,18.42-2.22,3.44-4.45,6.88-6.67,10.32-24.63-11.47-49.26-22.93-73.85-34.46.78-24.33,1.54-48.67,2.38-72.99,4.57.17,9.15.27,13.73.43,0,12.02,0,24.03,0,36.05,33.25-12.72,66.53-25.38,99.77-38.12,0-16.08,0-32.17,0-48.25-33.24-12.74-66.51-25.41-99.77-38.11v36.03c-4.57.17-9.16.26-13.73.43-.82-24.21-1.65-48.42-2.35-72.63,24.61-11.59,49.19-23.22,73.79-34.82,2.27,3.42,4.45,6.88,6.7,10.31-11.98,6-23.96,12-35.93,18.02,29.14,18.55,58.27,37.11,87.41,55.66,16.2-8.05,32.44-16.04,48.6-24.15-3.75-31.25-7.87-62.49-11.72-93.73-12.15,5.98-24.26,12.01-36.4,18-2.43-3.27-4.77-6.59-7.16-9.88h0Z"/>
      <path id="f" data-name="p3" class="l" d="M.04,124.92c38.79-19.34,77.55-38.73,116.29-58.14,4.38,6.12,8.61,12.33,12.83,18.53-34.69,17.35-69.37,34.7-104.07,52.04-.02,34.55,0,69.1-.01,103.65-8.36.01-16.71,0-25.07,0,.02-38.69-.04-77.39.03-116.08Z"/>
      <path id="g" data-name="p4" class="l" d="M371.27,85.71c4.25-6.32,8.55-12.61,12.81-18.92,38.65,19.36,77.22,38.81,115.88,58.14.08,38.69.01,77.39.03,116.08-8.36,0-16.72,0-25.07,0-.02-34.55,0-69.1-.01-103.64-34.56-17.2-69.09-34.44-103.64-51.65h0Z"/>
      <path id="h" data-name="p5" class="l" d="M0,258.59h25.07v103.56c35.61,18.09,73.22,36.7,104.11,52.14-4.22,6.33-8.54,12.6-12.77,18.92C77.58,413.89,38.86,394.4.04,375.07c-.07-38.83-.02-77.65-.03-116.48Z"/>
      <path id="i" data-name="p6" class="l" d="M474.92,258.59h25.07c-.02,38.83.05,77.66-.03,116.48-38.66,19.33-77.24,38.79-115.88,58.14-4.27-6.31-8.56-12.61-12.81-18.92,34.52-17.4,69.2-34.65,103.63-52.15.04-34.52,0-69.04.02-103.56h0Z"/>
      <path id="j" data-name="p7" class="l" d="M133.81,441.79c4.27-6.31,8.53-12.62,12.82-18.92,34.52,17.35,69.07,34.67,103.57,52.04,34.56-17.32,69.09-34.69,103.64-52.05,4.29,6.3,8.57,12.6,12.82,18.92-38.79,19.43-77.6,38.81-116.4,58.22-38.83-19.38-77.64-38.81-116.45-58.21h0Z"/>
    </g>
  </g>
</svg>