<?xml version="1.0" encoding="UTF-8"?>
<svg id="a" data-name="01 main" xmlns="http://www.w3.org/2000/svg" viewBox="0 0 560.61 367.2">
  <defs>
    <style>
      .l {
        fill: #8b0000;
      }
    </style>
  </defs>
  <g id="b" data-name="g1">
    <g id="c" data-name="g2">
      <path id="d" data-name="p1" class="l" d="M223.57,27.53c18.47-9.19,36.95-18.36,55.43-27.53,18.47,9.24,36.94,18.47,55.41,27.71-2.02,2.94-4.05,5.89-6.11,8.81-16.44-8.2-32.87-16.4-49.32-24.58-16.43,8.2-32.86,16.4-49.31,24.57-2.04-2.99-4.05-6-6.1-8.99h0Z"/>
      <path id="e" data-name="p2" class="l" d="M244.74,43.52c11.33-6.14,22.68-12.23,34.01-18.36,11.36,6.1,22.69,12.24,34.05,18.35-1.13,1.57-2.26,3.15-3.41,4.72-5.71-2.85-11.4-5.73-17.11-8.57-1.83,14.87-3.79,29.74-5.58,44.61,7.61,3.86,15.27,7.66,22.91,11.49,13.94-8.84,27.89-17.66,41.82-26.5-5.69-2.86-11.39-5.72-17.09-8.57,1-1.63,1.95-3.29,2.97-4.92,11.78,5.48,23.59,10.92,35.36,16.41-.44,11.58-.89,23.16-1.35,34.75-2.12-.09-4.24-.12-6.35-.21,0-5.71,0-11.42,0-17.14-15.82,6.04-31.65,12.07-47.45,18.13,0,7.59,0,15.18,0,22.78,15.81,6.04,31.63,12.08,47.45,18.12v-17.14c2.12-.07,4.23-.14,6.35-.19.46,11.58.93,23.17,1.34,34.76-11.79,5.46-23.58,10.92-35.36,16.39-.97-1.65-1.99-3.28-2.94-4.93,5.71-2.84,11.39-5.71,17.09-8.56-14.01-8.9-28.03-17.79-42.05-26.69-7.65,3.83-15.3,7.65-22.94,11.5,1.94,14.94,3.9,29.87,5.84,44.81,5.71-2.84,11.4-5.72,17.11-8.57,1.14,1.57,2.27,3.14,3.4,4.71-11.26,6.12-22.53,12.23-33.8,18.35-11.43-6.11-22.85-12.23-34.26-18.35,1.14-1.57,2.26-3.15,3.41-4.71,5.77,2.86,11.54,5.73,17.32,8.58,1.86-14.94,3.74-29.88,5.59-44.82.1-.23-.22-.29-.37-.39-7.44-3.69-14.87-7.41-22.32-11.1-14.02,8.9-28.04,17.79-42.05,26.69,5.7,2.93,11.39,5.85,17.1,8.77-1.06,1.64-2.12,3.27-3.17,4.91-11.72-5.46-23.45-10.91-35.15-16.4.37-11.58.73-23.16,1.13-34.75,2.18.08,4.36.13,6.54.2,0,5.72,0,11.44,0,17.16,15.83-6.06,31.67-12.08,47.49-18.14,0-7.66,0-15.31,0-22.97-15.82-6.06-31.66-12.09-47.49-18.14v17.15c-2.18.08-4.36.12-6.54.2-.39-11.52-.78-23.05-1.12-34.57,11.71-5.52,23.41-11.05,35.12-16.57,1.08,1.63,2.12,3.28,3.19,4.91-5.7,2.85-11.4,5.71-17.1,8.58,13.87,8.83,27.74,17.67,41.61,26.49,7.71-3.83,15.44-7.63,23.13-11.49-1.78-14.87-3.75-29.74-5.58-44.62-5.78,2.85-11.55,5.72-17.33,8.57-1.16-1.56-2.27-3.14-3.41-4.7h0Z"/>
      <path id="f" data-name="p3" class="l" d="M159.9,59.46c18.46-9.21,36.91-18.44,55.35-27.68,2.09,2.91,4.1,5.87,6.11,8.82-16.51,8.26-33.02,16.52-49.54,24.77,0,16.45,0,32.89,0,49.34-3.98,0-7.95,0-11.93,0,.01-18.42-.02-36.84.02-55.25Z"/>
      <path id="g" data-name="p4" class="l" d="M336.61,40.8c2.02-3.01,4.07-6,6.1-9.01,18.4,9.21,36.76,18.47,55.16,27.68.04,18.42,0,36.84.02,55.25-3.98,0-7.96,0-11.93,0,0-16.44,0-32.89,0-49.33-16.45-8.19-32.89-16.39-49.33-24.58h0Z"/>
      <path id="h" data-name="p5" class="l" d="M159.89,123.09h11.94v49.29c16.95,8.61,34.85,17.47,49.55,24.82-2.01,3.01-4.06,6-6.08,9-18.49-9.19-36.91-18.47-55.4-27.67-.03-18.48,0-36.96-.01-55.44Z"/>
      <path id="i" data-name="p6" class="l" d="M385.94,123.09h11.94c0,18.48.02,36.97-.01,55.45-18.4,9.2-36.76,18.46-55.16,27.68-2.03-3-4.07-6-6.1-9.01,16.43-8.28,32.94-16.49,49.33-24.82.02-16.43,0-32.86,0-49.29h0Z"/>
      <path id="j" data-name="p7" class="l" d="M223.57,210.29c2.03-3,4.06-6.01,6.1-9.01,16.43,8.26,32.88,16.5,49.3,24.77,16.45-8.25,32.89-16.51,49.33-24.77,2.04,3,4.08,6,6.1,9.01-18.46,9.25-36.94,18.47-55.41,27.71-18.48-9.22-36.95-18.47-55.43-27.71h0Z"/>
    </g>
  </g>
  <g>
    <path class="l" d="M11.9,276.05h-.34c-.11-2.52-1.06-4.61-2.85-6.25-1.79-1.65-3.97-2.47-6.54-2.47H0v-1.65h13.07l-1.17,10.37ZM11.9,354.04l1.17,10.37H0v-1.65h2.18c2.57,0,4.75-.85,6.54-2.55,1.79-1.7,2.74-3.76,2.85-6.17h.34ZM31.17,265.68v98.73H11.56v-98.73h19.61ZM73.58,265.68v6.09H30.84v-6.09h42.74ZM65.87,312.24v6.09H30.84v-6.09h35.03ZM72.4,358.32l2.51,6.09H30.84v-6.09h41.56ZM82.63,336.43l-7.38,27.97h-27.82l5.36-6.09c5.14,0,9.52-.91,13.16-2.71,3.63-1.81,6.68-4.36,9.13-7.65,2.46-3.29,4.47-7.13,6.03-11.52h1.51ZM65.87,299.9v12.67h-12.57v-.33c3.46,0,6.14-1.04,8.04-3.13,1.9-2.08,2.85-4.66,2.85-7.73v-1.48h1.68ZM65.87,318v12.83h-1.68v-1.48c0-3.07-.95-5.65-2.85-7.73-1.9-2.08-4.58-3.18-8.04-3.29v-.33h12.57ZM73.58,263.05v4.28l-18.1-1.65c3.24,0,6.7-.3,10.39-.9,3.69-.6,6.26-1.18,7.71-1.73ZM73.58,271.27v15.47h-1.84v-1.81c0-3.95-1.12-7.13-3.35-9.54-2.24-2.41-5.42-3.62-9.55-3.62v-.49h14.75Z"/>
    <path class="l" d="M98.21,353.71v10.7h-16.76v-1.65h2.35c2.79,0,5.25-.79,7.37-2.39,2.12-1.59,3.41-3.81,3.85-6.66h3.18ZM108.1,263.54h1.34l5.03,13.82-10.56,87.04h-10.39l14.58-100.86ZM104.75,356.18c-.11,1.32.28,2.74,1.17,4.28.89,1.54,2.51,2.36,4.86,2.47h2.35v1.48h-9.89l.67-8.23h.84ZM109.44,263.54l48.44,77.17-7.37,26.49-44.75-72.56,3.69-31.1ZM199.61,263.54l1.51,14.81-43.07,72.23c-1.9,3.51-3.33,6.56-4.27,9.13-.95,2.58-1.54,5.07-1.76,7.49h-1.51l-5.2-12.34,54.3-91.32ZM193.58,356.18h1l.67,8.23h-9.89v-1.48h2.35c2.57-.11,4.25-.93,5.03-2.47.78-1.54,1.06-2.96.84-4.28ZM201.12,263.54l15.08,100.86h-21.45l-9.22-67.63,14.08-33.24h1.51ZM211.17,353.71h3.35c.45,2.85,1.73,5.08,3.86,6.66,2.12,1.59,4.52,2.39,7.21,2.39h2.51v1.65h-16.93v-10.7Z"/>
    <path class="l" d="M241.51,276.05h-.34c-.11-2.52-1.06-4.61-2.85-6.25-1.79-1.65-3.97-2.47-6.54-2.47h-2.18v-1.65h13.07l-1.17,10.37ZM241.51,354.04l1.17,10.37h-12.91v-1.65h2.01c2.57,0,4.75-.85,6.54-2.55,1.79-1.7,2.74-3.76,2.85-6.17h.34ZM260.78,265.68v98.73h-19.61v-98.73h19.61ZM275.87,265.68c8.49,0,15.59,1.18,21.29,3.54,5.7,2.36,9.97,5.62,12.82,9.79,2.85,4.17,4.33,8.89,4.44,14.15.22,6.47-1.09,12.04-3.94,16.7-2.85,4.66-6.65,8.26-11.4,10.78-4.75,2.53-10,3.68-15.75,3.46-5.76-.22-11.37-1.97-16.84-5.27v-1.48c2.68.22,5.11.17,7.29-.16s4.47-1.01,6.87-2.06c2.4-1.04,4.66-2.71,6.79-5.02,2.12-2.3,3.8-5.43,5.03-9.38.34-1.42.59-2.93.75-4.53.17-1.59.25-3.04.25-4.36-.11-6.25-2.12-11.19-6.03-14.81-3.91-3.62-9.33-5.43-16.26-5.43h-10.73c-.56-1.97-1.12-3.95-1.68-5.92h17.09ZM260.28,354.04h.33c.11,2.41,1.03,4.47,2.77,6.17,1.73,1.7,3.94,2.55,6.62,2.55h2.18l-.17,1.65h-12.91l1.17-10.37Z"/>
    <path class="l" d="M334.19,276.05h-.5c0-2.52-1-4.61-3.02-6.25-2.01-1.65-4.42-2.47-7.21-2.47h-2.18v-1.65h12.91v10.37ZM334.19,354.04v10.37h-12.91v-1.65h2.18c2.79,0,5.2-.85,7.21-2.55,2.01-1.7,3.02-3.76,3.02-6.17h.5ZM353.3,265.68v98.73h-19.61v-98.73h19.61ZM352.79,276.05v-10.37h12.91l-.17,1.65h-1.84c-2.91,0-5.34.82-7.29,2.47-1.96,1.65-2.99,3.73-3.1,6.25h-.5ZM352.79,354.04h.5c.11,2.41,1.14,4.47,3.1,6.17,1.95,1.7,4.38,2.55,7.29,2.55h2.01v1.65h-12.91v-10.37Z"/>
    <path class="l" d="M386.48,276.05h-.33c-.11-2.52-1.03-4.61-2.77-6.25-1.73-1.65-3.83-2.47-6.28-2.47h-2.18v-1.65h12.74l-1.17,10.37ZM386.48,354.04l1.17,10.37h-12.74v-1.65h2.01c2.57,0,4.72-.85,6.45-2.55,1.73-1.7,2.65-3.76,2.77-6.17h.33ZM405.75,265.68v98.73h-19.78v-98.73h19.78ZM423.18,265.68c4.92,0,9.52.49,13.83,1.48,4.3.99,8.1,2.55,11.4,4.69,3.29,2.14,5.87,4.91,7.71,8.31,1.84,3.4,2.77,7.51,2.77,12.34,0,4.06-.9,8.04-2.68,11.93-1.79,3.89-4.47,7.19-8.04,9.87-3.58,2.69-8.04,4.36-13.41,5.02,2.79.88,5.62,2.74,8.46,5.59,2.85,2.85,5.05,5.54,6.62,8.06.33.55,1.14,1.78,2.43,3.7,1.28,1.92,2.88,4.17,4.78,6.75,1.9,2.58,3.85,5.13,5.87,7.65,2.23,2.85,4.24,5.13,6.03,6.83,1.79,1.7,3.66,2.94,5.61,3.7,1.95.77,4.16,1.15,6.62,1.15v1.65h-11.06c-6.03,0-11.12-.55-15.25-1.65-4.13-1.1-7.63-2.8-10.47-5.1-2.85-2.3-5.45-5.16-7.79-8.56-.78-1.21-1.82-2.85-3.1-4.94-1.29-2.08-2.6-4.25-3.94-6.5-1.34-2.25-2.57-4.39-3.69-6.42-1.12-2.03-1.84-3.59-2.18-4.69-1.68-3.29-3.63-5.81-5.87-7.57-2.24-1.75-4.42-2.69-6.54-2.8v-1.48c.11,0,.73.03,1.84.08,1.12.06,2.51.03,4.19-.08,2.57-.11,5.17-.49,7.79-1.15,2.62-.66,5-2.08,7.12-4.28,2.12-2.19,3.74-5.59,4.86-10.2.33-.88.59-1.97.75-3.29.17-1.32.19-2.8.08-4.44-.11-3.73-.78-6.83-2.01-9.3-1.23-2.47-2.79-4.41-4.69-5.84-1.9-1.42-3.97-2.47-6.2-3.13-2.24-.66-4.36-1.04-6.37-1.15-3.24-.11-6.09-.14-8.55-.08-2.46.06-3.97.08-4.53.08-.11-.11-.28-.66-.5-1.65-.22-.99-.56-2.52-1-4.61h19.11ZM405.42,354.04h.33c.11,2.52,1.12,4.61,3.02,6.25,1.9,1.65,4.02,2.47,6.37,2.47h1.84l.17,1.65h-12.91l1.17-10.37Z"/>
    <path class="l" d="M489.89,276.05h-.34c-.11-2.52-1.06-4.61-2.85-6.25-1.79-1.65-3.97-2.47-6.54-2.47h-2.18v-1.65h13.07l-1.17,10.37ZM489.89,354.04l1.17,10.37h-13.07v-1.65h2.18c2.57,0,4.75-.85,6.54-2.55,1.79-1.7,2.74-3.76,2.85-6.17h.34ZM509.16,265.68v98.73h-19.61v-98.73h19.61ZM551.56,265.68v6.09h-42.74v-6.09h42.74ZM543.85,312.24v6.09h-35.03v-6.09h35.03ZM550.39,358.32l2.51,6.09h-44.08v-6.09h41.56ZM560.61,336.43l-7.38,27.97h-27.82l5.36-6.09c5.14,0,9.52-.91,13.16-2.71,3.63-1.81,6.68-4.36,9.13-7.65,2.46-3.29,4.47-7.13,6.03-11.52h1.51ZM543.85,299.9v12.67h-12.57v-.33c3.46,0,6.14-1.04,8.04-3.13,1.9-2.08,2.85-4.66,2.85-7.73v-1.48h1.68ZM543.85,318v12.83h-1.68v-1.48c0-3.07-.95-5.65-2.85-7.73-1.9-2.08-4.58-3.18-8.04-3.29v-.33h12.57ZM551.56,263.05v4.28l-18.1-1.65c3.24,0,6.7-.3,10.39-.9,3.69-.6,6.26-1.18,7.71-1.73ZM551.56,271.27v15.47h-1.84v-1.81c0-3.95-1.12-7.13-3.35-9.54-2.24-2.41-5.42-3.62-9.55-3.62v-.49h14.75Z"/>
  </g>
</svg>