<?xml version="1.0" encoding="UTF-8" standalone="no"?>
<!DOCTYPE svg PUBLIC "-//W3C//DTD SVG 1.1//EN"
 "http://www.w3.org/Graphics/SVG/1.1/DTD/svg11.dtd">
<!-- Generated by graphviz version 2.42.4 (0)
 -->
<!-- Title: schema_relations Pages: 1 -->
<svg width="395pt" height="72pt"
 viewBox="0.00 0.00 395.00 72.00" xmlns="http://www.w3.org/2000/svg" xmlns:xlink="http://www.w3.org/1999/xlink">
<g id="graph0" class="graph" transform="scale(1 1) rotate(0) translate(18 54)">
<title>schema_relations</title>
<!-- security -->
<g id="node1" class="node">
<title>security</title>
<path fill="#f8fafc" stroke="#334155" d="M47,-36C47,-36 12,-36 12,-36 6,-36 0,-30 0,-24 0,-24 0,-12 0,-12 0,-6 6,0 12,0 12,0 47,0 47,0 53,0 59,-6 59,-12 59,-12 59,-24 59,-24 59,-30 53,-36 47,-36"/>
<text text-anchor="middle" x="29.5" y="-15.2" font-family="Helvetica,sans-Serif" font-size="11.00">security</text>
</g>
<!-- security_identifier -->
<g id="node2" class="node">
<title>security_identifier</title>
<path fill="#f8fafc" stroke="#334155" d="M347,-36C347,-36 258,-36 258,-36 252,-36 246,-30 246,-24 246,-24 246,-12 246,-12 246,-6 252,0 258,0 258,0 347,0 347,0 353,0 359,-6 359,-12 359,-12 359,-24 359,-24 359,-30 353,-36 347,-36"/>
<text text-anchor="middle" x="302.5" y="-15.2" font-family="Helvetica,sans-Serif" font-size="11.00">security_identifier</text>
</g>
<!-- security&#45;&gt;security_identifier -->
<g id="edge1" class="edge">
<title>security&#45;&gt;security_identifier</title>
<path fill="none" stroke="#64748b" d="M59.25,-18C101.7,-18 182.24,-18 238.76,-18"/>
<polygon fill="#64748b" stroke="#64748b" points="238.88,-20.45 245.88,-18 238.88,-15.55 238.88,-20.45"/>
<text text-anchor="middle" x="152.5" y="-20.6" font-family="Helvetica,sans-Serif" font-size="8.00">fk_security_identifier_security</text>
</g>
</g>
</svg>
