<?xml version="1.0" encoding="UTF-8" standalone="no"?>
<!DOCTYPE svg PUBLIC "-//W3C//DTD SVG 1.1//EN"
 "http://www.w3.org/Graphics/SVG/1.1/DTD/svg11.dtd">
<!-- Generated by graphviz version 2.42.4 (0)
 -->
<!-- Title: schema_relations Pages: 1 -->
<svg width="430pt" height="230pt"
 viewBox="0.00 0.00 430.00 230.00" xmlns="http://www.w3.org/2000/svg" xmlns:xlink="http://www.w3.org/1999/xlink">
<g id="graph0" class="graph" transform="scale(1 1) rotate(0) translate(18 212)">
<title>schema_relations</title>
<!-- identifier_type -->
<g id="node1" class="node">
<title>identifier_type</title>
<path fill="#f8fafc" stroke="#334155" d="M81,-194C81,-194 12,-194 12,-194 6,-194 0,-188 0,-182 0,-182 0,-170 0,-170 0,-164 6,-158 12,-158 12,-158 81,-158 81,-158 87,-158 93,-164 93,-170 93,-170 93,-182 93,-182 93,-188 87,-194 81,-194"/>
<text text-anchor="middle" x="46.5" y="-173.2" font-family="Helvetica,sans-Serif" font-size="11.00">identifier_type</text>
</g>
<!-- security_identifier -->
<g id="node4" class="node">
<title>security_identifier</title>
<path fill="#f8fafc" stroke="#334155" d="M382,-115C382,-115 293,-115 293,-115 287,-115 281,-109 281,-103 281,-103 281,-91 281,-91 281,-85 287,-79 293,-79 293,-79 382,-79 382,-79 388,-79 394,-85 394,-91 394,-91 394,-103 394,-103 394,-109 388,-115 382,-115"/>
<text text-anchor="middle" x="337.5" y="-94.2" font-family="Helvetica,sans-Serif" font-size="11.00">security_identifier</text>
</g>
<!-- identifier_type&#45;&gt;security_identifier -->
<g id="edge1" class="edge">
<title>identifier_type&#45;&gt;security_identifier</title>
<path fill="none" stroke="#64748b" d="M93.29,-163.48C142.06,-150.15 219.56,-128.97 273.93,-114.1"/>
<polygon fill="#64748b" stroke="#64748b" points="274.67,-116.44 280.78,-112.23 273.38,-111.71 274.67,-116.44"/>
<text text-anchor="middle" x="187" y="-154.6" font-family="Helvetica,sans-Serif" font-size="8.00">fk_security_identifier_type</text>
</g>
<!-- provider -->
<g id="node2" class="node">
<title>provider</title>
<path fill="#f8fafc" stroke="#334155" d="M64.5,-115C64.5,-115 28.5,-115 28.5,-115 22.5,-115 16.5,-109 16.5,-103 16.5,-103 16.5,-91 16.5,-91 16.5,-85 22.5,-79 28.5,-79 28.5,-79 64.5,-79 64.5,-79 70.5,-79 76.5,-85 76.5,-91 76.5,-91 76.5,-103 76.5,-103 76.5,-109 70.5,-115 64.5,-115"/>
<text text-anchor="middle" x="46.5" y="-94.2" font-family="Helvetica,sans-Serif" font-size="11.00">provider</text>
</g>
<!-- provider&#45;&gt;security_identifier -->
<g id="edge2" class="edge">
<title>provider&#45;&gt;security_identifier</title>
<path fill="none" stroke="#64748b" d="M76.53,-97C122.34,-97 212.43,-97 273.56,-97"/>
<polygon fill="#64748b" stroke="#64748b" points="273.87,-99.45 280.87,-97 273.87,-94.55 273.87,-99.45"/>
<text text-anchor="middle" x="187" y="-99.6" font-family="Helvetica,sans-Serif" font-size="8.00">fk_security_identifier_provider</text>
</g>
<!-- security -->
<g id="node3" class="node">
<title>security</title>
<path fill="#f8fafc" stroke="#334155" d="M64,-36C64,-36 29,-36 29,-36 23,-36 17,-30 17,-24 17,-24 17,-12 17,-12 17,-6 23,0 29,0 29,0 64,0 64,0 70,0 76,-6 76,-12 76,-12 76,-24 76,-24 76,-30 70,-36 64,-36"/>
<text text-anchor="middle" x="46.5" y="-15.2" font-family="Helvetica,sans-Serif" font-size="11.00">security</text>
</g>
<!-- security&#45;&gt;security_identifier -->
<g id="edge3" class="edge">
<title>security&#45;&gt;security_identifier</title>
<path fill="none" stroke="#64748b" d="M76,-25.79C121.73,-38.29 212.57,-63.12 273.95,-79.9"/>
<polygon fill="#64748b" stroke="#64748b" points="273.51,-82.32 280.91,-81.8 274.8,-77.59 273.51,-82.32"/>
<text text-anchor="middle" x="187" y="-73.6" font-family="Helvetica,sans-Serif" font-size="8.00">fk_security_identifier_security</text>
</g>
</g>
</svg>
