<?xml version="1.0" encoding="UTF-8" standalone="no"?>
<!DOCTYPE svg PUBLIC "-//W3C//DTD SVG 1.1//EN"
 "http://www.w3.org/Graphics/SVG/1.1/DTD/svg11.dtd">
<!-- Generated by graphviz version 2.42.4 (0)
 -->
<!-- Title: ERD Pages: 1 -->
<svg width="276pt" height="500pt"
 viewBox="0.00 0.00 276.12 500.00" xmlns="http://www.w3.org/2000/svg" xmlns:xlink="http://www.w3.org/1999/xlink">
<g id="graph0" class="graph" transform="scale(1 1) rotate(0) translate(4 496)">
<title>ERD</title>
<polygon fill="white" stroke="transparent" points="-4,4 -4,-496 272.12,-496 272.12,4 -4,4"/>
<!-- security -->
<g id="node1" class="node">
<title>security</title>
<polygon fill="lightblue" stroke="transparent" points="8,-224 8,-244 254,-244 254,-224 8,-224"/>
<polygon fill="none" stroke="black" points="8,-224 8,-244 254,-244 254,-224 8,-224"/>
<text text-anchor="start" x="110" y="-232.8" font-family="Verdana" font-weight="bold" font-size="9.00">security</text>
<polygon fill="none" stroke="black" points="8,-204 8,-224 254,-224 254,-204 8,-204"/>
<text text-anchor="start" x="13" y="-212.8" font-family="Verdana" font-weight="bold" font-size="9.00">security_id</text>
<text text-anchor="start" x="69" y="-212.8" font-family="Verdana" font-size="9.00">: </text>
<text text-anchor="start" x="76" y="-212.8" font-family="Verdana" font-style="italic" font-size="9.00">UUID &#160;NOT NULL</text>
<polygon fill="none" stroke="black" points="8,-184 8,-204 254,-204 254,-184 8,-184"/>
<text text-anchor="start" x="13" y="-192.8" font-family="Verdana" font-weight="bold" font-size="9.00">issuer_id</text>
<text text-anchor="start" x="59" y="-192.8" font-family="Verdana" font-size="9.00">: </text>
<text text-anchor="start" x="66" y="-192.8" font-family="Verdana" font-style="italic" font-size="9.00">UUID </text>
<polygon fill="none" stroke="black" points="8,-164 8,-184 254,-184 254,-164 8,-164"/>
<text text-anchor="start" x="13" y="-172.8" font-family="Verdana" font-weight="bold" font-size="9.00">instrument_type_code</text>
<text text-anchor="start" x="128" y="-172.8" font-family="Verdana" font-size="9.00">: </text>
<text text-anchor="start" x="135" y="-172.8" font-family="Verdana" font-style="italic" font-size="9.00">VARCHAR(32) &#160;NOT NULL</text>
<polygon fill="none" stroke="black" points="8,-144 8,-164 254,-164 254,-144 8,-144"/>
<text text-anchor="start" x="13" y="-152.8" font-family="Verdana" font-weight="bold" font-size="9.00">security_title</text>
<text text-anchor="start" x="80" y="-152.8" font-family="Verdana" font-size="9.00">: </text>
<text text-anchor="start" x="87" y="-152.8" font-family="Verdana" font-style="italic" font-size="9.00">TEXT &#160;NOT NULL</text>
<polygon fill="none" stroke="black" points="8,-124 8,-144 254,-144 254,-124 8,-124"/>
<text text-anchor="start" x="13" y="-132.8" font-family="Verdana" font-weight="bold" font-size="9.00">share_class</text>
<text text-anchor="start" x="71" y="-132.8" font-family="Verdana" font-size="9.00">: </text>
<text text-anchor="start" x="78" y="-132.8" font-family="Verdana" font-style="italic" font-size="9.00">TEXT </text>
<polygon fill="none" stroke="black" points="8,-104 8,-124 254,-124 254,-104 8,-104"/>
<text text-anchor="start" x="13" y="-112.8" font-family="Verdana" font-weight="bold" font-size="9.00">currency_code</text>
<text text-anchor="start" x="87" y="-112.8" font-family="Verdana" font-size="9.00">: </text>
<text text-anchor="start" x="94" y="-112.8" font-family="Verdana" font-style="italic" font-size="9.00">VARCHAR(3) </text>
<polygon fill="none" stroke="black" points="8,-84 8,-104 254,-104 254,-84 8,-84"/>
<text text-anchor="start" x="13" y="-92.8" font-family="Verdana" font-weight="bold" font-size="9.00">status</text>
<text text-anchor="start" x="46" y="-92.8" font-family="Verdana" font-size="9.00">: </text>
<text text-anchor="start" x="53" y="-92.8" font-family="Verdana" font-style="italic" font-size="9.00">VARCHAR(24) &#160;NOT NULL</text>
<polygon fill="none" stroke="black" points="8,-64 8,-84 254,-84 254,-64 8,-64"/>
<text text-anchor="start" x="13" y="-72.8" font-family="Verdana" font-weight="bold" font-size="9.00">first_seen</text>
<text text-anchor="start" x="63" y="-72.8" font-family="Verdana" font-size="9.00">: </text>
<text text-anchor="start" x="70" y="-72.8" font-family="Verdana" font-style="italic" font-size="9.00">DATE </text>
<polygon fill="none" stroke="black" points="8,-44 8,-64 254,-64 254,-44 8,-44"/>
<text text-anchor="start" x="13" y="-52.8" font-family="Verdana" font-weight="bold" font-size="9.00">last_seen</text>
<text text-anchor="start" x="61" y="-52.8" font-family="Verdana" font-size="9.00">: </text>
<text text-anchor="start" x="68" y="-52.8" font-family="Verdana" font-style="italic" font-size="9.00">DATE </text>
<polygon fill="none" stroke="black" points="8,-24 8,-44 254,-44 254,-24 8,-24"/>
<text text-anchor="start" x="13" y="-32.8" font-family="Verdana" font-weight="bold" font-size="9.00">created_at</text>
<text text-anchor="start" x="68" y="-32.8" font-family="Verdana" font-size="9.00">: </text>
<text text-anchor="start" x="75" y="-32.8" font-family="Verdana" font-style="italic" font-size="9.00">TIMESTAMPTZ &#160;NOT NULL</text>
<polygon fill="none" stroke="black" points="8,-4 8,-24 254,-24 254,-4 8,-4"/>
<text text-anchor="start" x="13" y="-12.8" font-family="Verdana" font-weight="bold" font-size="9.00">updated_at</text>
<text text-anchor="start" x="72" y="-12.8" font-family="Verdana" font-size="9.00">: </text>
<text text-anchor="start" x="79" y="-12.8" font-family="Verdana" font-style="italic" font-size="9.00">TIMESTAMPTZ &#160;NOT NULL</text>
</g>
<!-- security_identifier -->
<g id="node2" class="node">
<title>security_identifier</title>
<polygon fill="lightblue" stroke="transparent" points="23,-468 23,-488 239,-488 239,-468 23,-468"/>
<polygon fill="none" stroke="black" points="23,-468 23,-488 239,-488 239,-468 23,-468"/>
<text text-anchor="start" x="84" y="-476.8" font-family="Verdana" font-weight="bold" font-size="9.00">security_identifier</text>
<polygon fill="none" stroke="black" points="23,-448 23,-468 239,-468 239,-448 23,-448"/>
<text text-anchor="start" x="28" y="-456.8" font-family="Verdana" font-weight="bold" font-size="9.00">security_identifier_id</text>
<text text-anchor="start" x="136" y="-456.8" font-family="Verdana" font-size="9.00">: </text>
<text text-anchor="start" x="143" y="-456.8" font-family="Verdana" font-style="italic" font-size="9.00">UUID &#160;NOT NULL</text>
<polygon fill="none" stroke="black" points="23,-428 23,-448 239,-448 239,-428 23,-428"/>
<text text-anchor="start" x="28" y="-436.8" font-family="Verdana" font-weight="bold" font-size="9.00">security_id</text>
<text text-anchor="start" x="84" y="-436.8" font-family="Verdana" font-size="9.00">: </text>
<text text-anchor="start" x="91" y="-436.8" font-family="Verdana" font-style="italic" font-size="9.00">UUID &#160;NOT NULL</text>
<polygon fill="none" stroke="black" points="23,-408 23,-428 239,-428 239,-408 23,-408"/>
<text text-anchor="start" x="28" y="-416.8" font-family="Verdana" font-weight="bold" font-size="9.00">id_type</text>
<text text-anchor="start" x="66" y="-416.8" font-family="Verdana" font-size="9.00">: </text>
<text text-anchor="start" x="73" y="-416.8" font-family="Verdana" font-style="italic" font-size="9.00">VARCHAR(32) &#160;NOT NULL</text>
<polygon fill="none" stroke="black" points="23,-388 23,-408 239,-408 239,-388 23,-388"/>
<text text-anchor="start" x="28" y="-396.8" font-family="Verdana" font-weight="bold" font-size="9.00">id_value</text>
<text text-anchor="start" x="71" y="-396.8" font-family="Verdana" font-size="9.00">: </text>
<text text-anchor="start" x="78" y="-396.8" font-family="Verdana" font-style="italic" font-size="9.00">TEXT &#160;NOT NULL</text>
<polygon fill="none" stroke="black" points="23,-368 23,-388 239,-388 239,-368 23,-368"/>
<text text-anchor="start" x="28" y="-376.8" font-family="Verdana" font-weight="bold" font-size="9.00">valid_from</text>
<text text-anchor="start" x="82" y="-376.8" font-family="Verdana" font-size="9.00">: </text>
<text text-anchor="start" x="89" y="-376.8" font-family="Verdana" font-style="italic" font-size="9.00">DATE </text>
<polygon fill="none" stroke="black" points="23,-348 23,-368 239,-368 239,-348 23,-348"/>
<text text-anchor="start" x="28" y="-356.8" font-family="Verdana" font-weight="bold" font-size="9.00">valid_to</text>
<text text-anchor="start" x="68" y="-356.8" font-family="Verdana" font-size="9.00">: </text>
<text text-anchor="start" x="75" y="-356.8" font-family="Verdana" font-style="italic" font-size="9.00">DATE </text>
<polygon fill="none" stroke="black" points="23,-328 23,-348 239,-348 239,-328 23,-328"/>
<text text-anchor="start" x="28" y="-336.8" font-family="Verdana" font-weight="bold" font-size="9.00">source_code</text>
<text text-anchor="start" x="91" y="-336.8" font-family="Verdana" font-size="9.00">: </text>
<text text-anchor="start" x="98" y="-336.8" font-family="Verdana" font-style="italic" font-size="9.00">VARCHAR(32) </text>
<polygon fill="none" stroke="black" points="23,-308 23,-328 239,-328 239,-308 23,-308"/>
<text text-anchor="start" x="28" y="-316.8" font-family="Verdana" font-weight="bold" font-size="9.00">confidence_code</text>
<text text-anchor="start" x="113" y="-316.8" font-family="Verdana" font-size="9.00">: </text>
<text text-anchor="start" x="120" y="-316.8" font-family="Verdana" font-style="italic" font-size="9.00">VARCHAR(16) &#160;NOT NULL</text>
<polygon fill="none" stroke="black" points="23,-288 23,-308 239,-308 239,-288 23,-288"/>
<text text-anchor="start" x="28" y="-296.8" font-family="Verdana" font-weight="bold" font-size="9.00">created_at</text>
<text text-anchor="start" x="83" y="-296.8" font-family="Verdana" font-size="9.00">: </text>
<text text-anchor="start" x="90" y="-296.8" font-family="Verdana" font-style="italic" font-size="9.00">TIMESTAMPTZ &#160;NOT NULL</text>
</g>
<!-- security_identifier&#45;&gt;security -->
<g id="edge1" class="edge">
<title>security_identifier:security_id&#45;&gt;security:security_id</title>
<path fill="none" stroke="black" d="M240,-438C262.22,-438 276.54,-260.32 261.79,-221.45"/>
<polygon fill="black" stroke="black" points="264.32,-219.03 255,-214 259.15,-223.75 264.32,-219.03"/>
</g>
</g>
</svg>
