<?xml version="1.0" encoding="UTF-8" standalone="no"?>
<!DOCTYPE svg PUBLIC "-//W3C//DTD SVG 1.1//EN"
 "http://www.w3.org/Graphics/SVG/1.1/DTD/svg11.dtd">
<!-- Generated by graphviz version 2.42.4 (0)
 -->
<!-- Title: ERD Pages: 1 -->
<svg width="726pt" height="500pt"
 viewBox="0.00 0.00 725.50 500.00" xmlns="http://www.w3.org/2000/svg" xmlns:xlink="http://www.w3.org/1999/xlink">
<g id="graph0" class="graph" transform="scale(1 1) rotate(0) translate(4 496)">
<title>ERD</title>
<polygon fill="white" stroke="transparent" points="-4,4 -4,-496 721.5,-496 721.5,4 -4,4"/>
<!-- identifier_type -->
<g id="node1" class="node">
<title>identifier_type</title>
<polygon fill="lightblue" stroke="transparent" points="8.5,-164 8.5,-184 191.5,-184 191.5,-164 8.5,-164"/>
<polygon fill="none" stroke="black" points="8.5,-164 8.5,-184 191.5,-184 191.5,-164 8.5,-164"/>
<text text-anchor="start" x="62" y="-172.8" font-family="Verdana" font-weight="bold" font-size="9.00">identifier_type</text>
<polygon fill="none" stroke="black" points="8.5,-144 8.5,-164 191.5,-164 191.5,-144 8.5,-144"/>
<text text-anchor="start" x="13.5" y="-152.8" font-family="Verdana" font-weight="bold" font-size="9.00">id_type</text>
<text text-anchor="start" x="51.5" y="-152.8" font-family="Verdana" font-size="9.00">: </text>
<text text-anchor="start" x="58.5" y="-152.8" font-family="Verdana" font-style="italic" font-size="9.00">VARCHAR(32) &#160;NOT NULL</text>
<polygon fill="none" stroke="black" points="8.5,-124 8.5,-144 191.5,-144 191.5,-124 8.5,-124"/>
<text text-anchor="start" x="13.5" y="-132.8" font-family="Verdana" font-weight="bold" font-size="9.00">id_name</text>
<text text-anchor="start" x="56.5" y="-132.8" font-family="Verdana" font-size="9.00">: </text>
<text text-anchor="start" x="63.5" y="-132.8" font-family="Verdana" font-style="italic" font-size="9.00">TEXT &#160;NOT NULL</text>
<polygon fill="none" stroke="black" points="8.5,-104 8.5,-124 191.5,-124 191.5,-104 8.5,-104"/>
<text text-anchor="start" x="13.5" y="-112.8" font-family="Verdana" font-weight="bold" font-size="9.00">applies_to</text>
<text text-anchor="start" x="65.5" y="-112.8" font-family="Verdana" font-size="9.00">: </text>
<text text-anchor="start" x="72.5" y="-112.8" font-family="Verdana" font-style="italic" font-size="9.00">VARCHAR(32) &#160;NOT NULL</text>
<polygon fill="none" stroke="black" points="8.5,-84 8.5,-104 191.5,-104 191.5,-84 8.5,-84"/>
<text text-anchor="start" x="13.5" y="-92.8" font-family="Verdana" font-weight="bold" font-size="9.00">description</text>
<text text-anchor="start" x="71.5" y="-92.8" font-family="Verdana" font-size="9.00">: </text>
<text text-anchor="start" x="78.5" y="-92.8" font-family="Verdana" font-style="italic" font-size="9.00">TEXT </text>
<polygon fill="none" stroke="black" points="8.5,-64 8.5,-84 191.5,-84 191.5,-64 8.5,-64"/>
<text text-anchor="start" x="13.5" y="-72.8" font-family="Verdana" font-weight="bold" font-size="9.00">is_active</text>
<text text-anchor="start" x="57.5" y="-72.8" font-family="Verdana" font-size="9.00">: </text>
<text text-anchor="start" x="64.5" y="-72.8" font-family="Verdana" font-style="italic" font-size="9.00">BOOLEAN &#160;NOT NULL</text>
</g>
<!-- provider -->
<g id="node2" class="node">
<title>provider</title>
<polygon fill="lightblue" stroke="transparent" points="225.5,-174 225.5,-194 429.5,-194 429.5,-174 225.5,-174"/>
<polygon fill="none" stroke="black" points="225.5,-174 225.5,-194 429.5,-194 429.5,-174 225.5,-174"/>
<text text-anchor="start" x="305.5" y="-182.8" font-family="Verdana" font-weight="bold" font-size="9.00">provider</text>
<polygon fill="none" stroke="black" points="225.5,-154 225.5,-174 429.5,-174 429.5,-154 225.5,-154"/>
<text text-anchor="start" x="230.5" y="-162.8" font-family="Verdana" font-weight="bold" font-size="9.00">provider_code</text>
<text text-anchor="start" x="303.5" y="-162.8" font-family="Verdana" font-size="9.00">: </text>
<text text-anchor="start" x="310.5" y="-162.8" font-family="Verdana" font-style="italic" font-size="9.00">VARCHAR(32) &#160;NOT NULL</text>
<polygon fill="none" stroke="black" points="225.5,-134 225.5,-154 429.5,-154 429.5,-134 225.5,-134"/>
<text text-anchor="start" x="230.5" y="-142.8" font-family="Verdana" font-weight="bold" font-size="9.00">provider_name</text>
<text text-anchor="start" x="307.5" y="-142.8" font-family="Verdana" font-size="9.00">: </text>
<text text-anchor="start" x="314.5" y="-142.8" font-family="Verdana" font-style="italic" font-size="9.00">TEXT &#160;NOT NULL</text>
<polygon fill="none" stroke="black" points="225.5,-114 225.5,-134 429.5,-134 429.5,-114 225.5,-114"/>
<text text-anchor="start" x="230.5" y="-122.8" font-family="Verdana" font-weight="bold" font-size="9.00">provider_type</text>
<text text-anchor="start" x="302.5" y="-122.8" font-family="Verdana" font-size="9.00">: </text>
<text text-anchor="start" x="309.5" y="-122.8" font-family="Verdana" font-style="italic" font-size="9.00">VARCHAR(32) &#160;NOT NULL</text>
<polygon fill="none" stroke="black" points="225.5,-94 225.5,-114 429.5,-114 429.5,-94 225.5,-94"/>
<text text-anchor="start" x="230.5" y="-102.8" font-family="Verdana" font-weight="bold" font-size="9.00">website</text>
<text text-anchor="start" x="270.5" y="-102.8" font-family="Verdana" font-size="9.00">: </text>
<text text-anchor="start" x="277.5" y="-102.8" font-family="Verdana" font-style="italic" font-size="9.00">TEXT </text>
<polygon fill="none" stroke="black" points="225.5,-74 225.5,-94 429.5,-94 429.5,-74 225.5,-74"/>
<text text-anchor="start" x="230.5" y="-82.8" font-family="Verdana" font-weight="bold" font-size="9.00">description</text>
<text text-anchor="start" x="288.5" y="-82.8" font-family="Verdana" font-size="9.00">: </text>
<text text-anchor="start" x="295.5" y="-82.8" font-family="Verdana" font-style="italic" font-size="9.00">TEXT </text>
<polygon fill="none" stroke="black" points="225.5,-54 225.5,-74 429.5,-74 429.5,-54 225.5,-54"/>
<text text-anchor="start" x="230.5" y="-62.8" font-family="Verdana" font-weight="bold" font-size="9.00">is_active</text>
<text text-anchor="start" x="274.5" y="-62.8" font-family="Verdana" font-size="9.00">: </text>
<text text-anchor="start" x="281.5" y="-62.8" font-family="Verdana" font-style="italic" font-size="9.00">BOOLEAN &#160;NOT NULL</text>
</g>
<!-- security -->
<g id="node3" class="node">
<title>security</title>
<polygon fill="lightblue" stroke="transparent" points="463.5,-224 463.5,-244 709.5,-244 709.5,-224 463.5,-224"/>
<polygon fill="none" stroke="black" points="463.5,-224 463.5,-244 709.5,-244 709.5,-224 463.5,-224"/>
<text text-anchor="start" x="565.5" y="-232.8" font-family="Verdana" font-weight="bold" font-size="9.00">security</text>
<polygon fill="none" stroke="black" points="463.5,-204 463.5,-224 709.5,-224 709.5,-204 463.5,-204"/>
<text text-anchor="start" x="468.5" y="-212.8" font-family="Verdana" font-weight="bold" font-size="9.00">security_id</text>
<text text-anchor="start" x="524.5" y="-212.8" font-family="Verdana" font-size="9.00">: </text>
<text text-anchor="start" x="531.5" y="-212.8" font-family="Verdana" font-style="italic" font-size="9.00">UUID &#160;NOT NULL</text>
<polygon fill="none" stroke="black" points="463.5,-184 463.5,-204 709.5,-204 709.5,-184 463.5,-184"/>
<text text-anchor="start" x="468.5" y="-192.8" font-family="Verdana" font-weight="bold" font-size="9.00">issuer_id</text>
<text text-anchor="start" x="514.5" y="-192.8" font-family="Verdana" font-size="9.00">: </text>
<text text-anchor="start" x="521.5" y="-192.8" font-family="Verdana" font-style="italic" font-size="9.00">UUID </text>
<polygon fill="none" stroke="black" points="463.5,-164 463.5,-184 709.5,-184 709.5,-164 463.5,-164"/>
<text text-anchor="start" x="468.5" y="-172.8" font-family="Verdana" font-weight="bold" font-size="9.00">instrument_type_code</text>
<text text-anchor="start" x="583.5" y="-172.8" font-family="Verdana" font-size="9.00">: </text>
<text text-anchor="start" x="590.5" y="-172.8" font-family="Verdana" font-style="italic" font-size="9.00">VARCHAR(32) &#160;NOT NULL</text>
<polygon fill="none" stroke="black" points="463.5,-144 463.5,-164 709.5,-164 709.5,-144 463.5,-144"/>
<text text-anchor="start" x="468.5" y="-152.8" font-family="Verdana" font-weight="bold" font-size="9.00">security_title</text>
<text text-anchor="start" x="535.5" y="-152.8" font-family="Verdana" font-size="9.00">: </text>
<text text-anchor="start" x="542.5" y="-152.8" font-family="Verdana" font-style="italic" font-size="9.00">TEXT &#160;NOT NULL</text>
<polygon fill="none" stroke="black" points="463.5,-124 463.5,-144 709.5,-144 709.5,-124 463.5,-124"/>
<text text-anchor="start" x="468.5" y="-132.8" font-family="Verdana" font-weight="bold" font-size="9.00">share_class</text>
<text text-anchor="start" x="526.5" y="-132.8" font-family="Verdana" font-size="9.00">: </text>
<text text-anchor="start" x="533.5" y="-132.8" font-family="Verdana" font-style="italic" font-size="9.00">TEXT </text>
<polygon fill="none" stroke="black" points="463.5,-104 463.5,-124 709.5,-124 709.5,-104 463.5,-104"/>
<text text-anchor="start" x="468.5" y="-112.8" font-family="Verdana" font-weight="bold" font-size="9.00">currency_code</text>
<text text-anchor="start" x="542.5" y="-112.8" font-family="Verdana" font-size="9.00">: </text>
<text text-anchor="start" x="549.5" y="-112.8" font-family="Verdana" font-style="italic" font-size="9.00">VARCHAR(3) </text>
<polygon fill="none" stroke="black" points="463.5,-84 463.5,-104 709.5,-104 709.5,-84 463.5,-84"/>
<text text-anchor="start" x="468.5" y="-92.8" font-family="Verdana" font-weight="bold" font-size="9.00">status</text>
<text text-anchor="start" x="501.5" y="-92.8" font-family="Verdana" font-size="9.00">: </text>
<text text-anchor="start" x="508.5" y="-92.8" font-family="Verdana" font-style="italic" font-size="9.00">VARCHAR(24) &#160;NOT NULL</text>
<polygon fill="none" stroke="black" points="463.5,-64 463.5,-84 709.5,-84 709.5,-64 463.5,-64"/>
<text text-anchor="start" x="468.5" y="-72.8" font-family="Verdana" font-weight="bold" font-size="9.00">first_seen</text>
<text text-anchor="start" x="518.5" y="-72.8" font-family="Verdana" font-size="9.00">: </text>
<text text-anchor="start" x="525.5" y="-72.8" font-family="Verdana" font-style="italic" font-size="9.00">DATE </text>
<polygon fill="none" stroke="black" points="463.5,-44 463.5,-64 709.5,-64 709.5,-44 463.5,-44"/>
<text text-anchor="start" x="468.5" y="-52.8" font-family="Verdana" font-weight="bold" font-size="9.00">last_seen</text>
<text text-anchor="start" x="516.5" y="-52.8" font-family="Verdana" font-size="9.00">: </text>
<text text-anchor="start" x="523.5" y="-52.8" font-family="Verdana" font-style="italic" font-size="9.00">DATE </text>
<polygon fill="none" stroke="black" points="463.5,-24 463.5,-44 709.5,-44 709.5,-24 463.5,-24"/>
<text text-anchor="start" x="468.5" y="-32.8" font-family="Verdana" font-weight="bold" font-size="9.00">created_at</text>
<text text-anchor="start" x="523.5" y="-32.8" font-family="Verdana" font-size="9.00">: </text>
<text text-anchor="start" x="530.5" y="-32.8" font-family="Verdana" font-style="italic" font-size="9.00">TIMESTAMPTZ &#160;NOT NULL</text>
<polygon fill="none" stroke="black" points="463.5,-4 463.5,-24 709.5,-24 709.5,-4 463.5,-4"/>
<text text-anchor="start" x="468.5" y="-12.8" font-family="Verdana" font-weight="bold" font-size="9.00">updated_at</text>
<text text-anchor="start" x="527.5" y="-12.8" font-family="Verdana" font-size="9.00">: </text>
<text text-anchor="start" x="534.5" y="-12.8" font-family="Verdana" font-style="italic" font-size="9.00">TIMESTAMPTZ &#160;NOT NULL</text>
</g>
<!-- security_identifier -->
<g id="node4" class="node">
<title>security_identifier</title>
<polygon fill="lightblue" stroke="transparent" points="219.5,-468 219.5,-488 435.5,-488 435.5,-468 219.5,-468"/>
<polygon fill="none" stroke="black" points="219.5,-468 219.5,-488 435.5,-488 435.5,-468 219.5,-468"/>
<text text-anchor="start" x="280.5" y="-476.8" font-family="Verdana" font-weight="bold" font-size="9.00">security_identifier</text>
<polygon fill="none" stroke="black" points="219.5,-448 219.5,-468 435.5,-468 435.5,-448 219.5,-448"/>
<text text-anchor="start" x="224.5" y="-456.8" font-family="Verdana" font-weight="bold" font-size="9.00">security_identifier_id</text>
<text text-anchor="start" x="332.5" y="-456.8" font-family="Verdana" font-size="9.00">: </text>
<text text-anchor="start" x="339.5" y="-456.8" font-family="Verdana" font-style="italic" font-size="9.00">UUID &#160;NOT NULL</text>
<polygon fill="none" stroke="black" points="219.5,-428 219.5,-448 435.5,-448 435.5,-428 219.5,-428"/>
<text text-anchor="start" x="224.5" y="-436.8" font-family="Verdana" font-weight="bold" font-size="9.00">security_id</text>
<text text-anchor="start" x="280.5" y="-436.8" font-family="Verdana" font-size="9.00">: </text>
<text text-anchor="start" x="287.5" y="-436.8" font-family="Verdana" font-style="italic" font-size="9.00">UUID &#160;NOT NULL</text>
<polygon fill="none" stroke="black" points="219.5,-408 219.5,-428 435.5,-428 435.5,-408 219.5,-408"/>
<text text-anchor="start" x="224.5" y="-416.8" font-family="Verdana" font-weight="bold" font-size="9.00">id_type</text>
<text text-anchor="start" x="262.5" y="-416.8" font-family="Verdana" font-size="9.00">: </text>
<text text-anchor="start" x="269.5" y="-416.8" font-family="Verdana" font-style="italic" font-size="9.00">VARCHAR(32) &#160;NOT NULL</text>
<polygon fill="none" stroke="black" points="219.5,-388 219.5,-408 435.5,-408 435.5,-388 219.5,-388"/>
<text text-anchor="start" x="224.5" y="-396.8" font-family="Verdana" font-weight="bold" font-size="9.00">id_value</text>
<text text-anchor="start" x="267.5" y="-396.8" font-family="Verdana" font-size="9.00">: </text>
<text text-anchor="start" x="274.5" y="-396.8" font-family="Verdana" font-style="italic" font-size="9.00">TEXT &#160;NOT NULL</text>
<polygon fill="none" stroke="black" points="219.5,-368 219.5,-388 435.5,-388 435.5,-368 219.5,-368"/>
<text text-anchor="start" x="224.5" y="-376.8" font-family="Verdana" font-weight="bold" font-size="9.00">valid_from</text>
<text text-anchor="start" x="278.5" y="-376.8" font-family="Verdana" font-size="9.00">: </text>
<text text-anchor="start" x="285.5" y="-376.8" font-family="Verdana" font-style="italic" font-size="9.00">DATE </text>
<polygon fill="none" stroke="black" points="219.5,-348 219.5,-368 435.5,-368 435.5,-348 219.5,-348"/>
<text text-anchor="start" x="224.5" y="-356.8" font-family="Verdana" font-weight="bold" font-size="9.00">valid_to</text>
<text text-anchor="start" x="264.5" y="-356.8" font-family="Verdana" font-size="9.00">: </text>
<text text-anchor="start" x="271.5" y="-356.8" font-family="Verdana" font-style="italic" font-size="9.00">DATE </text>
<polygon fill="none" stroke="black" points="219.5,-328 219.5,-348 435.5,-348 435.5,-328 219.5,-328"/>
<text text-anchor="start" x="224.5" y="-336.8" font-family="Verdana" font-weight="bold" font-size="9.00">provider_code</text>
<text text-anchor="start" x="297.5" y="-336.8" font-family="Verdana" font-size="9.00">: </text>
<text text-anchor="start" x="304.5" y="-336.8" font-family="Verdana" font-style="italic" font-size="9.00">VARCHAR(32) </text>
<polygon fill="none" stroke="black" points="219.5,-308 219.5,-328 435.5,-328 435.5,-308 219.5,-308"/>
<text text-anchor="start" x="224.5" y="-316.8" font-family="Verdana" font-weight="bold" font-size="9.00">confidence_code</text>
<text text-anchor="start" x="309.5" y="-316.8" font-family="Verdana" font-size="9.00">: </text>
<text text-anchor="start" x="316.5" y="-316.8" font-family="Verdana" font-style="italic" font-size="9.00">VARCHAR(16) &#160;NOT NULL</text>
<polygon fill="none" stroke="black" points="219.5,-288 219.5,-308 435.5,-308 435.5,-288 219.5,-288"/>
<text text-anchor="start" x="224.5" y="-296.8" font-family="Verdana" font-weight="bold" font-size="9.00">created_at</text>
<text text-anchor="start" x="279.5" y="-296.8" font-family="Verdana" font-size="9.00">: </text>
<text text-anchor="start" x="286.5" y="-296.8" font-family="Verdana" font-style="italic" font-size="9.00">TIMESTAMPTZ &#160;NOT NULL</text>
</g>
<!-- security_identifier&#45;&gt;identifier_type -->
<g id="edge3" class="edge">
<title>security_identifier:id_type&#45;&gt;identifier_type:id_type</title>
<path fill="none" stroke="black" d="M218.5,-418C191.96,-418 216.03,-203.97 199.57,-161.34"/>
<polygon fill="black" stroke="black" points="201.96,-158.77 192.5,-154 196.92,-163.63 201.96,-158.77"/>
</g>
<!-- security_identifier&#45;&gt;provider -->
<g id="edge1" class="edge">
<title>security_identifier:provider_code&#45;&gt;provider:provider_code</title>
<path fill="none" stroke="black" d="M436.5,-338C444.81,-338 441.55,-209.5 434.33,-173.35"/>
<polygon fill="black" stroke="black" points="437.53,-171.93 430.5,-164 431.05,-174.58 437.53,-171.93"/>
</g>
<!-- security_identifier&#45;&gt;security -->
<g id="edge2" class="edge">
<title>security_identifier:security_id&#45;&gt;security:security_id</title>
<path fill="none" stroke="black" d="M436.5,-438C458.77,-438 442.2,-261.1 455.82,-221.71"/>
<polygon fill="black" stroke="black" points="458.6,-223.85 462.5,-214 453.31,-219.27 458.6,-223.85"/>
</g>
</g>
</svg>
