<?xml version="1.0" encoding="UTF-8" standalone="no"?>
<!DOCTYPE svg PUBLIC "-//W3C//DTD SVG 1.1//EN"
 "http://www.w3.org/Graphics/SVG/1.1/DTD/svg11.dtd">
<!-- Generated by graphviz version 2.42.4 (0)
 -->
<!-- Title: schema_relations Pages: 1 -->
<svg width="437pt" height="257pt"
 viewBox="0.00 0.00 437.00 257.00" xmlns="http://www.w3.org/2000/svg" xmlns:xlink="http://www.w3.org/1999/xlink">
<g id="graph0" class="graph" transform="scale(1 1) rotate(0) translate(18 239)">
<title>schema_relations</title>
<!-- identifier_type -->
<g id="node1" class="node">
<title>identifier_type</title>
<path fill="#f8fafc" stroke="#334155" d="M81,-36C81,-36 12,-36 12,-36 6,-36 0,-30 0,-24 0,-24 0,-12 0,-12 0,-6 6,0 12,0 12,0 81,0 81,0 87,0 93,-6 93,-12 93,-12 93,-24 93,-24 93,-30 87,-36 81,-36"/>
<text text-anchor="middle" x="46.5" y="-15.2" font-family="Helvetica,sans-Serif" font-size="11.00">identifier_type</text>
</g>
<!-- issuer_identifier -->
<g id="node3" class="node">
<title>issuer_identifier</title>
<path fill="#f8fafc" stroke="#334155" d="M376.5,-93C376.5,-93 298.5,-93 298.5,-93 292.5,-93 286.5,-87 286.5,-81 286.5,-81 286.5,-69 286.5,-69 286.5,-63 292.5,-57 298.5,-57 298.5,-57 376.5,-57 376.5,-57 382.5,-57 388.5,-63 388.5,-69 388.5,-69 388.5,-81 388.5,-81 388.5,-87 382.5,-93 376.5,-93"/>
<text text-anchor="middle" x="337.5" y="-72.2" font-family="Helvetica,sans-Serif" font-size="11.00">issuer_identifier</text>
</g>
<!-- identifier_type&#45;&gt;issuer_identifier -->
<g id="edge1" class="edge">
<title>identifier_type&#45;&gt;issuer_identifier</title>
<path fill="none" stroke="#64748b" d="M93.17,-23.06C132.59,-27.85 190.91,-35.96 241,-47 253.53,-49.76 266.82,-53.28 279.38,-56.88"/>
<polygon fill="#64748b" stroke="#64748b" points="278.87,-59.28 286.28,-58.88 280.24,-54.57 278.87,-59.28"/>
<text text-anchor="middle" x="183.5" y="-49.6" font-family="Helvetica,sans-Serif" font-size="8.00">fk_issuer_identifier_type</text>
</g>
<!-- issuer -->
<g id="node2" class="node">
<title>issuer</title>
<path fill="#f8fafc" stroke="#334155" d="M61.5,-136C61.5,-136 31.5,-136 31.5,-136 25.5,-136 19.5,-130 19.5,-124 19.5,-124 19.5,-112 19.5,-112 19.5,-106 25.5,-100 31.5,-100 31.5,-100 61.5,-100 61.5,-100 67.5,-100 73.5,-106 73.5,-112 73.5,-112 73.5,-124 73.5,-124 73.5,-130 67.5,-136 61.5,-136"/>
<text text-anchor="middle" x="46.5" y="-115.2" font-family="Helvetica,sans-Serif" font-size="11.00">issuer</text>
</g>
<!-- issuer&#45;&gt;issuer_identifier -->
<g id="edge2" class="edge">
<title>issuer&#45;&gt;issuer_identifier</title>
<path fill="none" stroke="#64748b" d="M73.42,-99.99C88.12,-90.87 107.27,-80.74 126,-76 176.67,-63.17 236.44,-64.36 279.31,-67.92"/>
<polygon fill="#64748b" stroke="#64748b" points="279.12,-70.36 286.31,-68.53 279.55,-65.48 279.12,-70.36"/>
<text text-anchor="middle" x="183.5" y="-78.6" font-family="Helvetica,sans-Serif" font-size="8.00">fk_issuer_identifier_issuer</text>
</g>
<!-- issuer_name_history -->
<g id="node4" class="node">
<title>issuer_name_history</title>
<path fill="#f8fafc" stroke="#334155" d="M389,-218C389,-218 286,-218 286,-218 280,-218 274,-212 274,-206 274,-206 274,-194 274,-194 274,-188 280,-182 286,-182 286,-182 389,-182 389,-182 395,-182 401,-188 401,-194 401,-194 401,-206 401,-206 401,-212 395,-218 389,-218"/>
<text text-anchor="middle" x="337.5" y="-197.2" font-family="Helvetica,sans-Serif" font-size="11.00">issuer_name_history</text>
</g>
<!-- issuer&#45;&gt;issuer_name_history -->
<g id="edge3" class="edge">
<title>issuer&#45;&gt;issuer_name_history</title>
<path fill="none" stroke="#64748b" d="M73.76,-115.74C111.84,-113.42 184.07,-112.57 241,-133 267.78,-142.61 293.92,-161.85 312.07,-177.25"/>
<polygon fill="#64748b" stroke="#64748b" points="310.54,-179.17 317.43,-181.89 313.74,-175.46 310.54,-179.17"/>
<text text-anchor="middle" x="183.5" y="-135.6" font-family="Helvetica,sans-Serif" font-size="8.00">fk_issuer_name_issuer</text>
</g>
<!-- provider -->
<g id="node5" class="node">
<title>provider</title>
<path fill="#f8fafc" stroke="#334155" d="M64.5,-221C64.5,-221 28.5,-221 28.5,-221 22.5,-221 16.5,-215 16.5,-209 16.5,-209 16.5,-197 16.5,-197 16.5,-191 22.5,-185 28.5,-185 28.5,-185 64.5,-185 64.5,-185 70.5,-185 76.5,-191 76.5,-197 76.5,-197 76.5,-209 76.5,-209 76.5,-215 70.5,-221 64.5,-221"/>
<text text-anchor="middle" x="46.5" y="-200.2" font-family="Helvetica,sans-Serif" font-size="11.00">provider</text>
</g>
<!-- provider&#45;&gt;issuer_identifier -->
<g id="edge4" class="edge">
<title>provider&#45;&gt;issuer_identifier</title>
<path fill="none" stroke="#64748b" d="M76.76,-196.74C115.6,-187.77 185.73,-169.29 241,-142 265.47,-129.92 290.65,-111.99 309,-97.72"/>
<polygon fill="#64748b" stroke="#64748b" points="310.97,-99.29 314.95,-93.03 307.94,-95.44 310.97,-99.29"/>
<text text-anchor="middle" x="183.5" y="-185.6" font-family="Helvetica,sans-Serif" font-size="8.00">fk_issuer_identifier_provider</text>
</g>
<!-- provider&#45;&gt;issuer_name_history -->
<g id="edge5" class="edge">
<title>provider&#45;&gt;issuer_name_history</title>
<path fill="none" stroke="#64748b" d="M76.53,-202.7C120.62,-202.24 205.73,-201.36 266.56,-200.73"/>
<polygon fill="#64748b" stroke="#64748b" points="266.88,-203.17 273.85,-200.65 266.83,-198.27 266.88,-203.17"/>
<text text-anchor="middle" x="183.5" y="-204.6" font-family="Helvetica,sans-Serif" font-size="8.00">fk_issuer_name_provider</text>
</g>
</g>
</svg>
