<?xml version="1.0" encoding="UTF-8" standalone="no"?>
<!DOCTYPE svg PUBLIC "-//W3C//DTD SVG 1.1//EN"
 "http://www.w3.org/Graphics/SVG/1.1/DTD/svg11.dtd">
<!-- Generated by graphviz version 2.42.4 (0)
 -->
<!-- Title: schema_relations Pages: 1 -->
<svg width="389pt" height="151pt"
 viewBox="0.00 0.00 389.00 151.00" xmlns="http://www.w3.org/2000/svg" xmlns:xlink="http://www.w3.org/1999/xlink">
<g id="graph0" class="graph" transform="scale(1 1) rotate(0) translate(18 133)">
<title>schema_relations</title>
<!-- issuer -->
<g id="node1" class="node">
<title>issuer</title>
<path fill="#f8fafc" stroke="#334155" d="M42,-75C42,-75 12,-75 12,-75 6,-75 0,-69 0,-63 0,-63 0,-51 0,-51 0,-45 6,-39 12,-39 12,-39 42,-39 42,-39 48,-39 54,-45 54,-51 54,-51 54,-63 54,-63 54,-69 48,-75 42,-75"/>
<text text-anchor="middle" x="27" y="-54.2" font-family="Helvetica,sans-Serif" font-size="11.00">issuer</text>
</g>
<!-- issuer_identifier -->
<g id="node2" class="node">
<title>issuer_identifier</title>
<path fill="#f8fafc" stroke="#334155" d="M328.5,-115C328.5,-115 250.5,-115 250.5,-115 244.5,-115 238.5,-109 238.5,-103 238.5,-103 238.5,-91 238.5,-91 238.5,-85 244.5,-79 250.5,-79 250.5,-79 328.5,-79 328.5,-79 334.5,-79 340.5,-85 340.5,-91 340.5,-91 340.5,-103 340.5,-103 340.5,-109 334.5,-115 328.5,-115"/>
<text text-anchor="middle" x="289.5" y="-94.2" font-family="Helvetica,sans-Serif" font-size="11.00">issuer_identifier</text>
</g>
<!-- issuer&#45;&gt;issuer_identifier -->
<g id="edge1" class="edge">
<title>issuer&#45;&gt;issuer_identifier</title>
<path fill="none" stroke="#64748b" d="M54.41,-61.06C95.63,-67.39 176.23,-79.76 231.22,-88.2"/>
<polygon fill="#64748b" stroke="#64748b" points="231.17,-90.68 238.46,-89.32 231.92,-85.83 231.17,-90.68"/>
<text text-anchor="middle" x="140" y="-83.6" font-family="Helvetica,sans-Serif" font-size="8.00">fk_issuer_identifier_issuer</text>
</g>
<!-- issuer_name_history -->
<g id="node3" class="node">
<title>issuer_name_history</title>
<path fill="#f8fafc" stroke="#334155" d="M341,-36C341,-36 238,-36 238,-36 232,-36 226,-30 226,-24 226,-24 226,-12 226,-12 226,-6 232,0 238,0 238,0 341,0 341,0 347,0 353,-6 353,-12 353,-12 353,-24 353,-24 353,-30 347,-36 341,-36"/>
<text text-anchor="middle" x="289.5" y="-15.2" font-family="Helvetica,sans-Serif" font-size="11.00">issuer_name_history</text>
</g>
<!-- issuer&#45;&gt;issuer_name_history -->
<g id="edge2" class="edge">
<title>issuer&#45;&gt;issuer_name_history</title>
<path fill="none" stroke="#64748b" d="M54.26,-45.46C64.32,-41.51 76.01,-37.46 87,-35 130.05,-25.35 179.4,-21.08 218.48,-19.23"/>
<polygon fill="#64748b" stroke="#64748b" points="218.77,-21.67 225.65,-18.91 218.55,-16.77 218.77,-21.67"/>
<text text-anchor="middle" x="140" y="-37.6" font-family="Helvetica,sans-Serif" font-size="8.00">fk_issuer_name_issuer</text>
</g>
</g>
</svg>
