<?xml version="1.0" encoding="UTF-8" standalone="no"?>
<!DOCTYPE svg PUBLIC "-//W3C//DTD SVG 1.1//EN"
 "http://www.w3.org/Graphics/SVG/1.1/DTD/svg11.dtd">
<!-- Generated by graphviz version 2.42.4 (0)
 -->
<!-- Title: ERD Pages: 1 -->
<svg width="490pt" height="500pt"
 viewBox="0.00 0.00 490.00 500.00" xmlns="http://www.w3.org/2000/svg" xmlns:xlink="http://www.w3.org/1999/xlink">
<g id="graph0" class="graph" transform="scale(1 1) rotate(0) translate(4 496)">
<title>ERD</title>
<polygon fill="white" stroke="transparent" points="-4,4 -4,-496 486,-496 486,4 -4,4"/>
<!-- issuer -->
<g id="node1" class="node">
<title>issuer</title>
<polygon fill="lightblue" stroke="transparent" points="145,-224 145,-244 336,-244 336,-224 145,-224"/>
<polygon fill="none" stroke="black" points="145,-224 145,-244 336,-244 336,-224 145,-224"/>
<text text-anchor="start" x="225" y="-232.8" font-family="Verdana" font-weight="bold" font-size="9.00">issuer</text>
<polygon fill="none" stroke="black" points="145,-204 145,-224 336,-224 336,-204 145,-204"/>
<text text-anchor="start" x="150" y="-212.8" font-family="Verdana" font-weight="bold" font-size="9.00">issuer_id</text>
<text text-anchor="start" x="196" y="-212.8" font-family="Verdana" font-size="9.00">: </text>
<text text-anchor="start" x="203" y="-212.8" font-family="Verdana" font-style="italic" font-size="9.00">UUID &#160;NOT NULL</text>
<polygon fill="none" stroke="black" points="145,-184 145,-204 336,-204 336,-184 145,-184"/>
<text text-anchor="start" x="150" y="-192.8" font-family="Verdana" font-weight="bold" font-size="9.00">cik</text>
<text text-anchor="start" x="165" y="-192.8" font-family="Verdana" font-size="9.00">: </text>
<text text-anchor="start" x="172" y="-192.8" font-family="Verdana" font-style="italic" font-size="9.00">VARCHAR(10) </text>
<polygon fill="none" stroke="black" points="145,-164 145,-184 336,-184 336,-164 145,-164"/>
<text text-anchor="start" x="150" y="-172.8" font-family="Verdana" font-weight="bold" font-size="9.00">issuer_type</text>
<text text-anchor="start" x="209" y="-172.8" font-family="Verdana" font-size="9.00">: </text>
<text text-anchor="start" x="216" y="-172.8" font-family="Verdana" font-style="italic" font-size="9.00">VARCHAR(32) &#160;NOT NULL</text>
<polygon fill="none" stroke="black" points="145,-144 145,-164 336,-164 336,-144 145,-144"/>
<text text-anchor="start" x="150" y="-152.8" font-family="Verdana" font-weight="bold" font-size="9.00">current_name</text>
<text text-anchor="start" x="222" y="-152.8" font-family="Verdana" font-size="9.00">: </text>
<text text-anchor="start" x="229" y="-152.8" font-family="Verdana" font-style="italic" font-size="9.00">TEXT &#160;NOT NULL</text>
<polygon fill="none" stroke="black" points="145,-124 145,-144 336,-144 336,-124 145,-124"/>
<text text-anchor="start" x="150" y="-132.8" font-family="Verdana" font-weight="bold" font-size="9.00">country_alpha2</text>
<text text-anchor="start" x="229" y="-132.8" font-family="Verdana" font-size="9.00">: </text>
<text text-anchor="start" x="236" y="-132.8" font-family="Verdana" font-style="italic" font-size="9.00">VARCHAR(2) </text>
<polygon fill="none" stroke="black" points="145,-104 145,-124 336,-124 336,-104 145,-104"/>
<text text-anchor="start" x="150" y="-112.8" font-family="Verdana" font-weight="bold" font-size="9.00">sic_code</text>
<text text-anchor="start" x="193" y="-112.8" font-family="Verdana" font-size="9.00">: </text>
<text text-anchor="start" x="200" y="-112.8" font-family="Verdana" font-style="italic" font-size="9.00">VARCHAR(4) </text>
<polygon fill="none" stroke="black" points="145,-84 145,-104 336,-104 336,-84 145,-84"/>
<text text-anchor="start" x="150" y="-92.8" font-family="Verdana" font-weight="bold" font-size="9.00">status</text>
<text text-anchor="start" x="183" y="-92.8" font-family="Verdana" font-size="9.00">: </text>
<text text-anchor="start" x="190" y="-92.8" font-family="Verdana" font-style="italic" font-size="9.00">VARCHAR(24) &#160;NOT NULL</text>
<polygon fill="none" stroke="black" points="145,-64 145,-84 336,-84 336,-64 145,-64"/>
<text text-anchor="start" x="150" y="-72.8" font-family="Verdana" font-weight="bold" font-size="9.00">first_seen</text>
<text text-anchor="start" x="200" y="-72.8" font-family="Verdana" font-size="9.00">: </text>
<text text-anchor="start" x="207" y="-72.8" font-family="Verdana" font-style="italic" font-size="9.00">DATE </text>
<polygon fill="none" stroke="black" points="145,-44 145,-64 336,-64 336,-44 145,-44"/>
<text text-anchor="start" x="150" y="-52.8" font-family="Verdana" font-weight="bold" font-size="9.00">last_seen</text>
<text text-anchor="start" x="198" y="-52.8" font-family="Verdana" font-size="9.00">: </text>
<text text-anchor="start" x="205" y="-52.8" font-family="Verdana" font-style="italic" font-size="9.00">DATE </text>
<polygon fill="none" stroke="black" points="145,-24 145,-44 336,-44 336,-24 145,-24"/>
<text text-anchor="start" x="150" y="-32.8" font-family="Verdana" font-weight="bold" font-size="9.00">created_at</text>
<text text-anchor="start" x="205" y="-32.8" font-family="Verdana" font-size="9.00">: </text>
<text text-anchor="start" x="212" y="-32.8" font-family="Verdana" font-style="italic" font-size="9.00">TIMESTAMPTZ &#160;NOT NULL</text>
<polygon fill="none" stroke="black" points="145,-4 145,-24 336,-24 336,-4 145,-4"/>
<text text-anchor="start" x="150" y="-12.8" font-family="Verdana" font-weight="bold" font-size="9.00">updated_at</text>
<text text-anchor="start" x="209" y="-12.8" font-family="Verdana" font-size="9.00">: </text>
<text text-anchor="start" x="216" y="-12.8" font-family="Verdana" font-style="italic" font-size="9.00">TIMESTAMPTZ &#160;NOT NULL</text>
</g>
<!-- issuer_identifier -->
<g id="node2" class="node">
<title>issuer_identifier</title>
<polygon fill="lightblue" stroke="transparent" points="8,-468 8,-488 224,-488 224,-468 8,-468"/>
<polygon fill="none" stroke="black" points="8,-468 8,-488 224,-488 224,-468 8,-468"/>
<text text-anchor="start" x="74.5" y="-476.8" font-family="Verdana" font-weight="bold" font-size="9.00">issuer_identifier</text>
<polygon fill="none" stroke="black" points="8,-448 8,-468 224,-468 224,-448 8,-448"/>
<text text-anchor="start" x="13" y="-456.8" font-family="Verdana" font-weight="bold" font-size="9.00">issuer_identifier_id</text>
<text text-anchor="start" x="110" y="-456.8" font-family="Verdana" font-size="9.00">: </text>
<text text-anchor="start" x="117" y="-456.8" font-family="Verdana" font-style="italic" font-size="9.00">UUID &#160;NOT NULL</text>
<polygon fill="none" stroke="black" points="8,-428 8,-448 224,-448 224,-428 8,-428"/>
<text text-anchor="start" x="13" y="-436.8" font-family="Verdana" font-weight="bold" font-size="9.00">issuer_id</text>
<text text-anchor="start" x="59" y="-436.8" font-family="Verdana" font-size="9.00">: </text>
<text text-anchor="start" x="66" y="-436.8" font-family="Verdana" font-style="italic" font-size="9.00">UUID &#160;NOT NULL</text>
<polygon fill="none" stroke="black" points="8,-408 8,-428 224,-428 224,-408 8,-408"/>
<text text-anchor="start" x="13" y="-416.8" font-family="Verdana" font-weight="bold" font-size="9.00">id_type</text>
<text text-anchor="start" x="51" y="-416.8" font-family="Verdana" font-size="9.00">: </text>
<text text-anchor="start" x="58" y="-416.8" font-family="Verdana" font-style="italic" font-size="9.00">VARCHAR(32) &#160;NOT NULL</text>
<polygon fill="none" stroke="black" points="8,-388 8,-408 224,-408 224,-388 8,-388"/>
<text text-anchor="start" x="13" y="-396.8" font-family="Verdana" font-weight="bold" font-size="9.00">id_value</text>
<text text-anchor="start" x="56" y="-396.8" font-family="Verdana" font-size="9.00">: </text>
<text text-anchor="start" x="63" y="-396.8" font-family="Verdana" font-style="italic" font-size="9.00">TEXT &#160;NOT NULL</text>
<polygon fill="none" stroke="black" points="8,-368 8,-388 224,-388 224,-368 8,-368"/>
<text text-anchor="start" x="13" y="-376.8" font-family="Verdana" font-weight="bold" font-size="9.00">valid_from</text>
<text text-anchor="start" x="67" y="-376.8" font-family="Verdana" font-size="9.00">: </text>
<text text-anchor="start" x="74" y="-376.8" font-family="Verdana" font-style="italic" font-size="9.00">DATE </text>
<polygon fill="none" stroke="black" points="8,-348 8,-368 224,-368 224,-348 8,-348"/>
<text text-anchor="start" x="13" y="-356.8" font-family="Verdana" font-weight="bold" font-size="9.00">valid_to</text>
<text text-anchor="start" x="53" y="-356.8" font-family="Verdana" font-size="9.00">: </text>
<text text-anchor="start" x="60" y="-356.8" font-family="Verdana" font-style="italic" font-size="9.00">DATE </text>
<polygon fill="none" stroke="black" points="8,-328 8,-348 224,-348 224,-328 8,-328"/>
<text text-anchor="start" x="13" y="-336.8" font-family="Verdana" font-weight="bold" font-size="9.00">source_code</text>
<text text-anchor="start" x="76" y="-336.8" font-family="Verdana" font-size="9.00">: </text>
<text text-anchor="start" x="83" y="-336.8" font-family="Verdana" font-style="italic" font-size="9.00">VARCHAR(32) </text>
<polygon fill="none" stroke="black" points="8,-308 8,-328 224,-328 224,-308 8,-308"/>
<text text-anchor="start" x="13" y="-316.8" font-family="Verdana" font-weight="bold" font-size="9.00">confidence_code</text>
<text text-anchor="start" x="98" y="-316.8" font-family="Verdana" font-size="9.00">: </text>
<text text-anchor="start" x="105" y="-316.8" font-family="Verdana" font-style="italic" font-size="9.00">VARCHAR(16) &#160;NOT NULL</text>
<polygon fill="none" stroke="black" points="8,-288 8,-308 224,-308 224,-288 8,-288"/>
<text text-anchor="start" x="13" y="-296.8" font-family="Verdana" font-weight="bold" font-size="9.00">created_at</text>
<text text-anchor="start" x="68" y="-296.8" font-family="Verdana" font-size="9.00">: </text>
<text text-anchor="start" x="75" y="-296.8" font-family="Verdana" font-style="italic" font-size="9.00">TIMESTAMPTZ &#160;NOT NULL</text>
</g>
<!-- issuer_identifier&#45;&gt;issuer -->
<g id="edge1" class="edge">
<title>issuer_identifier:issuer_id&#45;&gt;issuer:issuer_id</title>
<path fill="none" stroke="black" d="M225,-438C242.11,-438 233.3,-298.36 224,-284 203.02,-251.62 166.35,-280.14 145,-248 139.38,-239.54 134.04,-227.1 135.72,-219.85"/>
<polygon fill="black" stroke="black" points="137.85,-222.63 144,-214 133.81,-216.91 137.85,-222.63"/>
</g>
<!-- issuer_name_history -->
<g id="node3" class="node">
<title>issuer_name_history</title>
<polygon fill="lightblue" stroke="transparent" points="258,-458 258,-478 474,-478 474,-458 258,-458"/>
<polygon fill="none" stroke="black" points="258,-458 258,-478 474,-478 474,-458 258,-458"/>
<text text-anchor="start" x="313.5" y="-466.8" font-family="Verdana" font-weight="bold" font-size="9.00">issuer_name_history</text>
<polygon fill="none" stroke="black" points="258,-438 258,-458 474,-458 474,-438 258,-438"/>
<text text-anchor="start" x="263" y="-446.8" font-family="Verdana" font-weight="bold" font-size="9.00">issuer_name_id</text>
<text text-anchor="start" x="342" y="-446.8" font-family="Verdana" font-size="9.00">: </text>
<text text-anchor="start" x="349" y="-446.8" font-family="Verdana" font-style="italic" font-size="9.00">UUID &#160;NOT NULL</text>
<polygon fill="none" stroke="black" points="258,-418 258,-438 474,-438 474,-418 258,-418"/>
<text text-anchor="start" x="263" y="-426.8" font-family="Verdana" font-weight="bold" font-size="9.00">issuer_id</text>
<text text-anchor="start" x="309" y="-426.8" font-family="Verdana" font-size="9.00">: </text>
<text text-anchor="start" x="316" y="-426.8" font-family="Verdana" font-style="italic" font-size="9.00">UUID &#160;NOT NULL</text>
<polygon fill="none" stroke="black" points="258,-398 258,-418 474,-418 474,-398 258,-398"/>
<text text-anchor="start" x="263" y="-406.8" font-family="Verdana" font-weight="bold" font-size="9.00">name</text>
<text text-anchor="start" x="292" y="-406.8" font-family="Verdana" font-size="9.00">: </text>
<text text-anchor="start" x="299" y="-406.8" font-family="Verdana" font-style="italic" font-size="9.00">TEXT &#160;NOT NULL</text>
<polygon fill="none" stroke="black" points="258,-378 258,-398 474,-398 474,-378 258,-378"/>
<text text-anchor="start" x="263" y="-386.8" font-family="Verdana" font-weight="bold" font-size="9.00">valid_from</text>
<text text-anchor="start" x="317" y="-386.8" font-family="Verdana" font-size="9.00">: </text>
<text text-anchor="start" x="324" y="-386.8" font-family="Verdana" font-style="italic" font-size="9.00">DATE </text>
<polygon fill="none" stroke="black" points="258,-358 258,-378 474,-378 474,-358 258,-358"/>
<text text-anchor="start" x="263" y="-366.8" font-family="Verdana" font-weight="bold" font-size="9.00">valid_to</text>
<text text-anchor="start" x="303" y="-366.8" font-family="Verdana" font-size="9.00">: </text>
<text text-anchor="start" x="310" y="-366.8" font-family="Verdana" font-style="italic" font-size="9.00">DATE </text>
<polygon fill="none" stroke="black" points="258,-338 258,-358 474,-358 474,-338 258,-338"/>
<text text-anchor="start" x="263" y="-346.8" font-family="Verdana" font-weight="bold" font-size="9.00">source_code</text>
<text text-anchor="start" x="326" y="-346.8" font-family="Verdana" font-size="9.00">: </text>
<text text-anchor="start" x="333" y="-346.8" font-family="Verdana" font-style="italic" font-size="9.00">VARCHAR(32) </text>
<polygon fill="none" stroke="black" points="258,-318 258,-338 474,-338 474,-318 258,-318"/>
<text text-anchor="start" x="263" y="-326.8" font-family="Verdana" font-weight="bold" font-size="9.00">confidence_code</text>
<text text-anchor="start" x="348" y="-326.8" font-family="Verdana" font-size="9.00">: </text>
<text text-anchor="start" x="355" y="-326.8" font-family="Verdana" font-style="italic" font-size="9.00">VARCHAR(16) &#160;NOT NULL</text>
<polygon fill="none" stroke="black" points="258,-298 258,-318 474,-318 474,-298 258,-298"/>
<text text-anchor="start" x="263" y="-306.8" font-family="Verdana" font-weight="bold" font-size="9.00">created_at</text>
<text text-anchor="start" x="318" y="-306.8" font-family="Verdana" font-size="9.00">: </text>
<text text-anchor="start" x="325" y="-306.8" font-family="Verdana" font-style="italic" font-size="9.00">TIMESTAMPTZ &#160;NOT NULL</text>
</g>
<!-- issuer_name_history&#45;&gt;issuer -->
<g id="edge2" class="edge">
<title>issuer_name_history:issuer_id&#45;&gt;issuer:issuer_id</title>
<path fill="none" stroke="black" d="M257,-428C242.11,-428 250.57,-306.9 258,-294 278.09,-259.13 315.53,-282.65 336,-248 341.11,-239.36 346.54,-227.2 345.18,-220.01"/>
<polygon fill="black" stroke="black" points="347.13,-217.09 337,-214 342.99,-222.74 347.13,-217.09"/>
</g>
</g>
</svg>
