<?xml version="1.0" encoding="UTF-8" standalone="no"?>
<!DOCTYPE svg PUBLIC "-//W3C//DTD SVG 1.1//EN"
 "http://www.w3.org/Graphics/SVG/1.1/DTD/svg11.dtd">
<!-- Generated by graphviz version 2.42.4 (0)
 -->
<!-- Title: ERD Pages: 1 -->
<svg width="697pt" height="500pt"
 viewBox="0.00 0.00 697.40 500.00" xmlns="http://www.w3.org/2000/svg" xmlns:xlink="http://www.w3.org/1999/xlink">
<g id="graph0" class="graph" transform="scale(1 1) rotate(0) translate(4 496)">
<title>ERD</title>
<polygon fill="white" stroke="transparent" points="-4,4 -4,-496 693.4,-496 693.4,4 -4,4"/>
<!-- identifier_type -->
<g id="node1" class="node">
<title>identifier_type</title>
<polygon fill="lightblue" stroke="transparent" points="8.5,-164 8.5,-184 191.5,-184 191.5,-164 8.5,-164"/>
<polygon fill="none" stroke="black" points="8.5,-164 8.5,-184 191.5,-184 191.5,-164 8.5,-164"/>
<text text-anchor="start" x="62" y="-172.8" font-family="Verdana" font-weight="bold" font-size="9.00">identifier_type</text>
<polygon fill="none" stroke="black" points="8.5,-144 8.5,-164 191.5,-164 191.5,-144 8.5,-144"/>
<text text-anchor="start" x="13.5" y="-152.8" font-family="Verdana" font-weight="bold" font-size="9.00">id_type</text>
<text text-anchor="start" x="51.5" y="-152.8" font-family="Verdana" font-size="9.00">: </text>
<text text-anchor="start" x="58.5" y="-152.8" font-family="Verdana" font-style="italic" font-size="9.00">VARCHAR(32) &#160;NOT NULL</text>
<polygon fill="none" stroke="black" points="8.5,-124 8.5,-144 191.5,-144 191.5,-124 8.5,-124"/>
<text text-anchor="start" x="13.5" y="-132.8" font-family="Verdana" font-weight="bold" font-size="9.00">id_name</text>
<text text-anchor="start" x="56.5" y="-132.8" font-family="Verdana" font-size="9.00">: </text>
<text text-anchor="start" x="63.5" y="-132.8" font-family="Verdana" font-style="italic" font-size="9.00">TEXT &#160;NOT NULL</text>
<polygon fill="none" stroke="black" points="8.5,-104 8.5,-124 191.5,-124 191.5,-104 8.5,-104"/>
<text text-anchor="start" x="13.5" y="-112.8" font-family="Verdana" font-weight="bold" font-size="9.00">applies_to</text>
<text text-anchor="start" x="65.5" y="-112.8" font-family="Verdana" font-size="9.00">: </text>
<text text-anchor="start" x="72.5" y="-112.8" font-family="Verdana" font-style="italic" font-size="9.00">VARCHAR(32) &#160;NOT NULL</text>
<polygon fill="none" stroke="black" points="8.5,-84 8.5,-104 191.5,-104 191.5,-84 8.5,-84"/>
<text text-anchor="start" x="13.5" y="-92.8" font-family="Verdana" font-weight="bold" font-size="9.00">description</text>
<text text-anchor="start" x="71.5" y="-92.8" font-family="Verdana" font-size="9.00">: </text>
<text text-anchor="start" x="78.5" y="-92.8" font-family="Verdana" font-style="italic" font-size="9.00">TEXT </text>
<polygon fill="none" stroke="black" points="8.5,-64 8.5,-84 191.5,-84 191.5,-64 8.5,-64"/>
<text text-anchor="start" x="13.5" y="-72.8" font-family="Verdana" font-weight="bold" font-size="9.00">is_active</text>
<text text-anchor="start" x="57.5" y="-72.8" font-family="Verdana" font-size="9.00">: </text>
<text text-anchor="start" x="64.5" y="-72.8" font-family="Verdana" font-style="italic" font-size="9.00">BOOLEAN &#160;NOT NULL</text>
</g>
<!-- issuer -->
<g id="node2" class="node">
<title>issuer</title>
<polygon fill="lightblue" stroke="transparent" points="225.5,-224 225.5,-244 416.5,-244 416.5,-224 225.5,-224"/>
<polygon fill="none" stroke="black" points="225.5,-224 225.5,-244 416.5,-244 416.5,-224 225.5,-224"/>
<text text-anchor="start" x="305.5" y="-232.8" font-family="Verdana" font-weight="bold" font-size="9.00">issuer</text>
<polygon fill="none" stroke="black" points="225.5,-204 225.5,-224 416.5,-224 416.5,-204 225.5,-204"/>
<text text-anchor="start" x="230.5" y="-212.8" font-family="Verdana" font-weight="bold" font-size="9.00">issuer_id</text>
<text text-anchor="start" x="276.5" y="-212.8" font-family="Verdana" font-size="9.00">: </text>
<text text-anchor="start" x="283.5" y="-212.8" font-family="Verdana" font-style="italic" font-size="9.00">UUID &#160;NOT NULL</text>
<polygon fill="none" stroke="black" points="225.5,-184 225.5,-204 416.5,-204 416.5,-184 225.5,-184"/>
<text text-anchor="start" x="230.5" y="-192.8" font-family="Verdana" font-weight="bold" font-size="9.00">cik</text>
<text text-anchor="start" x="245.5" y="-192.8" font-family="Verdana" font-size="9.00">: </text>
<text text-anchor="start" x="252.5" y="-192.8" font-family="Verdana" font-style="italic" font-size="9.00">VARCHAR(10) </text>
<polygon fill="none" stroke="black" points="225.5,-164 225.5,-184 416.5,-184 416.5,-164 225.5,-164"/>
<text text-anchor="start" x="230.5" y="-172.8" font-family="Verdana" font-weight="bold" font-size="9.00">issuer_type</text>
<text text-anchor="start" x="289.5" y="-172.8" font-family="Verdana" font-size="9.00">: </text>
<text text-anchor="start" x="296.5" y="-172.8" font-family="Verdana" font-style="italic" font-size="9.00">VARCHAR(32) &#160;NOT NULL</text>
<polygon fill="none" stroke="black" points="225.5,-144 225.5,-164 416.5,-164 416.5,-144 225.5,-144"/>
<text text-anchor="start" x="230.5" y="-152.8" font-family="Verdana" font-weight="bold" font-size="9.00">current_name</text>
<text text-anchor="start" x="302.5" y="-152.8" font-family="Verdana" font-size="9.00">: </text>
<text text-anchor="start" x="309.5" y="-152.8" font-family="Verdana" font-style="italic" font-size="9.00">TEXT &#160;NOT NULL</text>
<polygon fill="none" stroke="black" points="225.5,-124 225.5,-144 416.5,-144 416.5,-124 225.5,-124"/>
<text text-anchor="start" x="230.5" y="-132.8" font-family="Verdana" font-weight="bold" font-size="9.00">country_alpha2</text>
<text text-anchor="start" x="309.5" y="-132.8" font-family="Verdana" font-size="9.00">: </text>
<text text-anchor="start" x="316.5" y="-132.8" font-family="Verdana" font-style="italic" font-size="9.00">VARCHAR(2) </text>
<polygon fill="none" stroke="black" points="225.5,-104 225.5,-124 416.5,-124 416.5,-104 225.5,-104"/>
<text text-anchor="start" x="230.5" y="-112.8" font-family="Verdana" font-weight="bold" font-size="9.00">sic_code</text>
<text text-anchor="start" x="273.5" y="-112.8" font-family="Verdana" font-size="9.00">: </text>
<text text-anchor="start" x="280.5" y="-112.8" font-family="Verdana" font-style="italic" font-size="9.00">VARCHAR(4) </text>
<polygon fill="none" stroke="black" points="225.5,-84 225.5,-104 416.5,-104 416.5,-84 225.5,-84"/>
<text text-anchor="start" x="230.5" y="-92.8" font-family="Verdana" font-weight="bold" font-size="9.00">status</text>
<text text-anchor="start" x="263.5" y="-92.8" font-family="Verdana" font-size="9.00">: </text>
<text text-anchor="start" x="270.5" y="-92.8" font-family="Verdana" font-style="italic" font-size="9.00">VARCHAR(24) &#160;NOT NULL</text>
<polygon fill="none" stroke="black" points="225.5,-64 225.5,-84 416.5,-84 416.5,-64 225.5,-64"/>
<text text-anchor="start" x="230.5" y="-72.8" font-family="Verdana" font-weight="bold" font-size="9.00">first_seen</text>
<text text-anchor="start" x="280.5" y="-72.8" font-family="Verdana" font-size="9.00">: </text>
<text text-anchor="start" x="287.5" y="-72.8" font-family="Verdana" font-style="italic" font-size="9.00">DATE </text>
<polygon fill="none" stroke="black" points="225.5,-44 225.5,-64 416.5,-64 416.5,-44 225.5,-44"/>
<text text-anchor="start" x="230.5" y="-52.8" font-family="Verdana" font-weight="bold" font-size="9.00">last_seen</text>
<text text-anchor="start" x="278.5" y="-52.8" font-family="Verdana" font-size="9.00">: </text>
<text text-anchor="start" x="285.5" y="-52.8" font-family="Verdana" font-style="italic" font-size="9.00">DATE </text>
<polygon fill="none" stroke="black" points="225.5,-24 225.5,-44 416.5,-44 416.5,-24 225.5,-24"/>
<text text-anchor="start" x="230.5" y="-32.8" font-family="Verdana" font-weight="bold" font-size="9.00">created_at</text>
<text text-anchor="start" x="285.5" y="-32.8" font-family="Verdana" font-size="9.00">: </text>
<text text-anchor="start" x="292.5" y="-32.8" font-family="Verdana" font-style="italic" font-size="9.00">TIMESTAMPTZ &#160;NOT NULL</text>
<polygon fill="none" stroke="black" points="225.5,-4 225.5,-24 416.5,-24 416.5,-4 225.5,-4"/>
<text text-anchor="start" x="230.5" y="-12.8" font-family="Verdana" font-weight="bold" font-size="9.00">updated_at</text>
<text text-anchor="start" x="289.5" y="-12.8" font-family="Verdana" font-size="9.00">: </text>
<text text-anchor="start" x="296.5" y="-12.8" font-family="Verdana" font-style="italic" font-size="9.00">TIMESTAMPTZ &#160;NOT NULL</text>
</g>
<!-- issuer_identifier -->
<g id="node3" class="node">
<title>issuer_identifier</title>
<polygon fill="lightblue" stroke="transparent" points="194.5,-468 194.5,-488 410.5,-488 410.5,-468 194.5,-468"/>
<polygon fill="none" stroke="black" points="194.5,-468 194.5,-488 410.5,-488 410.5,-468 194.5,-468"/>
<text text-anchor="start" x="261" y="-476.8" font-family="Verdana" font-weight="bold" font-size="9.00">issuer_identifier</text>
<polygon fill="none" stroke="black" points="194.5,-448 194.5,-468 410.5,-468 410.5,-448 194.5,-448"/>
<text text-anchor="start" x="199.5" y="-456.8" font-family="Verdana" font-weight="bold" font-size="9.00">issuer_identifier_id</text>
<text text-anchor="start" x="296.5" y="-456.8" font-family="Verdana" font-size="9.00">: </text>
<text text-anchor="start" x="303.5" y="-456.8" font-family="Verdana" font-style="italic" font-size="9.00">UUID &#160;NOT NULL</text>
<polygon fill="none" stroke="black" points="194.5,-428 194.5,-448 410.5,-448 410.5,-428 194.5,-428"/>
<text text-anchor="start" x="199.5" y="-436.8" font-family="Verdana" font-weight="bold" font-size="9.00">issuer_id</text>
<text text-anchor="start" x="245.5" y="-436.8" font-family="Verdana" font-size="9.00">: </text>
<text text-anchor="start" x="252.5" y="-436.8" font-family="Verdana" font-style="italic" font-size="9.00">UUID &#160;NOT NULL</text>
<polygon fill="none" stroke="black" points="194.5,-408 194.5,-428 410.5,-428 410.5,-408 194.5,-408"/>
<text text-anchor="start" x="199.5" y="-416.8" font-family="Verdana" font-weight="bold" font-size="9.00">id_type</text>
<text text-anchor="start" x="237.5" y="-416.8" font-family="Verdana" font-size="9.00">: </text>
<text text-anchor="start" x="244.5" y="-416.8" font-family="Verdana" font-style="italic" font-size="9.00">VARCHAR(32) &#160;NOT NULL</text>
<polygon fill="none" stroke="black" points="194.5,-388 194.5,-408 410.5,-408 410.5,-388 194.5,-388"/>
<text text-anchor="start" x="199.5" y="-396.8" font-family="Verdana" font-weight="bold" font-size="9.00">id_value</text>
<text text-anchor="start" x="242.5" y="-396.8" font-family="Verdana" font-size="9.00">: </text>
<text text-anchor="start" x="249.5" y="-396.8" font-family="Verdana" font-style="italic" font-size="9.00">TEXT &#160;NOT NULL</text>
<polygon fill="none" stroke="black" points="194.5,-368 194.5,-388 410.5,-388 410.5,-368 194.5,-368"/>
<text text-anchor="start" x="199.5" y="-376.8" font-family="Verdana" font-weight="bold" font-size="9.00">valid_from</text>
<text text-anchor="start" x="253.5" y="-376.8" font-family="Verdana" font-size="9.00">: </text>
<text text-anchor="start" x="260.5" y="-376.8" font-family="Verdana" font-style="italic" font-size="9.00">DATE </text>
<polygon fill="none" stroke="black" points="194.5,-348 194.5,-368 410.5,-368 410.5,-348 194.5,-348"/>
<text text-anchor="start" x="199.5" y="-356.8" font-family="Verdana" font-weight="bold" font-size="9.00">valid_to</text>
<text text-anchor="start" x="239.5" y="-356.8" font-family="Verdana" font-size="9.00">: </text>
<text text-anchor="start" x="246.5" y="-356.8" font-family="Verdana" font-style="italic" font-size="9.00">DATE </text>
<polygon fill="none" stroke="black" points="194.5,-328 194.5,-348 410.5,-348 410.5,-328 194.5,-328"/>
<text text-anchor="start" x="199.5" y="-336.8" font-family="Verdana" font-weight="bold" font-size="9.00">provider_code</text>
<text text-anchor="start" x="272.5" y="-336.8" font-family="Verdana" font-size="9.00">: </text>
<text text-anchor="start" x="279.5" y="-336.8" font-family="Verdana" font-style="italic" font-size="9.00">VARCHAR(32) </text>
<polygon fill="none" stroke="black" points="194.5,-308 194.5,-328 410.5,-328 410.5,-308 194.5,-308"/>
<text text-anchor="start" x="199.5" y="-316.8" font-family="Verdana" font-weight="bold" font-size="9.00">confidence_code</text>
<text text-anchor="start" x="284.5" y="-316.8" font-family="Verdana" font-size="9.00">: </text>
<text text-anchor="start" x="291.5" y="-316.8" font-family="Verdana" font-style="italic" font-size="9.00">VARCHAR(16) &#160;NOT NULL</text>
<polygon fill="none" stroke="black" points="194.5,-288 194.5,-308 410.5,-308 410.5,-288 194.5,-288"/>
<text text-anchor="start" x="199.5" y="-296.8" font-family="Verdana" font-weight="bold" font-size="9.00">created_at</text>
<text text-anchor="start" x="254.5" y="-296.8" font-family="Verdana" font-size="9.00">: </text>
<text text-anchor="start" x="261.5" y="-296.8" font-family="Verdana" font-style="italic" font-size="9.00">TIMESTAMPTZ &#160;NOT NULL</text>
</g>
<!-- issuer_identifier&#45;&gt;identifier_type -->
<g id="edge3" class="edge">
<title>issuer_identifier:id_type&#45;&gt;identifier_type:id_type</title>
<path fill="none" stroke="black" d="M193.5,-418C167.2,-418 210.83,-205.83 199.01,-161.9"/>
<polygon fill="black" stroke="black" points="201.56,-159.5 192.5,-154 196.15,-163.94 201.56,-159.5"/>
</g>
<!-- issuer_identifier&#45;&gt;issuer -->
<g id="edge1" class="edge">
<title>issuer_identifier:issuer_id&#45;&gt;issuer:issuer_id</title>
<path fill="none" stroke="black" d="M411.5,-438C428.61,-438 421.43,-297.17 410.5,-284 357.02,-219.53 279.72,-311.85 225.5,-248 218.77,-240.08 213.68,-226.98 216.06,-219.56"/>
<polygon fill="black" stroke="black" points="218.08,-222.43 224.5,-214 214.23,-216.58 218.08,-222.43"/>
</g>
<!-- provider -->
<g id="node5" class="node">
<title>provider</title>
<polygon fill="lightblue" stroke="transparent" points="450.5,-174 450.5,-194 654.5,-194 654.5,-174 450.5,-174"/>
<polygon fill="none" stroke="black" points="450.5,-174 450.5,-194 654.5,-194 654.5,-174 450.5,-174"/>
<text text-anchor="start" x="530.5" y="-182.8" font-family="Verdana" font-weight="bold" font-size="9.00">provider</text>
<polygon fill="none" stroke="black" points="450.5,-154 450.5,-174 654.5,-174 654.5,-154 450.5,-154"/>
<text text-anchor="start" x="455.5" y="-162.8" font-family="Verdana" font-weight="bold" font-size="9.00">provider_code</text>
<text text-anchor="start" x="528.5" y="-162.8" font-family="Verdana" font-size="9.00">: </text>
<text text-anchor="start" x="535.5" y="-162.8" font-family="Verdana" font-style="italic" font-size="9.00">VARCHAR(32) &#160;NOT NULL</text>
<polygon fill="none" stroke="black" points="450.5,-134 450.5,-154 654.5,-154 654.5,-134 450.5,-134"/>
<text text-anchor="start" x="455.5" y="-142.8" font-family="Verdana" font-weight="bold" font-size="9.00">provider_name</text>
<text text-anchor="start" x="532.5" y="-142.8" font-family="Verdana" font-size="9.00">: </text>
<text text-anchor="start" x="539.5" y="-142.8" font-family="Verdana" font-style="italic" font-size="9.00">TEXT &#160;NOT NULL</text>
<polygon fill="none" stroke="black" points="450.5,-114 450.5,-134 654.5,-134 654.5,-114 450.5,-114"/>
<text text-anchor="start" x="455.5" y="-122.8" font-family="Verdana" font-weight="bold" font-size="9.00">provider_type</text>
<text text-anchor="start" x="527.5" y="-122.8" font-family="Verdana" font-size="9.00">: </text>
<text text-anchor="start" x="534.5" y="-122.8" font-family="Verdana" font-style="italic" font-size="9.00">VARCHAR(32) &#160;NOT NULL</text>
<polygon fill="none" stroke="black" points="450.5,-94 450.5,-114 654.5,-114 654.5,-94 450.5,-94"/>
<text text-anchor="start" x="455.5" y="-102.8" font-family="Verdana" font-weight="bold" font-size="9.00">website</text>
<text text-anchor="start" x="495.5" y="-102.8" font-family="Verdana" font-size="9.00">: </text>
<text text-anchor="start" x="502.5" y="-102.8" font-family="Verdana" font-style="italic" font-size="9.00">TEXT </text>
<polygon fill="none" stroke="black" points="450.5,-74 450.5,-94 654.5,-94 654.5,-74 450.5,-74"/>
<text text-anchor="start" x="455.5" y="-82.8" font-family="Verdana" font-weight="bold" font-size="9.00">description</text>
<text text-anchor="start" x="513.5" y="-82.8" font-family="Verdana" font-size="9.00">: </text>
<text text-anchor="start" x="520.5" y="-82.8" font-family="Verdana" font-style="italic" font-size="9.00">TEXT </text>
<polygon fill="none" stroke="black" points="450.5,-54 450.5,-74 654.5,-74 654.5,-54 450.5,-54"/>
<text text-anchor="start" x="455.5" y="-62.8" font-family="Verdana" font-weight="bold" font-size="9.00">is_active</text>
<text text-anchor="start" x="499.5" y="-62.8" font-family="Verdana" font-size="9.00">: </text>
<text text-anchor="start" x="506.5" y="-62.8" font-family="Verdana" font-style="italic" font-size="9.00">BOOLEAN &#160;NOT NULL</text>
</g>
<!-- issuer_identifier&#45;&gt;provider -->
<g id="edge2" class="edge">
<title>issuer_identifier:provider_code&#45;&gt;provider:provider_code</title>
<path fill="none" stroke="black" d="M411.5,-338C421.77,-338 430.31,-258.03 432.5,-248 435.79,-232.88 432.38,-186.88 441.21,-170.16"/>
<polygon fill="black" stroke="black" points="443.56,-172.77 449.5,-164 439.38,-167.15 443.56,-172.77"/>
</g>
<!-- issuer_name_history -->
<g id="node4" class="node">
<title>issuer_name_history</title>
<polygon fill="lightblue" stroke="transparent" points="444.5,-458 444.5,-478 660.5,-478 660.5,-458 444.5,-458"/>
<polygon fill="none" stroke="black" points="444.5,-458 444.5,-478 660.5,-478 660.5,-458 444.5,-458"/>
<text text-anchor="start" x="500" y="-466.8" font-family="Verdana" font-weight="bold" font-size="9.00">issuer_name_history</text>
<polygon fill="none" stroke="black" points="444.5,-438 444.5,-458 660.5,-458 660.5,-438 444.5,-438"/>
<text text-anchor="start" x="449.5" y="-446.8" font-family="Verdana" font-weight="bold" font-size="9.00">issuer_name_id</text>
<text text-anchor="start" x="528.5" y="-446.8" font-family="Verdana" font-size="9.00">: </text>
<text text-anchor="start" x="535.5" y="-446.8" font-family="Verdana" font-style="italic" font-size="9.00">UUID &#160;NOT NULL</text>
<polygon fill="none" stroke="black" points="444.5,-418 444.5,-438 660.5,-438 660.5,-418 444.5,-418"/>
<text text-anchor="start" x="449.5" y="-426.8" font-family="Verdana" font-weight="bold" font-size="9.00">issuer_id</text>
<text text-anchor="start" x="495.5" y="-426.8" font-family="Verdana" font-size="9.00">: </text>
<text text-anchor="start" x="502.5" y="-426.8" font-family="Verdana" font-style="italic" font-size="9.00">UUID &#160;NOT NULL</text>
<polygon fill="none" stroke="black" points="444.5,-398 444.5,-418 660.5,-418 660.5,-398 444.5,-398"/>
<text text-anchor="start" x="449.5" y="-406.8" font-family="Verdana" font-weight="bold" font-size="9.00">name</text>
<text text-anchor="start" x="478.5" y="-406.8" font-family="Verdana" font-size="9.00">: </text>
<text text-anchor="start" x="485.5" y="-406.8" font-family="Verdana" font-style="italic" font-size="9.00">TEXT &#160;NOT NULL</text>
<polygon fill="none" stroke="black" points="444.5,-378 444.5,-398 660.5,-398 660.5,-378 444.5,-378"/>
<text text-anchor="start" x="449.5" y="-386.8" font-family="Verdana" font-weight="bold" font-size="9.00">valid_from</text>
<text text-anchor="start" x="503.5" y="-386.8" font-family="Verdana" font-size="9.00">: </text>
<text text-anchor="start" x="510.5" y="-386.8" font-family="Verdana" font-style="italic" font-size="9.00">DATE </text>
<polygon fill="none" stroke="black" points="444.5,-358 444.5,-378 660.5,-378 660.5,-358 444.5,-358"/>
<text text-anchor="start" x="449.5" y="-366.8" font-family="Verdana" font-weight="bold" font-size="9.00">valid_to</text>
<text text-anchor="start" x="489.5" y="-366.8" font-family="Verdana" font-size="9.00">: </text>
<text text-anchor="start" x="496.5" y="-366.8" font-family="Verdana" font-style="italic" font-size="9.00">DATE </text>
<polygon fill="none" stroke="black" points="444.5,-338 444.5,-358 660.5,-358 660.5,-338 444.5,-338"/>
<text text-anchor="start" x="449.5" y="-346.8" font-family="Verdana" font-weight="bold" font-size="9.00">provider_code</text>
<text text-anchor="start" x="522.5" y="-346.8" font-family="Verdana" font-size="9.00">: </text>
<text text-anchor="start" x="529.5" y="-346.8" font-family="Verdana" font-style="italic" font-size="9.00">VARCHAR(32) </text>
<polygon fill="none" stroke="black" points="444.5,-318 444.5,-338 660.5,-338 660.5,-318 444.5,-318"/>
<text text-anchor="start" x="449.5" y="-326.8" font-family="Verdana" font-weight="bold" font-size="9.00">confidence_code</text>
<text text-anchor="start" x="534.5" y="-326.8" font-family="Verdana" font-size="9.00">: </text>
<text text-anchor="start" x="541.5" y="-326.8" font-family="Verdana" font-style="italic" font-size="9.00">VARCHAR(16) &#160;NOT NULL</text>
<polygon fill="none" stroke="black" points="444.5,-298 444.5,-318 660.5,-318 660.5,-298 444.5,-298"/>
<text text-anchor="start" x="449.5" y="-306.8" font-family="Verdana" font-weight="bold" font-size="9.00">created_at</text>
<text text-anchor="start" x="504.5" y="-306.8" font-family="Verdana" font-size="9.00">: </text>
<text text-anchor="start" x="511.5" y="-306.8" font-family="Verdana" font-style="italic" font-size="9.00">TIMESTAMPTZ &#160;NOT NULL</text>
</g>
<!-- issuer_name_history&#45;&gt;issuer -->
<g id="edge4" class="edge">
<title>issuer_name_history:issuer_id&#45;&gt;issuer:issuer_id</title>
<path fill="none" stroke="black" d="M443.5,-428C422.26,-428 437.08,-259.74 424.01,-221.62"/>
<polygon fill="black" stroke="black" points="426.66,-219.33 417.5,-214 421.34,-223.88 426.66,-219.33"/>
</g>
<!-- issuer_name_history&#45;&gt;provider -->
<g id="edge5" class="edge">
<title>issuer_name_history:provider_code&#45;&gt;provider:provider_code</title>
<path fill="none" stroke="black" d="M661.5,-348C698.89,-348 697.1,-194.27 665.27,-167.84"/>
<polygon fill="black" stroke="black" points="666.09,-164.4 655.5,-164 663.52,-170.92 666.09,-164.4"/>
</g>
</g>
</svg>
