<?xml version="1.0" encoding="UTF-8" standalone="no"?>
<!DOCTYPE svg PUBLIC "-//W3C//DTD SVG 1.1//EN"
 "http://www.w3.org/Graphics/SVG/1.1/DTD/svg11.dtd">
<!-- Generated by graphviz version 2.42.4 (0)
 -->
<!-- Title: schema_relations Pages: 1 -->
<svg width="1937pt" height="1024pt"
 viewBox="0.00 0.00 1937.00 1023.73" xmlns="http://www.w3.org/2000/svg" xmlns:xlink="http://www.w3.org/1999/xlink">
<g id="graph0" class="graph" transform="scale(1 1) rotate(0) translate(18 1005.73)">
<title>schema_relations</title>
<!-- confidence_level -->
<g id="node1" class="node">
<title>confidence_level</title>
<path fill="#f8fafc" stroke="#334155" d="M845,-863C845,-863 764,-863 764,-863 758,-863 752,-857 752,-851 752,-851 752,-839 752,-839 752,-833 758,-827 764,-827 764,-827 845,-827 845,-827 851,-827 857,-833 857,-839 857,-839 857,-851 857,-851 857,-857 851,-863 845,-863"/>
<text text-anchor="middle" x="804.5" y="-842.2" font-family="Helvetica,sans-Serif" font-size="11.00">confidence_level</text>
</g>
<!-- security_reconciliation_evaluation -->
<g id="node10" class="node">
<title>security_reconciliation_evaluation</title>
<path fill="#f8fafc" stroke="#334155" d="M1299,-775C1299,-775 1122,-775 1122,-775 1116,-775 1110,-769 1110,-763 1110,-763 1110,-751 1110,-751 1110,-745 1116,-739 1122,-739 1122,-739 1299,-739 1299,-739 1305,-739 1311,-745 1311,-751 1311,-751 1311,-763 1311,-763 1311,-769 1305,-775 1299,-775"/>
<text text-anchor="middle" x="1210.5" y="-754.2" font-family="Helvetica,sans-Serif" font-size="11.00">security_reconciliation_evaluation</text>
</g>
<!-- confidence_level&#45;&gt;security_reconciliation_evaluation -->
<g id="edge1" class="edge">
<title>confidence_level&#45;&gt;security_reconciliation_evaluation</title>
<path fill="none" stroke="#64748b" d="M857.19,-835.23C911.92,-824.73 1000.77,-807.21 1077,-790 1094.96,-785.95 1114.23,-781.31 1132.35,-776.83"/>
<polygon fill="#64748b" stroke="#64748b" points="1133.3,-779.11 1139.5,-775.05 1132.11,-774.36 1133.3,-779.11"/>
<text text-anchor="middle" x="993" y="-827.6" font-family="Helvetica,sans-Serif" font-size="8.00">fk_sec_recon_eval_confidence</text>
</g>
<!-- issuer -->
<g id="node2" class="node">
<title>issuer</title>
<path fill="#f8fafc" stroke="#334155" d="M45,-450C45,-450 15,-450 15,-450 9,-450 3,-444 3,-438 3,-438 3,-426 3,-426 3,-420 9,-414 15,-414 15,-414 45,-414 45,-414 51,-414 57,-420 57,-426 57,-426 57,-438 57,-438 57,-444 51,-450 45,-450"/>
<text text-anchor="middle" x="30" y="-429.2" font-family="Helvetica,sans-Serif" font-size="11.00">issuer</text>
</g>
<!-- provider_evidence -->
<g id="node5" class="node">
<title>provider_evidence</title>
<path fill="#f8fafc" stroke="#334155" d="M1256,-366C1256,-366 1165,-366 1165,-366 1159,-366 1153,-360 1153,-354 1153,-354 1153,-342 1153,-342 1153,-336 1159,-330 1165,-330 1165,-330 1256,-330 1256,-330 1262,-330 1268,-336 1268,-342 1268,-342 1268,-354 1268,-354 1268,-360 1262,-366 1256,-366"/>
<text text-anchor="middle" x="1210.5" y="-345.2" font-family="Helvetica,sans-Serif" font-size="11.00">provider_evidence</text>
</g>
<!-- issuer&#45;&gt;provider_evidence -->
<g id="edge2" class="edge">
<title>issuer&#45;&gt;provider_evidence</title>
<path fill="none" stroke="#64748b" d="M48.48,-413.91C60.03,-403.21 76.1,-390.5 93,-384 185.76,-348.29 216.88,-374.41 316,-367 400.88,-360.65 421.95,-356.42 507,-353 742.09,-343.56 1021.78,-345.51 1145.36,-347.04"/>
<polygon fill="#64748b" stroke="#64748b" points="1145.53,-349.49 1152.56,-347.13 1145.59,-344.59 1145.53,-349.49"/>
<text text-anchor="middle" x="603.5" y="-355.6" font-family="Helvetica,sans-Serif" font-size="8.00">fk_provider_evidence_issuer</text>
</g>
<!-- security -->
<g id="node8" class="node">
<title>security</title>
<path fill="#f8fafc" stroke="#334155" d="M412.5,-599C412.5,-599 377.5,-599 377.5,-599 371.5,-599 365.5,-593 365.5,-587 365.5,-587 365.5,-575 365.5,-575 365.5,-569 371.5,-563 377.5,-563 377.5,-563 412.5,-563 412.5,-563 418.5,-563 424.5,-569 424.5,-575 424.5,-575 424.5,-587 424.5,-587 424.5,-593 418.5,-599 412.5,-599"/>
<text text-anchor="middle" x="395" y="-578.2" font-family="Helvetica,sans-Serif" font-size="11.00">security</text>
</g>
<!-- issuer&#45;&gt;security -->
<g id="edge3" class="edge">
<title>issuer&#45;&gt;security</title>
<path fill="none" stroke="#64748b" d="M57.11,-442.72C121.12,-468.99 285.96,-536.65 358.66,-566.49"/>
<polygon fill="#64748b" stroke="#64748b" points="357.99,-568.87 365.4,-569.26 359.85,-564.34 357.99,-568.87"/>
<text text-anchor="middle" x="188" y="-534.6" font-family="Helvetica,sans-Serif" font-size="8.00">fk_security_issuer</text>
</g>
<!-- issuer&#45;&gt;security_reconciliation_evaluation -->
<g id="edge4" class="edge">
<title>issuer&#45;&gt;security_reconciliation_evaluation</title>
<path fill="none" stroke="#64748b" d="M37.38,-450.08C46.75,-474.83 66.08,-519.76 93,-551 241.5,-723.34 298.92,-760.04 507,-852 741.16,-955.48 848.23,-1049.9 1077,-935 1141.27,-902.72 1182.27,-822.85 1199.76,-781.97"/>
<polygon fill="#64748b" stroke="#64748b" points="1202.11,-782.69 1202.56,-775.29 1197.59,-780.8 1202.11,-782.69"/>
<text text-anchor="middle" x="603.5" y="-942.6" font-family="Helvetica,sans-Serif" font-size="8.00">fk_sec_recon_eval_issuer</text>
</g>
<!-- security_reconciliation_evidence -->
<g id="node13" class="node">
<title>security_reconciliation_evidence</title>
<path fill="#f8fafc" stroke="#334155" d="M1294.5,-501C1294.5,-501 1126.5,-501 1126.5,-501 1120.5,-501 1114.5,-495 1114.5,-489 1114.5,-489 1114.5,-477 1114.5,-477 1114.5,-471 1120.5,-465 1126.5,-465 1126.5,-465 1294.5,-465 1294.5,-465 1300.5,-465 1306.5,-471 1306.5,-477 1306.5,-477 1306.5,-489 1306.5,-489 1306.5,-495 1300.5,-501 1294.5,-501"/>
<text text-anchor="middle" x="1210.5" y="-480.2" font-family="Helvetica,sans-Serif" font-size="11.00">security_reconciliation_evidence</text>
</g>
<!-- issuer&#45;&gt;security_reconciliation_evidence -->
<g id="edge5" class="edge">
<title>issuer&#45;&gt;security_reconciliation_evidence</title>
<path fill="none" stroke="#64748b" d="M57.09,-427.05C161.03,-408.07 555.56,-343.25 876,-388 976.82,-402.08 1089.95,-439 1155.14,-462.45"/>
<polygon fill="#64748b" stroke="#64748b" points="1154.66,-464.88 1162.08,-464.96 1156.33,-460.28 1154.66,-464.88"/>
<text text-anchor="middle" x="603.5" y="-377.6" font-family="Helvetica,sans-Serif" font-size="8.00">fk_sec_recon_evidence_issuer</text>
</g>
<!-- listing -->
<g id="node3" class="node">
<title>listing</title>
<path fill="#f8fafc" stroke="#334155" d="M819.5,-764C819.5,-764 789.5,-764 789.5,-764 783.5,-764 777.5,-758 777.5,-752 777.5,-752 777.5,-740 777.5,-740 777.5,-734 783.5,-728 789.5,-728 789.5,-728 819.5,-728 819.5,-728 825.5,-728 831.5,-734 831.5,-740 831.5,-740 831.5,-752 831.5,-752 831.5,-758 825.5,-764 819.5,-764"/>
<text text-anchor="middle" x="804.5" y="-743.2" font-family="Helvetica,sans-Serif" font-size="11.00">listing</text>
</g>
<!-- listing&#45;&gt;provider_evidence -->
<g id="edge6" class="edge">
<title>listing&#45;&gt;provider_evidence</title>
<path fill="none" stroke="#64748b" d="M831.65,-733.17C846.81,-724.43 865.01,-711.46 876,-695 911.26,-642.2 873.19,-608.43 909,-556 972.18,-463.5 1091.14,-399.65 1158.9,-368.94"/>
<polygon fill="#64748b" stroke="#64748b" points="1159.91,-371.17 1165.29,-366.07 1157.9,-366.7 1159.91,-371.17"/>
<text text-anchor="middle" x="993" y="-558.6" font-family="Helvetica,sans-Serif" font-size="8.00">fk_provider_evidence_listing</text>
</g>
<!-- listing&#45;&gt;security_reconciliation_evaluation -->
<g id="edge7" class="edge">
<title>listing&#45;&gt;security_reconciliation_evaluation</title>
<path fill="none" stroke="#64748b" d="M831.7,-746.71C885.46,-748.18 1010.91,-751.59 1102.55,-754.09"/>
<polygon fill="#64748b" stroke="#64748b" points="1102.58,-756.54 1109.65,-754.28 1102.72,-751.64 1102.58,-756.54"/>
<text text-anchor="middle" x="993" y="-755.6" font-family="Helvetica,sans-Serif" font-size="8.00">fk_sec_recon_eval_listing</text>
</g>
<!-- listing&#45;&gt;security_reconciliation_evaluation -->
<g id="edge8" class="edge">
<title>listing&#45;&gt;security_reconciliation_evaluation</title>
<path fill="none" stroke="#64748b" d="M831.65,-752.82C852.45,-757.87 882.37,-764.33 909,-767 973,-773.43 1045.02,-771.35 1102.5,-767.47"/>
<polygon fill="#64748b" stroke="#64748b" points="1102.98,-769.89 1109.8,-766.96 1102.64,-765 1102.98,-769.89"/>
<text text-anchor="middle" x="993" y="-773.6" font-family="Helvetica,sans-Serif" font-size="8.00">fk_sec_recon_eval_related_listing</text>
</g>
<!-- listing&#45;&gt;security_reconciliation_evidence -->
<g id="edge9" class="edge">
<title>listing&#45;&gt;security_reconciliation_evidence</title>
<path fill="none" stroke="#64748b" d="M831.7,-728.95C902.42,-682.91 1097.17,-556.12 1175.86,-504.9"/>
<polygon fill="#64748b" stroke="#64748b" points="1177.24,-506.92 1181.77,-501.05 1174.57,-502.82 1177.24,-506.92"/>
<text text-anchor="middle" x="993" y="-677.6" font-family="Helvetica,sans-Serif" font-size="8.00">fk_sec_recon_evidence_listing</text>
</g>
<!-- provider -->
<g id="node4" class="node">
<title>provider</title>
<path fill="#f8fafc" stroke="#334155" d="M48,-122C48,-122 12,-122 12,-122 6,-122 0,-116 0,-110 0,-110 0,-98 0,-98 0,-92 6,-86 12,-86 12,-86 48,-86 48,-86 54,-86 60,-92 60,-98 60,-98 60,-110 60,-110 60,-116 54,-122 48,-122"/>
<text text-anchor="middle" x="30" y="-101.2" font-family="Helvetica,sans-Serif" font-size="11.00">provider</text>
</g>
<!-- provider_observation -->
<g id="node6" class="node">
<title>provider_observation</title>
<path fill="#f8fafc" stroke="#334155" d="M858,-131C858,-131 751,-131 751,-131 745,-131 739,-125 739,-119 739,-119 739,-107 739,-107 739,-101 745,-95 751,-95 751,-95 858,-95 858,-95 864,-95 870,-101 870,-107 870,-107 870,-119 870,-119 870,-125 864,-131 858,-131"/>
<text text-anchor="middle" x="804.5" y="-110.2" font-family="Helvetica,sans-Serif" font-size="11.00">provider_observation</text>
</g>
<!-- provider&#45;&gt;provider_observation -->
<g id="edge10" class="edge">
<title>provider&#45;&gt;provider_observation</title>
<path fill="none" stroke="#64748b" d="M60.34,-104.34C171.34,-105.64 567.58,-110.25 731.61,-112.16"/>
<polygon fill="#64748b" stroke="#64748b" points="731.74,-114.61 738.77,-112.25 731.8,-109.71 731.74,-114.61"/>
<text text-anchor="middle" x="395" y="-112.6" font-family="Helvetica,sans-Serif" font-size="8.00">fk_provider_observation_provider</text>
</g>
<!-- provider_source_snapshot -->
<g id="node7" class="node">
<title>provider_source_snapshot</title>
<path fill="#f8fafc" stroke="#334155" d="M462,-36C462,-36 328,-36 328,-36 322,-36 316,-30 316,-24 316,-24 316,-12 316,-12 316,-6 322,0 328,0 328,0 462,0 462,0 468,0 474,-6 474,-12 474,-12 474,-24 474,-24 474,-30 468,-36 462,-36"/>
<text text-anchor="middle" x="395" y="-15.2" font-family="Helvetica,sans-Serif" font-size="11.00">provider_source_snapshot</text>
</g>
<!-- provider&#45;&gt;provider_source_snapshot -->
<g id="edge11" class="edge">
<title>provider&#45;&gt;provider_source_snapshot</title>
<path fill="none" stroke="#64748b" d="M60.03,-92.21C70.33,-88.3 82.08,-84.15 93,-81 164.87,-60.27 248.23,-43.36 308.97,-32.3"/>
<polygon fill="#64748b" stroke="#64748b" points="309.44,-34.71 315.89,-31.05 308.57,-29.88 309.44,-34.71"/>
<text text-anchor="middle" x="188" y="-83.6" font-family="Helvetica,sans-Serif" font-size="8.00">provider_source_snapshot_provider_code_fkey</text>
</g>
<!-- security_reconciliation_evaluation_evidence -->
<g id="node11" class="node">
<title>security_reconciliation_evaluation_evidence</title>
<path fill="#f8fafc" stroke="#334155" d="M1849.5,-602C1849.5,-602 1618.5,-602 1618.5,-602 1612.5,-602 1606.5,-596 1606.5,-590 1606.5,-590 1606.5,-578 1606.5,-578 1606.5,-572 1612.5,-566 1618.5,-566 1618.5,-566 1849.5,-566 1849.5,-566 1855.5,-566 1861.5,-572 1861.5,-578 1861.5,-578 1861.5,-590 1861.5,-590 1861.5,-596 1855.5,-602 1849.5,-602"/>
<text text-anchor="middle" x="1734" y="-581.2" font-family="Helvetica,sans-Serif" font-size="11.00">security_reconciliation_evaluation_evidence</text>
</g>
<!-- provider_evidence&#45;&gt;security_reconciliation_evaluation_evidence -->
<g id="edge12" class="edge">
<title>provider_evidence&#45;&gt;security_reconciliation_evaluation_evidence</title>
<path fill="none" stroke="#64748b" d="M1268.08,-366.05C1354.93,-394.13 1513.31,-446.92 1534,-465 1557.8,-485.8 1542.96,-507.47 1567,-528 1585.63,-543.91 1608.97,-555.35 1632.21,-563.56"/>
<polygon fill="#64748b" stroke="#64748b" points="1631.67,-565.97 1639.09,-565.9 1633.25,-561.33 1631.67,-565.97"/>
<text text-anchor="middle" x="1439" y="-467.6" font-family="Helvetica,sans-Serif" font-size="8.00">fk_sec_recon_eval_ev_provider</text>
</g>
<!-- security_reconciliation_evidence_provider_evidence -->
<g id="node14" class="node">
<title>security_reconciliation_evidence_provider_evidence</title>
<path fill="#f8fafc" stroke="#334155" d="M1871,-506C1871,-506 1597,-506 1597,-506 1591,-506 1585,-500 1585,-494 1585,-494 1585,-482 1585,-482 1585,-476 1591,-470 1597,-470 1597,-470 1871,-470 1871,-470 1877,-470 1883,-476 1883,-482 1883,-482 1883,-494 1883,-494 1883,-500 1877,-506 1871,-506"/>
<text text-anchor="middle" x="1734" y="-485.2" font-family="Helvetica,sans-Serif" font-size="11.00">security_reconciliation_evidence_provider_evidence</text>
</g>
<!-- provider_evidence&#45;&gt;security_reconciliation_evidence_provider_evidence -->
<g id="edge13" class="edge">
<title>provider_evidence&#45;&gt;security_reconciliation_evidence_provider_evidence</title>
<path fill="none" stroke="#64748b" d="M1266.42,-329.99C1332.13,-311.48 1444.48,-289.57 1534,-322 1612.7,-350.51 1682.11,-425.26 1714.17,-463.98"/>
<polygon fill="#64748b" stroke="#64748b" points="1712.66,-466 1718.99,-469.87 1716.46,-462.9 1712.66,-466"/>
<text text-anchor="middle" x="1439" y="-324.6" font-family="Helvetica,sans-Serif" font-size="8.00">fk_sec_recon_evidence_provider_source</text>
</g>
<!-- provider_observation&#45;&gt;provider_evidence -->
<g id="edge14" class="edge">
<title>provider_observation&#45;&gt;provider_evidence</title>
<path fill="none" stroke="#64748b" d="M870.28,-109.07C928.64,-108.6 1014.62,-115.77 1077,-155 1141.86,-195.78 1183.04,-281.15 1200.25,-323.33"/>
<polygon fill="#64748b" stroke="#64748b" points="1198.03,-324.37 1202.9,-329.96 1202.58,-322.55 1198.03,-324.37"/>
<text text-anchor="middle" x="993" y="-157.6" font-family="Helvetica,sans-Serif" font-size="8.00">fk_provider_evidence_observation</text>
</g>
<!-- provider_source_snapshot&#45;&gt;provider_observation -->
<g id="edge15" class="edge">
<title>provider_source_snapshot&#45;&gt;provider_observation</title>
<path fill="none" stroke="#64748b" d="M474.21,-35.24C535.68,-48.91 623.41,-68.69 700,-87 710.35,-89.47 721.26,-92.15 731.96,-94.8"/>
<polygon fill="#64748b" stroke="#64748b" points="731.57,-97.23 738.96,-96.54 732.76,-92.48 731.57,-97.23"/>
<text text-anchor="middle" x="603.5" y="-89.6" font-family="Helvetica,sans-Serif" font-size="8.00">provider_observation_source_snapshot_id_fkey</text>
</g>
<!-- security_reconciliation_evidence_source_snapshot -->
<g id="node15" class="node">
<title>security_reconciliation_evidence_source_snapshot</title>
<path fill="#f8fafc" stroke="#334155" d="M1867,-207C1867,-207 1601,-207 1601,-207 1595,-207 1589,-201 1589,-195 1589,-195 1589,-183 1589,-183 1589,-177 1595,-171 1601,-171 1601,-171 1867,-171 1867,-171 1873,-171 1879,-177 1879,-183 1879,-183 1879,-195 1879,-195 1879,-201 1873,-207 1867,-207"/>
<text text-anchor="middle" x="1734" y="-186.2" font-family="Helvetica,sans-Serif" font-size="11.00">security_reconciliation_evidence_source_snapshot</text>
</g>
<!-- provider_source_snapshot&#45;&gt;security_reconciliation_evidence_source_snapshot -->
<g id="edge16" class="edge">
<title>provider_source_snapshot&#45;&gt;security_reconciliation_evidence_source_snapshot</title>
<path fill="none" stroke="#64748b" d="M474.2,-23.08C535.66,-27.34 623.39,-34 700,-42 1034.8,-76.95 1427.85,-138.62 1618.17,-169.8"/>
<polygon fill="#64748b" stroke="#64748b" points="1617.83,-172.23 1625.14,-170.94 1618.62,-167.39 1617.83,-172.23"/>
<text text-anchor="middle" x="993" y="-90.6" font-family="Helvetica,sans-Serif" font-size="8.00">fk_sec_recon_evidence_snapshot_source</text>
</g>
<!-- security&#45;&gt;listing -->
<g id="edge17" class="edge">
<title>security&#45;&gt;listing</title>
<path fill="none" stroke="#64748b" d="M407.41,-599.32C425.15,-626.06 462,-675.2 507,-699 593.59,-744.81 712.87,-748.69 770.15,-747.51"/>
<polygon fill="#64748b" stroke="#64748b" points="770.22,-749.96 777.15,-747.34 770.09,-745.06 770.22,-749.96"/>
<text text-anchor="middle" x="603.5" y="-747.6" font-family="Helvetica,sans-Serif" font-size="8.00">fk_listing_security</text>
</g>
<!-- security&#45;&gt;provider_evidence -->
<g id="edge18" class="edge">
<title>security&#45;&gt;provider_evidence</title>
<path fill="none" stroke="#64748b" d="M417.97,-562.79C439.41,-545.92 473.58,-521.34 507,-507 730.31,-411.19 1019.39,-369.22 1145.71,-354.56"/>
<polygon fill="#64748b" stroke="#64748b" points="1146.02,-356.99 1152.7,-353.75 1145.46,-352.12 1146.02,-356.99"/>
<text text-anchor="middle" x="804.5" y="-432.6" font-family="Helvetica,sans-Serif" font-size="8.00">fk_provider_evidence_security</text>
</g>
<!-- security_reconciliation_decision -->
<g id="node9" class="node">
<title>security_reconciliation_decision</title>
<path fill="#f8fafc" stroke="#334155" d="M1816,-807C1816,-807 1652,-807 1652,-807 1646,-807 1640,-801 1640,-795 1640,-795 1640,-783 1640,-783 1640,-777 1646,-771 1652,-771 1652,-771 1816,-771 1816,-771 1822,-771 1828,-777 1828,-783 1828,-783 1828,-795 1828,-795 1828,-801 1822,-807 1816,-807"/>
<text text-anchor="middle" x="1734" y="-786.2" font-family="Helvetica,sans-Serif" font-size="11.00">security_reconciliation_decision</text>
</g>
<!-- security&#45;&gt;security_reconciliation_decision -->
<g id="edge19" class="edge">
<title>security&#45;&gt;security_reconciliation_decision</title>
<path fill="none" stroke="#64748b" d="M403.06,-599C417.72,-634.48 454.54,-714.28 507,-764 589.7,-842.37 622.49,-857.28 733,-885 1079.92,-972.03 1512.75,-858.02 1671.22,-809.22"/>
<polygon fill="#64748b" stroke="#64748b" points="1672.14,-811.49 1678.1,-807.08 1670.69,-806.81 1672.14,-811.49"/>
<text text-anchor="middle" x="993" y="-918.6" font-family="Helvetica,sans-Serif" font-size="8.00">fk_sec_recon_decision_security</text>
</g>
<!-- security&#45;&gt;security_reconciliation_evaluation -->
<g id="edge20" class="edge">
<title>security&#45;&gt;security_reconciliation_evaluation</title>
<path fill="none" stroke="#64748b" d="M424.83,-591.08C447.01,-598.4 478.58,-607.89 507,-613 757.04,-657.98 839.53,-565.72 1077,-656 1121.24,-672.82 1163.06,-709.4 1187.47,-733.61"/>
<polygon fill="#64748b" stroke="#64748b" points="1186.04,-735.64 1192.71,-738.87 1189.51,-732.18 1186.04,-735.64"/>
<text text-anchor="middle" x="804.5" y="-624.6" font-family="Helvetica,sans-Serif" font-size="8.00">fk_sec_recon_eval_related_security</text>
</g>
<!-- security&#45;&gt;security_reconciliation_evaluation -->
<g id="edge21" class="edge">
<title>security&#45;&gt;security_reconciliation_evaluation</title>
<path fill="none" stroke="#64748b" d="M424.5,-579.09C538.3,-571.91 959.61,-549.79 1077,-607 1133.31,-634.44 1176.02,-697.62 1196.36,-732.6"/>
<polygon fill="#64748b" stroke="#64748b" points="1194.3,-733.92 1199.9,-738.78 1198.55,-731.49 1194.3,-733.92"/>
<text text-anchor="middle" x="804.5" y="-574.6" font-family="Helvetica,sans-Serif" font-size="8.00">fk_sec_recon_eval_security</text>
</g>
<!-- security&#45;&gt;security_reconciliation_evidence -->
<g id="edge22" class="edge">
<title>security&#45;&gt;security_reconciliation_evidence</title>
<path fill="none" stroke="#64748b" d="M424.92,-571.38C447.14,-564.3 478.73,-554.92 507,-549 717.41,-504.96 969.45,-490.29 1107.18,-485.41"/>
<polygon fill="#64748b" stroke="#64748b" points="1107.55,-487.85 1114.46,-485.16 1107.38,-482.95 1107.55,-487.85"/>
<text text-anchor="middle" x="804.5" y="-514.6" font-family="Helvetica,sans-Serif" font-size="8.00">fk_sec_recon_evidence_security</text>
</g>
<!-- security_reconciliation_evaluation&#45;&gt;security_reconciliation_decision -->
<g id="edge23" class="edge">
<title>security_reconciliation_evaluation&#45;&gt;security_reconciliation_decision</title>
<path fill="none" stroke="#64748b" d="M1311.13,-763.11C1403.47,-768.78 1540.16,-777.17 1632.72,-782.85"/>
<polygon fill="#64748b" stroke="#64748b" points="1632.72,-785.3 1639.86,-783.28 1633.02,-780.41 1632.72,-785.3"/>
<text text-anchor="middle" x="1439" y="-777.6" font-family="Helvetica,sans-Serif" font-size="8.00">fk_sec_recon_decision_eval</text>
</g>
<!-- security_reconciliation_evaluation&#45;&gt;security_reconciliation_evaluation_evidence -->
<g id="edge24" class="edge">
<title>security_reconciliation_evaluation&#45;&gt;security_reconciliation_evaluation_evidence</title>
<path fill="none" stroke="#64748b" d="M1250.16,-738.96C1276.33,-727.09 1311.87,-711.66 1344,-700 1450.91,-661.21 1577.62,-625.23 1656.67,-603.93"/>
<polygon fill="#64748b" stroke="#64748b" points="1657.58,-606.22 1663.7,-602.04 1656.3,-601.49 1657.58,-606.22"/>
<text text-anchor="middle" x="1439" y="-702.6" font-family="Helvetica,sans-Serif" font-size="8.00">fk_sec_recon_eval_ev_eval</text>
</g>
<!-- security_reconciliation_evaluation_reconciliation_evidence -->
<g id="node12" class="node">
<title>security_reconciliation_evaluation_reconciliation_evidence</title>
<path fill="#f8fafc" stroke="#334155" d="M1889,-712C1889,-712 1579,-712 1579,-712 1573,-712 1567,-706 1567,-700 1567,-700 1567,-688 1567,-688 1567,-682 1573,-676 1579,-676 1579,-676 1889,-676 1889,-676 1895,-676 1901,-682 1901,-688 1901,-688 1901,-700 1901,-700 1901,-706 1895,-712 1889,-712"/>
<text text-anchor="middle" x="1734" y="-691.2" font-family="Helvetica,sans-Serif" font-size="11.00">security_reconciliation_evaluation_reconciliation_evidence</text>
</g>
<!-- security_reconciliation_evaluation&#45;&gt;security_reconciliation_evaluation_reconciliation_evidence -->
<g id="edge25" class="edge">
<title>security_reconciliation_evaluation&#45;&gt;security_reconciliation_evaluation_reconciliation_evidence</title>
<path fill="none" stroke="#64748b" d="M1311.13,-744.96C1386.25,-735.89 1490.73,-723.27 1576.91,-712.86"/>
<polygon fill="#64748b" stroke="#64748b" points="1577.22,-715.29 1583.87,-712.02 1576.63,-710.42 1577.22,-715.29"/>
<text text-anchor="middle" x="1439" y="-742.6" font-family="Helvetica,sans-Serif" font-size="8.00">fk_sec_recon_eval_recon_evidence_evaluation</text>
</g>
<!-- security_reconciliation_evidence&#45;&gt;security_reconciliation_evaluation_reconciliation_evidence -->
<g id="edge26" class="edge">
<title>security_reconciliation_evidence&#45;&gt;security_reconciliation_evaluation_reconciliation_evidence</title>
<path fill="none" stroke="#64748b" d="M1256.41,-501.17C1353,-540.25 1579.92,-632.06 1681.85,-673.3"/>
<polygon fill="#64748b" stroke="#64748b" points="1680.97,-675.59 1688.38,-675.95 1682.81,-671.05 1680.97,-675.59"/>
<text text-anchor="middle" x="1439" y="-609.6" font-family="Helvetica,sans-Serif" font-size="8.00">fk_sec_recon_eval_recon_evidence_evidence</text>
</g>
<!-- security_reconciliation_evidence&#45;&gt;security_reconciliation_evidence_provider_evidence -->
<g id="edge27" class="edge">
<title>security_reconciliation_evidence&#45;&gt;security_reconciliation_evidence_provider_evidence</title>
<path fill="none" stroke="#64748b" d="M1306.54,-483.91C1382.2,-484.64 1489.64,-485.67 1577.75,-486.51"/>
<polygon fill="#64748b" stroke="#64748b" points="1577.84,-488.96 1584.86,-486.58 1577.89,-484.06 1577.84,-488.96"/>
<text text-anchor="middle" x="1439" y="-487.6" font-family="Helvetica,sans-Serif" font-size="8.00">fk_sec_recon_evidence_provider_evidence</text>
</g>
<!-- security_reconciliation_evidence&#45;&gt;security_reconciliation_evidence_source_snapshot -->
<g id="edge28" class="edge">
<title>security_reconciliation_evidence&#45;&gt;security_reconciliation_evidence_source_snapshot</title>
<path fill="none" stroke="#64748b" d="M1229.52,-464.73C1253.53,-441.41 1298.33,-401.43 1344,-379 1422.18,-340.61 1454.96,-367.59 1534,-331 1602.36,-299.35 1671.6,-243.32 1707.63,-211.94"/>
<polygon fill="#64748b" stroke="#64748b" points="1709.47,-213.58 1713.12,-207.12 1706.24,-209.89 1709.47,-213.58"/>
<text text-anchor="middle" x="1439" y="-381.6" font-family="Helvetica,sans-Serif" font-size="8.00">fk_sec_recon_evidence_snapshot_evidence</text>
</g>
</g>
</svg>
