<?xml version="1.0" encoding="UTF-8" standalone="no"?>
<!DOCTYPE svg PUBLIC "-//W3C//DTD SVG 1.1//EN"
 "http://www.w3.org/Graphics/SVG/1.1/DTD/svg11.dtd">
<!-- Generated by graphviz version 2.42.4 (0)
 -->
<!-- Title: schema_relations Pages: 1 -->
<svg width="895pt" height="254pt"
 viewBox="0.00 0.00 895.00 254.00" xmlns="http://www.w3.org/2000/svg" xmlns:xlink="http://www.w3.org/1999/xlink">
<g id="graph0" class="graph" transform="scale(1 1) rotate(0) translate(18 236)">
<title>schema_relations</title>
<!-- exchange -->
<g id="node1" class="node">
<title>exchange</title>
<path fill="#f8fafc" stroke="#334155" d="M565,-47C565,-47 522,-47 522,-47 516,-47 510,-41 510,-35 510,-35 510,-23 510,-23 510,-17 516,-11 522,-11 522,-11 565,-11 565,-11 571,-11 577,-17 577,-23 577,-23 577,-35 577,-35 577,-41 571,-47 565,-47"/>
<text text-anchor="middle" x="543.5" y="-26.2" font-family="Helvetica,sans-Serif" font-size="11.00">exchange</text>
</g>
<!-- exchange_alias -->
<g id="node2" class="node">
<title>exchange_alias</title>
<path fill="#f8fafc" stroke="#334155" d="M847,-86C847,-86 773,-86 773,-86 767,-86 761,-80 761,-74 761,-74 761,-62 761,-62 761,-56 767,-50 773,-50 773,-50 847,-50 847,-50 853,-50 859,-56 859,-62 859,-62 859,-74 859,-74 859,-80 853,-86 847,-86"/>
<text text-anchor="middle" x="810" y="-65.2" font-family="Helvetica,sans-Serif" font-size="11.00">exchange_alias</text>
</g>
<!-- exchange&#45;&gt;exchange_alias -->
<g id="edge1" class="edge">
<title>exchange&#45;&gt;exchange_alias</title>
<path fill="none" stroke="#64748b" d="M577.21,-30.32C614.1,-32.21 675.74,-36.55 728,-46 736.49,-47.53 745.38,-49.53 754.03,-51.7"/>
<polygon fill="#64748b" stroke="#64748b" points="753.52,-54.1 760.91,-53.47 754.74,-49.36 753.52,-54.1"/>
<text text-anchor="middle" x="669" y="-48.6" font-family="Helvetica,sans-Serif" font-size="8.00">fk_exchange_alias_exchange</text>
</g>
<!-- iso10383_mic -->
<g id="node3" class="node">
<title>iso10383_mic</title>
<path fill="#f8fafc" stroke="#334155" d="M362,-82C362,-82 297,-82 297,-82 291,-82 285,-76 285,-70 285,-70 285,-58 285,-58 285,-52 291,-46 297,-46 297,-46 362,-46 362,-46 368,-46 374,-52 374,-58 374,-58 374,-70 374,-70 374,-76 368,-82 362,-82"/>
<text text-anchor="middle" x="329.5" y="-61.2" font-family="Helvetica,sans-Serif" font-size="11.00">iso10383_mic</text>
</g>
<!-- iso10383_mic&#45;&gt;exchange -->
<g id="edge2" class="edge">
<title>iso10383_mic&#45;&gt;exchange</title>
<path fill="none" stroke="#64748b" d="M374.17,-56.79C412.01,-50.54 466.29,-41.58 502.89,-35.54"/>
<polygon fill="#64748b" stroke="#64748b" points="503.46,-37.93 509.96,-34.37 502.66,-33.09 503.46,-37.93"/>
<text text-anchor="middle" x="442" y="-52.6" font-family="Helvetica,sans-Serif" font-size="8.00">fk_exchange_mic</text>
</g>
<!-- iso10383_mic&#45;&gt;iso10383_mic -->
<g id="edge3" class="edge">
<title>iso10383_mic&#45;&gt;iso10383_mic</title>
<path fill="none" stroke="#64748b" d="M313.75,-82.11C303.25,-102.12 308.5,-125 329.5,-125 348.2,-125 354.41,-106.86 348.13,-88.75"/>
<polygon fill="#64748b" stroke="#64748b" points="350.28,-87.56 345.25,-82.11 345.79,-89.51 350.28,-87.56"/>
<text text-anchor="middle" x="329.5" y="-127.6" font-family="Helvetica,sans-Serif" font-size="8.00">fk_iso10383_mic_operating</text>
</g>
<!-- iso10383_mic_cat -->
<g id="node4" class="node">
<title>iso10383_mic_cat</title>
<path fill="#f8fafc" stroke="#334155" d="M99,-139C99,-139 12,-139 12,-139 6,-139 0,-133 0,-127 0,-127 0,-115 0,-115 0,-109 6,-103 12,-103 12,-103 99,-103 99,-103 105,-103 111,-109 111,-115 111,-115 111,-127 111,-127 111,-133 105,-139 99,-139"/>
<text text-anchor="middle" x="55.5" y="-118.2" font-family="Helvetica,sans-Serif" font-size="11.00">iso10383_mic_cat</text>
</g>
<!-- iso10383_mic_cat&#45;&gt;iso10383_mic -->
<g id="edge4" class="edge">
<title>iso10383_mic_cat&#45;&gt;iso10383_mic</title>
<path fill="none" stroke="#64748b" d="M111.22,-109.53C159.76,-99.36 230.14,-84.61 277.52,-74.68"/>
<polygon fill="#64748b" stroke="#64748b" points="278.28,-77.03 284.63,-73.19 277.28,-72.23 278.28,-77.03"/>
<text text-anchor="middle" x="198" y="-104.6" font-family="Helvetica,sans-Serif" font-size="8.00">fk_iso10383_mic_category</text>
</g>
<!-- iso3166_country -->
<g id="node5" class="node">
<title>iso3166_country</title>
<path fill="#f8fafc" stroke="#334155" d="M96,-36C96,-36 15,-36 15,-36 9,-36 3,-30 3,-24 3,-24 3,-12 3,-12 3,-6 9,0 15,0 15,0 96,0 96,0 102,0 108,-6 108,-12 108,-12 108,-24 108,-24 108,-30 102,-36 96,-36"/>
<text text-anchor="middle" x="55.5" y="-15.2" font-family="Helvetica,sans-Serif" font-size="11.00">iso3166_country</text>
</g>
<!-- iso3166_country&#45;&gt;exchange -->
<g id="edge5" class="edge">
<title>iso3166_country&#45;&gt;exchange</title>
<path fill="none" stroke="#64748b" d="M108.22,-16.25C171.08,-14.46 280.36,-12.39 374,-16 418.21,-17.7 468.79,-21.91 502.9,-25.08"/>
<polygon fill="#64748b" stroke="#64748b" points="502.73,-27.52 509.93,-25.74 503.19,-22.65 502.73,-27.52"/>
<text text-anchor="middle" x="329.5" y="-18.6" font-family="Helvetica,sans-Serif" font-size="8.00">fk_exchange_country</text>
</g>
<!-- iso3166_country&#45;&gt;iso10383_mic -->
<g id="edge6" class="edge">
<title>iso3166_country&#45;&gt;iso10383_mic</title>
<path fill="none" stroke="#64748b" d="M108.3,-26.76C157.08,-35.01 229.67,-47.29 278.01,-55.46"/>
<polygon fill="#64748b" stroke="#64748b" points="277.65,-57.89 284.96,-56.64 278.47,-53.05 277.65,-57.89"/>
<text text-anchor="middle" x="198" y="-52.6" font-family="Helvetica,sans-Serif" font-size="8.00">fk_iso10383_mic_country</text>
</g>
<!-- iso4217_currency -->
<g id="node6" class="node">
<title>iso4217_currency</title>
<path fill="#f8fafc" stroke="#334155" d="M99,-218C99,-218 12,-218 12,-218 6,-218 0,-212 0,-206 0,-206 0,-194 0,-194 0,-188 6,-182 12,-182 12,-182 99,-182 99,-182 105,-182 111,-188 111,-194 111,-194 111,-206 111,-206 111,-212 105,-218 99,-218"/>
<text text-anchor="middle" x="55.5" y="-197.2" font-family="Helvetica,sans-Serif" font-size="11.00">iso4217_currency</text>
</g>
<!-- provider -->
<g id="node7" class="node">
<title>provider</title>
<path fill="#f8fafc" stroke="#334155" d="M561.5,-126C561.5,-126 525.5,-126 525.5,-126 519.5,-126 513.5,-120 513.5,-114 513.5,-114 513.5,-102 513.5,-102 513.5,-96 519.5,-90 525.5,-90 525.5,-90 561.5,-90 561.5,-90 567.5,-90 573.5,-96 573.5,-102 573.5,-102 573.5,-114 573.5,-114 573.5,-120 567.5,-126 561.5,-126"/>
<text text-anchor="middle" x="543.5" y="-105.2" font-family="Helvetica,sans-Serif" font-size="11.00">provider</text>
</g>
<!-- provider&#45;&gt;exchange_alias -->
<g id="edge7" class="edge">
<title>provider&#45;&gt;exchange_alias</title>
<path fill="none" stroke="#64748b" d="M573.56,-103.6C616.72,-97.08 698.53,-84.71 753.43,-76.4"/>
<polygon fill="#64748b" stroke="#64748b" points="754.1,-78.78 760.65,-75.31 753.36,-73.94 754.1,-78.78"/>
<text text-anchor="middle" x="669" y="-99.6" font-family="Helvetica,sans-Serif" font-size="8.00">fk_exchange_alias_provider</text>
</g>
</g>
</svg>
