<?xml version="1.0" encoding="UTF-8" standalone="no"?>
<!DOCTYPE svg PUBLIC "-//W3C//DTD SVG 1.1//EN"
 "http://www.w3.org/Graphics/SVG/1.1/DTD/svg11.dtd">
<!-- Generated by graphviz version 2.42.4 (0)
 -->
<!-- Title: ERD Pages: 1 -->
<svg width="531pt" height="868pt"
 viewBox="0.00 0.00 531.00 868.00" xmlns="http://www.w3.org/2000/svg" xmlns:xlink="http://www.w3.org/1999/xlink">
<g id="graph0" class="graph" transform="scale(1 1) rotate(0) translate(4 864)">
<title>ERD</title>
<polygon fill="white" stroke="transparent" points="-4,4 -4,-864 527,-864 527,4 -4,4"/>
<!-- exchange -->
<g id="node1" class="node">
<title>exchange</title>
<polygon fill="lightblue" stroke="transparent" points="105,-652 105,-672 315,-672 315,-652 105,-652"/>
<polygon fill="none" stroke="black" points="105,-652 105,-672 315,-672 315,-652 105,-652"/>
<text text-anchor="start" x="185" y="-660.8" font-family="Verdana" font-weight="bold" font-size="9.00">exchange</text>
<polygon fill="none" stroke="black" points="105,-632 105,-652 315,-652 315,-632 105,-632"/>
<text text-anchor="start" x="110" y="-640.8" font-family="Verdana" font-weight="bold" font-size="9.00">exchange_id</text>
<text text-anchor="start" x="174" y="-640.8" font-family="Verdana" font-size="9.00">: </text>
<text text-anchor="start" x="181" y="-640.8" font-family="Verdana" font-style="italic" font-size="9.00">UUID &#160;NOT NULL</text>
<polygon fill="none" stroke="black" points="105,-612 105,-632 315,-632 315,-612 105,-612"/>
<text text-anchor="start" x="110" y="-620.8" font-family="Verdana" font-weight="bold" font-size="9.00">exchange_code</text>
<text text-anchor="start" x="189" y="-620.8" font-family="Verdana" font-size="9.00">: </text>
<text text-anchor="start" x="196" y="-620.8" font-family="Verdana" font-style="italic" font-size="9.00">VARCHAR(16) &#160;NOT NULL</text>
<polygon fill="none" stroke="black" points="105,-592 105,-612 315,-612 315,-592 105,-592"/>
<text text-anchor="start" x="110" y="-600.8" font-family="Verdana" font-weight="bold" font-size="9.00">exchange_name</text>
<text text-anchor="start" x="193" y="-600.8" font-family="Verdana" font-size="9.00">: </text>
<text text-anchor="start" x="200" y="-600.8" font-family="Verdana" font-style="italic" font-size="9.00">TEXT &#160;NOT NULL</text>
<polygon fill="none" stroke="black" points="105,-572 105,-592 315,-592 315,-572 105,-572"/>
<text text-anchor="start" x="110" y="-580.8" font-family="Verdana" font-weight="bold" font-size="9.00">mic</text>
<text text-anchor="start" x="129" y="-580.8" font-family="Verdana" font-size="9.00">: </text>
<text text-anchor="start" x="136" y="-580.8" font-family="Verdana" font-style="italic" font-size="9.00">VARCHAR(4) </text>
<polygon fill="none" stroke="black" points="105,-552 105,-572 315,-572 315,-552 105,-552"/>
<text text-anchor="start" x="110" y="-560.8" font-family="Verdana" font-weight="bold" font-size="9.00">country_alpha2</text>
<text text-anchor="start" x="189" y="-560.8" font-family="Verdana" font-size="9.00">: </text>
<text text-anchor="start" x="196" y="-560.8" font-family="Verdana" font-style="italic" font-size="9.00">VARCHAR(2) </text>
<polygon fill="none" stroke="black" points="105,-532 105,-552 315,-552 315,-532 105,-532"/>
<text text-anchor="start" x="110" y="-540.8" font-family="Verdana" font-weight="bold" font-size="9.00">exchange_type</text>
<text text-anchor="start" x="188" y="-540.8" font-family="Verdana" font-size="9.00">: </text>
<text text-anchor="start" x="195" y="-540.8" font-family="Verdana" font-style="italic" font-size="9.00">VARCHAR(24) &#160;NOT NULL</text>
<polygon fill="none" stroke="black" points="105,-512 105,-532 315,-532 315,-512 105,-512"/>
<text text-anchor="start" x="110" y="-520.8" font-family="Verdana" font-weight="bold" font-size="9.00">is_synthetic</text>
<text text-anchor="start" x="171" y="-520.8" font-family="Verdana" font-size="9.00">: </text>
<text text-anchor="start" x="178" y="-520.8" font-family="Verdana" font-style="italic" font-size="9.00">BOOLEAN &#160;NOT NULL</text>
<polygon fill="none" stroke="black" points="105,-492 105,-512 315,-512 315,-492 105,-492"/>
<text text-anchor="start" x="110" y="-500.8" font-family="Verdana" font-weight="bold" font-size="9.00">is_active</text>
<text text-anchor="start" x="154" y="-500.8" font-family="Verdana" font-size="9.00">: </text>
<text text-anchor="start" x="161" y="-500.8" font-family="Verdana" font-style="italic" font-size="9.00">BOOLEAN &#160;NOT NULL</text>
<polygon fill="none" stroke="black" points="105,-472 105,-492 315,-492 315,-472 105,-472"/>
<text text-anchor="start" x="110" y="-480.8" font-family="Verdana" font-weight="bold" font-size="9.00">notes</text>
<text text-anchor="start" x="139" y="-480.8" font-family="Verdana" font-size="9.00">: </text>
<text text-anchor="start" x="146" y="-480.8" font-family="Verdana" font-style="italic" font-size="9.00">TEXT </text>
</g>
<!-- iso10383_mic -->
<g id="node3" class="node">
<title>iso10383_mic</title>
<polygon fill="lightblue" stroke="transparent" points="39,-408 39,-428 243,-428 243,-408 39,-408"/>
<polygon fill="none" stroke="black" points="39,-408 39,-428 243,-428 243,-408 39,-408"/>
<text text-anchor="start" x="107.5" y="-416.8" font-family="Verdana" font-weight="bold" font-size="9.00">iso10383_mic</text>
<polygon fill="none" stroke="black" points="39,-388 39,-408 243,-408 243,-388 39,-388"/>
<text text-anchor="start" x="44" y="-396.8" font-family="Verdana" font-weight="bold" font-size="9.00">mic</text>
<text text-anchor="start" x="63" y="-396.8" font-family="Verdana" font-size="9.00">: </text>
<text text-anchor="start" x="70" y="-396.8" font-family="Verdana" font-style="italic" font-size="9.00">VARCHAR(4) &#160;NOT NULL</text>
<polygon fill="none" stroke="black" points="39,-368 39,-388 243,-388 243,-368 39,-368"/>
<text text-anchor="start" x="44" y="-376.8" font-family="Verdana" font-weight="bold" font-size="9.00">operating_mic</text>
<text text-anchor="start" x="117" y="-376.8" font-family="Verdana" font-size="9.00">: </text>
<text text-anchor="start" x="124" y="-376.8" font-family="Verdana" font-style="italic" font-size="9.00">VARCHAR(4) </text>
<polygon fill="none" stroke="black" points="39,-348 39,-368 243,-368 243,-348 39,-348"/>
<text text-anchor="start" x="44" y="-356.8" font-family="Verdana" font-weight="bold" font-size="9.00">mic_type</text>
<text text-anchor="start" x="90" y="-356.8" font-family="Verdana" font-size="9.00">: </text>
<text text-anchor="start" x="97" y="-356.8" font-family="Verdana" font-style="italic" font-size="9.00">VARCHAR(4) &#160;NOT NULL</text>
<polygon fill="none" stroke="black" points="39,-328 39,-348 243,-348 243,-328 39,-328"/>
<text text-anchor="start" x="44" y="-336.8" font-family="Verdana" font-weight="bold" font-size="9.00">market_name</text>
<text text-anchor="start" x="114" y="-336.8" font-family="Verdana" font-size="9.00">: </text>
<text text-anchor="start" x="121" y="-336.8" font-family="Verdana" font-style="italic" font-size="9.00">TEXT &#160;NOT NULL</text>
<polygon fill="none" stroke="black" points="39,-308 39,-328 243,-328 243,-308 39,-308"/>
<text text-anchor="start" x="44" y="-316.8" font-family="Verdana" font-weight="bold" font-size="9.00">legal_entity</text>
<text text-anchor="start" x="105" y="-316.8" font-family="Verdana" font-size="9.00">: </text>
<text text-anchor="start" x="112" y="-316.8" font-family="Verdana" font-style="italic" font-size="9.00">TEXT </text>
<polygon fill="none" stroke="black" points="39,-288 39,-308 243,-308 243,-288 39,-288"/>
<text text-anchor="start" x="44" y="-296.8" font-family="Verdana" font-weight="bold" font-size="9.00">acronym</text>
<text text-anchor="start" x="89" y="-296.8" font-family="Verdana" font-size="9.00">: </text>
<text text-anchor="start" x="96" y="-296.8" font-family="Verdana" font-style="italic" font-size="9.00">TEXT </text>
<polygon fill="none" stroke="black" points="39,-268 39,-288 243,-288 243,-268 39,-268"/>
<text text-anchor="start" x="44" y="-276.8" font-family="Verdana" font-weight="bold" font-size="9.00">city</text>
<text text-anchor="start" x="63" y="-276.8" font-family="Verdana" font-size="9.00">: </text>
<text text-anchor="start" x="70" y="-276.8" font-family="Verdana" font-style="italic" font-size="9.00">TEXT </text>
<polygon fill="none" stroke="black" points="39,-248 39,-268 243,-268 243,-248 39,-248"/>
<text text-anchor="start" x="44" y="-256.8" font-family="Verdana" font-weight="bold" font-size="9.00">country_alpha2</text>
<text text-anchor="start" x="123" y="-256.8" font-family="Verdana" font-size="9.00">: </text>
<text text-anchor="start" x="130" y="-256.8" font-family="Verdana" font-style="italic" font-size="9.00">VARCHAR(2) &#160;NOT NULL</text>
<polygon fill="none" stroke="black" points="39,-228 39,-248 243,-248 243,-228 39,-228"/>
<text text-anchor="start" x="44" y="-236.8" font-family="Verdana" font-weight="bold" font-size="9.00">website</text>
<text text-anchor="start" x="84" y="-236.8" font-family="Verdana" font-size="9.00">: </text>
<text text-anchor="start" x="91" y="-236.8" font-family="Verdana" font-style="italic" font-size="9.00">TEXT </text>
<polygon fill="none" stroke="black" points="39,-208 39,-228 243,-228 243,-208 39,-208"/>
<text text-anchor="start" x="44" y="-216.8" font-family="Verdana" font-weight="bold" font-size="9.00">market_category_code</text>
<text text-anchor="start" x="159" y="-216.8" font-family="Verdana" font-size="9.00">: </text>
<text text-anchor="start" x="166" y="-216.8" font-family="Verdana" font-style="italic" font-size="9.00">VARCHAR(4) </text>
<polygon fill="none" stroke="black" points="39,-188 39,-208 243,-208 243,-188 39,-188"/>
<text text-anchor="start" x="44" y="-196.8" font-family="Verdana" font-weight="bold" font-size="9.00">status</text>
<text text-anchor="start" x="77" y="-196.8" font-family="Verdana" font-size="9.00">: </text>
<text text-anchor="start" x="84" y="-196.8" font-family="Verdana" font-style="italic" font-size="9.00">TEXT </text>
<polygon fill="none" stroke="black" points="39,-168 39,-188 243,-188 243,-168 39,-168"/>
<text text-anchor="start" x="44" y="-176.8" font-family="Verdana" font-weight="bold" font-size="9.00">created_date</text>
<text text-anchor="start" x="111" y="-176.8" font-family="Verdana" font-size="9.00">: </text>
<text text-anchor="start" x="118" y="-176.8" font-family="Verdana" font-style="italic" font-size="9.00">DATE </text>
<polygon fill="none" stroke="black" points="39,-148 39,-168 243,-168 243,-148 39,-148"/>
<text text-anchor="start" x="44" y="-156.8" font-family="Verdana" font-weight="bold" font-size="9.00">source</text>
<text text-anchor="start" x="78" y="-156.8" font-family="Verdana" font-size="9.00">: </text>
<text text-anchor="start" x="85" y="-156.8" font-family="Verdana" font-style="italic" font-size="9.00">TEXT &#160;NOT NULL</text>
</g>
<!-- exchange&#45;&gt;iso10383_mic -->
<g id="edge3" class="edge">
<title>exchange:mic&#45;&gt;iso10383_mic:mic</title>
<path fill="none" stroke="black" d="M104,-582C53.33,-582 73.85,-507.96 105,-468 143.97,-418.01 203.51,-481.58 243,-432 249.47,-423.87 254.66,-410.85 252.36,-403.5"/>
<polygon fill="black" stroke="black" points="254.28,-400.57 244,-398 250.43,-406.42 254.28,-400.57"/>
</g>
<!-- iso3166_country -->
<g id="node5" class="node">
<title>iso3166_country</title>
<polygon fill="lightblue" stroke="transparent" points="192,-84 192,-104 366,-104 366,-84 192,-84"/>
<polygon fill="none" stroke="black" points="192,-84 192,-104 366,-104 366,-84 192,-84"/>
<text text-anchor="start" x="237.5" y="-92.8" font-family="Verdana" font-weight="bold" font-size="9.00">iso3166_country</text>
<polygon fill="none" stroke="black" points="192,-64 192,-84 366,-84 366,-64 192,-64"/>
<text text-anchor="start" x="197" y="-72.8" font-family="Verdana" font-weight="bold" font-size="9.00">alpha2</text>
<text text-anchor="start" x="232" y="-72.8" font-family="Verdana" font-size="9.00">: </text>
<text text-anchor="start" x="239" y="-72.8" font-family="Verdana" font-style="italic" font-size="9.00">VARCHAR(2) &#160;NOT NULL</text>
<polygon fill="none" stroke="black" points="192,-44 192,-64 366,-64 366,-44 192,-44"/>
<text text-anchor="start" x="197" y="-52.8" font-family="Verdana" font-weight="bold" font-size="9.00">alpha3</text>
<text text-anchor="start" x="232" y="-52.8" font-family="Verdana" font-size="9.00">: </text>
<text text-anchor="start" x="239" y="-52.8" font-family="Verdana" font-style="italic" font-size="9.00">VARCHAR(3) &#160;NOT NULL</text>
<polygon fill="none" stroke="black" points="192,-24 192,-44 366,-44 366,-24 192,-24"/>
<text text-anchor="start" x="197" y="-32.8" font-family="Verdana" font-weight="bold" font-size="9.00">numeric3</text>
<text text-anchor="start" x="246" y="-32.8" font-family="Verdana" font-size="9.00">: </text>
<text text-anchor="start" x="253" y="-32.8" font-family="Verdana" font-style="italic" font-size="9.00">VARCHAR(3) &#160;NOT NULL</text>
<polygon fill="none" stroke="black" points="192,-4 192,-24 366,-24 366,-4 192,-4"/>
<text text-anchor="start" x="197" y="-12.8" font-family="Verdana" font-weight="bold" font-size="9.00">name</text>
<text text-anchor="start" x="226" y="-12.8" font-family="Verdana" font-size="9.00">: </text>
<text text-anchor="start" x="233" y="-12.8" font-family="Verdana" font-style="italic" font-size="9.00">TEXT &#160;NOT NULL</text>
</g>
<!-- exchange&#45;&gt;iso3166_country -->
<g id="edge2" class="edge">
<title>exchange:country_alpha2&#45;&gt;iso3166_country:alpha2</title>
<path fill="none" stroke="black" d="M316,-562C530.66,-562 583.44,-89.13 377.03,-74.35"/>
<polygon fill="black" stroke="black" points="377.12,-70.85 367,-74 376.87,-77.85 377.12,-70.85"/>
</g>
<!-- exchange_alias -->
<g id="node2" class="node">
<title>exchange_alias</title>
<polygon fill="lightblue" stroke="transparent" points="113,-836 113,-856 307,-856 307,-836 113,-836"/>
<polygon fill="none" stroke="black" points="113,-836 113,-856 307,-856 307,-836 113,-836"/>
<text text-anchor="start" x="171" y="-844.8" font-family="Verdana" font-weight="bold" font-size="9.00">exchange_alias</text>
<polygon fill="none" stroke="black" points="113,-816 113,-836 307,-836 307,-816 113,-816"/>
<text text-anchor="start" x="118" y="-824.8" font-family="Verdana" font-weight="bold" font-size="9.00">exchange_alias_id</text>
<text text-anchor="start" x="210" y="-824.8" font-family="Verdana" font-size="9.00">: </text>
<text text-anchor="start" x="217" y="-824.8" font-family="Verdana" font-style="italic" font-size="9.00">UUID &#160;NOT NULL</text>
<polygon fill="none" stroke="black" points="113,-796 113,-816 307,-816 307,-796 113,-796"/>
<text text-anchor="start" x="118" y="-804.8" font-family="Verdana" font-weight="bold" font-size="9.00">exchange_id</text>
<text text-anchor="start" x="182" y="-804.8" font-family="Verdana" font-size="9.00">: </text>
<text text-anchor="start" x="189" y="-804.8" font-family="Verdana" font-style="italic" font-size="9.00">UUID &#160;NOT NULL</text>
<polygon fill="none" stroke="black" points="113,-776 113,-796 307,-796 307,-776 113,-776"/>
<text text-anchor="start" x="118" y="-784.8" font-family="Verdana" font-weight="bold" font-size="9.00">source_code</text>
<text text-anchor="start" x="181" y="-784.8" font-family="Verdana" font-size="9.00">: </text>
<text text-anchor="start" x="188" y="-784.8" font-family="Verdana" font-style="italic" font-size="9.00">VARCHAR(32) &#160;NOT NULL</text>
<polygon fill="none" stroke="black" points="113,-756 113,-776 307,-776 307,-756 113,-756"/>
<text text-anchor="start" x="118" y="-764.8" font-family="Verdana" font-weight="bold" font-size="9.00">raw_name</text>
<text text-anchor="start" x="170" y="-764.8" font-family="Verdana" font-size="9.00">: </text>
<text text-anchor="start" x="177" y="-764.8" font-family="Verdana" font-style="italic" font-size="9.00">TEXT &#160;NOT NULL</text>
<polygon fill="none" stroke="black" points="113,-736 113,-756 307,-756 307,-736 113,-736"/>
<text text-anchor="start" x="118" y="-744.8" font-family="Verdana" font-weight="bold" font-size="9.00">normalized_name</text>
<text text-anchor="start" x="209" y="-744.8" font-family="Verdana" font-size="9.00">: </text>
<text text-anchor="start" x="216" y="-744.8" font-family="Verdana" font-style="italic" font-size="9.00">TEXT </text>
<polygon fill="none" stroke="black" points="113,-716 113,-736 307,-736 307,-716 113,-716"/>
<text text-anchor="start" x="118" y="-724.8" font-family="Verdana" font-weight="bold" font-size="9.00">is_active</text>
<text text-anchor="start" x="162" y="-724.8" font-family="Verdana" font-size="9.00">: </text>
<text text-anchor="start" x="169" y="-724.8" font-family="Verdana" font-style="italic" font-size="9.00">BOOLEAN &#160;NOT NULL</text>
</g>
<!-- exchange_alias&#45;&gt;exchange -->
<g id="edge1" class="edge">
<title>exchange_alias:exchange_id&#45;&gt;exchange:exchange_id</title>
<path fill="none" stroke="black" d="M308,-806C315.77,-806 322.72,-687.07 318.98,-651.77"/>
<polygon fill="black" stroke="black" points="322.27,-650.54 316,-642 315.57,-652.59 322.27,-650.54"/>
</g>
<!-- iso10383_mic&#45;&gt;iso10383_mic -->
<g id="edge6" class="edge">
<title>iso10383_mic:operating_mic&#45;&gt;iso10383_mic:mic</title>
<path fill="none" stroke="black" d="M142.01,-388.18C149.99,-471.43 149.65,-549 141,-549 132.84,-549 132.08,-484.89 138.71,-418.52"/>
<polygon fill="black" stroke="black" points="142.22,-418.6 139.79,-408.29 135.26,-417.87 142.22,-418.6"/>
</g>
<!-- iso10383_mic_cat -->
<g id="node4" class="node">
<title>iso10383_mic_cat</title>
<polygon fill="lightblue" stroke="transparent" points="8,-64 8,-84 158,-84 158,-64 8,-64"/>
<polygon fill="none" stroke="black" points="8,-64 8,-84 158,-84 158,-64 8,-64"/>
<text text-anchor="start" x="39" y="-72.8" font-family="Verdana" font-weight="bold" font-size="9.00">iso10383_mic_cat</text>
<polygon fill="none" stroke="black" points="8,-44 8,-64 158,-64 158,-44 8,-44"/>
<text text-anchor="start" x="13" y="-52.8" font-family="Verdana" font-weight="bold" font-size="9.00">code</text>
<text text-anchor="start" x="38" y="-52.8" font-family="Verdana" font-size="9.00">: </text>
<text text-anchor="start" x="45" y="-52.8" font-family="Verdana" font-style="italic" font-size="9.00">VARCHAR(4) &#160;NOT NULL</text>
<polygon fill="none" stroke="black" points="8,-24 8,-44 158,-44 158,-24 8,-24"/>
<text text-anchor="start" x="13" y="-32.8" font-family="Verdana" font-weight="bold" font-size="9.00">description</text>
<text text-anchor="start" x="71" y="-32.8" font-family="Verdana" font-size="9.00">: </text>
<text text-anchor="start" x="78" y="-32.8" font-family="Verdana" font-style="italic" font-size="9.00">TEXT &#160;NOT NULL</text>
</g>
<!-- iso10383_mic&#45;&gt;iso10383_mic_cat -->
<g id="edge4" class="edge">
<title>iso10383_mic:market_category_code&#45;&gt;iso10383_mic_cat:code</title>
<path fill="none" stroke="black" d="M38,-218C5.11,-218 21.19,-171.65 39,-144 70.65,-94.86 125.96,-136.89 158,-88 163.57,-79.5 168.93,-67.08 167.26,-59.84"/>
<polygon fill="black" stroke="black" points="169.19,-56.91 159,-54 165.15,-62.63 169.19,-56.91"/>
</g>
<!-- iso10383_mic&#45;&gt;iso3166_country -->
<g id="edge5" class="edge">
<title>iso10383_mic:country_alpha2&#45;&gt;iso3166_country:alpha2</title>
<path fill="none" stroke="black" d="M244,-258C269.33,-258 254.75,-166.44 243,-144 230.13,-119.42 205.13,-132.44 192,-108 187.25,-99.16 181.7,-87.06 182.94,-79.94"/>
<polygon fill="black" stroke="black" points="185.02,-82.75 191,-74 180.87,-77.11 185.02,-82.75"/>
</g>
<!-- iso4217_currency -->
<g id="node6" class="node">
<title>iso4217_currency</title>
<polygon fill="lightblue" stroke="transparent" points="341,-816 341,-836 515,-836 515,-816 341,-816"/>
<polygon fill="none" stroke="black" points="341,-816 341,-836 515,-836 515,-816 341,-816"/>
<text text-anchor="start" x="384" y="-824.8" font-family="Verdana" font-weight="bold" font-size="9.00">iso4217_currency</text>
<polygon fill="none" stroke="black" points="341,-796 341,-816 515,-816 515,-796 341,-796"/>
<text text-anchor="start" x="346" y="-804.8" font-family="Verdana" font-weight="bold" font-size="9.00">code</text>
<text text-anchor="start" x="371" y="-804.8" font-family="Verdana" font-size="9.00">: </text>
<text text-anchor="start" x="378" y="-804.8" font-family="Verdana" font-style="italic" font-size="9.00">VARCHAR(3) &#160;NOT NULL</text>
<polygon fill="none" stroke="black" points="341,-776 341,-796 515,-796 515,-776 341,-776"/>
<text text-anchor="start" x="346" y="-784.8" font-family="Verdana" font-weight="bold" font-size="9.00">numeric3</text>
<text text-anchor="start" x="395" y="-784.8" font-family="Verdana" font-size="9.00">: </text>
<text text-anchor="start" x="402" y="-784.8" font-family="Verdana" font-style="italic" font-size="9.00">VARCHAR(3) &#160;NOT NULL</text>
<polygon fill="none" stroke="black" points="341,-756 341,-776 515,-776 515,-756 341,-756"/>
<text text-anchor="start" x="346" y="-764.8" font-family="Verdana" font-weight="bold" font-size="9.00">name</text>
<text text-anchor="start" x="375" y="-764.8" font-family="Verdana" font-size="9.00">: </text>
<text text-anchor="start" x="382" y="-764.8" font-family="Verdana" font-style="italic" font-size="9.00">TEXT &#160;NOT NULL</text>
<polygon fill="none" stroke="black" points="341,-736 341,-756 515,-756 515,-736 341,-736"/>
<text text-anchor="start" x="346" y="-744.8" font-family="Verdana" font-weight="bold" font-size="9.00">minor_unit</text>
<text text-anchor="start" x="402" y="-744.8" font-family="Verdana" font-size="9.00">: </text>
<text text-anchor="start" x="409" y="-744.8" font-family="Verdana" font-style="italic" font-size="9.00">SMALLINT </text>
</g>
</g>
</svg>
