<?xml version="1.0" encoding="UTF-8" standalone="no"?>
<!DOCTYPE svg PUBLIC "-//W3C//DTD SVG 1.1//EN"
 "http://www.w3.org/Graphics/SVG/1.1/DTD/svg11.dtd">
<!-- Generated by graphviz version 2.42.4 (0)
 -->
<!-- Title: schema_relations Pages: 1 -->
<svg width="2728pt" height="2331pt"
 viewBox="0.00 0.00 2728.00 2331.00" xmlns="http://www.w3.org/2000/svg" xmlns:xlink="http://www.w3.org/1999/xlink">
<g id="graph0" class="graph" transform="scale(1 1) rotate(0) translate(18 2313)">
<title>schema_relations</title>
<!-- classification_code -->
<g id="node1" class="node">
<title>classification_code</title>
<path fill="#f8fafc" stroke="#334155" d="M1521,-101C1521,-101 1428,-101 1428,-101 1422,-101 1416,-95 1416,-89 1416,-89 1416,-77 1416,-77 1416,-71 1422,-65 1428,-65 1428,-65 1521,-65 1521,-65 1527,-65 1533,-71 1533,-77 1533,-77 1533,-89 1533,-89 1533,-95 1527,-101 1521,-101"/>
<text text-anchor="middle" x="1474.5" y="-80.2" font-family="Helvetica,sans-Serif" font-size="11.00">classification_code</text>
</g>
<!-- issuer_classification -->
<g id="node14" class="node">
<title>issuer_classification</title>
<path fill="#f8fafc" stroke="#334155" d="M2048,-166C2048,-166 1948,-166 1948,-166 1942,-166 1936,-160 1936,-154 1936,-154 1936,-142 1936,-142 1936,-136 1942,-130 1948,-130 1948,-130 2048,-130 2048,-130 2054,-130 2060,-136 2060,-142 2060,-142 2060,-154 2060,-154 2060,-160 2054,-166 2048,-166"/>
<text text-anchor="middle" x="1998" y="-145.2" font-family="Helvetica,sans-Serif" font-size="11.00">issuer_classification</text>
</g>
<!-- classification_code&#45;&gt;issuer_classification -->
<g id="edge1" class="edge">
<title>classification_code&#45;&gt;issuer_classification</title>
<path fill="none" stroke="#64748b" d="M1533.3,-90.2C1630.26,-102.29 1825.18,-126.58 1928.73,-139.49"/>
<polygon fill="#64748b" stroke="#64748b" points="1928.47,-141.93 1935.72,-140.36 1929.07,-137.06 1928.47,-141.93"/>
<text text-anchor="middle" x="1703" y="-123.6" font-family="Helvetica,sans-Serif" font-size="8.00">fk_issuer_class_code</text>
</g>
<!-- classification_system -->
<g id="node2" class="node">
<title>classification_system</title>
<path fill="#f8fafc" stroke="#334155" d="M1040,-101C1040,-101 932,-101 932,-101 926,-101 920,-95 920,-89 920,-89 920,-77 920,-77 920,-71 926,-65 932,-65 932,-65 1040,-65 1040,-65 1046,-65 1052,-71 1052,-77 1052,-77 1052,-89 1052,-89 1052,-95 1046,-101 1040,-101"/>
<text text-anchor="middle" x="986" y="-80.2" font-family="Helvetica,sans-Serif" font-size="11.00">classification_system</text>
</g>
<!-- classification_system&#45;&gt;classification_code -->
<g id="edge2" class="edge">
<title>classification_system&#45;&gt;classification_code</title>
<path fill="none" stroke="#64748b" d="M1052.11,-83C1145.35,-83 1315.89,-83 1408.87,-83"/>
<polygon fill="#64748b" stroke="#64748b" points="1408.98,-85.45 1415.98,-83 1408.98,-80.55 1408.98,-85.45"/>
<text text-anchor="middle" x="1219.5" y="-85.6" font-family="Helvetica,sans-Serif" font-size="8.00">fk_classification_code_system</text>
</g>
<!-- confidence_level -->
<g id="node3" class="node">
<title>confidence_level</title>
<path fill="#f8fafc" stroke="#334155" d="M638.5,-839C638.5,-839 557.5,-839 557.5,-839 551.5,-839 545.5,-833 545.5,-827 545.5,-827 545.5,-815 545.5,-815 545.5,-809 551.5,-803 557.5,-803 557.5,-803 638.5,-803 638.5,-803 644.5,-803 650.5,-809 650.5,-815 650.5,-815 650.5,-827 650.5,-827 650.5,-833 644.5,-839 638.5,-839"/>
<text text-anchor="middle" x="598" y="-818.2" font-family="Helvetica,sans-Serif" font-size="11.00">confidence_level</text>
</g>
<!-- confidence_level&#45;&gt;issuer_classification -->
<g id="edge3" class="edge">
<title>confidence_level&#45;&gt;issuer_classification</title>
<path fill="none" stroke="#64748b" d="M604.44,-802.99C615.84,-766.85 644.47,-683.67 684,-622 763.64,-497.76 778.96,-449.36 907,-376 952.29,-350.05 1697.22,-205.56 1928.84,-161.05"/>
<polygon fill="#64748b" stroke="#64748b" points="1929.46,-163.43 1935.87,-159.7 1928.53,-158.62 1929.46,-163.43"/>
<text text-anchor="middle" x="1219.5" y="-328.6" font-family="Helvetica,sans-Serif" font-size="8.00">fk_issuer_class_confidence</text>
</g>
<!-- issuer_identifier -->
<g id="node15" class="node">
<title>issuer_identifier</title>
<path fill="#f8fafc" stroke="#334155" d="M1025,-987C1025,-987 947,-987 947,-987 941,-987 935,-981 935,-975 935,-975 935,-963 935,-963 935,-957 941,-951 947,-951 947,-951 1025,-951 1025,-951 1031,-951 1037,-957 1037,-963 1037,-963 1037,-975 1037,-975 1037,-981 1031,-987 1025,-987"/>
<text text-anchor="middle" x="986" y="-966.2" font-family="Helvetica,sans-Serif" font-size="11.00">issuer_identifier</text>
</g>
<!-- confidence_level&#45;&gt;issuer_identifier -->
<g id="edge4" class="edge">
<title>confidence_level&#45;&gt;issuer_identifier</title>
<path fill="none" stroke="#64748b" d="M650.66,-835.13C661.65,-838.09 673.2,-841.18 684,-844 768.26,-866.04 795.86,-853.54 874,-892 890.75,-900.25 891.84,-907.1 907,-918 920.79,-927.91 936.37,-938.26 949.97,-947.03"/>
<polygon fill="#64748b" stroke="#64748b" points="948.85,-949.22 956.07,-950.94 951.5,-945.1 948.85,-949.22"/>
<text text-anchor="middle" x="779" y="-894.6" font-family="Helvetica,sans-Serif" font-size="8.00">fk_issuer_identifier_confidence</text>
</g>
<!-- issuer_name_history -->
<g id="node16" class="node">
<title>issuer_name_history</title>
<path fill="#f8fafc" stroke="#334155" d="M1037.5,-267C1037.5,-267 934.5,-267 934.5,-267 928.5,-267 922.5,-261 922.5,-255 922.5,-255 922.5,-243 922.5,-243 922.5,-237 928.5,-231 934.5,-231 934.5,-231 1037.5,-231 1037.5,-231 1043.5,-231 1049.5,-237 1049.5,-243 1049.5,-243 1049.5,-255 1049.5,-255 1049.5,-261 1043.5,-267 1037.5,-267"/>
<text text-anchor="middle" x="986" y="-246.2" font-family="Helvetica,sans-Serif" font-size="11.00">issuer_name_history</text>
</g>
<!-- confidence_level&#45;&gt;issuer_name_history -->
<g id="edge5" class="edge">
<title>confidence_level&#45;&gt;issuer_name_history</title>
<path fill="none" stroke="#64748b" d="M602.98,-802.89C611.86,-762.33 633.87,-661.04 651,-576 666.46,-499.27 637.05,-465.63 684,-403 740.84,-327.16 845.71,-285.73 915.42,-265.47"/>
<polygon fill="#64748b" stroke="#64748b" points="916.41,-267.73 922.47,-263.46 915.07,-263.02 916.41,-267.73"/>
<text text-anchor="middle" x="779" y="-405.6" font-family="Helvetica,sans-Serif" font-size="8.00">fk_issuer_name_confidence</text>
</g>
<!-- listing_symbol_history -->
<g id="node18" class="node">
<title>listing_symbol_history</title>
<path fill="#f8fafc" stroke="#334155" d="M1530.5,-727C1530.5,-727 1418.5,-727 1418.5,-727 1412.5,-727 1406.5,-721 1406.5,-715 1406.5,-715 1406.5,-703 1406.5,-703 1406.5,-697 1412.5,-691 1418.5,-691 1418.5,-691 1530.5,-691 1530.5,-691 1536.5,-691 1542.5,-697 1542.5,-703 1542.5,-703 1542.5,-715 1542.5,-715 1542.5,-721 1536.5,-727 1530.5,-727"/>
<text text-anchor="middle" x="1474.5" y="-706.2" font-family="Helvetica,sans-Serif" font-size="11.00">listing_symbol_history</text>
</g>
<!-- confidence_level&#45;&gt;listing_symbol_history -->
<g id="edge6" class="edge">
<title>confidence_level&#45;&gt;listing_symbol_history</title>
<path fill="none" stroke="#64748b" d="M650.67,-804.39C711.33,-785.68 815.33,-756.05 907,-742 1082.09,-715.16 1290.68,-709.74 1399.35,-708.9"/>
<polygon fill="#64748b" stroke="#64748b" points="1399.38,-711.35 1406.36,-708.85 1399.34,-706.45 1399.38,-711.35"/>
<text text-anchor="middle" x="986" y="-744.6" font-family="Helvetica,sans-Serif" font-size="8.00">fk_listing_symbol_confidence</text>
</g>
<!-- security_event -->
<g id="node25" class="node">
<title>security_event</title>
<path fill="#f8fafc" stroke="#334155" d="M1510.5,-1072C1510.5,-1072 1438.5,-1072 1438.5,-1072 1432.5,-1072 1426.5,-1066 1426.5,-1060 1426.5,-1060 1426.5,-1048 1426.5,-1048 1426.5,-1042 1432.5,-1036 1438.5,-1036 1438.5,-1036 1510.5,-1036 1510.5,-1036 1516.5,-1036 1522.5,-1042 1522.5,-1048 1522.5,-1048 1522.5,-1060 1522.5,-1060 1522.5,-1066 1516.5,-1072 1510.5,-1072"/>
<text text-anchor="middle" x="1474.5" y="-1051.2" font-family="Helvetica,sans-Serif" font-size="11.00">security_event</text>
</g>
<!-- confidence_level&#45;&gt;security_event -->
<g id="edge7" class="edge">
<title>confidence_level&#45;&gt;security_event</title>
<path fill="none" stroke="#64748b" d="M650.75,-822.23C706.45,-824.4 797.37,-830.4 874,-847 1085.44,-892.81 1325.47,-990.24 1425.65,-1033.07"/>
<polygon fill="#64748b" stroke="#64748b" points="1424.93,-1035.42 1432.33,-1035.93 1426.86,-1030.92 1424.93,-1035.42"/>
<text text-anchor="middle" x="986" y="-899.6" font-family="Helvetica,sans-Serif" font-size="8.00">fk_security_event_confidence</text>
</g>
<!-- security_identifier -->
<g id="node26" class="node">
<title>security_identifier</title>
<path fill="#f8fafc" stroke="#334155" d="M1030.5,-1145C1030.5,-1145 941.5,-1145 941.5,-1145 935.5,-1145 929.5,-1139 929.5,-1133 929.5,-1133 929.5,-1121 929.5,-1121 929.5,-1115 935.5,-1109 941.5,-1109 941.5,-1109 1030.5,-1109 1030.5,-1109 1036.5,-1109 1042.5,-1115 1042.5,-1121 1042.5,-1121 1042.5,-1133 1042.5,-1133 1042.5,-1139 1036.5,-1145 1030.5,-1145"/>
<text text-anchor="middle" x="986" y="-1124.2" font-family="Helvetica,sans-Serif" font-size="11.00">security_identifier</text>
</g>
<!-- confidence_level&#45;&gt;security_identifier -->
<g id="edge8" class="edge">
<title>confidence_level&#45;&gt;security_identifier</title>
<path fill="none" stroke="#64748b" d="M621.57,-839.02C631.95,-848.42 643.58,-860.72 651,-874 680.71,-927.17 641.03,-963.84 684,-1007 745.46,-1068.72 798.26,-1011.99 874,-1055 892.04,-1065.24 890.17,-1075.87 907,-1088 915.97,-1094.46 926.16,-1100.41 936.16,-1105.61"/>
<polygon fill="#64748b" stroke="#64748b" points="935.33,-1107.94 942.68,-1108.92 937.55,-1103.57 935.33,-1107.94"/>
<text text-anchor="middle" x="779" y="-1057.6" font-family="Helvetica,sans-Serif" font-size="8.00">fk_security_identifier_confidence</text>
</g>
<!-- security_reconciliation_evaluation -->
<g id="node28" class="node">
<title>security_reconciliation_evaluation</title>
<path fill="#f8fafc" stroke="#334155" d="M1563,-1878C1563,-1878 1386,-1878 1386,-1878 1380,-1878 1374,-1872 1374,-1866 1374,-1866 1374,-1854 1374,-1854 1374,-1848 1380,-1842 1386,-1842 1386,-1842 1563,-1842 1563,-1842 1569,-1842 1575,-1848 1575,-1854 1575,-1854 1575,-1866 1575,-1866 1575,-1872 1569,-1878 1563,-1878"/>
<text text-anchor="middle" x="1474.5" y="-1857.2" font-family="Helvetica,sans-Serif" font-size="11.00">security_reconciliation_evaluation</text>
</g>
<!-- confidence_level&#45;&gt;security_reconciliation_evaluation -->
<g id="edge9" class="edge">
<title>confidence_level&#45;&gt;security_reconciliation_evaluation</title>
<path fill="none" stroke="#64748b" d="M607.87,-839.08C620.02,-864.8 641.42,-913.74 651,-958 675.44,-1070.95 624.09,-1378.18 684,-1477 735.17,-1561.41 794.58,-1533.39 874,-1592 965.44,-1659.48 997.44,-1670.62 1065,-1762 1085.93,-1790.31 1069.05,-1813.98 1098,-1834 1178.73,-1889.84 1294.01,-1889.1 1375.49,-1878.95"/>
<polygon fill="#64748b" stroke="#64748b" points="1376.15,-1881.34 1382.78,-1878.01 1375.52,-1876.48 1376.15,-1881.34"/>
<text text-anchor="middle" x="986" y="-1764.6" font-family="Helvetica,sans-Serif" font-size="8.00">fk_sec_recon_eval_confidence</text>
</g>
<!-- exchange -->
<g id="node4" class="node">
<title>exchange</title>
<path fill="#f8fafc" stroke="#334155" d="M619.5,-1419C619.5,-1419 576.5,-1419 576.5,-1419 570.5,-1419 564.5,-1413 564.5,-1407 564.5,-1407 564.5,-1395 564.5,-1395 564.5,-1389 570.5,-1383 576.5,-1383 576.5,-1383 619.5,-1383 619.5,-1383 625.5,-1383 631.5,-1389 631.5,-1395 631.5,-1395 631.5,-1407 631.5,-1407 631.5,-1413 625.5,-1419 619.5,-1419"/>
<text text-anchor="middle" x="598" y="-1398.2" font-family="Helvetica,sans-Serif" font-size="11.00">exchange</text>
</g>
<!-- exchange_alias -->
<g id="node5" class="node">
<title>exchange_alias</title>
<path fill="#f8fafc" stroke="#334155" d="M1023,-1066C1023,-1066 949,-1066 949,-1066 943,-1066 937,-1060 937,-1054 937,-1054 937,-1042 937,-1042 937,-1036 943,-1030 949,-1030 949,-1030 1023,-1030 1023,-1030 1029,-1030 1035,-1036 1035,-1042 1035,-1042 1035,-1054 1035,-1054 1035,-1060 1029,-1066 1023,-1066"/>
<text text-anchor="middle" x="986" y="-1045.2" font-family="Helvetica,sans-Serif" font-size="11.00">exchange_alias</text>
</g>
<!-- exchange&#45;&gt;exchange_alias -->
<g id="edge10" class="edge">
<title>exchange&#45;&gt;exchange_alias</title>
<path fill="none" stroke="#64748b" d="M616.69,-1382.74C633.1,-1366.47 658.73,-1342.73 684,-1326 762.07,-1274.31 815.68,-1308.24 874,-1235 915.71,-1182.62 866,-1140.94 907,-1088 913.28,-1079.89 921.67,-1073.27 930.61,-1067.93"/>
<polygon fill="#64748b" stroke="#64748b" points="931.96,-1069.98 936.88,-1064.43 929.57,-1065.7 931.96,-1069.98"/>
<text text-anchor="middle" x="779" y="-1328.6" font-family="Helvetica,sans-Serif" font-size="8.00">fk_exchange_alias_exchange</text>
</g>
<!-- listing -->
<g id="node17" class="node">
<title>listing</title>
<path fill="#f8fafc" stroke="#334155" d="M1001,-1501C1001,-1501 971,-1501 971,-1501 965,-1501 959,-1495 959,-1489 959,-1489 959,-1477 959,-1477 959,-1471 965,-1465 971,-1465 971,-1465 1001,-1465 1001,-1465 1007,-1465 1013,-1471 1013,-1477 1013,-1477 1013,-1489 1013,-1489 1013,-1495 1007,-1501 1001,-1501"/>
<text text-anchor="middle" x="986" y="-1480.2" font-family="Helvetica,sans-Serif" font-size="11.00">listing</text>
</g>
<!-- exchange&#45;&gt;listing -->
<g id="edge11" class="edge">
<title>exchange&#45;&gt;listing</title>
<path fill="none" stroke="#64748b" d="M631.58,-1407.92C704.15,-1423.34 878.47,-1460.37 951.71,-1475.93"/>
<polygon fill="#64748b" stroke="#64748b" points="951.53,-1478.39 958.89,-1477.45 952.55,-1473.6 951.53,-1478.39"/>
<text text-anchor="middle" x="779" y="-1460.6" font-family="Helvetica,sans-Serif" font-size="8.00">fk_listing_exchange</text>
</g>
<!-- identifier_type -->
<g id="node6" class="node">
<title>identifier_type</title>
<path fill="#f8fafc" stroke="#334155" d="M632.5,-1145C632.5,-1145 563.5,-1145 563.5,-1145 557.5,-1145 551.5,-1139 551.5,-1133 551.5,-1133 551.5,-1121 551.5,-1121 551.5,-1115 557.5,-1109 563.5,-1109 563.5,-1109 632.5,-1109 632.5,-1109 638.5,-1109 644.5,-1115 644.5,-1121 644.5,-1121 644.5,-1133 644.5,-1133 644.5,-1139 638.5,-1145 632.5,-1145"/>
<text text-anchor="middle" x="598" y="-1124.2" font-family="Helvetica,sans-Serif" font-size="11.00">identifier_type</text>
</g>
<!-- identifier_type&#45;&gt;issuer_identifier -->
<g id="edge12" class="edge">
<title>identifier_type&#45;&gt;issuer_identifier</title>
<path fill="none" stroke="#64748b" d="M644.71,-1118.56C718.01,-1104.72 855.52,-1077.41 874,-1064 897.07,-1047.26 886.18,-1028.48 907,-1009 914.58,-1001.9 923.67,-995.75 932.91,-990.54"/>
<polygon fill="#64748b" stroke="#64748b" points="934.33,-992.56 939.32,-987.08 932,-988.25 934.33,-992.56"/>
<text text-anchor="middle" x="779" y="-1112.6" font-family="Helvetica,sans-Serif" font-size="8.00">fk_issuer_identifier_type</text>
</g>
<!-- identifier_type&#45;&gt;security_identifier -->
<g id="edge13" class="edge">
<title>identifier_type&#45;&gt;security_identifier</title>
<path fill="none" stroke="#64748b" d="M644.8,-1127C713.67,-1127 844.11,-1127 921.93,-1127"/>
<polygon fill="#64748b" stroke="#64748b" points="922.3,-1129.45 929.3,-1127 922.3,-1124.55 922.3,-1129.45"/>
<text text-anchor="middle" x="779" y="-1129.6" font-family="Helvetica,sans-Serif" font-size="8.00">fk_security_identifier_type</text>
</g>
<!-- instrument_class -->
<g id="node7" class="node">
<title>instrument_class</title>
<path fill="#f8fafc" stroke="#334155" d="M97.5,-2295C97.5,-2295 13.5,-2295 13.5,-2295 7.5,-2295 1.5,-2289 1.5,-2283 1.5,-2283 1.5,-2271 1.5,-2271 1.5,-2265 7.5,-2259 13.5,-2259 13.5,-2259 97.5,-2259 97.5,-2259 103.5,-2259 109.5,-2265 109.5,-2271 109.5,-2271 109.5,-2283 109.5,-2283 109.5,-2289 103.5,-2295 97.5,-2295"/>
<text text-anchor="middle" x="55.5" y="-2274.2" font-family="Helvetica,sans-Serif" font-size="11.00">instrument_class</text>
</g>
<!-- instrument_type -->
<g id="node8" class="node">
<title>instrument_type</title>
<path fill="#f8fafc" stroke="#334155" d="M381,-2295C381,-2295 300,-2295 300,-2295 294,-2295 288,-2289 288,-2283 288,-2283 288,-2271 288,-2271 288,-2265 294,-2259 300,-2259 300,-2259 381,-2259 381,-2259 387,-2259 393,-2265 393,-2271 393,-2271 393,-2283 393,-2283 393,-2289 387,-2295 381,-2295"/>
<text text-anchor="middle" x="340.5" y="-2274.2" font-family="Helvetica,sans-Serif" font-size="11.00">instrument_type</text>
</g>
<!-- instrument_class&#45;&gt;instrument_type -->
<g id="edge14" class="edge">
<title>instrument_class&#45;&gt;instrument_type</title>
<path fill="none" stroke="#64748b" d="M109.73,-2277C158.41,-2277 230.3,-2277 280.67,-2277"/>
<polygon fill="#64748b" stroke="#64748b" points="280.94,-2279.45 287.94,-2277 280.94,-2274.55 280.94,-2279.45"/>
<text text-anchor="middle" x="198" y="-2279.6" font-family="Helvetica,sans-Serif" font-size="8.00">fk_instrument_type_class</text>
</g>
<!-- security -->
<g id="node24" class="node">
<title>security</title>
<path fill="#f8fafc" stroke="#334155" d="M615.5,-1760C615.5,-1760 580.5,-1760 580.5,-1760 574.5,-1760 568.5,-1754 568.5,-1748 568.5,-1748 568.5,-1736 568.5,-1736 568.5,-1730 574.5,-1724 580.5,-1724 580.5,-1724 615.5,-1724 615.5,-1724 621.5,-1724 627.5,-1730 627.5,-1736 627.5,-1736 627.5,-1748 627.5,-1748 627.5,-1754 621.5,-1760 615.5,-1760"/>
<text text-anchor="middle" x="598" y="-1739.2" font-family="Helvetica,sans-Serif" font-size="11.00">security</text>
</g>
<!-- instrument_type&#45;&gt;security -->
<g id="edge15" class="edge">
<title>instrument_type&#45;&gt;security</title>
<path fill="none" stroke="#64748b" d="M350.15,-2258.89C388.29,-2179.03 541.52,-1858.17 585.28,-1766.54"/>
<polygon fill="#64748b" stroke="#64748b" points="587.55,-1767.47 588.35,-1760.1 583.13,-1765.36 587.55,-1767.47"/>
<text text-anchor="middle" x="470.5" y="-2090.6" font-family="Helvetica,sans-Serif" font-size="8.00">fk_security_type</text>
</g>
<!-- iso10383_mic -->
<g id="node9" class="node">
<title>iso10383_mic</title>
<path fill="#f8fafc" stroke="#334155" d="M373,-1570C373,-1570 308,-1570 308,-1570 302,-1570 296,-1564 296,-1558 296,-1558 296,-1546 296,-1546 296,-1540 302,-1534 308,-1534 308,-1534 373,-1534 373,-1534 379,-1534 385,-1540 385,-1546 385,-1546 385,-1558 385,-1558 385,-1564 379,-1570 373,-1570"/>
<text text-anchor="middle" x="340.5" y="-1549.2" font-family="Helvetica,sans-Serif" font-size="11.00">iso10383_mic</text>
</g>
<!-- iso10383_mic&#45;&gt;exchange -->
<g id="edge16" class="edge">
<title>iso10383_mic&#45;&gt;exchange</title>
<path fill="none" stroke="#64748b" d="M385.14,-1547.43C421.5,-1541.95 473.41,-1530.14 512,-1505 543.21,-1484.67 568.56,-1449.22 583.22,-1425.44"/>
<polygon fill="#64748b" stroke="#64748b" points="585.37,-1426.62 586.89,-1419.36 581.17,-1424.09 585.37,-1426.62"/>
<text text-anchor="middle" x="470.5" y="-1539.6" font-family="Helvetica,sans-Serif" font-size="8.00">fk_exchange_mic</text>
</g>
<!-- iso10383_mic&#45;&gt;iso10383_mic -->
<g id="edge17" class="edge">
<title>iso10383_mic&#45;&gt;iso10383_mic</title>
<path fill="none" stroke="#64748b" d="M322.22,-1570.11C310.03,-1590.12 316.12,-1613 340.5,-1613 362.21,-1613 369.42,-1594.86 362.12,-1576.75"/>
<polygon fill="#64748b" stroke="#64748b" points="364.12,-1575.26 358.78,-1570.11 359.74,-1577.46 364.12,-1575.26"/>
<text text-anchor="middle" x="340.5" y="-1615.6" font-family="Helvetica,sans-Serif" font-size="8.00">fk_iso10383_mic_operating</text>
</g>
<!-- iso10383_mic_cat -->
<g id="node10" class="node">
<title>iso10383_mic_cat</title>
<path fill="#f8fafc" stroke="#334155" d="M99,-1570C99,-1570 12,-1570 12,-1570 6,-1570 0,-1564 0,-1558 0,-1558 0,-1546 0,-1546 0,-1540 6,-1534 12,-1534 12,-1534 99,-1534 99,-1534 105,-1534 111,-1540 111,-1546 111,-1546 111,-1558 111,-1558 111,-1564 105,-1570 99,-1570"/>
<text text-anchor="middle" x="55.5" y="-1549.2" font-family="Helvetica,sans-Serif" font-size="11.00">iso10383_mic_cat</text>
</g>
<!-- iso10383_mic_cat&#45;&gt;iso10383_mic -->
<g id="edge18" class="edge">
<title>iso10383_mic_cat&#45;&gt;iso10383_mic</title>
<path fill="none" stroke="#64748b" d="M111.07,-1552C162.35,-1552 238.51,-1552 288.57,-1552"/>
<polygon fill="#64748b" stroke="#64748b" points="288.77,-1554.45 295.77,-1552 288.77,-1549.55 288.77,-1554.45"/>
<text text-anchor="middle" x="198" y="-1554.6" font-family="Helvetica,sans-Serif" font-size="8.00">fk_iso10383_mic_category</text>
</g>
<!-- iso3166_country -->
<g id="node11" class="node">
<title>iso3166_country</title>
<path fill="#f8fafc" stroke="#334155" d="M96,-1443C96,-1443 15,-1443 15,-1443 9,-1443 3,-1437 3,-1431 3,-1431 3,-1419 3,-1419 3,-1413 9,-1407 15,-1407 15,-1407 96,-1407 96,-1407 102,-1407 108,-1413 108,-1419 108,-1419 108,-1431 108,-1431 108,-1437 102,-1443 96,-1443"/>
<text text-anchor="middle" x="55.5" y="-1422.2" font-family="Helvetica,sans-Serif" font-size="11.00">iso3166_country</text>
</g>
<!-- iso3166_country&#45;&gt;exchange -->
<g id="edge19" class="edge">
<title>iso3166_country&#45;&gt;exchange</title>
<path fill="none" stroke="#64748b" d="M108.33,-1422.7C215.84,-1417.92 461.11,-1407.03 557.27,-1402.76"/>
<polygon fill="#64748b" stroke="#64748b" points="557.59,-1405.2 564.48,-1402.44 557.38,-1400.31 557.59,-1405.2"/>
<text text-anchor="middle" x="340.5" y="-1416.6" font-family="Helvetica,sans-Serif" font-size="8.00">fk_exchange_country</text>
</g>
<!-- iso3166_country&#45;&gt;iso10383_mic -->
<g id="edge20" class="edge">
<title>iso3166_country&#45;&gt;iso10383_mic</title>
<path fill="none" stroke="#64748b" d="M96.75,-1443.06C148.36,-1466.22 237.73,-1506.33 292.44,-1530.88"/>
<polygon fill="#64748b" stroke="#64748b" points="291.54,-1533.16 298.93,-1533.8 293.55,-1528.69 291.54,-1533.16"/>
<text text-anchor="middle" x="198" y="-1512.6" font-family="Helvetica,sans-Serif" font-size="8.00">fk_iso10383_mic_country</text>
</g>
<!-- issuer -->
<g id="node13" class="node">
<title>issuer</title>
<path fill="#f8fafc" stroke="#334155" d="M355.5,-1336C355.5,-1336 325.5,-1336 325.5,-1336 319.5,-1336 313.5,-1330 313.5,-1324 313.5,-1324 313.5,-1312 313.5,-1312 313.5,-1306 319.5,-1300 325.5,-1300 325.5,-1300 355.5,-1300 355.5,-1300 361.5,-1300 367.5,-1306 367.5,-1312 367.5,-1312 367.5,-1324 367.5,-1324 367.5,-1330 361.5,-1336 355.5,-1336"/>
<text text-anchor="middle" x="340.5" y="-1315.2" font-family="Helvetica,sans-Serif" font-size="11.00">issuer</text>
</g>
<!-- iso3166_country&#45;&gt;issuer -->
<g id="edge21" class="edge">
<title>iso3166_country&#45;&gt;issuer</title>
<path fill="none" stroke="#64748b" d="M92.71,-1406.91C108.31,-1399.41 126.88,-1390.88 144,-1384 200.02,-1361.5 267,-1340.03 306.23,-1327.97"/>
<polygon fill="#64748b" stroke="#64748b" points="307.25,-1330.23 313.23,-1325.84 305.82,-1325.54 307.25,-1330.23"/>
<text text-anchor="middle" x="198" y="-1386.6" font-family="Helvetica,sans-Serif" font-size="8.00">fk_issuer_country</text>
</g>
<!-- iso4217_currency -->
<g id="node12" class="node">
<title>iso4217_currency</title>
<path fill="#f8fafc" stroke="#334155" d="M384,-1697C384,-1697 297,-1697 297,-1697 291,-1697 285,-1691 285,-1685 285,-1685 285,-1673 285,-1673 285,-1667 291,-1661 297,-1661 297,-1661 384,-1661 384,-1661 390,-1661 396,-1667 396,-1673 396,-1673 396,-1685 396,-1685 396,-1691 390,-1697 384,-1697"/>
<text text-anchor="middle" x="340.5" y="-1676.2" font-family="Helvetica,sans-Serif" font-size="11.00">iso4217_currency</text>
</g>
<!-- iso4217_currency&#45;&gt;listing -->
<g id="edge22" class="edge">
<title>iso4217_currency&#45;&gt;listing</title>
<path fill="none" stroke="#64748b" d="M396.09,-1662.37C525.43,-1622.98 847.52,-1524.87 951.83,-1493.1"/>
<polygon fill="#64748b" stroke="#64748b" points="952.69,-1495.4 958.67,-1491.02 951.26,-1490.72 952.69,-1495.4"/>
<text text-anchor="middle" x="598" y="-1618.6" font-family="Helvetica,sans-Serif" font-size="8.00">fk_listing_currency</text>
</g>
<!-- iso4217_currency&#45;&gt;security -->
<g id="edge23" class="edge">
<title>iso4217_currency&#45;&gt;security</title>
<path fill="none" stroke="#64748b" d="M396.31,-1692.52C446.31,-1704.84 518.74,-1722.7 561.53,-1733.25"/>
<polygon fill="#64748b" stroke="#64748b" points="561.01,-1735.65 568.4,-1734.95 562.19,-1730.89 561.01,-1735.65"/>
<text text-anchor="middle" x="470.5" y="-1721.6" font-family="Helvetica,sans-Serif" font-size="8.00">fk_security_currency</text>
</g>
<!-- issuer&#45;&gt;issuer_classification -->
<g id="edge24" class="edge">
<title>issuer&#45;&gt;issuer_classification</title>
<path fill="none" stroke="#64748b" d="M342.06,-1299.88C345.08,-1212.04 361.8,-821.96 429,-511 479.5,-277.32 357.93,0 597,0 597,0 597,0 1475.5,0 1659.13,0 1865.79,-85.98 1953.7,-126.87"/>
<polygon fill="#64748b" stroke="#64748b" points="1952.7,-129.1 1960.07,-129.85 1954.77,-124.67 1952.7,-129.1"/>
<text text-anchor="middle" x="986" y="-2.6" font-family="Helvetica,sans-Serif" font-size="8.00">fk_issuer_class_issuer</text>
</g>
<!-- issuer&#45;&gt;issuer_identifier -->
<g id="edge25" class="edge">
<title>issuer&#45;&gt;issuer_identifier</title>
<path fill="none" stroke="#64748b" d="M350.68,-1299.89C384.3,-1235.94 508.07,-1020.87 684,-953 764.27,-922.03 865.59,-937.44 927.81,-952.43"/>
<polygon fill="#64748b" stroke="#64748b" points="927.45,-954.86 934.83,-954.16 928.62,-950.11 927.45,-954.86"/>
<text text-anchor="middle" x="598" y="-1043.6" font-family="Helvetica,sans-Serif" font-size="8.00">fk_issuer_identifier_issuer</text>
</g>
<!-- issuer&#45;&gt;issuer_name_history -->
<g id="edge26" class="edge">
<title>issuer&#45;&gt;issuer_name_history</title>
<path fill="none" stroke="#64748b" d="M343.91,-1299.71C362.04,-1165.15 482.08,-329.98 684,-204 766.18,-152.73 885.01,-197.96 945.86,-227.78"/>
<polygon fill="#64748b" stroke="#64748b" points="944.92,-230.05 952.28,-230.97 947.1,-225.66 944.92,-230.05"/>
<text text-anchor="middle" x="598" y="-416.6" font-family="Helvetica,sans-Serif" font-size="8.00">fk_issuer_name_issuer</text>
</g>
<!-- provider_evidence -->
<g id="node20" class="node">
<title>provider_evidence</title>
<path fill="#f8fafc" stroke="#334155" d="M2043.5,-1499C2043.5,-1499 1952.5,-1499 1952.5,-1499 1946.5,-1499 1940.5,-1493 1940.5,-1487 1940.5,-1487 1940.5,-1475 1940.5,-1475 1940.5,-1469 1946.5,-1463 1952.5,-1463 1952.5,-1463 2043.5,-1463 2043.5,-1463 2049.5,-1463 2055.5,-1469 2055.5,-1475 2055.5,-1475 2055.5,-1487 2055.5,-1487 2055.5,-1493 2049.5,-1499 2043.5,-1499"/>
<text text-anchor="middle" x="1998" y="-1478.2" font-family="Helvetica,sans-Serif" font-size="11.00">provider_evidence</text>
</g>
<!-- issuer&#45;&gt;provider_evidence -->
<g id="edge27" class="edge">
<title>issuer&#45;&gt;provider_evidence</title>
<path fill="none" stroke="#64748b" d="M367.61,-1318C413.85,-1318 513.16,-1318 597,-1318 597,-1318 597,-1318 1475.5,-1318 1663.17,-1318 1872.24,-1415.36 1957.55,-1459.59"/>
<polygon fill="#64748b" stroke="#64748b" points="1956.62,-1461.87 1963.96,-1462.93 1958.89,-1457.52 1956.62,-1461.87"/>
<text text-anchor="middle" x="986" y="-1320.6" font-family="Helvetica,sans-Serif" font-size="8.00">fk_provider_evidence_issuer</text>
</g>
<!-- issuer&#45;&gt;security -->
<g id="edge28" class="edge">
<title>issuer&#45;&gt;security</title>
<path fill="none" stroke="#64748b" d="M360.14,-1336.03C370.77,-1346.42 384.27,-1359.81 396,-1372 411.05,-1387.64 414.22,-1392.1 429,-1408 465.61,-1447.37 485.39,-1449.28 512,-1496 538.32,-1542.2 527.84,-1560.67 545,-1611 557.83,-1648.63 575.32,-1691.26 586.39,-1717.39"/>
<polygon fill="#64748b" stroke="#64748b" points="584.2,-1718.5 589.19,-1723.99 588.71,-1716.58 584.2,-1718.5"/>
<text text-anchor="middle" x="470.5" y="-1498.6" font-family="Helvetica,sans-Serif" font-size="8.00">fk_security_issuer</text>
</g>
<!-- issuer&#45;&gt;security_event -->
<g id="edge29" class="edge">
<title>issuer&#45;&gt;security_event</title>
<path fill="none" stroke="#64748b" d="M367.64,-1307.51C384.89,-1300.82 408.08,-1292.26 429,-1286 540.54,-1252.61 569.72,-1248.26 684,-1226 852.19,-1193.24 897.48,-1203.01 1065,-1167 1193.67,-1139.34 1341.94,-1095.17 1419.62,-1071.07"/>
<polygon fill="#64748b" stroke="#64748b" points="1420.5,-1073.36 1426.46,-1068.94 1419.05,-1068.68 1420.5,-1073.36"/>
<text text-anchor="middle" x="779" y="-1228.6" font-family="Helvetica,sans-Serif" font-size="8.00">fk_security_event_issuer</text>
</g>
<!-- issuer&#45;&gt;security_reconciliation_evaluation -->
<g id="edge30" class="edge">
<title>issuer&#45;&gt;security_reconciliation_evaluation</title>
<path fill="none" stroke="#64748b" d="M357.37,-1336.11C370.17,-1351.84 387.4,-1375.84 396,-1400 446.61,-1542.2 378.41,-1595.79 429,-1738 497.66,-1931.02 510.76,-2012.64 684,-2122 931.91,-2278.49 1097.33,-2344.03 1341,-2181 1443.56,-2112.38 1466.82,-1948.29 1472.03,-1885.26"/>
<polygon fill="#64748b" stroke="#64748b" points="1474.48,-1885.25 1472.57,-1878.08 1469.6,-1884.88 1474.48,-1885.25"/>
<text text-anchor="middle" x="779" y="-2227.6" font-family="Helvetica,sans-Serif" font-size="8.00">fk_sec_recon_eval_issuer</text>
</g>
<!-- security_reconciliation_evidence -->
<g id="node31" class="node">
<title>security_reconciliation_evidence</title>
<path fill="#f8fafc" stroke="#334155" d="M1558.5,-1705C1558.5,-1705 1390.5,-1705 1390.5,-1705 1384.5,-1705 1378.5,-1699 1378.5,-1693 1378.5,-1693 1378.5,-1681 1378.5,-1681 1378.5,-1675 1384.5,-1669 1390.5,-1669 1390.5,-1669 1558.5,-1669 1558.5,-1669 1564.5,-1669 1570.5,-1675 1570.5,-1681 1570.5,-1681 1570.5,-1693 1570.5,-1693 1570.5,-1699 1564.5,-1705 1558.5,-1705"/>
<text text-anchor="middle" x="1474.5" y="-1684.2" font-family="Helvetica,sans-Serif" font-size="11.00">security_reconciliation_evidence</text>
</g>
<!-- issuer&#45;&gt;security_reconciliation_evidence -->
<g id="edge31" class="edge">
<title>issuer&#45;&gt;security_reconciliation_evidence</title>
<path fill="none" stroke="#64748b" d="M367.8,-1326.8C403.16,-1339.51 466.79,-1365.54 512,-1402 521.66,-1409.79 644.76,-1566.27 651,-1577 670.76,-1610.96 651.99,-1636.23 684,-1659 702.76,-1672.35 1074.99,-1678.2 1098,-1679 1190.33,-1682.21 1295.47,-1684.32 1370.97,-1685.56"/>
<polygon fill="#64748b" stroke="#64748b" points="1371.14,-1688.01 1378.18,-1685.68 1371.22,-1683.11 1371.14,-1688.01"/>
<text text-anchor="middle" x="779" y="-1675.6" font-family="Helvetica,sans-Serif" font-size="8.00">fk_sec_recon_evidence_issuer</text>
</g>
<!-- listing&#45;&gt;listing_symbol_history -->
<g id="edge32" class="edge">
<title>listing&#45;&gt;listing_symbol_history</title>
<path fill="none" stroke="#64748b" d="M1013.16,-1470.07C1029.5,-1461.05 1050.17,-1447.82 1065,-1432 1120.76,-1372.51 1396.97,-853.57 1460.47,-733.65"/>
<polygon fill="#64748b" stroke="#64748b" points="1462.73,-734.62 1463.84,-727.29 1458.4,-732.33 1462.73,-734.62"/>
<text text-anchor="middle" x="1219.5" y="-1386.6" font-family="Helvetica,sans-Serif" font-size="8.00">fk_listing_symbol_listing</text>
</g>
<!-- listing&#45;&gt;provider_evidence -->
<g id="edge33" class="edge">
<title>listing&#45;&gt;provider_evidence</title>
<path fill="none" stroke="#64748b" d="M1013.24,-1482.95C1145.07,-1482.69 1736.54,-1481.52 1933.19,-1481.13"/>
<polygon fill="#64748b" stroke="#64748b" points="1933.31,-1483.58 1940.3,-1481.11 1933.3,-1478.68 1933.31,-1483.58"/>
<text text-anchor="middle" x="1474.5" y="-1484.6" font-family="Helvetica,sans-Serif" font-size="8.00">fk_provider_evidence_listing</text>
</g>
<!-- listing&#45;&gt;security_event -->
<g id="edge34" class="edge">
<title>listing&#45;&gt;security_event</title>
<path fill="none" stroke="#64748b" d="M1013.18,-1473.23C1035.5,-1465.15 1068.54,-1453.79 1098,-1446 1204.43,-1417.87 1256.74,-1468.84 1341,-1398 1441.5,-1313.51 1466.02,-1143.51 1471.79,-1079.32"/>
<polygon fill="#64748b" stroke="#64748b" points="1474.26,-1079.21 1472.4,-1072.02 1469.37,-1078.79 1474.26,-1079.21"/>
<text text-anchor="middle" x="1219.5" y="-1448.6" font-family="Helvetica,sans-Serif" font-size="8.00">fk_security_event_listing</text>
</g>
<!-- listing&#45;&gt;security_reconciliation_evaluation -->
<g id="edge35" class="edge">
<title>listing&#45;&gt;security_reconciliation_evaluation</title>
<path fill="none" stroke="#64748b" d="M992.4,-1501.07C1004.91,-1540.09 1039.33,-1633.12 1098,-1688 1183.31,-1767.8 1312.12,-1815.69 1394.51,-1839.97"/>
<polygon fill="#64748b" stroke="#64748b" points="1393.94,-1842.36 1401.35,-1841.96 1395.31,-1837.65 1393.94,-1842.36"/>
<text text-anchor="middle" x="1219.5" y="-1823.6" font-family="Helvetica,sans-Serif" font-size="8.00">fk_sec_recon_eval_listing</text>
</g>
<!-- listing&#45;&gt;security_reconciliation_evaluation -->
<g id="edge36" class="edge">
<title>listing&#45;&gt;security_reconciliation_evaluation</title>
<path fill="none" stroke="#64748b" d="M996.09,-1501.32C1012.17,-1531.67 1048.65,-1592.01 1098,-1622 1192.08,-1679.16 1251.44,-1605.99 1341,-1670 1364.82,-1687.02 1357.87,-1702.57 1374,-1727 1400.15,-1766.6 1433.79,-1810.24 1454.49,-1836.37"/>
<polygon fill="#64748b" stroke="#64748b" points="1452.68,-1838.03 1458.96,-1841.99 1456.52,-1834.98 1452.68,-1838.03"/>
<text text-anchor="middle" x="1219.5" y="-1672.6" font-family="Helvetica,sans-Serif" font-size="8.00">fk_sec_recon_eval_related_listing</text>
</g>
<!-- listing&#45;&gt;security_reconciliation_evidence -->
<g id="edge37" class="edge">
<title>listing&#45;&gt;security_reconciliation_evidence</title>
<path fill="none" stroke="#64748b" d="M1005.78,-1501.01C1026.61,-1519.94 1062.05,-1549.13 1098,-1565 1198.71,-1609.45 1237.67,-1575.03 1341,-1613 1376.95,-1626.21 1414.79,-1648.27 1440.78,-1664.88"/>
<polygon fill="#64748b" stroke="#64748b" points="1439.59,-1667.03 1446.8,-1668.76 1442.25,-1662.91 1439.59,-1667.03"/>
<text text-anchor="middle" x="1219.5" y="-1615.6" font-family="Helvetica,sans-Serif" font-size="8.00">fk_sec_recon_evidence_listing</text>
</g>
<!-- provider -->
<g id="node19" class="node">
<title>provider</title>
<path fill="#f8fafc" stroke="#334155" d="M616,-554C616,-554 580,-554 580,-554 574,-554 568,-548 568,-542 568,-542 568,-530 568,-530 568,-524 574,-518 580,-518 580,-518 616,-518 616,-518 622,-518 628,-524 628,-530 628,-530 628,-542 628,-542 628,-548 622,-554 616,-554"/>
<text text-anchor="middle" x="598" y="-533.2" font-family="Helvetica,sans-Serif" font-size="11.00">provider</text>
</g>
<!-- provider&#45;&gt;classification_system -->
<g id="edge38" class="edge">
<title>provider&#45;&gt;classification_system</title>
<path fill="none" stroke="#64748b" d="M600.09,-517.75C604.8,-445.64 625.8,-181.82 684,-127 744.55,-69.96 844.54,-66.46 912.51,-72.2"/>
<polygon fill="#64748b" stroke="#64748b" points="912.62,-74.67 919.81,-72.86 913.06,-69.79 912.62,-74.67"/>
<text text-anchor="middle" x="779" y="-129.6" font-family="Helvetica,sans-Serif" font-size="8.00">fk_classification_system_provider</text>
</g>
<!-- provider&#45;&gt;exchange_alias -->
<g id="edge39" class="edge">
<title>provider&#45;&gt;exchange_alias</title>
<path fill="none" stroke="#64748b" d="M605.95,-554.11C618.26,-584.5 646.18,-646.59 684,-689 753.12,-766.5 818.53,-737.21 874,-825 918.38,-895.24 857.23,-942.47 907,-1009 913.19,-1017.27 921.62,-1023.91 930.66,-1029.19"/>
<polygon fill="#64748b" stroke="#64748b" points="929.68,-1031.44 937,-1032.63 932.02,-1027.14 929.68,-1031.44"/>
<text text-anchor="middle" x="779" y="-827.6" font-family="Helvetica,sans-Serif" font-size="8.00">fk_exchange_alias_provider</text>
</g>
<!-- provider&#45;&gt;issuer_classification -->
<g id="edge40" class="edge">
<title>provider&#45;&gt;issuer_classification</title>
<path fill="none" stroke="#64748b" d="M610.49,-517.79C622.56,-497.79 641.12,-464.33 651,-433 666.46,-383.96 645.86,-238.48 684,-204 730.5,-161.95 1665.21,-150.83 1928.51,-148.52"/>
<polygon fill="#64748b" stroke="#64748b" points="1928.75,-150.97 1935.73,-148.46 1928.71,-146.07 1928.75,-150.97"/>
<text text-anchor="middle" x="1219.5" y="-167.6" font-family="Helvetica,sans-Serif" font-size="8.00">fk_issuer_class_provider</text>
</g>
<!-- provider&#45;&gt;issuer_identifier -->
<g id="edge41" class="edge">
<title>provider&#45;&gt;issuer_identifier</title>
<path fill="none" stroke="#64748b" d="M610.14,-554.18C624.48,-576.02 651.48,-612.21 684,-632 758.4,-677.29 815.88,-615.13 874,-680 945.26,-759.54 849.85,-827.79 907,-918 914.52,-929.87 925.92,-939.56 937.69,-947.18"/>
<polygon fill="#64748b" stroke="#64748b" points="936.62,-949.39 943.87,-950.97 939.19,-945.22 936.62,-949.39"/>
<text text-anchor="middle" x="779" y="-682.6" font-family="Helvetica,sans-Serif" font-size="8.00">fk_issuer_identifier_provider</text>
</g>
<!-- provider&#45;&gt;issuer_name_history -->
<g id="edge42" class="edge">
<title>provider&#45;&gt;issuer_name_history</title>
<path fill="none" stroke="#64748b" d="M601.59,-517.71C610.18,-459.92 639.73,-283.14 684,-250 752.21,-198.93 855.65,-212.52 921.76,-229.11"/>
<polygon fill="#64748b" stroke="#64748b" points="921.44,-231.56 928.83,-230.93 922.67,-226.81 921.44,-231.56"/>
<text text-anchor="middle" x="779" y="-252.6" font-family="Helvetica,sans-Serif" font-size="8.00">fk_issuer_name_provider</text>
</g>
<!-- provider&#45;&gt;listing_symbol_history -->
<g id="edge43" class="edge">
<title>provider&#45;&gt;listing_symbol_history</title>
<path fill="none" stroke="#64748b" d="M628.34,-541.11C678.67,-549.93 784.67,-568.72 874,-586 1063.53,-622.67 1286.02,-669.25 1399.2,-693.2"/>
<polygon fill="#64748b" stroke="#64748b" points="1398.81,-695.62 1406.17,-694.67 1399.83,-690.82 1398.81,-695.62"/>
<text text-anchor="middle" x="986" y="-624.6" font-family="Helvetica,sans-Serif" font-size="8.00">fk_listing_symbol_provider</text>
</g>
<!-- provider_observation -->
<g id="node21" class="node">
<title>provider_observation</title>
<path fill="#f8fafc" stroke="#334155" d="M1528,-607C1528,-607 1421,-607 1421,-607 1415,-607 1409,-601 1409,-595 1409,-595 1409,-583 1409,-583 1409,-577 1415,-571 1421,-571 1421,-571 1528,-571 1528,-571 1534,-571 1540,-577 1540,-583 1540,-583 1540,-595 1540,-595 1540,-601 1534,-607 1528,-607"/>
<text text-anchor="middle" x="1474.5" y="-586.2" font-family="Helvetica,sans-Serif" font-size="11.00">provider_observation</text>
</g>
<!-- provider&#45;&gt;provider_observation -->
<g id="edge44" class="edge">
<title>provider&#45;&gt;provider_observation</title>
<path fill="none" stroke="#64748b" d="M628.32,-535.39C678.61,-534.5 784.56,-533.33 874,-537 1065,-544.84 1289.24,-568.04 1401.62,-580.63"/>
<polygon fill="#64748b" stroke="#64748b" points="1401.63,-583.1 1408.86,-581.45 1402.18,-578.23 1401.63,-583.1"/>
<text text-anchor="middle" x="986" y="-549.6" font-family="Helvetica,sans-Serif" font-size="8.00">fk_provider_observation_provider</text>
</g>
<!-- provider_source_snapshot -->
<g id="node22" class="node">
<title>provider_source_snapshot</title>
<path fill="#f8fafc" stroke="#334155" d="M1053,-433C1053,-433 919,-433 919,-433 913,-433 907,-427 907,-421 907,-421 907,-409 907,-409 907,-403 913,-397 919,-397 919,-397 1053,-397 1053,-397 1059,-397 1065,-403 1065,-409 1065,-409 1065,-421 1065,-421 1065,-427 1059,-433 1053,-433"/>
<text text-anchor="middle" x="986" y="-412.2" font-family="Helvetica,sans-Serif" font-size="11.00">provider_source_snapshot</text>
</g>
<!-- provider&#45;&gt;provider_source_snapshot -->
<g id="edge45" class="edge">
<title>provider&#45;&gt;provider_source_snapshot</title>
<path fill="none" stroke="#64748b" d="M616.85,-517.91C632.97,-502.69 658.08,-481.59 684,-470 752.76,-439.25 837.69,-425.69 899.78,-419.72"/>
<polygon fill="#64748b" stroke="#64748b" points="900.11,-422.14 906.85,-419.06 899.66,-417.27 900.11,-422.14"/>
<text text-anchor="middle" x="779" y="-472.6" font-family="Helvetica,sans-Serif" font-size="8.00">provider_source_snapshot_provider_code_fkey</text>
</g>
<!-- provider&#45;&gt;security_event -->
<g id="edge46" class="edge">
<title>provider&#45;&gt;security_event</title>
<path fill="none" stroke="#64748b" d="M627.65,-554.09C643.75,-563.67 664.47,-575.06 684,-583 765.1,-615.97 812.18,-573 874,-635 913.66,-674.78 868.41,-716.18 907,-757 976.81,-830.84 1256.49,-844.57 1341,-901 1393.13,-935.81 1436.95,-996.4 1458.73,-1029.94"/>
<polygon fill="#64748b" stroke="#64748b" points="1456.69,-1031.31 1462.53,-1035.88 1460.82,-1028.66 1456.69,-1031.31"/>
<text text-anchor="middle" x="986" y="-823.6" font-family="Helvetica,sans-Serif" font-size="8.00">fk_security_event_provider</text>
</g>
<!-- provider&#45;&gt;security_identifier -->
<g id="edge47" class="edge">
<title>provider&#45;&gt;security_identifier</title>
<path fill="none" stroke="#64748b" d="M602.9,-554.21C618.8,-628.33 678.17,-903.83 684,-911 742.55,-983.09 810.94,-929.82 874,-998 902.93,-1029.28 878.61,-1056.23 907,-1088 913.11,-1094.84 920.69,-1100.62 928.71,-1105.47"/>
<polygon fill="#64748b" stroke="#64748b" points="927.62,-1107.66 934.91,-1109 930.04,-1103.41 927.62,-1107.66"/>
<text text-anchor="middle" x="779" y="-1000.6" font-family="Helvetica,sans-Serif" font-size="8.00">fk_security_identifier_provider</text>
</g>
<!-- security_reconciliation_evaluation_evidence -->
<g id="node29" class="node">
<title>security_reconciliation_evaluation_evidence</title>
<path fill="#f8fafc" stroke="#334155" d="M2658.5,-1730C2658.5,-1730 2427.5,-1730 2427.5,-1730 2421.5,-1730 2415.5,-1724 2415.5,-1718 2415.5,-1718 2415.5,-1706 2415.5,-1706 2415.5,-1700 2421.5,-1694 2427.5,-1694 2427.5,-1694 2658.5,-1694 2658.5,-1694 2664.5,-1694 2670.5,-1700 2670.5,-1706 2670.5,-1706 2670.5,-1718 2670.5,-1718 2670.5,-1724 2664.5,-1730 2658.5,-1730"/>
<text text-anchor="middle" x="2543" y="-1709.2" font-family="Helvetica,sans-Serif" font-size="11.00">security_reconciliation_evaluation_evidence</text>
</g>
<!-- provider_evidence&#45;&gt;security_reconciliation_evaluation_evidence -->
<g id="edge48" class="edge">
<title>provider_evidence&#45;&gt;security_reconciliation_evaluation_evidence</title>
<path fill="none" stroke="#64748b" d="M2055.55,-1486.65C2089.2,-1491.96 2131.68,-1502.23 2165,-1522 2183.67,-1533.08 2180.4,-1545.3 2198,-1558 2285.91,-1621.41 2404.09,-1667.24 2476.56,-1691.69"/>
<polygon fill="#64748b" stroke="#64748b" points="2476.01,-1694.09 2483.42,-1693.99 2477.56,-1689.44 2476.01,-1694.09"/>
<text text-anchor="middle" x="2279.5" y="-1648.6" font-family="Helvetica,sans-Serif" font-size="8.00">fk_sec_recon_eval_ev_provider</text>
</g>
<!-- security_reconciliation_evidence_provider_evidence -->
<g id="node32" class="node">
<title>security_reconciliation_evidence_provider_evidence</title>
<path fill="#f8fafc" stroke="#334155" d="M2680,-1593C2680,-1593 2406,-1593 2406,-1593 2400,-1593 2394,-1587 2394,-1581 2394,-1581 2394,-1569 2394,-1569 2394,-1563 2400,-1557 2406,-1557 2406,-1557 2680,-1557 2680,-1557 2686,-1557 2692,-1563 2692,-1569 2692,-1569 2692,-1581 2692,-1581 2692,-1587 2686,-1593 2680,-1593"/>
<text text-anchor="middle" x="2543" y="-1572.2" font-family="Helvetica,sans-Serif" font-size="11.00">security_reconciliation_evidence_provider_evidence</text>
</g>
<!-- provider_evidence&#45;&gt;security_reconciliation_evidence_provider_evidence -->
<g id="edge49" class="edge">
<title>provider_evidence&#45;&gt;security_reconciliation_evidence_provider_evidence</title>
<path fill="none" stroke="#64748b" d="M2055.76,-1490.62C2127.05,-1502.73 2253.11,-1524.22 2361,-1543 2384.46,-1547.08 2409.63,-1551.51 2433.51,-1555.72"/>
<polygon fill="#64748b" stroke="#64748b" points="2433.22,-1558.16 2440.54,-1556.96 2434.08,-1553.33 2433.22,-1558.16"/>
<text text-anchor="middle" x="2279.5" y="-1545.6" font-family="Helvetica,sans-Serif" font-size="8.00">fk_sec_recon_evidence_provider_source</text>
</g>
<!-- provider_observation&#45;&gt;provider_evidence -->
<g id="edge50" class="edge">
<title>provider_observation&#45;&gt;provider_evidence</title>
<path fill="none" stroke="#64748b" d="M1503.45,-607.05C1524.98,-621.99 1554.46,-644.79 1575,-670 1797.46,-943.05 1951.33,-1352.08 1988.37,-1456.2"/>
<polygon fill="#64748b" stroke="#64748b" points="1986.1,-1457.11 1990.74,-1462.89 1990.72,-1455.47 1986.1,-1457.11"/>
<text text-anchor="middle" x="1703" y="-1007.6" font-family="Helvetica,sans-Serif" font-size="8.00">fk_provider_evidence_observation</text>
</g>
<!-- provider_source_snapshot&#45;&gt;provider_observation -->
<g id="edge51" class="edge">
<title>provider_source_snapshot&#45;&gt;provider_observation</title>
<path fill="none" stroke="#64748b" d="M1013.18,-433.08C1034.96,-447.31 1067.26,-466.58 1098,-478 1201.2,-516.33 1236.48,-491.43 1341,-526 1373.77,-536.84 1408.98,-553.86 1434.86,-567.47"/>
<polygon fill="#64748b" stroke="#64748b" points="1433.9,-569.74 1441.23,-570.86 1436.19,-565.41 1433.9,-569.74"/>
<text text-anchor="middle" x="1219.5" y="-528.6" font-family="Helvetica,sans-Serif" font-size="8.00">provider_observation_source_snapshot_id_fkey</text>
</g>
<!-- provider_source_snapshot_object -->
<g id="node23" class="node">
<title>provider_source_snapshot_object</title>
<path fill="#f8fafc" stroke="#334155" d="M1561,-433C1561,-433 1388,-433 1388,-433 1382,-433 1376,-427 1376,-421 1376,-421 1376,-409 1376,-409 1376,-403 1382,-397 1388,-397 1388,-397 1561,-397 1561,-397 1567,-397 1573,-403 1573,-409 1573,-409 1573,-421 1573,-421 1573,-427 1567,-433 1561,-433"/>
<text text-anchor="middle" x="1474.5" y="-412.2" font-family="Helvetica,sans-Serif" font-size="11.00">provider_source_snapshot_object</text>
</g>
<!-- provider_source_snapshot&#45;&gt;provider_source_snapshot_object -->
<g id="edge52" class="edge">
<title>provider_source_snapshot&#45;&gt;provider_source_snapshot_object</title>
<path fill="none" stroke="#64748b" d="M1065.16,-415C1147.49,-415 1277.59,-415 1368.76,-415"/>
<polygon fill="#64748b" stroke="#64748b" points="1368.81,-417.45 1375.81,-415 1368.81,-412.55 1368.81,-417.45"/>
<text text-anchor="middle" x="1219.5" y="-417.6" font-family="Helvetica,sans-Serif" font-size="8.00">provider_source_snapshot_object_source_snapshot_id_fkey</text>
</g>
<!-- security_reconciliation_evidence_source_snapshot -->
<g id="node33" class="node">
<title>security_reconciliation_evidence_source_snapshot</title>
<path fill="#f8fafc" stroke="#334155" d="M2131,-1579C2131,-1579 1865,-1579 1865,-1579 1859,-1579 1853,-1573 1853,-1567 1853,-1567 1853,-1555 1853,-1555 1853,-1549 1859,-1543 1865,-1543 1865,-1543 2131,-1543 2131,-1543 2137,-1543 2143,-1549 2143,-1555 2143,-1555 2143,-1567 2143,-1567 2143,-1573 2137,-1579 2131,-1579"/>
<text text-anchor="middle" x="1998" y="-1558.2" font-family="Helvetica,sans-Serif" font-size="11.00">security_reconciliation_evidence_source_snapshot</text>
</g>
<!-- provider_source_snapshot&#45;&gt;security_reconciliation_evidence_source_snapshot -->
<g id="edge53" class="edge">
<title>provider_source_snapshot&#45;&gt;security_reconciliation_evidence_source_snapshot</title>
<path fill="none" stroke="#64748b" d="M1065.1,-426.94C1216.64,-450.78 1538.93,-505.09 1575,-541 1584.97,-550.93 1820.96,-1511.15 1831,-1521 1838.64,-1528.49 1847.42,-1534.67 1856.88,-1539.75"/>
<polygon fill="#64748b" stroke="#64748b" points="1855.83,-1541.96 1863.18,-1542.93 1858.04,-1537.59 1855.83,-1541.96"/>
<text text-anchor="middle" x="1474.5" y="-543.6" font-family="Helvetica,sans-Serif" font-size="8.00">fk_sec_recon_evidence_snapshot_source</text>
</g>
<!-- security&#45;&gt;listing -->
<g id="edge54" class="edge">
<title>security&#45;&gt;listing</title>
<path fill="none" stroke="#64748b" d="M610.83,-1723.85C625.48,-1702.85 652.41,-1668.77 684,-1650 758.87,-1605.51 806.45,-1656.98 874,-1602 900.05,-1580.79 884.8,-1559.22 907,-1534 919.63,-1519.65 937.21,-1507.69 952.48,-1498.96"/>
<polygon fill="#64748b" stroke="#64748b" points="953.93,-1500.96 958.87,-1495.42 951.56,-1496.67 953.93,-1500.96"/>
<text text-anchor="middle" x="779" y="-1652.6" font-family="Helvetica,sans-Serif" font-size="8.00">fk_listing_security</text>
</g>
<!-- security&#45;&gt;provider_evidence -->
<g id="edge55" class="edge">
<title>security&#45;&gt;provider_evidence</title>
<path fill="none" stroke="#64748b" d="M627.76,-1748.71C682.47,-1759.66 802.43,-1774.69 874,-1716 913.47,-1683.64 870.27,-1641.45 907,-1606 1021.89,-1495.11 1251.3,-1573.6 1798,-1513 1843.35,-1507.97 1894.12,-1499.77 1933.04,-1492.92"/>
<polygon fill="#64748b" stroke="#64748b" points="1933.69,-1495.29 1940.16,-1491.66 1932.84,-1490.47 1933.69,-1495.29"/>
<text text-anchor="middle" x="1219.5" y="-1545.6" font-family="Helvetica,sans-Serif" font-size="8.00">fk_provider_evidence_security</text>
</g>
<!-- security&#45;&gt;security_event -->
<g id="edge56" class="edge">
<title>security&#45;&gt;security_event</title>
<path fill="none" stroke="#64748b" d="M606.2,-1723.74C618.68,-1693.74 646.61,-1633.25 684,-1592 765.41,-1502.2 805.9,-1501.86 907,-1435 975.92,-1389.42 1003.42,-1392.11 1065,-1337 1082.69,-1321.17 1077.88,-1307.61 1098,-1295 1191.67,-1236.3 1248.89,-1303.11 1341,-1242 1403.25,-1200.7 1445.28,-1119.36 1463.4,-1078.56"/>
<polygon fill="#64748b" stroke="#64748b" points="1465.65,-1079.53 1466.2,-1072.13 1461.15,-1077.57 1465.65,-1079.53"/>
<text text-anchor="middle" x="986" y="-1437.6" font-family="Helvetica,sans-Serif" font-size="8.00">fk_security_event_security</text>
</g>
<!-- security&#45;&gt;security_identifier -->
<g id="edge57" class="edge">
<title>security&#45;&gt;security_identifier</title>
<path fill="none" stroke="#64748b" d="M607.73,-1723.79C619.32,-1698.88 639.64,-1652.54 651,-1611 675.92,-1519.87 622.39,-1472.62 684,-1401 741.75,-1333.87 808.22,-1400.29 874,-1341 901.35,-1316.35 890.58,-1297.96 907,-1265 927.22,-1224.4 953.73,-1178.89 970.05,-1151.61"/>
<polygon fill="#64748b" stroke="#64748b" points="972.27,-1152.68 973.77,-1145.41 968.07,-1150.15 972.27,-1152.68"/>
<text text-anchor="middle" x="779" y="-1403.6" font-family="Helvetica,sans-Serif" font-size="8.00">fk_security_identifier_security</text>
</g>
<!-- security_reconciliation_decision -->
<g id="node27" class="node">
<title>security_reconciliation_decision</title>
<path fill="#f8fafc" stroke="#334155" d="M2080,-2038C2080,-2038 1916,-2038 1916,-2038 1910,-2038 1904,-2032 1904,-2026 1904,-2026 1904,-2014 1904,-2014 1904,-2008 1910,-2002 1916,-2002 1916,-2002 2080,-2002 2080,-2002 2086,-2002 2092,-2008 2092,-2014 2092,-2014 2092,-2026 2092,-2026 2092,-2032 2086,-2038 2080,-2038"/>
<text text-anchor="middle" x="1998" y="-2017.2" font-family="Helvetica,sans-Serif" font-size="11.00">security_reconciliation_decision</text>
</g>
<!-- security&#45;&gt;security_reconciliation_decision -->
<g id="edge58" class="edge">
<title>security&#45;&gt;security_reconciliation_decision</title>
<path fill="none" stroke="#64748b" d="M601.45,-1760.03C609.82,-1818.77 639.26,-2002.85 684,-2039 1072.39,-2352.82 1757.32,-2115.74 1947.05,-2040.71"/>
<polygon fill="#64748b" stroke="#64748b" points="1947.99,-2042.97 1953.59,-2038.11 1946.18,-2038.42 1947.99,-2042.97"/>
<text text-anchor="middle" x="1219.5" y="-2199.6" font-family="Helvetica,sans-Serif" font-size="8.00">fk_sec_recon_decision_security</text>
</g>
<!-- security&#45;&gt;security_reconciliation_evaluation -->
<g id="edge59" class="edge">
<title>security&#45;&gt;security_reconciliation_evaluation</title>
<path fill="none" stroke="#64748b" d="M598.93,-1760.29C599.87,-1806.93 609.58,-1930.33 684,-1983 803.18,-2067.34 1205.1,-2036.36 1341,-1983 1391.67,-1963.11 1434.5,-1913.71 1456.86,-1883.92"/>
<polygon fill="#64748b" stroke="#64748b" points="1458.86,-1885.33 1461.05,-1878.24 1454.92,-1882.42 1458.86,-1885.33"/>
<text text-anchor="middle" x="986" y="-2037.6" font-family="Helvetica,sans-Serif" font-size="8.00">fk_sec_recon_eval_related_security</text>
</g>
<!-- security&#45;&gt;security_reconciliation_evaluation -->
<g id="edge60" class="edge">
<title>security&#45;&gt;security_reconciliation_evaluation</title>
<path fill="none" stroke="#64748b" d="M616.47,-1760.25C632.54,-1775.9 657.78,-1797.81 684,-1810 854.09,-1889.07 911.32,-1873.69 1098,-1892 1205.48,-1902.54 1233.76,-1904.77 1341,-1892 1362.11,-1889.49 1384.73,-1884.8 1405.19,-1879.77"/>
<polygon fill="#64748b" stroke="#64748b" points="1405.84,-1882.13 1412.04,-1878.05 1404.65,-1877.37 1405.84,-1882.13"/>
<text text-anchor="middle" x="986" y="-1890.6" font-family="Helvetica,sans-Serif" font-size="8.00">fk_sec_recon_eval_security</text>
</g>
<!-- security&#45;&gt;security_reconciliation_evidence -->
<g id="edge61" class="edge">
<title>security&#45;&gt;security_reconciliation_evidence</title>
<path fill="none" stroke="#64748b" d="M627.8,-1755.59C643.94,-1762.49 664.66,-1770.21 684,-1774 781.3,-1793.06 807.86,-1778.67 907,-1780 977.22,-1780.94 995.08,-1786.53 1065,-1780 1189.28,-1768.39 1219.85,-1758.05 1341,-1728 1364.83,-1722.09 1390.69,-1714.38 1413.19,-1707.25"/>
<polygon fill="#64748b" stroke="#64748b" points="1414.14,-1709.52 1420.06,-1705.06 1412.65,-1704.85 1414.14,-1709.52"/>
<text text-anchor="middle" x="986" y="-1785.6" font-family="Helvetica,sans-Serif" font-size="8.00">fk_sec_recon_evidence_security</text>
</g>
<!-- security_event&#45;&gt;provider_evidence -->
<g id="edge62" class="edge">
<title>security_event&#45;&gt;provider_evidence</title>
<path fill="none" stroke="#64748b" d="M1505.79,-1072.19C1564.61,-1108.09 1697.37,-1192 1798,-1277 1868.61,-1336.64 1942.14,-1417.87 1976.72,-1457.42"/>
<polygon fill="#64748b" stroke="#64748b" points="1975.09,-1459.28 1981.54,-1462.95 1978.79,-1456.06 1975.09,-1459.28"/>
<text text-anchor="middle" x="1703" y="-1279.6" font-family="Helvetica,sans-Serif" font-size="8.00">fk_provider_evidence_event</text>
</g>
<!-- security_reconciliation_evaluation&#45;&gt;security_reconciliation_decision -->
<g id="edge63" class="edge">
<title>security_reconciliation_evaluation&#45;&gt;security_reconciliation_decision</title>
<path fill="none" stroke="#64748b" d="M1534.31,-1878.04C1632.35,-1908.12 1828.52,-1968.31 1931.09,-1999.78"/>
<polygon fill="#64748b" stroke="#64748b" points="1930.6,-2002.19 1938.01,-2001.9 1932.03,-1997.5 1930.6,-2002.19"/>
<text text-anchor="middle" x="1703" y="-1956.6" font-family="Helvetica,sans-Serif" font-size="8.00">fk_sec_recon_decision_eval</text>
</g>
<!-- security_reconciliation_evaluation&#45;&gt;security_reconciliation_evaluation_evidence -->
<g id="edge64" class="edge">
<title>security_reconciliation_evaluation&#45;&gt;security_reconciliation_evaluation_evidence</title>
<path fill="none" stroke="#64748b" d="M1575.16,-1851.5C1709.51,-1839.48 1956,-1815.43 2165,-1784 2262.99,-1769.27 2374.34,-1747.36 2450.47,-1731.58"/>
<polygon fill="#64748b" stroke="#64748b" points="2451.37,-1733.89 2457.73,-1730.07 2450.38,-1729.1 2451.37,-1733.89"/>
<text text-anchor="middle" x="1998" y="-1827.6" font-family="Helvetica,sans-Serif" font-size="8.00">fk_sec_recon_eval_ev_eval</text>
</g>
<!-- security_reconciliation_evaluation_reconciliation_evidence -->
<g id="node30" class="node">
<title>security_reconciliation_evaluation_reconciliation_evidence</title>
<path fill="#f8fafc" stroke="#334155" d="M2153,-1762C2153,-1762 1843,-1762 1843,-1762 1837,-1762 1831,-1756 1831,-1750 1831,-1750 1831,-1738 1831,-1738 1831,-1732 1837,-1726 1843,-1726 1843,-1726 2153,-1726 2153,-1726 2159,-1726 2165,-1732 2165,-1738 2165,-1738 2165,-1750 2165,-1750 2165,-1756 2159,-1762 2153,-1762"/>
<text text-anchor="middle" x="1998" y="-1741.2" font-family="Helvetica,sans-Serif" font-size="11.00">security_reconciliation_evaluation_reconciliation_evidence</text>
</g>
<!-- security_reconciliation_evaluation&#45;&gt;security_reconciliation_evaluation_reconciliation_evidence -->
<g id="edge65" class="edge">
<title>security_reconciliation_evaluation&#45;&gt;security_reconciliation_evaluation_reconciliation_evidence</title>
<path fill="none" stroke="#64748b" d="M1515.05,-1841.94C1541.01,-1830.72 1575.95,-1816.82 1608,-1808 1680.89,-1787.94 1763.3,-1773.28 1833.44,-1763.09"/>
<polygon fill="#64748b" stroke="#64748b" points="1834.05,-1765.48 1840.63,-1762.05 1833.35,-1760.63 1834.05,-1765.48"/>
<text text-anchor="middle" x="1703" y="-1810.6" font-family="Helvetica,sans-Serif" font-size="8.00">fk_sec_recon_eval_recon_evidence_evaluation</text>
</g>
<!-- security_reconciliation_evidence&#45;&gt;security_reconciliation_evaluation_reconciliation_evidence -->
<g id="edge66" class="edge">
<title>security_reconciliation_evidence&#45;&gt;security_reconciliation_evaluation_reconciliation_evidence</title>
<path fill="none" stroke="#64748b" d="M1570.54,-1697.39C1641.48,-1705.14 1740.36,-1715.95 1825.05,-1725.21"/>
<polygon fill="#64748b" stroke="#64748b" points="1824.93,-1727.66 1832.15,-1725.98 1825.46,-1722.79 1824.93,-1727.66"/>
<text text-anchor="middle" x="1703" y="-1722.6" font-family="Helvetica,sans-Serif" font-size="8.00">fk_sec_recon_eval_recon_evidence_evidence</text>
</g>
<!-- security_reconciliation_evidence&#45;&gt;security_reconciliation_evidence_provider_evidence -->
<g id="edge67" class="edge">
<title>security_reconciliation_evidence&#45;&gt;security_reconciliation_evidence_provider_evidence</title>
<path fill="none" stroke="#64748b" d="M1570.77,-1692.1C1734.36,-1698.71 2078.35,-1703.17 2361,-1644 2409.65,-1633.82 2462.46,-1612.39 2498.4,-1596.1"/>
<polygon fill="#64748b" stroke="#64748b" points="2499.57,-1598.26 2504.92,-1593.12 2497.53,-1593.81 2499.57,-1598.26"/>
<text text-anchor="middle" x="1998" y="-1697.6" font-family="Helvetica,sans-Serif" font-size="8.00">fk_sec_recon_evidence_provider_evidence</text>
</g>
<!-- security_reconciliation_evidence&#45;&gt;security_reconciliation_evidence_source_snapshot -->
<g id="edge68" class="edge">
<title>security_reconciliation_evidence&#45;&gt;security_reconciliation_evidence_source_snapshot</title>
<path fill="none" stroke="#64748b" d="M1511.21,-1668.96C1537.41,-1656.39 1574.17,-1640.13 1608,-1630 1685.02,-1606.94 1773.07,-1590.53 1845.89,-1579.52"/>
<polygon fill="#64748b" stroke="#64748b" points="1846.33,-1581.93 1852.89,-1578.47 1845.6,-1577.08 1846.33,-1581.93"/>
<text text-anchor="middle" x="1703" y="-1632.6" font-family="Helvetica,sans-Serif" font-size="8.00">fk_sec_recon_evidence_snapshot_evidence</text>
</g>
</g>
</svg>
