<?xml version="1.0" encoding="UTF-8" standalone="no"?>
<!DOCTYPE svg PUBLIC "-//W3C//DTD SVG 1.1//EN"
 "http://www.w3.org/Graphics/SVG/1.1/DTD/svg11.dtd">
<!-- Generated by graphviz version 2.42.4 (0)
 -->
<!-- Title: schema_relations Pages: 1 -->
<svg width="1664pt" height="1132pt"
 viewBox="0.00 0.00 1664.00 1132.00" xmlns="http://www.w3.org/2000/svg" xmlns:xlink="http://www.w3.org/1999/xlink">
<g id="graph0" class="graph" transform="scale(1 1) rotate(0) translate(18 1114)">
<title>schema_relations</title>
<!-- classification_code -->
<g id="node1" class="node">
<title>classification_code</title>
<path fill="#f8fafc" stroke="#334155" d="M390,-1096C390,-1096 297,-1096 297,-1096 291,-1096 285,-1090 285,-1084 285,-1084 285,-1072 285,-1072 285,-1066 291,-1060 297,-1060 297,-1060 390,-1060 390,-1060 396,-1060 402,-1066 402,-1072 402,-1072 402,-1084 402,-1084 402,-1090 396,-1096 390,-1096"/>
<text text-anchor="middle" x="343.5" y="-1075.2" font-family="Helvetica,sans-Serif" font-size="11.00">classification_code</text>
</g>
<!-- issuer_classification -->
<g id="node12" class="node">
<title>issuer_classification</title>
<path fill="#f8fafc" stroke="#334155" d="M712,-1039C712,-1039 612,-1039 612,-1039 606,-1039 600,-1033 600,-1027 600,-1027 600,-1015 600,-1015 600,-1009 606,-1003 612,-1003 612,-1003 712,-1003 712,-1003 718,-1003 724,-1009 724,-1015 724,-1015 724,-1027 724,-1027 724,-1033 718,-1039 712,-1039"/>
<text text-anchor="middle" x="662" y="-1018.2" font-family="Helvetica,sans-Serif" font-size="11.00">issuer_classification</text>
</g>
<!-- classification_code&#45;&gt;issuer_classification -->
<g id="edge1" class="edge">
<title>classification_code&#45;&gt;issuer_classification</title>
<path fill="none" stroke="#64748b" d="M402.18,-1067.61C455.87,-1057.94 535.93,-1043.52 592.77,-1033.29"/>
<polygon fill="#64748b" stroke="#64748b" points="593.48,-1035.65 599.94,-1032 592.61,-1030.83 593.48,-1035.65"/>
<text text-anchor="middle" x="498.5" y="-1063.6" font-family="Helvetica,sans-Serif" font-size="8.00">fk_issuer_class_code</text>
</g>
<!-- confidence_level -->
<g id="node2" class="node">
<title>confidence_level</title>
<path fill="#f8fafc" stroke="#334155" d="M384,-794C384,-794 303,-794 303,-794 297,-794 291,-788 291,-782 291,-782 291,-770 291,-770 291,-764 297,-758 303,-758 303,-758 384,-758 384,-758 390,-758 396,-764 396,-770 396,-770 396,-782 396,-782 396,-788 390,-794 384,-794"/>
<text text-anchor="middle" x="343.5" y="-773.2" font-family="Helvetica,sans-Serif" font-size="11.00">confidence_level</text>
</g>
<!-- confidence_level&#45;&gt;issuer_classification -->
<g id="edge2" class="edge">
<title>confidence_level&#45;&gt;issuer_classification</title>
<path fill="none" stroke="#64748b" d="M347.22,-794.1C354.14,-833.46 376.21,-927.08 435,-974 479.33,-1009.38 543.73,-1020.01 592.45,-1022.43"/>
<polygon fill="#64748b" stroke="#64748b" points="592.42,-1024.89 599.52,-1022.73 592.63,-1019.99 592.42,-1024.89"/>
<text text-anchor="middle" x="498.5" y="-1021.6" font-family="Helvetica,sans-Serif" font-size="8.00">fk_issuer_class_confidence</text>
</g>
<!-- issuer_identifier -->
<g id="node13" class="node">
<title>issuer_identifier</title>
<path fill="#f8fafc" stroke="#334155" d="M701,-647C701,-647 623,-647 623,-647 617,-647 611,-641 611,-635 611,-635 611,-623 611,-623 611,-617 617,-611 623,-611 623,-611 701,-611 701,-611 707,-611 713,-617 713,-623 713,-623 713,-635 713,-635 713,-641 707,-647 701,-647"/>
<text text-anchor="middle" x="662" y="-626.2" font-family="Helvetica,sans-Serif" font-size="11.00">issuer_identifier</text>
</g>
<!-- confidence_level&#45;&gt;issuer_identifier -->
<g id="edge3" class="edge">
<title>confidence_level&#45;&gt;issuer_identifier</title>
<path fill="none" stroke="#64748b" d="M365.24,-757.84C382.84,-743.13 409.28,-722.68 435,-709 450.37,-700.83 542.17,-669.17 603.94,-648.21"/>
<polygon fill="#64748b" stroke="#64748b" points="605.1,-650.41 610.95,-645.84 603.53,-645.77 605.1,-650.41"/>
<text text-anchor="middle" x="498.5" y="-711.6" font-family="Helvetica,sans-Serif" font-size="8.00">fk_issuer_identifier_confidence</text>
</g>
<!-- issuer_name_history -->
<g id="node14" class="node">
<title>issuer_name_history</title>
<path fill="#f8fafc" stroke="#334155" d="M713.5,-568C713.5,-568 610.5,-568 610.5,-568 604.5,-568 598.5,-562 598.5,-556 598.5,-556 598.5,-544 598.5,-544 598.5,-538 604.5,-532 610.5,-532 610.5,-532 713.5,-532 713.5,-532 719.5,-532 725.5,-538 725.5,-544 725.5,-544 725.5,-556 725.5,-556 725.5,-562 719.5,-568 713.5,-568"/>
<text text-anchor="middle" x="662" y="-547.2" font-family="Helvetica,sans-Serif" font-size="11.00">issuer_name_history</text>
</g>
<!-- confidence_level&#45;&gt;issuer_name_history -->
<g id="edge4" class="edge">
<title>confidence_level&#45;&gt;issuer_name_history</title>
<path fill="none" stroke="#64748b" d="M348,-758C356.17,-721.11 380.12,-636.88 435,-595 479.56,-561 543.04,-550.73 591.38,-548.41"/>
<polygon fill="#64748b" stroke="#64748b" points="591.51,-550.86 598.4,-548.12 591.31,-545.96 591.51,-550.86"/>
<text text-anchor="middle" x="498.5" y="-597.6" font-family="Helvetica,sans-Serif" font-size="8.00">fk_issuer_name_confidence</text>
</g>
<!-- listing_symbol_history -->
<g id="node16" class="node">
<title>listing_symbol_history</title>
<path fill="#f8fafc" stroke="#334155" d="M1336,-566C1336,-566 1224,-566 1224,-566 1218,-566 1212,-560 1212,-554 1212,-554 1212,-542 1212,-542 1212,-536 1218,-530 1224,-530 1224,-530 1336,-530 1336,-530 1342,-530 1348,-536 1348,-542 1348,-542 1348,-554 1348,-554 1348,-560 1342,-566 1336,-566"/>
<text text-anchor="middle" x="1280" y="-545.2" font-family="Helvetica,sans-Serif" font-size="11.00">listing_symbol_history</text>
</g>
<!-- confidence_level&#45;&gt;listing_symbol_history -->
<g id="edge5" class="edge">
<title>confidence_level&#45;&gt;listing_symbol_history</title>
<path fill="none" stroke="#64748b" d="M396.16,-776.28C440.38,-775.89 505.65,-773.81 562,-766 774.27,-736.59 825.61,-713.51 1029,-646 1100.14,-622.39 1180.53,-589.78 1230.49,-568.79"/>
<polygon fill="#64748b" stroke="#64748b" points="1231.54,-571.01 1237.04,-566.03 1229.63,-566.49 1231.54,-571.01"/>
<text text-anchor="middle" x="822.5" y="-731.6" font-family="Helvetica,sans-Serif" font-size="8.00">fk_listing_symbol_confidence</text>
</g>
<!-- security_event -->
<g id="node18" class="node">
<title>security_event</title>
<path fill="#f8fafc" stroke="#334155" d="M1316,-645C1316,-645 1244,-645 1244,-645 1238,-645 1232,-639 1232,-633 1232,-633 1232,-621 1232,-621 1232,-615 1238,-609 1244,-609 1244,-609 1316,-609 1316,-609 1322,-609 1328,-615 1328,-621 1328,-621 1328,-633 1328,-633 1328,-639 1322,-645 1316,-645"/>
<text text-anchor="middle" x="1280" y="-624.2" font-family="Helvetica,sans-Serif" font-size="11.00">security_event</text>
</g>
<!-- confidence_level&#45;&gt;security_event -->
<g id="edge6" class="edge">
<title>confidence_level&#45;&gt;security_event</title>
<path fill="none" stroke="#64748b" d="M363.09,-794.13C380.19,-809.44 407.05,-830.23 435,-839 547.5,-874.3 1172.96,-811.85 1179,-808 1235.41,-772.05 1262.68,-692.56 1273.34,-651.94"/>
<polygon fill="#64748b" stroke="#64748b" points="1275.74,-652.45 1275.09,-645.07 1270.99,-651.25 1275.74,-652.45"/>
<text text-anchor="middle" x="822.5" y="-845.6" font-family="Helvetica,sans-Serif" font-size="8.00">fk_security_event_confidence</text>
</g>
<!-- security_identifier -->
<g id="node19" class="node">
<title>security_identifier</title>
<path fill="#f8fafc" stroke="#334155" d="M1017,-624C1017,-624 928,-624 928,-624 922,-624 916,-618 916,-612 916,-612 916,-600 916,-600 916,-594 922,-588 928,-588 928,-588 1017,-588 1017,-588 1023,-588 1029,-594 1029,-600 1029,-600 1029,-612 1029,-612 1029,-618 1023,-624 1017,-624"/>
<text text-anchor="middle" x="972.5" y="-603.2" font-family="Helvetica,sans-Serif" font-size="11.00">security_identifier</text>
</g>
<!-- confidence_level&#45;&gt;security_identifier -->
<g id="edge7" class="edge">
<title>confidence_level&#45;&gt;security_identifier</title>
<path fill="none" stroke="#64748b" d="M396.38,-762.26C440.46,-750.57 505.41,-733.28 562,-718 684.95,-684.79 828.48,-645.39 908.8,-623.28"/>
<polygon fill="#64748b" stroke="#64748b" points="909.79,-625.55 915.89,-621.33 908.49,-620.83 909.79,-625.55"/>
<text text-anchor="middle" x="662" y="-710.6" font-family="Helvetica,sans-Serif" font-size="8.00">fk_security_identifier_confidence</text>
</g>
<!-- exchange -->
<g id="node3" class="node">
<title>exchange</title>
<path fill="#f8fafc" stroke="#334155" d="M683.5,-105C683.5,-105 640.5,-105 640.5,-105 634.5,-105 628.5,-99 628.5,-93 628.5,-93 628.5,-81 628.5,-81 628.5,-75 634.5,-69 640.5,-69 640.5,-69 683.5,-69 683.5,-69 689.5,-69 695.5,-75 695.5,-81 695.5,-81 695.5,-93 695.5,-93 695.5,-99 689.5,-105 683.5,-105"/>
<text text-anchor="middle" x="662" y="-84.2" font-family="Helvetica,sans-Serif" font-size="11.00">exchange</text>
</g>
<!-- exchange_alias -->
<g id="node4" class="node">
<title>exchange_alias</title>
<path fill="#f8fafc" stroke="#334155" d="M1009.5,-92C1009.5,-92 935.5,-92 935.5,-92 929.5,-92 923.5,-86 923.5,-80 923.5,-80 923.5,-68 923.5,-68 923.5,-62 929.5,-56 935.5,-56 935.5,-56 1009.5,-56 1009.5,-56 1015.5,-56 1021.5,-62 1021.5,-68 1021.5,-68 1021.5,-80 1021.5,-80 1021.5,-86 1015.5,-92 1009.5,-92"/>
<text text-anchor="middle" x="972.5" y="-71.2" font-family="Helvetica,sans-Serif" font-size="11.00">exchange_alias</text>
</g>
<!-- exchange&#45;&gt;exchange_alias -->
<g id="edge8" class="edge">
<title>exchange&#45;&gt;exchange_alias</title>
<path fill="none" stroke="#64748b" d="M695.72,-85.62C748.21,-83.41 851.81,-79.04 916.02,-76.34"/>
<polygon fill="#64748b" stroke="#64748b" points="916.37,-78.78 923.26,-76.03 916.16,-73.88 916.37,-78.78"/>
<text text-anchor="middle" x="822.5" y="-85.6" font-family="Helvetica,sans-Serif" font-size="8.00">fk_exchange_alias_exchange</text>
</g>
<!-- listing -->
<g id="node15" class="node">
<title>listing</title>
<path fill="#f8fafc" stroke="#334155" d="M987.5,-325C987.5,-325 957.5,-325 957.5,-325 951.5,-325 945.5,-319 945.5,-313 945.5,-313 945.5,-301 945.5,-301 945.5,-295 951.5,-289 957.5,-289 957.5,-289 987.5,-289 987.5,-289 993.5,-289 999.5,-295 999.5,-301 999.5,-301 999.5,-313 999.5,-313 999.5,-319 993.5,-325 987.5,-325"/>
<text text-anchor="middle" x="972.5" y="-304.2" font-family="Helvetica,sans-Serif" font-size="11.00">listing</text>
</g>
<!-- exchange&#45;&gt;listing -->
<g id="edge9" class="edge">
<title>exchange&#45;&gt;listing</title>
<path fill="none" stroke="#64748b" d="M688.25,-105C744.17,-144.89 878.41,-240.61 939.84,-284.42"/>
<polygon fill="#64748b" stroke="#64748b" points="938.78,-286.68 945.91,-288.75 941.63,-282.69 938.78,-286.68"/>
<text text-anchor="middle" x="822.5" y="-243.6" font-family="Helvetica,sans-Serif" font-size="8.00">fk_listing_exchange</text>
</g>
<!-- instrument_class -->
<g id="node5" class="node">
<title>instrument_class</title>
<path fill="#f8fafc" stroke="#334155" d="M97.5,-392C97.5,-392 13.5,-392 13.5,-392 7.5,-392 1.5,-386 1.5,-380 1.5,-380 1.5,-368 1.5,-368 1.5,-362 7.5,-356 13.5,-356 13.5,-356 97.5,-356 97.5,-356 103.5,-356 109.5,-362 109.5,-368 109.5,-368 109.5,-380 109.5,-380 109.5,-386 103.5,-392 97.5,-392"/>
<text text-anchor="middle" x="55.5" y="-371.2" font-family="Helvetica,sans-Serif" font-size="11.00">instrument_class</text>
</g>
<!-- instrument_type -->
<g id="node6" class="node">
<title>instrument_type</title>
<path fill="#f8fafc" stroke="#334155" d="M384,-392C384,-392 303,-392 303,-392 297,-392 291,-386 291,-380 291,-380 291,-368 291,-368 291,-362 297,-356 303,-356 303,-356 384,-356 384,-356 390,-356 396,-362 396,-368 396,-368 396,-380 396,-380 396,-386 390,-392 384,-392"/>
<text text-anchor="middle" x="343.5" y="-371.2" font-family="Helvetica,sans-Serif" font-size="11.00">instrument_type</text>
</g>
<!-- instrument_class&#45;&gt;instrument_type -->
<g id="edge10" class="edge">
<title>instrument_class&#45;&gt;instrument_type</title>
<path fill="none" stroke="#64748b" d="M109.62,-374C159,-374 232.4,-374 283.56,-374"/>
<polygon fill="#64748b" stroke="#64748b" points="283.62,-376.45 290.62,-374 283.62,-371.55 283.62,-376.45"/>
<text text-anchor="middle" x="198" y="-376.6" font-family="Helvetica,sans-Serif" font-size="8.00">fk_instrument_type_class</text>
</g>
<!-- security -->
<g id="node17" class="node">
<title>security</title>
<path fill="#f8fafc" stroke="#334155" d="M679.5,-402C679.5,-402 644.5,-402 644.5,-402 638.5,-402 632.5,-396 632.5,-390 632.5,-390 632.5,-378 632.5,-378 632.5,-372 638.5,-366 644.5,-366 644.5,-366 679.5,-366 679.5,-366 685.5,-366 691.5,-372 691.5,-378 691.5,-378 691.5,-390 691.5,-390 691.5,-396 685.5,-402 679.5,-402"/>
<text text-anchor="middle" x="662" y="-381.2" font-family="Helvetica,sans-Serif" font-size="11.00">security</text>
</g>
<!-- instrument_type&#45;&gt;security -->
<g id="edge11" class="edge">
<title>instrument_type&#45;&gt;security</title>
<path fill="none" stroke="#64748b" d="M396.39,-372.99C440.47,-372.42 505.42,-372.3 562,-375 583,-376 606.44,-378.09 625.23,-380"/>
<polygon fill="#64748b" stroke="#64748b" points="625.24,-382.46 632.45,-380.75 625.74,-377.59 625.24,-382.46"/>
<text text-anchor="middle" x="498.5" y="-377.6" font-family="Helvetica,sans-Serif" font-size="8.00">fk_security_type</text>
</g>
<!-- iso10383_mic -->
<g id="node7" class="node">
<title>iso10383_mic</title>
<path fill="#f8fafc" stroke="#334155" d="M376,-36C376,-36 311,-36 311,-36 305,-36 299,-30 299,-24 299,-24 299,-12 299,-12 299,-6 305,0 311,0 311,0 376,0 376,0 382,0 388,-6 388,-12 388,-12 388,-24 388,-24 388,-30 382,-36 376,-36"/>
<text text-anchor="middle" x="343.5" y="-15.2" font-family="Helvetica,sans-Serif" font-size="11.00">iso10383_mic</text>
</g>
<!-- iso10383_mic&#45;&gt;exchange -->
<g id="edge12" class="edge">
<title>iso10383_mic&#45;&gt;exchange</title>
<path fill="none" stroke="#64748b" d="M388.18,-27.52C449.94,-40.99 561.88,-65.39 621.36,-78.36"/>
<polygon fill="#64748b" stroke="#64748b" points="620.98,-80.78 628.35,-79.88 622.03,-76 620.98,-80.78"/>
<text text-anchor="middle" x="498.5" y="-67.6" font-family="Helvetica,sans-Serif" font-size="8.00">fk_exchange_mic</text>
</g>
<!-- iso10383_mic&#45;&gt;iso10383_mic -->
<g id="edge13" class="edge">
<title>iso10383_mic&#45;&gt;iso10383_mic</title>
<path fill="none" stroke="#64748b" d="M323.25,-36.11C309.75,-56.12 316.5,-79 343.5,-79 367.76,-79 375.67,-60.54 367.24,-42.27"/>
<polygon fill="#64748b" stroke="#64748b" points="369.33,-40.99 363.75,-36.11 365.07,-43.41 369.33,-40.99"/>
<text text-anchor="middle" x="343.5" y="-81.6" font-family="Helvetica,sans-Serif" font-size="8.00">fk_iso10383_mic_operating</text>
</g>
<!-- iso10383_mic_cat -->
<g id="node8" class="node">
<title>iso10383_mic_cat</title>
<path fill="#f8fafc" stroke="#334155" d="M99,-36C99,-36 12,-36 12,-36 6,-36 0,-30 0,-24 0,-24 0,-12 0,-12 0,-6 6,0 12,0 12,0 99,0 99,0 105,0 111,-6 111,-12 111,-12 111,-24 111,-24 111,-30 105,-36 99,-36"/>
<text text-anchor="middle" x="55.5" y="-15.2" font-family="Helvetica,sans-Serif" font-size="11.00">iso10383_mic_cat</text>
</g>
<!-- iso10383_mic_cat&#45;&gt;iso10383_mic -->
<g id="edge14" class="edge">
<title>iso10383_mic_cat&#45;&gt;iso10383_mic</title>
<path fill="none" stroke="#64748b" d="M111.31,-18C163.25,-18 240.66,-18 291.36,-18"/>
<polygon fill="#64748b" stroke="#64748b" points="291.64,-20.45 298.64,-18 291.64,-15.55 291.64,-20.45"/>
<text text-anchor="middle" x="198" y="-20.6" font-family="Helvetica,sans-Serif" font-size="8.00">fk_iso10383_mic_category</text>
</g>
<!-- iso3166_country -->
<g id="node9" class="node">
<title>iso3166_country</title>
<path fill="#f8fafc" stroke="#334155" d="M96,-167C96,-167 15,-167 15,-167 9,-167 3,-161 3,-155 3,-155 3,-143 3,-143 3,-137 9,-131 15,-131 15,-131 96,-131 96,-131 102,-131 108,-137 108,-143 108,-143 108,-155 108,-155 108,-161 102,-167 96,-167"/>
<text text-anchor="middle" x="55.5" y="-146.2" font-family="Helvetica,sans-Serif" font-size="11.00">iso3166_country</text>
</g>
<!-- iso3166_country&#45;&gt;exchange -->
<g id="edge15" class="edge">
<title>iso3166_country&#45;&gt;exchange</title>
<path fill="none" stroke="#64748b" d="M108.04,-143.71C226.38,-131.58 515.49,-101.92 621.34,-91.07"/>
<polygon fill="#64748b" stroke="#64748b" points="621.63,-93.5 628.34,-90.35 621.13,-88.63 621.63,-93.5"/>
<text text-anchor="middle" x="343.5" y="-128.6" font-family="Helvetica,sans-Serif" font-size="8.00">fk_exchange_country</text>
</g>
<!-- iso3166_country&#45;&gt;iso10383_mic -->
<g id="edge16" class="edge">
<title>iso3166_country&#45;&gt;iso10383_mic</title>
<path fill="none" stroke="#64748b" d="M94.78,-130.93C110.07,-123.75 127.85,-115.44 144,-108 195.65,-84.19 255.08,-57.32 295.34,-39.18"/>
<polygon fill="#64748b" stroke="#64748b" points="296.76,-41.23 302.13,-36.12 294.74,-36.76 296.76,-41.23"/>
<text text-anchor="middle" x="198" y="-110.6" font-family="Helvetica,sans-Serif" font-size="8.00">fk_iso10383_mic_country</text>
</g>
<!-- issuer -->
<g id="node11" class="node">
<title>issuer</title>
<path fill="#f8fafc" stroke="#334155" d="M358.5,-485C358.5,-485 328.5,-485 328.5,-485 322.5,-485 316.5,-479 316.5,-473 316.5,-473 316.5,-461 316.5,-461 316.5,-455 322.5,-449 328.5,-449 328.5,-449 358.5,-449 358.5,-449 364.5,-449 370.5,-455 370.5,-461 370.5,-461 370.5,-473 370.5,-473 370.5,-479 364.5,-485 358.5,-485"/>
<text text-anchor="middle" x="343.5" y="-464.2" font-family="Helvetica,sans-Serif" font-size="11.00">issuer</text>
</g>
<!-- iso3166_country&#45;&gt;issuer -->
<g id="edge17" class="edge">
<title>iso3166_country&#45;&gt;issuer</title>
<path fill="none" stroke="#64748b" d="M76.82,-167.16C114.4,-201.41 196.02,-278.96 252,-355 269.81,-379.2 266.39,-390.41 285,-414 293.51,-424.79 304.29,-435.34 314.2,-444.14"/>
<polygon fill="#64748b" stroke="#64748b" points="312.72,-446.1 319.6,-448.85 315.93,-442.4 312.72,-446.1"/>
<text text-anchor="middle" x="198" y="-357.6" font-family="Helvetica,sans-Serif" font-size="8.00">fk_issuer_country</text>
</g>
<!-- iso4217_currency -->
<g id="node10" class="node">
<title>iso4217_currency</title>
<path fill="#f8fafc" stroke="#334155" d="M387,-262C387,-262 300,-262 300,-262 294,-262 288,-256 288,-250 288,-250 288,-238 288,-238 288,-232 294,-226 300,-226 300,-226 387,-226 387,-226 393,-226 399,-232 399,-238 399,-238 399,-250 399,-250 399,-256 393,-262 387,-262"/>
<text text-anchor="middle" x="343.5" y="-241.2" font-family="Helvetica,sans-Serif" font-size="11.00">iso4217_currency</text>
</g>
<!-- iso4217_currency&#45;&gt;listing -->
<g id="edge18" class="edge">
<title>iso4217_currency&#45;&gt;listing</title>
<path fill="none" stroke="#64748b" d="M399.05,-249.48C525.61,-262.2 836.23,-293.41 938.36,-303.67"/>
<polygon fill="#64748b" stroke="#64748b" points="938.14,-306.11 945.35,-304.37 938.63,-301.23 938.14,-306.11"/>
<text text-anchor="middle" x="662" y="-283.6" font-family="Helvetica,sans-Serif" font-size="8.00">fk_listing_currency</text>
</g>
<!-- iso4217_currency&#45;&gt;security -->
<g id="edge19" class="edge">
<title>iso4217_currency&#45;&gt;security</title>
<path fill="none" stroke="#64748b" d="M385.23,-262.02C447.76,-289.68 566.39,-342.15 625.57,-368.33"/>
<polygon fill="#64748b" stroke="#64748b" points="624.75,-370.65 632.15,-371.24 626.73,-366.16 624.75,-370.65"/>
<text text-anchor="middle" x="498.5" y="-340.6" font-family="Helvetica,sans-Serif" font-size="8.00">fk_security_currency</text>
</g>
<!-- issuer&#45;&gt;issuer_classification -->
<g id="edge20" class="edge">
<title>issuer&#45;&gt;issuer_classification</title>
<path fill="none" stroke="#64748b" d="M348.66,-485.24C359.08,-528.98 388.83,-642.56 435,-728 494.55,-838.2 594.49,-950.51 638.75,-997.78"/>
<polygon fill="#64748b" stroke="#64748b" points="637.04,-999.53 643.62,-1002.95 640.61,-996.18 637.04,-999.53"/>
<text text-anchor="middle" x="498.5" y="-910.6" font-family="Helvetica,sans-Serif" font-size="8.00">fk_issuer_class_issuer</text>
</g>
<!-- issuer&#45;&gt;issuer_identifier -->
<g id="edge21" class="edge">
<title>issuer&#45;&gt;issuer_identifier</title>
<path fill="none" stroke="#64748b" d="M350.77,-485.43C362.19,-515.91 389.52,-576.2 435,-604 485.88,-635.1 555.42,-638.2 603.87,-635.52"/>
<polygon fill="#64748b" stroke="#64748b" points="604.02,-637.96 610.86,-635.08 603.72,-633.07 604.02,-637.96"/>
<text text-anchor="middle" x="498.5" y="-637.6" font-family="Helvetica,sans-Serif" font-size="8.00">fk_issuer_identifier_issuer</text>
</g>
<!-- issuer&#45;&gt;issuer_name_history -->
<g id="edge22" class="edge">
<title>issuer&#45;&gt;issuer_name_history</title>
<path fill="none" stroke="#64748b" d="M370.67,-473.86C418.57,-486.42 521.79,-513.49 591.33,-531.73"/>
<polygon fill="#64748b" stroke="#64748b" points="590.98,-534.17 598.37,-533.58 592.23,-529.43 590.98,-534.17"/>
<text text-anchor="middle" x="498.5" y="-525.6" font-family="Helvetica,sans-Serif" font-size="8.00">fk_issuer_name_issuer</text>
</g>
<!-- issuer&#45;&gt;security -->
<g id="edge23" class="edge">
<title>issuer&#45;&gt;security</title>
<path fill="none" stroke="#64748b" d="M370.65,-455.61C388.52,-448.14 412.88,-438.58 435,-432 501.1,-412.34 580.35,-397.43 625.27,-389.77"/>
<polygon fill="#64748b" stroke="#64748b" points="625.96,-392.14 632.45,-388.56 625.14,-387.31 625.96,-392.14"/>
<text text-anchor="middle" x="498.5" y="-434.6" font-family="Helvetica,sans-Serif" font-size="8.00">fk_security_issuer</text>
</g>
<!-- issuer&#45;&gt;security_event -->
<g id="edge24" class="edge">
<title>issuer&#45;&gt;security_event</title>
<path fill="none" stroke="#64748b" d="M370.67,-461.16C438.73,-447.62 623.27,-421.68 729,-511 769.29,-545.04 722.08,-590.53 762,-625 852.09,-702.8 910.05,-650.51 1029,-646 1096.37,-643.44 1173.73,-637.03 1224.33,-632.35"/>
<polygon fill="#64748b" stroke="#64748b" points="1224.86,-634.77 1231.6,-631.68 1224.4,-629.89 1224.86,-634.77"/>
<text text-anchor="middle" x="822.5" y="-669.6" font-family="Helvetica,sans-Serif" font-size="8.00">fk_security_event_issuer</text>
</g>
<!-- source_evidence -->
<g id="node20" class="node">
<title>source_evidence</title>
<path fill="#f8fafc" stroke="#334155" d="M1616,-404C1616,-404 1534,-404 1534,-404 1528,-404 1522,-398 1522,-392 1522,-392 1522,-380 1522,-380 1522,-374 1528,-368 1534,-368 1534,-368 1616,-368 1616,-368 1622,-368 1628,-374 1628,-380 1628,-380 1628,-392 1628,-392 1628,-398 1622,-404 1616,-404"/>
<text text-anchor="middle" x="1575" y="-383.2" font-family="Helvetica,sans-Serif" font-size="11.00">source_evidence</text>
</g>
<!-- issuer&#45;&gt;source_evidence -->
<g id="edge25" class="edge">
<title>issuer&#45;&gt;source_evidence</title>
<path fill="none" stroke="#64748b" d="M366.82,-448.85C378.05,-439.14 391.47,-426.61 402,-414 419.55,-392.99 413.36,-378.76 435,-362 543.57,-277.92 624.01,-355.51 729,-267 753.17,-246.63 734.96,-220.36 762,-204 906.14,-116.79 859.24,-51.46 1489,-325 1510.66,-334.41 1532.25,-350 1548.25,-363.06"/>
<polygon fill="#64748b" stroke="#64748b" points="1546.93,-365.15 1553.88,-367.74 1550.06,-361.38 1546.93,-365.15"/>
<text text-anchor="middle" x="972.5" y="-148.6" font-family="Helvetica,sans-Serif" font-size="8.00">fk_source_evidence_issuer</text>
</g>
<!-- listing&#45;&gt;listing_symbol_history -->
<g id="edge26" class="edge">
<title>listing&#45;&gt;listing_symbol_history</title>
<path fill="none" stroke="#64748b" d="M987.76,-325.17C1003.98,-344.83 1032.1,-376.03 1062,-396 1108.74,-427.21 1137.69,-405.89 1179,-444 1202.81,-465.97 1189.76,-485.44 1212,-509 1218.06,-515.42 1225.42,-521.11 1233.01,-526.03"/>
<polygon fill="#64748b" stroke="#64748b" points="1232.17,-528.39 1239.42,-529.97 1234.74,-524.22 1232.17,-528.39"/>
<text text-anchor="middle" x="1120.5" y="-446.6" font-family="Helvetica,sans-Serif" font-size="8.00">fk_listing_symbol_listing</text>
</g>
<!-- listing&#45;&gt;security_event -->
<g id="edge27" class="edge">
<title>listing&#45;&gt;security_event</title>
<path fill="none" stroke="#64748b" d="M980.14,-325.25C992.07,-355.68 1019.88,-416.97 1062,-453 1104.71,-489.53 1139.79,-460.73 1179,-501 1207.85,-530.63 1185.26,-556.45 1212,-588 1217.51,-594.5 1224.39,-600.17 1231.62,-605.02"/>
<polygon fill="#64748b" stroke="#64748b" points="1230.53,-607.23 1237.76,-608.9 1233.15,-603.09 1230.53,-607.23"/>
<text text-anchor="middle" x="1120.5" y="-503.6" font-family="Helvetica,sans-Serif" font-size="8.00">fk_security_event_listing</text>
</g>
<!-- listing&#45;&gt;source_evidence -->
<g id="edge28" class="edge">
<title>listing&#45;&gt;source_evidence</title>
<path fill="none" stroke="#64748b" d="M999.63,-306.92C1076.01,-307.21 1305.06,-311.8 1489,-354 1501.21,-356.8 1514.02,-360.94 1525.89,-365.32"/>
<polygon fill="#64748b" stroke="#64748b" points="1525.34,-367.74 1532.75,-367.92 1527.07,-363.15 1525.34,-367.74"/>
<text text-anchor="middle" x="1280" y="-330.6" font-family="Helvetica,sans-Serif" font-size="8.00">fk_source_evidence_listing</text>
</g>
<!-- security&#45;&gt;listing -->
<g id="edge29" class="edge">
<title>security&#45;&gt;listing</title>
<path fill="none" stroke="#64748b" d="M691.9,-375.04C711.57,-369.06 738.26,-361.19 762,-355 823.95,-338.85 896.96,-322.78 938.39,-313.95"/>
<polygon fill="#64748b" stroke="#64748b" points="938.91,-316.34 945.25,-312.49 937.89,-311.55 938.91,-316.34"/>
<text text-anchor="middle" x="822.5" y="-357.6" font-family="Helvetica,sans-Serif" font-size="8.00">fk_listing_security</text>
</g>
<!-- security&#45;&gt;security_event -->
<g id="edge30" class="edge">
<title>security&#45;&gt;security_event</title>
<path fill="none" stroke="#64748b" d="M691.88,-395.39C788.51,-433.51 1101.41,-556.94 1226.56,-606.31"/>
<polygon fill="#64748b" stroke="#64748b" points="1225.68,-608.6 1233.09,-608.89 1227.48,-604.04 1225.68,-608.6"/>
<text text-anchor="middle" x="972.5" y="-527.6" font-family="Helvetica,sans-Serif" font-size="8.00">fk_security_event_security</text>
</g>
<!-- security&#45;&gt;security_identifier -->
<g id="edge31" class="edge">
<title>security&#45;&gt;security_identifier</title>
<path fill="none" stroke="#64748b" d="M691.62,-400.08C704.78,-408.82 719.54,-420.77 729,-435 760.56,-482.5 720.89,-519.48 762,-559 800.72,-596.23 862.23,-606.44 908.61,-608.25"/>
<polygon fill="#64748b" stroke="#64748b" points="908.55,-610.7 915.62,-608.46 908.7,-605.8 908.55,-610.7"/>
<text text-anchor="middle" x="822.5" y="-608.6" font-family="Helvetica,sans-Serif" font-size="8.00">fk_security_identifier_security</text>
</g>
<!-- security&#45;&gt;source_evidence -->
<g id="edge32" class="edge">
<title>security&#45;&gt;source_evidence</title>
<path fill="none" stroke="#64748b" d="M691.52,-384.06C818.97,-384.34 1337.91,-385.48 1514.69,-385.87"/>
<polygon fill="#64748b" stroke="#64748b" points="1514.84,-388.32 1521.84,-385.89 1514.85,-383.42 1514.84,-388.32"/>
<text text-anchor="middle" x="1120.5" y="-387.6" font-family="Helvetica,sans-Serif" font-size="8.00">fk_source_evidence_security</text>
</g>
<!-- security_event&#45;&gt;source_evidence -->
<g id="edge33" class="edge">
<title>security_event&#45;&gt;source_evidence</title>
<path fill="none" stroke="#64748b" d="M1314.84,-608.97C1325.71,-602.74 1337.61,-595.45 1348,-588 1428.21,-530.47 1512.21,-448.79 1551.39,-409.25"/>
<polygon fill="#64748b" stroke="#64748b" points="1553.21,-410.88 1556.39,-404.18 1549.73,-407.44 1553.21,-410.88"/>
<text text-anchor="middle" x="1435" y="-560.6" font-family="Helvetica,sans-Serif" font-size="8.00">fk_source_evidence_event</text>
</g>
<!-- source_observation -->
<g id="node21" class="node">
<title>source_observation</title>
<path fill="#f8fafc" stroke="#334155" d="M1329,-487C1329,-487 1231,-487 1231,-487 1225,-487 1219,-481 1219,-475 1219,-475 1219,-463 1219,-463 1219,-457 1225,-451 1231,-451 1231,-451 1329,-451 1329,-451 1335,-451 1341,-457 1341,-463 1341,-463 1341,-475 1341,-475 1341,-481 1335,-487 1329,-487"/>
<text text-anchor="middle" x="1280" y="-466.2" font-family="Helvetica,sans-Serif" font-size="11.00">source_observation</text>
</g>
<!-- source_observation&#45;&gt;source_evidence -->
<g id="edge34" class="edge">
<title>source_observation&#45;&gt;source_evidence</title>
<path fill="none" stroke="#64748b" d="M1341.14,-456.26C1382.96,-446.91 1439.81,-433.23 1489,-418 1499.85,-414.64 1511.33,-410.64 1522.22,-406.62"/>
<polygon fill="#64748b" stroke="#64748b" points="1523.21,-408.86 1528.91,-404.12 1521.5,-404.27 1523.21,-408.86"/>
<text text-anchor="middle" x="1435" y="-448.6" font-family="Helvetica,sans-Serif" font-size="8.00">fk_source_evidence_obs</text>
</g>
</g>
</svg>
