<?xml version="1.0" encoding="UTF-8" standalone="no"?>
<!DOCTYPE svg PUBLIC "-//W3C//DTD SVG 1.1//EN"
 "http://www.w3.org/Graphics/SVG/1.1/DTD/svg11.dtd">
<!-- Generated by graphviz version 2.42.4 (0)
 -->
<!-- Title: schema_relations Pages: 1 -->
<svg width="1936pt" height="1739pt"
 viewBox="0.00 0.00 1936.00 1738.84" xmlns="http://www.w3.org/2000/svg" xmlns:xlink="http://www.w3.org/1999/xlink">
<g id="graph0" class="graph" transform="scale(1 1) rotate(0) translate(18 1720.84)">
<title>schema_relations</title>
<!-- classification_code -->
<g id="node1" class="node">
<title>classification_code</title>
<path fill="#f8fafc" stroke="#334155" d="M1519,-129.84C1519,-129.84 1426,-129.84 1426,-129.84 1420,-129.84 1414,-123.84 1414,-117.84 1414,-117.84 1414,-105.84 1414,-105.84 1414,-99.84 1420,-93.84 1426,-93.84 1426,-93.84 1519,-93.84 1519,-93.84 1525,-93.84 1531,-99.84 1531,-105.84 1531,-105.84 1531,-117.84 1531,-117.84 1531,-123.84 1525,-129.84 1519,-129.84"/>
<text text-anchor="middle" x="1472.5" y="-109.04" font-family="Helvetica,sans-Serif" font-size="11.00">classification_code</text>
</g>
<!-- issuer_classification -->
<g id="node14" class="node">
<title>issuer_classification</title>
<path fill="#f8fafc" stroke="#334155" d="M1888,-658.84C1888,-658.84 1788,-658.84 1788,-658.84 1782,-658.84 1776,-652.84 1776,-646.84 1776,-646.84 1776,-634.84 1776,-634.84 1776,-628.84 1782,-622.84 1788,-622.84 1788,-622.84 1888,-622.84 1888,-622.84 1894,-622.84 1900,-628.84 1900,-634.84 1900,-634.84 1900,-646.84 1900,-646.84 1900,-652.84 1894,-658.84 1888,-658.84"/>
<text text-anchor="middle" x="1838" y="-638.04" font-family="Helvetica,sans-Serif" font-size="11.00">issuer_classification</text>
</g>
<!-- classification_code&#45;&gt;issuer_classification -->
<g id="edge1" class="edge">
<title>classification_code&#45;&gt;issuer_classification</title>
<path fill="none" stroke="#64748b" d="M1531.15,-127.32C1545.3,-133.06 1559.63,-140.72 1571,-150.84 1724.79,-287.64 1806.62,-535.25 1829.93,-615.2"/>
<polygon fill="#64748b" stroke="#64748b" points="1827.71,-616.36 1832,-622.41 1832.42,-615 1827.71,-616.36"/>
<text text-anchor="middle" x="1673.5" y="-383.44" font-family="Helvetica,sans-Serif" font-size="8.00">fk_issuer_class_code</text>
</g>
<!-- classification_system -->
<g id="node2" class="node">
<title>classification_system</title>
<path fill="#f8fafc" stroke="#334155" d="M1040,-129.84C1040,-129.84 932,-129.84 932,-129.84 926,-129.84 920,-123.84 920,-117.84 920,-117.84 920,-105.84 920,-105.84 920,-99.84 926,-93.84 932,-93.84 932,-93.84 1040,-93.84 1040,-93.84 1046,-93.84 1052,-99.84 1052,-105.84 1052,-105.84 1052,-117.84 1052,-117.84 1052,-123.84 1046,-129.84 1040,-129.84"/>
<text text-anchor="middle" x="986" y="-109.04" font-family="Helvetica,sans-Serif" font-size="11.00">classification_system</text>
</g>
<!-- classification_system&#45;&gt;classification_code -->
<g id="edge2" class="edge">
<title>classification_system&#45;&gt;classification_code</title>
<path fill="none" stroke="#64748b" d="M1052.09,-111.84C1144.9,-111.84 1314.26,-111.84 1406.83,-111.84"/>
<polygon fill="#64748b" stroke="#64748b" points="1406.91,-114.29 1413.91,-111.84 1406.91,-109.39 1406.91,-114.29"/>
<text text-anchor="middle" x="1219.5" y="-114.44" font-family="Helvetica,sans-Serif" font-size="8.00">fk_classification_code_system</text>
</g>
<!-- confidence_level -->
<g id="node3" class="node">
<title>confidence_level</title>
<path fill="#f8fafc" stroke="#334155" d="M638.5,-1018.84C638.5,-1018.84 557.5,-1018.84 557.5,-1018.84 551.5,-1018.84 545.5,-1012.84 545.5,-1006.84 545.5,-1006.84 545.5,-994.84 545.5,-994.84 545.5,-988.84 551.5,-982.84 557.5,-982.84 557.5,-982.84 638.5,-982.84 638.5,-982.84 644.5,-982.84 650.5,-988.84 650.5,-994.84 650.5,-994.84 650.5,-1006.84 650.5,-1006.84 650.5,-1012.84 644.5,-1018.84 638.5,-1018.84"/>
<text text-anchor="middle" x="598" y="-998.04" font-family="Helvetica,sans-Serif" font-size="11.00">confidence_level</text>
</g>
<!-- confidence_level&#45;&gt;issuer_classification -->
<g id="edge3" class="edge">
<title>confidence_level&#45;&gt;issuer_classification</title>
<path fill="none" stroke="#64748b" d="M650.65,-988.48C845.23,-941.67 1533.48,-773.73 1743,-690.84 1762.75,-683.03 1783.7,-672.16 1800.8,-662.55"/>
<polygon fill="#64748b" stroke="#64748b" points="1802.05,-664.66 1806.92,-659.07 1799.62,-660.4 1802.05,-664.66"/>
<text text-anchor="middle" x="1219.5" y="-878.44" font-family="Helvetica,sans-Serif" font-size="8.00">fk_issuer_class_confidence</text>
</g>
<!-- issuer_identifier -->
<g id="node15" class="node">
<title>issuer_identifier</title>
<path fill="#f8fafc" stroke="#334155" d="M1025,-1314.84C1025,-1314.84 947,-1314.84 947,-1314.84 941,-1314.84 935,-1308.84 935,-1302.84 935,-1302.84 935,-1290.84 935,-1290.84 935,-1284.84 941,-1278.84 947,-1278.84 947,-1278.84 1025,-1278.84 1025,-1278.84 1031,-1278.84 1037,-1284.84 1037,-1290.84 1037,-1290.84 1037,-1302.84 1037,-1302.84 1037,-1308.84 1031,-1314.84 1025,-1314.84"/>
<text text-anchor="middle" x="986" y="-1294.04" font-family="Helvetica,sans-Serif" font-size="11.00">issuer_identifier</text>
</g>
<!-- confidence_level&#45;&gt;issuer_identifier -->
<g id="edge4" class="edge">
<title>confidence_level&#45;&gt;issuer_identifier</title>
<path fill="none" stroke="#64748b" d="M609.25,-1019.11C623.23,-1042.46 650.44,-1082.62 684,-1105.84 757.16,-1156.46 802.61,-1115.75 874,-1168.84 894.48,-1184.07 890.77,-1196.14 907,-1215.84 923.85,-1236.28 944.74,-1257.8 960.66,-1273.52"/>
<polygon fill="#64748b" stroke="#64748b" points="959.15,-1275.47 965.86,-1278.62 962.58,-1271.97 959.15,-1275.47"/>
<text text-anchor="middle" x="779" y="-1171.44" font-family="Helvetica,sans-Serif" font-size="8.00">fk_issuer_identifier_confidence</text>
</g>
<!-- issuer_name_history -->
<g id="node16" class="node">
<title>issuer_name_history</title>
<path fill="#f8fafc" stroke="#334155" d="M1037.5,-746.84C1037.5,-746.84 934.5,-746.84 934.5,-746.84 928.5,-746.84 922.5,-740.84 922.5,-734.84 922.5,-734.84 922.5,-722.84 922.5,-722.84 922.5,-716.84 928.5,-710.84 934.5,-710.84 934.5,-710.84 1037.5,-710.84 1037.5,-710.84 1043.5,-710.84 1049.5,-716.84 1049.5,-722.84 1049.5,-722.84 1049.5,-734.84 1049.5,-734.84 1049.5,-740.84 1043.5,-746.84 1037.5,-746.84"/>
<text text-anchor="middle" x="986" y="-726.04" font-family="Helvetica,sans-Serif" font-size="11.00">issuer_name_history</text>
</g>
<!-- confidence_level&#45;&gt;issuer_name_history -->
<g id="edge5" class="edge">
<title>confidence_level&#45;&gt;issuer_name_history</title>
<path fill="none" stroke="#64748b" d="M603.06,-982.81C611.72,-948.66 635.3,-874.52 684,-835.84 752.2,-781.67 792.73,-819.17 874,-787.84 900.32,-777.69 928.35,-762.75 949.66,-750.45"/>
<polygon fill="#64748b" stroke="#64748b" points="950.96,-752.53 955.77,-746.89 948.49,-748.3 950.96,-752.53"/>
<text text-anchor="middle" x="779" y="-838.44" font-family="Helvetica,sans-Serif" font-size="8.00">fk_issuer_name_confidence</text>
</g>
<!-- listing_symbol_history -->
<g id="node18" class="node">
<title>listing_symbol_history</title>
<path fill="#f8fafc" stroke="#334155" d="M1528.5,-994.84C1528.5,-994.84 1416.5,-994.84 1416.5,-994.84 1410.5,-994.84 1404.5,-988.84 1404.5,-982.84 1404.5,-982.84 1404.5,-970.84 1404.5,-970.84 1404.5,-964.84 1410.5,-958.84 1416.5,-958.84 1416.5,-958.84 1528.5,-958.84 1528.5,-958.84 1534.5,-958.84 1540.5,-964.84 1540.5,-970.84 1540.5,-970.84 1540.5,-982.84 1540.5,-982.84 1540.5,-988.84 1534.5,-994.84 1528.5,-994.84"/>
<text text-anchor="middle" x="1472.5" y="-974.04" font-family="Helvetica,sans-Serif" font-size="11.00">listing_symbol_history</text>
</g>
<!-- confidence_level&#45;&gt;listing_symbol_history -->
<g id="edge6" class="edge">
<title>confidence_level&#45;&gt;listing_symbol_history</title>
<path fill="none" stroke="#64748b" d="M650.64,-999.42C798.59,-995.35 1224.43,-983.64 1397.27,-978.88"/>
<polygon fill="#64748b" stroke="#64748b" points="1397.38,-981.33 1404.31,-978.69 1397.24,-976.43 1397.38,-981.33"/>
<text text-anchor="middle" x="986" y="-994.44" font-family="Helvetica,sans-Serif" font-size="8.00">fk_listing_symbol_confidence</text>
</g>
<!-- security_event -->
<g id="node25" class="node">
<title>security_event</title>
<path fill="#f8fafc" stroke="#334155" d="M1508.5,-1509.84C1508.5,-1509.84 1436.5,-1509.84 1436.5,-1509.84 1430.5,-1509.84 1424.5,-1503.84 1424.5,-1497.84 1424.5,-1497.84 1424.5,-1485.84 1424.5,-1485.84 1424.5,-1479.84 1430.5,-1473.84 1436.5,-1473.84 1436.5,-1473.84 1508.5,-1473.84 1508.5,-1473.84 1514.5,-1473.84 1520.5,-1479.84 1520.5,-1485.84 1520.5,-1485.84 1520.5,-1497.84 1520.5,-1497.84 1520.5,-1503.84 1514.5,-1509.84 1508.5,-1509.84"/>
<text text-anchor="middle" x="1472.5" y="-1489.04" font-family="Helvetica,sans-Serif" font-size="11.00">security_event</text>
</g>
<!-- confidence_level&#45;&gt;security_event -->
<g id="edge7" class="edge">
<title>confidence_level&#45;&gt;security_event</title>
<path fill="none" stroke="#64748b" d="M650.74,-1004.3C801.37,-1015.37 1235.62,-1054.49 1341,-1143.84 1441.97,-1229.45 1464.92,-1401.35 1470.05,-1466.25"/>
<polygon fill="#64748b" stroke="#64748b" points="1467.64,-1466.82 1470.59,-1473.62 1472.52,-1466.46 1467.64,-1466.82"/>
<text text-anchor="middle" x="986" y="-1054.44" font-family="Helvetica,sans-Serif" font-size="8.00">fk_security_event_confidence</text>
</g>
<!-- security_identifier -->
<g id="node26" class="node">
<title>security_identifier</title>
<path fill="#f8fafc" stroke="#334155" d="M1030.5,-1193.84C1030.5,-1193.84 941.5,-1193.84 941.5,-1193.84 935.5,-1193.84 929.5,-1187.84 929.5,-1181.84 929.5,-1181.84 929.5,-1169.84 929.5,-1169.84 929.5,-1163.84 935.5,-1157.84 941.5,-1157.84 941.5,-1157.84 1030.5,-1157.84 1030.5,-1157.84 1036.5,-1157.84 1042.5,-1163.84 1042.5,-1169.84 1042.5,-1169.84 1042.5,-1181.84 1042.5,-1181.84 1042.5,-1187.84 1036.5,-1193.84 1030.5,-1193.84"/>
<text text-anchor="middle" x="986" y="-1173.04" font-family="Helvetica,sans-Serif" font-size="11.00">security_identifier</text>
</g>
<!-- confidence_level&#45;&gt;security_identifier -->
<g id="edge8" class="edge">
<title>confidence_level&#45;&gt;security_identifier</title>
<path fill="none" stroke="#64748b" d="M626.78,-1019.03C642.94,-1028.97 664.02,-1040.84 684,-1048.84 764.86,-1081.21 794.94,-1060.29 874,-1096.84 905.53,-1111.42 937.42,-1135.27 958.88,-1152.96"/>
<polygon fill="#64748b" stroke="#64748b" points="957.43,-1154.94 964.37,-1157.54 960.57,-1151.18 957.43,-1154.94"/>
<text text-anchor="middle" x="779" y="-1099.44" font-family="Helvetica,sans-Serif" font-size="8.00">fk_security_identifier_confidence</text>
</g>
<!-- exchange -->
<g id="node4" class="node">
<title>exchange</title>
<path fill="#f8fafc" stroke="#334155" d="M619.5,-593.84C619.5,-593.84 576.5,-593.84 576.5,-593.84 570.5,-593.84 564.5,-587.84 564.5,-581.84 564.5,-581.84 564.5,-569.84 564.5,-569.84 564.5,-563.84 570.5,-557.84 576.5,-557.84 576.5,-557.84 619.5,-557.84 619.5,-557.84 625.5,-557.84 631.5,-563.84 631.5,-569.84 631.5,-569.84 631.5,-581.84 631.5,-581.84 631.5,-587.84 625.5,-593.84 619.5,-593.84"/>
<text text-anchor="middle" x="598" y="-573.04" font-family="Helvetica,sans-Serif" font-size="11.00">exchange</text>
</g>
<!-- exchange_alias -->
<g id="node5" class="node">
<title>exchange_alias</title>
<path fill="#f8fafc" stroke="#334155" d="M1023,-572.84C1023,-572.84 949,-572.84 949,-572.84 943,-572.84 937,-566.84 937,-560.84 937,-560.84 937,-548.84 937,-548.84 937,-542.84 943,-536.84 949,-536.84 949,-536.84 1023,-536.84 1023,-536.84 1029,-536.84 1035,-542.84 1035,-548.84 1035,-548.84 1035,-560.84 1035,-560.84 1035,-566.84 1029,-572.84 1023,-572.84"/>
<text text-anchor="middle" x="986" y="-552.04" font-family="Helvetica,sans-Serif" font-size="11.00">exchange_alias</text>
</g>
<!-- exchange&#45;&gt;exchange_alias -->
<g id="edge9" class="edge">
<title>exchange&#45;&gt;exchange_alias</title>
<path fill="none" stroke="#64748b" d="M631.69,-577.81C683.3,-580.47 786.77,-584.02 874,-575.84 892.36,-574.12 912.21,-570.83 929.97,-567.36"/>
<polygon fill="#64748b" stroke="#64748b" points="930.54,-569.74 936.93,-565.97 929.58,-564.93 930.54,-569.74"/>
<text text-anchor="middle" x="779" y="-583.44" font-family="Helvetica,sans-Serif" font-size="8.00">fk_exchange_alias_exchange</text>
</g>
<!-- listing -->
<g id="node17" class="node">
<title>listing</title>
<path fill="#f8fafc" stroke="#334155" d="M1001,-1596.84C1001,-1596.84 971,-1596.84 971,-1596.84 965,-1596.84 959,-1590.84 959,-1584.84 959,-1584.84 959,-1572.84 959,-1572.84 959,-1566.84 965,-1560.84 971,-1560.84 971,-1560.84 1001,-1560.84 1001,-1560.84 1007,-1560.84 1013,-1566.84 1013,-1572.84 1013,-1572.84 1013,-1584.84 1013,-1584.84 1013,-1590.84 1007,-1596.84 1001,-1596.84"/>
<text text-anchor="middle" x="986" y="-1576.04" font-family="Helvetica,sans-Serif" font-size="11.00">listing</text>
</g>
<!-- exchange&#45;&gt;listing -->
<g id="edge10" class="edge">
<title>exchange&#45;&gt;listing</title>
<path fill="none" stroke="#64748b" d="M607.86,-594.06C620,-619.98 641.38,-669.29 651,-713.84 662.9,-768.91 647.95,-1176.54 684,-1219.84 739.72,-1286.78 813.78,-1204.91 874,-1267.84 924.2,-1320.3 882.78,-1359.39 907,-1427.84 923.56,-1474.65 952.05,-1525.16 969.63,-1554.29"/>
<polygon fill="#64748b" stroke="#64748b" points="967.69,-1555.81 973.43,-1560.52 971.88,-1553.26 967.69,-1555.81"/>
<text text-anchor="middle" x="779" y="-1270.44" font-family="Helvetica,sans-Serif" font-size="8.00">fk_listing_exchange</text>
</g>
<!-- identifier_type -->
<g id="node6" class="node">
<title>identifier_type</title>
<path fill="#f8fafc" stroke="#334155" d="M632.5,-1235.84C632.5,-1235.84 563.5,-1235.84 563.5,-1235.84 557.5,-1235.84 551.5,-1229.84 551.5,-1223.84 551.5,-1223.84 551.5,-1211.84 551.5,-1211.84 551.5,-1205.84 557.5,-1199.84 563.5,-1199.84 563.5,-1199.84 632.5,-1199.84 632.5,-1199.84 638.5,-1199.84 644.5,-1205.84 644.5,-1211.84 644.5,-1211.84 644.5,-1223.84 644.5,-1223.84 644.5,-1229.84 638.5,-1235.84 632.5,-1235.84"/>
<text text-anchor="middle" x="598" y="-1215.04" font-family="Helvetica,sans-Serif" font-size="11.00">identifier_type</text>
</g>
<!-- identifier_type&#45;&gt;issuer_identifier -->
<g id="edge11" class="edge">
<title>identifier_type&#45;&gt;issuer_identifier</title>
<path fill="none" stroke="#64748b" d="M618.55,-1236.08C634.75,-1249.96 659.08,-1268.12 684,-1276.84 764.99,-1305.18 865.6,-1305.43 927.55,-1301.95"/>
<polygon fill="#64748b" stroke="#64748b" points="928.07,-1304.37 934.91,-1301.5 927.77,-1299.48 928.07,-1304.37"/>
<text text-anchor="middle" x="779" y="-1305.44" font-family="Helvetica,sans-Serif" font-size="8.00">fk_issuer_identifier_type</text>
</g>
<!-- identifier_type&#45;&gt;security_identifier -->
<g id="edge12" class="edge">
<title>identifier_type&#45;&gt;security_identifier</title>
<path fill="none" stroke="#64748b" d="M644.8,-1212.86C713.67,-1205.36 844.11,-1191.17 921.93,-1182.7"/>
<polygon fill="#64748b" stroke="#64748b" points="922.6,-1185.09 929.3,-1181.9 922.07,-1180.22 922.6,-1185.09"/>
<text text-anchor="middle" x="779" y="-1209.44" font-family="Helvetica,sans-Serif" font-size="8.00">fk_security_identifier_type</text>
</g>
<!-- instrument_class -->
<g id="node7" class="node">
<title>instrument_class</title>
<path fill="#f8fafc" stroke="#334155" d="M97.5,-1616.84C97.5,-1616.84 13.5,-1616.84 13.5,-1616.84 7.5,-1616.84 1.5,-1610.84 1.5,-1604.84 1.5,-1604.84 1.5,-1592.84 1.5,-1592.84 1.5,-1586.84 7.5,-1580.84 13.5,-1580.84 13.5,-1580.84 97.5,-1580.84 97.5,-1580.84 103.5,-1580.84 109.5,-1586.84 109.5,-1592.84 109.5,-1592.84 109.5,-1604.84 109.5,-1604.84 109.5,-1610.84 103.5,-1616.84 97.5,-1616.84"/>
<text text-anchor="middle" x="55.5" y="-1596.04" font-family="Helvetica,sans-Serif" font-size="11.00">instrument_class</text>
</g>
<!-- instrument_type -->
<g id="node8" class="node">
<title>instrument_type</title>
<path fill="#f8fafc" stroke="#334155" d="M381,-1616.84C381,-1616.84 300,-1616.84 300,-1616.84 294,-1616.84 288,-1610.84 288,-1604.84 288,-1604.84 288,-1592.84 288,-1592.84 288,-1586.84 294,-1580.84 300,-1580.84 300,-1580.84 381,-1580.84 381,-1580.84 387,-1580.84 393,-1586.84 393,-1592.84 393,-1592.84 393,-1604.84 393,-1604.84 393,-1610.84 387,-1616.84 381,-1616.84"/>
<text text-anchor="middle" x="340.5" y="-1596.04" font-family="Helvetica,sans-Serif" font-size="11.00">instrument_type</text>
</g>
<!-- instrument_class&#45;&gt;instrument_type -->
<g id="edge13" class="edge">
<title>instrument_class&#45;&gt;instrument_type</title>
<path fill="none" stroke="#64748b" d="M109.73,-1598.84C158.41,-1598.84 230.3,-1598.84 280.67,-1598.84"/>
<polygon fill="#64748b" stroke="#64748b" points="280.94,-1601.29 287.94,-1598.84 280.94,-1596.39 280.94,-1601.29"/>
<text text-anchor="middle" x="198" y="-1601.44" font-family="Helvetica,sans-Serif" font-size="8.00">fk_instrument_type_class</text>
</g>
<!-- security -->
<g id="node24" class="node">
<title>security</title>
<path fill="#f8fafc" stroke="#334155" d="M615.5,-1605.84C615.5,-1605.84 580.5,-1605.84 580.5,-1605.84 574.5,-1605.84 568.5,-1599.84 568.5,-1593.84 568.5,-1593.84 568.5,-1581.84 568.5,-1581.84 568.5,-1575.84 574.5,-1569.84 580.5,-1569.84 580.5,-1569.84 615.5,-1569.84 615.5,-1569.84 621.5,-1569.84 627.5,-1575.84 627.5,-1581.84 627.5,-1581.84 627.5,-1593.84 627.5,-1593.84 627.5,-1599.84 621.5,-1605.84 615.5,-1605.84"/>
<text text-anchor="middle" x="598" y="-1585.04" font-family="Helvetica,sans-Serif" font-size="11.00">security</text>
</g>
<!-- instrument_type&#45;&gt;security -->
<g id="edge14" class="edge">
<title>instrument_type&#45;&gt;security</title>
<path fill="none" stroke="#64748b" d="M393.2,-1596.61C443.21,-1594.46 517.65,-1591.26 561.36,-1589.37"/>
<polygon fill="#64748b" stroke="#64748b" points="561.48,-1591.82 568.37,-1589.07 561.27,-1586.93 561.48,-1591.82"/>
<text text-anchor="middle" x="470.5" y="-1597.44" font-family="Helvetica,sans-Serif" font-size="8.00">fk_security_type</text>
</g>
<!-- iso10383_mic -->
<g id="node9" class="node">
<title>iso10383_mic</title>
<path fill="#f8fafc" stroke="#334155" d="M373,-496.84C373,-496.84 308,-496.84 308,-496.84 302,-496.84 296,-490.84 296,-484.84 296,-484.84 296,-472.84 296,-472.84 296,-466.84 302,-460.84 308,-460.84 308,-460.84 373,-460.84 373,-460.84 379,-460.84 385,-466.84 385,-472.84 385,-472.84 385,-484.84 385,-484.84 385,-490.84 379,-496.84 373,-496.84"/>
<text text-anchor="middle" x="340.5" y="-476.04" font-family="Helvetica,sans-Serif" font-size="11.00">iso10383_mic</text>
</g>
<!-- iso10383_mic&#45;&gt;exchange -->
<g id="edge15" class="edge">
<title>iso10383_mic&#45;&gt;exchange</title>
<path fill="none" stroke="#64748b" d="M385.13,-495.4C433.63,-513.82 511.24,-543.28 557.85,-560.98"/>
<polygon fill="#64748b" stroke="#64748b" points="557.08,-563.3 564.49,-563.5 558.82,-558.72 557.08,-563.3"/>
<text text-anchor="middle" x="470.5" y="-543.44" font-family="Helvetica,sans-Serif" font-size="8.00">fk_exchange_mic</text>
</g>
<!-- iso10383_mic&#45;&gt;iso10383_mic -->
<g id="edge16" class="edge">
<title>iso10383_mic&#45;&gt;iso10383_mic</title>
<path fill="none" stroke="#64748b" d="M322.22,-496.95C310.03,-516.96 316.12,-539.84 340.5,-539.84 362.21,-539.84 369.42,-521.69 362.12,-503.59"/>
<polygon fill="#64748b" stroke="#64748b" points="364.12,-502.1 358.78,-496.95 359.74,-504.3 364.12,-502.1"/>
<text text-anchor="middle" x="340.5" y="-542.44" font-family="Helvetica,sans-Serif" font-size="8.00">fk_iso10383_mic_operating</text>
</g>
<!-- iso10383_mic_cat -->
<g id="node10" class="node">
<title>iso10383_mic_cat</title>
<path fill="#f8fafc" stroke="#334155" d="M99,-496.84C99,-496.84 12,-496.84 12,-496.84 6,-496.84 0,-490.84 0,-484.84 0,-484.84 0,-472.84 0,-472.84 0,-466.84 6,-460.84 12,-460.84 12,-460.84 99,-460.84 99,-460.84 105,-460.84 111,-466.84 111,-472.84 111,-472.84 111,-484.84 111,-484.84 111,-490.84 105,-496.84 99,-496.84"/>
<text text-anchor="middle" x="55.5" y="-476.04" font-family="Helvetica,sans-Serif" font-size="11.00">iso10383_mic_cat</text>
</g>
<!-- iso10383_mic_cat&#45;&gt;iso10383_mic -->
<g id="edge17" class="edge">
<title>iso10383_mic_cat&#45;&gt;iso10383_mic</title>
<path fill="none" stroke="#64748b" d="M111.07,-478.84C162.35,-478.84 238.51,-478.84 288.57,-478.84"/>
<polygon fill="#64748b" stroke="#64748b" points="288.77,-481.29 295.77,-478.84 288.77,-476.39 288.77,-481.29"/>
<text text-anchor="middle" x="198" y="-481.44" font-family="Helvetica,sans-Serif" font-size="8.00">fk_iso10383_mic_category</text>
</g>
<!-- iso3166_country -->
<g id="node11" class="node">
<title>iso3166_country</title>
<path fill="#f8fafc" stroke="#334155" d="M96,-627.84C96,-627.84 15,-627.84 15,-627.84 9,-627.84 3,-621.84 3,-615.84 3,-615.84 3,-603.84 3,-603.84 3,-597.84 9,-591.84 15,-591.84 15,-591.84 96,-591.84 96,-591.84 102,-591.84 108,-597.84 108,-603.84 108,-603.84 108,-615.84 108,-615.84 108,-621.84 102,-627.84 96,-627.84"/>
<text text-anchor="middle" x="55.5" y="-607.04" font-family="Helvetica,sans-Serif" font-size="11.00">iso3166_country</text>
</g>
<!-- iso3166_country&#45;&gt;exchange -->
<g id="edge18" class="edge">
<title>iso3166_country&#45;&gt;exchange</title>
<path fill="none" stroke="#64748b" d="M108.33,-606.58C215.84,-599.82 461.11,-584.39 557.27,-578.34"/>
<polygon fill="#64748b" stroke="#64748b" points="557.64,-580.77 564.48,-577.89 557.34,-575.88 557.64,-580.77"/>
<text text-anchor="middle" x="340.5" y="-597.44" font-family="Helvetica,sans-Serif" font-size="8.00">fk_exchange_country</text>
</g>
<!-- iso3166_country&#45;&gt;iso10383_mic -->
<g id="edge19" class="edge">
<title>iso3166_country&#45;&gt;iso10383_mic</title>
<path fill="none" stroke="#64748b" d="M94.81,-591.82C110.1,-584.65 127.87,-576.33 144,-568.84 195.1,-545.11 253.82,-518.11 293.46,-499.93"/>
<polygon fill="#64748b" stroke="#64748b" points="294.8,-502.01 300.15,-496.86 292.76,-497.55 294.8,-502.01"/>
<text text-anchor="middle" x="198" y="-571.44" font-family="Helvetica,sans-Serif" font-size="8.00">fk_iso10383_mic_country</text>
</g>
<!-- issuer -->
<g id="node13" class="node">
<title>issuer</title>
<path fill="#f8fafc" stroke="#334155" d="M355.5,-1346.84C355.5,-1346.84 325.5,-1346.84 325.5,-1346.84 319.5,-1346.84 313.5,-1340.84 313.5,-1334.84 313.5,-1334.84 313.5,-1322.84 313.5,-1322.84 313.5,-1316.84 319.5,-1310.84 325.5,-1310.84 325.5,-1310.84 355.5,-1310.84 355.5,-1310.84 361.5,-1310.84 367.5,-1316.84 367.5,-1322.84 367.5,-1322.84 367.5,-1334.84 367.5,-1334.84 367.5,-1340.84 361.5,-1346.84 355.5,-1346.84"/>
<text text-anchor="middle" x="340.5" y="-1326.04" font-family="Helvetica,sans-Serif" font-size="11.00">issuer</text>
</g>
<!-- iso3166_country&#45;&gt;issuer -->
<g id="edge20" class="edge">
<title>iso3166_country&#45;&gt;issuer</title>
<path fill="none" stroke="#64748b" d="M63.64,-627.97C102.18,-725.89 285.35,-1191.27 329.78,-1304.14"/>
<polygon fill="#64748b" stroke="#64748b" points="327.54,-1305.14 332.38,-1310.76 332.1,-1303.34 327.54,-1305.14"/>
<text text-anchor="middle" x="198" y="-1098.44" font-family="Helvetica,sans-Serif" font-size="8.00">fk_issuer_country</text>
</g>
<!-- iso4217_currency -->
<g id="node12" class="node">
<title>iso4217_currency</title>
<path fill="#f8fafc" stroke="#334155" d="M384,-1702.84C384,-1702.84 297,-1702.84 297,-1702.84 291,-1702.84 285,-1696.84 285,-1690.84 285,-1690.84 285,-1678.84 285,-1678.84 285,-1672.84 291,-1666.84 297,-1666.84 297,-1666.84 384,-1666.84 384,-1666.84 390,-1666.84 396,-1672.84 396,-1678.84 396,-1678.84 396,-1690.84 396,-1690.84 396,-1696.84 390,-1702.84 384,-1702.84"/>
<text text-anchor="middle" x="340.5" y="-1682.04" font-family="Helvetica,sans-Serif" font-size="11.00">iso4217_currency</text>
</g>
<!-- iso4217_currency&#45;&gt;listing -->
<g id="edge21" class="edge">
<title>iso4217_currency&#45;&gt;listing</title>
<path fill="none" stroke="#64748b" d="M396.12,-1679.58C429.63,-1676.14 473.37,-1671.3 512,-1665.84 673.63,-1643.01 713.88,-1635.56 874,-1603.84 900.23,-1598.64 929.75,-1591.95 951.75,-1586.8"/>
<polygon fill="#64748b" stroke="#64748b" points="952.36,-1589.17 958.62,-1585.19 951.24,-1584.4 952.36,-1589.17"/>
<text text-anchor="middle" x="598" y="-1662.44" font-family="Helvetica,sans-Serif" font-size="8.00">fk_listing_currency</text>
</g>
<!-- iso4217_currency&#45;&gt;security -->
<g id="edge22" class="edge">
<title>iso4217_currency&#45;&gt;security</title>
<path fill="none" stroke="#64748b" d="M388.96,-1666.82C439.06,-1647.8 516.87,-1618.26 561.78,-1601.21"/>
<polygon fill="#64748b" stroke="#64748b" points="562.75,-1603.46 568.43,-1598.69 561.01,-1598.88 562.75,-1603.46"/>
<text text-anchor="middle" x="470.5" y="-1652.44" font-family="Helvetica,sans-Serif" font-size="8.00">fk_security_currency</text>
</g>
<!-- issuer&#45;&gt;issuer_classification -->
<g id="edge23" class="edge">
<title>issuer&#45;&gt;issuer_classification</title>
<path fill="none" stroke="#64748b" d="M342.4,-1310.54C345.99,-1248.92 362.51,-1044.33 429,-891.84 480.02,-774.81 469.33,-658.84 597,-658.84 597,-658.84 597,-658.84 1473.5,-658.84 1576.43,-658.84 1695.56,-651.55 1768.59,-646.25"/>
<polygon fill="#64748b" stroke="#64748b" points="1769.14,-648.67 1775.95,-645.71 1768.79,-643.78 1769.14,-648.67"/>
<text text-anchor="middle" x="986" y="-661.44" font-family="Helvetica,sans-Serif" font-size="8.00">fk_issuer_class_issuer</text>
</g>
<!-- issuer&#45;&gt;issuer_identifier -->
<g id="edge24" class="edge">
<title>issuer&#45;&gt;issuer_identifier</title>
<path fill="none" stroke="#64748b" d="M367.67,-1330.41C445.26,-1334.67 680.72,-1344.62 874,-1321.84 891.59,-1319.77 910.49,-1316.08 927.6,-1312.16"/>
<polygon fill="#64748b" stroke="#64748b" points="928.57,-1314.45 934.82,-1310.47 927.45,-1309.68 928.57,-1314.45"/>
<text text-anchor="middle" x="598" y="-1338.44" font-family="Helvetica,sans-Serif" font-size="8.00">fk_issuer_identifier_issuer</text>
</g>
<!-- issuer&#45;&gt;issuer_name_history -->
<g id="edge25" class="edge">
<title>issuer&#45;&gt;issuer_name_history</title>
<path fill="none" stroke="#64748b" d="M345,-1310.83C362.58,-1226.02 449.81,-865.12 684,-733.84 755.04,-694.02 851.12,-700.82 915.43,-712.24"/>
<polygon fill="#64748b" stroke="#64748b" points="915.01,-714.66 922.33,-713.51 915.89,-709.84 915.01,-714.66"/>
<text text-anchor="middle" x="598" y="-855.44" font-family="Helvetica,sans-Serif" font-size="8.00">fk_issuer_name_issuer</text>
</g>
<!-- provider_evidence -->
<g id="node20" class="node">
<title>provider_evidence</title>
<path fill="#f8fafc" stroke="#334155" d="M1883.5,-1509.84C1883.5,-1509.84 1792.5,-1509.84 1792.5,-1509.84 1786.5,-1509.84 1780.5,-1503.84 1780.5,-1497.84 1780.5,-1497.84 1780.5,-1485.84 1780.5,-1485.84 1780.5,-1479.84 1786.5,-1473.84 1792.5,-1473.84 1792.5,-1473.84 1883.5,-1473.84 1883.5,-1473.84 1889.5,-1473.84 1895.5,-1479.84 1895.5,-1485.84 1895.5,-1485.84 1895.5,-1497.84 1895.5,-1497.84 1895.5,-1503.84 1889.5,-1509.84 1883.5,-1509.84"/>
<text text-anchor="middle" x="1838" y="-1489.04" font-family="Helvetica,sans-Serif" font-size="11.00">provider_evidence</text>
</g>
<!-- issuer&#45;&gt;provider_evidence -->
<g id="edge26" class="edge">
<title>issuer&#45;&gt;provider_evidence</title>
<path fill="none" stroke="#64748b" d="M367.54,-1342.49C384.56,-1350.73 407.52,-1360.63 429,-1365.84 923.67,-1485.87 1065.1,-1396.55 1571,-1452.84 1640.37,-1460.56 1719.46,-1472.57 1773.24,-1481.22"/>
<polygon fill="#64748b" stroke="#64748b" points="1773.03,-1483.67 1780.33,-1482.36 1773.81,-1478.83 1773.03,-1483.67"/>
<text text-anchor="middle" x="986" y="-1435.44" font-family="Helvetica,sans-Serif" font-size="8.00">fk_provider_evidence_issuer</text>
</g>
<!-- issuer&#45;&gt;security -->
<g id="edge27" class="edge">
<title>issuer&#45;&gt;security</title>
<path fill="none" stroke="#64748b" d="M347.14,-1346.91C358.18,-1379.86 385.45,-1450.39 429,-1494.84 467,-1533.62 524.64,-1560.7 561.56,-1575.27"/>
<polygon fill="#64748b" stroke="#64748b" points="560.79,-1577.6 568.2,-1577.84 562.56,-1573.03 560.79,-1577.6"/>
<text text-anchor="middle" x="470.5" y="-1553.44" font-family="Helvetica,sans-Serif" font-size="8.00">fk_security_issuer</text>
</g>
<!-- issuer&#45;&gt;security_event -->
<g id="edge28" class="edge">
<title>issuer&#45;&gt;security_event</title>
<path fill="none" stroke="#64748b" d="M350.36,-1347.03C363.59,-1371.92 391.09,-1415.69 429,-1434.84 517.45,-1479.51 1215.44,-1489.46 1417.11,-1491.41"/>
<polygon fill="#64748b" stroke="#64748b" points="1417.34,-1493.86 1424.36,-1491.48 1417.38,-1488.96 1417.34,-1493.86"/>
<text text-anchor="middle" x="779" y="-1480.44" font-family="Helvetica,sans-Serif" font-size="8.00">fk_security_event_issuer</text>
</g>
<!-- listing&#45;&gt;listing_symbol_history -->
<g id="edge29" class="edge">
<title>listing&#45;&gt;listing_symbol_history</title>
<path fill="none" stroke="#64748b" d="M1001.5,-1560.82C1071.36,-1474.03 1373.06,-1099.16 1452.35,-1000.63"/>
<polygon fill="#64748b" stroke="#64748b" points="1454.34,-1002.07 1456.82,-995.08 1450.52,-999 1454.34,-1002.07"/>
<text text-anchor="middle" x="1219.5" y="-1435.44" font-family="Helvetica,sans-Serif" font-size="8.00">fk_listing_symbol_listing</text>
</g>
<!-- listing&#45;&gt;provider_evidence -->
<g id="edge30" class="edge">
<title>listing&#45;&gt;provider_evidence</title>
<path fill="none" stroke="#64748b" d="M1013.26,-1579.25C1072.07,-1579.93 1218.8,-1580.32 1341,-1569.84 1520.92,-1554.41 1565.1,-1541.85 1743,-1510.84 1752.86,-1509.12 1763.28,-1507.16 1773.44,-1505.17"/>
<polygon fill="#64748b" stroke="#64748b" points="1774.03,-1507.55 1780.43,-1503.79 1773.08,-1502.74 1774.03,-1507.55"/>
<text text-anchor="middle" x="1472.5" y="-1568.44" font-family="Helvetica,sans-Serif" font-size="8.00">fk_provider_evidence_listing</text>
</g>
<!-- listing&#45;&gt;security_event -->
<g id="edge31" class="edge">
<title>listing&#45;&gt;security_event</title>
<path fill="none" stroke="#64748b" d="M1013.05,-1574.16C1089.33,-1560.46 1313.36,-1520.24 1417.34,-1501.56"/>
<polygon fill="#64748b" stroke="#64748b" points="1417.86,-1503.96 1424.31,-1500.31 1416.99,-1499.14 1417.86,-1503.96"/>
<text text-anchor="middle" x="1219.5" y="-1559.44" font-family="Helvetica,sans-Serif" font-size="8.00">fk_security_event_listing</text>
</g>
<!-- provider -->
<g id="node19" class="node">
<title>provider</title>
<path fill="#f8fafc" stroke="#334155" d="M616,-432.84C616,-432.84 580,-432.84 580,-432.84 574,-432.84 568,-426.84 568,-420.84 568,-420.84 568,-408.84 568,-408.84 568,-402.84 574,-396.84 580,-396.84 580,-396.84 616,-396.84 616,-396.84 622,-396.84 628,-402.84 628,-408.84 628,-408.84 628,-420.84 628,-420.84 628,-426.84 622,-432.84 616,-432.84"/>
<text text-anchor="middle" x="598" y="-412.04" font-family="Helvetica,sans-Serif" font-size="11.00">provider</text>
</g>
<!-- provider&#45;&gt;classification_system -->
<g id="edge32" class="edge">
<title>provider&#45;&gt;classification_system</title>
<path fill="none" stroke="#64748b" d="M599.64,-396.75C602.25,-351.63 615.64,-233.49 684,-173.84 746.93,-118.93 845.46,-107.99 912.51,-107.78"/>
<polygon fill="#64748b" stroke="#64748b" points="912.7,-110.23 919.71,-107.8 912.71,-105.33 912.7,-110.23"/>
<text text-anchor="middle" x="779" y="-176.44" font-family="Helvetica,sans-Serif" font-size="8.00">fk_classification_system_provider</text>
</g>
<!-- provider&#45;&gt;exchange_alias -->
<g id="edge33" class="edge">
<title>provider&#45;&gt;exchange_alias</title>
<path fill="none" stroke="#64748b" d="M627.21,-432.85C643.34,-442.52 664.24,-454.03 684,-461.84 765,-493.84 791.22,-482.75 874,-509.84 895.31,-516.81 918.35,-525.89 937.9,-534.07"/>
<polygon fill="#64748b" stroke="#64748b" points="936.98,-536.34 944.38,-536.8 938.88,-531.83 936.98,-536.34"/>
<text text-anchor="middle" x="779" y="-512.44" font-family="Helvetica,sans-Serif" font-size="8.00">fk_exchange_alias_provider</text>
</g>
<!-- provider&#45;&gt;issuer_classification -->
<g id="edge34" class="edge">
<title>provider&#45;&gt;issuer_classification</title>
<path fill="none" stroke="#64748b" d="M601.25,-396.69C609.2,-335.73 637.96,-139.9 684,-99.84 812.79,12.22 1193.2,40.32 1571,-71.84 1658.45,-97.8 1691.62,-108.46 1743,-183.84 1792.15,-255.96 1825.16,-530.49 1834.38,-615.56"/>
<polygon fill="#64748b" stroke="#64748b" points="1831.96,-616.03 1835.15,-622.73 1836.84,-615.51 1831.96,-616.03"/>
<text text-anchor="middle" x="1219.5" y="-22.44" font-family="Helvetica,sans-Serif" font-size="8.00">fk_issuer_class_provider</text>
</g>
<!-- provider&#45;&gt;issuer_identifier -->
<g id="edge35" class="edge">
<title>provider&#45;&gt;issuer_identifier</title>
<path fill="none" stroke="#64748b" d="M608.69,-432.84C620.74,-456.13 640.96,-498.29 651,-536.84 685.7,-670.07 623.78,-721.04 684,-844.84 735.56,-950.83 818.83,-925.69 874,-1029.84 913.3,-1104.03 868.9,-1141.03 907,-1215.84 918.54,-1238.5 938.54,-1259.08 955.39,-1273.82"/>
<polygon fill="#64748b" stroke="#64748b" points="954.06,-1275.9 960.97,-1278.59 957.24,-1272.18 954.06,-1275.9"/>
<text text-anchor="middle" x="779" y="-1032.44" font-family="Helvetica,sans-Serif" font-size="8.00">fk_issuer_identifier_provider</text>
</g>
<!-- provider&#45;&gt;issuer_name_history -->
<g id="edge36" class="edge">
<title>provider&#45;&gt;issuer_name_history</title>
<path fill="none" stroke="#64748b" d="M608.8,-432.91C622.49,-456.38 649.57,-496.94 684,-518.84 757.49,-565.58 811.15,-506.54 874,-566.84 911.14,-602.47 876.25,-636.57 907,-677.84 915.72,-689.55 927.99,-699.34 940.21,-707.11"/>
<polygon fill="#64748b" stroke="#64748b" points="938.94,-709.2 946.2,-710.76 941.5,-705.02 938.94,-709.2"/>
<text text-anchor="middle" x="779" y="-569.44" font-family="Helvetica,sans-Serif" font-size="8.00">fk_issuer_name_provider</text>
</g>
<!-- provider&#45;&gt;listing_symbol_history -->
<g id="edge37" class="edge">
<title>provider&#45;&gt;listing_symbol_history</title>
<path fill="none" stroke="#64748b" d="M628.09,-407.59C704.21,-390.21 913.85,-352.58 1065,-422.84 1301.43,-532.74 1430.45,-858.78 1463.13,-951.8"/>
<polygon fill="#64748b" stroke="#64748b" points="1460.88,-952.78 1465.49,-958.59 1465.5,-951.18 1460.88,-952.78"/>
<text text-anchor="middle" x="986" y="-425.44" font-family="Helvetica,sans-Serif" font-size="8.00">fk_listing_symbol_provider</text>
</g>
<!-- provider_observation -->
<g id="node21" class="node">
<title>provider_observation</title>
<path fill="#f8fafc" stroke="#334155" d="M1526,-312.84C1526,-312.84 1419,-312.84 1419,-312.84 1413,-312.84 1407,-306.84 1407,-300.84 1407,-300.84 1407,-288.84 1407,-288.84 1407,-282.84 1413,-276.84 1419,-276.84 1419,-276.84 1526,-276.84 1526,-276.84 1532,-276.84 1538,-282.84 1538,-288.84 1538,-288.84 1538,-300.84 1538,-300.84 1538,-306.84 1532,-312.84 1526,-312.84"/>
<text text-anchor="middle" x="1472.5" y="-292.04" font-family="Helvetica,sans-Serif" font-size="11.00">provider_observation</text>
</g>
<!-- provider&#45;&gt;provider_observation -->
<g id="edge38" class="edge">
<title>provider&#45;&gt;provider_observation</title>
<path fill="none" stroke="#64748b" d="M620.18,-396.59C636.5,-383.57 660.24,-366.84 684,-357.84 933.26,-263.39 1257.92,-276.03 1399.84,-287.61"/>
<polygon fill="#64748b" stroke="#64748b" points="1399.69,-290.05 1406.87,-288.19 1400.1,-285.17 1399.69,-290.05"/>
<text text-anchor="middle" x="986" y="-301.44" font-family="Helvetica,sans-Serif" font-size="8.00">fk_provider_observation_provider</text>
</g>
<!-- provider_source_snapshot -->
<g id="node22" class="node">
<title>provider_source_snapshot</title>
<path fill="#f8fafc" stroke="#334155" d="M1053,-208.84C1053,-208.84 919,-208.84 919,-208.84 913,-208.84 907,-202.84 907,-196.84 907,-196.84 907,-184.84 907,-184.84 907,-178.84 913,-172.84 919,-172.84 919,-172.84 1053,-172.84 1053,-172.84 1059,-172.84 1065,-178.84 1065,-184.84 1065,-184.84 1065,-196.84 1065,-196.84 1065,-202.84 1059,-208.84 1053,-208.84"/>
<text text-anchor="middle" x="986" y="-188.04" font-family="Helvetica,sans-Serif" font-size="11.00">provider_source_snapshot</text>
</g>
<!-- provider&#45;&gt;provider_source_snapshot -->
<g id="edge39" class="edge">
<title>provider&#45;&gt;provider_source_snapshot</title>
<path fill="none" stroke="#64748b" d="M603.13,-396.79C611.83,-363.04 635.4,-290.45 684,-253.84 746.02,-207.11 834.73,-193.14 899.78,-189.8"/>
<polygon fill="#64748b" stroke="#64748b" points="899.92,-192.24 906.8,-189.47 899.69,-187.35 899.92,-192.24"/>
<text text-anchor="middle" x="779" y="-256.44" font-family="Helvetica,sans-Serif" font-size="8.00">provider_source_snapshot_provider_code_fkey</text>
</g>
<!-- provider&#45;&gt;security_event -->
<g id="edge40" class="edge">
<title>provider&#45;&gt;security_event</title>
<path fill="none" stroke="#64748b" d="M628.06,-416.19C720.61,-421.12 1005.88,-441.47 1065,-506.84 1107.47,-553.8 1071.38,-732.39 1098,-789.84 1164.49,-933.35 1262.5,-912.53 1341,-1049.84 1423.76,-1194.6 1458.26,-1396.6 1468.23,-1466.7"/>
<polygon fill="#64748b" stroke="#64748b" points="1465.83,-1467.23 1469.22,-1473.83 1470.68,-1466.56 1465.83,-1467.23"/>
<text text-anchor="middle" x="986" y="-509.44" font-family="Helvetica,sans-Serif" font-size="8.00">fk_security_event_provider</text>
</g>
<!-- provider&#45;&gt;security_identifier -->
<g id="edge41" class="edge">
<title>provider&#45;&gt;security_identifier</title>
<path fill="none" stroke="#64748b" d="M606.93,-433.15C625.99,-476.95 673.51,-585.24 684,-599.84 751.69,-694.06 822.46,-674.9 874,-778.84 935.94,-903.77 849.64,-963.74 907,-1090.84 917.95,-1115.11 938.57,-1137.1 955.86,-1152.63"/>
<polygon fill="#64748b" stroke="#64748b" points="954.7,-1154.87 961.58,-1157.65 957.93,-1151.19 954.7,-1154.87"/>
<text text-anchor="middle" x="779" y="-781.44" font-family="Helvetica,sans-Serif" font-size="8.00">fk_security_identifier_provider</text>
</g>
<!-- provider_observation&#45;&gt;provider_evidence -->
<g id="edge42" class="edge">
<title>provider_observation&#45;&gt;provider_evidence</title>
<path fill="none" stroke="#64748b" d="M1479.06,-313.16C1520.52,-449.68 1780.95,-1307.28 1829.29,-1466.44"/>
<polygon fill="#64748b" stroke="#64748b" points="1827.05,-1467.5 1831.43,-1473.48 1831.74,-1466.07 1827.05,-1467.5"/>
<text text-anchor="middle" x="1673.5" y="-1172.44" font-family="Helvetica,sans-Serif" font-size="8.00">fk_provider_evidence_observation</text>
</g>
<!-- provider_source_snapshot&#45;&gt;provider_observation -->
<g id="edge43" class="edge">
<title>provider_source_snapshot&#45;&gt;provider_observation</title>
<path fill="none" stroke="#64748b" d="M1065.25,-202.26C1137.35,-213.42 1247.08,-232.04 1341,-254.84 1364.06,-260.44 1389.05,-267.78 1410.93,-274.64"/>
<polygon fill="#64748b" stroke="#64748b" points="1410.2,-276.98 1417.61,-276.75 1411.67,-272.3 1410.2,-276.98"/>
<text text-anchor="middle" x="1219.5" y="-257.44" font-family="Helvetica,sans-Serif" font-size="8.00">provider_observation_source_snapshot_id_fkey</text>
</g>
<!-- provider_source_snapshot_object -->
<g id="node23" class="node">
<title>provider_source_snapshot_object</title>
<path fill="#f8fafc" stroke="#334155" d="M1559,-208.84C1559,-208.84 1386,-208.84 1386,-208.84 1380,-208.84 1374,-202.84 1374,-196.84 1374,-196.84 1374,-184.84 1374,-184.84 1374,-178.84 1380,-172.84 1386,-172.84 1386,-172.84 1559,-172.84 1559,-172.84 1565,-172.84 1571,-178.84 1571,-184.84 1571,-184.84 1571,-196.84 1571,-196.84 1571,-202.84 1565,-208.84 1559,-208.84"/>
<text text-anchor="middle" x="1472.5" y="-188.04" font-family="Helvetica,sans-Serif" font-size="11.00">provider_source_snapshot_object</text>
</g>
<!-- provider_source_snapshot&#45;&gt;provider_source_snapshot_object -->
<g id="edge44" class="edge">
<title>provider_source_snapshot&#45;&gt;provider_source_snapshot_object</title>
<path fill="none" stroke="#64748b" d="M1065.11,-190.84C1147.02,-190.84 1276.2,-190.84 1366.88,-190.84"/>
<polygon fill="#64748b" stroke="#64748b" points="1366.89,-193.29 1373.89,-190.84 1366.89,-188.39 1366.89,-193.29"/>
<text text-anchor="middle" x="1219.5" y="-193.44" font-family="Helvetica,sans-Serif" font-size="8.00">provider_source_snapshot_object_source_snapshot_id_fkey</text>
</g>
<!-- security&#45;&gt;listing -->
<g id="edge45" class="edge">
<title>security&#45;&gt;listing</title>
<path fill="none" stroke="#64748b" d="M627.7,-1587.17C697.71,-1585.54 877.01,-1581.36 951.63,-1579.62"/>
<polygon fill="#64748b" stroke="#64748b" points="952,-1582.06 958.94,-1579.45 951.89,-1577.16 952,-1582.06"/>
<text text-anchor="middle" x="779" y="-1587.44" font-family="Helvetica,sans-Serif" font-size="8.00">fk_listing_security</text>
</g>
<!-- security&#45;&gt;provider_evidence -->
<g id="edge46" class="edge">
<title>security&#45;&gt;provider_evidence</title>
<path fill="none" stroke="#64748b" d="M618.74,-1605.98C641.36,-1626.58 676.33,-1657.76 684,-1660.84 776.11,-1697.81 807.78,-1670.17 907,-1672.84 1282.1,-1682.92 1398.17,-1702.81 1743,-1554.84 1767.01,-1544.54 1791.43,-1527.94 1809.37,-1514.37"/>
<polygon fill="#64748b" stroke="#64748b" points="1811.13,-1516.1 1815.19,-1509.89 1808.15,-1512.22 1811.13,-1516.1"/>
<text text-anchor="middle" x="1219.5" y="-1681.44" font-family="Helvetica,sans-Serif" font-size="8.00">fk_provider_evidence_security</text>
</g>
<!-- security&#45;&gt;security_event -->
<g id="edge47" class="edge">
<title>security&#45;&gt;security_event</title>
<path fill="none" stroke="#64748b" d="M627.64,-1596.79C732.3,-1627.69 1100.51,-1720.3 1341,-1575.84 1361.95,-1563.25 1354.66,-1546.79 1374,-1531.84 1386.8,-1521.94 1402.4,-1514.1 1417.33,-1508.09"/>
<polygon fill="#64748b" stroke="#64748b" points="1418.49,-1510.27 1424.13,-1505.45 1416.71,-1505.7 1418.49,-1510.27"/>
<text text-anchor="middle" x="986" y="-1656.44" font-family="Helvetica,sans-Serif" font-size="8.00">fk_security_event_security</text>
</g>
<!-- security&#45;&gt;security_identifier -->
<g id="edge48" class="edge">
<title>security&#45;&gt;security_identifier</title>
<path fill="none" stroke="#64748b" d="M627.67,-1579.11C697.28,-1557.84 869.89,-1504.74 874,-1499.84 943.79,-1416.7 859.98,-1355.68 907,-1257.84 918.16,-1234.61 938.36,-1213.66 955.41,-1198.75"/>
<polygon fill="#64748b" stroke="#64748b" points="957.32,-1200.34 961.05,-1193.93 954.14,-1196.61 957.32,-1200.34"/>
<text text-anchor="middle" x="779" y="-1563.44" font-family="Helvetica,sans-Serif" font-size="8.00">fk_security_identifier_security</text>
</g>
<!-- security_event&#45;&gt;provider_evidence -->
<g id="edge49" class="edge">
<title>security_event&#45;&gt;provider_evidence</title>
<path fill="none" stroke="#64748b" d="M1520.65,-1491.84C1585.09,-1491.84 1700.9,-1491.84 1773.1,-1491.84"/>
<polygon fill="#64748b" stroke="#64748b" points="1773.38,-1494.29 1780.38,-1491.84 1773.38,-1489.39 1773.38,-1494.29"/>
<text text-anchor="middle" x="1673.5" y="-1494.44" font-family="Helvetica,sans-Serif" font-size="8.00">fk_provider_evidence_event</text>
</g>
</g>
</svg>
