<?xml version="1.0" encoding="UTF-8" standalone="no"?>
<!DOCTYPE svg PUBLIC "-//W3C//DTD SVG 1.1//EN"
 "http://www.w3.org/Graphics/SVG/1.1/DTD/svg11.dtd">
<!-- Generated by graphviz version 2.42.4 (0)
 -->
<!-- Title: schema_relations Pages: 1 -->
<svg width="1661pt" height="1662pt"
 viewBox="0.00 0.00 1661.00 1662.00" xmlns="http://www.w3.org/2000/svg" xmlns:xlink="http://www.w3.org/1999/xlink">
<g id="graph0" class="graph" transform="scale(1 1) rotate(0) translate(18 1644)">
<title>schema_relations</title>
<!-- classification_code -->
<g id="node1" class="node">
<title>classification_code</title>
<path fill="#f8fafc" stroke="#334155" d="M1298,-1124C1298,-1124 1205,-1124 1205,-1124 1199,-1124 1193,-1118 1193,-1112 1193,-1112 1193,-1100 1193,-1100 1193,-1094 1199,-1088 1205,-1088 1205,-1088 1298,-1088 1298,-1088 1304,-1088 1310,-1094 1310,-1100 1310,-1100 1310,-1112 1310,-1112 1310,-1118 1304,-1124 1298,-1124"/>
<text text-anchor="middle" x="1251.5" y="-1103.2" font-family="Helvetica,sans-Serif" font-size="11.00">classification_code</text>
</g>
<!-- issuer_classification -->
<g id="node14" class="node">
<title>issuer_classification</title>
<path fill="#f8fafc" stroke="#334155" d="M1613,-1397C1613,-1397 1513,-1397 1513,-1397 1507,-1397 1501,-1391 1501,-1385 1501,-1385 1501,-1373 1501,-1373 1501,-1367 1507,-1361 1513,-1361 1513,-1361 1613,-1361 1613,-1361 1619,-1361 1625,-1367 1625,-1373 1625,-1373 1625,-1385 1625,-1385 1625,-1391 1619,-1397 1613,-1397"/>
<text text-anchor="middle" x="1563" y="-1376.2" font-family="Helvetica,sans-Serif" font-size="11.00">issuer_classification</text>
</g>
<!-- classification_code&#45;&gt;issuer_classification -->
<g id="edge1" class="edge">
<title>classification_code&#45;&gt;issuer_classification</title>
<path fill="none" stroke="#64748b" d="M1284.33,-1124.08C1328.45,-1150.05 1409.38,-1200.98 1468,-1257 1499.68,-1287.27 1529.31,-1328.78 1546.54,-1354.73"/>
<polygon fill="#64748b" stroke="#64748b" points="1544.55,-1356.16 1550.44,-1360.66 1548.64,-1353.46 1544.55,-1356.16"/>
<text text-anchor="middle" x="1411" y="-1259.6" font-family="Helvetica,sans-Serif" font-size="8.00">fk_issuer_class_code</text>
</g>
<!-- classification_system -->
<g id="node2" class="node">
<title>classification_system</title>
<path fill="#f8fafc" stroke="#334155" d="M973,-1088C973,-1088 865,-1088 865,-1088 859,-1088 853,-1082 853,-1076 853,-1076 853,-1064 853,-1064 853,-1058 859,-1052 865,-1052 865,-1052 973,-1052 973,-1052 979,-1052 985,-1058 985,-1064 985,-1064 985,-1076 985,-1076 985,-1082 979,-1088 973,-1088"/>
<text text-anchor="middle" x="919" y="-1067.2" font-family="Helvetica,sans-Serif" font-size="11.00">classification_system</text>
</g>
<!-- classification_system&#45;&gt;classification_code -->
<g id="edge2" class="edge">
<title>classification_system&#45;&gt;classification_code</title>
<path fill="none" stroke="#64748b" d="M985.3,-1077.11C1043.3,-1083.43 1127.61,-1092.61 1185.52,-1098.92"/>
<polygon fill="#64748b" stroke="#64748b" points="1185.57,-1101.39 1192.8,-1099.71 1186.1,-1096.52 1185.57,-1101.39"/>
<text text-anchor="middle" x="1083.5" y="-1096.6" font-family="Helvetica,sans-Serif" font-size="8.00">fk_classification_code_system</text>
</g>
<!-- confidence_level -->
<g id="node3" class="node">
<title>confidence_level</title>
<path fill="#f8fafc" stroke="#334155" d="M638.5,-1248C638.5,-1248 557.5,-1248 557.5,-1248 551.5,-1248 545.5,-1242 545.5,-1236 545.5,-1236 545.5,-1224 545.5,-1224 545.5,-1218 551.5,-1212 557.5,-1212 557.5,-1212 638.5,-1212 638.5,-1212 644.5,-1212 650.5,-1218 650.5,-1224 650.5,-1224 650.5,-1236 650.5,-1236 650.5,-1242 644.5,-1248 638.5,-1248"/>
<text text-anchor="middle" x="598" y="-1227.2" font-family="Helvetica,sans-Serif" font-size="11.00">confidence_level</text>
</g>
<!-- confidence_level&#45;&gt;issuer_classification -->
<g id="edge3" class="edge">
<title>confidence_level&#45;&gt;issuer_classification</title>
<path fill="none" stroke="#64748b" d="M635.46,-1248.15C640.97,-1251.69 646.35,-1255.66 651,-1260 670.2,-1277.91 661.33,-1295.75 684,-1309 948.8,-1463.73 1337.61,-1418.98 1493.57,-1392.34"/>
<polygon fill="#64748b" stroke="#64748b" points="1494.34,-1394.69 1500.82,-1391.09 1493.51,-1389.87 1494.34,-1394.69"/>
<text text-anchor="middle" x="1083.5" y="-1421.6" font-family="Helvetica,sans-Serif" font-size="8.00">fk_issuer_class_confidence</text>
</g>
<!-- issuer_identifier -->
<g id="node15" class="node">
<title>issuer_identifier</title>
<path fill="#f8fafc" stroke="#334155" d="M958,-637C958,-637 880,-637 880,-637 874,-637 868,-631 868,-625 868,-625 868,-613 868,-613 868,-607 874,-601 880,-601 880,-601 958,-601 958,-601 964,-601 970,-607 970,-613 970,-613 970,-625 970,-625 970,-631 964,-637 958,-637"/>
<text text-anchor="middle" x="919" y="-616.2" font-family="Helvetica,sans-Serif" font-size="11.00">issuer_identifier</text>
</g>
<!-- confidence_level&#45;&gt;issuer_identifier -->
<g id="edge4" class="edge">
<title>confidence_level&#45;&gt;issuer_identifier</title>
<path fill="none" stroke="#64748b" d="M611.09,-1211.9C626.41,-1189.81 654.38,-1152.04 684,-1125 737.71,-1075.96 782.87,-1096.54 820,-1034 902.92,-894.32 775.41,-812.71 853,-670 859.19,-658.62 869.09,-648.93 879.33,-641.14"/>
<polygon fill="#64748b" stroke="#64748b" points="880.79,-643.11 885.02,-637.02 877.92,-639.14 880.79,-643.11"/>
<text text-anchor="middle" x="752" y="-1127.6" font-family="Helvetica,sans-Serif" font-size="8.00">fk_issuer_identifier_confidence</text>
</g>
<!-- issuer_name_history -->
<g id="node16" class="node">
<title>issuer_name_history</title>
<path fill="#f8fafc" stroke="#334155" d="M970.5,-1254C970.5,-1254 867.5,-1254 867.5,-1254 861.5,-1254 855.5,-1248 855.5,-1242 855.5,-1242 855.5,-1230 855.5,-1230 855.5,-1224 861.5,-1218 867.5,-1218 867.5,-1218 970.5,-1218 970.5,-1218 976.5,-1218 982.5,-1224 982.5,-1230 982.5,-1230 982.5,-1242 982.5,-1242 982.5,-1248 976.5,-1254 970.5,-1254"/>
<text text-anchor="middle" x="919" y="-1233.2" font-family="Helvetica,sans-Serif" font-size="11.00">issuer_name_history</text>
</g>
<!-- confidence_level&#45;&gt;issuer_name_history -->
<g id="edge5" class="edge">
<title>confidence_level&#45;&gt;issuer_name_history</title>
<path fill="none" stroke="#64748b" d="M650.93,-1241.36C661.8,-1243.29 673.24,-1245 684,-1246 739.07,-1251.14 801.68,-1247.99 848.27,-1243.92"/>
<polygon fill="#64748b" stroke="#64748b" points="848.56,-1246.35 855.31,-1243.28 848.12,-1241.47 848.56,-1246.35"/>
<text text-anchor="middle" x="752" y="-1250.6" font-family="Helvetica,sans-Serif" font-size="8.00">fk_issuer_name_confidence</text>
</g>
<!-- listing_symbol_history -->
<g id="node18" class="node">
<title>listing_symbol_history</title>
<path fill="#f8fafc" stroke="#334155" d="M1307.5,-923C1307.5,-923 1195.5,-923 1195.5,-923 1189.5,-923 1183.5,-917 1183.5,-911 1183.5,-911 1183.5,-899 1183.5,-899 1183.5,-893 1189.5,-887 1195.5,-887 1195.5,-887 1307.5,-887 1307.5,-887 1313.5,-887 1319.5,-893 1319.5,-899 1319.5,-899 1319.5,-911 1319.5,-911 1319.5,-917 1313.5,-923 1307.5,-923"/>
<text text-anchor="middle" x="1251.5" y="-902.2" font-family="Helvetica,sans-Serif" font-size="11.00">listing_symbol_history</text>
</g>
<!-- confidence_level&#45;&gt;listing_symbol_history -->
<g id="edge6" class="edge">
<title>confidence_level&#45;&gt;listing_symbol_history</title>
<path fill="none" stroke="#64748b" d="M632.77,-1248.02C647.99,-1255.26 666.46,-1262.86 684,-1267 784.63,-1290.76 1074.94,-1323.15 1149,-1251 1208.51,-1193.03 1158.34,-1146.64 1182,-1067 1196.94,-1016.72 1222.67,-960.97 1237.99,-929.74"/>
<polygon fill="#64748b" stroke="#64748b" points="1240.19,-930.82 1241.09,-923.45 1235.79,-928.65 1240.19,-930.82"/>
<text text-anchor="middle" x="919" y="-1297.6" font-family="Helvetica,sans-Serif" font-size="8.00">fk_listing_symbol_confidence</text>
</g>
<!-- security_event -->
<g id="node23" class="node">
<title>security_event</title>
<path fill="#f8fafc" stroke="#334155" d="M1287.5,-374C1287.5,-374 1215.5,-374 1215.5,-374 1209.5,-374 1203.5,-368 1203.5,-362 1203.5,-362 1203.5,-350 1203.5,-350 1203.5,-344 1209.5,-338 1215.5,-338 1215.5,-338 1287.5,-338 1287.5,-338 1293.5,-338 1299.5,-344 1299.5,-350 1299.5,-350 1299.5,-362 1299.5,-362 1299.5,-368 1293.5,-374 1287.5,-374"/>
<text text-anchor="middle" x="1251.5" y="-353.2" font-family="Helvetica,sans-Serif" font-size="11.00">security_event</text>
</g>
<!-- confidence_level&#45;&gt;security_event -->
<g id="edge7" class="edge">
<title>confidence_level&#45;&gt;security_event</title>
<path fill="none" stroke="#64748b" d="M638.16,-1211.95C652.51,-1205.48 668.92,-1198.25 684,-1192 743.78,-1167.23 776.41,-1187.83 820,-1140 856.69,-1099.75 821.15,-1066.17 853,-1022 945.85,-893.21 1063.83,-955.99 1149,-822 1199.68,-742.27 1162.43,-704.43 1182,-612 1200.14,-526.34 1229.17,-426.55 1242.87,-380.99"/>
<polygon fill="#64748b" stroke="#64748b" points="1245.25,-381.56 1244.93,-374.15 1240.56,-380.15 1245.25,-381.56"/>
<text text-anchor="middle" x="919" y="-1024.6" font-family="Helvetica,sans-Serif" font-size="8.00">fk_security_event_confidence</text>
</g>
<!-- security_identifier -->
<g id="node24" class="node">
<title>security_identifier</title>
<path fill="#f8fafc" stroke="#334155" d="M963.5,-479C963.5,-479 874.5,-479 874.5,-479 868.5,-479 862.5,-473 862.5,-467 862.5,-467 862.5,-455 862.5,-455 862.5,-449 868.5,-443 874.5,-443 874.5,-443 963.5,-443 963.5,-443 969.5,-443 975.5,-449 975.5,-455 975.5,-455 975.5,-467 975.5,-467 975.5,-473 969.5,-479 963.5,-479"/>
<text text-anchor="middle" x="919" y="-458.2" font-family="Helvetica,sans-Serif" font-size="11.00">security_identifier</text>
</g>
<!-- confidence_level&#45;&gt;security_identifier -->
<g id="edge8" class="edge">
<title>confidence_level&#45;&gt;security_identifier</title>
<path fill="none" stroke="#64748b" d="M600.93,-1211.68C606.52,-1166.28 626.14,-1046.54 684,-968 727.88,-908.43 783.08,-936.12 820,-872 902.6,-728.54 765.92,-641.79 853,-501 857.22,-494.18 863.07,-488.36 869.55,-483.43"/>
<polygon fill="#64748b" stroke="#64748b" points="871.32,-485.18 875.65,-479.16 868.51,-481.17 871.32,-485.18"/>
<text text-anchor="middle" x="752" y="-970.6" font-family="Helvetica,sans-Serif" font-size="8.00">fk_security_identifier_confidence</text>
</g>
<!-- exchange -->
<g id="node4" class="node">
<title>exchange</title>
<path fill="#f8fafc" stroke="#334155" d="M619.5,-283C619.5,-283 576.5,-283 576.5,-283 570.5,-283 564.5,-277 564.5,-271 564.5,-271 564.5,-259 564.5,-259 564.5,-253 570.5,-247 576.5,-247 576.5,-247 619.5,-247 619.5,-247 625.5,-247 631.5,-253 631.5,-259 631.5,-259 631.5,-271 631.5,-271 631.5,-277 625.5,-283 619.5,-283"/>
<text text-anchor="middle" x="598" y="-262.2" font-family="Helvetica,sans-Serif" font-size="11.00">exchange</text>
</g>
<!-- exchange_alias -->
<g id="node5" class="node">
<title>exchange_alias</title>
<path fill="#f8fafc" stroke="#334155" d="M956,-558C956,-558 882,-558 882,-558 876,-558 870,-552 870,-546 870,-546 870,-534 870,-534 870,-528 876,-522 882,-522 882,-522 956,-522 956,-522 962,-522 968,-528 968,-534 968,-534 968,-546 968,-546 968,-552 962,-558 956,-558"/>
<text text-anchor="middle" x="919" y="-537.2" font-family="Helvetica,sans-Serif" font-size="11.00">exchange_alias</text>
</g>
<!-- exchange&#45;&gt;exchange_alias -->
<g id="edge9" class="edge">
<title>exchange&#45;&gt;exchange_alias</title>
<path fill="none" stroke="#64748b" d="M611,-283.34C626,-305.2 653.47,-341.8 684,-366 737.11,-408.11 772.21,-386.93 820,-435 843.12,-458.26 830.72,-476.94 853,-501 858.87,-507.34 866,-512.99 873.36,-517.89"/>
<polygon fill="#64748b" stroke="#64748b" points="872.35,-520.15 879.57,-521.83 874.97,-516.01 872.35,-520.15"/>
<text text-anchor="middle" x="752" y="-437.6" font-family="Helvetica,sans-Serif" font-size="8.00">fk_exchange_alias_exchange</text>
</g>
<!-- listing -->
<g id="node17" class="node">
<title>listing</title>
<path fill="#f8fafc" stroke="#334155" d="M934,-248C934,-248 904,-248 904,-248 898,-248 892,-242 892,-236 892,-236 892,-224 892,-224 892,-218 898,-212 904,-212 904,-212 934,-212 934,-212 940,-212 946,-218 946,-224 946,-224 946,-236 946,-236 946,-242 940,-248 934,-248"/>
<text text-anchor="middle" x="919" y="-227.2" font-family="Helvetica,sans-Serif" font-size="11.00">listing</text>
</g>
<!-- exchange&#45;&gt;listing -->
<g id="edge10" class="edge">
<title>exchange&#45;&gt;listing</title>
<path fill="none" stroke="#64748b" d="M631.78,-254.9C647.44,-250.49 666.53,-245.72 684,-243 754.84,-231.98 839.01,-229.97 884.61,-229.79"/>
<polygon fill="#64748b" stroke="#64748b" points="884.86,-232.24 891.85,-229.77 884.85,-227.34 884.86,-232.24"/>
<text text-anchor="middle" x="752" y="-245.6" font-family="Helvetica,sans-Serif" font-size="8.00">fk_listing_exchange</text>
</g>
<!-- identifier_type -->
<g id="node6" class="node">
<title>identifier_type</title>
<path fill="#f8fafc" stroke="#334155" d="M632.5,-540C632.5,-540 563.5,-540 563.5,-540 557.5,-540 551.5,-534 551.5,-528 551.5,-528 551.5,-516 551.5,-516 551.5,-510 557.5,-504 563.5,-504 563.5,-504 632.5,-504 632.5,-504 638.5,-504 644.5,-510 644.5,-516 644.5,-516 644.5,-528 644.5,-528 644.5,-534 638.5,-540 632.5,-540"/>
<text text-anchor="middle" x="598" y="-519.2" font-family="Helvetica,sans-Serif" font-size="11.00">identifier_type</text>
</g>
<!-- identifier_type&#45;&gt;issuer_identifier -->
<g id="edge11" class="edge">
<title>identifier_type&#45;&gt;issuer_identifier</title>
<path fill="none" stroke="#64748b" d="M614.48,-540.29C630.12,-557.36 655.91,-581.97 684,-594 740.74,-618.3 812,-622.62 860.89,-622.09"/>
<polygon fill="#64748b" stroke="#64748b" points="860.97,-624.54 867.93,-621.98 860.89,-619.64 860.97,-624.54"/>
<text text-anchor="middle" x="752" y="-623.6" font-family="Helvetica,sans-Serif" font-size="8.00">fk_issuer_identifier_type</text>
</g>
<!-- identifier_type&#45;&gt;security_identifier -->
<g id="edge12" class="edge">
<title>identifier_type&#45;&gt;security_identifier</title>
<path fill="none" stroke="#64748b" d="M622.03,-503.83C638.33,-492.11 661.25,-477.83 684,-471 740.12,-454.16 807.21,-453.11 855.13,-455.41"/>
<polygon fill="#64748b" stroke="#64748b" points="855.23,-457.87 862.35,-455.79 855.49,-452.97 855.23,-457.87"/>
<text text-anchor="middle" x="752" y="-473.6" font-family="Helvetica,sans-Serif" font-size="8.00">fk_security_identifier_type</text>
</g>
<!-- instrument_class -->
<g id="node7" class="node">
<title>instrument_class</title>
<path fill="#f8fafc" stroke="#334155" d="M97.5,-36C97.5,-36 13.5,-36 13.5,-36 7.5,-36 1.5,-30 1.5,-24 1.5,-24 1.5,-12 1.5,-12 1.5,-6 7.5,0 13.5,0 13.5,0 97.5,0 97.5,0 103.5,0 109.5,-6 109.5,-12 109.5,-12 109.5,-24 109.5,-24 109.5,-30 103.5,-36 97.5,-36"/>
<text text-anchor="middle" x="55.5" y="-15.2" font-family="Helvetica,sans-Serif" font-size="11.00">instrument_class</text>
</g>
<!-- instrument_type -->
<g id="node8" class="node">
<title>instrument_type</title>
<path fill="#f8fafc" stroke="#334155" d="M381,-36C381,-36 300,-36 300,-36 294,-36 288,-30 288,-24 288,-24 288,-12 288,-12 288,-6 294,0 300,0 300,0 381,0 381,0 387,0 393,-6 393,-12 393,-12 393,-24 393,-24 393,-30 387,-36 381,-36"/>
<text text-anchor="middle" x="340.5" y="-15.2" font-family="Helvetica,sans-Serif" font-size="11.00">instrument_type</text>
</g>
<!-- instrument_class&#45;&gt;instrument_type -->
<g id="edge13" class="edge">
<title>instrument_class&#45;&gt;instrument_type</title>
<path fill="none" stroke="#64748b" d="M109.73,-18C158.41,-18 230.3,-18 280.67,-18"/>
<polygon fill="#64748b" stroke="#64748b" points="280.94,-20.45 287.94,-18 280.94,-15.55 280.94,-20.45"/>
<text text-anchor="middle" x="198" y="-20.6" font-family="Helvetica,sans-Serif" font-size="8.00">fk_instrument_type_class</text>
</g>
<!-- security -->
<g id="node22" class="node">
<title>security</title>
<path fill="#f8fafc" stroke="#334155" d="M615.5,-86C615.5,-86 580.5,-86 580.5,-86 574.5,-86 568.5,-80 568.5,-74 568.5,-74 568.5,-62 568.5,-62 568.5,-56 574.5,-50 580.5,-50 580.5,-50 615.5,-50 615.5,-50 621.5,-50 627.5,-56 627.5,-62 627.5,-62 627.5,-74 627.5,-74 627.5,-80 621.5,-86 615.5,-86"/>
<text text-anchor="middle" x="598" y="-65.2" font-family="Helvetica,sans-Serif" font-size="11.00">security</text>
</g>
<!-- instrument_type&#45;&gt;security -->
<g id="edge14" class="edge">
<title>instrument_type&#45;&gt;security</title>
<path fill="none" stroke="#64748b" d="M393.2,-28.12C443.21,-37.9 517.65,-52.47 561.36,-61.03"/>
<polygon fill="#64748b" stroke="#64748b" points="561.02,-63.46 568.37,-62.4 561.97,-58.65 561.02,-63.46"/>
<text text-anchor="middle" x="470.5" y="-53.6" font-family="Helvetica,sans-Serif" font-size="8.00">fk_security_type</text>
</g>
<!-- iso10383_mic -->
<g id="node9" class="node">
<title>iso10383_mic</title>
<path fill="#f8fafc" stroke="#334155" d="M373,-194C373,-194 308,-194 308,-194 302,-194 296,-188 296,-182 296,-182 296,-170 296,-170 296,-164 302,-158 308,-158 308,-158 373,-158 373,-158 379,-158 385,-164 385,-170 385,-170 385,-182 385,-182 385,-188 379,-194 373,-194"/>
<text text-anchor="middle" x="340.5" y="-173.2" font-family="Helvetica,sans-Serif" font-size="11.00">iso10383_mic</text>
</g>
<!-- iso10383_mic&#45;&gt;exchange -->
<g id="edge15" class="edge">
<title>iso10383_mic&#45;&gt;exchange</title>
<path fill="none" stroke="#64748b" d="M385.13,-191.2C433.63,-208.09 511.24,-235.13 557.85,-251.36"/>
<polygon fill="#64748b" stroke="#64748b" points="557.08,-253.69 564.49,-253.68 558.69,-249.06 557.08,-253.69"/>
<text text-anchor="middle" x="470.5" y="-235.6" font-family="Helvetica,sans-Serif" font-size="8.00">fk_exchange_mic</text>
</g>
<!-- iso10383_mic&#45;&gt;iso10383_mic -->
<g id="edge16" class="edge">
<title>iso10383_mic&#45;&gt;iso10383_mic</title>
<path fill="none" stroke="#64748b" d="M322.22,-194.11C310.03,-214.12 316.12,-237 340.5,-237 362.21,-237 369.42,-218.86 362.12,-200.75"/>
<polygon fill="#64748b" stroke="#64748b" points="364.12,-199.26 358.78,-194.11 359.74,-201.46 364.12,-199.26"/>
<text text-anchor="middle" x="340.5" y="-239.6" font-family="Helvetica,sans-Serif" font-size="8.00">fk_iso10383_mic_operating</text>
</g>
<!-- iso10383_mic_cat -->
<g id="node10" class="node">
<title>iso10383_mic_cat</title>
<path fill="#f8fafc" stroke="#334155" d="M99,-194C99,-194 12,-194 12,-194 6,-194 0,-188 0,-182 0,-182 0,-170 0,-170 0,-164 6,-158 12,-158 12,-158 99,-158 99,-158 105,-158 111,-164 111,-170 111,-170 111,-182 111,-182 111,-188 105,-194 99,-194"/>
<text text-anchor="middle" x="55.5" y="-173.2" font-family="Helvetica,sans-Serif" font-size="11.00">iso10383_mic_cat</text>
</g>
<!-- iso10383_mic_cat&#45;&gt;iso10383_mic -->
<g id="edge17" class="edge">
<title>iso10383_mic_cat&#45;&gt;iso10383_mic</title>
<path fill="none" stroke="#64748b" d="M111.07,-176C162.35,-176 238.51,-176 288.57,-176"/>
<polygon fill="#64748b" stroke="#64748b" points="288.77,-178.45 295.77,-176 288.77,-173.55 288.77,-178.45"/>
<text text-anchor="middle" x="198" y="-178.6" font-family="Helvetica,sans-Serif" font-size="8.00">fk_iso10383_mic_category</text>
</g>
<!-- iso3166_country -->
<g id="node11" class="node">
<title>iso3166_country</title>
<path fill="#f8fafc" stroke="#334155" d="M96,-325C96,-325 15,-325 15,-325 9,-325 3,-319 3,-313 3,-313 3,-301 3,-301 3,-295 9,-289 15,-289 15,-289 96,-289 96,-289 102,-289 108,-295 108,-301 108,-301 108,-313 108,-313 108,-319 102,-325 96,-325"/>
<text text-anchor="middle" x="55.5" y="-304.2" font-family="Helvetica,sans-Serif" font-size="11.00">iso3166_country</text>
</g>
<!-- iso3166_country&#45;&gt;exchange -->
<g id="edge18" class="edge">
<title>iso3166_country&#45;&gt;exchange</title>
<path fill="none" stroke="#64748b" d="M108.33,-302.97C215.84,-294.62 461.11,-275.56 557.27,-268.09"/>
<polygon fill="#64748b" stroke="#64748b" points="557.69,-270.51 564.48,-267.53 557.31,-265.63 557.69,-270.51"/>
<text text-anchor="middle" x="340.5" y="-290.6" font-family="Helvetica,sans-Serif" font-size="8.00">fk_exchange_country</text>
</g>
<!-- iso3166_country&#45;&gt;iso10383_mic -->
<g id="edge19" class="edge">
<title>iso3166_country&#45;&gt;iso10383_mic</title>
<path fill="none" stroke="#64748b" d="M94.81,-288.98C110.1,-281.81 127.87,-273.49 144,-266 195.1,-242.27 253.82,-215.27 293.46,-197.09"/>
<polygon fill="#64748b" stroke="#64748b" points="294.8,-199.17 300.15,-194.02 292.76,-194.71 294.8,-199.17"/>
<text text-anchor="middle" x="198" y="-268.6" font-family="Helvetica,sans-Serif" font-size="8.00">fk_iso10383_mic_country</text>
</g>
<!-- issuer -->
<g id="node13" class="node">
<title>issuer</title>
<path fill="#f8fafc" stroke="#334155" d="M355.5,-695C355.5,-695 325.5,-695 325.5,-695 319.5,-695 313.5,-689 313.5,-683 313.5,-683 313.5,-671 313.5,-671 313.5,-665 319.5,-659 325.5,-659 325.5,-659 355.5,-659 355.5,-659 361.5,-659 367.5,-665 367.5,-671 367.5,-671 367.5,-683 367.5,-683 367.5,-689 361.5,-695 355.5,-695"/>
<text text-anchor="middle" x="340.5" y="-674.2" font-family="Helvetica,sans-Serif" font-size="11.00">issuer</text>
</g>
<!-- iso3166_country&#45;&gt;issuer -->
<g id="edge20" class="edge">
<title>iso3166_country&#45;&gt;issuer</title>
<path fill="none" stroke="#64748b" d="M70.34,-325.1C116.98,-386.08 268.44,-584.09 321.18,-653.05"/>
<polygon fill="#64748b" stroke="#64748b" points="319.49,-654.87 325.69,-658.94 323.38,-651.89 319.49,-654.87"/>
<text text-anchor="middle" x="198" y="-559.6" font-family="Helvetica,sans-Serif" font-size="8.00">fk_issuer_country</text>
</g>
<!-- iso4217_currency -->
<g id="node12" class="node">
<title>iso4217_currency</title>
<path fill="#f8fafc" stroke="#334155" d="M384,-115C384,-115 297,-115 297,-115 291,-115 285,-109 285,-103 285,-103 285,-91 285,-91 285,-85 291,-79 297,-79 297,-79 384,-79 384,-79 390,-79 396,-85 396,-91 396,-91 396,-103 396,-103 396,-109 390,-115 384,-115"/>
<text text-anchor="middle" x="340.5" y="-94.2" font-family="Helvetica,sans-Serif" font-size="11.00">iso4217_currency</text>
</g>
<!-- iso4217_currency&#45;&gt;listing -->
<g id="edge21" class="edge">
<title>iso4217_currency&#45;&gt;listing</title>
<path fill="none" stroke="#64748b" d="M368.33,-115.19C385.09,-125.73 407.5,-138.39 429,-146 514.27,-176.19 788.77,-213.38 884.61,-225.77"/>
<polygon fill="#64748b" stroke="#64748b" points="884.47,-228.22 891.73,-226.68 885.1,-223.36 884.47,-228.22"/>
<text text-anchor="middle" x="598" y="-193.6" font-family="Helvetica,sans-Serif" font-size="8.00">fk_listing_currency</text>
</g>
<!-- iso4217_currency&#45;&gt;security -->
<g id="edge22" class="edge">
<title>iso4217_currency&#45;&gt;security</title>
<path fill="none" stroke="#64748b" d="M396.38,-84.51C407.15,-82.4 418.39,-80.43 429,-79 474.24,-72.89 526.81,-70.14 560.93,-68.93"/>
<polygon fill="#64748b" stroke="#64748b" points="561.43,-71.36 568.34,-68.68 561.27,-66.47 561.43,-71.36"/>
<text text-anchor="middle" x="470.5" y="-81.6" font-family="Helvetica,sans-Serif" font-size="8.00">fk_security_currency</text>
</g>
<!-- issuer&#45;&gt;issuer_classification -->
<g id="edge23" class="edge">
<title>issuer&#45;&gt;issuer_classification</title>
<path fill="none" stroke="#64748b" d="M342.39,-695.36C349.2,-826.58 398.5,-1617 597,-1617 597,-1617 597,-1617 1252.5,-1617 1391.76,-1617 1506.83,-1463.72 1546.85,-1403.18"/>
<polygon fill="#64748b" stroke="#64748b" points="1548.93,-1404.48 1550.7,-1397.28 1544.82,-1401.8 1548.93,-1404.48"/>
<text text-anchor="middle" x="919" y="-1619.6" font-family="Helvetica,sans-Serif" font-size="8.00">fk_issuer_class_issuer</text>
</g>
<!-- issuer&#45;&gt;issuer_identifier -->
<g id="edge24" class="edge">
<title>issuer&#45;&gt;issuer_identifier</title>
<path fill="none" stroke="#64748b" d="M367.57,-676.21C439.8,-673.76 648.49,-664.89 820,-640 833.34,-638.06 847.59,-635.37 860.97,-632.57"/>
<polygon fill="#64748b" stroke="#64748b" points="861.54,-634.95 867.87,-631.09 860.52,-630.16 861.54,-634.95"/>
<text text-anchor="middle" x="598" y="-669.6" font-family="Helvetica,sans-Serif" font-size="8.00">fk_issuer_identifier_issuer</text>
</g>
<!-- issuer&#45;&gt;issuer_name_history -->
<g id="edge25" class="edge">
<title>issuer&#45;&gt;issuer_name_history</title>
<path fill="none" stroke="#64748b" d="M340.95,-695.28C339.56,-779.01 346.14,-1128 545,-1270 644.53,-1341.07 799.14,-1289.36 874.18,-1256.92"/>
<polygon fill="#64748b" stroke="#64748b" points="875.32,-1259.09 880.75,-1254.04 873.35,-1254.61 875.32,-1259.09"/>
<text text-anchor="middle" x="598" y="-1306.6" font-family="Helvetica,sans-Serif" font-size="8.00">fk_issuer_name_issuer</text>
</g>
<!-- provider_evidence -->
<g id="node20" class="node">
<title>provider_evidence</title>
<path fill="#f8fafc" stroke="#334155" d="M1608.5,-374C1608.5,-374 1517.5,-374 1517.5,-374 1511.5,-374 1505.5,-368 1505.5,-362 1505.5,-362 1505.5,-350 1505.5,-350 1505.5,-344 1511.5,-338 1517.5,-338 1517.5,-338 1608.5,-338 1608.5,-338 1614.5,-338 1620.5,-344 1620.5,-350 1620.5,-350 1620.5,-362 1620.5,-362 1620.5,-368 1614.5,-374 1608.5,-374"/>
<text text-anchor="middle" x="1563" y="-353.2" font-family="Helvetica,sans-Serif" font-size="11.00">provider_evidence</text>
</g>
<!-- issuer&#45;&gt;provider_evidence -->
<g id="edge26" class="edge">
<title>issuer&#45;&gt;provider_evidence</title>
<path fill="none" stroke="#64748b" d="M342.77,-695.13C348.87,-778.73 377.04,-1126.9 429,-1221 584.68,-1502.94 852.78,-1429.43 1149,-1303 1525.43,-1142.33 1558.93,-515.69 1561.76,-381.42"/>
<polygon fill="#64748b" stroke="#64748b" points="1564.22,-381.38 1561.89,-374.34 1559.32,-381.29 1564.22,-381.38"/>
<text text-anchor="middle" x="919" y="-1404.6" font-family="Helvetica,sans-Serif" font-size="8.00">fk_provider_evidence_issuer</text>
</g>
<!-- issuer&#45;&gt;security -->
<g id="edge27" class="edge">
<title>issuer&#45;&gt;security</title>
<path fill="none" stroke="#64748b" d="M344.33,-658.99C357.88,-573.12 415.99,-208.57 429,-188 460.96,-137.45 522.62,-101.82 561.69,-83.13"/>
<polygon fill="#64748b" stroke="#64748b" points="562.94,-85.25 568.24,-80.06 560.86,-80.82 562.94,-85.25"/>
<text text-anchor="middle" x="470.5" y="-190.6" font-family="Helvetica,sans-Serif" font-size="8.00">fk_security_issuer</text>
</g>
<!-- issuer&#45;&gt;security_event -->
<g id="edge28" class="edge">
<title>issuer&#45;&gt;security_event</title>
<path fill="none" stroke="#64748b" d="M353.29,-658.65C391.98,-600.38 521.96,-419.68 684,-357 776.18,-321.34 1072.83,-341.06 1196.05,-351.18"/>
<polygon fill="#64748b" stroke="#64748b" points="1196.02,-353.64 1203.2,-351.77 1196.43,-348.75 1196.02,-353.64"/>
<text text-anchor="middle" x="752" y="-359.6" font-family="Helvetica,sans-Serif" font-size="8.00">fk_security_event_issuer</text>
</g>
<!-- listing&#45;&gt;listing_symbol_history -->
<g id="edge29" class="edge">
<title>listing&#45;&gt;listing_symbol_history</title>
<path fill="none" stroke="#64748b" d="M928.84,-248.05C974.74,-341.8 1185.79,-772.85 1238.53,-880.56"/>
<polygon fill="#64748b" stroke="#64748b" points="1236.35,-881.68 1241.63,-886.89 1240.75,-879.53 1236.35,-881.68"/>
<text text-anchor="middle" x="1083.5" y="-688.6" font-family="Helvetica,sans-Serif" font-size="8.00">fk_listing_symbol_listing</text>
</g>
<!-- listing&#45;&gt;provider_evidence -->
<g id="edge30" class="edge">
<title>listing&#45;&gt;provider_evidence</title>
<path fill="none" stroke="#64748b" d="M946.26,-231.74C988.99,-234.83 1076.13,-242.17 1149,-255 1274.08,-277.02 1417.59,-315.07 1498.25,-337.65"/>
<polygon fill="#64748b" stroke="#64748b" points="1497.98,-340.12 1505.38,-339.65 1499.3,-335.4 1497.98,-340.12"/>
<text text-anchor="middle" x="1251.5" y="-293.6" font-family="Helvetica,sans-Serif" font-size="8.00">fk_provider_evidence_listing</text>
</g>
<!-- listing&#45;&gt;security_event -->
<g id="edge31" class="edge">
<title>listing&#45;&gt;security_event</title>
<path fill="none" stroke="#64748b" d="M946.19,-239.45C988.83,-254.89 1075.85,-286.66 1149,-315 1165.59,-321.43 1183.62,-328.64 1199.82,-335.2"/>
<polygon fill="#64748b" stroke="#64748b" points="1199.24,-337.61 1206.64,-337.97 1201.08,-333.06 1199.24,-337.61"/>
<text text-anchor="middle" x="1083.5" y="-317.6" font-family="Helvetica,sans-Serif" font-size="8.00">fk_security_event_listing</text>
</g>
<!-- provider -->
<g id="node19" class="node">
<title>provider</title>
<path fill="#f8fafc" stroke="#334155" d="M616,-871C616,-871 580,-871 580,-871 574,-871 568,-865 568,-859 568,-859 568,-847 568,-847 568,-841 574,-835 580,-835 580,-835 616,-835 616,-835 622,-835 628,-841 628,-847 628,-847 628,-859 628,-859 628,-865 622,-871 616,-871"/>
<text text-anchor="middle" x="598" y="-850.2" font-family="Helvetica,sans-Serif" font-size="11.00">provider</text>
</g>
<!-- provider&#45;&gt;classification_system -->
<g id="edge32" class="edge">
<title>provider&#45;&gt;classification_system</title>
<path fill="none" stroke="#64748b" d="M606.96,-871.29C619.55,-898.16 646.52,-948.24 684,-977 734.85,-1016.03 760.59,-1000.93 820,-1025 837.92,-1032.26 857.34,-1040.99 874.12,-1048.82"/>
<polygon fill="#64748b" stroke="#64748b" points="873.28,-1051.13 880.66,-1051.88 875.36,-1046.69 873.28,-1051.13"/>
<text text-anchor="middle" x="752" y="-1027.6" font-family="Helvetica,sans-Serif" font-size="8.00">fk_classification_system_provider</text>
</g>
<!-- provider&#45;&gt;exchange_alias -->
<g id="edge33" class="edge">
<title>provider&#45;&gt;exchange_alias</title>
<path fill="none" stroke="#64748b" d="M605.27,-834.69C615.23,-805.46 635.16,-746.4 651,-696 666.43,-646.9 645.85,-619.55 684,-585 709.67,-561.75 801.87,-549.66 862.58,-544.08"/>
<polygon fill="#64748b" stroke="#64748b" points="863.07,-546.5 869.83,-543.43 862.64,-541.62 863.07,-546.5"/>
<text text-anchor="middle" x="752" y="-587.6" font-family="Helvetica,sans-Serif" font-size="8.00">fk_exchange_alias_provider</text>
</g>
<!-- provider&#45;&gt;issuer_classification -->
<g id="edge34" class="edge">
<title>provider&#45;&gt;issuer_classification</title>
<path fill="none" stroke="#64748b" d="M600.19,-871.06C604.06,-915.05 620.05,-1028.69 684,-1091 699.31,-1105.92 1298.2,-1295.78 1497.93,-1358.81"/>
<polygon fill="#64748b" stroke="#64748b" points="1497.45,-1361.23 1504.86,-1361 1498.92,-1356.56 1497.45,-1361.23"/>
<text text-anchor="middle" x="1083.5" y="-1246.6" font-family="Helvetica,sans-Serif" font-size="8.00">fk_issuer_class_provider</text>
</g>
<!-- provider&#45;&gt;issuer_identifier -->
<g id="edge35" class="edge">
<title>provider&#45;&gt;issuer_identifier</title>
<path fill="none" stroke="#64748b" d="M609.32,-834.83C623.38,-811.59 650.66,-771.54 684,-748 736.36,-711.03 764.97,-732.88 820,-700 837.02,-689.83 837.86,-682.79 853,-670 864.38,-660.38 877.23,-650.17 888.48,-641.43"/>
<polygon fill="#64748b" stroke="#64748b" points="890.16,-643.23 894.2,-637.01 887.17,-639.35 890.16,-643.23"/>
<text text-anchor="middle" x="752" y="-750.6" font-family="Helvetica,sans-Serif" font-size="8.00">fk_issuer_identifier_provider</text>
</g>
<!-- provider&#45;&gt;issuer_name_history -->
<g id="edge36" class="edge">
<title>provider&#45;&gt;issuer_name_history</title>
<path fill="none" stroke="#64748b" d="M598.87,-871.34C599.5,-922.31 608.24,-1067.22 684,-1149 726.78,-1195.17 796.33,-1216.96 848.51,-1227.17"/>
<polygon fill="#64748b" stroke="#64748b" points="848.09,-1229.58 855.43,-1228.47 849,-1224.77 848.09,-1229.58"/>
<text text-anchor="middle" x="752" y="-1222.6" font-family="Helvetica,sans-Serif" font-size="8.00">fk_issuer_name_provider</text>
</g>
<!-- provider&#45;&gt;listing_symbol_history -->
<g id="edge37" class="edge">
<title>provider&#45;&gt;listing_symbol_history</title>
<path fill="none" stroke="#64748b" d="M628.26,-855.34C724.5,-863.02 1033.23,-887.66 1176.35,-899.08"/>
<polygon fill="#64748b" stroke="#64748b" points="1176.29,-901.53 1183.46,-899.65 1176.68,-896.65 1176.29,-901.53"/>
<text text-anchor="middle" x="919" y="-885.6" font-family="Helvetica,sans-Serif" font-size="8.00">fk_listing_symbol_provider</text>
</g>
<!-- provider_observation -->
<g id="node21" class="node">
<title>provider_observation</title>
<path fill="#f8fafc" stroke="#334155" d="M1137,-800C1137,-800 1030,-800 1030,-800 1024,-800 1018,-794 1018,-788 1018,-788 1018,-776 1018,-776 1018,-770 1024,-764 1030,-764 1030,-764 1137,-764 1137,-764 1143,-764 1149,-770 1149,-776 1149,-776 1149,-788 1149,-788 1149,-794 1143,-800 1137,-800"/>
<text text-anchor="middle" x="1083.5" y="-779.2" font-family="Helvetica,sans-Serif" font-size="11.00">provider_observation</text>
</g>
<!-- provider&#45;&gt;provider_observation -->
<g id="edge38" class="edge">
<title>provider&#45;&gt;provider_observation</title>
<path fill="none" stroke="#64748b" d="M628.16,-848.72C702.87,-837.75 902.9,-808.37 1010.93,-792.51"/>
<polygon fill="#64748b" stroke="#64748b" points="1011.34,-794.93 1017.91,-791.48 1010.63,-790.08 1011.34,-794.93"/>
<text text-anchor="middle" x="752" y="-842.6" font-family="Helvetica,sans-Serif" font-size="8.00">fk_provider_observation_provider</text>
</g>
<!-- provider&#45;&gt;security_event -->
<g id="edge39" class="edge">
<title>provider&#45;&gt;security_event</title>
<path fill="none" stroke="#64748b" d="M628.25,-837.03C644.35,-828.72 664.89,-818.89 684,-812 734.07,-793.95 1110.49,-733.74 1149,-697 1160.88,-685.67 1223.05,-457.89 1243.77,-381.06"/>
<polygon fill="#64748b" stroke="#64748b" points="1246.19,-381.5 1245.65,-374.11 1241.46,-380.23 1246.19,-381.5"/>
<text text-anchor="middle" x="919" y="-776.6" font-family="Helvetica,sans-Serif" font-size="8.00">fk_security_event_provider</text>
</g>
<!-- provider&#45;&gt;security_identifier -->
<g id="edge40" class="edge">
<title>provider&#45;&gt;security_identifier</title>
<path fill="none" stroke="#64748b" d="M605.83,-834.85C616.55,-805.84 637.52,-747.08 651,-696 670.2,-623.27 633.27,-585.54 684,-530 695.82,-517.06 790.12,-492.02 855.34,-475.93"/>
<polygon fill="#64748b" stroke="#64748b" points="856.14,-478.26 862.35,-474.21 854.97,-473.5 856.14,-478.26"/>
<text text-anchor="middle" x="752" y="-532.6" font-family="Helvetica,sans-Serif" font-size="8.00">fk_security_identifier_provider</text>
</g>
<!-- provider_observation&#45;&gt;provider_evidence -->
<g id="edge41" class="edge">
<title>provider_observation&#45;&gt;provider_evidence</title>
<path fill="none" stroke="#64748b" d="M1133.41,-763.84C1138.82,-761.16 1144.13,-758.2 1149,-755 1322.78,-640.57 1487.7,-447.54 1542.71,-380.11"/>
<polygon fill="#64748b" stroke="#64748b" points="1544.88,-381.33 1547.39,-374.35 1541.07,-378.24 1544.88,-381.33"/>
<text text-anchor="middle" x="1251.5" y="-731.6" font-family="Helvetica,sans-Serif" font-size="8.00">fk_provider_evidence_observation</text>
</g>
<!-- security&#45;&gt;listing -->
<g id="edge42" class="edge">
<title>security&#45;&gt;listing</title>
<path fill="none" stroke="#64748b" d="M627.7,-75.22C679.61,-88.57 786.81,-117.51 820,-137 851.19,-155.32 880.37,-185.31 898.64,-206.27"/>
<polygon fill="#64748b" stroke="#64748b" points="896.85,-207.95 903.27,-211.66 900.56,-204.75 896.85,-207.95"/>
<text text-anchor="middle" x="752" y="-139.6" font-family="Helvetica,sans-Serif" font-size="8.00">fk_listing_security</text>
</g>
<!-- security&#45;&gt;provider_evidence -->
<g id="edge43" class="edge">
<title>security&#45;&gt;provider_evidence</title>
<path fill="none" stroke="#64748b" d="M627.68,-64.77C669.9,-60.54 751.22,-54.39 820,-61 1124.05,-90.21 1199.9,-143.63 1468,-290 1491.12,-302.62 1515.4,-319.78 1533.49,-333.45"/>
<polygon fill="#64748b" stroke="#64748b" points="1532.33,-335.64 1539.38,-337.93 1535.3,-331.74 1532.33,-335.64"/>
<text text-anchor="middle" x="1083.5" y="-128.6" font-family="Helvetica,sans-Serif" font-size="8.00">fk_provider_evidence_security</text>
</g>
<!-- security&#45;&gt;security_event -->
<g id="edge44" class="edge">
<title>security&#45;&gt;security_event</title>
<path fill="none" stroke="#64748b" d="M627.53,-67.93C670.23,-68.53 752.95,-72.42 820,-92 976.64,-137.74 1029.07,-144.34 1149,-255 1169.95,-274.33 1162.36,-289.34 1182,-310 1190.5,-318.94 1201.03,-327.07 1211.26,-333.92"/>
<polygon fill="#64748b" stroke="#64748b" points="1210.03,-336.05 1217.24,-337.81 1212.7,-331.94 1210.03,-336.05"/>
<text text-anchor="middle" x="919" y="-144.6" font-family="Helvetica,sans-Serif" font-size="8.00">fk_security_event_security</text>
</g>
<!-- security&#45;&gt;security_identifier -->
<g id="edge45" class="edge">
<title>security&#45;&gt;security_identifier</title>
<path fill="none" stroke="#64748b" d="M622.65,-86.11C632.75,-95 643.85,-106.48 651,-119 681.22,-171.88 643.05,-206.92 684,-252 727.1,-299.45 770.23,-259.61 820,-300 865.5,-336.92 895.3,-400.96 909.09,-436.12"/>
<polygon fill="#64748b" stroke="#64748b" points="906.84,-437.09 911.64,-442.75 911.42,-435.34 906.84,-437.09"/>
<text text-anchor="middle" x="752" y="-302.6" font-family="Helvetica,sans-Serif" font-size="8.00">fk_security_identifier_security</text>
</g>
<!-- security_event&#45;&gt;provider_evidence -->
<g id="edge46" class="edge">
<title>security_event&#45;&gt;provider_evidence</title>
<path fill="none" stroke="#64748b" d="M1299.51,-356C1352.56,-356 1439.16,-356 1498.27,-356"/>
<polygon fill="#64748b" stroke="#64748b" points="1498.34,-358.45 1505.34,-356 1498.34,-353.55 1498.34,-358.45"/>
<text text-anchor="middle" x="1411" y="-358.6" font-family="Helvetica,sans-Serif" font-size="8.00">fk_provider_evidence_event</text>
</g>
</g>
</svg>
