<?xml version="1.0" encoding="UTF-8" standalone="no"?>
<!DOCTYPE svg PUBLIC "-//W3C//DTD SVG 1.1//EN"
 "http://www.w3.org/Graphics/SVG/1.1/DTD/svg11.dtd">
<!-- Generated by graphviz version 2.42.4 (0)
 -->
<!-- Title: schema_relations Pages: 1 -->
<svg width="1148pt" height="414pt"
 viewBox="0.00 0.00 1148.00 414.00" xmlns="http://www.w3.org/2000/svg" xmlns:xlink="http://www.w3.org/1999/xlink">
<g id="graph0" class="graph" transform="scale(1 1) rotate(0) translate(18 396)">
<title>schema_relations</title>
<!-- issuer -->
<g id="node1" class="node">
<title>issuer</title>
<path fill="#f8fafc" stroke="#334155" d="M42,-171C42,-171 12,-171 12,-171 6,-171 0,-165 0,-159 0,-159 0,-147 0,-147 0,-141 6,-135 12,-135 12,-135 42,-135 42,-135 48,-135 54,-141 54,-147 54,-147 54,-159 54,-159 54,-165 48,-171 42,-171"/>
<text text-anchor="middle" x="27" y="-150.2" font-family="Helvetica,sans-Serif" font-size="11.00">issuer</text>
</g>
<!-- security -->
<g id="node4" class="node">
<title>security</title>
<path fill="#f8fafc" stroke="#334155" d="M240,-314C240,-314 205,-314 205,-314 199,-314 193,-308 193,-302 193,-302 193,-290 193,-290 193,-284 199,-278 205,-278 205,-278 240,-278 240,-278 246,-278 252,-284 252,-290 252,-290 252,-302 252,-302 252,-308 246,-314 240,-314"/>
<text text-anchor="middle" x="222.5" y="-293.2" font-family="Helvetica,sans-Serif" font-size="11.00">security</text>
</g>
<!-- issuer&#45;&gt;security -->
<g id="edge1" class="edge">
<title>issuer&#45;&gt;security</title>
<path fill="none" stroke="#64748b" d="M52.51,-171.11C87.74,-197.15 152.67,-245.14 190.98,-273.44"/>
<polygon fill="#64748b" stroke="#64748b" points="189.8,-275.62 196.89,-277.81 192.71,-271.68 189.8,-275.62"/>
<text text-anchor="middle" x="123.5" y="-251.6" font-family="Helvetica,sans-Serif" font-size="8.00">fk_security_issuer</text>
</g>
<!-- security_event -->
<g id="node5" class="node">
<title>security_event</title>
<path fill="#f8fafc" stroke="#334155" d="M807,-216C807,-216 735,-216 735,-216 729,-216 723,-210 723,-204 723,-204 723,-192 723,-192 723,-186 729,-180 735,-180 735,-180 807,-180 807,-180 813,-180 819,-186 819,-192 819,-192 819,-204 819,-204 819,-210 813,-216 807,-216"/>
<text text-anchor="middle" x="771" y="-195.2" font-family="Helvetica,sans-Serif" font-size="11.00">security_event</text>
</g>
<!-- issuer&#45;&gt;security_event -->
<g id="edge2" class="edge">
<title>issuer&#45;&gt;security_event</title>
<path fill="none" stroke="#64748b" d="M54.41,-154.6C161.86,-161.12 567.52,-185.72 715.53,-194.7"/>
<polygon fill="#64748b" stroke="#64748b" points="715.66,-197.16 722.8,-195.14 715.96,-192.27 715.66,-197.16"/>
<text text-anchor="middle" x="335" y="-176.6" font-family="Helvetica,sans-Serif" font-size="8.00">fk_security_event_issuer</text>
</g>
<!-- source_evidence -->
<g id="node6" class="node">
<title>source_evidence</title>
<path fill="#f8fafc" stroke="#334155" d="M1100,-216C1100,-216 1018,-216 1018,-216 1012,-216 1006,-210 1006,-204 1006,-204 1006,-192 1006,-192 1006,-186 1012,-180 1018,-180 1018,-180 1100,-180 1100,-180 1106,-180 1112,-186 1112,-192 1112,-192 1112,-204 1112,-204 1112,-210 1106,-216 1100,-216"/>
<text text-anchor="middle" x="1059" y="-195.2" font-family="Helvetica,sans-Serif" font-size="11.00">source_evidence</text>
</g>
<!-- issuer&#45;&gt;source_evidence -->
<g id="edge3" class="edge">
<title>issuer&#45;&gt;source_evidence</title>
<path fill="none" stroke="#64748b" d="M39.04,-134.85C65.22,-94.32 135.42,0 221.5,0 221.5,0 221.5,0 772,0 892.95,0 999.7,-121.19 1040.44,-173.94"/>
<polygon fill="#64748b" stroke="#64748b" points="1038.66,-175.65 1044.85,-179.73 1042.56,-172.68 1038.66,-175.65"/>
<text text-anchor="middle" x="472.5" y="-2.6" font-family="Helvetica,sans-Serif" font-size="8.00">fk_source_evidence_issuer</text>
</g>
<!-- listing -->
<g id="node2" class="node">
<title>listing</title>
<path fill="#f8fafc" stroke="#334155" d="M487.5,-349C487.5,-349 457.5,-349 457.5,-349 451.5,-349 445.5,-343 445.5,-337 445.5,-337 445.5,-325 445.5,-325 445.5,-319 451.5,-313 457.5,-313 457.5,-313 487.5,-313 487.5,-313 493.5,-313 499.5,-319 499.5,-325 499.5,-325 499.5,-337 499.5,-337 499.5,-343 493.5,-349 487.5,-349"/>
<text text-anchor="middle" x="472.5" y="-328.2" font-family="Helvetica,sans-Serif" font-size="11.00">listing</text>
</g>
<!-- listing&#45;&gt;security_event -->
<g id="edge4" class="edge">
<title>listing&#45;&gt;security_event</title>
<path fill="none" stroke="#64748b" d="M499.62,-323.5C539.07,-311.72 615.77,-287.11 677,-257 698.39,-246.48 721.01,-232.21 738.58,-220.34"/>
<polygon fill="#64748b" stroke="#64748b" points="740.41,-222.06 744.82,-216.09 737.65,-218.01 740.41,-222.06"/>
<text text-anchor="middle" x="618.5" y="-305.6" font-family="Helvetica,sans-Serif" font-size="8.00">fk_security_event_listing</text>
</g>
<!-- listing&#45;&gt;source_evidence -->
<g id="edge5" class="edge">
<title>listing&#45;&gt;source_evidence</title>
<path fill="none" stroke="#64748b" d="M499.76,-330.58C538.76,-329.56 614.15,-326.05 677,-314 795.91,-291.2 930.4,-245.32 1003.53,-218.6"/>
<polygon fill="#64748b" stroke="#64748b" points="1004.68,-220.79 1010.41,-216.08 1002.99,-216.19 1004.68,-220.79"/>
<text text-anchor="middle" x="771" y="-308.6" font-family="Helvetica,sans-Serif" font-size="8.00">fk_source_evidence_listing</text>
</g>
<!-- provider -->
<g id="node3" class="node">
<title>provider</title>
<path fill="#f8fafc" stroke="#334155" d="M490.5,-88C490.5,-88 454.5,-88 454.5,-88 448.5,-88 442.5,-82 442.5,-76 442.5,-76 442.5,-64 442.5,-64 442.5,-58 448.5,-52 454.5,-52 454.5,-52 490.5,-52 490.5,-52 496.5,-52 502.5,-58 502.5,-64 502.5,-64 502.5,-76 502.5,-76 502.5,-82 496.5,-88 490.5,-88"/>
<text text-anchor="middle" x="472.5" y="-67.2" font-family="Helvetica,sans-Serif" font-size="11.00">provider</text>
</g>
<!-- provider&#45;&gt;security_event -->
<g id="edge6" class="edge">
<title>provider&#45;&gt;security_event</title>
<path fill="none" stroke="#64748b" d="M502.7,-74.83C543.36,-82.31 618.61,-98.97 677,-128 701.87,-140.37 726.85,-159.64 744.65,-174.83"/>
<polygon fill="#64748b" stroke="#64748b" points="743.5,-177.08 750.39,-179.81 746.71,-173.37 743.5,-177.08"/>
<text text-anchor="middle" x="618.5" y="-130.6" font-family="Helvetica,sans-Serif" font-size="8.00">fk_security_event_provider</text>
</g>
<!-- source_observation -->
<g id="node7" class="node">
<title>source_observation</title>
<path fill="#f8fafc" stroke="#334155" d="M820,-101C820,-101 722,-101 722,-101 716,-101 710,-95 710,-89 710,-89 710,-77 710,-77 710,-71 716,-65 722,-65 722,-65 820,-65 820,-65 826,-65 832,-71 832,-77 832,-77 832,-89 832,-89 832,-95 826,-101 820,-101"/>
<text text-anchor="middle" x="771" y="-80.2" font-family="Helvetica,sans-Serif" font-size="11.00">source_observation</text>
</g>
<!-- provider&#45;&gt;source_observation -->
<g id="edge7" class="edge">
<title>provider&#45;&gt;source_observation</title>
<path fill="none" stroke="#64748b" d="M502.52,-69.02C542.04,-67.94 614.96,-66.86 677,-71 685.25,-71.55 693.88,-72.35 702.43,-73.29"/>
<polygon fill="#64748b" stroke="#64748b" points="702.34,-75.75 709.57,-74.1 702.9,-70.88 702.34,-75.75"/>
<text text-anchor="middle" x="618.5" y="-73.6" font-family="Helvetica,sans-Serif" font-size="8.00">fk_source_obs_provider</text>
</g>
<!-- security&#45;&gt;listing -->
<g id="edge8" class="edge">
<title>security&#45;&gt;listing</title>
<path fill="none" stroke="#64748b" d="M252.43,-300.08C298.74,-306.62 389.24,-319.39 438.18,-326.3"/>
<polygon fill="#64748b" stroke="#64748b" points="438.1,-328.76 445.38,-327.31 438.79,-323.91 438.1,-328.76"/>
<text text-anchor="middle" x="335" y="-320.6" font-family="Helvetica,sans-Serif" font-size="8.00">fk_listing_security</text>
</g>
<!-- security&#45;&gt;security_event -->
<g id="edge9" class="edge">
<title>security&#45;&gt;security_event</title>
<path fill="none" stroke="#64748b" d="M252.11,-290.87C339.13,-275.27 601.6,-228.2 715.87,-207.71"/>
<polygon fill="#64748b" stroke="#64748b" points="716.39,-210.1 722.84,-206.46 715.52,-205.28 716.39,-210.1"/>
<text text-anchor="middle" x="472.5" y="-261.6" font-family="Helvetica,sans-Serif" font-size="8.00">fk_security_event_security</text>
</g>
<!-- security&#45;&gt;source_evidence -->
<g id="edge10" class="edge">
<title>security&#45;&gt;source_evidence</title>
<path fill="none" stroke="#64748b" d="M246.65,-314.15C257.74,-322.11 271.52,-330.99 285,-337 384.21,-381.2 418.6,-377.84 527,-371 728.99,-358.26 799.23,-382.77 973,-279 998.54,-263.75 1022.57,-239.57 1038.53,-221.6"/>
<polygon fill="#64748b" stroke="#64748b" points="1040.45,-223.12 1043.21,-216.23 1036.76,-219.89 1040.45,-223.12"/>
<text text-anchor="middle" x="618.5" y="-371.6" font-family="Helvetica,sans-Serif" font-size="8.00">fk_source_evidence_security</text>
</g>
<!-- security_event&#45;&gt;source_evidence -->
<g id="edge11" class="edge">
<title>security_event&#45;&gt;source_evidence</title>
<path fill="none" stroke="#64748b" d="M819.23,-198C868.42,-198 945.61,-198 998.84,-198"/>
<polygon fill="#64748b" stroke="#64748b" points="998.86,-200.45 1005.85,-198 998.85,-195.55 998.86,-200.45"/>
<text text-anchor="middle" x="919" y="-200.6" font-family="Helvetica,sans-Serif" font-size="8.00">fk_source_evidence_event</text>
</g>
<!-- source_observation&#45;&gt;source_evidence -->
<g id="edge12" class="edge">
<title>source_observation&#45;&gt;source_evidence</title>
<path fill="none" stroke="#64748b" d="M817,-101.1C868.29,-121.72 951.99,-155.37 1006.02,-177.1"/>
<polygon fill="#64748b" stroke="#64748b" points="1005.38,-179.48 1012.79,-179.82 1007.21,-174.94 1005.38,-179.48"/>
<text text-anchor="middle" x="919" y="-162.6" font-family="Helvetica,sans-Serif" font-size="8.00">fk_source_evidence_obs</text>
</g>
</g>
</svg>
