<?xml version="1.0" encoding="UTF-8" standalone="no"?>
<!DOCTYPE svg PUBLIC "-//W3C//DTD SVG 1.1//EN"
 "http://www.w3.org/Graphics/SVG/1.1/DTD/svg11.dtd">
<!-- Generated by graphviz version 2.42.4 (0)
 -->
<!-- Title: schema_relations Pages: 1 -->
<svg width="1148pt" height="542pt"
 viewBox="0.00 0.00 1148.00 542.00" xmlns="http://www.w3.org/2000/svg" xmlns:xlink="http://www.w3.org/1999/xlink">
<g id="graph0" class="graph" transform="scale(1 1) rotate(0) translate(18 524)">
<title>schema_relations</title>
<!-- issuer -->
<g id="node1" class="node">
<title>issuer</title>
<path fill="#f8fafc" stroke="#334155" d="M42,-407C42,-407 12,-407 12,-407 6,-407 0,-401 0,-395 0,-395 0,-383 0,-383 0,-377 6,-371 12,-371 12,-371 42,-371 42,-371 48,-371 54,-377 54,-383 54,-383 54,-395 54,-395 54,-401 48,-407 42,-407"/>
<text text-anchor="middle" x="27" y="-386.2" font-family="Helvetica,sans-Serif" font-size="11.00">issuer</text>
</g>
<!-- security -->
<g id="node3" class="node">
<title>security</title>
<path fill="#f8fafc" stroke="#334155" d="M240,-277C240,-277 205,-277 205,-277 199,-277 193,-271 193,-265 193,-265 193,-253 193,-253 193,-247 199,-241 205,-241 205,-241 240,-241 240,-241 246,-241 252,-247 252,-253 252,-253 252,-265 252,-265 252,-271 246,-277 240,-277"/>
<text text-anchor="middle" x="222.5" y="-256.2" font-family="Helvetica,sans-Serif" font-size="11.00">security</text>
</g>
<!-- issuer&#45;&gt;security -->
<g id="edge1" class="edge">
<title>issuer&#45;&gt;security</title>
<path fill="none" stroke="#64748b" d="M53.76,-370.91C64.06,-363.73 76.06,-355.42 87,-348 121.15,-324.84 160.55,-298.86 187.84,-280.97"/>
<polygon fill="#64748b" stroke="#64748b" points="189.3,-282.94 193.82,-277.06 186.62,-278.84 189.3,-282.94"/>
<text text-anchor="middle" x="123.5" y="-350.6" font-family="Helvetica,sans-Serif" font-size="8.00">fk_security_issuer</text>
</g>
<!-- security_event -->
<g id="node4" class="node">
<title>security_event</title>
<path fill="#f8fafc" stroke="#334155" d="M807,-324C807,-324 735,-324 735,-324 729,-324 723,-318 723,-312 723,-312 723,-300 723,-300 723,-294 729,-288 735,-288 735,-288 807,-288 807,-288 813,-288 819,-294 819,-300 819,-300 819,-312 819,-312 819,-318 813,-324 807,-324"/>
<text text-anchor="middle" x="771" y="-303.2" font-family="Helvetica,sans-Serif" font-size="11.00">security_event</text>
</g>
<!-- issuer&#45;&gt;security_event -->
<g id="edge2" class="edge">
<title>issuer&#45;&gt;security_event</title>
<path fill="none" stroke="#64748b" d="M54.09,-387.4C142.14,-381.79 436.31,-361.36 677,-325 689.65,-323.09 703.18,-320.59 715.89,-318.04"/>
<polygon fill="#64748b" stroke="#64748b" points="716.49,-320.41 722.86,-316.61 715.51,-315.61 716.49,-320.41"/>
<text text-anchor="middle" x="335" y="-371.6" font-family="Helvetica,sans-Serif" font-size="8.00">fk_security_event_issuer</text>
</g>
<!-- source_evidence -->
<g id="node5" class="node">
<title>source_evidence</title>
<path fill="#f8fafc" stroke="#334155" d="M1100,-227C1100,-227 1018,-227 1018,-227 1012,-227 1006,-221 1006,-215 1006,-215 1006,-203 1006,-203 1006,-197 1012,-191 1018,-191 1018,-191 1100,-191 1100,-191 1106,-191 1112,-197 1112,-203 1112,-203 1112,-215 1112,-215 1112,-221 1106,-227 1100,-227"/>
<text text-anchor="middle" x="1059" y="-206.2" font-family="Helvetica,sans-Serif" font-size="11.00">source_evidence</text>
</g>
<!-- issuer&#45;&gt;source_evidence -->
<g id="edge3" class="edge">
<title>issuer&#45;&gt;source_evidence</title>
<path fill="none" stroke="#64748b" d="M45.63,-407.08C77.6,-437.82 148.6,-497 221.5,-497 221.5,-497 221.5,-497 772,-497 919.83,-497 1017.44,-303.58 1047.86,-233.76"/>
<polygon fill="#64748b" stroke="#64748b" points="1050.25,-234.41 1050.76,-227.02 1045.74,-232.48 1050.25,-234.41"/>
<text text-anchor="middle" x="472.5" y="-499.6" font-family="Helvetica,sans-Serif" font-size="8.00">fk_source_evidence_issuer</text>
</g>
<!-- listing -->
<g id="node2" class="node">
<title>listing</title>
<path fill="#f8fafc" stroke="#334155" d="M487.5,-229C487.5,-229 457.5,-229 457.5,-229 451.5,-229 445.5,-223 445.5,-217 445.5,-217 445.5,-205 445.5,-205 445.5,-199 451.5,-193 457.5,-193 457.5,-193 487.5,-193 487.5,-193 493.5,-193 499.5,-199 499.5,-205 499.5,-205 499.5,-217 499.5,-217 499.5,-223 493.5,-229 487.5,-229"/>
<text text-anchor="middle" x="472.5" y="-208.2" font-family="Helvetica,sans-Serif" font-size="11.00">listing</text>
</g>
<!-- listing&#45;&gt;security_event -->
<g id="edge4" class="edge">
<title>listing&#45;&gt;security_event</title>
<path fill="none" stroke="#64748b" d="M499.55,-219.35C547.82,-234.81 652.04,-268.21 716.09,-288.73"/>
<polygon fill="#64748b" stroke="#64748b" points="715.51,-291.11 722.92,-290.92 717,-286.45 715.51,-291.11"/>
<text text-anchor="middle" x="618.5" y="-277.6" font-family="Helvetica,sans-Serif" font-size="8.00">fk_security_event_listing</text>
</g>
<!-- listing&#45;&gt;source_evidence -->
<g id="edge5" class="edge">
<title>listing&#45;&gt;source_evidence</title>
<path fill="none" stroke="#64748b" d="M499.75,-210.91C587.74,-210.61 873.72,-209.63 998.67,-209.2"/>
<polygon fill="#64748b" stroke="#64748b" points="998.95,-211.65 1005.94,-209.18 998.93,-206.75 998.95,-211.65"/>
<text text-anchor="middle" x="771" y="-212.6" font-family="Helvetica,sans-Serif" font-size="8.00">fk_source_evidence_listing</text>
</g>
<!-- security&#45;&gt;listing -->
<g id="edge6" class="edge">
<title>security&#45;&gt;listing</title>
<path fill="none" stroke="#64748b" d="M252.43,-253.4C298.83,-244.42 389.62,-226.85 438.48,-217.39"/>
<polygon fill="#64748b" stroke="#64748b" points="438.97,-219.79 445.38,-216.06 438.04,-214.98 438.97,-219.79"/>
<text text-anchor="middle" x="335" y="-248.6" font-family="Helvetica,sans-Serif" font-size="8.00">fk_listing_security</text>
</g>
<!-- security&#45;&gt;security_event -->
<g id="edge7" class="edge">
<title>security&#45;&gt;security_event</title>
<path fill="none" stroke="#64748b" d="M252.28,-261.87C262.6,-262.88 274.32,-264.01 285,-265 407.17,-276.29 437.74,-278.72 560,-289 612.89,-293.45 673.29,-298.32 715.7,-301.7"/>
<polygon fill="#64748b" stroke="#64748b" points="715.7,-304.16 722.87,-302.27 716.09,-299.27 715.7,-304.16"/>
<text text-anchor="middle" x="472.5" y="-288.6" font-family="Helvetica,sans-Serif" font-size="8.00">fk_security_event_security</text>
</g>
<!-- security&#45;&gt;source_evidence -->
<g id="edge8" class="edge">
<title>security&#45;&gt;source_evidence</title>
<path fill="none" stroke="#64748b" d="M246.81,-240.85C257.93,-232.79 271.69,-223.64 285,-217 340.84,-189.14 356.43,-182.13 418,-172 629.64,-137.17 885.32,-175.75 998.8,-196.95"/>
<polygon fill="#64748b" stroke="#64748b" points="998.41,-199.37 1005.74,-198.26 999.32,-194.55 998.41,-199.37"/>
<text text-anchor="middle" x="618.5" y="-161.6" font-family="Helvetica,sans-Serif" font-size="8.00">fk_source_evidence_security</text>
</g>
<!-- security_event&#45;&gt;source_evidence -->
<g id="edge9" class="edge">
<title>security_event&#45;&gt;source_evidence</title>
<path fill="none" stroke="#64748b" d="M819.32,-291.39C860.19,-278.61 920.72,-259.28 973,-241 983.26,-237.41 994.15,-233.44 1004.59,-229.55"/>
<polygon fill="#64748b" stroke="#64748b" points="1005.68,-231.75 1011.38,-227 1003.97,-227.16 1005.68,-231.75"/>
<text text-anchor="middle" x="919" y="-277.6" font-family="Helvetica,sans-Serif" font-size="8.00">fk_source_evidence_event</text>
</g>
<!-- source_observation -->
<g id="node6" class="node">
<title>source_observation</title>
<path fill="#f8fafc" stroke="#334155" d="M820,-36C820,-36 722,-36 722,-36 716,-36 710,-30 710,-24 710,-24 710,-12 710,-12 710,-6 716,0 722,0 722,0 820,0 820,0 826,0 832,-6 832,-12 832,-12 832,-24 832,-24 832,-30 826,-36 820,-36"/>
<text text-anchor="middle" x="771" y="-15.2" font-family="Helvetica,sans-Serif" font-size="11.00">source_observation</text>
</g>
<!-- source_observation&#45;&gt;source_evidence -->
<g id="edge10" class="edge">
<title>source_observation&#45;&gt;source_evidence</title>
<path fill="none" stroke="#64748b" d="M832.18,-17.87C875.11,-20.61 932.22,-30.31 973,-60 1015.6,-91.01 1039.91,-150.32 1050.87,-184"/>
<polygon fill="#64748b" stroke="#64748b" points="1048.57,-184.84 1053.01,-190.78 1053.24,-183.37 1048.57,-184.84"/>
<text text-anchor="middle" x="919" y="-62.6" font-family="Helvetica,sans-Serif" font-size="8.00">fk_source_evidence_obs</text>
</g>
</g>
</svg>
