<?xml version="1.0" encoding="UTF-8" standalone="no"?>
<!DOCTYPE svg PUBLIC "-//W3C//DTD SVG 1.1//EN"
 "http://www.w3.org/Graphics/SVG/1.1/DTD/svg11.dtd">
<!-- Generated by graphviz version 2.42.4 (0)
 -->
<!-- Title: ERD Pages: 1 -->
<svg width="660pt" height="1452pt"
 viewBox="0.00 0.00 659.68 1452.00" xmlns="http://www.w3.org/2000/svg" xmlns:xlink="http://www.w3.org/1999/xlink">
<g id="graph0" class="graph" transform="scale(1 1) rotate(0) translate(4 1448)">
<title>ERD</title>
<polygon fill="white" stroke="transparent" points="-4,4 -4,-1448 655.68,-1448 655.68,4 -4,4"/>
<!-- issuer -->
<g id="node1" class="node">
<title>issuer</title>
<polygon fill="lightblue" stroke="transparent" points="112.18,-224 112.18,-244 303.18,-244 303.18,-224 112.18,-224"/>
<polygon fill="none" stroke="black" points="112.18,-224 112.18,-244 303.18,-244 303.18,-224 112.18,-224"/>
<text text-anchor="start" x="192.18" y="-232.8" font-family="Verdana" font-weight="bold" font-size="9.00">issuer</text>
<polygon fill="none" stroke="black" points="112.18,-204 112.18,-224 303.18,-224 303.18,-204 112.18,-204"/>
<text text-anchor="start" x="117.18" y="-212.8" font-family="Verdana" font-weight="bold" font-size="9.00">issuer_id</text>
<text text-anchor="start" x="163.18" y="-212.8" font-family="Verdana" font-size="9.00">: </text>
<text text-anchor="start" x="170.18" y="-212.8" font-family="Verdana" font-style="italic" font-size="9.00">UUID &#160;NOT NULL</text>
<polygon fill="none" stroke="black" points="112.18,-184 112.18,-204 303.18,-204 303.18,-184 112.18,-184"/>
<text text-anchor="start" x="117.18" y="-192.8" font-family="Verdana" font-weight="bold" font-size="9.00">cik</text>
<text text-anchor="start" x="132.18" y="-192.8" font-family="Verdana" font-size="9.00">: </text>
<text text-anchor="start" x="139.18" y="-192.8" font-family="Verdana" font-style="italic" font-size="9.00">VARCHAR(10) </text>
<polygon fill="none" stroke="black" points="112.18,-164 112.18,-184 303.18,-184 303.18,-164 112.18,-164"/>
<text text-anchor="start" x="117.18" y="-172.8" font-family="Verdana" font-weight="bold" font-size="9.00">issuer_type</text>
<text text-anchor="start" x="176.18" y="-172.8" font-family="Verdana" font-size="9.00">: </text>
<text text-anchor="start" x="183.18" y="-172.8" font-family="Verdana" font-style="italic" font-size="9.00">VARCHAR(32) &#160;NOT NULL</text>
<polygon fill="none" stroke="black" points="112.18,-144 112.18,-164 303.18,-164 303.18,-144 112.18,-144"/>
<text text-anchor="start" x="117.18" y="-152.8" font-family="Verdana" font-weight="bold" font-size="9.00">current_name</text>
<text text-anchor="start" x="189.18" y="-152.8" font-family="Verdana" font-size="9.00">: </text>
<text text-anchor="start" x="196.18" y="-152.8" font-family="Verdana" font-style="italic" font-size="9.00">TEXT &#160;NOT NULL</text>
<polygon fill="none" stroke="black" points="112.18,-124 112.18,-144 303.18,-144 303.18,-124 112.18,-124"/>
<text text-anchor="start" x="117.18" y="-132.8" font-family="Verdana" font-weight="bold" font-size="9.00">country_alpha2</text>
<text text-anchor="start" x="196.18" y="-132.8" font-family="Verdana" font-size="9.00">: </text>
<text text-anchor="start" x="203.18" y="-132.8" font-family="Verdana" font-style="italic" font-size="9.00">VARCHAR(2) </text>
<polygon fill="none" stroke="black" points="112.18,-104 112.18,-124 303.18,-124 303.18,-104 112.18,-104"/>
<text text-anchor="start" x="117.18" y="-112.8" font-family="Verdana" font-weight="bold" font-size="9.00">sic_code</text>
<text text-anchor="start" x="160.18" y="-112.8" font-family="Verdana" font-size="9.00">: </text>
<text text-anchor="start" x="167.18" y="-112.8" font-family="Verdana" font-style="italic" font-size="9.00">VARCHAR(4) </text>
<polygon fill="none" stroke="black" points="112.18,-84 112.18,-104 303.18,-104 303.18,-84 112.18,-84"/>
<text text-anchor="start" x="117.18" y="-92.8" font-family="Verdana" font-weight="bold" font-size="9.00">status</text>
<text text-anchor="start" x="150.18" y="-92.8" font-family="Verdana" font-size="9.00">: </text>
<text text-anchor="start" x="157.18" y="-92.8" font-family="Verdana" font-style="italic" font-size="9.00">VARCHAR(24) &#160;NOT NULL</text>
<polygon fill="none" stroke="black" points="112.18,-64 112.18,-84 303.18,-84 303.18,-64 112.18,-64"/>
<text text-anchor="start" x="117.18" y="-72.8" font-family="Verdana" font-weight="bold" font-size="9.00">first_seen</text>
<text text-anchor="start" x="167.18" y="-72.8" font-family="Verdana" font-size="9.00">: </text>
<text text-anchor="start" x="174.18" y="-72.8" font-family="Verdana" font-style="italic" font-size="9.00">DATE </text>
<polygon fill="none" stroke="black" points="112.18,-44 112.18,-64 303.18,-64 303.18,-44 112.18,-44"/>
<text text-anchor="start" x="117.18" y="-52.8" font-family="Verdana" font-weight="bold" font-size="9.00">last_seen</text>
<text text-anchor="start" x="165.18" y="-52.8" font-family="Verdana" font-size="9.00">: </text>
<text text-anchor="start" x="172.18" y="-52.8" font-family="Verdana" font-style="italic" font-size="9.00">DATE </text>
<polygon fill="none" stroke="black" points="112.18,-24 112.18,-44 303.18,-44 303.18,-24 112.18,-24"/>
<text text-anchor="start" x="117.18" y="-32.8" font-family="Verdana" font-weight="bold" font-size="9.00">created_at</text>
<text text-anchor="start" x="172.18" y="-32.8" font-family="Verdana" font-size="9.00">: </text>
<text text-anchor="start" x="179.18" y="-32.8" font-family="Verdana" font-style="italic" font-size="9.00">TIMESTAMPTZ &#160;NOT NULL</text>
<polygon fill="none" stroke="black" points="112.18,-4 112.18,-24 303.18,-24 303.18,-4 112.18,-4"/>
<text text-anchor="start" x="117.18" y="-12.8" font-family="Verdana" font-weight="bold" font-size="9.00">updated_at</text>
<text text-anchor="start" x="176.18" y="-12.8" font-family="Verdana" font-size="9.00">: </text>
<text text-anchor="start" x="183.18" y="-12.8" font-family="Verdana" font-style="italic" font-size="9.00">TIMESTAMPTZ &#160;NOT NULL</text>
</g>
<!-- listing -->
<g id="node2" class="node">
<title>listing</title>
<polygon fill="lightblue" stroke="transparent" points="112.18,-852 112.18,-872 303.18,-872 303.18,-852 112.18,-852"/>
<polygon fill="none" stroke="black" points="112.18,-852 112.18,-872 303.18,-872 303.18,-852 112.18,-852"/>
<text text-anchor="start" x="191.18" y="-860.8" font-family="Verdana" font-weight="bold" font-size="9.00">listing</text>
<polygon fill="none" stroke="black" points="112.18,-832 112.18,-852 303.18,-852 303.18,-832 112.18,-832"/>
<text text-anchor="start" x="117.18" y="-840.8" font-family="Verdana" font-weight="bold" font-size="9.00">listing_id</text>
<text text-anchor="start" x="164.18" y="-840.8" font-family="Verdana" font-size="9.00">: </text>
<text text-anchor="start" x="171.18" y="-840.8" font-family="Verdana" font-style="italic" font-size="9.00">UUID &#160;NOT NULL</text>
<polygon fill="none" stroke="black" points="112.18,-812 112.18,-832 303.18,-832 303.18,-812 112.18,-812"/>
<text text-anchor="start" x="117.18" y="-820.8" font-family="Verdana" font-weight="bold" font-size="9.00">security_id</text>
<text text-anchor="start" x="173.18" y="-820.8" font-family="Verdana" font-size="9.00">: </text>
<text text-anchor="start" x="180.18" y="-820.8" font-family="Verdana" font-style="italic" font-size="9.00">UUID &#160;NOT NULL</text>
<polygon fill="none" stroke="black" points="112.18,-792 112.18,-812 303.18,-812 303.18,-792 112.18,-792"/>
<text text-anchor="start" x="117.18" y="-800.8" font-family="Verdana" font-weight="bold" font-size="9.00">exchange_id</text>
<text text-anchor="start" x="181.18" y="-800.8" font-family="Verdana" font-size="9.00">: </text>
<text text-anchor="start" x="188.18" y="-800.8" font-family="Verdana" font-style="italic" font-size="9.00">UUID &#160;NOT NULL</text>
<polygon fill="none" stroke="black" points="112.18,-772 112.18,-792 303.18,-792 303.18,-772 112.18,-772"/>
<text text-anchor="start" x="117.18" y="-780.8" font-family="Verdana" font-weight="bold" font-size="9.00">current_ticker</text>
<text text-anchor="start" x="190.18" y="-780.8" font-family="Verdana" font-size="9.00">: </text>
<text text-anchor="start" x="197.18" y="-780.8" font-family="Verdana" font-style="italic" font-size="9.00">TEXT </text>
<polygon fill="none" stroke="black" points="112.18,-752 112.18,-772 303.18,-772 303.18,-752 112.18,-752"/>
<text text-anchor="start" x="117.18" y="-760.8" font-family="Verdana" font-weight="bold" font-size="9.00">ticker_norm</text>
<text text-anchor="start" x="178.18" y="-760.8" font-family="Verdana" font-size="9.00">: </text>
<text text-anchor="start" x="185.18" y="-760.8" font-family="Verdana" font-style="italic" font-size="9.00">TEXT </text>
<polygon fill="none" stroke="black" points="112.18,-732 112.18,-752 303.18,-752 303.18,-732 112.18,-732"/>
<text text-anchor="start" x="117.18" y="-740.8" font-family="Verdana" font-weight="bold" font-size="9.00">currency_code</text>
<text text-anchor="start" x="191.18" y="-740.8" font-family="Verdana" font-size="9.00">: </text>
<text text-anchor="start" x="198.18" y="-740.8" font-family="Verdana" font-style="italic" font-size="9.00">VARCHAR(3) </text>
<polygon fill="none" stroke="black" points="112.18,-712 112.18,-732 303.18,-732 303.18,-712 112.18,-712"/>
<text text-anchor="start" x="117.18" y="-720.8" font-family="Verdana" font-weight="bold" font-size="9.00">is_primary</text>
<text text-anchor="start" x="171.18" y="-720.8" font-family="Verdana" font-size="9.00">: </text>
<text text-anchor="start" x="178.18" y="-720.8" font-family="Verdana" font-style="italic" font-size="9.00">BOOLEAN &#160;NOT NULL</text>
<polygon fill="none" stroke="black" points="112.18,-692 112.18,-712 303.18,-712 303.18,-692 112.18,-692"/>
<text text-anchor="start" x="117.18" y="-700.8" font-family="Verdana" font-weight="bold" font-size="9.00">status</text>
<text text-anchor="start" x="150.18" y="-700.8" font-family="Verdana" font-size="9.00">: </text>
<text text-anchor="start" x="157.18" y="-700.8" font-family="Verdana" font-style="italic" font-size="9.00">VARCHAR(32) &#160;NOT NULL</text>
<polygon fill="none" stroke="black" points="112.18,-672 112.18,-692 303.18,-692 303.18,-672 112.18,-672"/>
<text text-anchor="start" x="117.18" y="-680.8" font-family="Verdana" font-weight="bold" font-size="9.00">valid_from</text>
<text text-anchor="start" x="171.18" y="-680.8" font-family="Verdana" font-size="9.00">: </text>
<text text-anchor="start" x="178.18" y="-680.8" font-family="Verdana" font-style="italic" font-size="9.00">DATE </text>
<polygon fill="none" stroke="black" points="112.18,-652 112.18,-672 303.18,-672 303.18,-652 112.18,-652"/>
<text text-anchor="start" x="117.18" y="-660.8" font-family="Verdana" font-weight="bold" font-size="9.00">valid_to</text>
<text text-anchor="start" x="157.18" y="-660.8" font-family="Verdana" font-size="9.00">: </text>
<text text-anchor="start" x="164.18" y="-660.8" font-family="Verdana" font-style="italic" font-size="9.00">DATE </text>
<polygon fill="none" stroke="black" points="112.18,-632 112.18,-652 303.18,-652 303.18,-632 112.18,-632"/>
<text text-anchor="start" x="117.18" y="-640.8" font-family="Verdana" font-weight="bold" font-size="9.00">first_seen</text>
<text text-anchor="start" x="167.18" y="-640.8" font-family="Verdana" font-size="9.00">: </text>
<text text-anchor="start" x="174.18" y="-640.8" font-family="Verdana" font-style="italic" font-size="9.00">DATE </text>
<polygon fill="none" stroke="black" points="112.18,-612 112.18,-632 303.18,-632 303.18,-612 112.18,-612"/>
<text text-anchor="start" x="117.18" y="-620.8" font-family="Verdana" font-weight="bold" font-size="9.00">last_seen</text>
<text text-anchor="start" x="165.18" y="-620.8" font-family="Verdana" font-size="9.00">: </text>
<text text-anchor="start" x="172.18" y="-620.8" font-family="Verdana" font-style="italic" font-size="9.00">DATE </text>
<polygon fill="none" stroke="black" points="112.18,-592 112.18,-612 303.18,-612 303.18,-592 112.18,-592"/>
<text text-anchor="start" x="117.18" y="-600.8" font-family="Verdana" font-weight="bold" font-size="9.00">created_at</text>
<text text-anchor="start" x="172.18" y="-600.8" font-family="Verdana" font-size="9.00">: </text>
<text text-anchor="start" x="179.18" y="-600.8" font-family="Verdana" font-style="italic" font-size="9.00">TIMESTAMPTZ &#160;NOT NULL</text>
<polygon fill="none" stroke="black" points="112.18,-572 112.18,-592 303.18,-592 303.18,-572 112.18,-572"/>
<text text-anchor="start" x="117.18" y="-580.8" font-family="Verdana" font-weight="bold" font-size="9.00">updated_at</text>
<text text-anchor="start" x="176.18" y="-580.8" font-family="Verdana" font-size="9.00">: </text>
<text text-anchor="start" x="183.18" y="-580.8" font-family="Verdana" font-style="italic" font-size="9.00">TIMESTAMPTZ &#160;NOT NULL</text>
</g>
<!-- security -->
<g id="node4" class="node">
<title>security</title>
<polygon fill="lightblue" stroke="transparent" points="85.18,-508 85.18,-528 331.18,-528 331.18,-508 85.18,-508"/>
<polygon fill="none" stroke="black" points="85.18,-508 85.18,-528 331.18,-528 331.18,-508 85.18,-508"/>
<text text-anchor="start" x="187.18" y="-516.8" font-family="Verdana" font-weight="bold" font-size="9.00">security</text>
<polygon fill="none" stroke="black" points="85.18,-488 85.18,-508 331.18,-508 331.18,-488 85.18,-488"/>
<text text-anchor="start" x="90.18" y="-496.8" font-family="Verdana" font-weight="bold" font-size="9.00">security_id</text>
<text text-anchor="start" x="146.18" y="-496.8" font-family="Verdana" font-size="9.00">: </text>
<text text-anchor="start" x="153.18" y="-496.8" font-family="Verdana" font-style="italic" font-size="9.00">UUID &#160;NOT NULL</text>
<polygon fill="none" stroke="black" points="85.18,-468 85.18,-488 331.18,-488 331.18,-468 85.18,-468"/>
<text text-anchor="start" x="90.18" y="-476.8" font-family="Verdana" font-weight="bold" font-size="9.00">issuer_id</text>
<text text-anchor="start" x="136.18" y="-476.8" font-family="Verdana" font-size="9.00">: </text>
<text text-anchor="start" x="143.18" y="-476.8" font-family="Verdana" font-style="italic" font-size="9.00">UUID </text>
<polygon fill="none" stroke="black" points="85.18,-448 85.18,-468 331.18,-468 331.18,-448 85.18,-448"/>
<text text-anchor="start" x="90.18" y="-456.8" font-family="Verdana" font-weight="bold" font-size="9.00">instrument_type_code</text>
<text text-anchor="start" x="205.18" y="-456.8" font-family="Verdana" font-size="9.00">: </text>
<text text-anchor="start" x="212.18" y="-456.8" font-family="Verdana" font-style="italic" font-size="9.00">VARCHAR(32) &#160;NOT NULL</text>
<polygon fill="none" stroke="black" points="85.18,-428 85.18,-448 331.18,-448 331.18,-428 85.18,-428"/>
<text text-anchor="start" x="90.18" y="-436.8" font-family="Verdana" font-weight="bold" font-size="9.00">security_title</text>
<text text-anchor="start" x="157.18" y="-436.8" font-family="Verdana" font-size="9.00">: </text>
<text text-anchor="start" x="164.18" y="-436.8" font-family="Verdana" font-style="italic" font-size="9.00">TEXT &#160;NOT NULL</text>
<polygon fill="none" stroke="black" points="85.18,-408 85.18,-428 331.18,-428 331.18,-408 85.18,-408"/>
<text text-anchor="start" x="90.18" y="-416.8" font-family="Verdana" font-weight="bold" font-size="9.00">share_class</text>
<text text-anchor="start" x="148.18" y="-416.8" font-family="Verdana" font-size="9.00">: </text>
<text text-anchor="start" x="155.18" y="-416.8" font-family="Verdana" font-style="italic" font-size="9.00">TEXT </text>
<polygon fill="none" stroke="black" points="85.18,-388 85.18,-408 331.18,-408 331.18,-388 85.18,-388"/>
<text text-anchor="start" x="90.18" y="-396.8" font-family="Verdana" font-weight="bold" font-size="9.00">currency_code</text>
<text text-anchor="start" x="164.18" y="-396.8" font-family="Verdana" font-size="9.00">: </text>
<text text-anchor="start" x="171.18" y="-396.8" font-family="Verdana" font-style="italic" font-size="9.00">VARCHAR(3) </text>
<polygon fill="none" stroke="black" points="85.18,-368 85.18,-388 331.18,-388 331.18,-368 85.18,-368"/>
<text text-anchor="start" x="90.18" y="-376.8" font-family="Verdana" font-weight="bold" font-size="9.00">status</text>
<text text-anchor="start" x="123.18" y="-376.8" font-family="Verdana" font-size="9.00">: </text>
<text text-anchor="start" x="130.18" y="-376.8" font-family="Verdana" font-style="italic" font-size="9.00">VARCHAR(24) &#160;NOT NULL</text>
<polygon fill="none" stroke="black" points="85.18,-348 85.18,-368 331.18,-368 331.18,-348 85.18,-348"/>
<text text-anchor="start" x="90.18" y="-356.8" font-family="Verdana" font-weight="bold" font-size="9.00">first_seen</text>
<text text-anchor="start" x="140.18" y="-356.8" font-family="Verdana" font-size="9.00">: </text>
<text text-anchor="start" x="147.18" y="-356.8" font-family="Verdana" font-style="italic" font-size="9.00">DATE </text>
<polygon fill="none" stroke="black" points="85.18,-328 85.18,-348 331.18,-348 331.18,-328 85.18,-328"/>
<text text-anchor="start" x="90.18" y="-336.8" font-family="Verdana" font-weight="bold" font-size="9.00">last_seen</text>
<text text-anchor="start" x="138.18" y="-336.8" font-family="Verdana" font-size="9.00">: </text>
<text text-anchor="start" x="145.18" y="-336.8" font-family="Verdana" font-style="italic" font-size="9.00">DATE </text>
<polygon fill="none" stroke="black" points="85.18,-308 85.18,-328 331.18,-328 331.18,-308 85.18,-308"/>
<text text-anchor="start" x="90.18" y="-316.8" font-family="Verdana" font-weight="bold" font-size="9.00">created_at</text>
<text text-anchor="start" x="145.18" y="-316.8" font-family="Verdana" font-size="9.00">: </text>
<text text-anchor="start" x="152.18" y="-316.8" font-family="Verdana" font-style="italic" font-size="9.00">TIMESTAMPTZ &#160;NOT NULL</text>
<polygon fill="none" stroke="black" points="85.18,-288 85.18,-308 331.18,-308 331.18,-288 85.18,-288"/>
<text text-anchor="start" x="90.18" y="-296.8" font-family="Verdana" font-weight="bold" font-size="9.00">updated_at</text>
<text text-anchor="start" x="149.18" y="-296.8" font-family="Verdana" font-size="9.00">: </text>
<text text-anchor="start" x="156.18" y="-296.8" font-family="Verdana" font-style="italic" font-size="9.00">TIMESTAMPTZ &#160;NOT NULL</text>
</g>
<!-- listing&#45;&gt;security -->
<g id="edge1" class="edge">
<title>listing:security_id&#45;&gt;security:security_id</title>
<path fill="none" stroke="black" d="M304.18,-822C318.29,-822 312.33,-578.74 303.18,-568 239.5,-493.24 149.8,-605.94 85.18,-532 78.34,-524.17 73.29,-511.04 75.71,-503.59"/>
<polygon fill="black" stroke="black" points="77.76,-506.43 84.18,-498 73.91,-500.59 77.76,-506.43"/>
</g>
<!-- provider -->
<g id="node3" class="node">
<title>provider</title>
<polygon fill="lightblue" stroke="transparent" points="337.18,-772 337.18,-792 541.18,-792 541.18,-772 337.18,-772"/>
<polygon fill="none" stroke="black" points="337.18,-772 337.18,-792 541.18,-792 541.18,-772 337.18,-772"/>
<text text-anchor="start" x="417.18" y="-780.8" font-family="Verdana" font-weight="bold" font-size="9.00">provider</text>
<polygon fill="none" stroke="black" points="337.18,-752 337.18,-772 541.18,-772 541.18,-752 337.18,-752"/>
<text text-anchor="start" x="342.18" y="-760.8" font-family="Verdana" font-weight="bold" font-size="9.00">provider_code</text>
<text text-anchor="start" x="415.18" y="-760.8" font-family="Verdana" font-size="9.00">: </text>
<text text-anchor="start" x="422.18" y="-760.8" font-family="Verdana" font-style="italic" font-size="9.00">VARCHAR(32) &#160;NOT NULL</text>
<polygon fill="none" stroke="black" points="337.18,-732 337.18,-752 541.18,-752 541.18,-732 337.18,-732"/>
<text text-anchor="start" x="342.18" y="-740.8" font-family="Verdana" font-weight="bold" font-size="9.00">provider_name</text>
<text text-anchor="start" x="419.18" y="-740.8" font-family="Verdana" font-size="9.00">: </text>
<text text-anchor="start" x="426.18" y="-740.8" font-family="Verdana" font-style="italic" font-size="9.00">TEXT &#160;NOT NULL</text>
<polygon fill="none" stroke="black" points="337.18,-712 337.18,-732 541.18,-732 541.18,-712 337.18,-712"/>
<text text-anchor="start" x="342.18" y="-720.8" font-family="Verdana" font-weight="bold" font-size="9.00">provider_type</text>
<text text-anchor="start" x="414.18" y="-720.8" font-family="Verdana" font-size="9.00">: </text>
<text text-anchor="start" x="421.18" y="-720.8" font-family="Verdana" font-style="italic" font-size="9.00">VARCHAR(32) &#160;NOT NULL</text>
<polygon fill="none" stroke="black" points="337.18,-692 337.18,-712 541.18,-712 541.18,-692 337.18,-692"/>
<text text-anchor="start" x="342.18" y="-700.8" font-family="Verdana" font-weight="bold" font-size="9.00">website</text>
<text text-anchor="start" x="382.18" y="-700.8" font-family="Verdana" font-size="9.00">: </text>
<text text-anchor="start" x="389.18" y="-700.8" font-family="Verdana" font-style="italic" font-size="9.00">TEXT </text>
<polygon fill="none" stroke="black" points="337.18,-672 337.18,-692 541.18,-692 541.18,-672 337.18,-672"/>
<text text-anchor="start" x="342.18" y="-680.8" font-family="Verdana" font-weight="bold" font-size="9.00">description</text>
<text text-anchor="start" x="400.18" y="-680.8" font-family="Verdana" font-size="9.00">: </text>
<text text-anchor="start" x="407.18" y="-680.8" font-family="Verdana" font-style="italic" font-size="9.00">TEXT </text>
<polygon fill="none" stroke="black" points="337.18,-652 337.18,-672 541.18,-672 541.18,-652 337.18,-652"/>
<text text-anchor="start" x="342.18" y="-660.8" font-family="Verdana" font-weight="bold" font-size="9.00">is_active</text>
<text text-anchor="start" x="386.18" y="-660.8" font-family="Verdana" font-size="9.00">: </text>
<text text-anchor="start" x="393.18" y="-660.8" font-family="Verdana" font-style="italic" font-size="9.00">BOOLEAN &#160;NOT NULL</text>
</g>
<!-- security&#45;&gt;issuer -->
<g id="edge6" class="edge">
<title>security:issuer_id&#45;&gt;issuer:issuer_id</title>
<path fill="none" stroke="black" d="M84.18,-478C41.07,-478 57.2,-316.8 85.18,-284 148.9,-209.28 238.56,-321.94 303.18,-248 310.02,-240.17 315.07,-227.04 312.65,-219.59"/>
<polygon fill="black" stroke="black" points="314.45,-216.59 304.18,-214 310.6,-222.43 314.45,-216.59"/>
</g>
<!-- security_event -->
<g id="node5" class="node">
<title>security_event</title>
<polygon fill="lightblue" stroke="transparent" points="54.18,-1156 54.18,-1176 270.18,-1176 270.18,-1156 54.18,-1156"/>
<polygon fill="none" stroke="black" points="54.18,-1156 54.18,-1176 270.18,-1176 270.18,-1156 54.18,-1156"/>
<text text-anchor="start" x="124.18" y="-1164.8" font-family="Verdana" font-weight="bold" font-size="9.00">security_event</text>
<polygon fill="none" stroke="black" points="54.18,-1136 54.18,-1156 270.18,-1156 270.18,-1136 54.18,-1136"/>
<text text-anchor="start" x="59.18" y="-1144.8" font-family="Verdana" font-weight="bold" font-size="9.00">event_id</text>
<text text-anchor="start" x="103.18" y="-1144.8" font-family="Verdana" font-size="9.00">: </text>
<text text-anchor="start" x="110.18" y="-1144.8" font-family="Verdana" font-style="italic" font-size="9.00">UUID &#160;NOT NULL</text>
<polygon fill="none" stroke="black" points="54.18,-1116 54.18,-1136 270.18,-1136 270.18,-1116 54.18,-1116"/>
<text text-anchor="start" x="59.18" y="-1124.8" font-family="Verdana" font-weight="bold" font-size="9.00">issuer_id</text>
<text text-anchor="start" x="105.18" y="-1124.8" font-family="Verdana" font-size="9.00">: </text>
<text text-anchor="start" x="112.18" y="-1124.8" font-family="Verdana" font-style="italic" font-size="9.00">UUID </text>
<polygon fill="none" stroke="black" points="54.18,-1096 54.18,-1116 270.18,-1116 270.18,-1096 54.18,-1096"/>
<text text-anchor="start" x="59.18" y="-1104.8" font-family="Verdana" font-weight="bold" font-size="9.00">security_id</text>
<text text-anchor="start" x="115.18" y="-1104.8" font-family="Verdana" font-size="9.00">: </text>
<text text-anchor="start" x="122.18" y="-1104.8" font-family="Verdana" font-style="italic" font-size="9.00">UUID </text>
<polygon fill="none" stroke="black" points="54.18,-1076 54.18,-1096 270.18,-1096 270.18,-1076 54.18,-1076"/>
<text text-anchor="start" x="59.18" y="-1084.8" font-family="Verdana" font-weight="bold" font-size="9.00">listing_id</text>
<text text-anchor="start" x="106.18" y="-1084.8" font-family="Verdana" font-size="9.00">: </text>
<text text-anchor="start" x="113.18" y="-1084.8" font-family="Verdana" font-style="italic" font-size="9.00">UUID </text>
<polygon fill="none" stroke="black" points="54.18,-1056 54.18,-1076 270.18,-1076 270.18,-1056 54.18,-1056"/>
<text text-anchor="start" x="59.18" y="-1064.8" font-family="Verdana" font-weight="bold" font-size="9.00">event_type</text>
<text text-anchor="start" x="117.18" y="-1064.8" font-family="Verdana" font-size="9.00">: </text>
<text text-anchor="start" x="124.18" y="-1064.8" font-family="Verdana" font-style="italic" font-size="9.00">VARCHAR(32) &#160;NOT NULL</text>
<polygon fill="none" stroke="black" points="54.18,-1036 54.18,-1056 270.18,-1056 270.18,-1036 54.18,-1036"/>
<text text-anchor="start" x="59.18" y="-1044.8" font-family="Verdana" font-weight="bold" font-size="9.00">event_date</text>
<text text-anchor="start" x="117.18" y="-1044.8" font-family="Verdana" font-size="9.00">: </text>
<text text-anchor="start" x="124.18" y="-1044.8" font-family="Verdana" font-style="italic" font-size="9.00">DATE </text>
<polygon fill="none" stroke="black" points="54.18,-1016 54.18,-1036 270.18,-1036 270.18,-1016 54.18,-1016"/>
<text text-anchor="start" x="59.18" y="-1024.8" font-family="Verdana" font-weight="bold" font-size="9.00">source_code</text>
<text text-anchor="start" x="122.18" y="-1024.8" font-family="Verdana" font-size="9.00">: </text>
<text text-anchor="start" x="129.18" y="-1024.8" font-family="Verdana" font-style="italic" font-size="9.00">VARCHAR(32) </text>
<polygon fill="none" stroke="black" points="54.18,-996 54.18,-1016 270.18,-1016 270.18,-996 54.18,-996"/>
<text text-anchor="start" x="59.18" y="-1004.8" font-family="Verdana" font-weight="bold" font-size="9.00">confidence_code</text>
<text text-anchor="start" x="144.18" y="-1004.8" font-family="Verdana" font-size="9.00">: </text>
<text text-anchor="start" x="151.18" y="-1004.8" font-family="Verdana" font-style="italic" font-size="9.00">VARCHAR(16) &#160;NOT NULL</text>
<polygon fill="none" stroke="black" points="54.18,-976 54.18,-996 270.18,-996 270.18,-976 54.18,-976"/>
<text text-anchor="start" x="59.18" y="-984.8" font-family="Verdana" font-weight="bold" font-size="9.00">description</text>
<text text-anchor="start" x="117.18" y="-984.8" font-family="Verdana" font-size="9.00">: </text>
<text text-anchor="start" x="124.18" y="-984.8" font-family="Verdana" font-style="italic" font-size="9.00">TEXT </text>
<polygon fill="none" stroke="black" points="54.18,-956 54.18,-976 270.18,-976 270.18,-956 54.18,-956"/>
<text text-anchor="start" x="59.18" y="-964.8" font-family="Verdana" font-weight="bold" font-size="9.00">details_json</text>
<text text-anchor="start" x="120.18" y="-964.8" font-family="Verdana" font-size="9.00">: </text>
<text text-anchor="start" x="127.18" y="-964.8" font-family="Verdana" font-style="italic" font-size="9.00">JSONB </text>
<polygon fill="none" stroke="black" points="54.18,-936 54.18,-956 270.18,-956 270.18,-936 54.18,-936"/>
<text text-anchor="start" x="59.18" y="-944.8" font-family="Verdana" font-weight="bold" font-size="9.00">created_at</text>
<text text-anchor="start" x="114.18" y="-944.8" font-family="Verdana" font-size="9.00">: </text>
<text text-anchor="start" x="121.18" y="-944.8" font-family="Verdana" font-style="italic" font-size="9.00">TIMESTAMPTZ &#160;NOT NULL</text>
</g>
<!-- security_event&#45;&gt;issuer -->
<g id="edge2" class="edge">
<title>security_event:issuer_id&#45;&gt;issuer:issuer_id</title>
<path fill="none" stroke="black" d="M53.18,-1126C-45.09,-1126 6.07,-271.83 101.5,-216.78"/>
<polygon fill="black" stroke="black" points="102.54,-220.13 111.18,-214 100.6,-213.4 102.54,-220.13"/>
</g>
<!-- security_event&#45;&gt;listing -->
<g id="edge3" class="edge">
<title>security_event:listing_id&#45;&gt;listing:listing_id</title>
<path fill="none" stroke="black" d="M271.18,-1086C305.4,-1086 290.02,-959.89 270.18,-932 226.99,-871.29 156.06,-936.21 112.18,-876 106.13,-867.7 100.86,-854.97 102.85,-847.67"/>
<polygon fill="black" stroke="black" points="104.88,-850.52 111.18,-842 100.94,-844.74 104.88,-850.52"/>
</g>
<!-- security_event&#45;&gt;provider -->
<g id="edge4" class="edge">
<title>security_event:source_code&#45;&gt;provider:provider_code</title>
<path fill="none" stroke="black" d="M271.18,-1026C341.31,-1026 304.36,-944.33 320.18,-876 325.12,-854.68 314.6,-786.41 327.47,-767.12"/>
<polygon fill="black" stroke="black" points="329.33,-770.08 336.18,-762 325.78,-764.05 329.33,-770.08"/>
</g>
<!-- security_event&#45;&gt;security -->
<g id="edge5" class="edge">
<title>security_event:security_id&#45;&gt;security:security_id</title>
<path fill="none" stroke="black" d="M53.18,-1106C37.52,-1106 62.93,-584.9 80.21,-507.55"/>
<polygon fill="black" stroke="black" points="83.57,-508.58 84.18,-498 77.11,-505.89 83.57,-508.58"/>
</g>
<!-- source_evidence -->
<g id="node6" class="node">
<title>source_evidence</title>
<polygon fill="lightblue" stroke="transparent" points="340.18,-1420 340.18,-1440 541.18,-1440 541.18,-1420 340.18,-1420"/>
<polygon fill="none" stroke="black" points="340.18,-1420 340.18,-1440 541.18,-1440 541.18,-1420 340.18,-1420"/>
<text text-anchor="start" x="398.18" y="-1428.8" font-family="Verdana" font-weight="bold" font-size="9.00">source_evidence</text>
<polygon fill="none" stroke="black" points="340.18,-1400 340.18,-1420 541.18,-1420 541.18,-1400 340.18,-1400"/>
<text text-anchor="start" x="345.18" y="-1408.8" font-family="Verdana" font-weight="bold" font-size="9.00">source_evidence_id</text>
<text text-anchor="start" x="444.18" y="-1408.8" font-family="Verdana" font-size="9.00">: </text>
<text text-anchor="start" x="451.18" y="-1408.8" font-family="Verdana" font-style="italic" font-size="9.00">UUID &#160;NOT NULL</text>
<polygon fill="none" stroke="black" points="340.18,-1380 340.18,-1400 541.18,-1400 541.18,-1380 340.18,-1380"/>
<text text-anchor="start" x="345.18" y="-1388.8" font-family="Verdana" font-weight="bold" font-size="9.00">source_obs_id</text>
<text text-anchor="start" x="416.18" y="-1388.8" font-family="Verdana" font-size="9.00">: </text>
<text text-anchor="start" x="423.18" y="-1388.8" font-family="Verdana" font-style="italic" font-size="9.00">UUID &#160;NOT NULL</text>
<polygon fill="none" stroke="black" points="340.18,-1360 340.18,-1380 541.18,-1380 541.18,-1360 340.18,-1360"/>
<text text-anchor="start" x="345.18" y="-1368.8" font-family="Verdana" font-weight="bold" font-size="9.00">issuer_id</text>
<text text-anchor="start" x="391.18" y="-1368.8" font-family="Verdana" font-size="9.00">: </text>
<text text-anchor="start" x="398.18" y="-1368.8" font-family="Verdana" font-style="italic" font-size="9.00">UUID </text>
<polygon fill="none" stroke="black" points="340.18,-1340 340.18,-1360 541.18,-1360 541.18,-1340 340.18,-1340"/>
<text text-anchor="start" x="345.18" y="-1348.8" font-family="Verdana" font-weight="bold" font-size="9.00">security_id</text>
<text text-anchor="start" x="401.18" y="-1348.8" font-family="Verdana" font-size="9.00">: </text>
<text text-anchor="start" x="408.18" y="-1348.8" font-family="Verdana" font-style="italic" font-size="9.00">UUID </text>
<polygon fill="none" stroke="black" points="340.18,-1320 340.18,-1340 541.18,-1340 541.18,-1320 340.18,-1320"/>
<text text-anchor="start" x="345.18" y="-1328.8" font-family="Verdana" font-weight="bold" font-size="9.00">listing_id</text>
<text text-anchor="start" x="392.18" y="-1328.8" font-family="Verdana" font-size="9.00">: </text>
<text text-anchor="start" x="399.18" y="-1328.8" font-family="Verdana" font-style="italic" font-size="9.00">UUID </text>
<polygon fill="none" stroke="black" points="340.18,-1300 340.18,-1320 541.18,-1320 541.18,-1300 340.18,-1300"/>
<text text-anchor="start" x="345.18" y="-1308.8" font-family="Verdana" font-weight="bold" font-size="9.00">event_id</text>
<text text-anchor="start" x="389.18" y="-1308.8" font-family="Verdana" font-size="9.00">: </text>
<text text-anchor="start" x="396.18" y="-1308.8" font-family="Verdana" font-style="italic" font-size="9.00">UUID </text>
<polygon fill="none" stroke="black" points="340.18,-1280 340.18,-1300 541.18,-1300 541.18,-1280 340.18,-1280"/>
<text text-anchor="start" x="345.18" y="-1288.8" font-family="Verdana" font-weight="bold" font-size="9.00">evidence_role</text>
<text text-anchor="start" x="415.18" y="-1288.8" font-family="Verdana" font-size="9.00">: </text>
<text text-anchor="start" x="422.18" y="-1288.8" font-family="Verdana" font-style="italic" font-size="9.00">VARCHAR(24) &#160;NOT NULL</text>
<polygon fill="none" stroke="black" points="340.18,-1260 340.18,-1280 541.18,-1280 541.18,-1260 340.18,-1260"/>
<text text-anchor="start" x="345.18" y="-1268.8" font-family="Verdana" font-weight="bold" font-size="9.00">notes</text>
<text text-anchor="start" x="374.18" y="-1268.8" font-family="Verdana" font-size="9.00">: </text>
<text text-anchor="start" x="381.18" y="-1268.8" font-family="Verdana" font-style="italic" font-size="9.00">TEXT </text>
<polygon fill="none" stroke="black" points="340.18,-1240 340.18,-1260 541.18,-1260 541.18,-1240 340.18,-1240"/>
<text text-anchor="start" x="345.18" y="-1248.8" font-family="Verdana" font-weight="bold" font-size="9.00">created_at</text>
<text text-anchor="start" x="400.18" y="-1248.8" font-family="Verdana" font-size="9.00">: </text>
<text text-anchor="start" x="407.18" y="-1248.8" font-family="Verdana" font-style="italic" font-size="9.00">TIMESTAMPTZ &#160;NOT NULL</text>
</g>
<!-- source_evidence&#45;&gt;issuer -->
<g id="edge8" class="edge">
<title>source_evidence:issuer_id&#45;&gt;issuer:issuer_id</title>
<path fill="none" stroke="black" d="M542.18,-1370C720.61,-1370 640.56,-736.26 581.18,-568 515.83,-382.83 504.34,-219.67 314.26,-214.14"/>
<polygon fill="black" stroke="black" points="314.23,-210.64 304.18,-214 314.13,-217.64 314.23,-210.64"/>
</g>
<!-- source_evidence&#45;&gt;listing -->
<g id="edge9" class="edge">
<title>source_evidence:listing_id&#45;&gt;listing:listing_id</title>
<path fill="none" stroke="black" d="M339.18,-1330C314.12,-1330 328.62,-915.27 309.74,-850.47"/>
<polygon fill="black" stroke="black" points="312.59,-848.44 304.18,-842 306.74,-852.28 312.59,-848.44"/>
</g>
<!-- source_evidence&#45;&gt;security -->
<g id="edge11" class="edge">
<title>source_evidence:security_id&#45;&gt;security:security_id</title>
<path fill="none" stroke="black" d="M542.18,-1350C585.63,-1350 583.96,-602.98 558.18,-568 528.81,-528.16 401.04,-501.29 342.3,-498.28"/>
<polygon fill="black" stroke="black" points="342.27,-494.78 332.18,-498 342.08,-501.78 342.27,-494.78"/>
</g>
<!-- source_evidence&#45;&gt;security_event -->
<g id="edge7" class="edge">
<title>source_evidence:event_id&#45;&gt;security_event:event_id</title>
<path fill="none" stroke="black" d="M339.18,-1310C286.02,-1310 312.26,-1249.23 292.18,-1200 284.12,-1180.25 292.67,-1156.18 281.22,-1148.49"/>
<polygon fill="black" stroke="black" points="281.73,-1145.01 271.18,-1146 280.04,-1151.8 281.73,-1145.01"/>
</g>
<!-- source_observation -->
<g id="node7" class="node">
<title>source_observation</title>
<polygon fill="lightblue" stroke="transparent" points="343.18,-1176 343.18,-1196 538.18,-1196 538.18,-1176 343.18,-1176"/>
<polygon fill="none" stroke="black" points="343.18,-1176 343.18,-1196 538.18,-1196 538.18,-1176 343.18,-1176"/>
<text text-anchor="start" x="390.68" y="-1184.8" font-family="Verdana" font-weight="bold" font-size="9.00">source_observation</text>
<polygon fill="none" stroke="black" points="343.18,-1156 343.18,-1176 538.18,-1176 538.18,-1156 343.18,-1156"/>
<text text-anchor="start" x="348.18" y="-1164.8" font-family="Verdana" font-weight="bold" font-size="9.00">source_obs_id</text>
<text text-anchor="start" x="419.18" y="-1164.8" font-family="Verdana" font-size="9.00">: </text>
<text text-anchor="start" x="426.18" y="-1164.8" font-family="Verdana" font-style="italic" font-size="9.00">UUID &#160;NOT NULL</text>
<polygon fill="none" stroke="black" points="343.18,-1136 343.18,-1156 538.18,-1156 538.18,-1136 343.18,-1136"/>
<text text-anchor="start" x="348.18" y="-1144.8" font-family="Verdana" font-weight="bold" font-size="9.00">source_code</text>
<text text-anchor="start" x="411.18" y="-1144.8" font-family="Verdana" font-size="9.00">: </text>
<text text-anchor="start" x="418.18" y="-1144.8" font-family="Verdana" font-style="italic" font-size="9.00">VARCHAR(32) &#160;NOT NULL</text>
<polygon fill="none" stroke="black" points="343.18,-1116 343.18,-1136 538.18,-1136 538.18,-1116 343.18,-1116"/>
<text text-anchor="start" x="348.18" y="-1124.8" font-family="Verdana" font-weight="bold" font-size="9.00">source_date</text>
<text text-anchor="start" x="410.18" y="-1124.8" font-family="Verdana" font-size="9.00">: </text>
<text text-anchor="start" x="417.18" y="-1124.8" font-family="Verdana" font-style="italic" font-size="9.00">DATE </text>
<polygon fill="none" stroke="black" points="343.18,-1096 343.18,-1116 538.18,-1116 538.18,-1096 343.18,-1096"/>
<text text-anchor="start" x="348.18" y="-1104.8" font-family="Verdana" font-weight="bold" font-size="9.00">observed_at</text>
<text text-anchor="start" x="411.18" y="-1104.8" font-family="Verdana" font-size="9.00">: </text>
<text text-anchor="start" x="418.18" y="-1104.8" font-family="Verdana" font-style="italic" font-size="9.00">TIMESTAMPTZ &#160;NOT NULL</text>
<polygon fill="none" stroke="black" points="343.18,-1076 343.18,-1096 538.18,-1096 538.18,-1076 343.18,-1076"/>
<text text-anchor="start" x="348.18" y="-1084.8" font-family="Verdana" font-weight="bold" font-size="9.00">accession_no</text>
<text text-anchor="start" x="415.18" y="-1084.8" font-family="Verdana" font-size="9.00">: </text>
<text text-anchor="start" x="422.18" y="-1084.8" font-family="Verdana" font-style="italic" font-size="9.00">TEXT </text>
<polygon fill="none" stroke="black" points="343.18,-1056 343.18,-1076 538.18,-1076 538.18,-1056 343.18,-1056"/>
<text text-anchor="start" x="348.18" y="-1064.8" font-family="Verdana" font-weight="bold" font-size="9.00">form_type</text>
<text text-anchor="start" x="400.18" y="-1064.8" font-family="Verdana" font-size="9.00">: </text>
<text text-anchor="start" x="407.18" y="-1064.8" font-family="Verdana" font-style="italic" font-size="9.00">VARCHAR(16) </text>
<polygon fill="none" stroke="black" points="343.18,-1036 343.18,-1056 538.18,-1056 538.18,-1036 343.18,-1036"/>
<text text-anchor="start" x="348.18" y="-1044.8" font-family="Verdana" font-weight="bold" font-size="9.00">filing_date</text>
<text text-anchor="start" x="403.18" y="-1044.8" font-family="Verdana" font-size="9.00">: </text>
<text text-anchor="start" x="410.18" y="-1044.8" font-family="Verdana" font-style="italic" font-size="9.00">DATE </text>
<polygon fill="none" stroke="black" points="343.18,-1016 343.18,-1036 538.18,-1036 538.18,-1016 343.18,-1016"/>
<text text-anchor="start" x="348.18" y="-1024.8" font-family="Verdana" font-weight="bold" font-size="9.00">object_id</text>
<text text-anchor="start" x="394.18" y="-1024.8" font-family="Verdana" font-size="9.00">: </text>
<text text-anchor="start" x="401.18" y="-1024.8" font-family="Verdana" font-style="italic" font-size="9.00">UUID </text>
<polygon fill="none" stroke="black" points="343.18,-996 343.18,-1016 538.18,-1016 538.18,-996 343.18,-996"/>
<text text-anchor="start" x="348.18" y="-1004.8" font-family="Verdana" font-weight="bold" font-size="9.00">object_key</text>
<text text-anchor="start" x="403.18" y="-1004.8" font-family="Verdana" font-size="9.00">: </text>
<text text-anchor="start" x="410.18" y="-1004.8" font-family="Verdana" font-style="italic" font-size="9.00">TEXT </text>
<polygon fill="none" stroke="black" points="343.18,-976 343.18,-996 538.18,-996 538.18,-976 343.18,-976"/>
<text text-anchor="start" x="348.18" y="-984.8" font-family="Verdana" font-weight="bold" font-size="9.00">source_url</text>
<text text-anchor="start" x="401.18" y="-984.8" font-family="Verdana" font-size="9.00">: </text>
<text text-anchor="start" x="408.18" y="-984.8" font-family="Verdana" font-style="italic" font-size="9.00">TEXT </text>
<polygon fill="none" stroke="black" points="343.18,-956 343.18,-976 538.18,-976 538.18,-956 343.18,-956"/>
<text text-anchor="start" x="348.18" y="-964.8" font-family="Verdana" font-weight="bold" font-size="9.00">raw_key</text>
<text text-anchor="start" x="390.18" y="-964.8" font-family="Verdana" font-size="9.00">: </text>
<text text-anchor="start" x="397.18" y="-964.8" font-family="Verdana" font-style="italic" font-size="9.00">TEXT </text>
<polygon fill="none" stroke="black" points="343.18,-936 343.18,-956 538.18,-956 538.18,-936 343.18,-936"/>
<text text-anchor="start" x="348.18" y="-944.8" font-family="Verdana" font-weight="bold" font-size="9.00">summary_json</text>
<text text-anchor="start" x="422.18" y="-944.8" font-family="Verdana" font-size="9.00">: </text>
<text text-anchor="start" x="429.18" y="-944.8" font-family="Verdana" font-style="italic" font-size="9.00">JSONB </text>
<polygon fill="none" stroke="black" points="343.18,-916 343.18,-936 538.18,-936 538.18,-916 343.18,-916"/>
<text text-anchor="start" x="348.18" y="-924.8" font-family="Verdana" font-weight="bold" font-size="9.00">created_at</text>
<text text-anchor="start" x="403.18" y="-924.8" font-family="Verdana" font-size="9.00">: </text>
<text text-anchor="start" x="410.18" y="-924.8" font-family="Verdana" font-style="italic" font-size="9.00">TIMESTAMPTZ &#160;NOT NULL</text>
</g>
<!-- source_evidence&#45;&gt;source_observation -->
<g id="edge10" class="edge">
<title>source_evidence:source_obs_id&#45;&gt;source_observation:source_obs_id</title>
<path fill="none" stroke="black" d="M339.18,-1390C317.01,-1390 316.97,-1212.32 334.81,-1173.45"/>
<polygon fill="black" stroke="black" points="337.63,-1175.57 342.18,-1166 332.66,-1170.65 337.63,-1175.57"/>
</g>
<!-- source_observation&#45;&gt;provider -->
<g id="edge12" class="edge">
<title>source_observation:source_code&#45;&gt;provider:provider_code</title>
<path fill="none" stroke="black" d="M342.18,-1146C316.18,-1146 330.2,-934.53 343.18,-912 394.08,-823.62 489.17,-883.73 541.18,-796 546.3,-787.36 551.73,-775.2 550.37,-768.01"/>
<polygon fill="black" stroke="black" points="552.31,-765.09 542.18,-762 548.17,-770.74 552.31,-765.09"/>
</g>
</g>
</svg>
