<?xml version="1.0" encoding="UTF-8" standalone="no"?>
<!DOCTYPE svg PUBLIC "-//W3C//DTD SVG 1.1//EN"
 "http://www.w3.org/Graphics/SVG/1.1/DTD/svg11.dtd">
<!-- Generated by graphviz version 2.42.4 (0)
 -->
<!-- Title: ERD Pages: 1 -->
<svg width="676pt" height="1452pt"
 viewBox="0.00 0.00 675.91 1452.00" xmlns="http://www.w3.org/2000/svg" xmlns:xlink="http://www.w3.org/1999/xlink">
<g id="graph0" class="graph" transform="scale(1 1) rotate(0) translate(4 1448)">
<title>ERD</title>
<polygon fill="white" stroke="transparent" points="-4,4 -4,-1448 671.91,-1448 671.91,4 -4,4"/>
<!-- issuer -->
<g id="node1" class="node">
<title>issuer</title>
<polygon fill="lightblue" stroke="transparent" points="168.65,-224 168.65,-244 359.65,-244 359.65,-224 168.65,-224"/>
<polygon fill="none" stroke="black" points="168.65,-224 168.65,-244 359.65,-244 359.65,-224 168.65,-224"/>
<text text-anchor="start" x="248.65" y="-232.8" font-family="Verdana" font-weight="bold" font-size="9.00">issuer</text>
<polygon fill="none" stroke="black" points="168.65,-204 168.65,-224 359.65,-224 359.65,-204 168.65,-204"/>
<text text-anchor="start" x="173.65" y="-212.8" font-family="Verdana" font-weight="bold" font-size="9.00">issuer_id</text>
<text text-anchor="start" x="219.65" y="-212.8" font-family="Verdana" font-size="9.00">: </text>
<text text-anchor="start" x="226.65" y="-212.8" font-family="Verdana" font-style="italic" font-size="9.00">UUID &#160;NOT NULL</text>
<polygon fill="none" stroke="black" points="168.65,-184 168.65,-204 359.65,-204 359.65,-184 168.65,-184"/>
<text text-anchor="start" x="173.65" y="-192.8" font-family="Verdana" font-weight="bold" font-size="9.00">cik</text>
<text text-anchor="start" x="188.65" y="-192.8" font-family="Verdana" font-size="9.00">: </text>
<text text-anchor="start" x="195.65" y="-192.8" font-family="Verdana" font-style="italic" font-size="9.00">VARCHAR(10) </text>
<polygon fill="none" stroke="black" points="168.65,-164 168.65,-184 359.65,-184 359.65,-164 168.65,-164"/>
<text text-anchor="start" x="173.65" y="-172.8" font-family="Verdana" font-weight="bold" font-size="9.00">issuer_type</text>
<text text-anchor="start" x="232.65" y="-172.8" font-family="Verdana" font-size="9.00">: </text>
<text text-anchor="start" x="239.65" y="-172.8" font-family="Verdana" font-style="italic" font-size="9.00">VARCHAR(32) &#160;NOT NULL</text>
<polygon fill="none" stroke="black" points="168.65,-144 168.65,-164 359.65,-164 359.65,-144 168.65,-144"/>
<text text-anchor="start" x="173.65" y="-152.8" font-family="Verdana" font-weight="bold" font-size="9.00">current_name</text>
<text text-anchor="start" x="245.65" y="-152.8" font-family="Verdana" font-size="9.00">: </text>
<text text-anchor="start" x="252.65" y="-152.8" font-family="Verdana" font-style="italic" font-size="9.00">TEXT &#160;NOT NULL</text>
<polygon fill="none" stroke="black" points="168.65,-124 168.65,-144 359.65,-144 359.65,-124 168.65,-124"/>
<text text-anchor="start" x="173.65" y="-132.8" font-family="Verdana" font-weight="bold" font-size="9.00">country_alpha2</text>
<text text-anchor="start" x="252.65" y="-132.8" font-family="Verdana" font-size="9.00">: </text>
<text text-anchor="start" x="259.65" y="-132.8" font-family="Verdana" font-style="italic" font-size="9.00">VARCHAR(2) </text>
<polygon fill="none" stroke="black" points="168.65,-104 168.65,-124 359.65,-124 359.65,-104 168.65,-104"/>
<text text-anchor="start" x="173.65" y="-112.8" font-family="Verdana" font-weight="bold" font-size="9.00">sic_code</text>
<text text-anchor="start" x="216.65" y="-112.8" font-family="Verdana" font-size="9.00">: </text>
<text text-anchor="start" x="223.65" y="-112.8" font-family="Verdana" font-style="italic" font-size="9.00">VARCHAR(4) </text>
<polygon fill="none" stroke="black" points="168.65,-84 168.65,-104 359.65,-104 359.65,-84 168.65,-84"/>
<text text-anchor="start" x="173.65" y="-92.8" font-family="Verdana" font-weight="bold" font-size="9.00">status</text>
<text text-anchor="start" x="206.65" y="-92.8" font-family="Verdana" font-size="9.00">: </text>
<text text-anchor="start" x="213.65" y="-92.8" font-family="Verdana" font-style="italic" font-size="9.00">VARCHAR(24) &#160;NOT NULL</text>
<polygon fill="none" stroke="black" points="168.65,-64 168.65,-84 359.65,-84 359.65,-64 168.65,-64"/>
<text text-anchor="start" x="173.65" y="-72.8" font-family="Verdana" font-weight="bold" font-size="9.00">first_seen</text>
<text text-anchor="start" x="223.65" y="-72.8" font-family="Verdana" font-size="9.00">: </text>
<text text-anchor="start" x="230.65" y="-72.8" font-family="Verdana" font-style="italic" font-size="9.00">DATE </text>
<polygon fill="none" stroke="black" points="168.65,-44 168.65,-64 359.65,-64 359.65,-44 168.65,-44"/>
<text text-anchor="start" x="173.65" y="-52.8" font-family="Verdana" font-weight="bold" font-size="9.00">last_seen</text>
<text text-anchor="start" x="221.65" y="-52.8" font-family="Verdana" font-size="9.00">: </text>
<text text-anchor="start" x="228.65" y="-52.8" font-family="Verdana" font-style="italic" font-size="9.00">DATE </text>
<polygon fill="none" stroke="black" points="168.65,-24 168.65,-44 359.65,-44 359.65,-24 168.65,-24"/>
<text text-anchor="start" x="173.65" y="-32.8" font-family="Verdana" font-weight="bold" font-size="9.00">created_at</text>
<text text-anchor="start" x="228.65" y="-32.8" font-family="Verdana" font-size="9.00">: </text>
<text text-anchor="start" x="235.65" y="-32.8" font-family="Verdana" font-style="italic" font-size="9.00">TIMESTAMPTZ &#160;NOT NULL</text>
<polygon fill="none" stroke="black" points="168.65,-4 168.65,-24 359.65,-24 359.65,-4 168.65,-4"/>
<text text-anchor="start" x="173.65" y="-12.8" font-family="Verdana" font-weight="bold" font-size="9.00">updated_at</text>
<text text-anchor="start" x="232.65" y="-12.8" font-family="Verdana" font-size="9.00">: </text>
<text text-anchor="start" x="239.65" y="-12.8" font-family="Verdana" font-style="italic" font-size="9.00">TIMESTAMPTZ &#160;NOT NULL</text>
</g>
<!-- listing -->
<g id="node2" class="node">
<title>listing</title>
<polygon fill="lightblue" stroke="transparent" points="168.65,-852 168.65,-872 359.65,-872 359.65,-852 168.65,-852"/>
<polygon fill="none" stroke="black" points="168.65,-852 168.65,-872 359.65,-872 359.65,-852 168.65,-852"/>
<text text-anchor="start" x="247.65" y="-860.8" font-family="Verdana" font-weight="bold" font-size="9.00">listing</text>
<polygon fill="none" stroke="black" points="168.65,-832 168.65,-852 359.65,-852 359.65,-832 168.65,-832"/>
<text text-anchor="start" x="173.65" y="-840.8" font-family="Verdana" font-weight="bold" font-size="9.00">listing_id</text>
<text text-anchor="start" x="220.65" y="-840.8" font-family="Verdana" font-size="9.00">: </text>
<text text-anchor="start" x="227.65" y="-840.8" font-family="Verdana" font-style="italic" font-size="9.00">UUID &#160;NOT NULL</text>
<polygon fill="none" stroke="black" points="168.65,-812 168.65,-832 359.65,-832 359.65,-812 168.65,-812"/>
<text text-anchor="start" x="173.65" y="-820.8" font-family="Verdana" font-weight="bold" font-size="9.00">security_id</text>
<text text-anchor="start" x="229.65" y="-820.8" font-family="Verdana" font-size="9.00">: </text>
<text text-anchor="start" x="236.65" y="-820.8" font-family="Verdana" font-style="italic" font-size="9.00">UUID &#160;NOT NULL</text>
<polygon fill="none" stroke="black" points="168.65,-792 168.65,-812 359.65,-812 359.65,-792 168.65,-792"/>
<text text-anchor="start" x="173.65" y="-800.8" font-family="Verdana" font-weight="bold" font-size="9.00">exchange_id</text>
<text text-anchor="start" x="237.65" y="-800.8" font-family="Verdana" font-size="9.00">: </text>
<text text-anchor="start" x="244.65" y="-800.8" font-family="Verdana" font-style="italic" font-size="9.00">UUID &#160;NOT NULL</text>
<polygon fill="none" stroke="black" points="168.65,-772 168.65,-792 359.65,-792 359.65,-772 168.65,-772"/>
<text text-anchor="start" x="173.65" y="-780.8" font-family="Verdana" font-weight="bold" font-size="9.00">current_ticker</text>
<text text-anchor="start" x="246.65" y="-780.8" font-family="Verdana" font-size="9.00">: </text>
<text text-anchor="start" x="253.65" y="-780.8" font-family="Verdana" font-style="italic" font-size="9.00">TEXT </text>
<polygon fill="none" stroke="black" points="168.65,-752 168.65,-772 359.65,-772 359.65,-752 168.65,-752"/>
<text text-anchor="start" x="173.65" y="-760.8" font-family="Verdana" font-weight="bold" font-size="9.00">ticker_norm</text>
<text text-anchor="start" x="234.65" y="-760.8" font-family="Verdana" font-size="9.00">: </text>
<text text-anchor="start" x="241.65" y="-760.8" font-family="Verdana" font-style="italic" font-size="9.00">TEXT </text>
<polygon fill="none" stroke="black" points="168.65,-732 168.65,-752 359.65,-752 359.65,-732 168.65,-732"/>
<text text-anchor="start" x="173.65" y="-740.8" font-family="Verdana" font-weight="bold" font-size="9.00">currency_code</text>
<text text-anchor="start" x="247.65" y="-740.8" font-family="Verdana" font-size="9.00">: </text>
<text text-anchor="start" x="254.65" y="-740.8" font-family="Verdana" font-style="italic" font-size="9.00">VARCHAR(3) </text>
<polygon fill="none" stroke="black" points="168.65,-712 168.65,-732 359.65,-732 359.65,-712 168.65,-712"/>
<text text-anchor="start" x="173.65" y="-720.8" font-family="Verdana" font-weight="bold" font-size="9.00">is_primary</text>
<text text-anchor="start" x="227.65" y="-720.8" font-family="Verdana" font-size="9.00">: </text>
<text text-anchor="start" x="234.65" y="-720.8" font-family="Verdana" font-style="italic" font-size="9.00">BOOLEAN &#160;NOT NULL</text>
<polygon fill="none" stroke="black" points="168.65,-692 168.65,-712 359.65,-712 359.65,-692 168.65,-692"/>
<text text-anchor="start" x="173.65" y="-700.8" font-family="Verdana" font-weight="bold" font-size="9.00">status</text>
<text text-anchor="start" x="206.65" y="-700.8" font-family="Verdana" font-size="9.00">: </text>
<text text-anchor="start" x="213.65" y="-700.8" font-family="Verdana" font-style="italic" font-size="9.00">VARCHAR(32) &#160;NOT NULL</text>
<polygon fill="none" stroke="black" points="168.65,-672 168.65,-692 359.65,-692 359.65,-672 168.65,-672"/>
<text text-anchor="start" x="173.65" y="-680.8" font-family="Verdana" font-weight="bold" font-size="9.00">valid_from</text>
<text text-anchor="start" x="227.65" y="-680.8" font-family="Verdana" font-size="9.00">: </text>
<text text-anchor="start" x="234.65" y="-680.8" font-family="Verdana" font-style="italic" font-size="9.00">DATE </text>
<polygon fill="none" stroke="black" points="168.65,-652 168.65,-672 359.65,-672 359.65,-652 168.65,-652"/>
<text text-anchor="start" x="173.65" y="-660.8" font-family="Verdana" font-weight="bold" font-size="9.00">valid_to</text>
<text text-anchor="start" x="213.65" y="-660.8" font-family="Verdana" font-size="9.00">: </text>
<text text-anchor="start" x="220.65" y="-660.8" font-family="Verdana" font-style="italic" font-size="9.00">DATE </text>
<polygon fill="none" stroke="black" points="168.65,-632 168.65,-652 359.65,-652 359.65,-632 168.65,-632"/>
<text text-anchor="start" x="173.65" y="-640.8" font-family="Verdana" font-weight="bold" font-size="9.00">first_seen</text>
<text text-anchor="start" x="223.65" y="-640.8" font-family="Verdana" font-size="9.00">: </text>
<text text-anchor="start" x="230.65" y="-640.8" font-family="Verdana" font-style="italic" font-size="9.00">DATE </text>
<polygon fill="none" stroke="black" points="168.65,-612 168.65,-632 359.65,-632 359.65,-612 168.65,-612"/>
<text text-anchor="start" x="173.65" y="-620.8" font-family="Verdana" font-weight="bold" font-size="9.00">last_seen</text>
<text text-anchor="start" x="221.65" y="-620.8" font-family="Verdana" font-size="9.00">: </text>
<text text-anchor="start" x="228.65" y="-620.8" font-family="Verdana" font-style="italic" font-size="9.00">DATE </text>
<polygon fill="none" stroke="black" points="168.65,-592 168.65,-612 359.65,-612 359.65,-592 168.65,-592"/>
<text text-anchor="start" x="173.65" y="-600.8" font-family="Verdana" font-weight="bold" font-size="9.00">created_at</text>
<text text-anchor="start" x="228.65" y="-600.8" font-family="Verdana" font-size="9.00">: </text>
<text text-anchor="start" x="235.65" y="-600.8" font-family="Verdana" font-style="italic" font-size="9.00">TIMESTAMPTZ &#160;NOT NULL</text>
<polygon fill="none" stroke="black" points="168.65,-572 168.65,-592 359.65,-592 359.65,-572 168.65,-572"/>
<text text-anchor="start" x="173.65" y="-580.8" font-family="Verdana" font-weight="bold" font-size="9.00">updated_at</text>
<text text-anchor="start" x="232.65" y="-580.8" font-family="Verdana" font-size="9.00">: </text>
<text text-anchor="start" x="239.65" y="-580.8" font-family="Verdana" font-style="italic" font-size="9.00">TIMESTAMPTZ &#160;NOT NULL</text>
</g>
<!-- security -->
<g id="node3" class="node">
<title>security</title>
<polygon fill="lightblue" stroke="transparent" points="141.65,-508 141.65,-528 387.65,-528 387.65,-508 141.65,-508"/>
<polygon fill="none" stroke="black" points="141.65,-508 141.65,-528 387.65,-528 387.65,-508 141.65,-508"/>
<text text-anchor="start" x="243.65" y="-516.8" font-family="Verdana" font-weight="bold" font-size="9.00">security</text>
<polygon fill="none" stroke="black" points="141.65,-488 141.65,-508 387.65,-508 387.65,-488 141.65,-488"/>
<text text-anchor="start" x="146.65" y="-496.8" font-family="Verdana" font-weight="bold" font-size="9.00">security_id</text>
<text text-anchor="start" x="202.65" y="-496.8" font-family="Verdana" font-size="9.00">: </text>
<text text-anchor="start" x="209.65" y="-496.8" font-family="Verdana" font-style="italic" font-size="9.00">UUID &#160;NOT NULL</text>
<polygon fill="none" stroke="black" points="141.65,-468 141.65,-488 387.65,-488 387.65,-468 141.65,-468"/>
<text text-anchor="start" x="146.65" y="-476.8" font-family="Verdana" font-weight="bold" font-size="9.00">issuer_id</text>
<text text-anchor="start" x="192.65" y="-476.8" font-family="Verdana" font-size="9.00">: </text>
<text text-anchor="start" x="199.65" y="-476.8" font-family="Verdana" font-style="italic" font-size="9.00">UUID </text>
<polygon fill="none" stroke="black" points="141.65,-448 141.65,-468 387.65,-468 387.65,-448 141.65,-448"/>
<text text-anchor="start" x="146.65" y="-456.8" font-family="Verdana" font-weight="bold" font-size="9.00">instrument_type_code</text>
<text text-anchor="start" x="261.65" y="-456.8" font-family="Verdana" font-size="9.00">: </text>
<text text-anchor="start" x="268.65" y="-456.8" font-family="Verdana" font-style="italic" font-size="9.00">VARCHAR(32) &#160;NOT NULL</text>
<polygon fill="none" stroke="black" points="141.65,-428 141.65,-448 387.65,-448 387.65,-428 141.65,-428"/>
<text text-anchor="start" x="146.65" y="-436.8" font-family="Verdana" font-weight="bold" font-size="9.00">security_title</text>
<text text-anchor="start" x="213.65" y="-436.8" font-family="Verdana" font-size="9.00">: </text>
<text text-anchor="start" x="220.65" y="-436.8" font-family="Verdana" font-style="italic" font-size="9.00">TEXT &#160;NOT NULL</text>
<polygon fill="none" stroke="black" points="141.65,-408 141.65,-428 387.65,-428 387.65,-408 141.65,-408"/>
<text text-anchor="start" x="146.65" y="-416.8" font-family="Verdana" font-weight="bold" font-size="9.00">share_class</text>
<text text-anchor="start" x="204.65" y="-416.8" font-family="Verdana" font-size="9.00">: </text>
<text text-anchor="start" x="211.65" y="-416.8" font-family="Verdana" font-style="italic" font-size="9.00">TEXT </text>
<polygon fill="none" stroke="black" points="141.65,-388 141.65,-408 387.65,-408 387.65,-388 141.65,-388"/>
<text text-anchor="start" x="146.65" y="-396.8" font-family="Verdana" font-weight="bold" font-size="9.00">currency_code</text>
<text text-anchor="start" x="220.65" y="-396.8" font-family="Verdana" font-size="9.00">: </text>
<text text-anchor="start" x="227.65" y="-396.8" font-family="Verdana" font-style="italic" font-size="9.00">VARCHAR(3) </text>
<polygon fill="none" stroke="black" points="141.65,-368 141.65,-388 387.65,-388 387.65,-368 141.65,-368"/>
<text text-anchor="start" x="146.65" y="-376.8" font-family="Verdana" font-weight="bold" font-size="9.00">status</text>
<text text-anchor="start" x="179.65" y="-376.8" font-family="Verdana" font-size="9.00">: </text>
<text text-anchor="start" x="186.65" y="-376.8" font-family="Verdana" font-style="italic" font-size="9.00">VARCHAR(24) &#160;NOT NULL</text>
<polygon fill="none" stroke="black" points="141.65,-348 141.65,-368 387.65,-368 387.65,-348 141.65,-348"/>
<text text-anchor="start" x="146.65" y="-356.8" font-family="Verdana" font-weight="bold" font-size="9.00">first_seen</text>
<text text-anchor="start" x="196.65" y="-356.8" font-family="Verdana" font-size="9.00">: </text>
<text text-anchor="start" x="203.65" y="-356.8" font-family="Verdana" font-style="italic" font-size="9.00">DATE </text>
<polygon fill="none" stroke="black" points="141.65,-328 141.65,-348 387.65,-348 387.65,-328 141.65,-328"/>
<text text-anchor="start" x="146.65" y="-336.8" font-family="Verdana" font-weight="bold" font-size="9.00">last_seen</text>
<text text-anchor="start" x="194.65" y="-336.8" font-family="Verdana" font-size="9.00">: </text>
<text text-anchor="start" x="201.65" y="-336.8" font-family="Verdana" font-style="italic" font-size="9.00">DATE </text>
<polygon fill="none" stroke="black" points="141.65,-308 141.65,-328 387.65,-328 387.65,-308 141.65,-308"/>
<text text-anchor="start" x="146.65" y="-316.8" font-family="Verdana" font-weight="bold" font-size="9.00">created_at</text>
<text text-anchor="start" x="201.65" y="-316.8" font-family="Verdana" font-size="9.00">: </text>
<text text-anchor="start" x="208.65" y="-316.8" font-family="Verdana" font-style="italic" font-size="9.00">TIMESTAMPTZ &#160;NOT NULL</text>
<polygon fill="none" stroke="black" points="141.65,-288 141.65,-308 387.65,-308 387.65,-288 141.65,-288"/>
<text text-anchor="start" x="146.65" y="-296.8" font-family="Verdana" font-weight="bold" font-size="9.00">updated_at</text>
<text text-anchor="start" x="205.65" y="-296.8" font-family="Verdana" font-size="9.00">: </text>
<text text-anchor="start" x="212.65" y="-296.8" font-family="Verdana" font-style="italic" font-size="9.00">TIMESTAMPTZ &#160;NOT NULL</text>
</g>
<!-- listing&#45;&gt;security -->
<g id="edge1" class="edge">
<title>listing:security_id&#45;&gt;security:security_id</title>
<path fill="none" stroke="black" d="M360.65,-822C388.88,-822 377.95,-589.48 359.65,-568 295.98,-493.24 206.28,-605.94 141.65,-532 134.81,-524.17 129.76,-511.04 132.18,-503.59"/>
<polygon fill="black" stroke="black" points="134.24,-506.43 140.65,-498 130.38,-500.59 134.24,-506.43"/>
</g>
<!-- security&#45;&gt;issuer -->
<g id="edge5" class="edge">
<title>security:issuer_id&#45;&gt;issuer:issuer_id</title>
<path fill="none" stroke="black" d="M140.65,-478C97.54,-478 113.68,-316.8 141.65,-284 205.38,-209.28 295.03,-321.94 359.65,-248 366.49,-240.17 371.55,-227.04 369.12,-219.59"/>
<polygon fill="black" stroke="black" points="370.93,-216.59 360.65,-214 367.07,-222.43 370.93,-216.59"/>
</g>
<!-- security_event -->
<g id="node4" class="node">
<title>security_event</title>
<polygon fill="lightblue" stroke="transparent" points="43.65,-1156 43.65,-1176 259.65,-1176 259.65,-1156 43.65,-1156"/>
<polygon fill="none" stroke="black" points="43.65,-1156 43.65,-1176 259.65,-1176 259.65,-1156 43.65,-1156"/>
<text text-anchor="start" x="113.65" y="-1164.8" font-family="Verdana" font-weight="bold" font-size="9.00">security_event</text>
<polygon fill="none" stroke="black" points="43.65,-1136 43.65,-1156 259.65,-1156 259.65,-1136 43.65,-1136"/>
<text text-anchor="start" x="48.65" y="-1144.8" font-family="Verdana" font-weight="bold" font-size="9.00">event_id</text>
<text text-anchor="start" x="92.65" y="-1144.8" font-family="Verdana" font-size="9.00">: </text>
<text text-anchor="start" x="99.65" y="-1144.8" font-family="Verdana" font-style="italic" font-size="9.00">UUID &#160;NOT NULL</text>
<polygon fill="none" stroke="black" points="43.65,-1116 43.65,-1136 259.65,-1136 259.65,-1116 43.65,-1116"/>
<text text-anchor="start" x="48.65" y="-1124.8" font-family="Verdana" font-weight="bold" font-size="9.00">issuer_id</text>
<text text-anchor="start" x="94.65" y="-1124.8" font-family="Verdana" font-size="9.00">: </text>
<text text-anchor="start" x="101.65" y="-1124.8" font-family="Verdana" font-style="italic" font-size="9.00">UUID </text>
<polygon fill="none" stroke="black" points="43.65,-1096 43.65,-1116 259.65,-1116 259.65,-1096 43.65,-1096"/>
<text text-anchor="start" x="48.65" y="-1104.8" font-family="Verdana" font-weight="bold" font-size="9.00">security_id</text>
<text text-anchor="start" x="104.65" y="-1104.8" font-family="Verdana" font-size="9.00">: </text>
<text text-anchor="start" x="111.65" y="-1104.8" font-family="Verdana" font-style="italic" font-size="9.00">UUID </text>
<polygon fill="none" stroke="black" points="43.65,-1076 43.65,-1096 259.65,-1096 259.65,-1076 43.65,-1076"/>
<text text-anchor="start" x="48.65" y="-1084.8" font-family="Verdana" font-weight="bold" font-size="9.00">listing_id</text>
<text text-anchor="start" x="95.65" y="-1084.8" font-family="Verdana" font-size="9.00">: </text>
<text text-anchor="start" x="102.65" y="-1084.8" font-family="Verdana" font-style="italic" font-size="9.00">UUID </text>
<polygon fill="none" stroke="black" points="43.65,-1056 43.65,-1076 259.65,-1076 259.65,-1056 43.65,-1056"/>
<text text-anchor="start" x="48.65" y="-1064.8" font-family="Verdana" font-weight="bold" font-size="9.00">event_type</text>
<text text-anchor="start" x="106.65" y="-1064.8" font-family="Verdana" font-size="9.00">: </text>
<text text-anchor="start" x="113.65" y="-1064.8" font-family="Verdana" font-style="italic" font-size="9.00">VARCHAR(32) &#160;NOT NULL</text>
<polygon fill="none" stroke="black" points="43.65,-1036 43.65,-1056 259.65,-1056 259.65,-1036 43.65,-1036"/>
<text text-anchor="start" x="48.65" y="-1044.8" font-family="Verdana" font-weight="bold" font-size="9.00">event_date</text>
<text text-anchor="start" x="106.65" y="-1044.8" font-family="Verdana" font-size="9.00">: </text>
<text text-anchor="start" x="113.65" y="-1044.8" font-family="Verdana" font-style="italic" font-size="9.00">DATE </text>
<polygon fill="none" stroke="black" points="43.65,-1016 43.65,-1036 259.65,-1036 259.65,-1016 43.65,-1016"/>
<text text-anchor="start" x="48.65" y="-1024.8" font-family="Verdana" font-weight="bold" font-size="9.00">source_code</text>
<text text-anchor="start" x="111.65" y="-1024.8" font-family="Verdana" font-size="9.00">: </text>
<text text-anchor="start" x="118.65" y="-1024.8" font-family="Verdana" font-style="italic" font-size="9.00">VARCHAR(32) </text>
<polygon fill="none" stroke="black" points="43.65,-996 43.65,-1016 259.65,-1016 259.65,-996 43.65,-996"/>
<text text-anchor="start" x="48.65" y="-1004.8" font-family="Verdana" font-weight="bold" font-size="9.00">confidence_code</text>
<text text-anchor="start" x="133.65" y="-1004.8" font-family="Verdana" font-size="9.00">: </text>
<text text-anchor="start" x="140.65" y="-1004.8" font-family="Verdana" font-style="italic" font-size="9.00">VARCHAR(16) &#160;NOT NULL</text>
<polygon fill="none" stroke="black" points="43.65,-976 43.65,-996 259.65,-996 259.65,-976 43.65,-976"/>
<text text-anchor="start" x="48.65" y="-984.8" font-family="Verdana" font-weight="bold" font-size="9.00">description</text>
<text text-anchor="start" x="106.65" y="-984.8" font-family="Verdana" font-size="9.00">: </text>
<text text-anchor="start" x="113.65" y="-984.8" font-family="Verdana" font-style="italic" font-size="9.00">TEXT </text>
<polygon fill="none" stroke="black" points="43.65,-956 43.65,-976 259.65,-976 259.65,-956 43.65,-956"/>
<text text-anchor="start" x="48.65" y="-964.8" font-family="Verdana" font-weight="bold" font-size="9.00">details_json</text>
<text text-anchor="start" x="109.65" y="-964.8" font-family="Verdana" font-size="9.00">: </text>
<text text-anchor="start" x="116.65" y="-964.8" font-family="Verdana" font-style="italic" font-size="9.00">JSONB </text>
<polygon fill="none" stroke="black" points="43.65,-936 43.65,-956 259.65,-956 259.65,-936 43.65,-936"/>
<text text-anchor="start" x="48.65" y="-944.8" font-family="Verdana" font-weight="bold" font-size="9.00">created_at</text>
<text text-anchor="start" x="103.65" y="-944.8" font-family="Verdana" font-size="9.00">: </text>
<text text-anchor="start" x="110.65" y="-944.8" font-family="Verdana" font-style="italic" font-size="9.00">TIMESTAMPTZ &#160;NOT NULL</text>
</g>
<!-- security_event&#45;&gt;issuer -->
<g id="edge2" class="edge">
<title>security_event:issuer_id&#45;&gt;issuer:issuer_id</title>
<path fill="none" stroke="black" d="M42.65,-1126C-56.33,-1126 57.55,-271.83 157.7,-216.78"/>
<polygon fill="black" stroke="black" points="158.96,-220.06 167.65,-214 157.08,-213.32 158.96,-220.06"/>
</g>
<!-- security_event&#45;&gt;listing -->
<g id="edge3" class="edge">
<title>security_event:listing_id&#45;&gt;listing:listing_id</title>
<path fill="none" stroke="black" d="M260.65,-1086C329.1,-1086 293.23,-991.64 259.65,-932 236.35,-890.62 192.43,-917.11 168.65,-876 163.63,-867.31 158.17,-855.17 159.5,-847.99"/>
<polygon fill="black" stroke="black" points="161.66,-850.74 167.65,-842 157.52,-845.1 161.66,-850.74"/>
</g>
<!-- security_event&#45;&gt;security -->
<g id="edge4" class="edge">
<title>security_event:security_id&#45;&gt;security:security_id</title>
<path fill="none" stroke="black" d="M42.65,-1106C-34.68,-1106 11.49,-1002.33 43.65,-932 59.37,-897.63 90.55,-909.71 107.65,-876 125.28,-841.27 102.52,-548.1 132.19,-503.64"/>
<polygon fill="black" stroke="black" points="134.27,-506.46 140.65,-498 130.39,-500.64 134.27,-506.46"/>
</g>
<!-- source_evidence -->
<g id="node5" class="node">
<title>source_evidence</title>
<polygon fill="lightblue" stroke="transparent" points="294.65,-1420 294.65,-1440 495.65,-1440 495.65,-1420 294.65,-1420"/>
<polygon fill="none" stroke="black" points="294.65,-1420 294.65,-1440 495.65,-1440 495.65,-1420 294.65,-1420"/>
<text text-anchor="start" x="352.65" y="-1428.8" font-family="Verdana" font-weight="bold" font-size="9.00">source_evidence</text>
<polygon fill="none" stroke="black" points="294.65,-1400 294.65,-1420 495.65,-1420 495.65,-1400 294.65,-1400"/>
<text text-anchor="start" x="299.65" y="-1408.8" font-family="Verdana" font-weight="bold" font-size="9.00">source_evidence_id</text>
<text text-anchor="start" x="398.65" y="-1408.8" font-family="Verdana" font-size="9.00">: </text>
<text text-anchor="start" x="405.65" y="-1408.8" font-family="Verdana" font-style="italic" font-size="9.00">UUID &#160;NOT NULL</text>
<polygon fill="none" stroke="black" points="294.65,-1380 294.65,-1400 495.65,-1400 495.65,-1380 294.65,-1380"/>
<text text-anchor="start" x="299.65" y="-1388.8" font-family="Verdana" font-weight="bold" font-size="9.00">source_obs_id</text>
<text text-anchor="start" x="370.65" y="-1388.8" font-family="Verdana" font-size="9.00">: </text>
<text text-anchor="start" x="377.65" y="-1388.8" font-family="Verdana" font-style="italic" font-size="9.00">UUID &#160;NOT NULL</text>
<polygon fill="none" stroke="black" points="294.65,-1360 294.65,-1380 495.65,-1380 495.65,-1360 294.65,-1360"/>
<text text-anchor="start" x="299.65" y="-1368.8" font-family="Verdana" font-weight="bold" font-size="9.00">issuer_id</text>
<text text-anchor="start" x="345.65" y="-1368.8" font-family="Verdana" font-size="9.00">: </text>
<text text-anchor="start" x="352.65" y="-1368.8" font-family="Verdana" font-style="italic" font-size="9.00">UUID </text>
<polygon fill="none" stroke="black" points="294.65,-1340 294.65,-1360 495.65,-1360 495.65,-1340 294.65,-1340"/>
<text text-anchor="start" x="299.65" y="-1348.8" font-family="Verdana" font-weight="bold" font-size="9.00">security_id</text>
<text text-anchor="start" x="355.65" y="-1348.8" font-family="Verdana" font-size="9.00">: </text>
<text text-anchor="start" x="362.65" y="-1348.8" font-family="Verdana" font-style="italic" font-size="9.00">UUID </text>
<polygon fill="none" stroke="black" points="294.65,-1320 294.65,-1340 495.65,-1340 495.65,-1320 294.65,-1320"/>
<text text-anchor="start" x="299.65" y="-1328.8" font-family="Verdana" font-weight="bold" font-size="9.00">listing_id</text>
<text text-anchor="start" x="346.65" y="-1328.8" font-family="Verdana" font-size="9.00">: </text>
<text text-anchor="start" x="353.65" y="-1328.8" font-family="Verdana" font-style="italic" font-size="9.00">UUID </text>
<polygon fill="none" stroke="black" points="294.65,-1300 294.65,-1320 495.65,-1320 495.65,-1300 294.65,-1300"/>
<text text-anchor="start" x="299.65" y="-1308.8" font-family="Verdana" font-weight="bold" font-size="9.00">event_id</text>
<text text-anchor="start" x="343.65" y="-1308.8" font-family="Verdana" font-size="9.00">: </text>
<text text-anchor="start" x="350.65" y="-1308.8" font-family="Verdana" font-style="italic" font-size="9.00">UUID </text>
<polygon fill="none" stroke="black" points="294.65,-1280 294.65,-1300 495.65,-1300 495.65,-1280 294.65,-1280"/>
<text text-anchor="start" x="299.65" y="-1288.8" font-family="Verdana" font-weight="bold" font-size="9.00">evidence_role</text>
<text text-anchor="start" x="369.65" y="-1288.8" font-family="Verdana" font-size="9.00">: </text>
<text text-anchor="start" x="376.65" y="-1288.8" font-family="Verdana" font-style="italic" font-size="9.00">VARCHAR(24) &#160;NOT NULL</text>
<polygon fill="none" stroke="black" points="294.65,-1260 294.65,-1280 495.65,-1280 495.65,-1260 294.65,-1260"/>
<text text-anchor="start" x="299.65" y="-1268.8" font-family="Verdana" font-weight="bold" font-size="9.00">notes</text>
<text text-anchor="start" x="328.65" y="-1268.8" font-family="Verdana" font-size="9.00">: </text>
<text text-anchor="start" x="335.65" y="-1268.8" font-family="Verdana" font-style="italic" font-size="9.00">TEXT </text>
<polygon fill="none" stroke="black" points="294.65,-1240 294.65,-1260 495.65,-1260 495.65,-1240 294.65,-1240"/>
<text text-anchor="start" x="299.65" y="-1248.8" font-family="Verdana" font-weight="bold" font-size="9.00">created_at</text>
<text text-anchor="start" x="354.65" y="-1248.8" font-family="Verdana" font-size="9.00">: </text>
<text text-anchor="start" x="361.65" y="-1248.8" font-family="Verdana" font-style="italic" font-size="9.00">TIMESTAMPTZ &#160;NOT NULL</text>
</g>
<!-- source_evidence&#45;&gt;issuer -->
<g id="edge7" class="edge">
<title>source_evidence:issuer_id&#45;&gt;issuer:issuer_id</title>
<path fill="none" stroke="black" d="M496.65,-1370C596.83,-1370 609.54,-1293.82 644.65,-1200 723.38,-989.68 592.74,-237.26 370.94,-214.53"/>
<polygon fill="black" stroke="black" points="370.82,-211.02 360.65,-214 370.46,-218.01 370.82,-211.02"/>
</g>
<!-- source_evidence&#45;&gt;listing -->
<g id="edge8" class="edge">
<title>source_evidence:listing_id&#45;&gt;listing:listing_id</title>
<path fill="none" stroke="black" d="M293.65,-1330C242.56,-1330 392.97,-904.66 368.63,-848.17"/>
<polygon fill="black" stroke="black" points="370.7,-845.35 360.65,-842 366.42,-850.89 370.7,-845.35"/>
</g>
<!-- source_evidence&#45;&gt;security -->
<g id="edge10" class="edge">
<title>source_evidence:security_id&#45;&gt;security:security_id</title>
<path fill="none" stroke="black" d="M496.65,-1350C547.32,-1350 523.35,-1278.43 495.65,-1236 474.34,-1203.35 437.45,-1232.33 415.65,-1200 243.07,-944.02 690.64,-507.93 398.88,-498.17"/>
<polygon fill="black" stroke="black" points="398.71,-494.66 388.65,-498 398.59,-501.66 398.71,-494.66"/>
</g>
<!-- source_evidence&#45;&gt;security_event -->
<g id="edge6" class="edge">
<title>source_evidence:event_id&#45;&gt;security_event:event_id</title>
<path fill="none" stroke="black" d="M293.65,-1310C223.22,-1310 323.33,-1162.84 270.89,-1147.32"/>
<polygon fill="black" stroke="black" points="271.02,-1143.81 260.65,-1146 270.12,-1150.75 271.02,-1143.81"/>
</g>
<!-- source_observation -->
<g id="node6" class="node">
<title>source_observation</title>
<polygon fill="lightblue" stroke="transparent" points="432.65,-1176 432.65,-1196 627.65,-1196 627.65,-1176 432.65,-1176"/>
<polygon fill="none" stroke="black" points="432.65,-1176 432.65,-1196 627.65,-1196 627.65,-1176 432.65,-1176"/>
<text text-anchor="start" x="480.15" y="-1184.8" font-family="Verdana" font-weight="bold" font-size="9.00">source_observation</text>
<polygon fill="none" stroke="black" points="432.65,-1156 432.65,-1176 627.65,-1176 627.65,-1156 432.65,-1156"/>
<text text-anchor="start" x="437.65" y="-1164.8" font-family="Verdana" font-weight="bold" font-size="9.00">source_obs_id</text>
<text text-anchor="start" x="508.65" y="-1164.8" font-family="Verdana" font-size="9.00">: </text>
<text text-anchor="start" x="515.65" y="-1164.8" font-family="Verdana" font-style="italic" font-size="9.00">UUID &#160;NOT NULL</text>
<polygon fill="none" stroke="black" points="432.65,-1136 432.65,-1156 627.65,-1156 627.65,-1136 432.65,-1136"/>
<text text-anchor="start" x="437.65" y="-1144.8" font-family="Verdana" font-weight="bold" font-size="9.00">source_code</text>
<text text-anchor="start" x="500.65" y="-1144.8" font-family="Verdana" font-size="9.00">: </text>
<text text-anchor="start" x="507.65" y="-1144.8" font-family="Verdana" font-style="italic" font-size="9.00">VARCHAR(32) &#160;NOT NULL</text>
<polygon fill="none" stroke="black" points="432.65,-1116 432.65,-1136 627.65,-1136 627.65,-1116 432.65,-1116"/>
<text text-anchor="start" x="437.65" y="-1124.8" font-family="Verdana" font-weight="bold" font-size="9.00">source_date</text>
<text text-anchor="start" x="499.65" y="-1124.8" font-family="Verdana" font-size="9.00">: </text>
<text text-anchor="start" x="506.65" y="-1124.8" font-family="Verdana" font-style="italic" font-size="9.00">DATE </text>
<polygon fill="none" stroke="black" points="432.65,-1096 432.65,-1116 627.65,-1116 627.65,-1096 432.65,-1096"/>
<text text-anchor="start" x="437.65" y="-1104.8" font-family="Verdana" font-weight="bold" font-size="9.00">observed_at</text>
<text text-anchor="start" x="500.65" y="-1104.8" font-family="Verdana" font-size="9.00">: </text>
<text text-anchor="start" x="507.65" y="-1104.8" font-family="Verdana" font-style="italic" font-size="9.00">TIMESTAMPTZ &#160;NOT NULL</text>
<polygon fill="none" stroke="black" points="432.65,-1076 432.65,-1096 627.65,-1096 627.65,-1076 432.65,-1076"/>
<text text-anchor="start" x="437.65" y="-1084.8" font-family="Verdana" font-weight="bold" font-size="9.00">accession_no</text>
<text text-anchor="start" x="504.65" y="-1084.8" font-family="Verdana" font-size="9.00">: </text>
<text text-anchor="start" x="511.65" y="-1084.8" font-family="Verdana" font-style="italic" font-size="9.00">TEXT </text>
<polygon fill="none" stroke="black" points="432.65,-1056 432.65,-1076 627.65,-1076 627.65,-1056 432.65,-1056"/>
<text text-anchor="start" x="437.65" y="-1064.8" font-family="Verdana" font-weight="bold" font-size="9.00">form_type</text>
<text text-anchor="start" x="489.65" y="-1064.8" font-family="Verdana" font-size="9.00">: </text>
<text text-anchor="start" x="496.65" y="-1064.8" font-family="Verdana" font-style="italic" font-size="9.00">VARCHAR(16) </text>
<polygon fill="none" stroke="black" points="432.65,-1036 432.65,-1056 627.65,-1056 627.65,-1036 432.65,-1036"/>
<text text-anchor="start" x="437.65" y="-1044.8" font-family="Verdana" font-weight="bold" font-size="9.00">filing_date</text>
<text text-anchor="start" x="492.65" y="-1044.8" font-family="Verdana" font-size="9.00">: </text>
<text text-anchor="start" x="499.65" y="-1044.8" font-family="Verdana" font-style="italic" font-size="9.00">DATE </text>
<polygon fill="none" stroke="black" points="432.65,-1016 432.65,-1036 627.65,-1036 627.65,-1016 432.65,-1016"/>
<text text-anchor="start" x="437.65" y="-1024.8" font-family="Verdana" font-weight="bold" font-size="9.00">object_id</text>
<text text-anchor="start" x="483.65" y="-1024.8" font-family="Verdana" font-size="9.00">: </text>
<text text-anchor="start" x="490.65" y="-1024.8" font-family="Verdana" font-style="italic" font-size="9.00">UUID </text>
<polygon fill="none" stroke="black" points="432.65,-996 432.65,-1016 627.65,-1016 627.65,-996 432.65,-996"/>
<text text-anchor="start" x="437.65" y="-1004.8" font-family="Verdana" font-weight="bold" font-size="9.00">object_key</text>
<text text-anchor="start" x="492.65" y="-1004.8" font-family="Verdana" font-size="9.00">: </text>
<text text-anchor="start" x="499.65" y="-1004.8" font-family="Verdana" font-style="italic" font-size="9.00">TEXT </text>
<polygon fill="none" stroke="black" points="432.65,-976 432.65,-996 627.65,-996 627.65,-976 432.65,-976"/>
<text text-anchor="start" x="437.65" y="-984.8" font-family="Verdana" font-weight="bold" font-size="9.00">source_url</text>
<text text-anchor="start" x="490.65" y="-984.8" font-family="Verdana" font-size="9.00">: </text>
<text text-anchor="start" x="497.65" y="-984.8" font-family="Verdana" font-style="italic" font-size="9.00">TEXT </text>
<polygon fill="none" stroke="black" points="432.65,-956 432.65,-976 627.65,-976 627.65,-956 432.65,-956"/>
<text text-anchor="start" x="437.65" y="-964.8" font-family="Verdana" font-weight="bold" font-size="9.00">raw_key</text>
<text text-anchor="start" x="479.65" y="-964.8" font-family="Verdana" font-size="9.00">: </text>
<text text-anchor="start" x="486.65" y="-964.8" font-family="Verdana" font-style="italic" font-size="9.00">TEXT </text>
<polygon fill="none" stroke="black" points="432.65,-936 432.65,-956 627.65,-956 627.65,-936 432.65,-936"/>
<text text-anchor="start" x="437.65" y="-944.8" font-family="Verdana" font-weight="bold" font-size="9.00">summary_json</text>
<text text-anchor="start" x="511.65" y="-944.8" font-family="Verdana" font-size="9.00">: </text>
<text text-anchor="start" x="518.65" y="-944.8" font-family="Verdana" font-style="italic" font-size="9.00">JSONB </text>
<polygon fill="none" stroke="black" points="432.65,-916 432.65,-936 627.65,-936 627.65,-916 432.65,-916"/>
<text text-anchor="start" x="437.65" y="-924.8" font-family="Verdana" font-weight="bold" font-size="9.00">created_at</text>
<text text-anchor="start" x="492.65" y="-924.8" font-family="Verdana" font-size="9.00">: </text>
<text text-anchor="start" x="499.65" y="-924.8" font-family="Verdana" font-style="italic" font-size="9.00">TIMESTAMPTZ &#160;NOT NULL</text>
</g>
<!-- source_evidence&#45;&gt;source_observation -->
<g id="edge9" class="edge">
<title>source_evidence:source_obs_id&#45;&gt;source_observation:source_obs_id</title>
<path fill="none" stroke="black" d="M496.65,-1390C565.1,-1390 530.2,-1295.09 495.65,-1236 479.38,-1208.16 449.25,-1227.65 432.65,-1200 427.49,-1191.39 422.07,-1179.22 423.45,-1172.02"/>
<polygon fill="black" stroke="black" points="425.66,-1174.74 431.65,-1166 421.52,-1169.09 425.66,-1174.74"/>
</g>
</g>
</svg>
