<?xml version="1.0" encoding="UTF-8" standalone="no"?>
<!DOCTYPE svg PUBLIC "-//W3C//DTD SVG 1.1//EN"
 "http://www.w3.org/Graphics/SVG/1.1/DTD/svg11.dtd">
<!-- Generated by graphviz version 2.42.4 (0)
 -->
<!-- Title: schema_relations Pages: 1 -->
<svg width="714pt" height="151pt"
 viewBox="0.00 0.00 714.00 151.00" xmlns="http://www.w3.org/2000/svg" xmlns:xlink="http://www.w3.org/1999/xlink">
<g id="graph0" class="graph" transform="scale(1 1) rotate(0) translate(18 133)">
<title>schema_relations</title>
<!-- instrument_type -->
<g id="node1" class="node">
<title>instrument_type</title>
<path fill="#f8fafc" stroke="#334155" d="M93,-115C93,-115 12,-115 12,-115 6,-115 0,-109 0,-103 0,-103 0,-91 0,-91 0,-85 6,-79 12,-79 12,-79 93,-79 93,-79 99,-79 105,-85 105,-91 105,-91 105,-103 105,-103 105,-109 99,-115 93,-115"/>
<text text-anchor="middle" x="52.5" y="-94.2" font-family="Helvetica,sans-Serif" font-size="11.00">instrument_type</text>
</g>
<!-- provider_listing -->
<g id="node4" class="node">
<title>provider_listing</title>
<path fill="#f8fafc" stroke="#334155" d="M402,-75C402,-75 327,-75 327,-75 321,-75 315,-69 315,-63 315,-63 315,-51 315,-51 315,-45 321,-39 327,-39 327,-39 402,-39 402,-39 408,-39 414,-45 414,-51 414,-51 414,-63 414,-63 414,-69 408,-75 402,-75"/>
<text text-anchor="middle" x="364.5" y="-54.2" font-family="Helvetica,sans-Serif" font-size="11.00">provider_listing</text>
</g>
<!-- instrument_type&#45;&gt;provider_listing -->
<g id="edge1" class="edge">
<title>instrument_type&#45;&gt;provider_listing</title>
<path fill="none" stroke="#64748b" d="M105.04,-90.35C161.01,-83.13 250.1,-71.63 307.69,-64.2"/>
<polygon fill="#64748b" stroke="#64748b" points="308.28,-66.6 314.91,-63.27 307.65,-61.74 308.28,-66.6"/>
<text text-anchor="middle" x="210" y="-87.6" font-family="Helvetica,sans-Serif" font-size="8.00">fk_provider_listing_instrument_type</text>
</g>
<!-- ohlcv_daily -->
<g id="node2" class="node">
<title>ohlcv_daily</title>
<path fill="#f8fafc" stroke="#334155" d="M666,-75C666,-75 615,-75 615,-75 609,-75 603,-69 603,-63 603,-63 603,-51 603,-51 603,-45 609,-39 615,-39 615,-39 666,-39 666,-39 672,-39 678,-45 678,-51 678,-51 678,-63 678,-63 678,-69 672,-75 666,-75"/>
<text text-anchor="middle" x="640.5" y="-54.2" font-family="Helvetica,sans-Serif" font-size="11.00">ohlcv_daily</text>
</g>
<!-- provider -->
<g id="node3" class="node">
<title>provider</title>
<path fill="#f8fafc" stroke="#334155" d="M70.5,-36C70.5,-36 34.5,-36 34.5,-36 28.5,-36 22.5,-30 22.5,-24 22.5,-24 22.5,-12 22.5,-12 22.5,-6 28.5,0 34.5,0 34.5,0 70.5,0 70.5,0 76.5,0 82.5,-6 82.5,-12 82.5,-12 82.5,-24 82.5,-24 82.5,-30 76.5,-36 70.5,-36"/>
<text text-anchor="middle" x="52.5" y="-15.2" font-family="Helvetica,sans-Serif" font-size="11.00">provider</text>
</g>
<!-- provider&#45;&gt;provider_listing -->
<g id="edge2" class="edge">
<title>provider&#45;&gt;provider_listing</title>
<path fill="none" stroke="#64748b" d="M82.57,-18.4C126.19,-19.41 211.02,-22.89 282,-35 290.44,-36.44 299.26,-38.37 307.86,-40.48"/>
<polygon fill="#64748b" stroke="#64748b" points="307.32,-42.87 314.7,-42.22 308.52,-38.12 307.32,-42.87"/>
<text text-anchor="middle" x="210" y="-37.6" font-family="Helvetica,sans-Serif" font-size="8.00">fk_provider_listing_provider</text>
</g>
<!-- provider_listing&#45;&gt;ohlcv_daily -->
<g id="edge3" class="edge">
<title>provider_listing&#45;&gt;ohlcv_daily</title>
<path fill="none" stroke="#64748b" d="M414.17,-57C465.62,-57 546.04,-57 595.6,-57"/>
<polygon fill="#64748b" stroke="#64748b" points="595.68,-59.45 602.68,-57 595.68,-54.55 595.68,-59.45"/>
<text text-anchor="middle" x="508.5" y="-59.6" font-family="Helvetica,sans-Serif" font-size="8.00">fk_ohlcv_daily_provider_listing</text>
</g>
</g>
</svg>
