<?xml version="1.0" encoding="UTF-8" standalone="no"?>
<!DOCTYPE svg PUBLIC "-//W3C//DTD SVG 1.1//EN"
 "http://www.w3.org/Graphics/SVG/1.1/DTD/svg11.dtd">
<!-- Generated by graphviz version 2.42.4 (0)
 -->
<!-- Title: ERD Pages: 1 -->
<svg width="448pt" height="804pt"
 viewBox="0.00 0.00 447.50 804.00" xmlns="http://www.w3.org/2000/svg" xmlns:xlink="http://www.w3.org/1999/xlink">
<g id="graph0" class="graph" transform="scale(1 1) rotate(0) translate(4 800)">
<title>ERD</title>
<polygon fill="white" stroke="transparent" points="-4,4 -4,-800 443.5,-800 443.5,4 -4,4"/>
<!-- instrument_type -->
<g id="node1" class="node">
<title>instrument_type</title>
<polygon fill="lightblue" stroke="transparent" points="8.5,-114 8.5,-134 193.5,-134 193.5,-114 8.5,-114"/>
<polygon fill="none" stroke="black" points="8.5,-114 8.5,-134 193.5,-134 193.5,-114 8.5,-114"/>
<text text-anchor="start" x="58" y="-122.8" font-family="Verdana" font-weight="bold" font-size="9.00">instrument_type</text>
<polygon fill="none" stroke="black" points="8.5,-94 8.5,-114 193.5,-114 193.5,-94 8.5,-94"/>
<text text-anchor="start" x="13.5" y="-102.8" font-family="Verdana" font-weight="bold" font-size="9.00">type_code</text>
<text text-anchor="start" x="65.5" y="-102.8" font-family="Verdana" font-size="9.00">: </text>
<text text-anchor="start" x="72.5" y="-102.8" font-family="Verdana" font-style="italic" font-size="9.00">VARCHAR(32) &#160;NOT NULL</text>
<polygon fill="none" stroke="black" points="8.5,-74 8.5,-94 193.5,-94 193.5,-74 8.5,-74"/>
<text text-anchor="start" x="13.5" y="-82.8" font-family="Verdana" font-weight="bold" font-size="9.00">class_code</text>
<text text-anchor="start" x="67.5" y="-82.8" font-family="Verdana" font-size="9.00">: </text>
<text text-anchor="start" x="74.5" y="-82.8" font-family="Verdana" font-style="italic" font-size="9.00">VARCHAR(32) &#160;NOT NULL</text>
<polygon fill="none" stroke="black" points="8.5,-54 8.5,-74 193.5,-74 193.5,-54 8.5,-54"/>
<text text-anchor="start" x="13.5" y="-62.8" font-family="Verdana" font-weight="bold" font-size="9.00">type_name</text>
<text text-anchor="start" x="70.5" y="-62.8" font-family="Verdana" font-size="9.00">: </text>
<text text-anchor="start" x="77.5" y="-62.8" font-family="Verdana" font-style="italic" font-size="9.00">TEXT &#160;NOT NULL</text>
<polygon fill="none" stroke="black" points="8.5,-34 8.5,-54 193.5,-54 193.5,-34 8.5,-34"/>
<text text-anchor="start" x="13.5" y="-42.8" font-family="Verdana" font-weight="bold" font-size="9.00">description</text>
<text text-anchor="start" x="71.5" y="-42.8" font-family="Verdana" font-size="9.00">: </text>
<text text-anchor="start" x="78.5" y="-42.8" font-family="Verdana" font-style="italic" font-size="9.00">TEXT </text>
<polygon fill="none" stroke="black" points="8.5,-14 8.5,-34 193.5,-34 193.5,-14 8.5,-14"/>
<text text-anchor="start" x="13.5" y="-22.8" font-family="Verdana" font-weight="bold" font-size="9.00">is_active</text>
<text text-anchor="start" x="57.5" y="-22.8" font-family="Verdana" font-size="9.00">: </text>
<text text-anchor="start" x="64.5" y="-22.8" font-family="Verdana" font-style="italic" font-size="9.00">BOOLEAN &#160;NOT NULL</text>
</g>
<!-- ohlcv_daily -->
<g id="node2" class="node">
<title>ohlcv_daily</title>
<polygon fill="lightblue" stroke="transparent" points="119.5,-772 119.5,-792 310.5,-792 310.5,-772 119.5,-772"/>
<polygon fill="none" stroke="black" points="119.5,-772 119.5,-792 310.5,-792 310.5,-772 119.5,-772"/>
<text text-anchor="start" x="186.5" y="-780.8" font-family="Verdana" font-weight="bold" font-size="9.00">ohlcv_daily</text>
<polygon fill="none" stroke="black" points="119.5,-752 119.5,-772 310.5,-772 310.5,-752 119.5,-752"/>
<text text-anchor="start" x="124.5" y="-760.8" font-family="Verdana" font-weight="bold" font-size="9.00">provider_listing_id</text>
<text text-anchor="start" x="219.5" y="-760.8" font-family="Verdana" font-size="9.00">: </text>
<text text-anchor="start" x="226.5" y="-760.8" font-family="Verdana" font-style="italic" font-size="9.00">UUID &#160;NOT NULL</text>
<polygon fill="none" stroke="black" points="119.5,-732 119.5,-752 310.5,-752 310.5,-732 119.5,-732"/>
<text text-anchor="start" x="124.5" y="-740.8" font-family="Verdana" font-weight="bold" font-size="9.00">trading_date</text>
<text text-anchor="start" x="191.5" y="-740.8" font-family="Verdana" font-size="9.00">: </text>
<text text-anchor="start" x="198.5" y="-740.8" font-family="Verdana" font-style="italic" font-size="9.00">DATE &#160;NOT NULL</text>
<polygon fill="none" stroke="black" points="119.5,-712 119.5,-732 310.5,-732 310.5,-712 119.5,-712"/>
<text text-anchor="start" x="124.5" y="-720.8" font-family="Verdana" font-weight="bold" font-size="9.00">open</text>
<text text-anchor="start" x="150.5" y="-720.8" font-family="Verdana" font-size="9.00">: </text>
<text text-anchor="start" x="157.5" y="-720.8" font-family="Verdana" font-style="italic" font-size="9.00">DECIMAL(30, 10) &#160;NOT NULL</text>
<polygon fill="none" stroke="black" points="119.5,-692 119.5,-712 310.5,-712 310.5,-692 119.5,-692"/>
<text text-anchor="start" x="124.5" y="-700.8" font-family="Verdana" font-weight="bold" font-size="9.00">high</text>
<text text-anchor="start" x="148.5" y="-700.8" font-family="Verdana" font-size="9.00">: </text>
<text text-anchor="start" x="155.5" y="-700.8" font-family="Verdana" font-style="italic" font-size="9.00">DECIMAL(30, 10) &#160;NOT NULL</text>
<polygon fill="none" stroke="black" points="119.5,-672 119.5,-692 310.5,-692 310.5,-672 119.5,-672"/>
<text text-anchor="start" x="124.5" y="-680.8" font-family="Verdana" font-weight="bold" font-size="9.00">low</text>
<text text-anchor="start" x="142.5" y="-680.8" font-family="Verdana" font-size="9.00">: </text>
<text text-anchor="start" x="149.5" y="-680.8" font-family="Verdana" font-style="italic" font-size="9.00">DECIMAL(30, 10) &#160;NOT NULL</text>
<polygon fill="none" stroke="black" points="119.5,-652 119.5,-672 310.5,-672 310.5,-652 119.5,-652"/>
<text text-anchor="start" x="124.5" y="-660.8" font-family="Verdana" font-weight="bold" font-size="9.00">close</text>
<text text-anchor="start" x="150.5" y="-660.8" font-family="Verdana" font-size="9.00">: </text>
<text text-anchor="start" x="157.5" y="-660.8" font-family="Verdana" font-style="italic" font-size="9.00">DECIMAL(30, 10) &#160;NOT NULL</text>
<polygon fill="none" stroke="black" points="119.5,-632 119.5,-652 310.5,-652 310.5,-632 119.5,-632"/>
<text text-anchor="start" x="124.5" y="-640.8" font-family="Verdana" font-weight="bold" font-size="9.00">volume</text>
<text text-anchor="start" x="162.5" y="-640.8" font-family="Verdana" font-size="9.00">: </text>
<text text-anchor="start" x="169.5" y="-640.8" font-family="Verdana" font-style="italic" font-size="9.00">DECIMAL(30, 8) </text>
<polygon fill="none" stroke="black" points="119.5,-612 119.5,-632 310.5,-632 310.5,-612 119.5,-612"/>
<text text-anchor="start" x="124.5" y="-620.8" font-family="Verdana" font-weight="bold" font-size="9.00">change</text>
<text text-anchor="start" x="162.5" y="-620.8" font-family="Verdana" font-size="9.00">: </text>
<text text-anchor="start" x="169.5" y="-620.8" font-family="Verdana" font-style="italic" font-size="9.00">DECIMAL(30, 8) </text>
<polygon fill="none" stroke="black" points="119.5,-592 119.5,-612 310.5,-612 310.5,-592 119.5,-592"/>
<text text-anchor="start" x="124.5" y="-600.8" font-family="Verdana" font-weight="bold" font-size="9.00">changepct</text>
<text text-anchor="start" x="179.5" y="-600.8" font-family="Verdana" font-size="9.00">: </text>
<text text-anchor="start" x="186.5" y="-600.8" font-family="Verdana" font-style="italic" font-size="9.00">DECIMAL(30, 8) </text>
<polygon fill="none" stroke="black" points="119.5,-572 119.5,-592 310.5,-592 310.5,-572 119.5,-572"/>
<text text-anchor="start" x="124.5" y="-580.8" font-family="Verdana" font-weight="bold" font-size="9.00">typ</text>
<text text-anchor="start" x="142.5" y="-580.8" font-family="Verdana" font-size="9.00">: </text>
<text text-anchor="start" x="149.5" y="-580.8" font-family="Verdana" font-style="italic" font-size="9.00">DECIMAL(30, 8) &#160;NOT NULL</text>
<polygon fill="none" stroke="black" points="119.5,-552 119.5,-572 310.5,-572 310.5,-552 119.5,-552"/>
<text text-anchor="start" x="124.5" y="-560.8" font-family="Verdana" font-weight="bold" font-size="9.00">hl_range</text>
<text text-anchor="start" x="169.5" y="-560.8" font-family="Verdana" font-size="9.00">: </text>
<text text-anchor="start" x="176.5" y="-560.8" font-family="Verdana" font-style="italic" font-size="9.00">DECIMAL(30, 8) &#160;NOT NULL</text>
<polygon fill="none" stroke="black" points="119.5,-532 119.5,-552 310.5,-552 310.5,-532 119.5,-532"/>
<text text-anchor="start" x="124.5" y="-540.8" font-family="Verdana" font-weight="bold" font-size="9.00">oc_range</text>
<text text-anchor="start" x="170.5" y="-540.8" font-family="Verdana" font-size="9.00">: </text>
<text text-anchor="start" x="177.5" y="-540.8" font-family="Verdana" font-style="italic" font-size="9.00">DECIMAL(30, 8) &#160;NOT NULL</text>
<polygon fill="none" stroke="black" points="119.5,-512 119.5,-532 310.5,-532 310.5,-512 119.5,-512"/>
<text text-anchor="start" x="124.5" y="-520.8" font-family="Verdana" font-weight="bold" font-size="9.00">created_at</text>
<text text-anchor="start" x="179.5" y="-520.8" font-family="Verdana" font-size="9.00">: </text>
<text text-anchor="start" x="186.5" y="-520.8" font-family="Verdana" font-style="italic" font-size="9.00">TIMESTAMPTZ &#160;NOT NULL</text>
<polygon fill="none" stroke="black" points="119.5,-492 119.5,-512 310.5,-512 310.5,-492 119.5,-492"/>
<text text-anchor="start" x="124.5" y="-500.8" font-family="Verdana" font-weight="bold" font-size="9.00">updated_at</text>
<text text-anchor="start" x="183.5" y="-500.8" font-family="Verdana" font-size="9.00">: </text>
<text text-anchor="start" x="190.5" y="-500.8" font-family="Verdana" font-style="italic" font-size="9.00">TIMESTAMPTZ &#160;NOT NULL</text>
</g>
<!-- provider_listing -->
<g id="node4" class="node">
<title>provider_listing</title>
<polygon fill="lightblue" stroke="transparent" points="92.5,-428 92.5,-448 338.5,-448 338.5,-428 92.5,-428"/>
<polygon fill="none" stroke="black" points="92.5,-428 92.5,-448 338.5,-448 338.5,-428 92.5,-428"/>
<text text-anchor="start" x="175" y="-436.8" font-family="Verdana" font-weight="bold" font-size="9.00">provider_listing</text>
<polygon fill="none" stroke="black" points="92.5,-408 92.5,-428 338.5,-428 338.5,-408 92.5,-408"/>
<text text-anchor="start" x="97.5" y="-416.8" font-family="Verdana" font-weight="bold" font-size="9.00">provider_listing_id</text>
<text text-anchor="start" x="192.5" y="-416.8" font-family="Verdana" font-size="9.00">: </text>
<text text-anchor="start" x="199.5" y="-416.8" font-family="Verdana" font-style="italic" font-size="9.00">UUID &#160;NOT NULL</text>
<polygon fill="none" stroke="black" points="92.5,-388 92.5,-408 338.5,-408 338.5,-388 92.5,-388"/>
<text text-anchor="start" x="97.5" y="-396.8" font-family="Verdana" font-weight="bold" font-size="9.00">provider_code</text>
<text text-anchor="start" x="170.5" y="-396.8" font-family="Verdana" font-size="9.00">: </text>
<text text-anchor="start" x="177.5" y="-396.8" font-family="Verdana" font-style="italic" font-size="9.00">VARCHAR(32) &#160;NOT NULL</text>
<polygon fill="none" stroke="black" points="92.5,-368 92.5,-388 338.5,-388 338.5,-368 92.5,-368"/>
<text text-anchor="start" x="97.5" y="-376.8" font-family="Verdana" font-weight="bold" font-size="9.00">market</text>
<text text-anchor="start" x="134.5" y="-376.8" font-family="Verdana" font-size="9.00">: </text>
<text text-anchor="start" x="141.5" y="-376.8" font-family="Verdana" font-style="italic" font-size="9.00">TEXT &#160;NOT NULL</text>
<polygon fill="none" stroke="black" points="92.5,-348 92.5,-368 338.5,-368 338.5,-348 92.5,-348"/>
<text text-anchor="start" x="97.5" y="-356.8" font-family="Verdana" font-weight="bold" font-size="9.00">ticker</text>
<text text-anchor="start" x="127.5" y="-356.8" font-family="Verdana" font-size="9.00">: </text>
<text text-anchor="start" x="134.5" y="-356.8" font-family="Verdana" font-style="italic" font-size="9.00">TEXT &#160;NOT NULL</text>
<polygon fill="none" stroke="black" points="92.5,-328 92.5,-348 338.5,-348 338.5,-328 92.5,-328"/>
<text text-anchor="start" x="97.5" y="-336.8" font-family="Verdana" font-weight="bold" font-size="9.00">name</text>
<text text-anchor="start" x="126.5" y="-336.8" font-family="Verdana" font-size="9.00">: </text>
<text text-anchor="start" x="133.5" y="-336.8" font-family="Verdana" font-style="italic" font-size="9.00">TEXT </text>
<polygon fill="none" stroke="black" points="92.5,-308 92.5,-328 338.5,-328 338.5,-308 92.5,-308"/>
<text text-anchor="start" x="97.5" y="-316.8" font-family="Verdana" font-weight="bold" font-size="9.00">instrument_type_code</text>
<text text-anchor="start" x="212.5" y="-316.8" font-family="Verdana" font-size="9.00">: </text>
<text text-anchor="start" x="219.5" y="-316.8" font-family="Verdana" font-style="italic" font-size="9.00">VARCHAR(32) &#160;NOT NULL</text>
<polygon fill="none" stroke="black" points="92.5,-288 92.5,-308 338.5,-308 338.5,-288 92.5,-288"/>
<text text-anchor="start" x="97.5" y="-296.8" font-family="Verdana" font-weight="bold" font-size="9.00">first_seen</text>
<text text-anchor="start" x="147.5" y="-296.8" font-family="Verdana" font-size="9.00">: </text>
<text text-anchor="start" x="154.5" y="-296.8" font-family="Verdana" font-style="italic" font-size="9.00">DATE </text>
<polygon fill="none" stroke="black" points="92.5,-268 92.5,-288 338.5,-288 338.5,-268 92.5,-268"/>
<text text-anchor="start" x="97.5" y="-276.8" font-family="Verdana" font-weight="bold" font-size="9.00">last_seen</text>
<text text-anchor="start" x="145.5" y="-276.8" font-family="Verdana" font-size="9.00">: </text>
<text text-anchor="start" x="152.5" y="-276.8" font-family="Verdana" font-style="italic" font-size="9.00">DATE </text>
<polygon fill="none" stroke="black" points="92.5,-248 92.5,-268 338.5,-268 338.5,-248 92.5,-248"/>
<text text-anchor="start" x="97.5" y="-256.8" font-family="Verdana" font-weight="bold" font-size="9.00">created_at</text>
<text text-anchor="start" x="152.5" y="-256.8" font-family="Verdana" font-size="9.00">: </text>
<text text-anchor="start" x="159.5" y="-256.8" font-family="Verdana" font-style="italic" font-size="9.00">TIMESTAMPTZ &#160;NOT NULL</text>
<polygon fill="none" stroke="black" points="92.5,-228 92.5,-248 338.5,-248 338.5,-228 92.5,-228"/>
<text text-anchor="start" x="97.5" y="-236.8" font-family="Verdana" font-weight="bold" font-size="9.00">updated_at</text>
<text text-anchor="start" x="156.5" y="-236.8" font-family="Verdana" font-size="9.00">: </text>
<text text-anchor="start" x="163.5" y="-236.8" font-family="Verdana" font-style="italic" font-size="9.00">TIMESTAMPTZ &#160;NOT NULL</text>
<polygon fill="none" stroke="black" points="92.5,-208 92.5,-228 338.5,-228 338.5,-208 92.5,-208"/>
<text text-anchor="start" x="97.5" y="-216.8" font-family="Verdana" font-weight="bold" font-size="9.00">status</text>
<text text-anchor="start" x="130.5" y="-216.8" font-family="Verdana" font-size="9.00">: </text>
<text text-anchor="start" x="137.5" y="-216.8" font-family="Verdana" font-style="italic" font-size="9.00">VARCHAR(32) &#160;NOT NULL</text>
<polygon fill="none" stroke="black" points="92.5,-188 92.5,-208 338.5,-208 338.5,-188 92.5,-188"/>
<text text-anchor="start" x="97.5" y="-196.8" font-family="Verdana" font-weight="bold" font-size="9.00">metadata</text>
<text text-anchor="start" x="147.5" y="-196.8" font-family="Verdana" font-size="9.00">: </text>
<text text-anchor="start" x="154.5" y="-196.8" font-family="Verdana" font-style="italic" font-size="9.00">JSONB </text>
</g>
<!-- ohlcv_daily&#45;&gt;provider_listing -->
<g id="edge1" class="edge">
<title>ohlcv_daily:provider_listing_id&#45;&gt;provider_listing:provider_listing_id</title>
<path fill="none" stroke="black" d="M311.5,-762C433.28,-762 389.45,-580.72 310.5,-488 246.83,-413.23 157.12,-525.94 92.5,-452 85.66,-444.17 80.61,-431.04 83.03,-423.59"/>
<polygon fill="black" stroke="black" points="85.08,-426.43 91.5,-418 81.23,-420.59 85.08,-426.43"/>
</g>
<!-- provider -->
<g id="node3" class="node">
<title>provider</title>
<polygon fill="lightblue" stroke="transparent" points="227.5,-124 227.5,-144 431.5,-144 431.5,-124 227.5,-124"/>
<polygon fill="none" stroke="black" points="227.5,-124 227.5,-144 431.5,-144 431.5,-124 227.5,-124"/>
<text text-anchor="start" x="307.5" y="-132.8" font-family="Verdana" font-weight="bold" font-size="9.00">provider</text>
<polygon fill="none" stroke="black" points="227.5,-104 227.5,-124 431.5,-124 431.5,-104 227.5,-104"/>
<text text-anchor="start" x="232.5" y="-112.8" font-family="Verdana" font-weight="bold" font-size="9.00">provider_code</text>
<text text-anchor="start" x="305.5" y="-112.8" font-family="Verdana" font-size="9.00">: </text>
<text text-anchor="start" x="312.5" y="-112.8" font-family="Verdana" font-style="italic" font-size="9.00">VARCHAR(32) &#160;NOT NULL</text>
<polygon fill="none" stroke="black" points="227.5,-84 227.5,-104 431.5,-104 431.5,-84 227.5,-84"/>
<text text-anchor="start" x="232.5" y="-92.8" font-family="Verdana" font-weight="bold" font-size="9.00">provider_name</text>
<text text-anchor="start" x="309.5" y="-92.8" font-family="Verdana" font-size="9.00">: </text>
<text text-anchor="start" x="316.5" y="-92.8" font-family="Verdana" font-style="italic" font-size="9.00">TEXT &#160;NOT NULL</text>
<polygon fill="none" stroke="black" points="227.5,-64 227.5,-84 431.5,-84 431.5,-64 227.5,-64"/>
<text text-anchor="start" x="232.5" y="-72.8" font-family="Verdana" font-weight="bold" font-size="9.00">provider_type</text>
<text text-anchor="start" x="304.5" y="-72.8" font-family="Verdana" font-size="9.00">: </text>
<text text-anchor="start" x="311.5" y="-72.8" font-family="Verdana" font-style="italic" font-size="9.00">VARCHAR(32) &#160;NOT NULL</text>
<polygon fill="none" stroke="black" points="227.5,-44 227.5,-64 431.5,-64 431.5,-44 227.5,-44"/>
<text text-anchor="start" x="232.5" y="-52.8" font-family="Verdana" font-weight="bold" font-size="9.00">website</text>
<text text-anchor="start" x="272.5" y="-52.8" font-family="Verdana" font-size="9.00">: </text>
<text text-anchor="start" x="279.5" y="-52.8" font-family="Verdana" font-style="italic" font-size="9.00">TEXT </text>
<polygon fill="none" stroke="black" points="227.5,-24 227.5,-44 431.5,-44 431.5,-24 227.5,-24"/>
<text text-anchor="start" x="232.5" y="-32.8" font-family="Verdana" font-weight="bold" font-size="9.00">description</text>
<text text-anchor="start" x="290.5" y="-32.8" font-family="Verdana" font-size="9.00">: </text>
<text text-anchor="start" x="297.5" y="-32.8" font-family="Verdana" font-style="italic" font-size="9.00">TEXT </text>
<polygon fill="none" stroke="black" points="227.5,-4 227.5,-24 431.5,-24 431.5,-4 227.5,-4"/>
<text text-anchor="start" x="232.5" y="-12.8" font-family="Verdana" font-weight="bold" font-size="9.00">is_active</text>
<text text-anchor="start" x="276.5" y="-12.8" font-family="Verdana" font-size="9.00">: </text>
<text text-anchor="start" x="283.5" y="-12.8" font-family="Verdana" font-style="italic" font-size="9.00">BOOLEAN &#160;NOT NULL</text>
</g>
<!-- provider_listing&#45;&gt;instrument_type -->
<g id="edge2" class="edge">
<title>provider_listing:instrument_type_code&#45;&gt;instrument_type:type_code</title>
<path fill="none" stroke="black" d="M91.5,-318C31.94,-318 60.09,-233.97 92.5,-184 119.34,-142.62 166.2,-179.08 193.5,-138 199.12,-129.54 204.46,-117.1 202.78,-109.85"/>
<polygon fill="black" stroke="black" points="204.69,-106.91 194.5,-104 200.65,-112.63 204.69,-106.91"/>
</g>
<!-- provider_listing&#45;&gt;provider -->
<g id="edge3" class="edge">
<title>provider_listing:provider_code&#45;&gt;provider:provider_code</title>
<path fill="none" stroke="black" d="M339.5,-398C434.61,-398 394.61,-260.8 338.5,-184 307.91,-142.12 258.61,-189.5 227.5,-148 221.34,-139.78 216.11,-127.03 218.13,-119.7"/>
<polygon fill="black" stroke="black" points="220.21,-122.52 226.5,-114 216.27,-116.74 220.21,-122.52"/>
</g>
</g>
</svg>
