<?xml version="1.0" encoding="UTF-8" standalone="no"?>
<!DOCTYPE svg PUBLIC "-//W3C//DTD SVG 1.1//EN"
 "http://www.w3.org/Graphics/SVG/1.1/DTD/svg11.dtd">
<!-- Generated by graphviz version 2.42.4 (0)
 -->
<!-- Title: schema_relations Pages: 1 -->
<svg width="419pt" height="151pt"
 viewBox="0.00 0.00 419.00 151.00" xmlns="http://www.w3.org/2000/svg" xmlns:xlink="http://www.w3.org/1999/xlink">
<g id="graph0" class="graph" transform="scale(1 1) rotate(0) translate(18 133)">
<title>schema_relations</title>
<!-- core_run -->
<g id="node1" class="node">
<title>core_run</title>
<path fill="#f8fafc" stroke="#334155" d="M61,-115C61,-115 23,-115 23,-115 17,-115 11,-109 11,-103 11,-103 11,-91 11,-91 11,-85 17,-79 23,-79 23,-79 61,-79 61,-79 67,-79 73,-85 73,-91 73,-91 73,-103 73,-103 73,-109 67,-115 61,-115"/>
<text text-anchor="middle" x="42" y="-94.2" font-family="Helvetica,sans-Serif" font-size="11.00">core_run</text>
</g>
<!-- stored_object -->
<g id="node3" class="node">
<title>stored_object</title>
<path fill="#f8fafc" stroke="#334155" d="M371,-75C371,-75 306,-75 306,-75 300,-75 294,-69 294,-63 294,-63 294,-51 294,-51 294,-45 300,-39 306,-39 306,-39 371,-39 371,-39 377,-39 383,-45 383,-51 383,-51 383,-63 383,-63 383,-69 377,-75 371,-75"/>
<text text-anchor="middle" x="338.5" y="-54.2" font-family="Helvetica,sans-Serif" font-size="11.00">stored_object</text>
</g>
<!-- core_run&#45;&gt;stored_object -->
<g id="edge1" class="edge">
<title>core_run&#45;&gt;stored_object</title>
<path fill="none" stroke="#64748b" d="M73.13,-92.91C123.42,-86.08 225.01,-72.28 286.57,-63.92"/>
<polygon fill="#64748b" stroke="#64748b" points="287.27,-66.3 293.87,-62.93 286.61,-61.44 287.27,-66.3"/>
<text text-anchor="middle" x="189" y="-88.6" font-family="Helvetica,sans-Serif" font-size="8.00">stored_object_run_id_fkey</text>
</g>
<!-- storage_root -->
<g id="node2" class="node">
<title>storage_root</title>
<path fill="#f8fafc" stroke="#334155" d="M72,-36C72,-36 12,-36 12,-36 6,-36 0,-30 0,-24 0,-24 0,-12 0,-12 0,-6 6,0 12,0 12,0 72,0 72,0 78,0 84,-6 84,-12 84,-12 84,-24 84,-24 84,-30 78,-36 72,-36"/>
<text text-anchor="middle" x="42" y="-15.2" font-family="Helvetica,sans-Serif" font-size="11.00">storage_root</text>
</g>
<!-- storage_root&#45;&gt;stored_object -->
<g id="edge2" class="edge">
<title>storage_root&#45;&gt;stored_object</title>
<path fill="none" stroke="#64748b" d="M84.3,-18.74C128.38,-20.11 200.11,-23.99 261,-35 269.48,-36.53 278.36,-38.62 286.95,-40.91"/>
<polygon fill="#64748b" stroke="#64748b" points="286.37,-43.29 293.77,-42.78 287.66,-38.56 286.37,-43.29"/>
<text text-anchor="middle" x="189" y="-37.6" font-family="Helvetica,sans-Serif" font-size="8.00">stored_object_storage_root_id_fkey</text>
</g>
</g>
</svg>
