<?xml version="1.0" encoding="UTF-8" standalone="no"?>
<!DOCTYPE svg PUBLIC "-//W3C//DTD SVG 1.1//EN"
 "http://www.w3.org/Graphics/SVG/1.1/DTD/svg11.dtd">
<!-- Generated by graphviz version 2.42.4 (0)
 -->
<!-- Title: ERD Pages: 1 -->
<svg width="568pt" height="880pt"
 viewBox="0.00 0.00 568.00 880.00" xmlns="http://www.w3.org/2000/svg" xmlns:xlink="http://www.w3.org/1999/xlink">
<g id="graph0" class="graph" transform="scale(1 1) rotate(0) translate(4 876)">
<title>ERD</title>
<polygon fill="white" stroke="transparent" points="-4,4 -4,-876 564,-876 564,4 -4,4"/>
<!-- core_run -->
<g id="node1" class="node">
<title>core_run</title>
<polygon fill="lightblue" stroke="transparent" points="8.5,-384 8.5,-404 199.5,-404 199.5,-384 8.5,-384"/>
<polygon fill="none" stroke="black" points="8.5,-384 8.5,-404 199.5,-404 199.5,-384 8.5,-384"/>
<text text-anchor="start" x="81.5" y="-392.8" font-family="Verdana" font-weight="bold" font-size="9.00">core_run</text>
<polygon fill="none" stroke="black" points="8.5,-364 8.5,-384 199.5,-384 199.5,-364 8.5,-364"/>
<text text-anchor="start" x="13.5" y="-372.8" font-family="Verdana" font-weight="bold" font-size="9.00">run_id</text>
<text text-anchor="start" x="46.5" y="-372.8" font-family="Verdana" font-size="9.00">: </text>
<text text-anchor="start" x="53.5" y="-372.8" font-family="Verdana" font-style="italic" font-size="9.00">UUID &#160;NOT NULL</text>
<polygon fill="none" stroke="black" points="8.5,-344 8.5,-364 199.5,-364 199.5,-344 8.5,-344"/>
<text text-anchor="start" x="13.5" y="-352.8" font-family="Verdana" font-weight="bold" font-size="9.00">domain</text>
<text text-anchor="start" x="52.5" y="-352.8" font-family="Verdana" font-size="9.00">: </text>
<text text-anchor="start" x="59.5" y="-352.8" font-family="Verdana" font-style="italic" font-size="9.00">VARCHAR(64) &#160;NOT NULL</text>
<polygon fill="none" stroke="black" points="8.5,-324 8.5,-344 199.5,-344 199.5,-324 8.5,-324"/>
<text text-anchor="start" x="13.5" y="-332.8" font-family="Verdana" font-weight="bold" font-size="9.00">job_name</text>
<text text-anchor="start" x="62.5" y="-332.8" font-family="Verdana" font-size="9.00">: </text>
<text text-anchor="start" x="69.5" y="-332.8" font-family="Verdana" font-style="italic" font-size="9.00">VARCHAR(128) &#160;NOT NULL</text>
<polygon fill="none" stroke="black" points="8.5,-304 8.5,-324 199.5,-324 199.5,-304 8.5,-304"/>
<text text-anchor="start" x="13.5" y="-312.8" font-family="Verdana" font-weight="bold" font-size="9.00">subject_key</text>
<text text-anchor="start" x="74.5" y="-312.8" font-family="Verdana" font-size="9.00">: </text>
<text text-anchor="start" x="81.5" y="-312.8" font-family="Verdana" font-style="italic" font-size="9.00">VARCHAR(255) </text>
<polygon fill="none" stroke="black" points="8.5,-284 8.5,-304 199.5,-304 199.5,-284 8.5,-284"/>
<text text-anchor="start" x="13.5" y="-292.8" font-family="Verdana" font-weight="bold" font-size="9.00">effective_date</text>
<text text-anchor="start" x="86.5" y="-292.8" font-family="Verdana" font-size="9.00">: </text>
<text text-anchor="start" x="93.5" y="-292.8" font-family="Verdana" font-style="italic" font-size="9.00">DATE </text>
<polygon fill="none" stroke="black" points="8.5,-264 8.5,-284 199.5,-284 199.5,-264 8.5,-264"/>
<text text-anchor="start" x="13.5" y="-272.8" font-family="Verdana" font-weight="bold" font-size="9.00">run_type</text>
<text text-anchor="start" x="59.5" y="-272.8" font-family="Verdana" font-size="9.00">: </text>
<text text-anchor="start" x="66.5" y="-272.8" font-family="Verdana" font-style="italic" font-size="9.00">VARCHAR(32) &#160;NOT NULL</text>
<polygon fill="none" stroke="black" points="8.5,-244 8.5,-264 199.5,-264 199.5,-244 8.5,-244"/>
<text text-anchor="start" x="13.5" y="-252.8" font-family="Verdana" font-weight="bold" font-size="9.00">status</text>
<text text-anchor="start" x="46.5" y="-252.8" font-family="Verdana" font-size="9.00">: </text>
<text text-anchor="start" x="53.5" y="-252.8" font-family="Verdana" font-style="italic" font-size="9.00">VARCHAR(32) &#160;NOT NULL</text>
<polygon fill="none" stroke="black" points="8.5,-224 8.5,-244 199.5,-244 199.5,-224 8.5,-224"/>
<text text-anchor="start" x="13.5" y="-232.8" font-family="Verdana" font-weight="bold" font-size="9.00">started_at</text>
<text text-anchor="start" x="66.5" y="-232.8" font-family="Verdana" font-size="9.00">: </text>
<text text-anchor="start" x="73.5" y="-232.8" font-family="Verdana" font-style="italic" font-size="9.00">TIMESTAMPTZ &#160;NOT NULL</text>
<polygon fill="none" stroke="black" points="8.5,-204 8.5,-224 199.5,-224 199.5,-204 8.5,-204"/>
<text text-anchor="start" x="13.5" y="-212.8" font-family="Verdana" font-weight="bold" font-size="9.00">completed_at</text>
<text text-anchor="start" x="83.5" y="-212.8" font-family="Verdana" font-size="9.00">: </text>
<text text-anchor="start" x="90.5" y="-212.8" font-family="Verdana" font-style="italic" font-size="9.00">TIMESTAMPTZ </text>
<polygon fill="none" stroke="black" points="8.5,-184 8.5,-204 199.5,-204 199.5,-184 8.5,-184"/>
<text text-anchor="start" x="13.5" y="-192.8" font-family="Verdana" font-weight="bold" font-size="9.00">heartbeat_timeout_seconds</text>
<text text-anchor="start" x="155.5" y="-192.8" font-family="Verdana" font-size="9.00">: </text>
<text text-anchor="start" x="162.5" y="-192.8" font-family="Verdana" font-style="italic" font-size="9.00">INT </text>
<polygon fill="none" stroke="black" points="8.5,-164 8.5,-184 199.5,-184 199.5,-164 8.5,-164"/>
<text text-anchor="start" x="13.5" y="-172.8" font-family="Verdana" font-weight="bold" font-size="9.00">last_heartbeat_at</text>
<text text-anchor="start" x="103.5" y="-172.8" font-family="Verdana" font-size="9.00">: </text>
<text text-anchor="start" x="110.5" y="-172.8" font-family="Verdana" font-style="italic" font-size="9.00">TIMESTAMPTZ </text>
<polygon fill="none" stroke="black" points="8.5,-144 8.5,-164 199.5,-164 199.5,-144 8.5,-144"/>
<text text-anchor="start" x="13.5" y="-152.8" font-family="Verdana" font-weight="bold" font-size="9.00">stale_after</text>
<text text-anchor="start" x="68.5" y="-152.8" font-family="Verdana" font-size="9.00">: </text>
<text text-anchor="start" x="75.5" y="-152.8" font-family="Verdana" font-style="italic" font-size="9.00">TIMESTAMPTZ </text>
<polygon fill="none" stroke="black" points="8.5,-124 8.5,-144 199.5,-144 199.5,-124 8.5,-124"/>
<text text-anchor="start" x="13.5" y="-132.8" font-family="Verdana" font-weight="bold" font-size="9.00">runner</text>
<text text-anchor="start" x="49.5" y="-132.8" font-family="Verdana" font-size="9.00">: </text>
<text text-anchor="start" x="56.5" y="-132.8" font-family="Verdana" font-style="italic" font-size="9.00">VARCHAR(32) &#160;NOT NULL</text>
<polygon fill="none" stroke="black" points="8.5,-104 8.5,-124 199.5,-124 199.5,-104 8.5,-104"/>
<text text-anchor="start" x="13.5" y="-112.8" font-family="Verdana" font-weight="bold" font-size="9.00">runner_ref</text>
<text text-anchor="start" x="68.5" y="-112.8" font-family="Verdana" font-size="9.00">: </text>
<text text-anchor="start" x="75.5" y="-112.8" font-family="Verdana" font-style="italic" font-size="9.00">JSONB &#160;NOT NULL</text>
<polygon fill="none" stroke="black" points="8.5,-84 8.5,-104 199.5,-104 199.5,-84 8.5,-84"/>
<text text-anchor="start" x="13.5" y="-92.8" font-family="Verdana" font-weight="bold" font-size="9.00">params</text>
<text text-anchor="start" x="52.5" y="-92.8" font-family="Verdana" font-size="9.00">: </text>
<text text-anchor="start" x="59.5" y="-92.8" font-family="Verdana" font-style="italic" font-size="9.00">JSONB &#160;NOT NULL</text>
<polygon fill="none" stroke="black" points="8.5,-64 8.5,-84 199.5,-84 199.5,-64 8.5,-64"/>
<text text-anchor="start" x="13.5" y="-72.8" font-family="Verdana" font-weight="bold" font-size="9.00">summary</text>
<text text-anchor="start" x="62.5" y="-72.8" font-family="Verdana" font-size="9.00">: </text>
<text text-anchor="start" x="69.5" y="-72.8" font-family="Verdana" font-style="italic" font-size="9.00">JSONB &#160;NOT NULL</text>
<polygon fill="none" stroke="black" points="8.5,-44 8.5,-64 199.5,-64 199.5,-44 8.5,-44"/>
<text text-anchor="start" x="13.5" y="-52.8" font-family="Verdana" font-weight="bold" font-size="9.00">error_message</text>
<text text-anchor="start" x="89.5" y="-52.8" font-family="Verdana" font-size="9.00">: </text>
<text text-anchor="start" x="96.5" y="-52.8" font-family="Verdana" font-style="italic" font-size="9.00">TEXT </text>
<polygon fill="none" stroke="black" points="8.5,-24 8.5,-44 199.5,-44 199.5,-24 8.5,-24"/>
<text text-anchor="start" x="13.5" y="-32.8" font-family="Verdana" font-weight="bold" font-size="9.00">created_at</text>
<text text-anchor="start" x="68.5" y="-32.8" font-family="Verdana" font-size="9.00">: </text>
<text text-anchor="start" x="75.5" y="-32.8" font-family="Verdana" font-style="italic" font-size="9.00">TIMESTAMPTZ &#160;NOT NULL</text>
<polygon fill="none" stroke="black" points="8.5,-4 8.5,-24 199.5,-24 199.5,-4 8.5,-4"/>
<text text-anchor="start" x="13.5" y="-12.8" font-family="Verdana" font-weight="bold" font-size="9.00">updated_at</text>
<text text-anchor="start" x="72.5" y="-12.8" font-family="Verdana" font-size="9.00">: </text>
<text text-anchor="start" x="79.5" y="-12.8" font-family="Verdana" font-style="italic" font-size="9.00">TIMESTAMPTZ &#160;NOT NULL</text>
</g>
<!-- flyway_schema_history -->
<g id="node2" class="node">
<title>flyway_schema_history</title>
<polygon fill="lightblue" stroke="transparent" points="353.5,-748 353.5,-768 552.5,-768 552.5,-748 353.5,-748"/>
<polygon fill="none" stroke="black" points="353.5,-748 353.5,-768 552.5,-768 552.5,-748 353.5,-748"/>
<text text-anchor="start" x="394" y="-756.8" font-family="Verdana" font-weight="bold" font-size="9.00">flyway_schema_history</text>
<polygon fill="none" stroke="black" points="353.5,-728 353.5,-748 552.5,-748 552.5,-728 353.5,-728"/>
<text text-anchor="start" x="358.5" y="-736.8" font-family="Verdana" font-weight="bold" font-size="9.00">installed_rank</text>
<text text-anchor="start" x="431.5" y="-736.8" font-family="Verdana" font-size="9.00">: </text>
<text text-anchor="start" x="438.5" y="-736.8" font-family="Verdana" font-style="italic" font-size="9.00">INT &#160;NOT NULL</text>
<polygon fill="none" stroke="black" points="353.5,-708 353.5,-728 552.5,-728 552.5,-708 353.5,-708"/>
<text text-anchor="start" x="358.5" y="-716.8" font-family="Verdana" font-weight="bold" font-size="9.00">version</text>
<text text-anchor="start" x="396.5" y="-716.8" font-family="Verdana" font-size="9.00">: </text>
<text text-anchor="start" x="403.5" y="-716.8" font-family="Verdana" font-style="italic" font-size="9.00">VARCHAR(50) </text>
<polygon fill="none" stroke="black" points="353.5,-688 353.5,-708 552.5,-708 552.5,-688 353.5,-688"/>
<text text-anchor="start" x="358.5" y="-696.8" font-family="Verdana" font-weight="bold" font-size="9.00">description</text>
<text text-anchor="start" x="416.5" y="-696.8" font-family="Verdana" font-size="9.00">: </text>
<text text-anchor="start" x="423.5" y="-696.8" font-family="Verdana" font-style="italic" font-size="9.00">VARCHAR(200) &#160;NOT NULL</text>
<polygon fill="none" stroke="black" points="353.5,-668 353.5,-688 552.5,-688 552.5,-668 353.5,-668"/>
<text text-anchor="start" x="358.5" y="-676.8" font-family="Verdana" font-weight="bold" font-size="9.00">type</text>
<text text-anchor="start" x="382.5" y="-676.8" font-family="Verdana" font-size="9.00">: </text>
<text text-anchor="start" x="389.5" y="-676.8" font-family="Verdana" font-style="italic" font-size="9.00">VARCHAR(20) &#160;NOT NULL</text>
<polygon fill="none" stroke="black" points="353.5,-648 353.5,-668 552.5,-668 552.5,-648 353.5,-648"/>
<text text-anchor="start" x="358.5" y="-656.8" font-family="Verdana" font-weight="bold" font-size="9.00">script</text>
<text text-anchor="start" x="388.5" y="-656.8" font-family="Verdana" font-size="9.00">: </text>
<text text-anchor="start" x="395.5" y="-656.8" font-family="Verdana" font-style="italic" font-size="9.00">VARCHAR(1000) &#160;NOT NULL</text>
<polygon fill="none" stroke="black" points="353.5,-628 353.5,-648 552.5,-648 552.5,-628 353.5,-628"/>
<text text-anchor="start" x="358.5" y="-636.8" font-family="Verdana" font-weight="bold" font-size="9.00">checksum</text>
<text text-anchor="start" x="410.5" y="-636.8" font-family="Verdana" font-size="9.00">: </text>
<text text-anchor="start" x="417.5" y="-636.8" font-family="Verdana" font-style="italic" font-size="9.00">INT </text>
<polygon fill="none" stroke="black" points="353.5,-608 353.5,-628 552.5,-628 552.5,-608 353.5,-608"/>
<text text-anchor="start" x="358.5" y="-616.8" font-family="Verdana" font-weight="bold" font-size="9.00">installed_by</text>
<text text-anchor="start" x="420.5" y="-616.8" font-family="Verdana" font-size="9.00">: </text>
<text text-anchor="start" x="427.5" y="-616.8" font-family="Verdana" font-style="italic" font-size="9.00">VARCHAR(100) &#160;NOT NULL</text>
<polygon fill="none" stroke="black" points="353.5,-588 353.5,-608 552.5,-608 552.5,-588 353.5,-588"/>
<text text-anchor="start" x="358.5" y="-596.8" font-family="Verdana" font-weight="bold" font-size="9.00">installed_on</text>
<text text-anchor="start" x="420.5" y="-596.8" font-family="Verdana" font-size="9.00">: </text>
<text text-anchor="start" x="427.5" y="-596.8" font-family="Verdana" font-style="italic" font-size="9.00">TIMESTAMP &#160;NOT NULL</text>
<polygon fill="none" stroke="black" points="353.5,-568 353.5,-588 552.5,-588 552.5,-568 353.5,-568"/>
<text text-anchor="start" x="358.5" y="-576.8" font-family="Verdana" font-weight="bold" font-size="9.00">execution_time</text>
<text text-anchor="start" x="437.5" y="-576.8" font-family="Verdana" font-size="9.00">: </text>
<text text-anchor="start" x="444.5" y="-576.8" font-family="Verdana" font-style="italic" font-size="9.00">INT &#160;NOT NULL</text>
<polygon fill="none" stroke="black" points="353.5,-548 353.5,-568 552.5,-568 552.5,-548 353.5,-548"/>
<text text-anchor="start" x="358.5" y="-556.8" font-family="Verdana" font-weight="bold" font-size="9.00">success</text>
<text text-anchor="start" x="398.5" y="-556.8" font-family="Verdana" font-size="9.00">: </text>
<text text-anchor="start" x="405.5" y="-556.8" font-family="Verdana" font-style="italic" font-size="9.00">BOOLEAN &#160;NOT NULL</text>
</g>
<!-- storage_root -->
<g id="node3" class="node">
<title>storage_root</title>
<polygon fill="lightblue" stroke="transparent" points="233.5,-274 233.5,-294 436.5,-294 436.5,-274 233.5,-274"/>
<polygon fill="none" stroke="black" points="233.5,-274 233.5,-294 436.5,-294 436.5,-274 233.5,-274"/>
<text text-anchor="start" x="302.5" y="-282.8" font-family="Verdana" font-weight="bold" font-size="9.00">storage_root</text>
<polygon fill="none" stroke="black" points="233.5,-254 233.5,-274 436.5,-274 436.5,-254 233.5,-254"/>
<text text-anchor="start" x="238.5" y="-262.8" font-family="Verdana" font-weight="bold" font-size="9.00">storage_root_id</text>
<text text-anchor="start" x="317.5" y="-262.8" font-family="Verdana" font-size="9.00">: </text>
<text text-anchor="start" x="324.5" y="-262.8" font-family="Verdana" font-style="italic" font-size="9.00">BIGINT &#160;NOT NULL</text>
<polygon fill="none" stroke="black" points="233.5,-234 233.5,-254 436.5,-254 436.5,-234 233.5,-234"/>
<text text-anchor="start" x="238.5" y="-242.8" font-family="Verdana" font-weight="bold" font-size="9.00">root_name</text>
<text text-anchor="start" x="293.5" y="-242.8" font-family="Verdana" font-size="9.00">: </text>
<text text-anchor="start" x="300.5" y="-242.8" font-family="Verdana" font-style="italic" font-size="9.00">VARCHAR(64) &#160;NOT NULL</text>
<polygon fill="none" stroke="black" points="233.5,-214 233.5,-234 436.5,-234 436.5,-214 233.5,-214"/>
<text text-anchor="start" x="238.5" y="-222.8" font-family="Verdana" font-weight="bold" font-size="9.00">backend_type</text>
<text text-anchor="start" x="310.5" y="-222.8" font-family="Verdana" font-size="9.00">: </text>
<text text-anchor="start" x="317.5" y="-222.8" font-family="Verdana" font-style="italic" font-size="9.00">VARCHAR(32) &#160;NOT NULL</text>
<polygon fill="none" stroke="black" points="233.5,-194 233.5,-214 436.5,-214 436.5,-194 233.5,-194"/>
<text text-anchor="start" x="238.5" y="-202.8" font-family="Verdana" font-weight="bold" font-size="9.00">base_uri</text>
<text text-anchor="start" x="281.5" y="-202.8" font-family="Verdana" font-size="9.00">: </text>
<text text-anchor="start" x="288.5" y="-202.8" font-family="Verdana" font-style="italic" font-size="9.00">VARCHAR(1024) &#160;NOT NULL</text>
<polygon fill="none" stroke="black" points="233.5,-174 233.5,-194 436.5,-194 436.5,-174 233.5,-174"/>
<text text-anchor="start" x="238.5" y="-182.8" font-family="Verdana" font-weight="bold" font-size="9.00">is_active</text>
<text text-anchor="start" x="282.5" y="-182.8" font-family="Verdana" font-size="9.00">: </text>
<text text-anchor="start" x="289.5" y="-182.8" font-family="Verdana" font-style="italic" font-size="9.00">BOOLEAN &#160;NOT NULL</text>
<polygon fill="none" stroke="black" points="233.5,-154 233.5,-174 436.5,-174 436.5,-154 233.5,-154"/>
<text text-anchor="start" x="238.5" y="-162.8" font-family="Verdana" font-weight="bold" font-size="9.00">config</text>
<text text-anchor="start" x="270.5" y="-162.8" font-family="Verdana" font-size="9.00">: </text>
<text text-anchor="start" x="277.5" y="-162.8" font-family="Verdana" font-style="italic" font-size="9.00">JSONB &#160;NOT NULL</text>
<polygon fill="none" stroke="black" points="233.5,-134 233.5,-154 436.5,-154 436.5,-134 233.5,-134"/>
<text text-anchor="start" x="238.5" y="-142.8" font-family="Verdana" font-weight="bold" font-size="9.00">created_at</text>
<text text-anchor="start" x="293.5" y="-142.8" font-family="Verdana" font-size="9.00">: </text>
<text text-anchor="start" x="300.5" y="-142.8" font-family="Verdana" font-style="italic" font-size="9.00">TIMESTAMPTZ &#160;NOT NULL</text>
<polygon fill="none" stroke="black" points="233.5,-114 233.5,-134 436.5,-134 436.5,-114 233.5,-114"/>
<text text-anchor="start" x="238.5" y="-122.8" font-family="Verdana" font-weight="bold" font-size="9.00">updated_at</text>
<text text-anchor="start" x="297.5" y="-122.8" font-family="Verdana" font-size="9.00">: </text>
<text text-anchor="start" x="304.5" y="-122.8" font-family="Verdana" font-style="italic" font-size="9.00">TIMESTAMPTZ &#160;NOT NULL</text>
</g>
<!-- stored_object -->
<g id="node4" class="node">
<title>stored_object</title>
<polygon fill="lightblue" stroke="transparent" points="120.5,-848 120.5,-868 318.5,-868 318.5,-848 120.5,-848"/>
<polygon fill="none" stroke="black" points="120.5,-848 120.5,-868 318.5,-868 318.5,-848 120.5,-848"/>
<text text-anchor="start" x="184.5" y="-856.8" font-family="Verdana" font-weight="bold" font-size="9.00">stored_object</text>
<polygon fill="none" stroke="black" points="120.5,-828 120.5,-848 318.5,-848 318.5,-828 120.5,-828"/>
<text text-anchor="start" x="125.5" y="-836.8" font-family="Verdana" font-weight="bold" font-size="9.00">object_id</text>
<text text-anchor="start" x="171.5" y="-836.8" font-family="Verdana" font-size="9.00">: </text>
<text text-anchor="start" x="178.5" y="-836.8" font-family="Verdana" font-style="italic" font-size="9.00">UUID &#160;NOT NULL</text>
<polygon fill="none" stroke="black" points="120.5,-808 120.5,-828 318.5,-828 318.5,-808 120.5,-808"/>
<text text-anchor="start" x="125.5" y="-816.8" font-family="Verdana" font-weight="bold" font-size="9.00">run_id</text>
<text text-anchor="start" x="158.5" y="-816.8" font-family="Verdana" font-size="9.00">: </text>
<text text-anchor="start" x="165.5" y="-816.8" font-family="Verdana" font-style="italic" font-size="9.00">UUID </text>
<polygon fill="none" stroke="black" points="120.5,-788 120.5,-808 318.5,-808 318.5,-788 120.5,-788"/>
<text text-anchor="start" x="125.5" y="-796.8" font-family="Verdana" font-weight="bold" font-size="9.00">storage_root_id</text>
<text text-anchor="start" x="204.5" y="-796.8" font-family="Verdana" font-size="9.00">: </text>
<text text-anchor="start" x="211.5" y="-796.8" font-family="Verdana" font-style="italic" font-size="9.00">BIGINT &#160;NOT NULL</text>
<polygon fill="none" stroke="black" points="120.5,-768 120.5,-788 318.5,-788 318.5,-768 120.5,-768"/>
<text text-anchor="start" x="125.5" y="-776.8" font-family="Verdana" font-weight="bold" font-size="9.00">object_key</text>
<text text-anchor="start" x="180.5" y="-776.8" font-family="Verdana" font-size="9.00">: </text>
<text text-anchor="start" x="187.5" y="-776.8" font-family="Verdana" font-style="italic" font-size="9.00">VARCHAR(1024) &#160;NOT NULL</text>
<polygon fill="none" stroke="black" points="120.5,-748 120.5,-768 318.5,-768 318.5,-748 120.5,-748"/>
<text text-anchor="start" x="125.5" y="-756.8" font-family="Verdana" font-weight="bold" font-size="9.00">filename</text>
<text text-anchor="start" x="170.5" y="-756.8" font-family="Verdana" font-size="9.00">: </text>
<text text-anchor="start" x="177.5" y="-756.8" font-family="Verdana" font-style="italic" font-size="9.00">VARCHAR(255) &#160;NOT NULL</text>
<polygon fill="none" stroke="black" points="120.5,-728 120.5,-748 318.5,-748 318.5,-728 120.5,-728"/>
<text text-anchor="start" x="125.5" y="-736.8" font-family="Verdana" font-weight="bold" font-size="9.00">object_scope</text>
<text text-anchor="start" x="191.5" y="-736.8" font-family="Verdana" font-size="9.00">: </text>
<text text-anchor="start" x="198.5" y="-736.8" font-family="Verdana" font-style="italic" font-size="9.00">VARCHAR(32) &#160;NOT NULL</text>
<polygon fill="none" stroke="black" points="120.5,-708 120.5,-728 318.5,-728 318.5,-708 120.5,-708"/>
<text text-anchor="start" x="125.5" y="-716.8" font-family="Verdana" font-weight="bold" font-size="9.00">domain</text>
<text text-anchor="start" x="164.5" y="-716.8" font-family="Verdana" font-size="9.00">: </text>
<text text-anchor="start" x="171.5" y="-716.8" font-family="Verdana" font-style="italic" font-size="9.00">VARCHAR(64) </text>
<polygon fill="none" stroke="black" points="120.5,-688 120.5,-708 318.5,-708 318.5,-688 120.5,-688"/>
<text text-anchor="start" x="125.5" y="-696.8" font-family="Verdana" font-weight="bold" font-size="9.00">logical_name</text>
<text text-anchor="start" x="192.5" y="-696.8" font-family="Verdana" font-size="9.00">: </text>
<text text-anchor="start" x="199.5" y="-696.8" font-family="Verdana" font-style="italic" font-size="9.00">VARCHAR(255) </text>
<polygon fill="none" stroke="black" points="120.5,-668 120.5,-688 318.5,-688 318.5,-668 120.5,-668"/>
<text text-anchor="start" x="125.5" y="-676.8" font-family="Verdana" font-weight="bold" font-size="9.00">content_type</text>
<text text-anchor="start" x="193.5" y="-676.8" font-family="Verdana" font-size="9.00">: </text>
<text text-anchor="start" x="200.5" y="-676.8" font-family="Verdana" font-style="italic" font-size="9.00">VARCHAR(128) </text>
<polygon fill="none" stroke="black" points="120.5,-648 120.5,-668 318.5,-668 318.5,-648 120.5,-648"/>
<text text-anchor="start" x="125.5" y="-656.8" font-family="Verdana" font-weight="bold" font-size="9.00">object_kind</text>
<text text-anchor="start" x="184.5" y="-656.8" font-family="Verdana" font-size="9.00">: </text>
<text text-anchor="start" x="191.5" y="-656.8" font-family="Verdana" font-style="italic" font-size="9.00">VARCHAR(64) </text>
<polygon fill="none" stroke="black" points="120.5,-628 120.5,-648 318.5,-648 318.5,-628 120.5,-628"/>
<text text-anchor="start" x="125.5" y="-636.8" font-family="Verdana" font-weight="bold" font-size="9.00">size_bytes</text>
<text text-anchor="start" x="178.5" y="-636.8" font-family="Verdana" font-size="9.00">: </text>
<text text-anchor="start" x="185.5" y="-636.8" font-family="Verdana" font-style="italic" font-size="9.00">BIGINT </text>
<polygon fill="none" stroke="black" points="120.5,-608 120.5,-628 318.5,-628 318.5,-608 120.5,-608"/>
<text text-anchor="start" x="125.5" y="-616.8" font-family="Verdana" font-weight="bold" font-size="9.00">checksum_sha256</text>
<text text-anchor="start" x="217.5" y="-616.8" font-family="Verdana" font-size="9.00">: </text>
<text text-anchor="start" x="224.5" y="-616.8" font-family="Verdana" font-style="italic" font-size="9.00">CHAR(64) </text>
<polygon fill="none" stroke="black" points="120.5,-588 120.5,-608 318.5,-608 318.5,-588 120.5,-588"/>
<text text-anchor="start" x="125.5" y="-596.8" font-family="Verdana" font-weight="bold" font-size="9.00">expires_at</text>
<text text-anchor="start" x="178.5" y="-596.8" font-family="Verdana" font-size="9.00">: </text>
<text text-anchor="start" x="185.5" y="-596.8" font-family="Verdana" font-style="italic" font-size="9.00">TIMESTAMPTZ </text>
<polygon fill="none" stroke="black" points="120.5,-568 120.5,-588 318.5,-588 318.5,-568 120.5,-568"/>
<text text-anchor="start" x="125.5" y="-576.8" font-family="Verdana" font-weight="bold" font-size="9.00">deleted_at</text>
<text text-anchor="start" x="180.5" y="-576.8" font-family="Verdana" font-size="9.00">: </text>
<text text-anchor="start" x="187.5" y="-576.8" font-family="Verdana" font-style="italic" font-size="9.00">TIMESTAMPTZ </text>
<polygon fill="none" stroke="black" points="120.5,-548 120.5,-568 318.5,-568 318.5,-548 120.5,-548"/>
<text text-anchor="start" x="125.5" y="-556.8" font-family="Verdana" font-weight="bold" font-size="9.00">purge_after</text>
<text text-anchor="start" x="186.5" y="-556.8" font-family="Verdana" font-size="9.00">: </text>
<text text-anchor="start" x="193.5" y="-556.8" font-family="Verdana" font-style="italic" font-size="9.00">TIMESTAMPTZ </text>
<polygon fill="none" stroke="black" points="120.5,-528 120.5,-548 318.5,-548 318.5,-528 120.5,-528"/>
<text text-anchor="start" x="125.5" y="-536.8" font-family="Verdana" font-weight="bold" font-size="9.00">delete_attempts</text>
<text text-anchor="start" x="210.5" y="-536.8" font-family="Verdana" font-size="9.00">: </text>
<text text-anchor="start" x="217.5" y="-536.8" font-family="Verdana" font-style="italic" font-size="9.00">INT &#160;NOT NULL</text>
<polygon fill="none" stroke="black" points="120.5,-508 120.5,-528 318.5,-528 318.5,-508 120.5,-508"/>
<text text-anchor="start" x="125.5" y="-516.8" font-family="Verdana" font-weight="bold" font-size="9.00">last_delete_error</text>
<text text-anchor="start" x="211.5" y="-516.8" font-family="Verdana" font-size="9.00">: </text>
<text text-anchor="start" x="218.5" y="-516.8" font-family="Verdana" font-style="italic" font-size="9.00">TEXT </text>
<polygon fill="none" stroke="black" points="120.5,-488 120.5,-508 318.5,-508 318.5,-488 120.5,-488"/>
<text text-anchor="start" x="125.5" y="-496.8" font-family="Verdana" font-weight="bold" font-size="9.00">metadata</text>
<text text-anchor="start" x="175.5" y="-496.8" font-family="Verdana" font-size="9.00">: </text>
<text text-anchor="start" x="182.5" y="-496.8" font-family="Verdana" font-style="italic" font-size="9.00">JSONB &#160;NOT NULL</text>
<polygon fill="none" stroke="black" points="120.5,-468 120.5,-488 318.5,-488 318.5,-468 120.5,-468"/>
<text text-anchor="start" x="125.5" y="-476.8" font-family="Verdana" font-weight="bold" font-size="9.00">created_at</text>
<text text-anchor="start" x="180.5" y="-476.8" font-family="Verdana" font-size="9.00">: </text>
<text text-anchor="start" x="187.5" y="-476.8" font-family="Verdana" font-style="italic" font-size="9.00">TIMESTAMPTZ &#160;NOT NULL</text>
<polygon fill="none" stroke="black" points="120.5,-448 120.5,-468 318.5,-468 318.5,-448 120.5,-448"/>
<text text-anchor="start" x="125.5" y="-456.8" font-family="Verdana" font-weight="bold" font-size="9.00">updated_at</text>
<text text-anchor="start" x="184.5" y="-456.8" font-family="Verdana" font-size="9.00">: </text>
<text text-anchor="start" x="191.5" y="-456.8" font-family="Verdana" font-style="italic" font-size="9.00">TIMESTAMPTZ &#160;NOT NULL</text>
</g>
<!-- stored_object&#45;&gt;core_run -->
<g id="edge1" class="edge">
<title>stored_object:run_id&#45;&gt;core_run:run_id</title>
<path fill="none" stroke="black" d="M119.5,-818C-46.72,-818 30.39,-583.68 120.5,-444 141.42,-411.58 178.15,-440.14 199.5,-408 205.12,-399.54 210.46,-387.1 208.78,-379.85"/>
<polygon fill="black" stroke="black" points="210.69,-376.91 200.5,-374 206.65,-382.63 210.69,-376.91"/>
</g>
<!-- stored_object&#45;&gt;storage_root -->
<g id="edge2" class="edge">
<title>stored_object:storage_root_id&#45;&gt;storage_root:storage_root_id</title>
<path fill="none" stroke="black" d="M319.5,-798C339.17,-798 323.65,-462.98 318.5,-444 308.16,-405.9 212.86,-292.89 223.45,-268.62"/>
<polygon fill="black" stroke="black" points="225.19,-271.67 232.5,-264 222,-265.43 225.19,-271.67"/>
</g>
</g>
</svg>
